G04 #@! TF.GenerationSoftware,KiCad,Pcbnew,5.1.5*
G04 #@! TF.CreationDate,2020-05-08T23:36:38+02:00*
G04 #@! TF.ProjectId,nucular-keyboard,6e756375-6c61-4722-9d6b-6579626f6172,rev?*
G04 #@! TF.SameCoordinates,Original*
G04 #@! TF.FileFunction,Legend,Top*
G04 #@! TF.FilePolarity,Positive*
%FSLAX46Y46*%
G04 Gerber Fmt 4.6, Leading zero omitted, Abs format (unit mm)*
G04 Created by KiCad (PCBNEW 5.1.5) date 2020-05-08 23:36:38*
%MOMM*%
%LPD*%
G04 APERTURE LIST*
%ADD10C,0.100000*%
%ADD11C,0.150000*%
%ADD12C,0.120000*%
G04 APERTURE END LIST*
D10*
X102709666Y-65432602D02*
X102415856Y-64736208D01*
X102842227Y-65108632D01*
X102848869Y-64486208D01*
X103142679Y-65182602D01*
X103451974Y-65004030D02*
X103158164Y-64307636D01*
X104104441Y-64544850D02*
X104087502Y-64595869D01*
X104008705Y-64682602D01*
X103946846Y-64718316D01*
X103840066Y-64738726D01*
X103750225Y-64708117D01*
X103691314Y-64659651D01*
X103604421Y-64544862D01*
X103562448Y-64445377D01*
X103537413Y-64294873D01*
X103540361Y-64210693D01*
X103574238Y-64108655D01*
X103653035Y-64021922D01*
X103714894Y-63986208D01*
X103821674Y-63965798D01*
X103866594Y-63981102D01*
X99807583Y-65664745D02*
X99513773Y-64968351D01*
X99940144Y-65340775D01*
X99946786Y-64718351D01*
X100240596Y-65414745D01*
X100256081Y-64539779D02*
X100493927Y-65103527D01*
X100552838Y-65151993D01*
X100597759Y-65167297D01*
X100673609Y-65164745D01*
X100797326Y-65093316D01*
X100845194Y-65024440D01*
X100862133Y-64973421D01*
X100865081Y-64889241D01*
X100627234Y-64325494D01*
X100843741Y-64200494D02*
X101214894Y-63986208D01*
X101323128Y-64789745D02*
X101029318Y-64093351D01*
X101571310Y-64192824D02*
X101787817Y-64067824D01*
X102034506Y-64379030D02*
X101725211Y-64557602D01*
X101431401Y-63861208D01*
X101740696Y-63682636D01*
X97439554Y-65530816D02*
X97145744Y-64834422D01*
X97393180Y-64691565D01*
X97469030Y-64689012D01*
X97513950Y-64704317D01*
X97572862Y-64752783D01*
X97614835Y-64852268D01*
X97611887Y-64936448D01*
X97594949Y-64987467D01*
X97547081Y-65056343D01*
X97299645Y-65199200D01*
X97733404Y-64495136D02*
X98181862Y-65102245D01*
X98095715Y-64533392D01*
X98429298Y-64959388D01*
X98290135Y-64173708D01*
X99202535Y-64512959D02*
X98846119Y-64306343D01*
X98831381Y-64727245D02*
X98537571Y-64030851D01*
X98785007Y-63887994D01*
X98860856Y-63885441D01*
X98905777Y-63900745D01*
X98964688Y-63949211D01*
X99006661Y-64048696D01*
X99003714Y-64132877D01*
X98986775Y-64183895D01*
X98938907Y-64252771D01*
X98691471Y-64395629D01*
X95066220Y-65375207D02*
X95049281Y-65426226D01*
X94970484Y-65512959D01*
X94908625Y-65548673D01*
X94801845Y-65569083D01*
X94712005Y-65538474D01*
X94653093Y-65490008D01*
X94566200Y-65375219D01*
X94524227Y-65275734D01*
X94499193Y-65125230D01*
X94502140Y-65041050D01*
X94536017Y-64939012D01*
X94614815Y-64852279D01*
X94676674Y-64816565D01*
X94783453Y-64796155D01*
X94828373Y-64811460D01*
X95257692Y-65099704D02*
X95566987Y-64921132D01*
X95279779Y-65334388D02*
X95202475Y-64512994D01*
X95712791Y-65084388D01*
X95929298Y-64959388D02*
X95635487Y-64262994D01*
X95882923Y-64120136D01*
X95958773Y-64117584D01*
X96003694Y-64132888D01*
X96062605Y-64181354D01*
X96104578Y-64280839D01*
X96101630Y-64365020D01*
X96084692Y-64416038D01*
X96036824Y-64484914D01*
X95789388Y-64627771D01*
X96533896Y-64569083D02*
X96640676Y-64548673D01*
X96795323Y-64459388D01*
X96843191Y-64390512D01*
X96860130Y-64339493D01*
X96863077Y-64255313D01*
X96835095Y-64188989D01*
X96776184Y-64140523D01*
X96731263Y-64125219D01*
X96655413Y-64127771D01*
X96517705Y-64166038D01*
X96441855Y-64168591D01*
X96396934Y-64153287D01*
X96338023Y-64104820D01*
X96310041Y-64038497D01*
X96312988Y-63954317D01*
X96329927Y-63903298D01*
X96377795Y-63834422D01*
X96532442Y-63745136D01*
X96639222Y-63724727D01*
X92408625Y-65548673D02*
X92114815Y-64852279D01*
X92779779Y-65334388D01*
X92485968Y-64637994D01*
X92795263Y-64459422D02*
X93033109Y-65023170D01*
X93092021Y-65071636D01*
X93136941Y-65086940D01*
X93212791Y-65084388D01*
X93336509Y-65012959D01*
X93384377Y-64944083D01*
X93401316Y-64893064D01*
X93404263Y-64808884D01*
X93166417Y-64245136D01*
X93769522Y-64762959D02*
X93475712Y-64066565D01*
X93902082Y-64438989D01*
X93908724Y-63816565D01*
X94202535Y-64512959D01*
X89593592Y-65631583D02*
X89700372Y-65611173D01*
X89855019Y-65521888D01*
X89902887Y-65453012D01*
X89919826Y-65401993D01*
X89922773Y-65317813D01*
X89894791Y-65251489D01*
X89835880Y-65203023D01*
X89790959Y-65187719D01*
X89715109Y-65190271D01*
X89577401Y-65228538D01*
X89501551Y-65231091D01*
X89456630Y-65215787D01*
X89397719Y-65167320D01*
X89369737Y-65100997D01*
X89372684Y-65016817D01*
X89389623Y-64965798D01*
X89437491Y-64896922D01*
X89592138Y-64807636D01*
X89698918Y-64787227D01*
X90600274Y-65009136D02*
X90583336Y-65060155D01*
X90504538Y-65146888D01*
X90442679Y-65182602D01*
X90335900Y-65203012D01*
X90246059Y-65172403D01*
X90187147Y-65123937D01*
X90100254Y-65009147D01*
X90058281Y-64909662D01*
X90033247Y-64759159D01*
X90036194Y-64674978D01*
X90070072Y-64572941D01*
X90148869Y-64486208D01*
X90210728Y-64450494D01*
X90317507Y-64430084D01*
X90362428Y-64445388D01*
X91277775Y-64700459D02*
X90921359Y-64493843D01*
X90906621Y-64914745D02*
X90612811Y-64218351D01*
X90860247Y-64075494D01*
X90936097Y-64072941D01*
X90981017Y-64088245D01*
X91039929Y-64136711D01*
X91081902Y-64236196D01*
X91078954Y-64320377D01*
X91062016Y-64371395D01*
X91014148Y-64440271D01*
X90766712Y-64583129D01*
X91865435Y-64361173D02*
X91556140Y-64539745D01*
X91262330Y-63843351D01*
X87217467Y-65296132D02*
X87526762Y-65117561D01*
X87239554Y-65530816D02*
X87162251Y-64709422D01*
X87672567Y-65280816D01*
X87595263Y-64459422D02*
X87833109Y-65023170D01*
X87892021Y-65071636D01*
X87936941Y-65086940D01*
X88012791Y-65084388D01*
X88136509Y-65012959D01*
X88184377Y-64944083D01*
X88201316Y-64893064D01*
X88204263Y-64808884D01*
X87966417Y-64245136D01*
X88213853Y-64102279D02*
X88940676Y-64548673D01*
X88646865Y-63852279D02*
X88507663Y-64798673D01*
X84739554Y-65530816D02*
X84430259Y-65709388D01*
X84136449Y-65012994D01*
X84956061Y-65405816D02*
X84662251Y-64709422D01*
X85325761Y-64367584D02*
X85249911Y-64370136D01*
X85157122Y-64423708D01*
X85078325Y-64510441D01*
X85044448Y-64612478D01*
X85041500Y-64696659D01*
X85066534Y-64847162D01*
X85108507Y-64946647D01*
X85195401Y-65061437D01*
X85254312Y-65109903D01*
X85344153Y-65140512D01*
X85450932Y-65120102D01*
X85512791Y-65084388D01*
X85591589Y-64997655D01*
X85608527Y-64946636D01*
X85510591Y-64714504D01*
X85386873Y-64785933D01*
X85914874Y-64852245D02*
X85621064Y-64155851D01*
X85760974Y-64487467D02*
X86132128Y-64273181D01*
X86286028Y-64637959D02*
X85992218Y-63941565D01*
X86208724Y-63816565D02*
X86579878Y-63602279D01*
X86688111Y-64405816D02*
X86394301Y-63709422D01*
D11*
X78575000Y-79875000D02*
X78575000Y-78875000D01*
X68225000Y-79875000D02*
X68225000Y-78800000D01*
X68225000Y-69525000D02*
X68225000Y-70600000D01*
X78575000Y-69525000D02*
X78575000Y-70600000D01*
X78575000Y-79875000D02*
X77500000Y-79875000D01*
X78575000Y-69525000D02*
X77500000Y-69525000D01*
X68225000Y-69525000D02*
X69300000Y-69525000D01*
X68225000Y-79875000D02*
X69300000Y-79875000D01*
X78575000Y-78875000D02*
X79600000Y-78875000D01*
D12*
X65000000Y-63100000D02*
X64550000Y-63100000D01*
X65000000Y-63100000D02*
X65000000Y-63550000D01*
X64450000Y-68700000D02*
X64450000Y-68250000D01*
X62600000Y-68700000D02*
X64450000Y-68700000D01*
X60050000Y-60900000D02*
X60300000Y-60900000D01*
X60050000Y-68700000D02*
X60300000Y-68700000D01*
X62600000Y-60900000D02*
X64450000Y-60900000D01*
X64450000Y-60900000D02*
X64450000Y-61350000D01*
D11*
X82250000Y-76000000D02*
X99250000Y-76000000D01*
X99250000Y-76000000D02*
X99250000Y-83000000D01*
X99250000Y-83000000D02*
X82250000Y-83000000D01*
X82250000Y-83000000D02*
X82250000Y-76000000D01*
X95500000Y-83250000D02*
X95000000Y-84250000D01*
X95000000Y-84250000D02*
X96000000Y-84250000D01*
X96000000Y-84250000D02*
X95500000Y-83250000D01*
X81800000Y-67200000D02*
X105800000Y-67200000D01*
X105800000Y-67200000D02*
X105800000Y-72200000D01*
X105800000Y-72200000D02*
X81800000Y-72200000D01*
X81800000Y-72200000D02*
X81800000Y-67200000D01*
X83800000Y-67200000D02*
X83800000Y-71200000D01*
X83800000Y-71200000D02*
X84800000Y-71200000D01*
X84800000Y-71200000D02*
X84800000Y-72200000D01*
X103800000Y-67200000D02*
X103800000Y-71200000D01*
X103800000Y-71200000D02*
X102800000Y-71200000D01*
X102800000Y-71200000D02*
X102800000Y-72200000D01*
X85500000Y-68400000D02*
X102100000Y-68400000D01*
X102100000Y-68400000D02*
X102100000Y-71000000D01*
X102100000Y-71000000D02*
X85500000Y-71000000D01*
X85500000Y-71000000D02*
X85500000Y-68400000D01*
X81800000Y-68200000D02*
X81100000Y-68200000D01*
X81100000Y-68200000D02*
X81100000Y-71200000D01*
X81100000Y-71200000D02*
X81800000Y-71200000D01*
X105800000Y-68200000D02*
X106500000Y-68200000D01*
X106500000Y-68200000D02*
X106500000Y-71200000D01*
X106500000Y-71200000D02*
X105800000Y-71200000D01*
X103233012Y-72950000D02*
G75*
G03X103233012Y-72950000I-433012J0D01*
G01*
D12*
X70025000Y-66650000D02*
X70025000Y-63650000D01*
X66775000Y-63650000D02*
X66775000Y-66650000D01*
X60700000Y-72260000D02*
X61900000Y-72260000D01*
X60700000Y-76260000D02*
X60700000Y-72260000D01*
X65500000Y-72260000D02*
X65500000Y-74960000D01*
X64300000Y-72260000D02*
X65500000Y-72260000D01*
X60170000Y-79670000D02*
X60170000Y-84810000D01*
X60170000Y-84810000D02*
X62830000Y-84810000D01*
X62830000Y-84810000D02*
X62830000Y-79670000D01*
X62830000Y-79670000D02*
X60170000Y-79670000D01*
X60170000Y-78400000D02*
X60170000Y-77070000D01*
X60170000Y-77070000D02*
X61500000Y-77070000D01*
X69020000Y-62730000D02*
X107180000Y-62730000D01*
X107180000Y-62730000D02*
X107180000Y-60070000D01*
X107180000Y-60070000D02*
X69020000Y-60070000D01*
X69020000Y-60070000D02*
X69020000Y-62730000D01*
X67750000Y-62730000D02*
X66420000Y-62730000D01*
X66420000Y-62730000D02*
X66420000Y-61400000D01*
X65120000Y-80350000D02*
X65120000Y-81280000D01*
X65120000Y-83510000D02*
X65120000Y-82580000D01*
X65120000Y-83510000D02*
X67280000Y-83510000D01*
X65120000Y-80350000D02*
X66580000Y-80350000D01*
X76325000Y-82130000D02*
X76825000Y-82130000D01*
X76825000Y-81190000D02*
X76325000Y-81190000D01*
X65200000Y-78050000D02*
X65200000Y-78750000D01*
X64000000Y-78750000D02*
X64000000Y-78050000D01*
X64150000Y-70700000D02*
X63450000Y-70700000D01*
X63450000Y-69500000D02*
X64150000Y-69500000D01*
X81125000Y-74855000D02*
X80625000Y-74855000D01*
X80625000Y-75795000D02*
X81125000Y-75795000D01*
X68900000Y-68320000D02*
X69400000Y-68320000D01*
X69400000Y-67380000D02*
X68900000Y-67380000D01*
X81125000Y-71880000D02*
X80625000Y-71880000D01*
X80625000Y-72820000D02*
X81125000Y-72820000D01*
X77050000Y-67620000D02*
X77550000Y-67620000D01*
X77550000Y-66680000D02*
X77050000Y-66680000D01*
X80080000Y-78870000D02*
X80080000Y-79370000D01*
X81020000Y-79370000D02*
X81020000Y-78870000D01*
X76325000Y-83320000D02*
X76825000Y-83320000D01*
X76825000Y-82380000D02*
X76325000Y-82380000D01*
X67890000Y-81680000D02*
X67890000Y-82180000D01*
X68950000Y-82180000D02*
X68950000Y-81680000D01*
X77720000Y-81860000D02*
X77720000Y-82360000D01*
X78780000Y-82360000D02*
X78780000Y-81860000D01*
X81320000Y-82350000D02*
X81320000Y-81850000D01*
X80260000Y-81850000D02*
X80260000Y-82350000D01*
X78945000Y-81850000D02*
X78945000Y-82350000D01*
X80005000Y-82350000D02*
X80005000Y-81850000D01*
D10*
X70317857Y-82089285D02*
X70317857Y-81339285D01*
X71103571Y-82017857D02*
X71067857Y-82053571D01*
X70960714Y-82089285D01*
X70889285Y-82089285D01*
X70782142Y-82053571D01*
X70710714Y-81982142D01*
X70675000Y-81910714D01*
X70639285Y-81767857D01*
X70639285Y-81660714D01*
X70675000Y-81517857D01*
X70710714Y-81446428D01*
X70782142Y-81375000D01*
X70889285Y-81339285D01*
X70960714Y-81339285D01*
X71067857Y-81375000D01*
X71103571Y-81410714D01*
X71817857Y-82089285D02*
X71389285Y-82089285D01*
X71603571Y-82089285D02*
X71603571Y-81339285D01*
X71532142Y-81446428D01*
X71460714Y-81517857D01*
X71389285Y-81553571D01*
X65289285Y-69903571D02*
X65896428Y-69903571D01*
X65967857Y-69867857D01*
X66003571Y-69832142D01*
X66039285Y-69760714D01*
X66039285Y-69617857D01*
X66003571Y-69546428D01*
X65967857Y-69510714D01*
X65896428Y-69475000D01*
X65289285Y-69475000D01*
X66003571Y-69153571D02*
X66039285Y-69046428D01*
X66039285Y-68867857D01*
X66003571Y-68796428D01*
X65967857Y-68760714D01*
X65896428Y-68725000D01*
X65825000Y-68725000D01*
X65753571Y-68760714D01*
X65717857Y-68796428D01*
X65682142Y-68867857D01*
X65646428Y-69010714D01*
X65610714Y-69082142D01*
X65575000Y-69117857D01*
X65503571Y-69153571D01*
X65432142Y-69153571D01*
X65360714Y-69117857D01*
X65325000Y-69082142D01*
X65289285Y-69010714D01*
X65289285Y-68832142D01*
X65325000Y-68725000D01*
X65646428Y-68153571D02*
X65682142Y-68046428D01*
X65717857Y-68010714D01*
X65789285Y-67975000D01*
X65896428Y-67975000D01*
X65967857Y-68010714D01*
X66003571Y-68046428D01*
X66039285Y-68117857D01*
X66039285Y-68403571D01*
X65289285Y-68403571D01*
X65289285Y-68153571D01*
X65325000Y-68082142D01*
X65360714Y-68046428D01*
X65432142Y-68010714D01*
X65503571Y-68010714D01*
X65575000Y-68046428D01*
X65610714Y-68082142D01*
X65646428Y-68153571D01*
X65646428Y-68403571D01*
X66039285Y-67260714D02*
X66039285Y-67689285D01*
X66039285Y-67475000D02*
X65289285Y-67475000D01*
X65396428Y-67546428D01*
X65467857Y-67617857D01*
X65503571Y-67689285D01*
D11*
X85166000Y-83407285D02*
X85166000Y-83943000D01*
X85130285Y-84050142D01*
X85058857Y-84121571D01*
X84951714Y-84157285D01*
X84880285Y-84157285D01*
X85916000Y-84157285D02*
X85487428Y-84157285D01*
X85701714Y-84157285D02*
X85701714Y-83407285D01*
X85630285Y-83514428D01*
X85558857Y-83585857D01*
X85487428Y-83621571D01*
X83466666Y-72652380D02*
X83466666Y-73366666D01*
X83419047Y-73509523D01*
X83323809Y-73604761D01*
X83180952Y-73652380D01*
X83085714Y-73652380D01*
X83895238Y-72747619D02*
X83942857Y-72700000D01*
X84038095Y-72652380D01*
X84276190Y-72652380D01*
X84371428Y-72700000D01*
X84419047Y-72747619D01*
X84466666Y-72842857D01*
X84466666Y-72938095D01*
X84419047Y-73080952D01*
X83847619Y-73652380D01*
X84466666Y-73652380D01*
D10*
X65989285Y-65453571D02*
X65239285Y-65453571D01*
X65239285Y-65275000D01*
X65275000Y-65167857D01*
X65346428Y-65096428D01*
X65417857Y-65060714D01*
X65560714Y-65025000D01*
X65667857Y-65025000D01*
X65810714Y-65060714D01*
X65882142Y-65096428D01*
X65953571Y-65167857D01*
X65989285Y-65275000D01*
X65989285Y-65453571D01*
X65989285Y-64310714D02*
X65989285Y-64739285D01*
X65989285Y-64525000D02*
X65239285Y-64525000D01*
X65346428Y-64596428D01*
X65417857Y-64667857D01*
X65453571Y-64739285D01*
X65589285Y-76571428D02*
X66196428Y-76571428D01*
X66267857Y-76535714D01*
X66303571Y-76500000D01*
X66339285Y-76428571D01*
X66339285Y-76285714D01*
X66303571Y-76214285D01*
X66267857Y-76178571D01*
X66196428Y-76142857D01*
X65589285Y-76142857D01*
X66339285Y-75392857D02*
X66339285Y-75821428D01*
X66339285Y-75607142D02*
X65589285Y-75607142D01*
X65696428Y-75678571D01*
X65767857Y-75750000D01*
X65803571Y-75821428D01*
X65414285Y-61350000D02*
X65950000Y-61350000D01*
X66057142Y-61385714D01*
X66128571Y-61457142D01*
X66164285Y-61564285D01*
X66164285Y-61635714D01*
X65414285Y-61064285D02*
X65414285Y-60600000D01*
X65700000Y-60850000D01*
X65700000Y-60742857D01*
X65735714Y-60671428D01*
X65771428Y-60635714D01*
X65842857Y-60600000D01*
X66021428Y-60600000D01*
X66092857Y-60635714D01*
X66128571Y-60671428D01*
X66164285Y-60742857D01*
X66164285Y-60957142D01*
X66128571Y-61028571D01*
X66092857Y-61064285D01*
X68428571Y-83710714D02*
X68357142Y-83675000D01*
X68285714Y-83603571D01*
X68178571Y-83496428D01*
X68107142Y-83460714D01*
X68035714Y-83460714D01*
X68071428Y-83639285D02*
X68000000Y-83603571D01*
X67928571Y-83532142D01*
X67892857Y-83389285D01*
X67892857Y-83139285D01*
X67928571Y-82996428D01*
X68000000Y-82925000D01*
X68071428Y-82889285D01*
X68214285Y-82889285D01*
X68285714Y-82925000D01*
X68357142Y-82996428D01*
X68392857Y-83139285D01*
X68392857Y-83389285D01*
X68357142Y-83532142D01*
X68285714Y-83603571D01*
X68214285Y-83639285D01*
X68071428Y-83639285D01*
X69107142Y-83639285D02*
X68678571Y-83639285D01*
X68892857Y-83639285D02*
X68892857Y-82889285D01*
X68821428Y-82996428D01*
X68750000Y-83067857D01*
X68678571Y-83103571D01*
X74725000Y-81967857D02*
X74689285Y-82003571D01*
X74582142Y-82039285D01*
X74510714Y-82039285D01*
X74403571Y-82003571D01*
X74332142Y-81932142D01*
X74296428Y-81860714D01*
X74260714Y-81717857D01*
X74260714Y-81610714D01*
X74296428Y-81467857D01*
X74332142Y-81396428D01*
X74403571Y-81325000D01*
X74510714Y-81289285D01*
X74582142Y-81289285D01*
X74689285Y-81325000D01*
X74725000Y-81360714D01*
X75153571Y-81610714D02*
X75082142Y-81575000D01*
X75046428Y-81539285D01*
X75010714Y-81467857D01*
X75010714Y-81432142D01*
X75046428Y-81360714D01*
X75082142Y-81325000D01*
X75153571Y-81289285D01*
X75296428Y-81289285D01*
X75367857Y-81325000D01*
X75403571Y-81360714D01*
X75439285Y-81432142D01*
X75439285Y-81467857D01*
X75403571Y-81539285D01*
X75367857Y-81575000D01*
X75296428Y-81610714D01*
X75153571Y-81610714D01*
X75082142Y-81646428D01*
X75046428Y-81682142D01*
X75010714Y-81753571D01*
X75010714Y-81896428D01*
X75046428Y-81967857D01*
X75082142Y-82003571D01*
X75153571Y-82039285D01*
X75296428Y-82039285D01*
X75367857Y-82003571D01*
X75403571Y-81967857D01*
X75439285Y-81896428D01*
X75439285Y-81753571D01*
X75403571Y-81682142D01*
X75367857Y-81646428D01*
X75296428Y-81610714D01*
X66117857Y-78875000D02*
X66153571Y-78910714D01*
X66189285Y-79017857D01*
X66189285Y-79089285D01*
X66153571Y-79196428D01*
X66082142Y-79267857D01*
X66010714Y-79303571D01*
X65867857Y-79339285D01*
X65760714Y-79339285D01*
X65617857Y-79303571D01*
X65546428Y-79267857D01*
X65475000Y-79196428D01*
X65439285Y-79089285D01*
X65439285Y-79017857D01*
X65475000Y-78910714D01*
X65510714Y-78875000D01*
X65689285Y-78232142D02*
X66189285Y-78232142D01*
X65403571Y-78410714D02*
X65939285Y-78589285D01*
X65939285Y-78125000D01*
X61425000Y-70367857D02*
X61389285Y-70403571D01*
X61282142Y-70439285D01*
X61210714Y-70439285D01*
X61103571Y-70403571D01*
X61032142Y-70332142D01*
X60996428Y-70260714D01*
X60960714Y-70117857D01*
X60960714Y-70010714D01*
X60996428Y-69867857D01*
X61032142Y-69796428D01*
X61103571Y-69725000D01*
X61210714Y-69689285D01*
X61282142Y-69689285D01*
X61389285Y-69725000D01*
X61425000Y-69760714D01*
X61675000Y-69689285D02*
X62139285Y-69689285D01*
X61889285Y-69975000D01*
X61996428Y-69975000D01*
X62067857Y-70010714D01*
X62103571Y-70046428D01*
X62139285Y-70117857D01*
X62139285Y-70296428D01*
X62103571Y-70367857D01*
X62067857Y-70403571D01*
X61996428Y-70439285D01*
X61782142Y-70439285D01*
X61710714Y-70403571D01*
X61675000Y-70367857D01*
X71175000Y-64539285D02*
X71175000Y-65075000D01*
X71139285Y-65182142D01*
X71067857Y-65253571D01*
X70960714Y-65289285D01*
X70889285Y-65289285D01*
X71532142Y-65289285D02*
X71532142Y-64539285D01*
X71817857Y-64539285D01*
X71889285Y-64575000D01*
X71925000Y-64610714D01*
X71960714Y-64682142D01*
X71960714Y-64789285D01*
X71925000Y-64860714D01*
X71889285Y-64896428D01*
X71817857Y-64932142D01*
X71532142Y-64932142D01*
X72710714Y-65217857D02*
X72675000Y-65253571D01*
X72567857Y-65289285D01*
X72496428Y-65289285D01*
X72389285Y-65253571D01*
X72317857Y-65182142D01*
X72282142Y-65110714D01*
X72246428Y-64967857D01*
X72246428Y-64860714D01*
X72282142Y-64717857D01*
X72317857Y-64646428D01*
X72389285Y-64575000D01*
X72496428Y-64539285D01*
X72567857Y-64539285D01*
X72675000Y-64575000D01*
X72710714Y-64610714D01*
X73353571Y-64789285D02*
X73353571Y-65289285D01*
X73175000Y-64503571D02*
X72996428Y-65039285D01*
X73460714Y-65039285D01*
X71225000Y-63214285D02*
X71225000Y-63750000D01*
X71189285Y-63857142D01*
X71117857Y-63928571D01*
X71010714Y-63964285D01*
X70939285Y-63964285D01*
X71582142Y-63964285D02*
X71582142Y-63214285D01*
X71867857Y-63214285D01*
X71939285Y-63250000D01*
X71975000Y-63285714D01*
X72010714Y-63357142D01*
X72010714Y-63464285D01*
X71975000Y-63535714D01*
X71939285Y-63571428D01*
X71867857Y-63607142D01*
X71582142Y-63607142D01*
X72760714Y-63892857D02*
X72725000Y-63928571D01*
X72617857Y-63964285D01*
X72546428Y-63964285D01*
X72439285Y-63928571D01*
X72367857Y-63857142D01*
X72332142Y-63785714D01*
X72296428Y-63642857D01*
X72296428Y-63535714D01*
X72332142Y-63392857D01*
X72367857Y-63321428D01*
X72439285Y-63250000D01*
X72546428Y-63214285D01*
X72617857Y-63214285D01*
X72725000Y-63250000D01*
X72760714Y-63285714D01*
X73439285Y-63214285D02*
X73082142Y-63214285D01*
X73046428Y-63571428D01*
X73082142Y-63535714D01*
X73153571Y-63500000D01*
X73332142Y-63500000D01*
X73403571Y-63535714D01*
X73439285Y-63571428D01*
X73475000Y-63642857D01*
X73475000Y-63821428D01*
X73439285Y-63892857D01*
X73403571Y-63928571D01*
X73332142Y-63964285D01*
X73153571Y-63964285D01*
X73082142Y-63928571D01*
X73046428Y-63892857D01*
X75578571Y-63089285D02*
X75578571Y-63625000D01*
X75542857Y-63732142D01*
X75471428Y-63803571D01*
X75364285Y-63839285D01*
X75292857Y-63839285D01*
X75935714Y-63839285D02*
X75935714Y-63089285D01*
X76221428Y-63089285D01*
X76292857Y-63125000D01*
X76328571Y-63160714D01*
X76364285Y-63232142D01*
X76364285Y-63339285D01*
X76328571Y-63410714D01*
X76292857Y-63446428D01*
X76221428Y-63482142D01*
X75935714Y-63482142D01*
X76650000Y-63625000D02*
X77007142Y-63625000D01*
X76578571Y-63839285D02*
X76828571Y-63089285D01*
X77078571Y-63839285D01*
X77650000Y-63339285D02*
X77650000Y-63839285D01*
X77471428Y-63053571D02*
X77292857Y-63589285D01*
X77757142Y-63589285D01*
X75553571Y-64614285D02*
X75553571Y-65150000D01*
X75517857Y-65257142D01*
X75446428Y-65328571D01*
X75339285Y-65364285D01*
X75267857Y-65364285D01*
X75910714Y-65364285D02*
X75910714Y-64614285D01*
X76196428Y-64614285D01*
X76267857Y-64650000D01*
X76303571Y-64685714D01*
X76339285Y-64757142D01*
X76339285Y-64864285D01*
X76303571Y-64935714D01*
X76267857Y-64971428D01*
X76196428Y-65007142D01*
X75910714Y-65007142D01*
X76625000Y-65150000D02*
X76982142Y-65150000D01*
X76553571Y-65364285D02*
X76803571Y-64614285D01*
X77053571Y-65364285D01*
X77660714Y-64614285D02*
X77303571Y-64614285D01*
X77267857Y-64971428D01*
X77303571Y-64935714D01*
X77375000Y-64900000D01*
X77553571Y-64900000D01*
X77625000Y-64935714D01*
X77660714Y-64971428D01*
X77696428Y-65042857D01*
X77696428Y-65221428D01*
X77660714Y-65292857D01*
X77625000Y-65328571D01*
X77553571Y-65364285D01*
X77375000Y-65364285D01*
X77303571Y-65328571D01*
X77267857Y-65292857D01*
X80700000Y-76842857D02*
X80664285Y-76878571D01*
X80557142Y-76914285D01*
X80485714Y-76914285D01*
X80378571Y-76878571D01*
X80307142Y-76807142D01*
X80271428Y-76735714D01*
X80235714Y-76592857D01*
X80235714Y-76485714D01*
X80271428Y-76342857D01*
X80307142Y-76271428D01*
X80378571Y-76200000D01*
X80485714Y-76164285D01*
X80557142Y-76164285D01*
X80664285Y-76200000D01*
X80700000Y-76235714D01*
X81414285Y-76914285D02*
X80985714Y-76914285D01*
X81200000Y-76914285D02*
X81200000Y-76164285D01*
X81128571Y-76271428D01*
X81057142Y-76342857D01*
X80985714Y-76378571D01*
X67125000Y-68117857D02*
X67089285Y-68153571D01*
X66982142Y-68189285D01*
X66910714Y-68189285D01*
X66803571Y-68153571D01*
X66732142Y-68082142D01*
X66696428Y-68010714D01*
X66660714Y-67867857D01*
X66660714Y-67760714D01*
X66696428Y-67617857D01*
X66732142Y-67546428D01*
X66803571Y-67475000D01*
X66910714Y-67439285D01*
X66982142Y-67439285D01*
X67089285Y-67475000D01*
X67125000Y-67510714D01*
X67803571Y-67439285D02*
X67446428Y-67439285D01*
X67410714Y-67796428D01*
X67446428Y-67760714D01*
X67517857Y-67725000D01*
X67696428Y-67725000D01*
X67767857Y-67760714D01*
X67803571Y-67796428D01*
X67839285Y-67867857D01*
X67839285Y-68046428D01*
X67803571Y-68117857D01*
X67767857Y-68153571D01*
X67696428Y-68189285D01*
X67517857Y-68189285D01*
X67446428Y-68153571D01*
X67410714Y-68117857D01*
X80755000Y-73822857D02*
X80719285Y-73858571D01*
X80612142Y-73894285D01*
X80540714Y-73894285D01*
X80433571Y-73858571D01*
X80362142Y-73787142D01*
X80326428Y-73715714D01*
X80290714Y-73572857D01*
X80290714Y-73465714D01*
X80326428Y-73322857D01*
X80362142Y-73251428D01*
X80433571Y-73180000D01*
X80540714Y-73144285D01*
X80612142Y-73144285D01*
X80719285Y-73180000D01*
X80755000Y-73215714D01*
X81397857Y-73144285D02*
X81255000Y-73144285D01*
X81183571Y-73180000D01*
X81147857Y-73215714D01*
X81076428Y-73322857D01*
X81040714Y-73465714D01*
X81040714Y-73751428D01*
X81076428Y-73822857D01*
X81112142Y-73858571D01*
X81183571Y-73894285D01*
X81326428Y-73894285D01*
X81397857Y-73858571D01*
X81433571Y-73822857D01*
X81469285Y-73751428D01*
X81469285Y-73572857D01*
X81433571Y-73501428D01*
X81397857Y-73465714D01*
X81326428Y-73430000D01*
X81183571Y-73430000D01*
X81112142Y-73465714D01*
X81076428Y-73501428D01*
X81040714Y-73572857D01*
X78975000Y-67417857D02*
X78939285Y-67453571D01*
X78832142Y-67489285D01*
X78760714Y-67489285D01*
X78653571Y-67453571D01*
X78582142Y-67382142D01*
X78546428Y-67310714D01*
X78510714Y-67167857D01*
X78510714Y-67060714D01*
X78546428Y-66917857D01*
X78582142Y-66846428D01*
X78653571Y-66775000D01*
X78760714Y-66739285D01*
X78832142Y-66739285D01*
X78939285Y-66775000D01*
X78975000Y-66810714D01*
X79225000Y-66739285D02*
X79725000Y-66739285D01*
X79403571Y-67489285D01*
X81917857Y-79675000D02*
X81953571Y-79710714D01*
X81989285Y-79817857D01*
X81989285Y-79889285D01*
X81953571Y-79996428D01*
X81882142Y-80067857D01*
X81810714Y-80103571D01*
X81667857Y-80139285D01*
X81560714Y-80139285D01*
X81417857Y-80103571D01*
X81346428Y-80067857D01*
X81275000Y-79996428D01*
X81239285Y-79889285D01*
X81239285Y-79817857D01*
X81275000Y-79710714D01*
X81310714Y-79675000D01*
X81989285Y-79317857D02*
X81989285Y-79175000D01*
X81953571Y-79103571D01*
X81917857Y-79067857D01*
X81810714Y-78996428D01*
X81667857Y-78960714D01*
X81382142Y-78960714D01*
X81310714Y-78996428D01*
X81275000Y-79032142D01*
X81239285Y-79103571D01*
X81239285Y-79246428D01*
X81275000Y-79317857D01*
X81310714Y-79353571D01*
X81382142Y-79389285D01*
X81560714Y-79389285D01*
X81632142Y-79353571D01*
X81667857Y-79317857D01*
X81703571Y-79246428D01*
X81703571Y-79103571D01*
X81667857Y-79032142D01*
X81632142Y-78996428D01*
X81560714Y-78960714D01*
X74725000Y-83167857D02*
X74689285Y-83203571D01*
X74582142Y-83239285D01*
X74510714Y-83239285D01*
X74403571Y-83203571D01*
X74332142Y-83132142D01*
X74296428Y-83060714D01*
X74260714Y-82917857D01*
X74260714Y-82810714D01*
X74296428Y-82667857D01*
X74332142Y-82596428D01*
X74403571Y-82525000D01*
X74510714Y-82489285D01*
X74582142Y-82489285D01*
X74689285Y-82525000D01*
X74725000Y-82560714D01*
X75010714Y-82560714D02*
X75046428Y-82525000D01*
X75117857Y-82489285D01*
X75296428Y-82489285D01*
X75367857Y-82525000D01*
X75403571Y-82560714D01*
X75439285Y-82632142D01*
X75439285Y-82703571D01*
X75403571Y-82810714D01*
X74975000Y-83239285D01*
X75439285Y-83239285D01*
X69939285Y-82075000D02*
X69582142Y-82325000D01*
X69939285Y-82503571D02*
X69189285Y-82503571D01*
X69189285Y-82217857D01*
X69225000Y-82146428D01*
X69260714Y-82110714D01*
X69332142Y-82075000D01*
X69439285Y-82075000D01*
X69510714Y-82110714D01*
X69546428Y-82146428D01*
X69582142Y-82217857D01*
X69582142Y-82503571D01*
X69510714Y-81646428D02*
X69475000Y-81717857D01*
X69439285Y-81753571D01*
X69367857Y-81789285D01*
X69332142Y-81789285D01*
X69260714Y-81753571D01*
X69225000Y-81717857D01*
X69189285Y-81646428D01*
X69189285Y-81503571D01*
X69225000Y-81432142D01*
X69260714Y-81396428D01*
X69332142Y-81360714D01*
X69367857Y-81360714D01*
X69439285Y-81396428D01*
X69475000Y-81432142D01*
X69510714Y-81503571D01*
X69510714Y-81646428D01*
X69546428Y-81717857D01*
X69582142Y-81753571D01*
X69653571Y-81789285D01*
X69796428Y-81789285D01*
X69867857Y-81753571D01*
X69903571Y-81717857D01*
X69939285Y-81646428D01*
X69939285Y-81503571D01*
X69903571Y-81432142D01*
X69867857Y-81396428D01*
X69796428Y-81360714D01*
X69653571Y-81360714D01*
X69582142Y-81396428D01*
X69546428Y-81432142D01*
X69510714Y-81503571D01*
X78639285Y-83775000D02*
X78282142Y-84025000D01*
X78639285Y-84203571D02*
X77889285Y-84203571D01*
X77889285Y-83917857D01*
X77925000Y-83846428D01*
X77960714Y-83810714D01*
X78032142Y-83775000D01*
X78139285Y-83775000D01*
X78210714Y-83810714D01*
X78246428Y-83846428D01*
X78282142Y-83917857D01*
X78282142Y-84203571D01*
X77889285Y-83525000D02*
X77889285Y-83025000D01*
X78639285Y-83346428D01*
X81189285Y-83775000D02*
X80832142Y-84025000D01*
X81189285Y-84203571D02*
X80439285Y-84203571D01*
X80439285Y-83917857D01*
X80475000Y-83846428D01*
X80510714Y-83810714D01*
X80582142Y-83775000D01*
X80689285Y-83775000D01*
X80760714Y-83810714D01*
X80796428Y-83846428D01*
X80832142Y-83917857D01*
X80832142Y-84203571D01*
X80439285Y-83132142D02*
X80439285Y-83275000D01*
X80475000Y-83346428D01*
X80510714Y-83382142D01*
X80617857Y-83453571D01*
X80760714Y-83489285D01*
X81046428Y-83489285D01*
X81117857Y-83453571D01*
X81153571Y-83417857D01*
X81189285Y-83346428D01*
X81189285Y-83203571D01*
X81153571Y-83132142D01*
X81117857Y-83096428D01*
X81046428Y-83060714D01*
X80867857Y-83060714D01*
X80796428Y-83096428D01*
X80760714Y-83132142D01*
X80725000Y-83203571D01*
X80725000Y-83346428D01*
X80760714Y-83417857D01*
X80796428Y-83453571D01*
X80867857Y-83489285D01*
X79839285Y-83775000D02*
X79482142Y-84025000D01*
X79839285Y-84203571D02*
X79089285Y-84203571D01*
X79089285Y-83917857D01*
X79125000Y-83846428D01*
X79160714Y-83810714D01*
X79232142Y-83775000D01*
X79339285Y-83775000D01*
X79410714Y-83810714D01*
X79446428Y-83846428D01*
X79482142Y-83917857D01*
X79482142Y-84203571D01*
X79089285Y-83096428D02*
X79089285Y-83453571D01*
X79446428Y-83489285D01*
X79410714Y-83453571D01*
X79375000Y-83382142D01*
X79375000Y-83203571D01*
X79410714Y-83132142D01*
X79446428Y-83096428D01*
X79517857Y-83060714D01*
X79696428Y-83060714D01*
X79767857Y-83096428D01*
X79803571Y-83132142D01*
X79839285Y-83203571D01*
X79839285Y-83382142D01*
X79803571Y-83453571D01*
X79767857Y-83489285D01*
M02*
