M48
; DRILL file {KiCad 5.1.5} date Fr 08 Mai 2020 23:36:23 CEST
; FORMAT={-:-/ absolute / inch / decimal}
; #@! TF.CreationDate,2020-05-08T23:36:23+02:00
; #@! TF.GenerationSoftware,Kicad,Pcbnew,5.1.5
; #@! TF.FileFunction,Plated,1,2,PTH
FMAT,2
INCH
T1C0.0118
T2C0.0236
T3C0.0335
T4C0.0394
%
G90
G05
T1
X2.4252Y-3.0236
X2.5748Y-2.7598
X2.5758Y-3.1161
X2.5858Y-2.5699
X2.5866Y-2.6555
X2.6089Y-2.5374
X2.6137Y-2.6313
X2.622Y-3.0413
X2.6634Y-2.6368
X2.7008Y-2.6988
X2.7047Y-3.0551
X2.7047Y-3.1161
X2.7224Y-2.7874
X2.7224Y-2.8335
X2.7235Y-2.9711
X2.7237Y-3.0154
X2.7244Y-2.9252
X2.7264Y-2.876
X2.7461Y-2.8128
X2.7462Y-2.9923
X2.7462Y-2.8541
X2.748Y-2.9488
X2.7502Y-2.9037
X2.7598Y-3.2126
X2.7638Y-3.126
X2.7858Y-3.1016
X2.8071Y-3.124
X2.8091Y-2.9931
X2.8199Y-2.7561
X2.8307Y-3.2126
X2.8315Y-3.1031
X2.8435Y-2.7762
X2.8543Y-3.124
X2.8622Y-2.8307
X2.8622Y-3.0276
X2.8661Y-2.7559
X2.8661Y-3.2126
X2.8917Y-3.1181
X2.8996Y-3.2106
X2.9114Y-2.7598
X2.9163Y-2.8307
X2.9165Y-3.0268
X2.9409Y-2.7598
X2.9439Y-2.9931
X2.9606Y-3.1181
X2.9626Y-3.2618
X2.9941Y-3.1181
X3.0217Y-2.4803
X3.0217Y-2.6083
X3.0276Y-3.1181
X3.0364Y-3.2913
X3.065Y-2.5758
X3.0709Y-3.0472
X3.0807Y-3.189
X3.1417Y-3.1378
X3.2047Y-3.0945
X3.2323Y-2.8484
X3.2333Y-3.1801
X3.2333Y-3.2146
X3.2362Y-2.9646
X3.2717Y-3.0315
X3.2782Y-2.8731
X3.2854Y-2.7913
X3.2982Y-2.8514
X3.3268Y-3.0
X3.3268Y-3.2598
X3.3366Y-2.7982
X3.3652Y-3.0099
X3.4134Y-3.0768
X3.4242Y-3.258
X3.4252Y-2.7618
X3.4469Y-3.0768
X3.4514Y-2.9881
X3.4646Y-3.1831
X3.4665Y-2.7362
X3.4803Y-3.0767
X3.4927Y-2.9991
X3.4961Y-2.7087
X3.5039Y-3.1821
X3.5256Y-3.2665
X3.5256Y-2.7087
X3.5332Y-2.9834
X3.5463Y-3.1831
X3.5472Y-2.7776
X3.5591Y-3.0768
X3.5679Y-2.7085
X3.5864Y-3.002
X3.5886Y-2.7776
X3.5984Y-3.0768
X3.6093Y-2.7087
X3.6122Y-3.1693
X3.628Y-3.0
X3.6299Y-2.7776
X3.6336Y-3.0766
X3.6388Y-3.1486
X3.6516Y-2.7087
X3.6654Y-3.0768
X3.6693Y-2.999
X3.6811Y-2.7087
X3.6988Y-3.0768
X3.7106Y-2.9945
X3.7106Y-2.7087
X3.7283Y-3.0768
X3.7402Y-2.7087
X3.752Y-3.0011
X3.7579Y-3.0768
X3.7697Y-2.7087
X3.7992Y-2.7087
X3.8149Y-2.954
X3.8209Y-2.9094
X3.8288Y-2.7087
X3.8352Y-2.9754
X3.8546Y-2.9094
X3.8563Y-3.0807
X3.8583Y-2.7084
X3.8622Y-3.0394
X3.8622Y-3.2205
X3.8661Y-2.9769
X3.8841Y-2.9091
X3.8878Y-2.7087
X3.9047Y-3.0094
X3.9173Y-2.7086
X3.939Y-3.1693
X3.9469Y-2.7092
X3.967Y-3.1245
X3.9724Y-3.2205
X3.9764Y-2.7087
X3.9886Y-3.0079
X4.003Y-3.055
X4.0525Y-3.161
X4.0591Y-2.8189
X4.0827Y-3.1417
X4.1142Y-3.1614
X4.1457Y-3.1417
X4.1693Y-2.8189
T2
X2.8858Y-2.6024
X2.9646Y-2.6575
X2.8858Y-2.6575
X2.9646Y-2.6024
T3
X2.5256Y-2.4528
X2.5256Y-2.6496
T4
X2.6673Y-2.4173
X2.7673Y-2.4173
X2.8673Y-2.4173
X2.9673Y-2.4173
X3.0673Y-2.4173
X3.1673Y-2.4173
X3.2673Y-2.4173
X3.3673Y-2.4173
X3.4673Y-2.4173
X3.5673Y-2.4173
X3.6673Y-2.4173
X3.7673Y-2.4173
X3.8673Y-2.4173
X3.9673Y-2.4173
X4.0673Y-2.4173
X4.1673Y-2.4173
X2.4213Y-3.0866
X2.4213Y-3.1866
X2.4213Y-3.2866
T2
G00X2.4055Y-2.4134
M15
G01X2.4331Y-2.4134
M16
G05
G00X2.4331Y-2.689
M15
G01X2.4055Y-2.689
M16
G05
T0
M30
