G04 #@! TF.GenerationSoftware,KiCad,Pcbnew,5.1.5*
G04 #@! TF.CreationDate,2020-05-08T23:36:38+02:00*
G04 #@! TF.ProjectId,nucular-keyboard,6e756375-6c61-4722-9d6b-6579626f6172,rev?*
G04 #@! TF.SameCoordinates,Original*
G04 #@! TF.FileFunction,Copper,L2,Bot*
G04 #@! TF.FilePolarity,Positive*
%FSLAX46Y46*%
G04 Gerber Fmt 4.6, Leading zero omitted, Abs format (unit mm)*
G04 Created by KiCad (PCBNEW 5.1.5) date 2020-05-08 23:36:38*
%MOMM*%
%LPD*%
G04 APERTURE LIST*
%ADD10O,1.900000X1.200000*%
%ADD11C,1.450000*%
%ADD12R,1.700000X1.700000*%
%ADD13O,1.700000X1.700000*%
%ADD14C,1.000000*%
%ADD15C,0.600000*%
%ADD16C,0.300000*%
%ADD17C,0.150000*%
G04 APERTURE END LIST*
D10*
X61450000Y-68300000D03*
X61450000Y-61300000D03*
D11*
X64150000Y-67300000D03*
X64150000Y-62300000D03*
D12*
X61500000Y-78400000D03*
D13*
X61500000Y-80940000D03*
X61500000Y-83480000D03*
D12*
X67750000Y-61400000D03*
D13*
X70290000Y-61400000D03*
X72830000Y-61400000D03*
X75370000Y-61400000D03*
X77910000Y-61400000D03*
X80450000Y-61400000D03*
X82990000Y-61400000D03*
X85530000Y-61400000D03*
X88070000Y-61400000D03*
X90610000Y-61400000D03*
X93150000Y-61400000D03*
X95690000Y-61400000D03*
X98230000Y-61400000D03*
X100770000Y-61400000D03*
X103310000Y-61400000D03*
X105850000Y-61400000D03*
D14*
X73300000Y-67500000D03*
X73300000Y-66100000D03*
X75300000Y-66100000D03*
X75300000Y-67500000D03*
D15*
X74775000Y-76024999D03*
X71350000Y-76025000D03*
X76750000Y-63000000D03*
X76750000Y-66249994D03*
X87550000Y-78150000D03*
X84500000Y-76200000D03*
X88050000Y-69500000D03*
X82199980Y-75300000D03*
X83450000Y-70900000D03*
X74080204Y-76880204D03*
X82100000Y-72350000D03*
X100899994Y-81800000D03*
X75249998Y-82850002D03*
X65425006Y-79150000D03*
X68600000Y-68550004D03*
X65400000Y-70100004D03*
X67650000Y-66975000D03*
X68700000Y-79150000D03*
X72699978Y-71900000D03*
X74075000Y-71900000D03*
X77850002Y-65425000D03*
X88000000Y-80850001D03*
X103100000Y-71600000D03*
X76900000Y-79200000D03*
X73449998Y-79200000D03*
X72700000Y-76900000D03*
X78000000Y-77400000D03*
X75199982Y-79200000D03*
X68700000Y-77600000D03*
X105900000Y-71600000D03*
X61600000Y-76800000D03*
X84500000Y-82800000D03*
X98099994Y-77200000D03*
X98100000Y-81800000D03*
X79800000Y-79700000D03*
X66387774Y-66834125D03*
X66264998Y-64450000D03*
X65700004Y-67450000D03*
X65680011Y-65275011D03*
X82125000Y-80774998D03*
X83266207Y-72976041D03*
X72800000Y-81600000D03*
X86700000Y-78150000D03*
X86974990Y-82753765D03*
X105300004Y-79800000D03*
X102932374Y-80290222D03*
X83775000Y-72425000D03*
X82125002Y-81650000D03*
X71900000Y-81600000D03*
X83100000Y-77000000D03*
X73650000Y-81549978D03*
X84750000Y-71075000D03*
X78250000Y-81000010D03*
X103699998Y-79800000D03*
X104500000Y-80300000D03*
X74698472Y-70100010D03*
X73948459Y-70099966D03*
X70100000Y-81600000D03*
X66600004Y-77250000D03*
X89743949Y-75778380D03*
X91674990Y-68800000D03*
X69181341Y-76591766D03*
X92200000Y-70550004D03*
X90075012Y-80850000D03*
X69753761Y-76003761D03*
X90400000Y-78150020D03*
X92750044Y-68800000D03*
X69175918Y-75465979D03*
X91093971Y-76249988D03*
X93500057Y-68800000D03*
X69799994Y-74900000D03*
X91400011Y-78150011D03*
X94250070Y-68800000D03*
X69200000Y-74300011D03*
X92150000Y-76200000D03*
X95000083Y-68800000D03*
X69855659Y-73753746D03*
X92294181Y-78146539D03*
X95750285Y-68800036D03*
X69250000Y-73050000D03*
X93200011Y-76175651D03*
X96500296Y-68799907D03*
X69754512Y-72495036D03*
X93100011Y-78150000D03*
X97250307Y-68800926D03*
X69150000Y-71970026D03*
X94250022Y-76060518D03*
X98000281Y-68793421D03*
X69750000Y-71445016D03*
X93950011Y-78150008D03*
X98750262Y-68800149D03*
X69150000Y-70800000D03*
X95300033Y-76226890D03*
X99500270Y-68797891D03*
X71624990Y-70003747D03*
X94700022Y-78150000D03*
X100250114Y-68813750D03*
X72225953Y-70516031D03*
X95450035Y-78150000D03*
X101000000Y-68800000D03*
X72800000Y-70000000D03*
X96897449Y-75031987D03*
X97050000Y-73900000D03*
X97415115Y-75574981D03*
X97905999Y-73897889D03*
X98655970Y-73890079D03*
X98200000Y-75612968D03*
X99180000Y-76440000D03*
X101310000Y-76399998D03*
X97950000Y-78250000D03*
X101675010Y-77596020D03*
X92425000Y-79975000D03*
X100762317Y-79362317D03*
X100050000Y-80500000D03*
X91750004Y-80500000D03*
X76050000Y-79200000D03*
X81400000Y-78600000D03*
X88400011Y-78149239D03*
X88800000Y-68800000D03*
X72500000Y-79349998D03*
X87664785Y-75896898D03*
X89550011Y-68800013D03*
X71919424Y-78819899D03*
X90099977Y-70550000D03*
X89000002Y-80825000D03*
X71300000Y-79350002D03*
X88714796Y-76176899D03*
X90624978Y-68796593D03*
X70758270Y-78781304D03*
X91149988Y-70550000D03*
X89550000Y-82970000D03*
X70200000Y-79400000D03*
X85474994Y-76451239D03*
X87000002Y-70150000D03*
X77125000Y-83600000D03*
D16*
X74350736Y-76024999D02*
X74775000Y-76024999D01*
X71350000Y-76025000D02*
X71774265Y-76024999D01*
X71774265Y-76024999D02*
X74350736Y-76024999D01*
X76750000Y-66249994D02*
X76750000Y-63000000D01*
X87550000Y-78574264D02*
X87550000Y-78150000D01*
X88000000Y-80850001D02*
X87550000Y-80400001D01*
X87550000Y-80400001D02*
X87550000Y-78574264D01*
X72700000Y-76900000D02*
X74060408Y-76900000D01*
X74060408Y-76900000D02*
X74080204Y-76880204D01*
X98100000Y-81800000D02*
X100899994Y-81800000D01*
X68700000Y-77600000D02*
X68700000Y-79150000D01*
X72699978Y-71900000D02*
X74075000Y-71900000D01*
X75200000Y-78792926D02*
X76592926Y-77400000D01*
X75199982Y-79200000D02*
X75200000Y-79199982D01*
X75200000Y-79199982D02*
X75200000Y-78792926D01*
X75199982Y-79200000D02*
X73449998Y-79200000D01*
X76592926Y-77400000D02*
X77575736Y-77400000D01*
X76592926Y-77400000D02*
X78000000Y-77400000D01*
D17*
X61450000Y-62450000D02*
X61450000Y-61300000D01*
X66264998Y-66711349D02*
X66387774Y-66834125D01*
X66264998Y-64450000D02*
X66264998Y-66711349D01*
X65680011Y-65275011D02*
X65700000Y-65295000D01*
X65700000Y-65295000D02*
X65700000Y-67449996D01*
X65700000Y-67449996D02*
X65700004Y-67450000D01*
X83650002Y-79249996D02*
X82424999Y-80474999D01*
X81825001Y-81074997D02*
X82125000Y-80774998D01*
X80999986Y-81900012D02*
X81825001Y-81074997D01*
X73902001Y-82074979D02*
X74076968Y-81900012D01*
X72800000Y-81600000D02*
X73274979Y-82074979D01*
X74076968Y-81900012D02*
X80999986Y-81900012D01*
X83266207Y-72976041D02*
X83650002Y-73359836D01*
X83650002Y-73359836D02*
X83650002Y-79249996D01*
X82424999Y-80474999D02*
X82125000Y-80774998D01*
X73274979Y-82074979D02*
X73902001Y-82074979D01*
X86974990Y-78424990D02*
X86700000Y-78150000D01*
X86974990Y-82753765D02*
X86974990Y-78424990D01*
X105300004Y-79800000D02*
X104800010Y-79300006D01*
X104800010Y-79300006D02*
X104800010Y-64950010D01*
X104800010Y-64950010D02*
X103310000Y-63460000D01*
X103310000Y-63460000D02*
X103310000Y-61400000D01*
X102932374Y-80290222D02*
X102932374Y-79790622D01*
X102932374Y-79790622D02*
X103899980Y-78823016D01*
X103899980Y-78823016D02*
X103899980Y-65378536D01*
X103899980Y-65378536D02*
X102221454Y-63700010D01*
X102221454Y-63700010D02*
X98550010Y-63700010D01*
X98550010Y-63700010D02*
X96250000Y-61400000D01*
X96250000Y-61400000D02*
X95690000Y-61400000D01*
X83975000Y-72625000D02*
X83775000Y-72425000D01*
X82125002Y-81650000D02*
X83975000Y-79800002D01*
X83975000Y-79800002D02*
X83975000Y-72625000D01*
X71900000Y-81600000D02*
X72800000Y-82500000D01*
X73948557Y-82500000D02*
X74248536Y-82200022D01*
X74248536Y-82200022D02*
X81574980Y-82200022D01*
X81825003Y-81949999D02*
X82125002Y-81650000D01*
X81574980Y-82200022D02*
X81825003Y-81949999D01*
X72800000Y-82500000D02*
X73948557Y-82500000D01*
X79150000Y-81600000D02*
X80550000Y-81600000D01*
X80550000Y-81600000D02*
X83100000Y-79050000D01*
X83100000Y-77424264D02*
X83100000Y-77000000D01*
X83100000Y-79050000D02*
X83100000Y-77424264D01*
X83100000Y-77000000D02*
X83100000Y-73700002D01*
X83100000Y-73700002D02*
X82724998Y-73325000D01*
X82724998Y-73325000D02*
X82724998Y-72675738D01*
X82724998Y-72675738D02*
X84325736Y-71075000D01*
X84325736Y-71075000D02*
X84750000Y-71075000D01*
X77200000Y-81600000D02*
X73700022Y-81600000D01*
X73700022Y-81600000D02*
X73650000Y-81549978D01*
X78250000Y-81600000D02*
X78250000Y-81000010D01*
X77200000Y-81600000D02*
X78250000Y-81600000D01*
X78250000Y-81600000D02*
X79150000Y-81600000D01*
X77200000Y-81600000D02*
X77375000Y-81600000D01*
X79150000Y-81600000D02*
X79074260Y-81600000D01*
X103699998Y-79800000D02*
X103700000Y-79800000D01*
X103700000Y-79800000D02*
X104199991Y-79300009D01*
X104199991Y-65254269D02*
X102345722Y-63400000D01*
X104199991Y-79300009D02*
X104199991Y-65254269D01*
X102345722Y-63400000D02*
X100600000Y-63400000D01*
X100600000Y-63400000D02*
X98600000Y-61400000D01*
X98600000Y-61400000D02*
X98230000Y-61400000D01*
X100770000Y-61400000D02*
X104500000Y-65130000D01*
X104500000Y-65130000D02*
X104500000Y-80300000D01*
X80450000Y-64875000D02*
X75224990Y-70100010D01*
X75122736Y-70100010D02*
X74698472Y-70100010D01*
X75224990Y-70100010D02*
X75122736Y-70100010D01*
X80450000Y-61400000D02*
X80450000Y-64875000D01*
X78759999Y-66115001D02*
X75300000Y-69575000D01*
X75300000Y-69575000D02*
X74475000Y-69575000D01*
X74475000Y-69575000D02*
X73950034Y-70099966D01*
X77910000Y-61400000D02*
X78759999Y-62249999D01*
X78759999Y-62249999D02*
X78759999Y-66115001D01*
X73950034Y-70099966D02*
X73948459Y-70099966D01*
X63380000Y-81600000D02*
X70100000Y-81600000D01*
X61500000Y-83480000D02*
X63380000Y-81600000D01*
X65450004Y-78400000D02*
X66600004Y-77250000D01*
X61500000Y-78400000D02*
X65450004Y-78400000D01*
X89743949Y-75354116D02*
X89743949Y-75778380D01*
X91674990Y-68800000D02*
X91674990Y-71326454D01*
X91674990Y-71326454D02*
X89743949Y-73257495D01*
X89743949Y-73257495D02*
X89743949Y-75354116D01*
X89996530Y-66924978D02*
X91674990Y-68603438D01*
X69908234Y-76591766D02*
X71000003Y-75499997D01*
X71000003Y-75499997D02*
X75778609Y-75499997D01*
X84353627Y-66924978D02*
X89996530Y-66924978D01*
X75778609Y-75499997D02*
X84353627Y-66924978D01*
X69181341Y-76591766D02*
X69908234Y-76591766D01*
X91674990Y-68603438D02*
X91674990Y-68800000D01*
X92200000Y-70974268D02*
X92200000Y-70550004D01*
X89850013Y-80200737D02*
X89850013Y-76626993D01*
X89850013Y-76626993D02*
X90268959Y-76208048D01*
X90075012Y-80850000D02*
X90075012Y-80425736D01*
X90075012Y-80425736D02*
X89850013Y-80200737D01*
X90268959Y-76208048D02*
X90268959Y-73156762D01*
X90268959Y-73156762D02*
X92200000Y-71225721D01*
X92200000Y-71225721D02*
X92200000Y-70974268D01*
X69753761Y-76003761D02*
X70071960Y-76003761D01*
X70071960Y-76003761D02*
X70875735Y-75199986D01*
X70875735Y-75199986D02*
X75654341Y-75199986D01*
X75654341Y-75199986D02*
X84229371Y-66624956D01*
X84229371Y-66624956D02*
X90301992Y-66624956D01*
X90301992Y-66624956D02*
X92200000Y-68522964D01*
X92200000Y-68522964D02*
X92200000Y-70125740D01*
X92200000Y-70125740D02*
X92200000Y-70550004D01*
X92750044Y-71099956D02*
X90568970Y-73281030D01*
X90400000Y-77725756D02*
X90400000Y-78150020D01*
X92750044Y-68800000D02*
X92750044Y-71099956D01*
X90568970Y-73281030D02*
X90568970Y-77556786D01*
X90568970Y-77556786D02*
X90400000Y-77725756D01*
X69175918Y-75465979D02*
X69984021Y-75465979D01*
X69984021Y-75465979D02*
X70550025Y-74899975D01*
X70550025Y-74899975D02*
X75530073Y-74899975D01*
X75530073Y-74899975D02*
X84105103Y-66324945D01*
X84105103Y-66324945D02*
X90600724Y-66324945D01*
X90600724Y-66324945D02*
X92750044Y-68474265D01*
X92750044Y-68474265D02*
X92750044Y-68800000D01*
X91093971Y-75825724D02*
X91093971Y-76249988D01*
X91093971Y-73206029D02*
X91093971Y-75825724D01*
X93500057Y-70799943D02*
X91093971Y-73206029D01*
X93500057Y-68800000D02*
X93500057Y-70799943D01*
X83980835Y-66024934D02*
X90724991Y-66024934D01*
X90724991Y-66024934D02*
X93200058Y-68500001D01*
X69799994Y-74900000D02*
X70100030Y-74599964D01*
X70100030Y-74599964D02*
X75405805Y-74599964D01*
X75405805Y-74599964D02*
X83980835Y-66024934D01*
X93200058Y-68500001D02*
X93500057Y-68800000D01*
X91618981Y-73131019D02*
X91618981Y-77931041D01*
X94250070Y-68800000D02*
X94250070Y-70499930D01*
X94250070Y-70499930D02*
X91618981Y-73131019D01*
X91618981Y-77931041D02*
X91400011Y-78150011D01*
X91174993Y-65724923D02*
X93950071Y-68500001D01*
X93950071Y-68500001D02*
X94250070Y-68800000D01*
X75281537Y-74299953D02*
X83856567Y-65724923D01*
X69200000Y-74300011D02*
X69624264Y-74300011D01*
X69624322Y-74299953D02*
X75281537Y-74299953D01*
X83856567Y-65724923D02*
X91174993Y-65724923D01*
X69624264Y-74300011D02*
X69624322Y-74299953D01*
X95000083Y-70175639D02*
X92150000Y-73025722D01*
X95000083Y-68800000D02*
X95000083Y-70175639D01*
X92150000Y-73025722D02*
X92150000Y-75775736D01*
X92150000Y-75775736D02*
X92150000Y-76200000D01*
X69855659Y-73753746D02*
X70279923Y-73753746D01*
X83732299Y-65424912D02*
X91624995Y-65424912D01*
X91624995Y-65424912D02*
X94700084Y-68500001D01*
X70279923Y-73753746D02*
X70526119Y-73999942D01*
X70526119Y-73999942D02*
X75157269Y-73999942D01*
X75157269Y-73999942D02*
X83732299Y-65424912D01*
X94700084Y-68500001D02*
X95000083Y-68800000D01*
X92675001Y-72924999D02*
X92675001Y-77765719D01*
X95750285Y-69849715D02*
X92675001Y-72924999D01*
X92675001Y-77765719D02*
X92594180Y-77846540D01*
X95750285Y-68800036D02*
X95750285Y-69849715D01*
X92594180Y-77846540D02*
X92294181Y-78146539D01*
X83632854Y-65100077D02*
X92050326Y-65100077D01*
X69250000Y-73050000D02*
X70502884Y-73050000D01*
X75033000Y-73699931D02*
X83632854Y-65100077D01*
X95450286Y-68500037D02*
X95750285Y-68800036D01*
X70502884Y-73050000D02*
X71152815Y-73699931D01*
X71152815Y-73699931D02*
X75033000Y-73699931D01*
X92050326Y-65100077D02*
X95450286Y-68500037D01*
X93200011Y-72851433D02*
X93200011Y-75751387D01*
X96500296Y-68799907D02*
X96500296Y-69551148D01*
X96500296Y-69551148D02*
X93200011Y-72851433D01*
X93200011Y-75751387D02*
X93200011Y-76175651D01*
X71277083Y-73399920D02*
X74908732Y-73399920D01*
X74908732Y-73399920D02*
X83508586Y-64800066D01*
X96200297Y-68499908D02*
X96500296Y-68799907D01*
X69754512Y-72495036D02*
X70372199Y-72495036D01*
X83508586Y-64800066D02*
X92500455Y-64800066D01*
X70372199Y-72495036D02*
X71277083Y-73399920D01*
X92500455Y-64800066D02*
X96200297Y-68499908D01*
X93725012Y-77524999D02*
X93400010Y-77850001D01*
X93725012Y-72807158D02*
X93725012Y-77524999D01*
X97250307Y-68800926D02*
X97250307Y-69281863D01*
X97250307Y-69281863D02*
X93725012Y-72807158D01*
X93400010Y-77850001D02*
X93100011Y-78150000D01*
X70271468Y-71970026D02*
X71401351Y-73099909D01*
X69150000Y-71970026D02*
X70271468Y-71970026D01*
X71401351Y-73099909D02*
X74784464Y-73099909D01*
X96950308Y-68500927D02*
X97250307Y-68800926D01*
X74784464Y-73099909D02*
X83384318Y-64500055D01*
X83384318Y-64500055D02*
X92949436Y-64500055D01*
X92949436Y-64500055D02*
X96950308Y-68500927D01*
X94250022Y-75636254D02*
X94250022Y-76060518D01*
X94250022Y-72726980D02*
X94250022Y-75636254D01*
X97700282Y-69276720D02*
X94250022Y-72726980D01*
X97700282Y-69093420D02*
X97700282Y-69276720D01*
X98000281Y-68793421D02*
X97700282Y-69093420D01*
X71525620Y-72799898D02*
X74660197Y-72799898D01*
X69750000Y-71445016D02*
X70170738Y-71445016D01*
X70170738Y-71445016D02*
X71525620Y-72799898D01*
X74660197Y-72799898D02*
X83260051Y-64200044D01*
X83260051Y-64200044D02*
X93406904Y-64200044D01*
X93406904Y-64200044D02*
X97700282Y-68493422D01*
X97700282Y-68493422D02*
X98000281Y-68793421D01*
X94250010Y-77850009D02*
X93950011Y-78150008D01*
X94775023Y-77324996D02*
X94250010Y-77850009D01*
X94775023Y-75808517D02*
X94775023Y-77324996D01*
X94639967Y-75673461D02*
X94775023Y-75808517D01*
X94639967Y-72761313D02*
X94639967Y-75673461D01*
X97876279Y-69525002D02*
X94639967Y-72761313D01*
X98025409Y-69525002D02*
X97876279Y-69525002D01*
X98750262Y-68800149D02*
X98025409Y-69525002D01*
X74535929Y-72499887D02*
X83135783Y-63900033D01*
X69950000Y-70800000D02*
X71649887Y-72499887D01*
X69150000Y-70800000D02*
X69950000Y-70800000D01*
X71649887Y-72499887D02*
X74535929Y-72499887D01*
X83135783Y-63900033D02*
X93850146Y-63900033D01*
X93850146Y-63900033D02*
X98450263Y-68500150D01*
X98450263Y-68500150D02*
X98750262Y-68800149D01*
X98473139Y-69825022D02*
X98000538Y-69825022D01*
X94939978Y-75538536D02*
X95300033Y-75898591D01*
X99500270Y-68797891D02*
X98473139Y-69825022D01*
X98000538Y-69825022D02*
X94939978Y-72885581D01*
X94939978Y-72885581D02*
X94939978Y-75538536D01*
X95300033Y-75898591D02*
X95300033Y-76226890D01*
X99200271Y-68497892D02*
X99500270Y-68797891D01*
X75386504Y-71225033D02*
X83011515Y-63600022D01*
X71624990Y-70003747D02*
X71624990Y-70674990D01*
X71624990Y-70674990D02*
X72175033Y-71225033D01*
X72175033Y-71225033D02*
X75386504Y-71225033D01*
X83011515Y-63600022D02*
X94302401Y-63600022D01*
X94302401Y-63600022D02*
X99200271Y-68497892D01*
X98938831Y-70125033D02*
X98124806Y-70125033D01*
X95239989Y-75414268D02*
X95850000Y-76024278D01*
X95850000Y-77000022D02*
X95000021Y-77850001D01*
X95000021Y-77850001D02*
X94700022Y-78150000D01*
X100250114Y-68813750D02*
X98938831Y-70125033D01*
X98124806Y-70125033D02*
X95239989Y-73009849D01*
X95239989Y-73009849D02*
X95239989Y-75414268D01*
X95850000Y-76024278D02*
X95850000Y-77000022D01*
X72225953Y-70516031D02*
X72634944Y-70925022D01*
X100250114Y-68600114D02*
X100250114Y-68813750D01*
X72634944Y-70925022D02*
X75262236Y-70925022D01*
X75262236Y-70925022D02*
X82887247Y-63300011D01*
X82887247Y-63300011D02*
X94950011Y-63300011D01*
X94950011Y-63300011D02*
X100250114Y-68600114D01*
X101000000Y-68800000D02*
X101000000Y-69224264D01*
X96150010Y-75900010D02*
X96150010Y-77450025D01*
X95539999Y-73134118D02*
X95539999Y-75290000D01*
X101000000Y-69224264D02*
X99799220Y-70425044D01*
X99799220Y-70425044D02*
X98249074Y-70425044D01*
X98249074Y-70425044D02*
X95539999Y-73134118D01*
X95539999Y-75290000D02*
X96150010Y-75900010D01*
X96150010Y-77450025D02*
X95750034Y-77850001D01*
X95750034Y-77850001D02*
X95450035Y-78150000D01*
X72800000Y-70000000D02*
X73425011Y-70625011D01*
X73425011Y-70625011D02*
X75137968Y-70625011D01*
X75137968Y-70625011D02*
X82762979Y-63000000D01*
X82762979Y-63000000D02*
X95450000Y-63000000D01*
X95450000Y-63000000D02*
X101000000Y-68550000D01*
X101000000Y-68550000D02*
X101000000Y-68800000D01*
X97050000Y-73900000D02*
X97050000Y-74879436D01*
X97050000Y-74879436D02*
X96897449Y-75031987D01*
X97422451Y-75567645D02*
X97415115Y-75574981D01*
X97606000Y-75384096D02*
X97422451Y-75567645D01*
X97905999Y-73897889D02*
X97606000Y-74197888D01*
X97606000Y-74197888D02*
X97606000Y-75384096D01*
X98200000Y-75612968D02*
X98200000Y-74350000D01*
X98200000Y-74350000D02*
X98655970Y-73894030D01*
X98655970Y-73894030D02*
X98655970Y-73890079D01*
X99220002Y-76399998D02*
X99180000Y-76440000D01*
X101310000Y-76399998D02*
X99220002Y-76399998D01*
X101675010Y-77596020D02*
X99503980Y-77596020D01*
X99503980Y-77596020D02*
X98850000Y-78250000D01*
X98850000Y-78250000D02*
X97950000Y-78250000D01*
X92425000Y-79975000D02*
X92450000Y-79975000D01*
X92450000Y-79975000D02*
X92674990Y-80199990D01*
X92674990Y-80199990D02*
X99325010Y-80199990D01*
X99325010Y-80199990D02*
X100162683Y-79362317D01*
X100162683Y-79362317D02*
X100762317Y-79362317D01*
X100050000Y-80500000D02*
X91750004Y-80500000D01*
X76349999Y-78900001D02*
X76050000Y-79200000D01*
X76650000Y-78600000D02*
X76349999Y-78900001D01*
X81400000Y-78600000D02*
X76650000Y-78600000D01*
X87139784Y-76889012D02*
X88100012Y-77849240D01*
X87139784Y-75644897D02*
X87139784Y-76889012D01*
X88800000Y-68800000D02*
X88800000Y-71900000D01*
X87140530Y-73559470D02*
X87140530Y-75644151D01*
X88800000Y-71900000D02*
X87140530Y-73559470D01*
X87140530Y-75644151D02*
X87139784Y-75644897D01*
X88100012Y-77849240D02*
X88400011Y-78149239D01*
X73199954Y-78650044D02*
X74749956Y-78650044D01*
X84899999Y-68500001D02*
X88500001Y-68500001D01*
X74749956Y-78650044D02*
X84899999Y-68500001D01*
X88500001Y-68500001D02*
X88800000Y-68800000D01*
X72500000Y-79349998D02*
X73199954Y-78650044D01*
X87664785Y-75472634D02*
X87664785Y-75896898D01*
X89550011Y-68800013D02*
X89550011Y-71649989D01*
X89550011Y-71649989D02*
X87664785Y-73535215D01*
X87664785Y-73535215D02*
X87664785Y-75472634D01*
X74625689Y-78350033D02*
X84850699Y-68125022D01*
X88875020Y-68125022D02*
X89250012Y-68500014D01*
X89250012Y-68500014D02*
X89550011Y-68800013D01*
X72389290Y-78350033D02*
X74625689Y-78350033D01*
X84850699Y-68125022D02*
X88875020Y-68125022D01*
X71919424Y-78819899D02*
X72389290Y-78350033D01*
X89000002Y-77239107D02*
X88189795Y-76428900D01*
X90099977Y-70974264D02*
X90099977Y-70550000D01*
X89000002Y-80825000D02*
X89000002Y-77239107D01*
X88189795Y-76428900D02*
X88189795Y-73460205D01*
X88189795Y-73460205D02*
X90099977Y-71550023D01*
X90099977Y-71550023D02*
X90099977Y-70974264D01*
X84726431Y-67825011D02*
X89352013Y-67825011D01*
X90099977Y-70125736D02*
X90099977Y-70550000D01*
X90099977Y-68572975D02*
X90099977Y-70125736D01*
X71300000Y-79350002D02*
X71300000Y-78663852D01*
X71913830Y-78050022D02*
X74501421Y-78050022D01*
X89352013Y-67825011D02*
X90099977Y-68572975D01*
X71300000Y-78663852D02*
X71913830Y-78050022D01*
X74501421Y-78050022D02*
X84726431Y-67825011D01*
X88714796Y-73436648D02*
X88714796Y-75752635D01*
X90624978Y-68796593D02*
X90624978Y-71526466D01*
X90624978Y-71526466D02*
X88714796Y-73436648D01*
X88714796Y-75752635D02*
X88714796Y-76176899D01*
X84602163Y-67525000D02*
X89476281Y-67525000D01*
X71789563Y-77750011D02*
X74377153Y-77750011D01*
X89476281Y-67525000D02*
X90624978Y-68673697D01*
X70758270Y-78781304D02*
X71789563Y-77750011D01*
X74377153Y-77750011D02*
X84602163Y-67525000D01*
X90624978Y-68673697D02*
X90624978Y-68796593D01*
X91149988Y-70974264D02*
X91149988Y-70550000D01*
X89550000Y-82970000D02*
X89550000Y-76361433D01*
X89218948Y-76030381D02*
X89218948Y-73356774D01*
X91149988Y-71425734D02*
X91149988Y-70974264D01*
X89550000Y-76361433D02*
X89218948Y-76030381D01*
X89218948Y-73356774D02*
X91149988Y-71425734D01*
X84477895Y-67224989D02*
X89826979Y-67224989D01*
X74252885Y-77450000D02*
X84477895Y-67224989D01*
X89826979Y-67224989D02*
X91149988Y-68547998D01*
X70200000Y-78572138D02*
X71322138Y-77450000D01*
X91149988Y-70125736D02*
X91149988Y-70550000D01*
X91149988Y-68547998D02*
X91149988Y-70125736D01*
X71322138Y-77450000D02*
X74252885Y-77450000D01*
X70200000Y-79400000D02*
X70200000Y-78572138D01*
D16*
X85474994Y-72615006D02*
X85474994Y-76451239D01*
X77125000Y-83600000D02*
X81900000Y-83600000D01*
X81900000Y-83600000D02*
X85474994Y-80025006D01*
X85474994Y-80025006D02*
X85474994Y-76875503D01*
X85474994Y-76875503D02*
X85474994Y-76451239D01*
X87000002Y-70150000D02*
X87000002Y-71089998D01*
X87000002Y-71089998D02*
X85474994Y-72615006D01*
D17*
G36*
X107774501Y-84770000D02*
G01*
X60225500Y-84770000D01*
X60225500Y-83374122D01*
X60425000Y-83374122D01*
X60425000Y-83585878D01*
X60466312Y-83793566D01*
X60547348Y-83989203D01*
X60664993Y-84165272D01*
X60814728Y-84315007D01*
X60990797Y-84432652D01*
X61186434Y-84513688D01*
X61394122Y-84555000D01*
X61605878Y-84555000D01*
X61813566Y-84513688D01*
X62009203Y-84432652D01*
X62185272Y-84315007D01*
X62335007Y-84165272D01*
X62452652Y-83989203D01*
X62533688Y-83793566D01*
X62575000Y-83585878D01*
X62575000Y-83548292D01*
X76600000Y-83548292D01*
X76600000Y-83651708D01*
X76620176Y-83753137D01*
X76659751Y-83848681D01*
X76717206Y-83934668D01*
X76790332Y-84007794D01*
X76876319Y-84065249D01*
X76971863Y-84104824D01*
X77073292Y-84125000D01*
X77176708Y-84125000D01*
X77278137Y-84104824D01*
X77373681Y-84065249D01*
X77459668Y-84007794D01*
X77492462Y-83975000D01*
X81881584Y-83975000D01*
X81900000Y-83976814D01*
X81918416Y-83975000D01*
X81918419Y-83975000D01*
X81973513Y-83969574D01*
X82044200Y-83948131D01*
X82109347Y-83913309D01*
X82166448Y-83866448D01*
X82178195Y-83852134D01*
X85727134Y-80303196D01*
X85741442Y-80291454D01*
X85788303Y-80234353D01*
X85823125Y-80169206D01*
X85844568Y-80098519D01*
X85849994Y-80043425D01*
X85849994Y-80043423D01*
X85851808Y-80025007D01*
X85849994Y-80006591D01*
X85849994Y-78098292D01*
X86175000Y-78098292D01*
X86175000Y-78201708D01*
X86195176Y-78303137D01*
X86234751Y-78398681D01*
X86292206Y-78484668D01*
X86365332Y-78557794D01*
X86451319Y-78615249D01*
X86546863Y-78654824D01*
X86648292Y-78675000D01*
X86674991Y-78675000D01*
X86674990Y-82322806D01*
X86640322Y-82345971D01*
X86567196Y-82419097D01*
X86509741Y-82505084D01*
X86470166Y-82600628D01*
X86449990Y-82702057D01*
X86449990Y-82805473D01*
X86470166Y-82906902D01*
X86509741Y-83002446D01*
X86567196Y-83088433D01*
X86640322Y-83161559D01*
X86726309Y-83219014D01*
X86821853Y-83258589D01*
X86923282Y-83278765D01*
X87026698Y-83278765D01*
X87128127Y-83258589D01*
X87223671Y-83219014D01*
X87309658Y-83161559D01*
X87382784Y-83088433D01*
X87440239Y-83002446D01*
X87479814Y-82906902D01*
X87499990Y-82805473D01*
X87499990Y-82702057D01*
X87479814Y-82600628D01*
X87440239Y-82505084D01*
X87382784Y-82419097D01*
X87309658Y-82345971D01*
X87274990Y-82322806D01*
X87274990Y-78439720D01*
X87276441Y-78424990D01*
X87274990Y-78410257D01*
X87270649Y-78366180D01*
X87253494Y-78309630D01*
X87250028Y-78303145D01*
X87225637Y-78257512D01*
X87216189Y-78246000D01*
X87225000Y-78201708D01*
X87225000Y-78098292D01*
X87204824Y-77996863D01*
X87165249Y-77901319D01*
X87107794Y-77815332D01*
X87034668Y-77742206D01*
X86948681Y-77684751D01*
X86853137Y-77645176D01*
X86751708Y-77625000D01*
X86648292Y-77625000D01*
X86546863Y-77645176D01*
X86451319Y-77684751D01*
X86365332Y-77742206D01*
X86292206Y-77815332D01*
X86234751Y-77901319D01*
X86195176Y-77996863D01*
X86175000Y-78098292D01*
X85849994Y-78098292D01*
X85849994Y-76818701D01*
X85882788Y-76785907D01*
X85940243Y-76699920D01*
X85979818Y-76604376D01*
X85999994Y-76502947D01*
X85999994Y-76399531D01*
X85979818Y-76298102D01*
X85940243Y-76202558D01*
X85882788Y-76116571D01*
X85849994Y-76083777D01*
X85849994Y-72770335D01*
X87252141Y-71368189D01*
X87266450Y-71356446D01*
X87313311Y-71299345D01*
X87348133Y-71234198D01*
X87369576Y-71163511D01*
X87375002Y-71108417D01*
X87375002Y-71108414D01*
X87376816Y-71089998D01*
X87375002Y-71071582D01*
X87375002Y-70517462D01*
X87407796Y-70484668D01*
X87465251Y-70398681D01*
X87504826Y-70303137D01*
X87525002Y-70201708D01*
X87525002Y-70098292D01*
X87504826Y-69996863D01*
X87465251Y-69901319D01*
X87407796Y-69815332D01*
X87334670Y-69742206D01*
X87248683Y-69684751D01*
X87153139Y-69645176D01*
X87051710Y-69625000D01*
X86948294Y-69625000D01*
X86846865Y-69645176D01*
X86751321Y-69684751D01*
X86665334Y-69742206D01*
X86592208Y-69815332D01*
X86534753Y-69901319D01*
X86495178Y-69996863D01*
X86475002Y-70098292D01*
X86475002Y-70201708D01*
X86495178Y-70303137D01*
X86534753Y-70398681D01*
X86592208Y-70484668D01*
X86625002Y-70517462D01*
X86625003Y-70934667D01*
X85222860Y-72336811D01*
X85208546Y-72348558D01*
X85161685Y-72405660D01*
X85126863Y-72470807D01*
X85105420Y-72541494D01*
X85101221Y-72584130D01*
X85098180Y-72615006D01*
X85099994Y-72633422D01*
X85099995Y-76083776D01*
X85067200Y-76116571D01*
X85009745Y-76202558D01*
X84970170Y-76298102D01*
X84949994Y-76399531D01*
X84949994Y-76502947D01*
X84970170Y-76604376D01*
X85009745Y-76699920D01*
X85067200Y-76785907D01*
X85099994Y-76818701D01*
X85099994Y-76893921D01*
X85099995Y-76893931D01*
X85099994Y-79869676D01*
X81744671Y-83225000D01*
X77492462Y-83225000D01*
X77459668Y-83192206D01*
X77373681Y-83134751D01*
X77278137Y-83095176D01*
X77176708Y-83075000D01*
X77073292Y-83075000D01*
X76971863Y-83095176D01*
X76876319Y-83134751D01*
X76790332Y-83192206D01*
X76717206Y-83265332D01*
X76659751Y-83351319D01*
X76620176Y-83446863D01*
X76600000Y-83548292D01*
X62575000Y-83548292D01*
X62575000Y-83374122D01*
X62533688Y-83166434D01*
X62452652Y-82970797D01*
X62444967Y-82959296D01*
X63504264Y-81900000D01*
X69669041Y-81900000D01*
X69692206Y-81934668D01*
X69765332Y-82007794D01*
X69851319Y-82065249D01*
X69946863Y-82104824D01*
X70048292Y-82125000D01*
X70151708Y-82125000D01*
X70253137Y-82104824D01*
X70348681Y-82065249D01*
X70434668Y-82007794D01*
X70507794Y-81934668D01*
X70565249Y-81848681D01*
X70604824Y-81753137D01*
X70625000Y-81651708D01*
X70625000Y-81548292D01*
X71375000Y-81548292D01*
X71375000Y-81651708D01*
X71395176Y-81753137D01*
X71434751Y-81848681D01*
X71492206Y-81934668D01*
X71565332Y-82007794D01*
X71651319Y-82065249D01*
X71746863Y-82104824D01*
X71848292Y-82125000D01*
X71951708Y-82125000D01*
X71992602Y-82116865D01*
X72577451Y-82701715D01*
X72586842Y-82713158D01*
X72598285Y-82722549D01*
X72632522Y-82750647D01*
X72660379Y-82765536D01*
X72684640Y-82778504D01*
X72741190Y-82795659D01*
X72785267Y-82800000D01*
X72785276Y-82800000D01*
X72799999Y-82801450D01*
X72814722Y-82800000D01*
X73933834Y-82800000D01*
X73948557Y-82801450D01*
X73963280Y-82800000D01*
X73963290Y-82800000D01*
X74007367Y-82795659D01*
X74063917Y-82778504D01*
X74116034Y-82750647D01*
X74161715Y-82713158D01*
X74171110Y-82701711D01*
X74372799Y-82500022D01*
X81560257Y-82500022D01*
X81574980Y-82501472D01*
X81589703Y-82500022D01*
X81589713Y-82500022D01*
X81633790Y-82495681D01*
X81690340Y-82478526D01*
X81742457Y-82450669D01*
X81788138Y-82413180D01*
X81797533Y-82401732D01*
X82032400Y-82166866D01*
X82073294Y-82175000D01*
X82176710Y-82175000D01*
X82278139Y-82154824D01*
X82373683Y-82115249D01*
X82459670Y-82057794D01*
X82532796Y-81984668D01*
X82590251Y-81898681D01*
X82629826Y-81803137D01*
X82650002Y-81701708D01*
X82650002Y-81598292D01*
X82641867Y-81557398D01*
X84176717Y-80022549D01*
X84188158Y-80013160D01*
X84209765Y-79986832D01*
X84225647Y-79967480D01*
X84249831Y-79922234D01*
X84253504Y-79915362D01*
X84270659Y-79858812D01*
X84275000Y-79814735D01*
X84275000Y-79814726D01*
X84276450Y-79800003D01*
X84275000Y-79785280D01*
X84275000Y-72639730D01*
X84276451Y-72625000D01*
X84273810Y-72598184D01*
X84273370Y-72593718D01*
X84279824Y-72578137D01*
X84300000Y-72476708D01*
X84300000Y-72373292D01*
X84279824Y-72271863D01*
X84240249Y-72176319D01*
X84182794Y-72090332D01*
X84109668Y-72017206D01*
X84023681Y-71959751D01*
X83928137Y-71920176D01*
X83908692Y-71916308D01*
X84378769Y-71446231D01*
X84415332Y-71482794D01*
X84501319Y-71540249D01*
X84596863Y-71579824D01*
X84698292Y-71600000D01*
X84801708Y-71600000D01*
X84903137Y-71579824D01*
X84998681Y-71540249D01*
X85084668Y-71482794D01*
X85157794Y-71409668D01*
X85215249Y-71323681D01*
X85254824Y-71228137D01*
X85275000Y-71126708D01*
X85275000Y-71023292D01*
X85254824Y-70921863D01*
X85215249Y-70826319D01*
X85157794Y-70740332D01*
X85084668Y-70667206D01*
X84998681Y-70609751D01*
X84903137Y-70570176D01*
X84801708Y-70550000D01*
X84698292Y-70550000D01*
X84596863Y-70570176D01*
X84501319Y-70609751D01*
X84415332Y-70667206D01*
X84342206Y-70740332D01*
X84319607Y-70774154D01*
X84311012Y-70775000D01*
X84311003Y-70775000D01*
X84266926Y-70779341D01*
X84210376Y-70796496D01*
X84186115Y-70809464D01*
X84158258Y-70824353D01*
X84125235Y-70851455D01*
X84112578Y-70861842D01*
X84103187Y-70873285D01*
X82523283Y-72453190D01*
X82511841Y-72462580D01*
X82502450Y-72474023D01*
X82502449Y-72474024D01*
X82474351Y-72508261D01*
X82446495Y-72560378D01*
X82429340Y-72616928D01*
X82423548Y-72675738D01*
X82424999Y-72690471D01*
X82424998Y-73310277D01*
X82423548Y-73325000D01*
X82424998Y-73339723D01*
X82424998Y-73339732D01*
X82429339Y-73383809D01*
X82446494Y-73440359D01*
X82457102Y-73460205D01*
X82474351Y-73492477D01*
X82484682Y-73505065D01*
X82511840Y-73538158D01*
X82523288Y-73547553D01*
X82800001Y-73824267D01*
X82800000Y-76569041D01*
X82765332Y-76592206D01*
X82692206Y-76665332D01*
X82634751Y-76751319D01*
X82595176Y-76846863D01*
X82575000Y-76948292D01*
X82575000Y-77051708D01*
X82595176Y-77153137D01*
X82634751Y-77248681D01*
X82692206Y-77334668D01*
X82765332Y-77407794D01*
X82800000Y-77430959D01*
X82800000Y-77438996D01*
X82800001Y-77439006D01*
X82800000Y-78925736D01*
X80425737Y-81300000D01*
X78680965Y-81300000D01*
X78715249Y-81248691D01*
X78754824Y-81153147D01*
X78775000Y-81051718D01*
X78775000Y-80948302D01*
X78754824Y-80846873D01*
X78715249Y-80751329D01*
X78657794Y-80665342D01*
X78584668Y-80592216D01*
X78498681Y-80534761D01*
X78403137Y-80495186D01*
X78301708Y-80475010D01*
X78198292Y-80475010D01*
X78096863Y-80495186D01*
X78001319Y-80534761D01*
X77915332Y-80592216D01*
X77842206Y-80665342D01*
X77784751Y-80751329D01*
X77745176Y-80846873D01*
X77725000Y-80948302D01*
X77725000Y-81051718D01*
X77745176Y-81153147D01*
X77784751Y-81248691D01*
X77819035Y-81300000D01*
X74114382Y-81300000D01*
X74057794Y-81215310D01*
X73984668Y-81142184D01*
X73898681Y-81084729D01*
X73803137Y-81045154D01*
X73701708Y-81024978D01*
X73598292Y-81024978D01*
X73496863Y-81045154D01*
X73401319Y-81084729D01*
X73315332Y-81142184D01*
X73242206Y-81215310D01*
X73208288Y-81266071D01*
X73207794Y-81265332D01*
X73134668Y-81192206D01*
X73048681Y-81134751D01*
X72953137Y-81095176D01*
X72851708Y-81075000D01*
X72748292Y-81075000D01*
X72646863Y-81095176D01*
X72551319Y-81134751D01*
X72465332Y-81192206D01*
X72392206Y-81265332D01*
X72350000Y-81328497D01*
X72307794Y-81265332D01*
X72234668Y-81192206D01*
X72148681Y-81134751D01*
X72053137Y-81095176D01*
X71951708Y-81075000D01*
X71848292Y-81075000D01*
X71746863Y-81095176D01*
X71651319Y-81134751D01*
X71565332Y-81192206D01*
X71492206Y-81265332D01*
X71434751Y-81351319D01*
X71395176Y-81446863D01*
X71375000Y-81548292D01*
X70625000Y-81548292D01*
X70604824Y-81446863D01*
X70565249Y-81351319D01*
X70507794Y-81265332D01*
X70434668Y-81192206D01*
X70348681Y-81134751D01*
X70253137Y-81095176D01*
X70151708Y-81075000D01*
X70048292Y-81075000D01*
X69946863Y-81095176D01*
X69851319Y-81134751D01*
X69765332Y-81192206D01*
X69692206Y-81265332D01*
X69669041Y-81300000D01*
X63394719Y-81300000D01*
X63379999Y-81298550D01*
X63365279Y-81300000D01*
X63365267Y-81300000D01*
X63321190Y-81304341D01*
X63264640Y-81321496D01*
X63240379Y-81334464D01*
X63212522Y-81349353D01*
X63205856Y-81354824D01*
X63166842Y-81386842D01*
X63157451Y-81398285D01*
X62020704Y-82535033D01*
X62009203Y-82527348D01*
X61813566Y-82446312D01*
X61605878Y-82405000D01*
X61394122Y-82405000D01*
X61186434Y-82446312D01*
X60990797Y-82527348D01*
X60814728Y-82644993D01*
X60664993Y-82794728D01*
X60547348Y-82970797D01*
X60466312Y-83166434D01*
X60425000Y-83374122D01*
X60225500Y-83374122D01*
X60225500Y-81113104D01*
X60439029Y-81113104D01*
X60453546Y-81186089D01*
X60521663Y-81385514D01*
X60627377Y-81567818D01*
X60766625Y-81725995D01*
X60934057Y-81853967D01*
X61123237Y-81946815D01*
X61326896Y-82000972D01*
X61495000Y-81958739D01*
X61495000Y-80945000D01*
X61505000Y-80945000D01*
X61505000Y-81958739D01*
X61673104Y-82000972D01*
X61876763Y-81946815D01*
X62065943Y-81853967D01*
X62233375Y-81725995D01*
X62372623Y-81567818D01*
X62478337Y-81385514D01*
X62546454Y-81186089D01*
X62560971Y-81113104D01*
X62518738Y-80945000D01*
X61505000Y-80945000D01*
X61495000Y-80945000D01*
X60481262Y-80945000D01*
X60439029Y-81113104D01*
X60225500Y-81113104D01*
X60225500Y-80766896D01*
X60439029Y-80766896D01*
X60481262Y-80935000D01*
X61495000Y-80935000D01*
X61495000Y-79921261D01*
X61505000Y-79921261D01*
X61505000Y-80935000D01*
X62518738Y-80935000D01*
X62560971Y-80766896D01*
X62546454Y-80693911D01*
X62478337Y-80494486D01*
X62372623Y-80312182D01*
X62233375Y-80154005D01*
X62065943Y-80026033D01*
X61876763Y-79933185D01*
X61673104Y-79879028D01*
X61505000Y-79921261D01*
X61495000Y-79921261D01*
X61326896Y-79879028D01*
X61123237Y-79933185D01*
X60934057Y-80026033D01*
X60766625Y-80154005D01*
X60627377Y-80312182D01*
X60521663Y-80494486D01*
X60453546Y-80693911D01*
X60439029Y-80766896D01*
X60225500Y-80766896D01*
X60225500Y-77550000D01*
X60423912Y-77550000D01*
X60423912Y-79250000D01*
X60428256Y-79294108D01*
X60441122Y-79336520D01*
X60462015Y-79375608D01*
X60490132Y-79409868D01*
X60524392Y-79437985D01*
X60563480Y-79458878D01*
X60605892Y-79471744D01*
X60650000Y-79476088D01*
X62350000Y-79476088D01*
X62394108Y-79471744D01*
X62436520Y-79458878D01*
X62475608Y-79437985D01*
X62509868Y-79409868D01*
X62537985Y-79375608D01*
X62558878Y-79336520D01*
X62571744Y-79294108D01*
X62576088Y-79250000D01*
X62576088Y-78700000D01*
X65435281Y-78700000D01*
X65450004Y-78701450D01*
X65464727Y-78700000D01*
X65464737Y-78700000D01*
X65508814Y-78695659D01*
X65565364Y-78678504D01*
X65617481Y-78650647D01*
X65663162Y-78613158D01*
X65672557Y-78601710D01*
X66507402Y-77766866D01*
X66548296Y-77775000D01*
X66651712Y-77775000D01*
X66753141Y-77754824D01*
X66848685Y-77715249D01*
X66934672Y-77657794D01*
X67007798Y-77584668D01*
X67065253Y-77498681D01*
X67104828Y-77403137D01*
X67125004Y-77301708D01*
X67125004Y-77198292D01*
X67104828Y-77096863D01*
X67065253Y-77001319D01*
X67007798Y-76915332D01*
X66934672Y-76842206D01*
X66848685Y-76784751D01*
X66753141Y-76745176D01*
X66651712Y-76725000D01*
X66548296Y-76725000D01*
X66446867Y-76745176D01*
X66351323Y-76784751D01*
X66265336Y-76842206D01*
X66192210Y-76915332D01*
X66134755Y-77001319D01*
X66095180Y-77096863D01*
X66075004Y-77198292D01*
X66075004Y-77301708D01*
X66083138Y-77342602D01*
X65325741Y-78100000D01*
X62576088Y-78100000D01*
X62576088Y-77550000D01*
X62571744Y-77505892D01*
X62558878Y-77463480D01*
X62537985Y-77424392D01*
X62509868Y-77390132D01*
X62475608Y-77362015D01*
X62436520Y-77341122D01*
X62394108Y-77328256D01*
X62350000Y-77323912D01*
X60650000Y-77323912D01*
X60605892Y-77328256D01*
X60563480Y-77341122D01*
X60524392Y-77362015D01*
X60490132Y-77390132D01*
X60462015Y-77424392D01*
X60441122Y-77463480D01*
X60428256Y-77505892D01*
X60423912Y-77550000D01*
X60225500Y-77550000D01*
X60225500Y-70748292D01*
X68625000Y-70748292D01*
X68625000Y-70851708D01*
X68645176Y-70953137D01*
X68684751Y-71048681D01*
X68742206Y-71134668D01*
X68815332Y-71207794D01*
X68901319Y-71265249D01*
X68996863Y-71304824D01*
X69098292Y-71325000D01*
X69201708Y-71325000D01*
X69240107Y-71317362D01*
X69225000Y-71393308D01*
X69225000Y-71449659D01*
X69201708Y-71445026D01*
X69098292Y-71445026D01*
X68996863Y-71465202D01*
X68901319Y-71504777D01*
X68815332Y-71562232D01*
X68742206Y-71635358D01*
X68684751Y-71721345D01*
X68645176Y-71816889D01*
X68625000Y-71918318D01*
X68625000Y-72021734D01*
X68645176Y-72123163D01*
X68684751Y-72218707D01*
X68742206Y-72304694D01*
X68815332Y-72377820D01*
X68901319Y-72435275D01*
X68996863Y-72474850D01*
X69098292Y-72495026D01*
X69201708Y-72495026D01*
X69229512Y-72489495D01*
X69229512Y-72525000D01*
X69198292Y-72525000D01*
X69096863Y-72545176D01*
X69001319Y-72584751D01*
X68915332Y-72642206D01*
X68842206Y-72715332D01*
X68784751Y-72801319D01*
X68745176Y-72896863D01*
X68725000Y-72998292D01*
X68725000Y-73101708D01*
X68745176Y-73203137D01*
X68784751Y-73298681D01*
X68842206Y-73384668D01*
X68915332Y-73457794D01*
X69001319Y-73515249D01*
X69096863Y-73554824D01*
X69198292Y-73575000D01*
X69301708Y-73575000D01*
X69366806Y-73562051D01*
X69350835Y-73600609D01*
X69330659Y-73702038D01*
X69330659Y-73790716D01*
X69251708Y-73775011D01*
X69148292Y-73775011D01*
X69046863Y-73795187D01*
X68951319Y-73834762D01*
X68865332Y-73892217D01*
X68792206Y-73965343D01*
X68734751Y-74051330D01*
X68695176Y-74146874D01*
X68675000Y-74248303D01*
X68675000Y-74351719D01*
X68695176Y-74453148D01*
X68734751Y-74548692D01*
X68792206Y-74634679D01*
X68865332Y-74707805D01*
X68951319Y-74765260D01*
X69046863Y-74804835D01*
X69148292Y-74825011D01*
X69251708Y-74825011D01*
X69280775Y-74819229D01*
X69274994Y-74848292D01*
X69274994Y-74950401D01*
X69227626Y-74940979D01*
X69124210Y-74940979D01*
X69022781Y-74961155D01*
X68927237Y-75000730D01*
X68841250Y-75058185D01*
X68768124Y-75131311D01*
X68710669Y-75217298D01*
X68671094Y-75312842D01*
X68650918Y-75414271D01*
X68650918Y-75517687D01*
X68671094Y-75619116D01*
X68710669Y-75714660D01*
X68768124Y-75800647D01*
X68841250Y-75873773D01*
X68927237Y-75931228D01*
X69022781Y-75970803D01*
X69124210Y-75990979D01*
X69227626Y-75990979D01*
X69228761Y-75990753D01*
X69228761Y-76055469D01*
X69231008Y-76066766D01*
X69129633Y-76066766D01*
X69028204Y-76086942D01*
X68932660Y-76126517D01*
X68846673Y-76183972D01*
X68773547Y-76257098D01*
X68716092Y-76343085D01*
X68676517Y-76438629D01*
X68656341Y-76540058D01*
X68656341Y-76643474D01*
X68676517Y-76744903D01*
X68716092Y-76840447D01*
X68773547Y-76926434D01*
X68846673Y-76999560D01*
X68932660Y-77057015D01*
X69028204Y-77096590D01*
X69129633Y-77116766D01*
X69233049Y-77116766D01*
X69334478Y-77096590D01*
X69430022Y-77057015D01*
X69516009Y-76999560D01*
X69589135Y-76926434D01*
X69612300Y-76891766D01*
X69893511Y-76891766D01*
X69908234Y-76893216D01*
X69922957Y-76891766D01*
X69922967Y-76891766D01*
X69967044Y-76887425D01*
X70023594Y-76870270D01*
X70075711Y-76842413D01*
X70121392Y-76804924D01*
X70130787Y-76793476D01*
X70828742Y-76095521D01*
X70845176Y-76178137D01*
X70884751Y-76273681D01*
X70942206Y-76359668D01*
X71015332Y-76432794D01*
X71101319Y-76490249D01*
X71196863Y-76529824D01*
X71298292Y-76550000D01*
X71401708Y-76550000D01*
X71503137Y-76529824D01*
X71598681Y-76490249D01*
X71684668Y-76432794D01*
X71717464Y-76399998D01*
X71755837Y-76399998D01*
X71755846Y-76399999D01*
X74407538Y-76399999D01*
X74440332Y-76432793D01*
X74526319Y-76490248D01*
X74621863Y-76529823D01*
X74723292Y-76549999D01*
X74728623Y-76549999D01*
X74128622Y-77150000D01*
X71336868Y-77150000D01*
X71322138Y-77148549D01*
X71307408Y-77150000D01*
X71307405Y-77150000D01*
X71263328Y-77154341D01*
X71220030Y-77167476D01*
X71206777Y-77171496D01*
X71154660Y-77199353D01*
X71125178Y-77223549D01*
X71108980Y-77236842D01*
X71099589Y-77248285D01*
X69998285Y-78349590D01*
X69986843Y-78358980D01*
X69977452Y-78370423D01*
X69977451Y-78370424D01*
X69949353Y-78404661D01*
X69921497Y-78456778D01*
X69904342Y-78513328D01*
X69898550Y-78572138D01*
X69900001Y-78586871D01*
X69900001Y-78969041D01*
X69865332Y-78992206D01*
X69792206Y-79065332D01*
X69734751Y-79151319D01*
X69695176Y-79246863D01*
X69675000Y-79348292D01*
X69675000Y-79451708D01*
X69695176Y-79553137D01*
X69734751Y-79648681D01*
X69792206Y-79734668D01*
X69865332Y-79807794D01*
X69951319Y-79865249D01*
X70046863Y-79904824D01*
X70148292Y-79925000D01*
X70251708Y-79925000D01*
X70353137Y-79904824D01*
X70448681Y-79865249D01*
X70534668Y-79807794D01*
X70607794Y-79734668D01*
X70665249Y-79648681D01*
X70704824Y-79553137D01*
X70725000Y-79451708D01*
X70725000Y-79348292D01*
X70716648Y-79306304D01*
X70775000Y-79306304D01*
X70775000Y-79401710D01*
X70795176Y-79503139D01*
X70834751Y-79598683D01*
X70892206Y-79684670D01*
X70965332Y-79757796D01*
X71051319Y-79815251D01*
X71146863Y-79854826D01*
X71248292Y-79875002D01*
X71351708Y-79875002D01*
X71453137Y-79854826D01*
X71548681Y-79815251D01*
X71634668Y-79757796D01*
X71707794Y-79684670D01*
X71765249Y-79598683D01*
X71804824Y-79503139D01*
X71825000Y-79401710D01*
X71825000Y-79336402D01*
X71867716Y-79344899D01*
X71971132Y-79344899D01*
X71975000Y-79344130D01*
X71975000Y-79401706D01*
X71995176Y-79503135D01*
X72034751Y-79598679D01*
X72092206Y-79684666D01*
X72165332Y-79757792D01*
X72251319Y-79815247D01*
X72346863Y-79854822D01*
X72448292Y-79874998D01*
X72551708Y-79874998D01*
X72653137Y-79854822D01*
X72748681Y-79815247D01*
X72834668Y-79757792D01*
X72907794Y-79684666D01*
X72965249Y-79598679D01*
X73004824Y-79503135D01*
X73025000Y-79401706D01*
X73025000Y-79298290D01*
X73016865Y-79257396D01*
X73125969Y-79148292D01*
X75525000Y-79148292D01*
X75525000Y-79251708D01*
X75545176Y-79353137D01*
X75584751Y-79448681D01*
X75642206Y-79534668D01*
X75715332Y-79607794D01*
X75801319Y-79665249D01*
X75896863Y-79704824D01*
X75998292Y-79725000D01*
X76101708Y-79725000D01*
X76203137Y-79704824D01*
X76298681Y-79665249D01*
X76384668Y-79607794D01*
X76457794Y-79534668D01*
X76515249Y-79448681D01*
X76554824Y-79353137D01*
X76575000Y-79251708D01*
X76575000Y-79148292D01*
X76566866Y-79107398D01*
X76572549Y-79101715D01*
X76572553Y-79101710D01*
X76774264Y-78900000D01*
X80969041Y-78900000D01*
X80992206Y-78934668D01*
X81065332Y-79007794D01*
X81151319Y-79065249D01*
X81246863Y-79104824D01*
X81348292Y-79125000D01*
X81451708Y-79125000D01*
X81553137Y-79104824D01*
X81648681Y-79065249D01*
X81734668Y-79007794D01*
X81807794Y-78934668D01*
X81865249Y-78848681D01*
X81904824Y-78753137D01*
X81925000Y-78651708D01*
X81925000Y-78548292D01*
X81904824Y-78446863D01*
X81865249Y-78351319D01*
X81807794Y-78265332D01*
X81734668Y-78192206D01*
X81648681Y-78134751D01*
X81553137Y-78095176D01*
X81451708Y-78075000D01*
X81348292Y-78075000D01*
X81246863Y-78095176D01*
X81151319Y-78134751D01*
X81065332Y-78192206D01*
X80992206Y-78265332D01*
X80969041Y-78300000D01*
X76664719Y-78300000D01*
X76649999Y-78298550D01*
X76635279Y-78300000D01*
X76635267Y-78300000D01*
X76591190Y-78304341D01*
X76534640Y-78321496D01*
X76521490Y-78328525D01*
X76482522Y-78349353D01*
X76454245Y-78372560D01*
X76436842Y-78386842D01*
X76427451Y-78398285D01*
X76148290Y-78677447D01*
X76148285Y-78677451D01*
X76142602Y-78683134D01*
X76101708Y-78675000D01*
X75998292Y-78675000D01*
X75896863Y-78695176D01*
X75801319Y-78734751D01*
X75715332Y-78792206D01*
X75642206Y-78865332D01*
X75584751Y-78951319D01*
X75545176Y-79046863D01*
X75525000Y-79148292D01*
X73125969Y-79148292D01*
X73324218Y-78950044D01*
X74735233Y-78950044D01*
X74749956Y-78951494D01*
X74764679Y-78950044D01*
X74764689Y-78950044D01*
X74808766Y-78945703D01*
X74865316Y-78928548D01*
X74917433Y-78900691D01*
X74963114Y-78863202D01*
X74972509Y-78851754D01*
X84190745Y-69633518D01*
X84775000Y-69633518D01*
X84775000Y-69766482D01*
X84800940Y-69896890D01*
X84851823Y-70019732D01*
X84925693Y-70130287D01*
X85019713Y-70224307D01*
X85130268Y-70298177D01*
X85253110Y-70349060D01*
X85383518Y-70375000D01*
X85516482Y-70375000D01*
X85646890Y-70349060D01*
X85769732Y-70298177D01*
X85880287Y-70224307D01*
X85974307Y-70130287D01*
X86048177Y-70019732D01*
X86099060Y-69896890D01*
X86125000Y-69766482D01*
X86125000Y-69633518D01*
X86099060Y-69503110D01*
X86048177Y-69380268D01*
X85974307Y-69269713D01*
X85880287Y-69175693D01*
X85769732Y-69101823D01*
X85646890Y-69050940D01*
X85516482Y-69025000D01*
X85383518Y-69025000D01*
X85253110Y-69050940D01*
X85130268Y-69101823D01*
X85019713Y-69175693D01*
X84925693Y-69269713D01*
X84851823Y-69380268D01*
X84800940Y-69503110D01*
X84775000Y-69633518D01*
X84190745Y-69633518D01*
X85024263Y-68800001D01*
X88275000Y-68800001D01*
X88275000Y-68851708D01*
X88295176Y-68953137D01*
X88334751Y-69048681D01*
X88392206Y-69134668D01*
X88465332Y-69207794D01*
X88500000Y-69230959D01*
X88500001Y-71775735D01*
X86938820Y-73336917D01*
X86927372Y-73346312D01*
X86911971Y-73365079D01*
X86889883Y-73391993D01*
X86880514Y-73409522D01*
X86862026Y-73444111D01*
X86844871Y-73500661D01*
X86840530Y-73544738D01*
X86840530Y-73544747D01*
X86839080Y-73559470D01*
X86840530Y-73574193D01*
X86840531Y-75622580D01*
X86839784Y-75630165D01*
X86839784Y-75630174D01*
X86838334Y-75644897D01*
X86839784Y-75659620D01*
X86839785Y-76874279D01*
X86838334Y-76889012D01*
X86844126Y-76947822D01*
X86861281Y-77004372D01*
X86889137Y-77056489D01*
X86903795Y-77074349D01*
X86926627Y-77102170D01*
X86938069Y-77111560D01*
X87883145Y-78056637D01*
X87875011Y-78097531D01*
X87875011Y-78200947D01*
X87895187Y-78302376D01*
X87934762Y-78397920D01*
X87992217Y-78483907D01*
X88065343Y-78557033D01*
X88151330Y-78614488D01*
X88246874Y-78654063D01*
X88348303Y-78674239D01*
X88451719Y-78674239D01*
X88553148Y-78654063D01*
X88648692Y-78614488D01*
X88700003Y-78580203D01*
X88700002Y-80394041D01*
X88665334Y-80417206D01*
X88592208Y-80490332D01*
X88534753Y-80576319D01*
X88495178Y-80671863D01*
X88475002Y-80773292D01*
X88475002Y-80876708D01*
X88495178Y-80978137D01*
X88534753Y-81073681D01*
X88592208Y-81159668D01*
X88665334Y-81232794D01*
X88751321Y-81290249D01*
X88846865Y-81329824D01*
X88948294Y-81350000D01*
X89051710Y-81350000D01*
X89153139Y-81329824D01*
X89248683Y-81290249D01*
X89250000Y-81289369D01*
X89250000Y-82539041D01*
X89215332Y-82562206D01*
X89142206Y-82635332D01*
X89084751Y-82721319D01*
X89045176Y-82816863D01*
X89025000Y-82918292D01*
X89025000Y-83021708D01*
X89045176Y-83123137D01*
X89084751Y-83218681D01*
X89142206Y-83304668D01*
X89215332Y-83377794D01*
X89301319Y-83435249D01*
X89396863Y-83474824D01*
X89498292Y-83495000D01*
X89601708Y-83495000D01*
X89703137Y-83474824D01*
X89798681Y-83435249D01*
X89884668Y-83377794D01*
X89957794Y-83304668D01*
X90015249Y-83218681D01*
X90054824Y-83123137D01*
X90075000Y-83021708D01*
X90075000Y-82918292D01*
X90054824Y-82816863D01*
X90015249Y-82721319D01*
X89957794Y-82635332D01*
X89884668Y-82562206D01*
X89850000Y-82539041D01*
X89850000Y-81325053D01*
X89921875Y-81354824D01*
X90023304Y-81375000D01*
X90126720Y-81375000D01*
X90228149Y-81354824D01*
X90323693Y-81315249D01*
X90409680Y-81257794D01*
X90482806Y-81184668D01*
X90540261Y-81098681D01*
X90579836Y-81003137D01*
X90600012Y-80901708D01*
X90600012Y-80798292D01*
X90579836Y-80696863D01*
X90540261Y-80601319D01*
X90482806Y-80515332D01*
X90415766Y-80448292D01*
X91225004Y-80448292D01*
X91225004Y-80551708D01*
X91245180Y-80653137D01*
X91284755Y-80748681D01*
X91342210Y-80834668D01*
X91415336Y-80907794D01*
X91501323Y-80965249D01*
X91596867Y-81004824D01*
X91698296Y-81025000D01*
X91801712Y-81025000D01*
X91903141Y-81004824D01*
X91998685Y-80965249D01*
X92084672Y-80907794D01*
X92157798Y-80834668D01*
X92180963Y-80800000D01*
X99619041Y-80800000D01*
X99642206Y-80834668D01*
X99715332Y-80907794D01*
X99801319Y-80965249D01*
X99896863Y-81004824D01*
X99998292Y-81025000D01*
X100101708Y-81025000D01*
X100203137Y-81004824D01*
X100298681Y-80965249D01*
X100384668Y-80907794D01*
X100457794Y-80834668D01*
X100515249Y-80748681D01*
X100554824Y-80653137D01*
X100575000Y-80551708D01*
X100575000Y-80448292D01*
X100554824Y-80346863D01*
X100515249Y-80251319D01*
X100457794Y-80165332D01*
X100384668Y-80092206D01*
X100298681Y-80034751D01*
X100203137Y-79995176D01*
X100101708Y-79975000D01*
X99998292Y-79975000D01*
X99968297Y-79980967D01*
X100286947Y-79662317D01*
X100331358Y-79662317D01*
X100354523Y-79696985D01*
X100427649Y-79770111D01*
X100513636Y-79827566D01*
X100609180Y-79867141D01*
X100710609Y-79887317D01*
X100814025Y-79887317D01*
X100915454Y-79867141D01*
X101010998Y-79827566D01*
X101096985Y-79770111D01*
X101170111Y-79696985D01*
X101227566Y-79610998D01*
X101267141Y-79515454D01*
X101287317Y-79414025D01*
X101287317Y-79310609D01*
X101267141Y-79209180D01*
X101227566Y-79113636D01*
X101170111Y-79027649D01*
X101096985Y-78954523D01*
X101010998Y-78897068D01*
X100915454Y-78857493D01*
X100814025Y-78837317D01*
X100710609Y-78837317D01*
X100609180Y-78857493D01*
X100513636Y-78897068D01*
X100427649Y-78954523D01*
X100354523Y-79027649D01*
X100331358Y-79062317D01*
X100177413Y-79062317D01*
X100162683Y-79060866D01*
X100147953Y-79062317D01*
X100147950Y-79062317D01*
X100103873Y-79066658D01*
X100051589Y-79082519D01*
X100047323Y-79083813D01*
X99995205Y-79111670D01*
X99960969Y-79139767D01*
X99949525Y-79149159D01*
X99940134Y-79160602D01*
X99200747Y-79899990D01*
X92945365Y-79899990D01*
X92929824Y-79821863D01*
X92890249Y-79726319D01*
X92832794Y-79640332D01*
X92759668Y-79567206D01*
X92673681Y-79509751D01*
X92578137Y-79470176D01*
X92476708Y-79450000D01*
X92373292Y-79450000D01*
X92271863Y-79470176D01*
X92176319Y-79509751D01*
X92090332Y-79567206D01*
X92017206Y-79640332D01*
X91959751Y-79726319D01*
X91920176Y-79821863D01*
X91900000Y-79923292D01*
X91900000Y-79994551D01*
X91801712Y-79975000D01*
X91698296Y-79975000D01*
X91596867Y-79995176D01*
X91501323Y-80034751D01*
X91415336Y-80092206D01*
X91342210Y-80165332D01*
X91284755Y-80251319D01*
X91245180Y-80346863D01*
X91225004Y-80448292D01*
X90415766Y-80448292D01*
X90409680Y-80442206D01*
X90375859Y-80419608D01*
X90374478Y-80405581D01*
X90370671Y-80366926D01*
X90353516Y-80310376D01*
X90335755Y-80277147D01*
X90325659Y-80258258D01*
X90297562Y-80224022D01*
X90297561Y-80224021D01*
X90288170Y-80212578D01*
X90276727Y-80203187D01*
X90150013Y-80076474D01*
X90150013Y-78614396D01*
X90151319Y-78615269D01*
X90246863Y-78654844D01*
X90348292Y-78675020D01*
X90451708Y-78675020D01*
X90553137Y-78654844D01*
X90648681Y-78615269D01*
X90734668Y-78557814D01*
X90807794Y-78484688D01*
X90865249Y-78398701D01*
X90900007Y-78314786D01*
X90934762Y-78398692D01*
X90992217Y-78484679D01*
X91065343Y-78557805D01*
X91151330Y-78615260D01*
X91246874Y-78654835D01*
X91348303Y-78675011D01*
X91451719Y-78675011D01*
X91553148Y-78654835D01*
X91648692Y-78615260D01*
X91734679Y-78557805D01*
X91807805Y-78484679D01*
X91848256Y-78424140D01*
X91886387Y-78481207D01*
X91959513Y-78554333D01*
X92045500Y-78611788D01*
X92141044Y-78651363D01*
X92242473Y-78671539D01*
X92345889Y-78671539D01*
X92447318Y-78651363D01*
X92542862Y-78611788D01*
X92628849Y-78554333D01*
X92695366Y-78487817D01*
X92765343Y-78557794D01*
X92851330Y-78615249D01*
X92946874Y-78654824D01*
X93048303Y-78675000D01*
X93151719Y-78675000D01*
X93253148Y-78654824D01*
X93348692Y-78615249D01*
X93434679Y-78557794D01*
X93507805Y-78484668D01*
X93525008Y-78458922D01*
X93542217Y-78484676D01*
X93615343Y-78557802D01*
X93701330Y-78615257D01*
X93796874Y-78654832D01*
X93898303Y-78675008D01*
X94001719Y-78675008D01*
X94103148Y-78654832D01*
X94198692Y-78615257D01*
X94284679Y-78557802D01*
X94325021Y-78517461D01*
X94365354Y-78557794D01*
X94451341Y-78615249D01*
X94546885Y-78654824D01*
X94648314Y-78675000D01*
X94751730Y-78675000D01*
X94853159Y-78654824D01*
X94948703Y-78615249D01*
X95034690Y-78557794D01*
X95075029Y-78517456D01*
X95115367Y-78557794D01*
X95201354Y-78615249D01*
X95296898Y-78654824D01*
X95398327Y-78675000D01*
X95501743Y-78675000D01*
X95603172Y-78654824D01*
X95698716Y-78615249D01*
X95784703Y-78557794D01*
X95857829Y-78484668D01*
X95915284Y-78398681D01*
X95954859Y-78303137D01*
X95975035Y-78201708D01*
X95975035Y-78198292D01*
X97425000Y-78198292D01*
X97425000Y-78301708D01*
X97445176Y-78403137D01*
X97484751Y-78498681D01*
X97542206Y-78584668D01*
X97615332Y-78657794D01*
X97701319Y-78715249D01*
X97796863Y-78754824D01*
X97898292Y-78775000D01*
X98001708Y-78775000D01*
X98103137Y-78754824D01*
X98198681Y-78715249D01*
X98284668Y-78657794D01*
X98357794Y-78584668D01*
X98380959Y-78550000D01*
X98835277Y-78550000D01*
X98850000Y-78551450D01*
X98864723Y-78550000D01*
X98864733Y-78550000D01*
X98908810Y-78545659D01*
X98965360Y-78528504D01*
X99017477Y-78500647D01*
X99063158Y-78463158D01*
X99072553Y-78451710D01*
X99628244Y-77896020D01*
X101244051Y-77896020D01*
X101267216Y-77930688D01*
X101340342Y-78003814D01*
X101426329Y-78061269D01*
X101521873Y-78100844D01*
X101623302Y-78121020D01*
X101726718Y-78121020D01*
X101828147Y-78100844D01*
X101923691Y-78061269D01*
X102009678Y-78003814D01*
X102082804Y-77930688D01*
X102140259Y-77844701D01*
X102179834Y-77749157D01*
X102200010Y-77647728D01*
X102200010Y-77544312D01*
X102179834Y-77442883D01*
X102140259Y-77347339D01*
X102082804Y-77261352D01*
X102009678Y-77188226D01*
X101923691Y-77130771D01*
X101828147Y-77091196D01*
X101726718Y-77071020D01*
X101623302Y-77071020D01*
X101521873Y-77091196D01*
X101426329Y-77130771D01*
X101340342Y-77188226D01*
X101267216Y-77261352D01*
X101244051Y-77296020D01*
X99518702Y-77296020D01*
X99503979Y-77294570D01*
X99489256Y-77296020D01*
X99489247Y-77296020D01*
X99445170Y-77300361D01*
X99388620Y-77317516D01*
X99376654Y-77323912D01*
X99336502Y-77345373D01*
X99321699Y-77357522D01*
X99290822Y-77382862D01*
X99281431Y-77394305D01*
X98725737Y-77950000D01*
X98380959Y-77950000D01*
X98357794Y-77915332D01*
X98284668Y-77842206D01*
X98198681Y-77784751D01*
X98103137Y-77745176D01*
X98001708Y-77725000D01*
X97898292Y-77725000D01*
X97796863Y-77745176D01*
X97701319Y-77784751D01*
X97615332Y-77842206D01*
X97542206Y-77915332D01*
X97484751Y-78001319D01*
X97445176Y-78096863D01*
X97425000Y-78198292D01*
X95975035Y-78198292D01*
X95975035Y-78098292D01*
X95966901Y-78057398D01*
X95972584Y-78051715D01*
X95972588Y-78051710D01*
X96351725Y-77672574D01*
X96363168Y-77663183D01*
X96372559Y-77651740D01*
X96400657Y-77617503D01*
X96425235Y-77571519D01*
X96428514Y-77565385D01*
X96445669Y-77508835D01*
X96450010Y-77464758D01*
X96450010Y-77464746D01*
X96451460Y-77450026D01*
X96450010Y-77435306D01*
X96450010Y-76388292D01*
X98655000Y-76388292D01*
X98655000Y-76491708D01*
X98675176Y-76593137D01*
X98714751Y-76688681D01*
X98772206Y-76774668D01*
X98845332Y-76847794D01*
X98931319Y-76905249D01*
X99026863Y-76944824D01*
X99128292Y-76965000D01*
X99231708Y-76965000D01*
X99333137Y-76944824D01*
X99428681Y-76905249D01*
X99514668Y-76847794D01*
X99587794Y-76774668D01*
X99637687Y-76699998D01*
X100879041Y-76699998D01*
X100902206Y-76734666D01*
X100975332Y-76807792D01*
X101061319Y-76865247D01*
X101156863Y-76904822D01*
X101258292Y-76924998D01*
X101361708Y-76924998D01*
X101463137Y-76904822D01*
X101558681Y-76865247D01*
X101644668Y-76807792D01*
X101717794Y-76734666D01*
X101775249Y-76648679D01*
X101814824Y-76553135D01*
X101835000Y-76451706D01*
X101835000Y-76348290D01*
X101814824Y-76246861D01*
X101775249Y-76151317D01*
X101717794Y-76065330D01*
X101644668Y-75992204D01*
X101558681Y-75934749D01*
X101463137Y-75895174D01*
X101361708Y-75874998D01*
X101258292Y-75874998D01*
X101156863Y-75895174D01*
X101061319Y-75934749D01*
X100975332Y-75992204D01*
X100902206Y-76065330D01*
X100879041Y-76099998D01*
X99582460Y-76099998D01*
X99514668Y-76032206D01*
X99428681Y-75974751D01*
X99333137Y-75935176D01*
X99231708Y-75915000D01*
X99128292Y-75915000D01*
X99026863Y-75935176D01*
X98931319Y-75974751D01*
X98845332Y-76032206D01*
X98772206Y-76105332D01*
X98714751Y-76191319D01*
X98675176Y-76286863D01*
X98655000Y-76388292D01*
X96450010Y-76388292D01*
X96450010Y-75914732D01*
X96451460Y-75900009D01*
X96450010Y-75885286D01*
X96450010Y-75885277D01*
X96445669Y-75841200D01*
X96428514Y-75784650D01*
X96410602Y-75751138D01*
X96400657Y-75732532D01*
X96372559Y-75698295D01*
X96363168Y-75686852D01*
X96351726Y-75677462D01*
X95839999Y-75165736D01*
X95839999Y-74980279D01*
X96372449Y-74980279D01*
X96372449Y-75083695D01*
X96392625Y-75185124D01*
X96432200Y-75280668D01*
X96489655Y-75366655D01*
X96562781Y-75439781D01*
X96648768Y-75497236D01*
X96744312Y-75536811D01*
X96845741Y-75556987D01*
X96890115Y-75556987D01*
X96890115Y-75626689D01*
X96910291Y-75728118D01*
X96949866Y-75823662D01*
X97007321Y-75909649D01*
X97080447Y-75982775D01*
X97166434Y-76040230D01*
X97261978Y-76079805D01*
X97363407Y-76099981D01*
X97466823Y-76099981D01*
X97568252Y-76079805D01*
X97663796Y-76040230D01*
X97749783Y-75982775D01*
X97789288Y-75943270D01*
X97792206Y-75947636D01*
X97865332Y-76020762D01*
X97951319Y-76078217D01*
X98046863Y-76117792D01*
X98148292Y-76137968D01*
X98251708Y-76137968D01*
X98353137Y-76117792D01*
X98448681Y-76078217D01*
X98534668Y-76020762D01*
X98607794Y-75947636D01*
X98665249Y-75861649D01*
X98704824Y-75766105D01*
X98725000Y-75664676D01*
X98725000Y-75561260D01*
X98704824Y-75459831D01*
X98665249Y-75364287D01*
X98607794Y-75278300D01*
X98534668Y-75205174D01*
X98500000Y-75182009D01*
X98500000Y-74474263D01*
X98566663Y-74407600D01*
X98604262Y-74415079D01*
X98707678Y-74415079D01*
X98809107Y-74394903D01*
X98904651Y-74355328D01*
X98990638Y-74297873D01*
X99063764Y-74224747D01*
X99121219Y-74138760D01*
X99160794Y-74043216D01*
X99180970Y-73941787D01*
X99180970Y-73838371D01*
X99160794Y-73736942D01*
X99121219Y-73641398D01*
X99063764Y-73555411D01*
X98990638Y-73482285D01*
X98904651Y-73424830D01*
X98809107Y-73385255D01*
X98707678Y-73365079D01*
X98604262Y-73365079D01*
X98502833Y-73385255D01*
X98407289Y-73424830D01*
X98321302Y-73482285D01*
X98277080Y-73526508D01*
X98240667Y-73490095D01*
X98154680Y-73432640D01*
X98059136Y-73393065D01*
X97957707Y-73372889D01*
X97854291Y-73372889D01*
X97752862Y-73393065D01*
X97657318Y-73432640D01*
X97571331Y-73490095D01*
X97498205Y-73563221D01*
X97477294Y-73594516D01*
X97457794Y-73565332D01*
X97384668Y-73492206D01*
X97298681Y-73434751D01*
X97203137Y-73395176D01*
X97101708Y-73375000D01*
X96998292Y-73375000D01*
X96896863Y-73395176D01*
X96801319Y-73434751D01*
X96715332Y-73492206D01*
X96642206Y-73565332D01*
X96584751Y-73651319D01*
X96545176Y-73746863D01*
X96525000Y-73848292D01*
X96525000Y-73951708D01*
X96545176Y-74053137D01*
X96584751Y-74148681D01*
X96642206Y-74234668D01*
X96715332Y-74307794D01*
X96750000Y-74330959D01*
X96750001Y-74526031D01*
X96744312Y-74527163D01*
X96648768Y-74566738D01*
X96562781Y-74624193D01*
X96489655Y-74697319D01*
X96432200Y-74783306D01*
X96392625Y-74878850D01*
X96372449Y-74980279D01*
X95839999Y-74980279D01*
X95839999Y-73258381D01*
X98373338Y-70725044D01*
X99784497Y-70725044D01*
X99799220Y-70726494D01*
X99813943Y-70725044D01*
X99813953Y-70725044D01*
X99858030Y-70720703D01*
X99914580Y-70703548D01*
X99966697Y-70675691D01*
X100012378Y-70638202D01*
X100021773Y-70626754D01*
X101015009Y-69633518D01*
X101475000Y-69633518D01*
X101475000Y-69766482D01*
X101500940Y-69896890D01*
X101551823Y-70019732D01*
X101625693Y-70130287D01*
X101719713Y-70224307D01*
X101830268Y-70298177D01*
X101953110Y-70349060D01*
X102083518Y-70375000D01*
X102216482Y-70375000D01*
X102346890Y-70349060D01*
X102469732Y-70298177D01*
X102580287Y-70224307D01*
X102674307Y-70130287D01*
X102748177Y-70019732D01*
X102799060Y-69896890D01*
X102825000Y-69766482D01*
X102825000Y-69633518D01*
X102799060Y-69503110D01*
X102748177Y-69380268D01*
X102674307Y-69269713D01*
X102580287Y-69175693D01*
X102469732Y-69101823D01*
X102346890Y-69050940D01*
X102216482Y-69025000D01*
X102083518Y-69025000D01*
X101953110Y-69050940D01*
X101830268Y-69101823D01*
X101719713Y-69175693D01*
X101625693Y-69269713D01*
X101551823Y-69380268D01*
X101500940Y-69503110D01*
X101475000Y-69633518D01*
X101015009Y-69633518D01*
X101201715Y-69446813D01*
X101213158Y-69437422D01*
X101222549Y-69425979D01*
X101250647Y-69391742D01*
X101276129Y-69344067D01*
X101278504Y-69339624D01*
X101295659Y-69283074D01*
X101300000Y-69238997D01*
X101300000Y-69238988D01*
X101300846Y-69230393D01*
X101334668Y-69207794D01*
X101407794Y-69134668D01*
X101465249Y-69048681D01*
X101504824Y-68953137D01*
X101525000Y-68851708D01*
X101525000Y-68748292D01*
X101504824Y-68646863D01*
X101465249Y-68551319D01*
X101407794Y-68465332D01*
X101334668Y-68392206D01*
X101248681Y-68334751D01*
X101180968Y-68306704D01*
X95672553Y-62798290D01*
X95663158Y-62786842D01*
X95617477Y-62749353D01*
X95565360Y-62721496D01*
X95508810Y-62704341D01*
X95464733Y-62700000D01*
X95464723Y-62700000D01*
X95450000Y-62698550D01*
X95435277Y-62700000D01*
X82777702Y-62700000D01*
X82762979Y-62698550D01*
X82748256Y-62700000D01*
X82748246Y-62700000D01*
X82704169Y-62704341D01*
X82647619Y-62721496D01*
X82625064Y-62733552D01*
X82595501Y-62749353D01*
X82561264Y-62777451D01*
X82549821Y-62786842D01*
X82540430Y-62798285D01*
X80750000Y-64588715D01*
X80750000Y-62436386D01*
X80763566Y-62433688D01*
X80959203Y-62352652D01*
X81135272Y-62235007D01*
X81285007Y-62085272D01*
X81402652Y-61909203D01*
X81483688Y-61713566D01*
X81525000Y-61505878D01*
X81525000Y-61294122D01*
X81915000Y-61294122D01*
X81915000Y-61505878D01*
X81956312Y-61713566D01*
X82037348Y-61909203D01*
X82154993Y-62085272D01*
X82304728Y-62235007D01*
X82480797Y-62352652D01*
X82676434Y-62433688D01*
X82884122Y-62475000D01*
X83095878Y-62475000D01*
X83303566Y-62433688D01*
X83499203Y-62352652D01*
X83675272Y-62235007D01*
X83825007Y-62085272D01*
X83942652Y-61909203D01*
X84023688Y-61713566D01*
X84065000Y-61505878D01*
X84065000Y-61294122D01*
X84455000Y-61294122D01*
X84455000Y-61505878D01*
X84496312Y-61713566D01*
X84577348Y-61909203D01*
X84694993Y-62085272D01*
X84844728Y-62235007D01*
X85020797Y-62352652D01*
X85216434Y-62433688D01*
X85424122Y-62475000D01*
X85635878Y-62475000D01*
X85843566Y-62433688D01*
X86039203Y-62352652D01*
X86215272Y-62235007D01*
X86365007Y-62085272D01*
X86482652Y-61909203D01*
X86563688Y-61713566D01*
X86605000Y-61505878D01*
X86605000Y-61294122D01*
X86995000Y-61294122D01*
X86995000Y-61505878D01*
X87036312Y-61713566D01*
X87117348Y-61909203D01*
X87234993Y-62085272D01*
X87384728Y-62235007D01*
X87560797Y-62352652D01*
X87756434Y-62433688D01*
X87964122Y-62475000D01*
X88175878Y-62475000D01*
X88383566Y-62433688D01*
X88579203Y-62352652D01*
X88755272Y-62235007D01*
X88905007Y-62085272D01*
X89022652Y-61909203D01*
X89103688Y-61713566D01*
X89145000Y-61505878D01*
X89145000Y-61294122D01*
X89535000Y-61294122D01*
X89535000Y-61505878D01*
X89576312Y-61713566D01*
X89657348Y-61909203D01*
X89774993Y-62085272D01*
X89924728Y-62235007D01*
X90100797Y-62352652D01*
X90296434Y-62433688D01*
X90504122Y-62475000D01*
X90715878Y-62475000D01*
X90923566Y-62433688D01*
X91119203Y-62352652D01*
X91295272Y-62235007D01*
X91445007Y-62085272D01*
X91562652Y-61909203D01*
X91643688Y-61713566D01*
X91685000Y-61505878D01*
X91685000Y-61294122D01*
X92075000Y-61294122D01*
X92075000Y-61505878D01*
X92116312Y-61713566D01*
X92197348Y-61909203D01*
X92314993Y-62085272D01*
X92464728Y-62235007D01*
X92640797Y-62352652D01*
X92836434Y-62433688D01*
X93044122Y-62475000D01*
X93255878Y-62475000D01*
X93463566Y-62433688D01*
X93659203Y-62352652D01*
X93835272Y-62235007D01*
X93985007Y-62085272D01*
X94102652Y-61909203D01*
X94183688Y-61713566D01*
X94225000Y-61505878D01*
X94225000Y-61294122D01*
X94615000Y-61294122D01*
X94615000Y-61505878D01*
X94656312Y-61713566D01*
X94737348Y-61909203D01*
X94854993Y-62085272D01*
X95004728Y-62235007D01*
X95180797Y-62352652D01*
X95376434Y-62433688D01*
X95584122Y-62475000D01*
X95795878Y-62475000D01*
X96003566Y-62433688D01*
X96199203Y-62352652D01*
X96375272Y-62235007D01*
X96518008Y-62092271D01*
X98327460Y-63901724D01*
X98336852Y-63913168D01*
X98348295Y-63922559D01*
X98382532Y-63950657D01*
X98410389Y-63965546D01*
X98434650Y-63978514D01*
X98491200Y-63995669D01*
X98535277Y-64000010D01*
X98535286Y-64000010D01*
X98550009Y-64001460D01*
X98564732Y-64000010D01*
X102097191Y-64000010D01*
X103599981Y-65502801D01*
X103599980Y-78698752D01*
X102730659Y-79568074D01*
X102719217Y-79577464D01*
X102709826Y-79588907D01*
X102709825Y-79588908D01*
X102681727Y-79623145D01*
X102653871Y-79675262D01*
X102636716Y-79731812D01*
X102630924Y-79790622D01*
X102632375Y-79805354D01*
X102632375Y-79859263D01*
X102597706Y-79882428D01*
X102524580Y-79955554D01*
X102467125Y-80041541D01*
X102427550Y-80137085D01*
X102407374Y-80238514D01*
X102407374Y-80341930D01*
X102427550Y-80443359D01*
X102467125Y-80538903D01*
X102524580Y-80624890D01*
X102597706Y-80698016D01*
X102683693Y-80755471D01*
X102779237Y-80795046D01*
X102880666Y-80815222D01*
X102984082Y-80815222D01*
X103085511Y-80795046D01*
X103181055Y-80755471D01*
X103267042Y-80698016D01*
X103340168Y-80624890D01*
X103397623Y-80538903D01*
X103437198Y-80443359D01*
X103457374Y-80341930D01*
X103457374Y-80267758D01*
X103546861Y-80304824D01*
X103648290Y-80325000D01*
X103751706Y-80325000D01*
X103853135Y-80304824D01*
X103948679Y-80265249D01*
X103975145Y-80247565D01*
X103975000Y-80248292D01*
X103975000Y-80351708D01*
X103995176Y-80453137D01*
X104034751Y-80548681D01*
X104092206Y-80634668D01*
X104165332Y-80707794D01*
X104251319Y-80765249D01*
X104346863Y-80804824D01*
X104448292Y-80825000D01*
X104551708Y-80825000D01*
X104653137Y-80804824D01*
X104748681Y-80765249D01*
X104834668Y-80707794D01*
X104907794Y-80634668D01*
X104965249Y-80548681D01*
X105004824Y-80453137D01*
X105025000Y-80351708D01*
X105025000Y-80248292D01*
X105024855Y-80247564D01*
X105051323Y-80265249D01*
X105146867Y-80304824D01*
X105248296Y-80325000D01*
X105351712Y-80325000D01*
X105453141Y-80304824D01*
X105548685Y-80265249D01*
X105634672Y-80207794D01*
X105707798Y-80134668D01*
X105765253Y-80048681D01*
X105804828Y-79953137D01*
X105825004Y-79851708D01*
X105825004Y-79748292D01*
X105804828Y-79646863D01*
X105765253Y-79551319D01*
X105707798Y-79465332D01*
X105634672Y-79392206D01*
X105548685Y-79334751D01*
X105453141Y-79295176D01*
X105351712Y-79275000D01*
X105248296Y-79275000D01*
X105207402Y-79283135D01*
X105100010Y-79175743D01*
X105100010Y-64964732D01*
X105101460Y-64950009D01*
X105100010Y-64935286D01*
X105100010Y-64935277D01*
X105095669Y-64891200D01*
X105078514Y-64834650D01*
X105062355Y-64804418D01*
X105050657Y-64782532D01*
X105022559Y-64748295D01*
X105013168Y-64736852D01*
X105001725Y-64727461D01*
X103610000Y-63335737D01*
X103610000Y-62436386D01*
X103623566Y-62433688D01*
X103819203Y-62352652D01*
X103995272Y-62235007D01*
X104145007Y-62085272D01*
X104262652Y-61909203D01*
X104343688Y-61713566D01*
X104371627Y-61573104D01*
X104789028Y-61573104D01*
X104843185Y-61776763D01*
X104936033Y-61965943D01*
X105064005Y-62133375D01*
X105222182Y-62272623D01*
X105404486Y-62378337D01*
X105603911Y-62446454D01*
X105676896Y-62460971D01*
X105845000Y-62418738D01*
X105845000Y-61405000D01*
X105855000Y-61405000D01*
X105855000Y-62418738D01*
X106023104Y-62460971D01*
X106096089Y-62446454D01*
X106295514Y-62378337D01*
X106477818Y-62272623D01*
X106635995Y-62133375D01*
X106763967Y-61965943D01*
X106856815Y-61776763D01*
X106910972Y-61573104D01*
X106868739Y-61405000D01*
X105855000Y-61405000D01*
X105845000Y-61405000D01*
X104831261Y-61405000D01*
X104789028Y-61573104D01*
X104371627Y-61573104D01*
X104385000Y-61505878D01*
X104385000Y-61294122D01*
X104371628Y-61226896D01*
X104789028Y-61226896D01*
X104831261Y-61395000D01*
X105845000Y-61395000D01*
X105845000Y-60381262D01*
X105855000Y-60381262D01*
X105855000Y-61395000D01*
X106868739Y-61395000D01*
X106910972Y-61226896D01*
X106856815Y-61023237D01*
X106763967Y-60834057D01*
X106635995Y-60666625D01*
X106477818Y-60527377D01*
X106295514Y-60421663D01*
X106096089Y-60353546D01*
X106023104Y-60339029D01*
X105855000Y-60381262D01*
X105845000Y-60381262D01*
X105676896Y-60339029D01*
X105603911Y-60353546D01*
X105404486Y-60421663D01*
X105222182Y-60527377D01*
X105064005Y-60666625D01*
X104936033Y-60834057D01*
X104843185Y-61023237D01*
X104789028Y-61226896D01*
X104371628Y-61226896D01*
X104343688Y-61086434D01*
X104262652Y-60890797D01*
X104145007Y-60714728D01*
X103995272Y-60564993D01*
X103819203Y-60447348D01*
X103623566Y-60366312D01*
X103415878Y-60325000D01*
X103204122Y-60325000D01*
X102996434Y-60366312D01*
X102800797Y-60447348D01*
X102624728Y-60564993D01*
X102474993Y-60714728D01*
X102357348Y-60890797D01*
X102276312Y-61086434D01*
X102235000Y-61294122D01*
X102235000Y-61505878D01*
X102276312Y-61713566D01*
X102357348Y-61909203D01*
X102474993Y-62085272D01*
X102624728Y-62235007D01*
X102800797Y-62352652D01*
X102996434Y-62433688D01*
X103010000Y-62436387D01*
X103010000Y-63215737D01*
X101714967Y-61920704D01*
X101722652Y-61909203D01*
X101803688Y-61713566D01*
X101845000Y-61505878D01*
X101845000Y-61294122D01*
X101803688Y-61086434D01*
X101722652Y-60890797D01*
X101605007Y-60714728D01*
X101455272Y-60564993D01*
X101279203Y-60447348D01*
X101083566Y-60366312D01*
X100875878Y-60325000D01*
X100664122Y-60325000D01*
X100456434Y-60366312D01*
X100260797Y-60447348D01*
X100084728Y-60564993D01*
X99934993Y-60714728D01*
X99817348Y-60890797D01*
X99736312Y-61086434D01*
X99695000Y-61294122D01*
X99695000Y-61505878D01*
X99736312Y-61713566D01*
X99817348Y-61909203D01*
X99934993Y-62085272D01*
X100084728Y-62235007D01*
X100260797Y-62352652D01*
X100456434Y-62433688D01*
X100664122Y-62475000D01*
X100875878Y-62475000D01*
X101083566Y-62433688D01*
X101279203Y-62352652D01*
X101290704Y-62344967D01*
X102045737Y-63100000D01*
X100724264Y-63100000D01*
X99275989Y-61651726D01*
X99305000Y-61505878D01*
X99305000Y-61294122D01*
X99263688Y-61086434D01*
X99182652Y-60890797D01*
X99065007Y-60714728D01*
X98915272Y-60564993D01*
X98739203Y-60447348D01*
X98543566Y-60366312D01*
X98335878Y-60325000D01*
X98124122Y-60325000D01*
X97916434Y-60366312D01*
X97720797Y-60447348D01*
X97544728Y-60564993D01*
X97394993Y-60714728D01*
X97277348Y-60890797D01*
X97196312Y-61086434D01*
X97155000Y-61294122D01*
X97155000Y-61505878D01*
X97196312Y-61713566D01*
X97277348Y-61909203D01*
X97394993Y-62085272D01*
X97544728Y-62235007D01*
X97720797Y-62352652D01*
X97916434Y-62433688D01*
X98124122Y-62475000D01*
X98335878Y-62475000D01*
X98543566Y-62433688D01*
X98739203Y-62352652D01*
X98915272Y-62235007D01*
X98963008Y-62187271D01*
X100175746Y-63400010D01*
X98674274Y-63400010D01*
X96765000Y-61490737D01*
X96765000Y-61294122D01*
X96723688Y-61086434D01*
X96642652Y-60890797D01*
X96525007Y-60714728D01*
X96375272Y-60564993D01*
X96199203Y-60447348D01*
X96003566Y-60366312D01*
X95795878Y-60325000D01*
X95584122Y-60325000D01*
X95376434Y-60366312D01*
X95180797Y-60447348D01*
X95004728Y-60564993D01*
X94854993Y-60714728D01*
X94737348Y-60890797D01*
X94656312Y-61086434D01*
X94615000Y-61294122D01*
X94225000Y-61294122D01*
X94183688Y-61086434D01*
X94102652Y-60890797D01*
X93985007Y-60714728D01*
X93835272Y-60564993D01*
X93659203Y-60447348D01*
X93463566Y-60366312D01*
X93255878Y-60325000D01*
X93044122Y-60325000D01*
X92836434Y-60366312D01*
X92640797Y-60447348D01*
X92464728Y-60564993D01*
X92314993Y-60714728D01*
X92197348Y-60890797D01*
X92116312Y-61086434D01*
X92075000Y-61294122D01*
X91685000Y-61294122D01*
X91643688Y-61086434D01*
X91562652Y-60890797D01*
X91445007Y-60714728D01*
X91295272Y-60564993D01*
X91119203Y-60447348D01*
X90923566Y-60366312D01*
X90715878Y-60325000D01*
X90504122Y-60325000D01*
X90296434Y-60366312D01*
X90100797Y-60447348D01*
X89924728Y-60564993D01*
X89774993Y-60714728D01*
X89657348Y-60890797D01*
X89576312Y-61086434D01*
X89535000Y-61294122D01*
X89145000Y-61294122D01*
X89103688Y-61086434D01*
X89022652Y-60890797D01*
X88905007Y-60714728D01*
X88755272Y-60564993D01*
X88579203Y-60447348D01*
X88383566Y-60366312D01*
X88175878Y-60325000D01*
X87964122Y-60325000D01*
X87756434Y-60366312D01*
X87560797Y-60447348D01*
X87384728Y-60564993D01*
X87234993Y-60714728D01*
X87117348Y-60890797D01*
X87036312Y-61086434D01*
X86995000Y-61294122D01*
X86605000Y-61294122D01*
X86563688Y-61086434D01*
X86482652Y-60890797D01*
X86365007Y-60714728D01*
X86215272Y-60564993D01*
X86039203Y-60447348D01*
X85843566Y-60366312D01*
X85635878Y-60325000D01*
X85424122Y-60325000D01*
X85216434Y-60366312D01*
X85020797Y-60447348D01*
X84844728Y-60564993D01*
X84694993Y-60714728D01*
X84577348Y-60890797D01*
X84496312Y-61086434D01*
X84455000Y-61294122D01*
X84065000Y-61294122D01*
X84023688Y-61086434D01*
X83942652Y-60890797D01*
X83825007Y-60714728D01*
X83675272Y-60564993D01*
X83499203Y-60447348D01*
X83303566Y-60366312D01*
X83095878Y-60325000D01*
X82884122Y-60325000D01*
X82676434Y-60366312D01*
X82480797Y-60447348D01*
X82304728Y-60564993D01*
X82154993Y-60714728D01*
X82037348Y-60890797D01*
X81956312Y-61086434D01*
X81915000Y-61294122D01*
X81525000Y-61294122D01*
X81483688Y-61086434D01*
X81402652Y-60890797D01*
X81285007Y-60714728D01*
X81135272Y-60564993D01*
X80959203Y-60447348D01*
X80763566Y-60366312D01*
X80555878Y-60325000D01*
X80344122Y-60325000D01*
X80136434Y-60366312D01*
X79940797Y-60447348D01*
X79764728Y-60564993D01*
X79614993Y-60714728D01*
X79497348Y-60890797D01*
X79416312Y-61086434D01*
X79375000Y-61294122D01*
X79375000Y-61505878D01*
X79416312Y-61713566D01*
X79497348Y-61909203D01*
X79614993Y-62085272D01*
X79764728Y-62235007D01*
X79940797Y-62352652D01*
X80136434Y-62433688D01*
X80150000Y-62436387D01*
X80150001Y-64750735D01*
X79059999Y-65840737D01*
X79059999Y-62264721D01*
X79061449Y-62249998D01*
X79059999Y-62235275D01*
X79059999Y-62235266D01*
X79055658Y-62191189D01*
X79038503Y-62134639D01*
X79010647Y-62082523D01*
X79010646Y-62082521D01*
X78982548Y-62048284D01*
X78973157Y-62036841D01*
X78961715Y-62027451D01*
X78854968Y-61920704D01*
X78862652Y-61909203D01*
X78943688Y-61713566D01*
X78985000Y-61505878D01*
X78985000Y-61294122D01*
X78943688Y-61086434D01*
X78862652Y-60890797D01*
X78745007Y-60714728D01*
X78595272Y-60564993D01*
X78419203Y-60447348D01*
X78223566Y-60366312D01*
X78015878Y-60325000D01*
X77804122Y-60325000D01*
X77596434Y-60366312D01*
X77400797Y-60447348D01*
X77224728Y-60564993D01*
X77074993Y-60714728D01*
X76957348Y-60890797D01*
X76876312Y-61086434D01*
X76835000Y-61294122D01*
X76835000Y-61505878D01*
X76876312Y-61713566D01*
X76957348Y-61909203D01*
X77074993Y-62085272D01*
X77224728Y-62235007D01*
X77400797Y-62352652D01*
X77596434Y-62433688D01*
X77804122Y-62475000D01*
X78015878Y-62475000D01*
X78223566Y-62433688D01*
X78419203Y-62352652D01*
X78430704Y-62344968D01*
X78459999Y-62374263D01*
X78460000Y-65990736D01*
X75175737Y-69275000D01*
X74489722Y-69275000D01*
X74474999Y-69273550D01*
X74460276Y-69275000D01*
X74460267Y-69275000D01*
X74416190Y-69279341D01*
X74359640Y-69296496D01*
X74344035Y-69304837D01*
X74307522Y-69324353D01*
X74283501Y-69344067D01*
X74261842Y-69361842D01*
X74252451Y-69373285D01*
X74042375Y-69583362D01*
X74000167Y-69574966D01*
X73896751Y-69574966D01*
X73795322Y-69595142D01*
X73699778Y-69634717D01*
X73613791Y-69692172D01*
X73540665Y-69765298D01*
X73483210Y-69851285D01*
X73443635Y-69946829D01*
X73423459Y-70048258D01*
X73423459Y-70151674D01*
X73435259Y-70210995D01*
X73316865Y-70092602D01*
X73325000Y-70051708D01*
X73325000Y-69948292D01*
X73304824Y-69846863D01*
X73265249Y-69751319D01*
X73207794Y-69665332D01*
X73134668Y-69592206D01*
X73048681Y-69534751D01*
X72953137Y-69495176D01*
X72851708Y-69475000D01*
X72748292Y-69475000D01*
X72646863Y-69495176D01*
X72551319Y-69534751D01*
X72465332Y-69592206D01*
X72392206Y-69665332D01*
X72334751Y-69751319D01*
X72295176Y-69846863D01*
X72275000Y-69948292D01*
X72275000Y-69991031D01*
X72174245Y-69991031D01*
X72149990Y-69995856D01*
X72149990Y-69952039D01*
X72129814Y-69850610D01*
X72090239Y-69755066D01*
X72032784Y-69669079D01*
X71959658Y-69595953D01*
X71873671Y-69538498D01*
X71778127Y-69498923D01*
X71676698Y-69478747D01*
X71573282Y-69478747D01*
X71471853Y-69498923D01*
X71376309Y-69538498D01*
X71290322Y-69595953D01*
X71217196Y-69669079D01*
X71159741Y-69755066D01*
X71120166Y-69850610D01*
X71099990Y-69952039D01*
X71099990Y-70055455D01*
X71120166Y-70156884D01*
X71159741Y-70252428D01*
X71217196Y-70338415D01*
X71290322Y-70411541D01*
X71324991Y-70434706D01*
X71324991Y-70660257D01*
X71323540Y-70674990D01*
X71329332Y-70733800D01*
X71346487Y-70790350D01*
X71374343Y-70842467D01*
X71401583Y-70875658D01*
X71411833Y-70888148D01*
X71423275Y-70897538D01*
X71952484Y-71426748D01*
X71961875Y-71438191D01*
X71973318Y-71447582D01*
X72007555Y-71475680D01*
X72024139Y-71484544D01*
X72059673Y-71503537D01*
X72116223Y-71520692D01*
X72160300Y-71525033D01*
X72160309Y-71525033D01*
X72175032Y-71526483D01*
X72189755Y-71525033D01*
X75086520Y-71525033D01*
X74411666Y-72199887D01*
X71774151Y-72199887D01*
X70172553Y-70598290D01*
X70163158Y-70586842D01*
X70117477Y-70549353D01*
X70065360Y-70521496D01*
X70008810Y-70504341D01*
X69964733Y-70500000D01*
X69964723Y-70500000D01*
X69950000Y-70498550D01*
X69935277Y-70500000D01*
X69580959Y-70500000D01*
X69557794Y-70465332D01*
X69484668Y-70392206D01*
X69398681Y-70334751D01*
X69303137Y-70295176D01*
X69201708Y-70275000D01*
X69098292Y-70275000D01*
X68996863Y-70295176D01*
X68901319Y-70334751D01*
X68815332Y-70392206D01*
X68742206Y-70465332D01*
X68684751Y-70551319D01*
X68645176Y-70646863D01*
X68625000Y-70748292D01*
X60225500Y-70748292D01*
X60225500Y-68433995D01*
X60285954Y-68433995D01*
X60289876Y-68456044D01*
X60335885Y-68611093D01*
X60411259Y-68754187D01*
X60513101Y-68879827D01*
X60637497Y-68983184D01*
X60779667Y-69060287D01*
X60934147Y-69108172D01*
X61095000Y-69125000D01*
X61445000Y-69125000D01*
X61445000Y-68305000D01*
X61455000Y-68305000D01*
X61455000Y-69125000D01*
X61805000Y-69125000D01*
X61965853Y-69108172D01*
X62120333Y-69060287D01*
X62262503Y-68983184D01*
X62386899Y-68879827D01*
X62488741Y-68754187D01*
X62564115Y-68611093D01*
X62610124Y-68456044D01*
X62614046Y-68433995D01*
X62568734Y-68305000D01*
X61455000Y-68305000D01*
X61445000Y-68305000D01*
X60331266Y-68305000D01*
X60285954Y-68433995D01*
X60225500Y-68433995D01*
X60225500Y-68166005D01*
X60285954Y-68166005D01*
X60331266Y-68295000D01*
X61445000Y-68295000D01*
X61445000Y-67475000D01*
X61455000Y-67475000D01*
X61455000Y-68295000D01*
X62568734Y-68295000D01*
X62614046Y-68166005D01*
X62610124Y-68143956D01*
X62564115Y-67988907D01*
X62537697Y-67938753D01*
X63518318Y-67938753D01*
X63592955Y-68075213D01*
X63754894Y-68168992D01*
X63932018Y-68229375D01*
X64117518Y-68254044D01*
X64304267Y-68242049D01*
X64485088Y-68193852D01*
X64653032Y-68111305D01*
X64707045Y-68075213D01*
X64781682Y-67938753D01*
X64150000Y-67307071D01*
X63518318Y-67938753D01*
X62537697Y-67938753D01*
X62488741Y-67845813D01*
X62386899Y-67720173D01*
X62262503Y-67616816D01*
X62120333Y-67539713D01*
X61965853Y-67491828D01*
X61805000Y-67475000D01*
X61455000Y-67475000D01*
X61445000Y-67475000D01*
X61095000Y-67475000D01*
X60934147Y-67491828D01*
X60779667Y-67539713D01*
X60637497Y-67616816D01*
X60513101Y-67720173D01*
X60411259Y-67845813D01*
X60335885Y-67988907D01*
X60289876Y-68143956D01*
X60285954Y-68166005D01*
X60225500Y-68166005D01*
X60225500Y-67267518D01*
X63195956Y-67267518D01*
X63207951Y-67454267D01*
X63256148Y-67635088D01*
X63338695Y-67803032D01*
X63374787Y-67857045D01*
X63511247Y-67931682D01*
X64142929Y-67300000D01*
X64157071Y-67300000D01*
X64788753Y-67931682D01*
X64925213Y-67857045D01*
X65018992Y-67695106D01*
X65079375Y-67517982D01*
X65104044Y-67332482D01*
X65092049Y-67145733D01*
X65043852Y-66964912D01*
X64961305Y-66796968D01*
X64925213Y-66742955D01*
X64788753Y-66668318D01*
X64157071Y-67300000D01*
X64142929Y-67300000D01*
X63511247Y-66668318D01*
X63374787Y-66742955D01*
X63281008Y-66904894D01*
X63220625Y-67082018D01*
X63195956Y-67267518D01*
X60225500Y-67267518D01*
X60225500Y-66661247D01*
X63518318Y-66661247D01*
X64150000Y-67292929D01*
X64781682Y-66661247D01*
X64707045Y-66524787D01*
X64545106Y-66431008D01*
X64367982Y-66370625D01*
X64182482Y-66345956D01*
X63995733Y-66357951D01*
X63814912Y-66406148D01*
X63646968Y-66488695D01*
X63592955Y-66524787D01*
X63518318Y-66661247D01*
X60225500Y-66661247D01*
X60225500Y-65223303D01*
X65155011Y-65223303D01*
X65155011Y-65326719D01*
X65175187Y-65428148D01*
X65214762Y-65523692D01*
X65272217Y-65609679D01*
X65345343Y-65682805D01*
X65400000Y-65719326D01*
X65400001Y-67019044D01*
X65365336Y-67042206D01*
X65292210Y-67115332D01*
X65234755Y-67201319D01*
X65195180Y-67296863D01*
X65175004Y-67398292D01*
X65175004Y-67501708D01*
X65195180Y-67603137D01*
X65234755Y-67698681D01*
X65292210Y-67784668D01*
X65365336Y-67857794D01*
X65451323Y-67915249D01*
X65546867Y-67954824D01*
X65648296Y-67975000D01*
X65751712Y-67975000D01*
X65853141Y-67954824D01*
X65948685Y-67915249D01*
X66034672Y-67857794D01*
X66107798Y-67784668D01*
X66165253Y-67698681D01*
X66204828Y-67603137D01*
X66225004Y-67501708D01*
X66225004Y-67398292D01*
X66211275Y-67329272D01*
X66234637Y-67338949D01*
X66336066Y-67359125D01*
X66439482Y-67359125D01*
X66540911Y-67338949D01*
X66636455Y-67299374D01*
X66722442Y-67241919D01*
X66795568Y-67168793D01*
X66853023Y-67082806D01*
X66892598Y-66987262D01*
X66912774Y-66885833D01*
X66912774Y-66782417D01*
X66892598Y-66680988D01*
X66853023Y-66585444D01*
X66795568Y-66499457D01*
X66722442Y-66426331D01*
X66636455Y-66368876D01*
X66564998Y-66339278D01*
X66564998Y-66028594D01*
X72575000Y-66028594D01*
X72575000Y-66171406D01*
X72602861Y-66311475D01*
X72657513Y-66443416D01*
X72736856Y-66562161D01*
X72837839Y-66663144D01*
X72956584Y-66742487D01*
X73088525Y-66797139D01*
X73102908Y-66800000D01*
X73088525Y-66802861D01*
X72956584Y-66857513D01*
X72837839Y-66936856D01*
X72736856Y-67037839D01*
X72657513Y-67156584D01*
X72602861Y-67288525D01*
X72575000Y-67428594D01*
X72575000Y-67571406D01*
X72602861Y-67711475D01*
X72657513Y-67843416D01*
X72736856Y-67962161D01*
X72837839Y-68063144D01*
X72956584Y-68142487D01*
X73088525Y-68197139D01*
X73228594Y-68225000D01*
X73371406Y-68225000D01*
X73511475Y-68197139D01*
X73643416Y-68142487D01*
X73762161Y-68063144D01*
X73863144Y-67962161D01*
X73942487Y-67843416D01*
X73997139Y-67711475D01*
X74025000Y-67571406D01*
X74025000Y-67428594D01*
X73997139Y-67288525D01*
X73942487Y-67156584D01*
X73863144Y-67037839D01*
X73762161Y-66936856D01*
X73643416Y-66857513D01*
X73511475Y-66802861D01*
X73497092Y-66800000D01*
X73511475Y-66797139D01*
X73643416Y-66742487D01*
X73762161Y-66663144D01*
X73863144Y-66562161D01*
X73942487Y-66443416D01*
X73997139Y-66311475D01*
X74025000Y-66171406D01*
X74025000Y-66028594D01*
X74575000Y-66028594D01*
X74575000Y-66171406D01*
X74602861Y-66311475D01*
X74657513Y-66443416D01*
X74736856Y-66562161D01*
X74837839Y-66663144D01*
X74956584Y-66742487D01*
X75088525Y-66797139D01*
X75102908Y-66800000D01*
X75088525Y-66802861D01*
X74956584Y-66857513D01*
X74837839Y-66936856D01*
X74736856Y-67037839D01*
X74657513Y-67156584D01*
X74602861Y-67288525D01*
X74575000Y-67428594D01*
X74575000Y-67571406D01*
X74602861Y-67711475D01*
X74657513Y-67843416D01*
X74736856Y-67962161D01*
X74837839Y-68063144D01*
X74956584Y-68142487D01*
X75088525Y-68197139D01*
X75228594Y-68225000D01*
X75371406Y-68225000D01*
X75511475Y-68197139D01*
X75643416Y-68142487D01*
X75762161Y-68063144D01*
X75863144Y-67962161D01*
X75942487Y-67843416D01*
X75997139Y-67711475D01*
X76025000Y-67571406D01*
X76025000Y-67428594D01*
X75997139Y-67288525D01*
X75942487Y-67156584D01*
X75863144Y-67037839D01*
X75762161Y-66936856D01*
X75643416Y-66857513D01*
X75511475Y-66802861D01*
X75497092Y-66800000D01*
X75511475Y-66797139D01*
X75643416Y-66742487D01*
X75762161Y-66663144D01*
X75863144Y-66562161D01*
X75942487Y-66443416D01*
X75997139Y-66311475D01*
X76025000Y-66171406D01*
X76025000Y-66028594D01*
X75997139Y-65888525D01*
X75942487Y-65756584D01*
X75863144Y-65637839D01*
X75762161Y-65536856D01*
X75643416Y-65457513D01*
X75511475Y-65402861D01*
X75371406Y-65375000D01*
X75228594Y-65375000D01*
X75088525Y-65402861D01*
X74956584Y-65457513D01*
X74837839Y-65536856D01*
X74736856Y-65637839D01*
X74657513Y-65756584D01*
X74602861Y-65888525D01*
X74575000Y-66028594D01*
X74025000Y-66028594D01*
X73997139Y-65888525D01*
X73942487Y-65756584D01*
X73863144Y-65637839D01*
X73762161Y-65536856D01*
X73643416Y-65457513D01*
X73511475Y-65402861D01*
X73371406Y-65375000D01*
X73228594Y-65375000D01*
X73088525Y-65402861D01*
X72956584Y-65457513D01*
X72837839Y-65536856D01*
X72736856Y-65637839D01*
X72657513Y-65756584D01*
X72602861Y-65888525D01*
X72575000Y-66028594D01*
X66564998Y-66028594D01*
X66564998Y-64880959D01*
X66599666Y-64857794D01*
X66672792Y-64784668D01*
X66730247Y-64698681D01*
X66769822Y-64603137D01*
X66789998Y-64501708D01*
X66789998Y-64398292D01*
X66769822Y-64296863D01*
X66730247Y-64201319D01*
X66672792Y-64115332D01*
X66599666Y-64042206D01*
X66513679Y-63984751D01*
X66418135Y-63945176D01*
X66316706Y-63925000D01*
X66213290Y-63925000D01*
X66111861Y-63945176D01*
X66016317Y-63984751D01*
X65930330Y-64042206D01*
X65857204Y-64115332D01*
X65799749Y-64201319D01*
X65760174Y-64296863D01*
X65739998Y-64398292D01*
X65739998Y-64501708D01*
X65760174Y-64603137D01*
X65799749Y-64698681D01*
X65853031Y-64778423D01*
X65833148Y-64770187D01*
X65731719Y-64750011D01*
X65628303Y-64750011D01*
X65526874Y-64770187D01*
X65431330Y-64809762D01*
X65345343Y-64867217D01*
X65272217Y-64940343D01*
X65214762Y-65026330D01*
X65175187Y-65121874D01*
X65155011Y-65223303D01*
X60225500Y-65223303D01*
X60225500Y-62938753D01*
X63518318Y-62938753D01*
X63592955Y-63075213D01*
X63754894Y-63168992D01*
X63932018Y-63229375D01*
X64117518Y-63254044D01*
X64304267Y-63242049D01*
X64485088Y-63193852D01*
X64653032Y-63111305D01*
X64707045Y-63075213D01*
X64776464Y-62948292D01*
X76225000Y-62948292D01*
X76225000Y-63051708D01*
X76245176Y-63153137D01*
X76284751Y-63248681D01*
X76342206Y-63334668D01*
X76375001Y-63367463D01*
X76375000Y-65882532D01*
X76342206Y-65915326D01*
X76284751Y-66001313D01*
X76245176Y-66096857D01*
X76225000Y-66198286D01*
X76225000Y-66301702D01*
X76245176Y-66403131D01*
X76284751Y-66498675D01*
X76342206Y-66584662D01*
X76415332Y-66657788D01*
X76501319Y-66715243D01*
X76596863Y-66754818D01*
X76698292Y-66774994D01*
X76801708Y-66774994D01*
X76903137Y-66754818D01*
X76998681Y-66715243D01*
X77084668Y-66657788D01*
X77157794Y-66584662D01*
X77215249Y-66498675D01*
X77254824Y-66403131D01*
X77275000Y-66301702D01*
X77275000Y-66198286D01*
X77254824Y-66096857D01*
X77215249Y-66001313D01*
X77157794Y-65915326D01*
X77125000Y-65882532D01*
X77125000Y-63367462D01*
X77157794Y-63334668D01*
X77215249Y-63248681D01*
X77254824Y-63153137D01*
X77275000Y-63051708D01*
X77275000Y-62948292D01*
X77254824Y-62846863D01*
X77215249Y-62751319D01*
X77157794Y-62665332D01*
X77084668Y-62592206D01*
X76998681Y-62534751D01*
X76903137Y-62495176D01*
X76801708Y-62475000D01*
X76698292Y-62475000D01*
X76596863Y-62495176D01*
X76501319Y-62534751D01*
X76415332Y-62592206D01*
X76342206Y-62665332D01*
X76284751Y-62751319D01*
X76245176Y-62846863D01*
X76225000Y-62948292D01*
X64776464Y-62948292D01*
X64781682Y-62938753D01*
X64150000Y-62307071D01*
X63518318Y-62938753D01*
X60225500Y-62938753D01*
X60225500Y-62267518D01*
X63195956Y-62267518D01*
X63207951Y-62454267D01*
X63256148Y-62635088D01*
X63338695Y-62803032D01*
X63374787Y-62857045D01*
X63511247Y-62931682D01*
X64142929Y-62300000D01*
X64157071Y-62300000D01*
X64788753Y-62931682D01*
X64925213Y-62857045D01*
X65018992Y-62695106D01*
X65079375Y-62517982D01*
X65104044Y-62332482D01*
X65092049Y-62145733D01*
X65043852Y-61964912D01*
X64961305Y-61796968D01*
X64925213Y-61742955D01*
X64788753Y-61668318D01*
X64157071Y-62300000D01*
X64142929Y-62300000D01*
X63511247Y-61668318D01*
X63374787Y-61742955D01*
X63281008Y-61904894D01*
X63220625Y-62082018D01*
X63195956Y-62267518D01*
X60225500Y-62267518D01*
X60225500Y-61300000D01*
X60271009Y-61300000D01*
X60286938Y-61461728D01*
X60334112Y-61617241D01*
X60410719Y-61760563D01*
X60513815Y-61886185D01*
X60639437Y-61989281D01*
X60782759Y-62065888D01*
X60938272Y-62113062D01*
X61059479Y-62125000D01*
X61840521Y-62125000D01*
X61961728Y-62113062D01*
X62117241Y-62065888D01*
X62260563Y-61989281D01*
X62386185Y-61886185D01*
X62489281Y-61760563D01*
X62542366Y-61661247D01*
X63518318Y-61661247D01*
X64150000Y-62292929D01*
X64781682Y-61661247D01*
X64707045Y-61524787D01*
X64545106Y-61431008D01*
X64367982Y-61370625D01*
X64182482Y-61345956D01*
X63995733Y-61357951D01*
X63814912Y-61406148D01*
X63646968Y-61488695D01*
X63592955Y-61524787D01*
X63518318Y-61661247D01*
X62542366Y-61661247D01*
X62565888Y-61617241D01*
X62613062Y-61461728D01*
X62628991Y-61300000D01*
X62613062Y-61138272D01*
X62565888Y-60982759D01*
X62489281Y-60839437D01*
X62386185Y-60713815D01*
X62260563Y-60610719D01*
X62146966Y-60550000D01*
X66673912Y-60550000D01*
X66673912Y-62250000D01*
X66678256Y-62294108D01*
X66691122Y-62336520D01*
X66712015Y-62375608D01*
X66740132Y-62409868D01*
X66774392Y-62437985D01*
X66813480Y-62458878D01*
X66855892Y-62471744D01*
X66900000Y-62476088D01*
X68600000Y-62476088D01*
X68644108Y-62471744D01*
X68686520Y-62458878D01*
X68725608Y-62437985D01*
X68759868Y-62409868D01*
X68787985Y-62375608D01*
X68808878Y-62336520D01*
X68821744Y-62294108D01*
X68826088Y-62250000D01*
X68826088Y-61294122D01*
X69215000Y-61294122D01*
X69215000Y-61505878D01*
X69256312Y-61713566D01*
X69337348Y-61909203D01*
X69454993Y-62085272D01*
X69604728Y-62235007D01*
X69780797Y-62352652D01*
X69976434Y-62433688D01*
X70184122Y-62475000D01*
X70395878Y-62475000D01*
X70603566Y-62433688D01*
X70799203Y-62352652D01*
X70975272Y-62235007D01*
X71125007Y-62085272D01*
X71242652Y-61909203D01*
X71323688Y-61713566D01*
X71365000Y-61505878D01*
X71365000Y-61294122D01*
X71755000Y-61294122D01*
X71755000Y-61505878D01*
X71796312Y-61713566D01*
X71877348Y-61909203D01*
X71994993Y-62085272D01*
X72144728Y-62235007D01*
X72320797Y-62352652D01*
X72516434Y-62433688D01*
X72724122Y-62475000D01*
X72935878Y-62475000D01*
X73143566Y-62433688D01*
X73339203Y-62352652D01*
X73515272Y-62235007D01*
X73665007Y-62085272D01*
X73782652Y-61909203D01*
X73863688Y-61713566D01*
X73891627Y-61573104D01*
X74309028Y-61573104D01*
X74363185Y-61776763D01*
X74456033Y-61965943D01*
X74584005Y-62133375D01*
X74742182Y-62272623D01*
X74924486Y-62378337D01*
X75123911Y-62446454D01*
X75196896Y-62460971D01*
X75365000Y-62418738D01*
X75365000Y-61405000D01*
X75375000Y-61405000D01*
X75375000Y-62418738D01*
X75543104Y-62460971D01*
X75616089Y-62446454D01*
X75815514Y-62378337D01*
X75997818Y-62272623D01*
X76155995Y-62133375D01*
X76283967Y-61965943D01*
X76376815Y-61776763D01*
X76430972Y-61573104D01*
X76388739Y-61405000D01*
X75375000Y-61405000D01*
X75365000Y-61405000D01*
X74351261Y-61405000D01*
X74309028Y-61573104D01*
X73891627Y-61573104D01*
X73905000Y-61505878D01*
X73905000Y-61294122D01*
X73891628Y-61226896D01*
X74309028Y-61226896D01*
X74351261Y-61395000D01*
X75365000Y-61395000D01*
X75365000Y-60381262D01*
X75375000Y-60381262D01*
X75375000Y-61395000D01*
X76388739Y-61395000D01*
X76430972Y-61226896D01*
X76376815Y-61023237D01*
X76283967Y-60834057D01*
X76155995Y-60666625D01*
X75997818Y-60527377D01*
X75815514Y-60421663D01*
X75616089Y-60353546D01*
X75543104Y-60339029D01*
X75375000Y-60381262D01*
X75365000Y-60381262D01*
X75196896Y-60339029D01*
X75123911Y-60353546D01*
X74924486Y-60421663D01*
X74742182Y-60527377D01*
X74584005Y-60666625D01*
X74456033Y-60834057D01*
X74363185Y-61023237D01*
X74309028Y-61226896D01*
X73891628Y-61226896D01*
X73863688Y-61086434D01*
X73782652Y-60890797D01*
X73665007Y-60714728D01*
X73515272Y-60564993D01*
X73339203Y-60447348D01*
X73143566Y-60366312D01*
X72935878Y-60325000D01*
X72724122Y-60325000D01*
X72516434Y-60366312D01*
X72320797Y-60447348D01*
X72144728Y-60564993D01*
X71994993Y-60714728D01*
X71877348Y-60890797D01*
X71796312Y-61086434D01*
X71755000Y-61294122D01*
X71365000Y-61294122D01*
X71323688Y-61086434D01*
X71242652Y-60890797D01*
X71125007Y-60714728D01*
X70975272Y-60564993D01*
X70799203Y-60447348D01*
X70603566Y-60366312D01*
X70395878Y-60325000D01*
X70184122Y-60325000D01*
X69976434Y-60366312D01*
X69780797Y-60447348D01*
X69604728Y-60564993D01*
X69454993Y-60714728D01*
X69337348Y-60890797D01*
X69256312Y-61086434D01*
X69215000Y-61294122D01*
X68826088Y-61294122D01*
X68826088Y-60550000D01*
X68821744Y-60505892D01*
X68808878Y-60463480D01*
X68787985Y-60424392D01*
X68759868Y-60390132D01*
X68725608Y-60362015D01*
X68686520Y-60341122D01*
X68644108Y-60328256D01*
X68600000Y-60323912D01*
X66900000Y-60323912D01*
X66855892Y-60328256D01*
X66813480Y-60341122D01*
X66774392Y-60362015D01*
X66740132Y-60390132D01*
X66712015Y-60424392D01*
X66691122Y-60463480D01*
X66678256Y-60505892D01*
X66673912Y-60550000D01*
X62146966Y-60550000D01*
X62117241Y-60534112D01*
X61961728Y-60486938D01*
X61840521Y-60475000D01*
X61059479Y-60475000D01*
X60938272Y-60486938D01*
X60782759Y-60534112D01*
X60639437Y-60610719D01*
X60513815Y-60713815D01*
X60410719Y-60839437D01*
X60334112Y-60982759D01*
X60286938Y-61138272D01*
X60271009Y-61300000D01*
X60225500Y-61300000D01*
X60225500Y-60225500D01*
X107774500Y-60225500D01*
X107774501Y-84770000D01*
G37*
X107774501Y-84770000D02*
X60225500Y-84770000D01*
X60225500Y-83374122D01*
X60425000Y-83374122D01*
X60425000Y-83585878D01*
X60466312Y-83793566D01*
X60547348Y-83989203D01*
X60664993Y-84165272D01*
X60814728Y-84315007D01*
X60990797Y-84432652D01*
X61186434Y-84513688D01*
X61394122Y-84555000D01*
X61605878Y-84555000D01*
X61813566Y-84513688D01*
X62009203Y-84432652D01*
X62185272Y-84315007D01*
X62335007Y-84165272D01*
X62452652Y-83989203D01*
X62533688Y-83793566D01*
X62575000Y-83585878D01*
X62575000Y-83548292D01*
X76600000Y-83548292D01*
X76600000Y-83651708D01*
X76620176Y-83753137D01*
X76659751Y-83848681D01*
X76717206Y-83934668D01*
X76790332Y-84007794D01*
X76876319Y-84065249D01*
X76971863Y-84104824D01*
X77073292Y-84125000D01*
X77176708Y-84125000D01*
X77278137Y-84104824D01*
X77373681Y-84065249D01*
X77459668Y-84007794D01*
X77492462Y-83975000D01*
X81881584Y-83975000D01*
X81900000Y-83976814D01*
X81918416Y-83975000D01*
X81918419Y-83975000D01*
X81973513Y-83969574D01*
X82044200Y-83948131D01*
X82109347Y-83913309D01*
X82166448Y-83866448D01*
X82178195Y-83852134D01*
X85727134Y-80303196D01*
X85741442Y-80291454D01*
X85788303Y-80234353D01*
X85823125Y-80169206D01*
X85844568Y-80098519D01*
X85849994Y-80043425D01*
X85849994Y-80043423D01*
X85851808Y-80025007D01*
X85849994Y-80006591D01*
X85849994Y-78098292D01*
X86175000Y-78098292D01*
X86175000Y-78201708D01*
X86195176Y-78303137D01*
X86234751Y-78398681D01*
X86292206Y-78484668D01*
X86365332Y-78557794D01*
X86451319Y-78615249D01*
X86546863Y-78654824D01*
X86648292Y-78675000D01*
X86674991Y-78675000D01*
X86674990Y-82322806D01*
X86640322Y-82345971D01*
X86567196Y-82419097D01*
X86509741Y-82505084D01*
X86470166Y-82600628D01*
X86449990Y-82702057D01*
X86449990Y-82805473D01*
X86470166Y-82906902D01*
X86509741Y-83002446D01*
X86567196Y-83088433D01*
X86640322Y-83161559D01*
X86726309Y-83219014D01*
X86821853Y-83258589D01*
X86923282Y-83278765D01*
X87026698Y-83278765D01*
X87128127Y-83258589D01*
X87223671Y-83219014D01*
X87309658Y-83161559D01*
X87382784Y-83088433D01*
X87440239Y-83002446D01*
X87479814Y-82906902D01*
X87499990Y-82805473D01*
X87499990Y-82702057D01*
X87479814Y-82600628D01*
X87440239Y-82505084D01*
X87382784Y-82419097D01*
X87309658Y-82345971D01*
X87274990Y-82322806D01*
X87274990Y-78439720D01*
X87276441Y-78424990D01*
X87274990Y-78410257D01*
X87270649Y-78366180D01*
X87253494Y-78309630D01*
X87250028Y-78303145D01*
X87225637Y-78257512D01*
X87216189Y-78246000D01*
X87225000Y-78201708D01*
X87225000Y-78098292D01*
X87204824Y-77996863D01*
X87165249Y-77901319D01*
X87107794Y-77815332D01*
X87034668Y-77742206D01*
X86948681Y-77684751D01*
X86853137Y-77645176D01*
X86751708Y-77625000D01*
X86648292Y-77625000D01*
X86546863Y-77645176D01*
X86451319Y-77684751D01*
X86365332Y-77742206D01*
X86292206Y-77815332D01*
X86234751Y-77901319D01*
X86195176Y-77996863D01*
X86175000Y-78098292D01*
X85849994Y-78098292D01*
X85849994Y-76818701D01*
X85882788Y-76785907D01*
X85940243Y-76699920D01*
X85979818Y-76604376D01*
X85999994Y-76502947D01*
X85999994Y-76399531D01*
X85979818Y-76298102D01*
X85940243Y-76202558D01*
X85882788Y-76116571D01*
X85849994Y-76083777D01*
X85849994Y-72770335D01*
X87252141Y-71368189D01*
X87266450Y-71356446D01*
X87313311Y-71299345D01*
X87348133Y-71234198D01*
X87369576Y-71163511D01*
X87375002Y-71108417D01*
X87375002Y-71108414D01*
X87376816Y-71089998D01*
X87375002Y-71071582D01*
X87375002Y-70517462D01*
X87407796Y-70484668D01*
X87465251Y-70398681D01*
X87504826Y-70303137D01*
X87525002Y-70201708D01*
X87525002Y-70098292D01*
X87504826Y-69996863D01*
X87465251Y-69901319D01*
X87407796Y-69815332D01*
X87334670Y-69742206D01*
X87248683Y-69684751D01*
X87153139Y-69645176D01*
X87051710Y-69625000D01*
X86948294Y-69625000D01*
X86846865Y-69645176D01*
X86751321Y-69684751D01*
X86665334Y-69742206D01*
X86592208Y-69815332D01*
X86534753Y-69901319D01*
X86495178Y-69996863D01*
X86475002Y-70098292D01*
X86475002Y-70201708D01*
X86495178Y-70303137D01*
X86534753Y-70398681D01*
X86592208Y-70484668D01*
X86625002Y-70517462D01*
X86625003Y-70934667D01*
X85222860Y-72336811D01*
X85208546Y-72348558D01*
X85161685Y-72405660D01*
X85126863Y-72470807D01*
X85105420Y-72541494D01*
X85101221Y-72584130D01*
X85098180Y-72615006D01*
X85099994Y-72633422D01*
X85099995Y-76083776D01*
X85067200Y-76116571D01*
X85009745Y-76202558D01*
X84970170Y-76298102D01*
X84949994Y-76399531D01*
X84949994Y-76502947D01*
X84970170Y-76604376D01*
X85009745Y-76699920D01*
X85067200Y-76785907D01*
X85099994Y-76818701D01*
X85099994Y-76893921D01*
X85099995Y-76893931D01*
X85099994Y-79869676D01*
X81744671Y-83225000D01*
X77492462Y-83225000D01*
X77459668Y-83192206D01*
X77373681Y-83134751D01*
X77278137Y-83095176D01*
X77176708Y-83075000D01*
X77073292Y-83075000D01*
X76971863Y-83095176D01*
X76876319Y-83134751D01*
X76790332Y-83192206D01*
X76717206Y-83265332D01*
X76659751Y-83351319D01*
X76620176Y-83446863D01*
X76600000Y-83548292D01*
X62575000Y-83548292D01*
X62575000Y-83374122D01*
X62533688Y-83166434D01*
X62452652Y-82970797D01*
X62444967Y-82959296D01*
X63504264Y-81900000D01*
X69669041Y-81900000D01*
X69692206Y-81934668D01*
X69765332Y-82007794D01*
X69851319Y-82065249D01*
X69946863Y-82104824D01*
X70048292Y-82125000D01*
X70151708Y-82125000D01*
X70253137Y-82104824D01*
X70348681Y-82065249D01*
X70434668Y-82007794D01*
X70507794Y-81934668D01*
X70565249Y-81848681D01*
X70604824Y-81753137D01*
X70625000Y-81651708D01*
X70625000Y-81548292D01*
X71375000Y-81548292D01*
X71375000Y-81651708D01*
X71395176Y-81753137D01*
X71434751Y-81848681D01*
X71492206Y-81934668D01*
X71565332Y-82007794D01*
X71651319Y-82065249D01*
X71746863Y-82104824D01*
X71848292Y-82125000D01*
X71951708Y-82125000D01*
X71992602Y-82116865D01*
X72577451Y-82701715D01*
X72586842Y-82713158D01*
X72598285Y-82722549D01*
X72632522Y-82750647D01*
X72660379Y-82765536D01*
X72684640Y-82778504D01*
X72741190Y-82795659D01*
X72785267Y-82800000D01*
X72785276Y-82800000D01*
X72799999Y-82801450D01*
X72814722Y-82800000D01*
X73933834Y-82800000D01*
X73948557Y-82801450D01*
X73963280Y-82800000D01*
X73963290Y-82800000D01*
X74007367Y-82795659D01*
X74063917Y-82778504D01*
X74116034Y-82750647D01*
X74161715Y-82713158D01*
X74171110Y-82701711D01*
X74372799Y-82500022D01*
X81560257Y-82500022D01*
X81574980Y-82501472D01*
X81589703Y-82500022D01*
X81589713Y-82500022D01*
X81633790Y-82495681D01*
X81690340Y-82478526D01*
X81742457Y-82450669D01*
X81788138Y-82413180D01*
X81797533Y-82401732D01*
X82032400Y-82166866D01*
X82073294Y-82175000D01*
X82176710Y-82175000D01*
X82278139Y-82154824D01*
X82373683Y-82115249D01*
X82459670Y-82057794D01*
X82532796Y-81984668D01*
X82590251Y-81898681D01*
X82629826Y-81803137D01*
X82650002Y-81701708D01*
X82650002Y-81598292D01*
X82641867Y-81557398D01*
X84176717Y-80022549D01*
X84188158Y-80013160D01*
X84209765Y-79986832D01*
X84225647Y-79967480D01*
X84249831Y-79922234D01*
X84253504Y-79915362D01*
X84270659Y-79858812D01*
X84275000Y-79814735D01*
X84275000Y-79814726D01*
X84276450Y-79800003D01*
X84275000Y-79785280D01*
X84275000Y-72639730D01*
X84276451Y-72625000D01*
X84273810Y-72598184D01*
X84273370Y-72593718D01*
X84279824Y-72578137D01*
X84300000Y-72476708D01*
X84300000Y-72373292D01*
X84279824Y-72271863D01*
X84240249Y-72176319D01*
X84182794Y-72090332D01*
X84109668Y-72017206D01*
X84023681Y-71959751D01*
X83928137Y-71920176D01*
X83908692Y-71916308D01*
X84378769Y-71446231D01*
X84415332Y-71482794D01*
X84501319Y-71540249D01*
X84596863Y-71579824D01*
X84698292Y-71600000D01*
X84801708Y-71600000D01*
X84903137Y-71579824D01*
X84998681Y-71540249D01*
X85084668Y-71482794D01*
X85157794Y-71409668D01*
X85215249Y-71323681D01*
X85254824Y-71228137D01*
X85275000Y-71126708D01*
X85275000Y-71023292D01*
X85254824Y-70921863D01*
X85215249Y-70826319D01*
X85157794Y-70740332D01*
X85084668Y-70667206D01*
X84998681Y-70609751D01*
X84903137Y-70570176D01*
X84801708Y-70550000D01*
X84698292Y-70550000D01*
X84596863Y-70570176D01*
X84501319Y-70609751D01*
X84415332Y-70667206D01*
X84342206Y-70740332D01*
X84319607Y-70774154D01*
X84311012Y-70775000D01*
X84311003Y-70775000D01*
X84266926Y-70779341D01*
X84210376Y-70796496D01*
X84186115Y-70809464D01*
X84158258Y-70824353D01*
X84125235Y-70851455D01*
X84112578Y-70861842D01*
X84103187Y-70873285D01*
X82523283Y-72453190D01*
X82511841Y-72462580D01*
X82502450Y-72474023D01*
X82502449Y-72474024D01*
X82474351Y-72508261D01*
X82446495Y-72560378D01*
X82429340Y-72616928D01*
X82423548Y-72675738D01*
X82424999Y-72690471D01*
X82424998Y-73310277D01*
X82423548Y-73325000D01*
X82424998Y-73339723D01*
X82424998Y-73339732D01*
X82429339Y-73383809D01*
X82446494Y-73440359D01*
X82457102Y-73460205D01*
X82474351Y-73492477D01*
X82484682Y-73505065D01*
X82511840Y-73538158D01*
X82523288Y-73547553D01*
X82800001Y-73824267D01*
X82800000Y-76569041D01*
X82765332Y-76592206D01*
X82692206Y-76665332D01*
X82634751Y-76751319D01*
X82595176Y-76846863D01*
X82575000Y-76948292D01*
X82575000Y-77051708D01*
X82595176Y-77153137D01*
X82634751Y-77248681D01*
X82692206Y-77334668D01*
X82765332Y-77407794D01*
X82800000Y-77430959D01*
X82800000Y-77438996D01*
X82800001Y-77439006D01*
X82800000Y-78925736D01*
X80425737Y-81300000D01*
X78680965Y-81300000D01*
X78715249Y-81248691D01*
X78754824Y-81153147D01*
X78775000Y-81051718D01*
X78775000Y-80948302D01*
X78754824Y-80846873D01*
X78715249Y-80751329D01*
X78657794Y-80665342D01*
X78584668Y-80592216D01*
X78498681Y-80534761D01*
X78403137Y-80495186D01*
X78301708Y-80475010D01*
X78198292Y-80475010D01*
X78096863Y-80495186D01*
X78001319Y-80534761D01*
X77915332Y-80592216D01*
X77842206Y-80665342D01*
X77784751Y-80751329D01*
X77745176Y-80846873D01*
X77725000Y-80948302D01*
X77725000Y-81051718D01*
X77745176Y-81153147D01*
X77784751Y-81248691D01*
X77819035Y-81300000D01*
X74114382Y-81300000D01*
X74057794Y-81215310D01*
X73984668Y-81142184D01*
X73898681Y-81084729D01*
X73803137Y-81045154D01*
X73701708Y-81024978D01*
X73598292Y-81024978D01*
X73496863Y-81045154D01*
X73401319Y-81084729D01*
X73315332Y-81142184D01*
X73242206Y-81215310D01*
X73208288Y-81266071D01*
X73207794Y-81265332D01*
X73134668Y-81192206D01*
X73048681Y-81134751D01*
X72953137Y-81095176D01*
X72851708Y-81075000D01*
X72748292Y-81075000D01*
X72646863Y-81095176D01*
X72551319Y-81134751D01*
X72465332Y-81192206D01*
X72392206Y-81265332D01*
X72350000Y-81328497D01*
X72307794Y-81265332D01*
X72234668Y-81192206D01*
X72148681Y-81134751D01*
X72053137Y-81095176D01*
X71951708Y-81075000D01*
X71848292Y-81075000D01*
X71746863Y-81095176D01*
X71651319Y-81134751D01*
X71565332Y-81192206D01*
X71492206Y-81265332D01*
X71434751Y-81351319D01*
X71395176Y-81446863D01*
X71375000Y-81548292D01*
X70625000Y-81548292D01*
X70604824Y-81446863D01*
X70565249Y-81351319D01*
X70507794Y-81265332D01*
X70434668Y-81192206D01*
X70348681Y-81134751D01*
X70253137Y-81095176D01*
X70151708Y-81075000D01*
X70048292Y-81075000D01*
X69946863Y-81095176D01*
X69851319Y-81134751D01*
X69765332Y-81192206D01*
X69692206Y-81265332D01*
X69669041Y-81300000D01*
X63394719Y-81300000D01*
X63379999Y-81298550D01*
X63365279Y-81300000D01*
X63365267Y-81300000D01*
X63321190Y-81304341D01*
X63264640Y-81321496D01*
X63240379Y-81334464D01*
X63212522Y-81349353D01*
X63205856Y-81354824D01*
X63166842Y-81386842D01*
X63157451Y-81398285D01*
X62020704Y-82535033D01*
X62009203Y-82527348D01*
X61813566Y-82446312D01*
X61605878Y-82405000D01*
X61394122Y-82405000D01*
X61186434Y-82446312D01*
X60990797Y-82527348D01*
X60814728Y-82644993D01*
X60664993Y-82794728D01*
X60547348Y-82970797D01*
X60466312Y-83166434D01*
X60425000Y-83374122D01*
X60225500Y-83374122D01*
X60225500Y-81113104D01*
X60439029Y-81113104D01*
X60453546Y-81186089D01*
X60521663Y-81385514D01*
X60627377Y-81567818D01*
X60766625Y-81725995D01*
X60934057Y-81853967D01*
X61123237Y-81946815D01*
X61326896Y-82000972D01*
X61495000Y-81958739D01*
X61495000Y-80945000D01*
X61505000Y-80945000D01*
X61505000Y-81958739D01*
X61673104Y-82000972D01*
X61876763Y-81946815D01*
X62065943Y-81853967D01*
X62233375Y-81725995D01*
X62372623Y-81567818D01*
X62478337Y-81385514D01*
X62546454Y-81186089D01*
X62560971Y-81113104D01*
X62518738Y-80945000D01*
X61505000Y-80945000D01*
X61495000Y-80945000D01*
X60481262Y-80945000D01*
X60439029Y-81113104D01*
X60225500Y-81113104D01*
X60225500Y-80766896D01*
X60439029Y-80766896D01*
X60481262Y-80935000D01*
X61495000Y-80935000D01*
X61495000Y-79921261D01*
X61505000Y-79921261D01*
X61505000Y-80935000D01*
X62518738Y-80935000D01*
X62560971Y-80766896D01*
X62546454Y-80693911D01*
X62478337Y-80494486D01*
X62372623Y-80312182D01*
X62233375Y-80154005D01*
X62065943Y-80026033D01*
X61876763Y-79933185D01*
X61673104Y-79879028D01*
X61505000Y-79921261D01*
X61495000Y-79921261D01*
X61326896Y-79879028D01*
X61123237Y-79933185D01*
X60934057Y-80026033D01*
X60766625Y-80154005D01*
X60627377Y-80312182D01*
X60521663Y-80494486D01*
X60453546Y-80693911D01*
X60439029Y-80766896D01*
X60225500Y-80766896D01*
X60225500Y-77550000D01*
X60423912Y-77550000D01*
X60423912Y-79250000D01*
X60428256Y-79294108D01*
X60441122Y-79336520D01*
X60462015Y-79375608D01*
X60490132Y-79409868D01*
X60524392Y-79437985D01*
X60563480Y-79458878D01*
X60605892Y-79471744D01*
X60650000Y-79476088D01*
X62350000Y-79476088D01*
X62394108Y-79471744D01*
X62436520Y-79458878D01*
X62475608Y-79437985D01*
X62509868Y-79409868D01*
X62537985Y-79375608D01*
X62558878Y-79336520D01*
X62571744Y-79294108D01*
X62576088Y-79250000D01*
X62576088Y-78700000D01*
X65435281Y-78700000D01*
X65450004Y-78701450D01*
X65464727Y-78700000D01*
X65464737Y-78700000D01*
X65508814Y-78695659D01*
X65565364Y-78678504D01*
X65617481Y-78650647D01*
X65663162Y-78613158D01*
X65672557Y-78601710D01*
X66507402Y-77766866D01*
X66548296Y-77775000D01*
X66651712Y-77775000D01*
X66753141Y-77754824D01*
X66848685Y-77715249D01*
X66934672Y-77657794D01*
X67007798Y-77584668D01*
X67065253Y-77498681D01*
X67104828Y-77403137D01*
X67125004Y-77301708D01*
X67125004Y-77198292D01*
X67104828Y-77096863D01*
X67065253Y-77001319D01*
X67007798Y-76915332D01*
X66934672Y-76842206D01*
X66848685Y-76784751D01*
X66753141Y-76745176D01*
X66651712Y-76725000D01*
X66548296Y-76725000D01*
X66446867Y-76745176D01*
X66351323Y-76784751D01*
X66265336Y-76842206D01*
X66192210Y-76915332D01*
X66134755Y-77001319D01*
X66095180Y-77096863D01*
X66075004Y-77198292D01*
X66075004Y-77301708D01*
X66083138Y-77342602D01*
X65325741Y-78100000D01*
X62576088Y-78100000D01*
X62576088Y-77550000D01*
X62571744Y-77505892D01*
X62558878Y-77463480D01*
X62537985Y-77424392D01*
X62509868Y-77390132D01*
X62475608Y-77362015D01*
X62436520Y-77341122D01*
X62394108Y-77328256D01*
X62350000Y-77323912D01*
X60650000Y-77323912D01*
X60605892Y-77328256D01*
X60563480Y-77341122D01*
X60524392Y-77362015D01*
X60490132Y-77390132D01*
X60462015Y-77424392D01*
X60441122Y-77463480D01*
X60428256Y-77505892D01*
X60423912Y-77550000D01*
X60225500Y-77550000D01*
X60225500Y-70748292D01*
X68625000Y-70748292D01*
X68625000Y-70851708D01*
X68645176Y-70953137D01*
X68684751Y-71048681D01*
X68742206Y-71134668D01*
X68815332Y-71207794D01*
X68901319Y-71265249D01*
X68996863Y-71304824D01*
X69098292Y-71325000D01*
X69201708Y-71325000D01*
X69240107Y-71317362D01*
X69225000Y-71393308D01*
X69225000Y-71449659D01*
X69201708Y-71445026D01*
X69098292Y-71445026D01*
X68996863Y-71465202D01*
X68901319Y-71504777D01*
X68815332Y-71562232D01*
X68742206Y-71635358D01*
X68684751Y-71721345D01*
X68645176Y-71816889D01*
X68625000Y-71918318D01*
X68625000Y-72021734D01*
X68645176Y-72123163D01*
X68684751Y-72218707D01*
X68742206Y-72304694D01*
X68815332Y-72377820D01*
X68901319Y-72435275D01*
X68996863Y-72474850D01*
X69098292Y-72495026D01*
X69201708Y-72495026D01*
X69229512Y-72489495D01*
X69229512Y-72525000D01*
X69198292Y-72525000D01*
X69096863Y-72545176D01*
X69001319Y-72584751D01*
X68915332Y-72642206D01*
X68842206Y-72715332D01*
X68784751Y-72801319D01*
X68745176Y-72896863D01*
X68725000Y-72998292D01*
X68725000Y-73101708D01*
X68745176Y-73203137D01*
X68784751Y-73298681D01*
X68842206Y-73384668D01*
X68915332Y-73457794D01*
X69001319Y-73515249D01*
X69096863Y-73554824D01*
X69198292Y-73575000D01*
X69301708Y-73575000D01*
X69366806Y-73562051D01*
X69350835Y-73600609D01*
X69330659Y-73702038D01*
X69330659Y-73790716D01*
X69251708Y-73775011D01*
X69148292Y-73775011D01*
X69046863Y-73795187D01*
X68951319Y-73834762D01*
X68865332Y-73892217D01*
X68792206Y-73965343D01*
X68734751Y-74051330D01*
X68695176Y-74146874D01*
X68675000Y-74248303D01*
X68675000Y-74351719D01*
X68695176Y-74453148D01*
X68734751Y-74548692D01*
X68792206Y-74634679D01*
X68865332Y-74707805D01*
X68951319Y-74765260D01*
X69046863Y-74804835D01*
X69148292Y-74825011D01*
X69251708Y-74825011D01*
X69280775Y-74819229D01*
X69274994Y-74848292D01*
X69274994Y-74950401D01*
X69227626Y-74940979D01*
X69124210Y-74940979D01*
X69022781Y-74961155D01*
X68927237Y-75000730D01*
X68841250Y-75058185D01*
X68768124Y-75131311D01*
X68710669Y-75217298D01*
X68671094Y-75312842D01*
X68650918Y-75414271D01*
X68650918Y-75517687D01*
X68671094Y-75619116D01*
X68710669Y-75714660D01*
X68768124Y-75800647D01*
X68841250Y-75873773D01*
X68927237Y-75931228D01*
X69022781Y-75970803D01*
X69124210Y-75990979D01*
X69227626Y-75990979D01*
X69228761Y-75990753D01*
X69228761Y-76055469D01*
X69231008Y-76066766D01*
X69129633Y-76066766D01*
X69028204Y-76086942D01*
X68932660Y-76126517D01*
X68846673Y-76183972D01*
X68773547Y-76257098D01*
X68716092Y-76343085D01*
X68676517Y-76438629D01*
X68656341Y-76540058D01*
X68656341Y-76643474D01*
X68676517Y-76744903D01*
X68716092Y-76840447D01*
X68773547Y-76926434D01*
X68846673Y-76999560D01*
X68932660Y-77057015D01*
X69028204Y-77096590D01*
X69129633Y-77116766D01*
X69233049Y-77116766D01*
X69334478Y-77096590D01*
X69430022Y-77057015D01*
X69516009Y-76999560D01*
X69589135Y-76926434D01*
X69612300Y-76891766D01*
X69893511Y-76891766D01*
X69908234Y-76893216D01*
X69922957Y-76891766D01*
X69922967Y-76891766D01*
X69967044Y-76887425D01*
X70023594Y-76870270D01*
X70075711Y-76842413D01*
X70121392Y-76804924D01*
X70130787Y-76793476D01*
X70828742Y-76095521D01*
X70845176Y-76178137D01*
X70884751Y-76273681D01*
X70942206Y-76359668D01*
X71015332Y-76432794D01*
X71101319Y-76490249D01*
X71196863Y-76529824D01*
X71298292Y-76550000D01*
X71401708Y-76550000D01*
X71503137Y-76529824D01*
X71598681Y-76490249D01*
X71684668Y-76432794D01*
X71717464Y-76399998D01*
X71755837Y-76399998D01*
X71755846Y-76399999D01*
X74407538Y-76399999D01*
X74440332Y-76432793D01*
X74526319Y-76490248D01*
X74621863Y-76529823D01*
X74723292Y-76549999D01*
X74728623Y-76549999D01*
X74128622Y-77150000D01*
X71336868Y-77150000D01*
X71322138Y-77148549D01*
X71307408Y-77150000D01*
X71307405Y-77150000D01*
X71263328Y-77154341D01*
X71220030Y-77167476D01*
X71206777Y-77171496D01*
X71154660Y-77199353D01*
X71125178Y-77223549D01*
X71108980Y-77236842D01*
X71099589Y-77248285D01*
X69998285Y-78349590D01*
X69986843Y-78358980D01*
X69977452Y-78370423D01*
X69977451Y-78370424D01*
X69949353Y-78404661D01*
X69921497Y-78456778D01*
X69904342Y-78513328D01*
X69898550Y-78572138D01*
X69900001Y-78586871D01*
X69900001Y-78969041D01*
X69865332Y-78992206D01*
X69792206Y-79065332D01*
X69734751Y-79151319D01*
X69695176Y-79246863D01*
X69675000Y-79348292D01*
X69675000Y-79451708D01*
X69695176Y-79553137D01*
X69734751Y-79648681D01*
X69792206Y-79734668D01*
X69865332Y-79807794D01*
X69951319Y-79865249D01*
X70046863Y-79904824D01*
X70148292Y-79925000D01*
X70251708Y-79925000D01*
X70353137Y-79904824D01*
X70448681Y-79865249D01*
X70534668Y-79807794D01*
X70607794Y-79734668D01*
X70665249Y-79648681D01*
X70704824Y-79553137D01*
X70725000Y-79451708D01*
X70725000Y-79348292D01*
X70716648Y-79306304D01*
X70775000Y-79306304D01*
X70775000Y-79401710D01*
X70795176Y-79503139D01*
X70834751Y-79598683D01*
X70892206Y-79684670D01*
X70965332Y-79757796D01*
X71051319Y-79815251D01*
X71146863Y-79854826D01*
X71248292Y-79875002D01*
X71351708Y-79875002D01*
X71453137Y-79854826D01*
X71548681Y-79815251D01*
X71634668Y-79757796D01*
X71707794Y-79684670D01*
X71765249Y-79598683D01*
X71804824Y-79503139D01*
X71825000Y-79401710D01*
X71825000Y-79336402D01*
X71867716Y-79344899D01*
X71971132Y-79344899D01*
X71975000Y-79344130D01*
X71975000Y-79401706D01*
X71995176Y-79503135D01*
X72034751Y-79598679D01*
X72092206Y-79684666D01*
X72165332Y-79757792D01*
X72251319Y-79815247D01*
X72346863Y-79854822D01*
X72448292Y-79874998D01*
X72551708Y-79874998D01*
X72653137Y-79854822D01*
X72748681Y-79815247D01*
X72834668Y-79757792D01*
X72907794Y-79684666D01*
X72965249Y-79598679D01*
X73004824Y-79503135D01*
X73025000Y-79401706D01*
X73025000Y-79298290D01*
X73016865Y-79257396D01*
X73125969Y-79148292D01*
X75525000Y-79148292D01*
X75525000Y-79251708D01*
X75545176Y-79353137D01*
X75584751Y-79448681D01*
X75642206Y-79534668D01*
X75715332Y-79607794D01*
X75801319Y-79665249D01*
X75896863Y-79704824D01*
X75998292Y-79725000D01*
X76101708Y-79725000D01*
X76203137Y-79704824D01*
X76298681Y-79665249D01*
X76384668Y-79607794D01*
X76457794Y-79534668D01*
X76515249Y-79448681D01*
X76554824Y-79353137D01*
X76575000Y-79251708D01*
X76575000Y-79148292D01*
X76566866Y-79107398D01*
X76572549Y-79101715D01*
X76572553Y-79101710D01*
X76774264Y-78900000D01*
X80969041Y-78900000D01*
X80992206Y-78934668D01*
X81065332Y-79007794D01*
X81151319Y-79065249D01*
X81246863Y-79104824D01*
X81348292Y-79125000D01*
X81451708Y-79125000D01*
X81553137Y-79104824D01*
X81648681Y-79065249D01*
X81734668Y-79007794D01*
X81807794Y-78934668D01*
X81865249Y-78848681D01*
X81904824Y-78753137D01*
X81925000Y-78651708D01*
X81925000Y-78548292D01*
X81904824Y-78446863D01*
X81865249Y-78351319D01*
X81807794Y-78265332D01*
X81734668Y-78192206D01*
X81648681Y-78134751D01*
X81553137Y-78095176D01*
X81451708Y-78075000D01*
X81348292Y-78075000D01*
X81246863Y-78095176D01*
X81151319Y-78134751D01*
X81065332Y-78192206D01*
X80992206Y-78265332D01*
X80969041Y-78300000D01*
X76664719Y-78300000D01*
X76649999Y-78298550D01*
X76635279Y-78300000D01*
X76635267Y-78300000D01*
X76591190Y-78304341D01*
X76534640Y-78321496D01*
X76521490Y-78328525D01*
X76482522Y-78349353D01*
X76454245Y-78372560D01*
X76436842Y-78386842D01*
X76427451Y-78398285D01*
X76148290Y-78677447D01*
X76148285Y-78677451D01*
X76142602Y-78683134D01*
X76101708Y-78675000D01*
X75998292Y-78675000D01*
X75896863Y-78695176D01*
X75801319Y-78734751D01*
X75715332Y-78792206D01*
X75642206Y-78865332D01*
X75584751Y-78951319D01*
X75545176Y-79046863D01*
X75525000Y-79148292D01*
X73125969Y-79148292D01*
X73324218Y-78950044D01*
X74735233Y-78950044D01*
X74749956Y-78951494D01*
X74764679Y-78950044D01*
X74764689Y-78950044D01*
X74808766Y-78945703D01*
X74865316Y-78928548D01*
X74917433Y-78900691D01*
X74963114Y-78863202D01*
X74972509Y-78851754D01*
X84190745Y-69633518D01*
X84775000Y-69633518D01*
X84775000Y-69766482D01*
X84800940Y-69896890D01*
X84851823Y-70019732D01*
X84925693Y-70130287D01*
X85019713Y-70224307D01*
X85130268Y-70298177D01*
X85253110Y-70349060D01*
X85383518Y-70375000D01*
X85516482Y-70375000D01*
X85646890Y-70349060D01*
X85769732Y-70298177D01*
X85880287Y-70224307D01*
X85974307Y-70130287D01*
X86048177Y-70019732D01*
X86099060Y-69896890D01*
X86125000Y-69766482D01*
X86125000Y-69633518D01*
X86099060Y-69503110D01*
X86048177Y-69380268D01*
X85974307Y-69269713D01*
X85880287Y-69175693D01*
X85769732Y-69101823D01*
X85646890Y-69050940D01*
X85516482Y-69025000D01*
X85383518Y-69025000D01*
X85253110Y-69050940D01*
X85130268Y-69101823D01*
X85019713Y-69175693D01*
X84925693Y-69269713D01*
X84851823Y-69380268D01*
X84800940Y-69503110D01*
X84775000Y-69633518D01*
X84190745Y-69633518D01*
X85024263Y-68800001D01*
X88275000Y-68800001D01*
X88275000Y-68851708D01*
X88295176Y-68953137D01*
X88334751Y-69048681D01*
X88392206Y-69134668D01*
X88465332Y-69207794D01*
X88500000Y-69230959D01*
X88500001Y-71775735D01*
X86938820Y-73336917D01*
X86927372Y-73346312D01*
X86911971Y-73365079D01*
X86889883Y-73391993D01*
X86880514Y-73409522D01*
X86862026Y-73444111D01*
X86844871Y-73500661D01*
X86840530Y-73544738D01*
X86840530Y-73544747D01*
X86839080Y-73559470D01*
X86840530Y-73574193D01*
X86840531Y-75622580D01*
X86839784Y-75630165D01*
X86839784Y-75630174D01*
X86838334Y-75644897D01*
X86839784Y-75659620D01*
X86839785Y-76874279D01*
X86838334Y-76889012D01*
X86844126Y-76947822D01*
X86861281Y-77004372D01*
X86889137Y-77056489D01*
X86903795Y-77074349D01*
X86926627Y-77102170D01*
X86938069Y-77111560D01*
X87883145Y-78056637D01*
X87875011Y-78097531D01*
X87875011Y-78200947D01*
X87895187Y-78302376D01*
X87934762Y-78397920D01*
X87992217Y-78483907D01*
X88065343Y-78557033D01*
X88151330Y-78614488D01*
X88246874Y-78654063D01*
X88348303Y-78674239D01*
X88451719Y-78674239D01*
X88553148Y-78654063D01*
X88648692Y-78614488D01*
X88700003Y-78580203D01*
X88700002Y-80394041D01*
X88665334Y-80417206D01*
X88592208Y-80490332D01*
X88534753Y-80576319D01*
X88495178Y-80671863D01*
X88475002Y-80773292D01*
X88475002Y-80876708D01*
X88495178Y-80978137D01*
X88534753Y-81073681D01*
X88592208Y-81159668D01*
X88665334Y-81232794D01*
X88751321Y-81290249D01*
X88846865Y-81329824D01*
X88948294Y-81350000D01*
X89051710Y-81350000D01*
X89153139Y-81329824D01*
X89248683Y-81290249D01*
X89250000Y-81289369D01*
X89250000Y-82539041D01*
X89215332Y-82562206D01*
X89142206Y-82635332D01*
X89084751Y-82721319D01*
X89045176Y-82816863D01*
X89025000Y-82918292D01*
X89025000Y-83021708D01*
X89045176Y-83123137D01*
X89084751Y-83218681D01*
X89142206Y-83304668D01*
X89215332Y-83377794D01*
X89301319Y-83435249D01*
X89396863Y-83474824D01*
X89498292Y-83495000D01*
X89601708Y-83495000D01*
X89703137Y-83474824D01*
X89798681Y-83435249D01*
X89884668Y-83377794D01*
X89957794Y-83304668D01*
X90015249Y-83218681D01*
X90054824Y-83123137D01*
X90075000Y-83021708D01*
X90075000Y-82918292D01*
X90054824Y-82816863D01*
X90015249Y-82721319D01*
X89957794Y-82635332D01*
X89884668Y-82562206D01*
X89850000Y-82539041D01*
X89850000Y-81325053D01*
X89921875Y-81354824D01*
X90023304Y-81375000D01*
X90126720Y-81375000D01*
X90228149Y-81354824D01*
X90323693Y-81315249D01*
X90409680Y-81257794D01*
X90482806Y-81184668D01*
X90540261Y-81098681D01*
X90579836Y-81003137D01*
X90600012Y-80901708D01*
X90600012Y-80798292D01*
X90579836Y-80696863D01*
X90540261Y-80601319D01*
X90482806Y-80515332D01*
X90415766Y-80448292D01*
X91225004Y-80448292D01*
X91225004Y-80551708D01*
X91245180Y-80653137D01*
X91284755Y-80748681D01*
X91342210Y-80834668D01*
X91415336Y-80907794D01*
X91501323Y-80965249D01*
X91596867Y-81004824D01*
X91698296Y-81025000D01*
X91801712Y-81025000D01*
X91903141Y-81004824D01*
X91998685Y-80965249D01*
X92084672Y-80907794D01*
X92157798Y-80834668D01*
X92180963Y-80800000D01*
X99619041Y-80800000D01*
X99642206Y-80834668D01*
X99715332Y-80907794D01*
X99801319Y-80965249D01*
X99896863Y-81004824D01*
X99998292Y-81025000D01*
X100101708Y-81025000D01*
X100203137Y-81004824D01*
X100298681Y-80965249D01*
X100384668Y-80907794D01*
X100457794Y-80834668D01*
X100515249Y-80748681D01*
X100554824Y-80653137D01*
X100575000Y-80551708D01*
X100575000Y-80448292D01*
X100554824Y-80346863D01*
X100515249Y-80251319D01*
X100457794Y-80165332D01*
X100384668Y-80092206D01*
X100298681Y-80034751D01*
X100203137Y-79995176D01*
X100101708Y-79975000D01*
X99998292Y-79975000D01*
X99968297Y-79980967D01*
X100286947Y-79662317D01*
X100331358Y-79662317D01*
X100354523Y-79696985D01*
X100427649Y-79770111D01*
X100513636Y-79827566D01*
X100609180Y-79867141D01*
X100710609Y-79887317D01*
X100814025Y-79887317D01*
X100915454Y-79867141D01*
X101010998Y-79827566D01*
X101096985Y-79770111D01*
X101170111Y-79696985D01*
X101227566Y-79610998D01*
X101267141Y-79515454D01*
X101287317Y-79414025D01*
X101287317Y-79310609D01*
X101267141Y-79209180D01*
X101227566Y-79113636D01*
X101170111Y-79027649D01*
X101096985Y-78954523D01*
X101010998Y-78897068D01*
X100915454Y-78857493D01*
X100814025Y-78837317D01*
X100710609Y-78837317D01*
X100609180Y-78857493D01*
X100513636Y-78897068D01*
X100427649Y-78954523D01*
X100354523Y-79027649D01*
X100331358Y-79062317D01*
X100177413Y-79062317D01*
X100162683Y-79060866D01*
X100147953Y-79062317D01*
X100147950Y-79062317D01*
X100103873Y-79066658D01*
X100051589Y-79082519D01*
X100047323Y-79083813D01*
X99995205Y-79111670D01*
X99960969Y-79139767D01*
X99949525Y-79149159D01*
X99940134Y-79160602D01*
X99200747Y-79899990D01*
X92945365Y-79899990D01*
X92929824Y-79821863D01*
X92890249Y-79726319D01*
X92832794Y-79640332D01*
X92759668Y-79567206D01*
X92673681Y-79509751D01*
X92578137Y-79470176D01*
X92476708Y-79450000D01*
X92373292Y-79450000D01*
X92271863Y-79470176D01*
X92176319Y-79509751D01*
X92090332Y-79567206D01*
X92017206Y-79640332D01*
X91959751Y-79726319D01*
X91920176Y-79821863D01*
X91900000Y-79923292D01*
X91900000Y-79994551D01*
X91801712Y-79975000D01*
X91698296Y-79975000D01*
X91596867Y-79995176D01*
X91501323Y-80034751D01*
X91415336Y-80092206D01*
X91342210Y-80165332D01*
X91284755Y-80251319D01*
X91245180Y-80346863D01*
X91225004Y-80448292D01*
X90415766Y-80448292D01*
X90409680Y-80442206D01*
X90375859Y-80419608D01*
X90374478Y-80405581D01*
X90370671Y-80366926D01*
X90353516Y-80310376D01*
X90335755Y-80277147D01*
X90325659Y-80258258D01*
X90297562Y-80224022D01*
X90297561Y-80224021D01*
X90288170Y-80212578D01*
X90276727Y-80203187D01*
X90150013Y-80076474D01*
X90150013Y-78614396D01*
X90151319Y-78615269D01*
X90246863Y-78654844D01*
X90348292Y-78675020D01*
X90451708Y-78675020D01*
X90553137Y-78654844D01*
X90648681Y-78615269D01*
X90734668Y-78557814D01*
X90807794Y-78484688D01*
X90865249Y-78398701D01*
X90900007Y-78314786D01*
X90934762Y-78398692D01*
X90992217Y-78484679D01*
X91065343Y-78557805D01*
X91151330Y-78615260D01*
X91246874Y-78654835D01*
X91348303Y-78675011D01*
X91451719Y-78675011D01*
X91553148Y-78654835D01*
X91648692Y-78615260D01*
X91734679Y-78557805D01*
X91807805Y-78484679D01*
X91848256Y-78424140D01*
X91886387Y-78481207D01*
X91959513Y-78554333D01*
X92045500Y-78611788D01*
X92141044Y-78651363D01*
X92242473Y-78671539D01*
X92345889Y-78671539D01*
X92447318Y-78651363D01*
X92542862Y-78611788D01*
X92628849Y-78554333D01*
X92695366Y-78487817D01*
X92765343Y-78557794D01*
X92851330Y-78615249D01*
X92946874Y-78654824D01*
X93048303Y-78675000D01*
X93151719Y-78675000D01*
X93253148Y-78654824D01*
X93348692Y-78615249D01*
X93434679Y-78557794D01*
X93507805Y-78484668D01*
X93525008Y-78458922D01*
X93542217Y-78484676D01*
X93615343Y-78557802D01*
X93701330Y-78615257D01*
X93796874Y-78654832D01*
X93898303Y-78675008D01*
X94001719Y-78675008D01*
X94103148Y-78654832D01*
X94198692Y-78615257D01*
X94284679Y-78557802D01*
X94325021Y-78517461D01*
X94365354Y-78557794D01*
X94451341Y-78615249D01*
X94546885Y-78654824D01*
X94648314Y-78675000D01*
X94751730Y-78675000D01*
X94853159Y-78654824D01*
X94948703Y-78615249D01*
X95034690Y-78557794D01*
X95075029Y-78517456D01*
X95115367Y-78557794D01*
X95201354Y-78615249D01*
X95296898Y-78654824D01*
X95398327Y-78675000D01*
X95501743Y-78675000D01*
X95603172Y-78654824D01*
X95698716Y-78615249D01*
X95784703Y-78557794D01*
X95857829Y-78484668D01*
X95915284Y-78398681D01*
X95954859Y-78303137D01*
X95975035Y-78201708D01*
X95975035Y-78198292D01*
X97425000Y-78198292D01*
X97425000Y-78301708D01*
X97445176Y-78403137D01*
X97484751Y-78498681D01*
X97542206Y-78584668D01*
X97615332Y-78657794D01*
X97701319Y-78715249D01*
X97796863Y-78754824D01*
X97898292Y-78775000D01*
X98001708Y-78775000D01*
X98103137Y-78754824D01*
X98198681Y-78715249D01*
X98284668Y-78657794D01*
X98357794Y-78584668D01*
X98380959Y-78550000D01*
X98835277Y-78550000D01*
X98850000Y-78551450D01*
X98864723Y-78550000D01*
X98864733Y-78550000D01*
X98908810Y-78545659D01*
X98965360Y-78528504D01*
X99017477Y-78500647D01*
X99063158Y-78463158D01*
X99072553Y-78451710D01*
X99628244Y-77896020D01*
X101244051Y-77896020D01*
X101267216Y-77930688D01*
X101340342Y-78003814D01*
X101426329Y-78061269D01*
X101521873Y-78100844D01*
X101623302Y-78121020D01*
X101726718Y-78121020D01*
X101828147Y-78100844D01*
X101923691Y-78061269D01*
X102009678Y-78003814D01*
X102082804Y-77930688D01*
X102140259Y-77844701D01*
X102179834Y-77749157D01*
X102200010Y-77647728D01*
X102200010Y-77544312D01*
X102179834Y-77442883D01*
X102140259Y-77347339D01*
X102082804Y-77261352D01*
X102009678Y-77188226D01*
X101923691Y-77130771D01*
X101828147Y-77091196D01*
X101726718Y-77071020D01*
X101623302Y-77071020D01*
X101521873Y-77091196D01*
X101426329Y-77130771D01*
X101340342Y-77188226D01*
X101267216Y-77261352D01*
X101244051Y-77296020D01*
X99518702Y-77296020D01*
X99503979Y-77294570D01*
X99489256Y-77296020D01*
X99489247Y-77296020D01*
X99445170Y-77300361D01*
X99388620Y-77317516D01*
X99376654Y-77323912D01*
X99336502Y-77345373D01*
X99321699Y-77357522D01*
X99290822Y-77382862D01*
X99281431Y-77394305D01*
X98725737Y-77950000D01*
X98380959Y-77950000D01*
X98357794Y-77915332D01*
X98284668Y-77842206D01*
X98198681Y-77784751D01*
X98103137Y-77745176D01*
X98001708Y-77725000D01*
X97898292Y-77725000D01*
X97796863Y-77745176D01*
X97701319Y-77784751D01*
X97615332Y-77842206D01*
X97542206Y-77915332D01*
X97484751Y-78001319D01*
X97445176Y-78096863D01*
X97425000Y-78198292D01*
X95975035Y-78198292D01*
X95975035Y-78098292D01*
X95966901Y-78057398D01*
X95972584Y-78051715D01*
X95972588Y-78051710D01*
X96351725Y-77672574D01*
X96363168Y-77663183D01*
X96372559Y-77651740D01*
X96400657Y-77617503D01*
X96425235Y-77571519D01*
X96428514Y-77565385D01*
X96445669Y-77508835D01*
X96450010Y-77464758D01*
X96450010Y-77464746D01*
X96451460Y-77450026D01*
X96450010Y-77435306D01*
X96450010Y-76388292D01*
X98655000Y-76388292D01*
X98655000Y-76491708D01*
X98675176Y-76593137D01*
X98714751Y-76688681D01*
X98772206Y-76774668D01*
X98845332Y-76847794D01*
X98931319Y-76905249D01*
X99026863Y-76944824D01*
X99128292Y-76965000D01*
X99231708Y-76965000D01*
X99333137Y-76944824D01*
X99428681Y-76905249D01*
X99514668Y-76847794D01*
X99587794Y-76774668D01*
X99637687Y-76699998D01*
X100879041Y-76699998D01*
X100902206Y-76734666D01*
X100975332Y-76807792D01*
X101061319Y-76865247D01*
X101156863Y-76904822D01*
X101258292Y-76924998D01*
X101361708Y-76924998D01*
X101463137Y-76904822D01*
X101558681Y-76865247D01*
X101644668Y-76807792D01*
X101717794Y-76734666D01*
X101775249Y-76648679D01*
X101814824Y-76553135D01*
X101835000Y-76451706D01*
X101835000Y-76348290D01*
X101814824Y-76246861D01*
X101775249Y-76151317D01*
X101717794Y-76065330D01*
X101644668Y-75992204D01*
X101558681Y-75934749D01*
X101463137Y-75895174D01*
X101361708Y-75874998D01*
X101258292Y-75874998D01*
X101156863Y-75895174D01*
X101061319Y-75934749D01*
X100975332Y-75992204D01*
X100902206Y-76065330D01*
X100879041Y-76099998D01*
X99582460Y-76099998D01*
X99514668Y-76032206D01*
X99428681Y-75974751D01*
X99333137Y-75935176D01*
X99231708Y-75915000D01*
X99128292Y-75915000D01*
X99026863Y-75935176D01*
X98931319Y-75974751D01*
X98845332Y-76032206D01*
X98772206Y-76105332D01*
X98714751Y-76191319D01*
X98675176Y-76286863D01*
X98655000Y-76388292D01*
X96450010Y-76388292D01*
X96450010Y-75914732D01*
X96451460Y-75900009D01*
X96450010Y-75885286D01*
X96450010Y-75885277D01*
X96445669Y-75841200D01*
X96428514Y-75784650D01*
X96410602Y-75751138D01*
X96400657Y-75732532D01*
X96372559Y-75698295D01*
X96363168Y-75686852D01*
X96351726Y-75677462D01*
X95839999Y-75165736D01*
X95839999Y-74980279D01*
X96372449Y-74980279D01*
X96372449Y-75083695D01*
X96392625Y-75185124D01*
X96432200Y-75280668D01*
X96489655Y-75366655D01*
X96562781Y-75439781D01*
X96648768Y-75497236D01*
X96744312Y-75536811D01*
X96845741Y-75556987D01*
X96890115Y-75556987D01*
X96890115Y-75626689D01*
X96910291Y-75728118D01*
X96949866Y-75823662D01*
X97007321Y-75909649D01*
X97080447Y-75982775D01*
X97166434Y-76040230D01*
X97261978Y-76079805D01*
X97363407Y-76099981D01*
X97466823Y-76099981D01*
X97568252Y-76079805D01*
X97663796Y-76040230D01*
X97749783Y-75982775D01*
X97789288Y-75943270D01*
X97792206Y-75947636D01*
X97865332Y-76020762D01*
X97951319Y-76078217D01*
X98046863Y-76117792D01*
X98148292Y-76137968D01*
X98251708Y-76137968D01*
X98353137Y-76117792D01*
X98448681Y-76078217D01*
X98534668Y-76020762D01*
X98607794Y-75947636D01*
X98665249Y-75861649D01*
X98704824Y-75766105D01*
X98725000Y-75664676D01*
X98725000Y-75561260D01*
X98704824Y-75459831D01*
X98665249Y-75364287D01*
X98607794Y-75278300D01*
X98534668Y-75205174D01*
X98500000Y-75182009D01*
X98500000Y-74474263D01*
X98566663Y-74407600D01*
X98604262Y-74415079D01*
X98707678Y-74415079D01*
X98809107Y-74394903D01*
X98904651Y-74355328D01*
X98990638Y-74297873D01*
X99063764Y-74224747D01*
X99121219Y-74138760D01*
X99160794Y-74043216D01*
X99180970Y-73941787D01*
X99180970Y-73838371D01*
X99160794Y-73736942D01*
X99121219Y-73641398D01*
X99063764Y-73555411D01*
X98990638Y-73482285D01*
X98904651Y-73424830D01*
X98809107Y-73385255D01*
X98707678Y-73365079D01*
X98604262Y-73365079D01*
X98502833Y-73385255D01*
X98407289Y-73424830D01*
X98321302Y-73482285D01*
X98277080Y-73526508D01*
X98240667Y-73490095D01*
X98154680Y-73432640D01*
X98059136Y-73393065D01*
X97957707Y-73372889D01*
X97854291Y-73372889D01*
X97752862Y-73393065D01*
X97657318Y-73432640D01*
X97571331Y-73490095D01*
X97498205Y-73563221D01*
X97477294Y-73594516D01*
X97457794Y-73565332D01*
X97384668Y-73492206D01*
X97298681Y-73434751D01*
X97203137Y-73395176D01*
X97101708Y-73375000D01*
X96998292Y-73375000D01*
X96896863Y-73395176D01*
X96801319Y-73434751D01*
X96715332Y-73492206D01*
X96642206Y-73565332D01*
X96584751Y-73651319D01*
X96545176Y-73746863D01*
X96525000Y-73848292D01*
X96525000Y-73951708D01*
X96545176Y-74053137D01*
X96584751Y-74148681D01*
X96642206Y-74234668D01*
X96715332Y-74307794D01*
X96750000Y-74330959D01*
X96750001Y-74526031D01*
X96744312Y-74527163D01*
X96648768Y-74566738D01*
X96562781Y-74624193D01*
X96489655Y-74697319D01*
X96432200Y-74783306D01*
X96392625Y-74878850D01*
X96372449Y-74980279D01*
X95839999Y-74980279D01*
X95839999Y-73258381D01*
X98373338Y-70725044D01*
X99784497Y-70725044D01*
X99799220Y-70726494D01*
X99813943Y-70725044D01*
X99813953Y-70725044D01*
X99858030Y-70720703D01*
X99914580Y-70703548D01*
X99966697Y-70675691D01*
X100012378Y-70638202D01*
X100021773Y-70626754D01*
X101015009Y-69633518D01*
X101475000Y-69633518D01*
X101475000Y-69766482D01*
X101500940Y-69896890D01*
X101551823Y-70019732D01*
X101625693Y-70130287D01*
X101719713Y-70224307D01*
X101830268Y-70298177D01*
X101953110Y-70349060D01*
X102083518Y-70375000D01*
X102216482Y-70375000D01*
X102346890Y-70349060D01*
X102469732Y-70298177D01*
X102580287Y-70224307D01*
X102674307Y-70130287D01*
X102748177Y-70019732D01*
X102799060Y-69896890D01*
X102825000Y-69766482D01*
X102825000Y-69633518D01*
X102799060Y-69503110D01*
X102748177Y-69380268D01*
X102674307Y-69269713D01*
X102580287Y-69175693D01*
X102469732Y-69101823D01*
X102346890Y-69050940D01*
X102216482Y-69025000D01*
X102083518Y-69025000D01*
X101953110Y-69050940D01*
X101830268Y-69101823D01*
X101719713Y-69175693D01*
X101625693Y-69269713D01*
X101551823Y-69380268D01*
X101500940Y-69503110D01*
X101475000Y-69633518D01*
X101015009Y-69633518D01*
X101201715Y-69446813D01*
X101213158Y-69437422D01*
X101222549Y-69425979D01*
X101250647Y-69391742D01*
X101276129Y-69344067D01*
X101278504Y-69339624D01*
X101295659Y-69283074D01*
X101300000Y-69238997D01*
X101300000Y-69238988D01*
X101300846Y-69230393D01*
X101334668Y-69207794D01*
X101407794Y-69134668D01*
X101465249Y-69048681D01*
X101504824Y-68953137D01*
X101525000Y-68851708D01*
X101525000Y-68748292D01*
X101504824Y-68646863D01*
X101465249Y-68551319D01*
X101407794Y-68465332D01*
X101334668Y-68392206D01*
X101248681Y-68334751D01*
X101180968Y-68306704D01*
X95672553Y-62798290D01*
X95663158Y-62786842D01*
X95617477Y-62749353D01*
X95565360Y-62721496D01*
X95508810Y-62704341D01*
X95464733Y-62700000D01*
X95464723Y-62700000D01*
X95450000Y-62698550D01*
X95435277Y-62700000D01*
X82777702Y-62700000D01*
X82762979Y-62698550D01*
X82748256Y-62700000D01*
X82748246Y-62700000D01*
X82704169Y-62704341D01*
X82647619Y-62721496D01*
X82625064Y-62733552D01*
X82595501Y-62749353D01*
X82561264Y-62777451D01*
X82549821Y-62786842D01*
X82540430Y-62798285D01*
X80750000Y-64588715D01*
X80750000Y-62436386D01*
X80763566Y-62433688D01*
X80959203Y-62352652D01*
X81135272Y-62235007D01*
X81285007Y-62085272D01*
X81402652Y-61909203D01*
X81483688Y-61713566D01*
X81525000Y-61505878D01*
X81525000Y-61294122D01*
X81915000Y-61294122D01*
X81915000Y-61505878D01*
X81956312Y-61713566D01*
X82037348Y-61909203D01*
X82154993Y-62085272D01*
X82304728Y-62235007D01*
X82480797Y-62352652D01*
X82676434Y-62433688D01*
X82884122Y-62475000D01*
X83095878Y-62475000D01*
X83303566Y-62433688D01*
X83499203Y-62352652D01*
X83675272Y-62235007D01*
X83825007Y-62085272D01*
X83942652Y-61909203D01*
X84023688Y-61713566D01*
X84065000Y-61505878D01*
X84065000Y-61294122D01*
X84455000Y-61294122D01*
X84455000Y-61505878D01*
X84496312Y-61713566D01*
X84577348Y-61909203D01*
X84694993Y-62085272D01*
X84844728Y-62235007D01*
X85020797Y-62352652D01*
X85216434Y-62433688D01*
X85424122Y-62475000D01*
X85635878Y-62475000D01*
X85843566Y-62433688D01*
X86039203Y-62352652D01*
X86215272Y-62235007D01*
X86365007Y-62085272D01*
X86482652Y-61909203D01*
X86563688Y-61713566D01*
X86605000Y-61505878D01*
X86605000Y-61294122D01*
X86995000Y-61294122D01*
X86995000Y-61505878D01*
X87036312Y-61713566D01*
X87117348Y-61909203D01*
X87234993Y-62085272D01*
X87384728Y-62235007D01*
X87560797Y-62352652D01*
X87756434Y-62433688D01*
X87964122Y-62475000D01*
X88175878Y-62475000D01*
X88383566Y-62433688D01*
X88579203Y-62352652D01*
X88755272Y-62235007D01*
X88905007Y-62085272D01*
X89022652Y-61909203D01*
X89103688Y-61713566D01*
X89145000Y-61505878D01*
X89145000Y-61294122D01*
X89535000Y-61294122D01*
X89535000Y-61505878D01*
X89576312Y-61713566D01*
X89657348Y-61909203D01*
X89774993Y-62085272D01*
X89924728Y-62235007D01*
X90100797Y-62352652D01*
X90296434Y-62433688D01*
X90504122Y-62475000D01*
X90715878Y-62475000D01*
X90923566Y-62433688D01*
X91119203Y-62352652D01*
X91295272Y-62235007D01*
X91445007Y-62085272D01*
X91562652Y-61909203D01*
X91643688Y-61713566D01*
X91685000Y-61505878D01*
X91685000Y-61294122D01*
X92075000Y-61294122D01*
X92075000Y-61505878D01*
X92116312Y-61713566D01*
X92197348Y-61909203D01*
X92314993Y-62085272D01*
X92464728Y-62235007D01*
X92640797Y-62352652D01*
X92836434Y-62433688D01*
X93044122Y-62475000D01*
X93255878Y-62475000D01*
X93463566Y-62433688D01*
X93659203Y-62352652D01*
X93835272Y-62235007D01*
X93985007Y-62085272D01*
X94102652Y-61909203D01*
X94183688Y-61713566D01*
X94225000Y-61505878D01*
X94225000Y-61294122D01*
X94615000Y-61294122D01*
X94615000Y-61505878D01*
X94656312Y-61713566D01*
X94737348Y-61909203D01*
X94854993Y-62085272D01*
X95004728Y-62235007D01*
X95180797Y-62352652D01*
X95376434Y-62433688D01*
X95584122Y-62475000D01*
X95795878Y-62475000D01*
X96003566Y-62433688D01*
X96199203Y-62352652D01*
X96375272Y-62235007D01*
X96518008Y-62092271D01*
X98327460Y-63901724D01*
X98336852Y-63913168D01*
X98348295Y-63922559D01*
X98382532Y-63950657D01*
X98410389Y-63965546D01*
X98434650Y-63978514D01*
X98491200Y-63995669D01*
X98535277Y-64000010D01*
X98535286Y-64000010D01*
X98550009Y-64001460D01*
X98564732Y-64000010D01*
X102097191Y-64000010D01*
X103599981Y-65502801D01*
X103599980Y-78698752D01*
X102730659Y-79568074D01*
X102719217Y-79577464D01*
X102709826Y-79588907D01*
X102709825Y-79588908D01*
X102681727Y-79623145D01*
X102653871Y-79675262D01*
X102636716Y-79731812D01*
X102630924Y-79790622D01*
X102632375Y-79805354D01*
X102632375Y-79859263D01*
X102597706Y-79882428D01*
X102524580Y-79955554D01*
X102467125Y-80041541D01*
X102427550Y-80137085D01*
X102407374Y-80238514D01*
X102407374Y-80341930D01*
X102427550Y-80443359D01*
X102467125Y-80538903D01*
X102524580Y-80624890D01*
X102597706Y-80698016D01*
X102683693Y-80755471D01*
X102779237Y-80795046D01*
X102880666Y-80815222D01*
X102984082Y-80815222D01*
X103085511Y-80795046D01*
X103181055Y-80755471D01*
X103267042Y-80698016D01*
X103340168Y-80624890D01*
X103397623Y-80538903D01*
X103437198Y-80443359D01*
X103457374Y-80341930D01*
X103457374Y-80267758D01*
X103546861Y-80304824D01*
X103648290Y-80325000D01*
X103751706Y-80325000D01*
X103853135Y-80304824D01*
X103948679Y-80265249D01*
X103975145Y-80247565D01*
X103975000Y-80248292D01*
X103975000Y-80351708D01*
X103995176Y-80453137D01*
X104034751Y-80548681D01*
X104092206Y-80634668D01*
X104165332Y-80707794D01*
X104251319Y-80765249D01*
X104346863Y-80804824D01*
X104448292Y-80825000D01*
X104551708Y-80825000D01*
X104653137Y-80804824D01*
X104748681Y-80765249D01*
X104834668Y-80707794D01*
X104907794Y-80634668D01*
X104965249Y-80548681D01*
X105004824Y-80453137D01*
X105025000Y-80351708D01*
X105025000Y-80248292D01*
X105024855Y-80247564D01*
X105051323Y-80265249D01*
X105146867Y-80304824D01*
X105248296Y-80325000D01*
X105351712Y-80325000D01*
X105453141Y-80304824D01*
X105548685Y-80265249D01*
X105634672Y-80207794D01*
X105707798Y-80134668D01*
X105765253Y-80048681D01*
X105804828Y-79953137D01*
X105825004Y-79851708D01*
X105825004Y-79748292D01*
X105804828Y-79646863D01*
X105765253Y-79551319D01*
X105707798Y-79465332D01*
X105634672Y-79392206D01*
X105548685Y-79334751D01*
X105453141Y-79295176D01*
X105351712Y-79275000D01*
X105248296Y-79275000D01*
X105207402Y-79283135D01*
X105100010Y-79175743D01*
X105100010Y-64964732D01*
X105101460Y-64950009D01*
X105100010Y-64935286D01*
X105100010Y-64935277D01*
X105095669Y-64891200D01*
X105078514Y-64834650D01*
X105062355Y-64804418D01*
X105050657Y-64782532D01*
X105022559Y-64748295D01*
X105013168Y-64736852D01*
X105001725Y-64727461D01*
X103610000Y-63335737D01*
X103610000Y-62436386D01*
X103623566Y-62433688D01*
X103819203Y-62352652D01*
X103995272Y-62235007D01*
X104145007Y-62085272D01*
X104262652Y-61909203D01*
X104343688Y-61713566D01*
X104371627Y-61573104D01*
X104789028Y-61573104D01*
X104843185Y-61776763D01*
X104936033Y-61965943D01*
X105064005Y-62133375D01*
X105222182Y-62272623D01*
X105404486Y-62378337D01*
X105603911Y-62446454D01*
X105676896Y-62460971D01*
X105845000Y-62418738D01*
X105845000Y-61405000D01*
X105855000Y-61405000D01*
X105855000Y-62418738D01*
X106023104Y-62460971D01*
X106096089Y-62446454D01*
X106295514Y-62378337D01*
X106477818Y-62272623D01*
X106635995Y-62133375D01*
X106763967Y-61965943D01*
X106856815Y-61776763D01*
X106910972Y-61573104D01*
X106868739Y-61405000D01*
X105855000Y-61405000D01*
X105845000Y-61405000D01*
X104831261Y-61405000D01*
X104789028Y-61573104D01*
X104371627Y-61573104D01*
X104385000Y-61505878D01*
X104385000Y-61294122D01*
X104371628Y-61226896D01*
X104789028Y-61226896D01*
X104831261Y-61395000D01*
X105845000Y-61395000D01*
X105845000Y-60381262D01*
X105855000Y-60381262D01*
X105855000Y-61395000D01*
X106868739Y-61395000D01*
X106910972Y-61226896D01*
X106856815Y-61023237D01*
X106763967Y-60834057D01*
X106635995Y-60666625D01*
X106477818Y-60527377D01*
X106295514Y-60421663D01*
X106096089Y-60353546D01*
X106023104Y-60339029D01*
X105855000Y-60381262D01*
X105845000Y-60381262D01*
X105676896Y-60339029D01*
X105603911Y-60353546D01*
X105404486Y-60421663D01*
X105222182Y-60527377D01*
X105064005Y-60666625D01*
X104936033Y-60834057D01*
X104843185Y-61023237D01*
X104789028Y-61226896D01*
X104371628Y-61226896D01*
X104343688Y-61086434D01*
X104262652Y-60890797D01*
X104145007Y-60714728D01*
X103995272Y-60564993D01*
X103819203Y-60447348D01*
X103623566Y-60366312D01*
X103415878Y-60325000D01*
X103204122Y-60325000D01*
X102996434Y-60366312D01*
X102800797Y-60447348D01*
X102624728Y-60564993D01*
X102474993Y-60714728D01*
X102357348Y-60890797D01*
X102276312Y-61086434D01*
X102235000Y-61294122D01*
X102235000Y-61505878D01*
X102276312Y-61713566D01*
X102357348Y-61909203D01*
X102474993Y-62085272D01*
X102624728Y-62235007D01*
X102800797Y-62352652D01*
X102996434Y-62433688D01*
X103010000Y-62436387D01*
X103010000Y-63215737D01*
X101714967Y-61920704D01*
X101722652Y-61909203D01*
X101803688Y-61713566D01*
X101845000Y-61505878D01*
X101845000Y-61294122D01*
X101803688Y-61086434D01*
X101722652Y-60890797D01*
X101605007Y-60714728D01*
X101455272Y-60564993D01*
X101279203Y-60447348D01*
X101083566Y-60366312D01*
X100875878Y-60325000D01*
X100664122Y-60325000D01*
X100456434Y-60366312D01*
X100260797Y-60447348D01*
X100084728Y-60564993D01*
X99934993Y-60714728D01*
X99817348Y-60890797D01*
X99736312Y-61086434D01*
X99695000Y-61294122D01*
X99695000Y-61505878D01*
X99736312Y-61713566D01*
X99817348Y-61909203D01*
X99934993Y-62085272D01*
X100084728Y-62235007D01*
X100260797Y-62352652D01*
X100456434Y-62433688D01*
X100664122Y-62475000D01*
X100875878Y-62475000D01*
X101083566Y-62433688D01*
X101279203Y-62352652D01*
X101290704Y-62344967D01*
X102045737Y-63100000D01*
X100724264Y-63100000D01*
X99275989Y-61651726D01*
X99305000Y-61505878D01*
X99305000Y-61294122D01*
X99263688Y-61086434D01*
X99182652Y-60890797D01*
X99065007Y-60714728D01*
X98915272Y-60564993D01*
X98739203Y-60447348D01*
X98543566Y-60366312D01*
X98335878Y-60325000D01*
X98124122Y-60325000D01*
X97916434Y-60366312D01*
X97720797Y-60447348D01*
X97544728Y-60564993D01*
X97394993Y-60714728D01*
X97277348Y-60890797D01*
X97196312Y-61086434D01*
X97155000Y-61294122D01*
X97155000Y-61505878D01*
X97196312Y-61713566D01*
X97277348Y-61909203D01*
X97394993Y-62085272D01*
X97544728Y-62235007D01*
X97720797Y-62352652D01*
X97916434Y-62433688D01*
X98124122Y-62475000D01*
X98335878Y-62475000D01*
X98543566Y-62433688D01*
X98739203Y-62352652D01*
X98915272Y-62235007D01*
X98963008Y-62187271D01*
X100175746Y-63400010D01*
X98674274Y-63400010D01*
X96765000Y-61490737D01*
X96765000Y-61294122D01*
X96723688Y-61086434D01*
X96642652Y-60890797D01*
X96525007Y-60714728D01*
X96375272Y-60564993D01*
X96199203Y-60447348D01*
X96003566Y-60366312D01*
X95795878Y-60325000D01*
X95584122Y-60325000D01*
X95376434Y-60366312D01*
X95180797Y-60447348D01*
X95004728Y-60564993D01*
X94854993Y-60714728D01*
X94737348Y-60890797D01*
X94656312Y-61086434D01*
X94615000Y-61294122D01*
X94225000Y-61294122D01*
X94183688Y-61086434D01*
X94102652Y-60890797D01*
X93985007Y-60714728D01*
X93835272Y-60564993D01*
X93659203Y-60447348D01*
X93463566Y-60366312D01*
X93255878Y-60325000D01*
X93044122Y-60325000D01*
X92836434Y-60366312D01*
X92640797Y-60447348D01*
X92464728Y-60564993D01*
X92314993Y-60714728D01*
X92197348Y-60890797D01*
X92116312Y-61086434D01*
X92075000Y-61294122D01*
X91685000Y-61294122D01*
X91643688Y-61086434D01*
X91562652Y-60890797D01*
X91445007Y-60714728D01*
X91295272Y-60564993D01*
X91119203Y-60447348D01*
X90923566Y-60366312D01*
X90715878Y-60325000D01*
X90504122Y-60325000D01*
X90296434Y-60366312D01*
X90100797Y-60447348D01*
X89924728Y-60564993D01*
X89774993Y-60714728D01*
X89657348Y-60890797D01*
X89576312Y-61086434D01*
X89535000Y-61294122D01*
X89145000Y-61294122D01*
X89103688Y-61086434D01*
X89022652Y-60890797D01*
X88905007Y-60714728D01*
X88755272Y-60564993D01*
X88579203Y-60447348D01*
X88383566Y-60366312D01*
X88175878Y-60325000D01*
X87964122Y-60325000D01*
X87756434Y-60366312D01*
X87560797Y-60447348D01*
X87384728Y-60564993D01*
X87234993Y-60714728D01*
X87117348Y-60890797D01*
X87036312Y-61086434D01*
X86995000Y-61294122D01*
X86605000Y-61294122D01*
X86563688Y-61086434D01*
X86482652Y-60890797D01*
X86365007Y-60714728D01*
X86215272Y-60564993D01*
X86039203Y-60447348D01*
X85843566Y-60366312D01*
X85635878Y-60325000D01*
X85424122Y-60325000D01*
X85216434Y-60366312D01*
X85020797Y-60447348D01*
X84844728Y-60564993D01*
X84694993Y-60714728D01*
X84577348Y-60890797D01*
X84496312Y-61086434D01*
X84455000Y-61294122D01*
X84065000Y-61294122D01*
X84023688Y-61086434D01*
X83942652Y-60890797D01*
X83825007Y-60714728D01*
X83675272Y-60564993D01*
X83499203Y-60447348D01*
X83303566Y-60366312D01*
X83095878Y-60325000D01*
X82884122Y-60325000D01*
X82676434Y-60366312D01*
X82480797Y-60447348D01*
X82304728Y-60564993D01*
X82154993Y-60714728D01*
X82037348Y-60890797D01*
X81956312Y-61086434D01*
X81915000Y-61294122D01*
X81525000Y-61294122D01*
X81483688Y-61086434D01*
X81402652Y-60890797D01*
X81285007Y-60714728D01*
X81135272Y-60564993D01*
X80959203Y-60447348D01*
X80763566Y-60366312D01*
X80555878Y-60325000D01*
X80344122Y-60325000D01*
X80136434Y-60366312D01*
X79940797Y-60447348D01*
X79764728Y-60564993D01*
X79614993Y-60714728D01*
X79497348Y-60890797D01*
X79416312Y-61086434D01*
X79375000Y-61294122D01*
X79375000Y-61505878D01*
X79416312Y-61713566D01*
X79497348Y-61909203D01*
X79614993Y-62085272D01*
X79764728Y-62235007D01*
X79940797Y-62352652D01*
X80136434Y-62433688D01*
X80150000Y-62436387D01*
X80150001Y-64750735D01*
X79059999Y-65840737D01*
X79059999Y-62264721D01*
X79061449Y-62249998D01*
X79059999Y-62235275D01*
X79059999Y-62235266D01*
X79055658Y-62191189D01*
X79038503Y-62134639D01*
X79010647Y-62082523D01*
X79010646Y-62082521D01*
X78982548Y-62048284D01*
X78973157Y-62036841D01*
X78961715Y-62027451D01*
X78854968Y-61920704D01*
X78862652Y-61909203D01*
X78943688Y-61713566D01*
X78985000Y-61505878D01*
X78985000Y-61294122D01*
X78943688Y-61086434D01*
X78862652Y-60890797D01*
X78745007Y-60714728D01*
X78595272Y-60564993D01*
X78419203Y-60447348D01*
X78223566Y-60366312D01*
X78015878Y-60325000D01*
X77804122Y-60325000D01*
X77596434Y-60366312D01*
X77400797Y-60447348D01*
X77224728Y-60564993D01*
X77074993Y-60714728D01*
X76957348Y-60890797D01*
X76876312Y-61086434D01*
X76835000Y-61294122D01*
X76835000Y-61505878D01*
X76876312Y-61713566D01*
X76957348Y-61909203D01*
X77074993Y-62085272D01*
X77224728Y-62235007D01*
X77400797Y-62352652D01*
X77596434Y-62433688D01*
X77804122Y-62475000D01*
X78015878Y-62475000D01*
X78223566Y-62433688D01*
X78419203Y-62352652D01*
X78430704Y-62344968D01*
X78459999Y-62374263D01*
X78460000Y-65990736D01*
X75175737Y-69275000D01*
X74489722Y-69275000D01*
X74474999Y-69273550D01*
X74460276Y-69275000D01*
X74460267Y-69275000D01*
X74416190Y-69279341D01*
X74359640Y-69296496D01*
X74344035Y-69304837D01*
X74307522Y-69324353D01*
X74283501Y-69344067D01*
X74261842Y-69361842D01*
X74252451Y-69373285D01*
X74042375Y-69583362D01*
X74000167Y-69574966D01*
X73896751Y-69574966D01*
X73795322Y-69595142D01*
X73699778Y-69634717D01*
X73613791Y-69692172D01*
X73540665Y-69765298D01*
X73483210Y-69851285D01*
X73443635Y-69946829D01*
X73423459Y-70048258D01*
X73423459Y-70151674D01*
X73435259Y-70210995D01*
X73316865Y-70092602D01*
X73325000Y-70051708D01*
X73325000Y-69948292D01*
X73304824Y-69846863D01*
X73265249Y-69751319D01*
X73207794Y-69665332D01*
X73134668Y-69592206D01*
X73048681Y-69534751D01*
X72953137Y-69495176D01*
X72851708Y-69475000D01*
X72748292Y-69475000D01*
X72646863Y-69495176D01*
X72551319Y-69534751D01*
X72465332Y-69592206D01*
X72392206Y-69665332D01*
X72334751Y-69751319D01*
X72295176Y-69846863D01*
X72275000Y-69948292D01*
X72275000Y-69991031D01*
X72174245Y-69991031D01*
X72149990Y-69995856D01*
X72149990Y-69952039D01*
X72129814Y-69850610D01*
X72090239Y-69755066D01*
X72032784Y-69669079D01*
X71959658Y-69595953D01*
X71873671Y-69538498D01*
X71778127Y-69498923D01*
X71676698Y-69478747D01*
X71573282Y-69478747D01*
X71471853Y-69498923D01*
X71376309Y-69538498D01*
X71290322Y-69595953D01*
X71217196Y-69669079D01*
X71159741Y-69755066D01*
X71120166Y-69850610D01*
X71099990Y-69952039D01*
X71099990Y-70055455D01*
X71120166Y-70156884D01*
X71159741Y-70252428D01*
X71217196Y-70338415D01*
X71290322Y-70411541D01*
X71324991Y-70434706D01*
X71324991Y-70660257D01*
X71323540Y-70674990D01*
X71329332Y-70733800D01*
X71346487Y-70790350D01*
X71374343Y-70842467D01*
X71401583Y-70875658D01*
X71411833Y-70888148D01*
X71423275Y-70897538D01*
X71952484Y-71426748D01*
X71961875Y-71438191D01*
X71973318Y-71447582D01*
X72007555Y-71475680D01*
X72024139Y-71484544D01*
X72059673Y-71503537D01*
X72116223Y-71520692D01*
X72160300Y-71525033D01*
X72160309Y-71525033D01*
X72175032Y-71526483D01*
X72189755Y-71525033D01*
X75086520Y-71525033D01*
X74411666Y-72199887D01*
X71774151Y-72199887D01*
X70172553Y-70598290D01*
X70163158Y-70586842D01*
X70117477Y-70549353D01*
X70065360Y-70521496D01*
X70008810Y-70504341D01*
X69964733Y-70500000D01*
X69964723Y-70500000D01*
X69950000Y-70498550D01*
X69935277Y-70500000D01*
X69580959Y-70500000D01*
X69557794Y-70465332D01*
X69484668Y-70392206D01*
X69398681Y-70334751D01*
X69303137Y-70295176D01*
X69201708Y-70275000D01*
X69098292Y-70275000D01*
X68996863Y-70295176D01*
X68901319Y-70334751D01*
X68815332Y-70392206D01*
X68742206Y-70465332D01*
X68684751Y-70551319D01*
X68645176Y-70646863D01*
X68625000Y-70748292D01*
X60225500Y-70748292D01*
X60225500Y-68433995D01*
X60285954Y-68433995D01*
X60289876Y-68456044D01*
X60335885Y-68611093D01*
X60411259Y-68754187D01*
X60513101Y-68879827D01*
X60637497Y-68983184D01*
X60779667Y-69060287D01*
X60934147Y-69108172D01*
X61095000Y-69125000D01*
X61445000Y-69125000D01*
X61445000Y-68305000D01*
X61455000Y-68305000D01*
X61455000Y-69125000D01*
X61805000Y-69125000D01*
X61965853Y-69108172D01*
X62120333Y-69060287D01*
X62262503Y-68983184D01*
X62386899Y-68879827D01*
X62488741Y-68754187D01*
X62564115Y-68611093D01*
X62610124Y-68456044D01*
X62614046Y-68433995D01*
X62568734Y-68305000D01*
X61455000Y-68305000D01*
X61445000Y-68305000D01*
X60331266Y-68305000D01*
X60285954Y-68433995D01*
X60225500Y-68433995D01*
X60225500Y-68166005D01*
X60285954Y-68166005D01*
X60331266Y-68295000D01*
X61445000Y-68295000D01*
X61445000Y-67475000D01*
X61455000Y-67475000D01*
X61455000Y-68295000D01*
X62568734Y-68295000D01*
X62614046Y-68166005D01*
X62610124Y-68143956D01*
X62564115Y-67988907D01*
X62537697Y-67938753D01*
X63518318Y-67938753D01*
X63592955Y-68075213D01*
X63754894Y-68168992D01*
X63932018Y-68229375D01*
X64117518Y-68254044D01*
X64304267Y-68242049D01*
X64485088Y-68193852D01*
X64653032Y-68111305D01*
X64707045Y-68075213D01*
X64781682Y-67938753D01*
X64150000Y-67307071D01*
X63518318Y-67938753D01*
X62537697Y-67938753D01*
X62488741Y-67845813D01*
X62386899Y-67720173D01*
X62262503Y-67616816D01*
X62120333Y-67539713D01*
X61965853Y-67491828D01*
X61805000Y-67475000D01*
X61455000Y-67475000D01*
X61445000Y-67475000D01*
X61095000Y-67475000D01*
X60934147Y-67491828D01*
X60779667Y-67539713D01*
X60637497Y-67616816D01*
X60513101Y-67720173D01*
X60411259Y-67845813D01*
X60335885Y-67988907D01*
X60289876Y-68143956D01*
X60285954Y-68166005D01*
X60225500Y-68166005D01*
X60225500Y-67267518D01*
X63195956Y-67267518D01*
X63207951Y-67454267D01*
X63256148Y-67635088D01*
X63338695Y-67803032D01*
X63374787Y-67857045D01*
X63511247Y-67931682D01*
X64142929Y-67300000D01*
X64157071Y-67300000D01*
X64788753Y-67931682D01*
X64925213Y-67857045D01*
X65018992Y-67695106D01*
X65079375Y-67517982D01*
X65104044Y-67332482D01*
X65092049Y-67145733D01*
X65043852Y-66964912D01*
X64961305Y-66796968D01*
X64925213Y-66742955D01*
X64788753Y-66668318D01*
X64157071Y-67300000D01*
X64142929Y-67300000D01*
X63511247Y-66668318D01*
X63374787Y-66742955D01*
X63281008Y-66904894D01*
X63220625Y-67082018D01*
X63195956Y-67267518D01*
X60225500Y-67267518D01*
X60225500Y-66661247D01*
X63518318Y-66661247D01*
X64150000Y-67292929D01*
X64781682Y-66661247D01*
X64707045Y-66524787D01*
X64545106Y-66431008D01*
X64367982Y-66370625D01*
X64182482Y-66345956D01*
X63995733Y-66357951D01*
X63814912Y-66406148D01*
X63646968Y-66488695D01*
X63592955Y-66524787D01*
X63518318Y-66661247D01*
X60225500Y-66661247D01*
X60225500Y-65223303D01*
X65155011Y-65223303D01*
X65155011Y-65326719D01*
X65175187Y-65428148D01*
X65214762Y-65523692D01*
X65272217Y-65609679D01*
X65345343Y-65682805D01*
X65400000Y-65719326D01*
X65400001Y-67019044D01*
X65365336Y-67042206D01*
X65292210Y-67115332D01*
X65234755Y-67201319D01*
X65195180Y-67296863D01*
X65175004Y-67398292D01*
X65175004Y-67501708D01*
X65195180Y-67603137D01*
X65234755Y-67698681D01*
X65292210Y-67784668D01*
X65365336Y-67857794D01*
X65451323Y-67915249D01*
X65546867Y-67954824D01*
X65648296Y-67975000D01*
X65751712Y-67975000D01*
X65853141Y-67954824D01*
X65948685Y-67915249D01*
X66034672Y-67857794D01*
X66107798Y-67784668D01*
X66165253Y-67698681D01*
X66204828Y-67603137D01*
X66225004Y-67501708D01*
X66225004Y-67398292D01*
X66211275Y-67329272D01*
X66234637Y-67338949D01*
X66336066Y-67359125D01*
X66439482Y-67359125D01*
X66540911Y-67338949D01*
X66636455Y-67299374D01*
X66722442Y-67241919D01*
X66795568Y-67168793D01*
X66853023Y-67082806D01*
X66892598Y-66987262D01*
X66912774Y-66885833D01*
X66912774Y-66782417D01*
X66892598Y-66680988D01*
X66853023Y-66585444D01*
X66795568Y-66499457D01*
X66722442Y-66426331D01*
X66636455Y-66368876D01*
X66564998Y-66339278D01*
X66564998Y-66028594D01*
X72575000Y-66028594D01*
X72575000Y-66171406D01*
X72602861Y-66311475D01*
X72657513Y-66443416D01*
X72736856Y-66562161D01*
X72837839Y-66663144D01*
X72956584Y-66742487D01*
X73088525Y-66797139D01*
X73102908Y-66800000D01*
X73088525Y-66802861D01*
X72956584Y-66857513D01*
X72837839Y-66936856D01*
X72736856Y-67037839D01*
X72657513Y-67156584D01*
X72602861Y-67288525D01*
X72575000Y-67428594D01*
X72575000Y-67571406D01*
X72602861Y-67711475D01*
X72657513Y-67843416D01*
X72736856Y-67962161D01*
X72837839Y-68063144D01*
X72956584Y-68142487D01*
X73088525Y-68197139D01*
X73228594Y-68225000D01*
X73371406Y-68225000D01*
X73511475Y-68197139D01*
X73643416Y-68142487D01*
X73762161Y-68063144D01*
X73863144Y-67962161D01*
X73942487Y-67843416D01*
X73997139Y-67711475D01*
X74025000Y-67571406D01*
X74025000Y-67428594D01*
X73997139Y-67288525D01*
X73942487Y-67156584D01*
X73863144Y-67037839D01*
X73762161Y-66936856D01*
X73643416Y-66857513D01*
X73511475Y-66802861D01*
X73497092Y-66800000D01*
X73511475Y-66797139D01*
X73643416Y-66742487D01*
X73762161Y-66663144D01*
X73863144Y-66562161D01*
X73942487Y-66443416D01*
X73997139Y-66311475D01*
X74025000Y-66171406D01*
X74025000Y-66028594D01*
X74575000Y-66028594D01*
X74575000Y-66171406D01*
X74602861Y-66311475D01*
X74657513Y-66443416D01*
X74736856Y-66562161D01*
X74837839Y-66663144D01*
X74956584Y-66742487D01*
X75088525Y-66797139D01*
X75102908Y-66800000D01*
X75088525Y-66802861D01*
X74956584Y-66857513D01*
X74837839Y-66936856D01*
X74736856Y-67037839D01*
X74657513Y-67156584D01*
X74602861Y-67288525D01*
X74575000Y-67428594D01*
X74575000Y-67571406D01*
X74602861Y-67711475D01*
X74657513Y-67843416D01*
X74736856Y-67962161D01*
X74837839Y-68063144D01*
X74956584Y-68142487D01*
X75088525Y-68197139D01*
X75228594Y-68225000D01*
X75371406Y-68225000D01*
X75511475Y-68197139D01*
X75643416Y-68142487D01*
X75762161Y-68063144D01*
X75863144Y-67962161D01*
X75942487Y-67843416D01*
X75997139Y-67711475D01*
X76025000Y-67571406D01*
X76025000Y-67428594D01*
X75997139Y-67288525D01*
X75942487Y-67156584D01*
X75863144Y-67037839D01*
X75762161Y-66936856D01*
X75643416Y-66857513D01*
X75511475Y-66802861D01*
X75497092Y-66800000D01*
X75511475Y-66797139D01*
X75643416Y-66742487D01*
X75762161Y-66663144D01*
X75863144Y-66562161D01*
X75942487Y-66443416D01*
X75997139Y-66311475D01*
X76025000Y-66171406D01*
X76025000Y-66028594D01*
X75997139Y-65888525D01*
X75942487Y-65756584D01*
X75863144Y-65637839D01*
X75762161Y-65536856D01*
X75643416Y-65457513D01*
X75511475Y-65402861D01*
X75371406Y-65375000D01*
X75228594Y-65375000D01*
X75088525Y-65402861D01*
X74956584Y-65457513D01*
X74837839Y-65536856D01*
X74736856Y-65637839D01*
X74657513Y-65756584D01*
X74602861Y-65888525D01*
X74575000Y-66028594D01*
X74025000Y-66028594D01*
X73997139Y-65888525D01*
X73942487Y-65756584D01*
X73863144Y-65637839D01*
X73762161Y-65536856D01*
X73643416Y-65457513D01*
X73511475Y-65402861D01*
X73371406Y-65375000D01*
X73228594Y-65375000D01*
X73088525Y-65402861D01*
X72956584Y-65457513D01*
X72837839Y-65536856D01*
X72736856Y-65637839D01*
X72657513Y-65756584D01*
X72602861Y-65888525D01*
X72575000Y-66028594D01*
X66564998Y-66028594D01*
X66564998Y-64880959D01*
X66599666Y-64857794D01*
X66672792Y-64784668D01*
X66730247Y-64698681D01*
X66769822Y-64603137D01*
X66789998Y-64501708D01*
X66789998Y-64398292D01*
X66769822Y-64296863D01*
X66730247Y-64201319D01*
X66672792Y-64115332D01*
X66599666Y-64042206D01*
X66513679Y-63984751D01*
X66418135Y-63945176D01*
X66316706Y-63925000D01*
X66213290Y-63925000D01*
X66111861Y-63945176D01*
X66016317Y-63984751D01*
X65930330Y-64042206D01*
X65857204Y-64115332D01*
X65799749Y-64201319D01*
X65760174Y-64296863D01*
X65739998Y-64398292D01*
X65739998Y-64501708D01*
X65760174Y-64603137D01*
X65799749Y-64698681D01*
X65853031Y-64778423D01*
X65833148Y-64770187D01*
X65731719Y-64750011D01*
X65628303Y-64750011D01*
X65526874Y-64770187D01*
X65431330Y-64809762D01*
X65345343Y-64867217D01*
X65272217Y-64940343D01*
X65214762Y-65026330D01*
X65175187Y-65121874D01*
X65155011Y-65223303D01*
X60225500Y-65223303D01*
X60225500Y-62938753D01*
X63518318Y-62938753D01*
X63592955Y-63075213D01*
X63754894Y-63168992D01*
X63932018Y-63229375D01*
X64117518Y-63254044D01*
X64304267Y-63242049D01*
X64485088Y-63193852D01*
X64653032Y-63111305D01*
X64707045Y-63075213D01*
X64776464Y-62948292D01*
X76225000Y-62948292D01*
X76225000Y-63051708D01*
X76245176Y-63153137D01*
X76284751Y-63248681D01*
X76342206Y-63334668D01*
X76375001Y-63367463D01*
X76375000Y-65882532D01*
X76342206Y-65915326D01*
X76284751Y-66001313D01*
X76245176Y-66096857D01*
X76225000Y-66198286D01*
X76225000Y-66301702D01*
X76245176Y-66403131D01*
X76284751Y-66498675D01*
X76342206Y-66584662D01*
X76415332Y-66657788D01*
X76501319Y-66715243D01*
X76596863Y-66754818D01*
X76698292Y-66774994D01*
X76801708Y-66774994D01*
X76903137Y-66754818D01*
X76998681Y-66715243D01*
X77084668Y-66657788D01*
X77157794Y-66584662D01*
X77215249Y-66498675D01*
X77254824Y-66403131D01*
X77275000Y-66301702D01*
X77275000Y-66198286D01*
X77254824Y-66096857D01*
X77215249Y-66001313D01*
X77157794Y-65915326D01*
X77125000Y-65882532D01*
X77125000Y-63367462D01*
X77157794Y-63334668D01*
X77215249Y-63248681D01*
X77254824Y-63153137D01*
X77275000Y-63051708D01*
X77275000Y-62948292D01*
X77254824Y-62846863D01*
X77215249Y-62751319D01*
X77157794Y-62665332D01*
X77084668Y-62592206D01*
X76998681Y-62534751D01*
X76903137Y-62495176D01*
X76801708Y-62475000D01*
X76698292Y-62475000D01*
X76596863Y-62495176D01*
X76501319Y-62534751D01*
X76415332Y-62592206D01*
X76342206Y-62665332D01*
X76284751Y-62751319D01*
X76245176Y-62846863D01*
X76225000Y-62948292D01*
X64776464Y-62948292D01*
X64781682Y-62938753D01*
X64150000Y-62307071D01*
X63518318Y-62938753D01*
X60225500Y-62938753D01*
X60225500Y-62267518D01*
X63195956Y-62267518D01*
X63207951Y-62454267D01*
X63256148Y-62635088D01*
X63338695Y-62803032D01*
X63374787Y-62857045D01*
X63511247Y-62931682D01*
X64142929Y-62300000D01*
X64157071Y-62300000D01*
X64788753Y-62931682D01*
X64925213Y-62857045D01*
X65018992Y-62695106D01*
X65079375Y-62517982D01*
X65104044Y-62332482D01*
X65092049Y-62145733D01*
X65043852Y-61964912D01*
X64961305Y-61796968D01*
X64925213Y-61742955D01*
X64788753Y-61668318D01*
X64157071Y-62300000D01*
X64142929Y-62300000D01*
X63511247Y-61668318D01*
X63374787Y-61742955D01*
X63281008Y-61904894D01*
X63220625Y-62082018D01*
X63195956Y-62267518D01*
X60225500Y-62267518D01*
X60225500Y-61300000D01*
X60271009Y-61300000D01*
X60286938Y-61461728D01*
X60334112Y-61617241D01*
X60410719Y-61760563D01*
X60513815Y-61886185D01*
X60639437Y-61989281D01*
X60782759Y-62065888D01*
X60938272Y-62113062D01*
X61059479Y-62125000D01*
X61840521Y-62125000D01*
X61961728Y-62113062D01*
X62117241Y-62065888D01*
X62260563Y-61989281D01*
X62386185Y-61886185D01*
X62489281Y-61760563D01*
X62542366Y-61661247D01*
X63518318Y-61661247D01*
X64150000Y-62292929D01*
X64781682Y-61661247D01*
X64707045Y-61524787D01*
X64545106Y-61431008D01*
X64367982Y-61370625D01*
X64182482Y-61345956D01*
X63995733Y-61357951D01*
X63814912Y-61406148D01*
X63646968Y-61488695D01*
X63592955Y-61524787D01*
X63518318Y-61661247D01*
X62542366Y-61661247D01*
X62565888Y-61617241D01*
X62613062Y-61461728D01*
X62628991Y-61300000D01*
X62613062Y-61138272D01*
X62565888Y-60982759D01*
X62489281Y-60839437D01*
X62386185Y-60713815D01*
X62260563Y-60610719D01*
X62146966Y-60550000D01*
X66673912Y-60550000D01*
X66673912Y-62250000D01*
X66678256Y-62294108D01*
X66691122Y-62336520D01*
X66712015Y-62375608D01*
X66740132Y-62409868D01*
X66774392Y-62437985D01*
X66813480Y-62458878D01*
X66855892Y-62471744D01*
X66900000Y-62476088D01*
X68600000Y-62476088D01*
X68644108Y-62471744D01*
X68686520Y-62458878D01*
X68725608Y-62437985D01*
X68759868Y-62409868D01*
X68787985Y-62375608D01*
X68808878Y-62336520D01*
X68821744Y-62294108D01*
X68826088Y-62250000D01*
X68826088Y-61294122D01*
X69215000Y-61294122D01*
X69215000Y-61505878D01*
X69256312Y-61713566D01*
X69337348Y-61909203D01*
X69454993Y-62085272D01*
X69604728Y-62235007D01*
X69780797Y-62352652D01*
X69976434Y-62433688D01*
X70184122Y-62475000D01*
X70395878Y-62475000D01*
X70603566Y-62433688D01*
X70799203Y-62352652D01*
X70975272Y-62235007D01*
X71125007Y-62085272D01*
X71242652Y-61909203D01*
X71323688Y-61713566D01*
X71365000Y-61505878D01*
X71365000Y-61294122D01*
X71755000Y-61294122D01*
X71755000Y-61505878D01*
X71796312Y-61713566D01*
X71877348Y-61909203D01*
X71994993Y-62085272D01*
X72144728Y-62235007D01*
X72320797Y-62352652D01*
X72516434Y-62433688D01*
X72724122Y-62475000D01*
X72935878Y-62475000D01*
X73143566Y-62433688D01*
X73339203Y-62352652D01*
X73515272Y-62235007D01*
X73665007Y-62085272D01*
X73782652Y-61909203D01*
X73863688Y-61713566D01*
X73891627Y-61573104D01*
X74309028Y-61573104D01*
X74363185Y-61776763D01*
X74456033Y-61965943D01*
X74584005Y-62133375D01*
X74742182Y-62272623D01*
X74924486Y-62378337D01*
X75123911Y-62446454D01*
X75196896Y-62460971D01*
X75365000Y-62418738D01*
X75365000Y-61405000D01*
X75375000Y-61405000D01*
X75375000Y-62418738D01*
X75543104Y-62460971D01*
X75616089Y-62446454D01*
X75815514Y-62378337D01*
X75997818Y-62272623D01*
X76155995Y-62133375D01*
X76283967Y-61965943D01*
X76376815Y-61776763D01*
X76430972Y-61573104D01*
X76388739Y-61405000D01*
X75375000Y-61405000D01*
X75365000Y-61405000D01*
X74351261Y-61405000D01*
X74309028Y-61573104D01*
X73891627Y-61573104D01*
X73905000Y-61505878D01*
X73905000Y-61294122D01*
X73891628Y-61226896D01*
X74309028Y-61226896D01*
X74351261Y-61395000D01*
X75365000Y-61395000D01*
X75365000Y-60381262D01*
X75375000Y-60381262D01*
X75375000Y-61395000D01*
X76388739Y-61395000D01*
X76430972Y-61226896D01*
X76376815Y-61023237D01*
X76283967Y-60834057D01*
X76155995Y-60666625D01*
X75997818Y-60527377D01*
X75815514Y-60421663D01*
X75616089Y-60353546D01*
X75543104Y-60339029D01*
X75375000Y-60381262D01*
X75365000Y-60381262D01*
X75196896Y-60339029D01*
X75123911Y-60353546D01*
X74924486Y-60421663D01*
X74742182Y-60527377D01*
X74584005Y-60666625D01*
X74456033Y-60834057D01*
X74363185Y-61023237D01*
X74309028Y-61226896D01*
X73891628Y-61226896D01*
X73863688Y-61086434D01*
X73782652Y-60890797D01*
X73665007Y-60714728D01*
X73515272Y-60564993D01*
X73339203Y-60447348D01*
X73143566Y-60366312D01*
X72935878Y-60325000D01*
X72724122Y-60325000D01*
X72516434Y-60366312D01*
X72320797Y-60447348D01*
X72144728Y-60564993D01*
X71994993Y-60714728D01*
X71877348Y-60890797D01*
X71796312Y-61086434D01*
X71755000Y-61294122D01*
X71365000Y-61294122D01*
X71323688Y-61086434D01*
X71242652Y-60890797D01*
X71125007Y-60714728D01*
X70975272Y-60564993D01*
X70799203Y-60447348D01*
X70603566Y-60366312D01*
X70395878Y-60325000D01*
X70184122Y-60325000D01*
X69976434Y-60366312D01*
X69780797Y-60447348D01*
X69604728Y-60564993D01*
X69454993Y-60714728D01*
X69337348Y-60890797D01*
X69256312Y-61086434D01*
X69215000Y-61294122D01*
X68826088Y-61294122D01*
X68826088Y-60550000D01*
X68821744Y-60505892D01*
X68808878Y-60463480D01*
X68787985Y-60424392D01*
X68759868Y-60390132D01*
X68725608Y-60362015D01*
X68686520Y-60341122D01*
X68644108Y-60328256D01*
X68600000Y-60323912D01*
X66900000Y-60323912D01*
X66855892Y-60328256D01*
X66813480Y-60341122D01*
X66774392Y-60362015D01*
X66740132Y-60390132D01*
X66712015Y-60424392D01*
X66691122Y-60463480D01*
X66678256Y-60505892D01*
X66673912Y-60550000D01*
X62146966Y-60550000D01*
X62117241Y-60534112D01*
X61961728Y-60486938D01*
X61840521Y-60475000D01*
X61059479Y-60475000D01*
X60938272Y-60486938D01*
X60782759Y-60534112D01*
X60639437Y-60610719D01*
X60513815Y-60713815D01*
X60410719Y-60839437D01*
X60334112Y-60982759D01*
X60286938Y-61138272D01*
X60271009Y-61300000D01*
X60225500Y-61300000D01*
X60225500Y-60225500D01*
X107774500Y-60225500D01*
X107774501Y-84770000D01*
M02*
