G04 #@! TF.GenerationSoftware,KiCad,Pcbnew,5.1.5*
G04 #@! TF.CreationDate,2020-05-09T11:52:46+02:00*
G04 #@! TF.ProjectId,nucular-keyboard,6e756375-6c61-4722-9d6b-6579626f6172,rev?*
G04 #@! TF.SameCoordinates,Original*
G04 #@! TF.FileFunction,Legend,Top*
G04 #@! TF.FilePolarity,Positive*
%FSLAX46Y46*%
G04 Gerber Fmt 4.6, Leading zero omitted, Abs format (unit mm)*
G04 Created by KiCad (PCBNEW 5.1.5) date 2020-05-09 11:52:46*
%MOMM*%
%LPD*%
G04 APERTURE LIST*
%ADD10C,0.150000*%
G04 APERTURE END LIST*
D10*
X109847619Y-76070857D02*
X109800000Y-76023238D01*
X109752380Y-75928000D01*
X109752380Y-75689904D01*
X109800000Y-75594666D01*
X109847619Y-75547047D01*
X109942857Y-75499428D01*
X110038095Y-75499428D01*
X110180952Y-75547047D01*
X110752380Y-76118476D01*
X110752380Y-75499428D01*
X109752380Y-74642285D02*
X109752380Y-74832761D01*
X109800000Y-74928000D01*
X109847619Y-74975619D01*
X109990476Y-75070857D01*
X110180952Y-75118476D01*
X110561904Y-75118476D01*
X110657142Y-75070857D01*
X110704761Y-75023238D01*
X110752380Y-74928000D01*
X110752380Y-74737523D01*
X110704761Y-74642285D01*
X110657142Y-74594666D01*
X110561904Y-74547047D01*
X110323809Y-74547047D01*
X110228571Y-74594666D01*
X110180952Y-74642285D01*
X110133333Y-74737523D01*
X110133333Y-74928000D01*
X110180952Y-75023238D01*
X110228571Y-75070857D01*
X110323809Y-75118476D01*
X110704761Y-74070857D02*
X110752380Y-74070857D01*
X110847619Y-74118476D01*
X110895238Y-74166095D01*
X109752380Y-73451809D02*
X109752380Y-73356571D01*
X109800000Y-73261333D01*
X109847619Y-73213714D01*
X109942857Y-73166095D01*
X110133333Y-73118476D01*
X110371428Y-73118476D01*
X110561904Y-73166095D01*
X110657142Y-73213714D01*
X110704761Y-73261333D01*
X110752380Y-73356571D01*
X110752380Y-73451809D01*
X110704761Y-73547047D01*
X110657142Y-73594666D01*
X110561904Y-73642285D01*
X110371428Y-73689904D01*
X110133333Y-73689904D01*
X109942857Y-73642285D01*
X109847619Y-73594666D01*
X109800000Y-73547047D01*
X109752380Y-73451809D01*
X109752380Y-72499428D02*
X109752380Y-72404190D01*
X109800000Y-72308952D01*
X109847619Y-72261333D01*
X109942857Y-72213714D01*
X110133333Y-72166095D01*
X110371428Y-72166095D01*
X110561904Y-72213714D01*
X110657142Y-72261333D01*
X110704761Y-72308952D01*
X110752380Y-72404190D01*
X110752380Y-72499428D01*
X110704761Y-72594666D01*
X110657142Y-72642285D01*
X110561904Y-72689904D01*
X110371428Y-72737523D01*
X110133333Y-72737523D01*
X109942857Y-72689904D01*
X109847619Y-72642285D01*
X109800000Y-72594666D01*
X109752380Y-72499428D01*
X109752380Y-71547047D02*
X109752380Y-71451809D01*
X109800000Y-71356571D01*
X109847619Y-71308952D01*
X109942857Y-71261333D01*
X110133333Y-71213714D01*
X110371428Y-71213714D01*
X110561904Y-71261333D01*
X110657142Y-71308952D01*
X110704761Y-71356571D01*
X110752380Y-71451809D01*
X110752380Y-71547047D01*
X110704761Y-71642285D01*
X110657142Y-71689904D01*
X110561904Y-71737523D01*
X110371428Y-71785142D01*
X110133333Y-71785142D01*
X109942857Y-71737523D01*
X109847619Y-71689904D01*
X109800000Y-71642285D01*
X109752380Y-71547047D01*
X110752380Y-70023238D02*
X110085714Y-70023238D01*
X110180952Y-70023238D02*
X110133333Y-69975619D01*
X110085714Y-69880380D01*
X110085714Y-69737523D01*
X110133333Y-69642285D01*
X110228571Y-69594666D01*
X110752380Y-69594666D01*
X110228571Y-69594666D02*
X110133333Y-69547047D01*
X110085714Y-69451809D01*
X110085714Y-69308952D01*
X110133333Y-69213714D01*
X110228571Y-69166095D01*
X110752380Y-69166095D01*
X110752380Y-68689904D02*
X110085714Y-68689904D01*
X110180952Y-68689904D02*
X110133333Y-68642285D01*
X110085714Y-68547047D01*
X110085714Y-68404190D01*
X110133333Y-68308952D01*
X110228571Y-68261333D01*
X110752380Y-68261333D01*
X110228571Y-68261333D02*
X110133333Y-68213714D01*
X110085714Y-68118476D01*
X110085714Y-67975619D01*
X110133333Y-67880380D01*
X110228571Y-67832761D01*
X110752380Y-67832761D01*
X109000000Y-84928000D02*
X109000000Y-58928000D01*
X108000000Y-84928000D02*
X109586421Y-84928000D01*
X108000000Y-58928000D02*
X109586421Y-58928000D01*
X109000000Y-58928000D02*
X109586421Y-60054504D01*
X109000000Y-58928000D02*
X108413579Y-60054504D01*
X109000000Y-84928000D02*
X109586421Y-83801496D01*
X109000000Y-84928000D02*
X108413579Y-83801496D01*
X80333333Y-90085714D02*
X80333333Y-90752380D01*
X80095238Y-89704761D02*
X79857142Y-90419047D01*
X80476190Y-90419047D01*
X81000000Y-90180952D02*
X80904761Y-90133333D01*
X80857142Y-90085714D01*
X80809523Y-89990476D01*
X80809523Y-89942857D01*
X80857142Y-89847619D01*
X80904761Y-89800000D01*
X81000000Y-89752380D01*
X81190476Y-89752380D01*
X81285714Y-89800000D01*
X81333333Y-89847619D01*
X81380952Y-89942857D01*
X81380952Y-89990476D01*
X81333333Y-90085714D01*
X81285714Y-90133333D01*
X81190476Y-90180952D01*
X81000000Y-90180952D01*
X80904761Y-90228571D01*
X80857142Y-90276190D01*
X80809523Y-90371428D01*
X80809523Y-90561904D01*
X80857142Y-90657142D01*
X80904761Y-90704761D01*
X81000000Y-90752380D01*
X81190476Y-90752380D01*
X81285714Y-90704761D01*
X81333333Y-90657142D01*
X81380952Y-90561904D01*
X81380952Y-90371428D01*
X81333333Y-90276190D01*
X81285714Y-90228571D01*
X81190476Y-90180952D01*
X81857142Y-90704761D02*
X81857142Y-90752380D01*
X81809523Y-90847619D01*
X81761904Y-90895238D01*
X82476190Y-89752380D02*
X82571428Y-89752380D01*
X82666666Y-89800000D01*
X82714285Y-89847619D01*
X82761904Y-89942857D01*
X82809523Y-90133333D01*
X82809523Y-90371428D01*
X82761904Y-90561904D01*
X82714285Y-90657142D01*
X82666666Y-90704761D01*
X82571428Y-90752380D01*
X82476190Y-90752380D01*
X82380952Y-90704761D01*
X82333333Y-90657142D01*
X82285714Y-90561904D01*
X82238095Y-90371428D01*
X82238095Y-90133333D01*
X82285714Y-89942857D01*
X82333333Y-89847619D01*
X82380952Y-89800000D01*
X82476190Y-89752380D01*
X83428571Y-89752380D02*
X83523809Y-89752380D01*
X83619047Y-89800000D01*
X83666666Y-89847619D01*
X83714285Y-89942857D01*
X83761904Y-90133333D01*
X83761904Y-90371428D01*
X83714285Y-90561904D01*
X83666666Y-90657142D01*
X83619047Y-90704761D01*
X83523809Y-90752380D01*
X83428571Y-90752380D01*
X83333333Y-90704761D01*
X83285714Y-90657142D01*
X83238095Y-90561904D01*
X83190476Y-90371428D01*
X83190476Y-90133333D01*
X83238095Y-89942857D01*
X83285714Y-89847619D01*
X83333333Y-89800000D01*
X83428571Y-89752380D01*
X84380952Y-89752380D02*
X84476190Y-89752380D01*
X84571428Y-89800000D01*
X84619047Y-89847619D01*
X84666666Y-89942857D01*
X84714285Y-90133333D01*
X84714285Y-90371428D01*
X84666666Y-90561904D01*
X84619047Y-90657142D01*
X84571428Y-90704761D01*
X84476190Y-90752380D01*
X84380952Y-90752380D01*
X84285714Y-90704761D01*
X84238095Y-90657142D01*
X84190476Y-90561904D01*
X84142857Y-90371428D01*
X84142857Y-90133333D01*
X84190476Y-89942857D01*
X84238095Y-89847619D01*
X84285714Y-89800000D01*
X84380952Y-89752380D01*
X85904761Y-90752380D02*
X85904761Y-90085714D01*
X85904761Y-90180952D02*
X85952380Y-90133333D01*
X86047619Y-90085714D01*
X86190476Y-90085714D01*
X86285714Y-90133333D01*
X86333333Y-90228571D01*
X86333333Y-90752380D01*
X86333333Y-90228571D02*
X86380952Y-90133333D01*
X86476190Y-90085714D01*
X86619047Y-90085714D01*
X86714285Y-90133333D01*
X86761904Y-90228571D01*
X86761904Y-90752380D01*
X87238095Y-90752380D02*
X87238095Y-90085714D01*
X87238095Y-90180952D02*
X87285714Y-90133333D01*
X87380952Y-90085714D01*
X87523809Y-90085714D01*
X87619047Y-90133333D01*
X87666666Y-90228571D01*
X87666666Y-90752380D01*
X87666666Y-90228571D02*
X87714285Y-90133333D01*
X87809523Y-90085714D01*
X87952380Y-90085714D01*
X88047619Y-90133333D01*
X88095238Y-90228571D01*
X88095238Y-90752380D01*
X108000000Y-89000000D02*
X60000000Y-89000000D01*
X108000000Y-85000000D02*
X108000000Y-89586421D01*
X60000000Y-85000000D02*
X60000000Y-89586421D01*
X60000000Y-89000000D02*
X61126504Y-88413579D01*
X60000000Y-89000000D02*
X61126504Y-89586421D01*
X108000000Y-89000000D02*
X106873496Y-88413579D01*
X108000000Y-89000000D02*
X106873496Y-89586421D01*
X102706148Y-65434633D02*
X102412338Y-64738239D01*
X102838709Y-65110663D01*
X102845351Y-64488239D01*
X103139161Y-65184633D01*
X103448456Y-65006062D02*
X103154646Y-64309668D01*
X104100922Y-64546881D02*
X104083984Y-64597900D01*
X104005186Y-64684633D01*
X103943327Y-64720347D01*
X103836548Y-64740757D01*
X103746707Y-64710148D01*
X103687796Y-64661682D01*
X103600902Y-64546893D01*
X103558929Y-64447408D01*
X103533895Y-64296904D01*
X103536843Y-64212724D01*
X103570720Y-64110686D01*
X103649517Y-64023953D01*
X103711376Y-63988239D01*
X103818156Y-63967829D01*
X103863076Y-63983134D01*
X99804065Y-65666776D02*
X99510255Y-64970382D01*
X99936626Y-65342806D01*
X99943268Y-64720382D01*
X100237078Y-65416776D01*
X100252562Y-64541810D02*
X100490409Y-65105558D01*
X100549320Y-65154024D01*
X100594240Y-65169329D01*
X100670090Y-65166776D01*
X100793808Y-65095347D01*
X100841676Y-65026471D01*
X100858615Y-64975453D01*
X100861562Y-64891272D01*
X100623716Y-64327525D01*
X100840222Y-64202525D02*
X101211376Y-63988239D01*
X101319609Y-64791776D02*
X101025799Y-64095382D01*
X101567792Y-64194855D02*
X101784298Y-64069855D01*
X102030987Y-64381062D02*
X101721693Y-64559633D01*
X101427883Y-63863239D01*
X101737177Y-63684668D01*
X97436036Y-65532847D02*
X97142226Y-64836453D01*
X97389662Y-64693596D01*
X97465512Y-64691044D01*
X97510432Y-64706348D01*
X97569344Y-64754814D01*
X97611316Y-64854299D01*
X97608369Y-64938479D01*
X97591430Y-64989498D01*
X97543562Y-65058374D01*
X97296126Y-65201231D01*
X97729886Y-64497168D02*
X98178344Y-65104276D01*
X98092197Y-64535423D01*
X98425779Y-64961419D01*
X98286617Y-64175739D01*
X99199016Y-64514990D02*
X98842600Y-64308374D01*
X98827863Y-64729276D02*
X98534052Y-64032882D01*
X98781488Y-63890025D01*
X98857338Y-63887472D01*
X98902259Y-63902777D01*
X98961170Y-63951243D01*
X99003143Y-64050728D01*
X99000195Y-64134908D01*
X98983257Y-64185927D01*
X98935389Y-64254803D01*
X98687953Y-64397660D01*
X95062702Y-65377238D02*
X95045763Y-65428257D01*
X94966966Y-65514990D01*
X94905107Y-65550705D01*
X94798327Y-65571114D01*
X94708486Y-65540505D01*
X94649575Y-65492039D01*
X94562682Y-65377250D01*
X94520709Y-65277765D01*
X94495674Y-65127261D01*
X94498622Y-65043081D01*
X94532499Y-64941044D01*
X94611296Y-64854310D01*
X94673155Y-64818596D01*
X94779935Y-64798186D01*
X94824855Y-64813491D01*
X95254174Y-65101735D02*
X95563468Y-64923163D01*
X95276260Y-65336419D02*
X95198957Y-64515025D01*
X95709273Y-65086419D01*
X95925779Y-64961419D02*
X95631969Y-64265025D01*
X95879405Y-64122168D01*
X95955255Y-64119615D01*
X96000175Y-64134919D01*
X96059087Y-64183386D01*
X96101060Y-64282870D01*
X96098112Y-64367051D01*
X96081174Y-64418070D01*
X96033306Y-64486945D01*
X95785870Y-64629803D01*
X96530378Y-64571114D02*
X96637157Y-64550705D01*
X96791805Y-64461419D01*
X96839673Y-64392543D01*
X96856611Y-64341524D01*
X96859559Y-64257344D01*
X96831577Y-64191021D01*
X96772666Y-64142554D01*
X96727745Y-64127250D01*
X96651895Y-64129803D01*
X96514186Y-64168070D01*
X96438336Y-64170622D01*
X96393416Y-64155318D01*
X96334505Y-64106852D01*
X96306523Y-64040528D01*
X96309470Y-63956348D01*
X96326409Y-63905329D01*
X96374277Y-63836453D01*
X96528924Y-63747168D01*
X96635704Y-63726758D01*
X92405107Y-65550705D02*
X92111296Y-64854310D01*
X92776260Y-65336419D01*
X92482450Y-64640025D01*
X92791745Y-64461453D02*
X93029591Y-65025201D01*
X93088503Y-65073667D01*
X93133423Y-65088971D01*
X93209273Y-65086419D01*
X93332991Y-65014990D01*
X93380859Y-64946114D01*
X93397797Y-64895096D01*
X93400745Y-64810915D01*
X93162899Y-64247168D01*
X93766004Y-64764990D02*
X93472194Y-64068596D01*
X93898564Y-64441021D01*
X93905206Y-63818596D01*
X94199016Y-64514990D01*
X89590074Y-65633614D02*
X89696853Y-65613205D01*
X89851501Y-65523919D01*
X89899369Y-65455043D01*
X89916307Y-65404024D01*
X89919255Y-65319844D01*
X89891273Y-65253521D01*
X89832362Y-65205054D01*
X89787441Y-65189750D01*
X89711591Y-65192303D01*
X89573882Y-65230570D01*
X89498032Y-65233122D01*
X89453112Y-65217818D01*
X89394201Y-65169352D01*
X89366219Y-65103028D01*
X89369166Y-65018848D01*
X89386105Y-64967829D01*
X89433973Y-64898953D01*
X89588620Y-64809668D01*
X89695400Y-64789258D01*
X90596756Y-65011167D02*
X90579817Y-65062186D01*
X90501020Y-65148919D01*
X90439161Y-65184633D01*
X90332381Y-65205043D01*
X90242541Y-65174434D01*
X90183629Y-65125968D01*
X90096736Y-65011179D01*
X90054763Y-64911694D01*
X90029729Y-64761190D01*
X90032676Y-64677010D01*
X90066553Y-64574972D01*
X90145351Y-64488239D01*
X90207210Y-64452525D01*
X90313989Y-64432115D01*
X90358910Y-64447419D01*
X91274257Y-64702490D02*
X90917841Y-64495874D01*
X90903103Y-64916776D02*
X90609293Y-64220382D01*
X90856729Y-64077525D01*
X90932579Y-64074972D01*
X90977499Y-64090277D01*
X91036411Y-64138743D01*
X91078383Y-64238228D01*
X91075436Y-64322408D01*
X91058497Y-64373427D01*
X91010629Y-64442303D01*
X90763193Y-64585160D01*
X91861917Y-64363205D02*
X91552622Y-64541776D01*
X91258812Y-63845382D01*
X87213949Y-65298163D02*
X87523244Y-65119592D01*
X87236036Y-65532847D02*
X87158732Y-64711453D01*
X87669049Y-65282847D01*
X87591745Y-64461453D02*
X87829591Y-65025201D01*
X87888503Y-65073667D01*
X87933423Y-65088971D01*
X88009273Y-65086419D01*
X88132991Y-65014990D01*
X88180859Y-64946114D01*
X88197797Y-64895096D01*
X88200745Y-64810915D01*
X87962899Y-64247168D01*
X88210335Y-64104310D02*
X88937157Y-64550705D01*
X88643347Y-63854310D02*
X88504145Y-64800705D01*
X84736036Y-65532847D02*
X84426741Y-65711419D01*
X84132931Y-65015025D01*
X84952542Y-65407847D02*
X84658732Y-64711453D01*
X85322242Y-64369615D02*
X85246392Y-64372168D01*
X85153604Y-64425739D01*
X85074806Y-64512472D01*
X85040929Y-64614510D01*
X85037982Y-64698690D01*
X85063016Y-64849194D01*
X85104989Y-64948679D01*
X85191882Y-65063468D01*
X85250794Y-65111934D01*
X85340635Y-65142543D01*
X85447414Y-65122133D01*
X85509273Y-65086419D01*
X85588070Y-64999686D01*
X85605009Y-64948667D01*
X85507072Y-64716536D01*
X85383354Y-64787964D01*
X85911356Y-64854276D02*
X85617546Y-64157882D01*
X85757456Y-64489498D02*
X86128609Y-64275212D01*
X86282510Y-64639990D02*
X85988700Y-63943596D01*
X86205206Y-63818596D02*
X86576360Y-63604310D01*
X86684593Y-64407847D02*
X86390783Y-63711453D01*
X107180000Y-62036000D02*
X107180000Y-59376000D01*
X69020000Y-62036000D02*
X107180000Y-62036000D01*
X69020000Y-59376000D02*
X107180000Y-59376000D01*
X69020000Y-62036000D02*
X69020000Y-59376000D01*
X67750000Y-62036000D02*
X66420000Y-62036000D01*
X66420000Y-62036000D02*
X66420000Y-60706000D01*
X76000000Y-67500000D02*
G75*
G03X76000000Y-67500000I-700000J0D01*
G01*
X76000000Y-66100000D02*
G75*
G03X76000000Y-66100000I-700000J0D01*
G01*
X74000000Y-66100000D02*
G75*
G03X74000000Y-66100000I-700000J0D01*
G01*
X74000000Y-67500000D02*
G75*
G03X74000000Y-67500000I-700000J0D01*
G01*
X97881221Y-62511000D02*
X98206779Y-62511000D01*
X97881221Y-63531000D02*
X98206779Y-63531000D01*
X100903721Y-63531000D02*
X101229279Y-63531000D01*
X100903721Y-62511000D02*
X101229279Y-62511000D01*
X94833221Y-63531000D02*
X95158779Y-63531000D01*
X94833221Y-62511000D02*
X95158779Y-62511000D01*
X103913721Y-62511000D02*
X104239279Y-62511000D01*
X103913721Y-63531000D02*
X104239279Y-63531000D01*
X85752721Y-62511000D02*
X86078279Y-62511000D01*
X85752721Y-63531000D02*
X86078279Y-63531000D01*
X88737221Y-63531000D02*
X89062779Y-63531000D01*
X88737221Y-62511000D02*
X89062779Y-62511000D01*
X91785221Y-62511000D02*
X92110779Y-62511000D01*
X91785221Y-63531000D02*
X92110779Y-63531000D01*
X65000000Y-62943000D02*
X64550000Y-62943000D01*
X65000000Y-62943000D02*
X65000000Y-63393000D01*
X64450000Y-68543000D02*
X64450000Y-68093000D01*
X62600000Y-68543000D02*
X64450000Y-68543000D01*
X60050000Y-60743000D02*
X60300000Y-60743000D01*
X60050000Y-68543000D02*
X60300000Y-68543000D01*
X62600000Y-60743000D02*
X64450000Y-60743000D01*
X64450000Y-60743000D02*
X64450000Y-61193000D01*
X82250000Y-76000000D02*
X99250000Y-76000000D01*
X99250000Y-76000000D02*
X99250000Y-83000000D01*
X99250000Y-83000000D02*
X82250000Y-83000000D01*
X82250000Y-83000000D02*
X82250000Y-76000000D01*
X95500000Y-83250000D02*
X95000000Y-84250000D01*
X95000000Y-84250000D02*
X96000000Y-84250000D01*
X96000000Y-84250000D02*
X95500000Y-83250000D01*
X81800000Y-67200000D02*
X105800000Y-67200000D01*
X105800000Y-67200000D02*
X105800000Y-72200000D01*
X105800000Y-72200000D02*
X81800000Y-72200000D01*
X81800000Y-72200000D02*
X81800000Y-67200000D01*
X83800000Y-67200000D02*
X83800000Y-71200000D01*
X83800000Y-71200000D02*
X84800000Y-71200000D01*
X84800000Y-71200000D02*
X84800000Y-72200000D01*
X103800000Y-67200000D02*
X103800000Y-71200000D01*
X103800000Y-71200000D02*
X102800000Y-71200000D01*
X102800000Y-71200000D02*
X102800000Y-72200000D01*
X85500000Y-68400000D02*
X102100000Y-68400000D01*
X102100000Y-68400000D02*
X102100000Y-71000000D01*
X102100000Y-71000000D02*
X85500000Y-71000000D01*
X85500000Y-71000000D02*
X85500000Y-68400000D01*
X81800000Y-68200000D02*
X81100000Y-68200000D01*
X81100000Y-68200000D02*
X81100000Y-71200000D01*
X81100000Y-71200000D02*
X81800000Y-71200000D01*
X105800000Y-68200000D02*
X106500000Y-68200000D01*
X106500000Y-68200000D02*
X106500000Y-71200000D01*
X106500000Y-71200000D02*
X105800000Y-71200000D01*
X103233012Y-72950000D02*
G75*
G03X103233012Y-72950000I-433012J0D01*
G01*
X63637221Y-69530500D02*
X63962779Y-69530500D01*
X63637221Y-70550500D02*
X63962779Y-70550500D01*
X64090000Y-78237221D02*
X64090000Y-78562779D01*
X65110000Y-78237221D02*
X65110000Y-78562779D01*
X64300000Y-72260000D02*
X65500000Y-72260000D01*
X65500000Y-72260000D02*
X65500000Y-74960000D01*
X60700000Y-76260000D02*
X60700000Y-72260000D01*
X60700000Y-72260000D02*
X61900000Y-72260000D01*
X65120000Y-80350000D02*
X65120000Y-81280000D01*
X65120000Y-83510000D02*
X65120000Y-82580000D01*
X65120000Y-83510000D02*
X67280000Y-83510000D01*
X65120000Y-80350000D02*
X66580000Y-80350000D01*
X70066500Y-65525500D02*
X70066500Y-63125500D01*
X66966500Y-63125500D02*
X66966500Y-66075500D01*
X78510000Y-78860000D02*
X79850000Y-78860000D01*
X78510000Y-79810000D02*
X78510000Y-78860000D01*
X77560000Y-79810000D02*
X78510000Y-79810000D01*
X68290000Y-79810000D02*
X68290000Y-78860000D01*
X69240000Y-79810000D02*
X68290000Y-79810000D01*
X78510000Y-69590000D02*
X78510000Y-70540000D01*
X77560000Y-69590000D02*
X78510000Y-69590000D01*
X68290000Y-69590000D02*
X68290000Y-70540000D01*
X69240000Y-69590000D02*
X68290000Y-69590000D01*
X60265000Y-84642000D02*
X62925000Y-84642000D01*
X60265000Y-79502000D02*
X60265000Y-84642000D01*
X62925000Y-79502000D02*
X62925000Y-84642000D01*
X60265000Y-79502000D02*
X62925000Y-79502000D01*
X60265000Y-78232000D02*
X60265000Y-76902000D01*
X60265000Y-76902000D02*
X61595000Y-76902000D01*
X81498221Y-74801000D02*
X81823779Y-74801000D01*
X81498221Y-75821000D02*
X81823779Y-75821000D01*
X71249000Y-83093779D02*
X71249000Y-82768221D01*
X70229000Y-83093779D02*
X70229000Y-82768221D01*
X69312779Y-67756500D02*
X68987221Y-67756500D01*
X69312779Y-66736500D02*
X68987221Y-66736500D01*
X81498221Y-72451500D02*
X81823779Y-72451500D01*
X81498221Y-73471500D02*
X81823779Y-73471500D01*
X77370721Y-67312000D02*
X77696279Y-67312000D01*
X77370721Y-66292000D02*
X77696279Y-66292000D01*
X75727779Y-82679000D02*
X75402221Y-82679000D01*
X75727779Y-81659000D02*
X75402221Y-81659000D01*
X80389000Y-79313721D02*
X80389000Y-79639279D01*
X81409000Y-79313721D02*
X81409000Y-79639279D01*
X78865000Y-83093779D02*
X78865000Y-82768221D01*
X79885000Y-83093779D02*
X79885000Y-82768221D01*
X81409000Y-83093779D02*
X81409000Y-82768221D01*
X80389000Y-83093779D02*
X80389000Y-82768221D01*
X77341000Y-83093779D02*
X77341000Y-82768221D01*
X78361000Y-83093779D02*
X78361000Y-82768221D01*
X67910000Y-81767221D02*
X67910000Y-82092779D01*
X68930000Y-81767221D02*
X68930000Y-82092779D01*
X82704721Y-63502000D02*
X83030279Y-63502000D01*
X82704721Y-62482000D02*
X83030279Y-62482000D01*
X65009285Y-60956000D02*
X65545000Y-60956000D01*
X65652142Y-60991714D01*
X65723571Y-61063142D01*
X65759285Y-61170285D01*
X65759285Y-61241714D01*
X65009285Y-60670285D02*
X65009285Y-60206000D01*
X65295000Y-60456000D01*
X65295000Y-60348857D01*
X65330714Y-60277428D01*
X65366428Y-60241714D01*
X65437857Y-60206000D01*
X65616428Y-60206000D01*
X65687857Y-60241714D01*
X65723571Y-60277428D01*
X65759285Y-60348857D01*
X65759285Y-60563142D01*
X65723571Y-60634571D01*
X65687857Y-60670285D01*
X75444071Y-64232285D02*
X75444071Y-64768000D01*
X75408357Y-64875142D01*
X75336928Y-64946571D01*
X75229785Y-64982285D01*
X75158357Y-64982285D01*
X75801214Y-64982285D02*
X75801214Y-64232285D01*
X76086928Y-64232285D01*
X76158357Y-64268000D01*
X76194071Y-64303714D01*
X76229785Y-64375142D01*
X76229785Y-64482285D01*
X76194071Y-64553714D01*
X76158357Y-64589428D01*
X76086928Y-64625142D01*
X75801214Y-64625142D01*
X76515500Y-64768000D02*
X76872642Y-64768000D01*
X76444071Y-64982285D02*
X76694071Y-64232285D01*
X76944071Y-64982285D01*
X77551214Y-64232285D02*
X77194071Y-64232285D01*
X77158357Y-64589428D01*
X77194071Y-64553714D01*
X77265500Y-64518000D01*
X77444071Y-64518000D01*
X77515500Y-64553714D01*
X77551214Y-64589428D01*
X77586928Y-64660857D01*
X77586928Y-64839428D01*
X77551214Y-64910857D01*
X77515500Y-64946571D01*
X77444071Y-64982285D01*
X77265500Y-64982285D01*
X77194071Y-64946571D01*
X77158357Y-64910857D01*
X75444071Y-62835285D02*
X75444071Y-63371000D01*
X75408357Y-63478142D01*
X75336928Y-63549571D01*
X75229785Y-63585285D01*
X75158357Y-63585285D01*
X75801214Y-63585285D02*
X75801214Y-62835285D01*
X76086928Y-62835285D01*
X76158357Y-62871000D01*
X76194071Y-62906714D01*
X76229785Y-62978142D01*
X76229785Y-63085285D01*
X76194071Y-63156714D01*
X76158357Y-63192428D01*
X76086928Y-63228142D01*
X75801214Y-63228142D01*
X76515500Y-63371000D02*
X76872642Y-63371000D01*
X76444071Y-63585285D02*
X76694071Y-62835285D01*
X76944071Y-63585285D01*
X77515500Y-63085285D02*
X77515500Y-63585285D01*
X77336928Y-62799571D02*
X77158357Y-63335285D01*
X77622642Y-63335285D01*
X71326500Y-62835285D02*
X71326500Y-63371000D01*
X71290785Y-63478142D01*
X71219357Y-63549571D01*
X71112214Y-63585285D01*
X71040785Y-63585285D01*
X71683642Y-63585285D02*
X71683642Y-62835285D01*
X71969357Y-62835285D01*
X72040785Y-62871000D01*
X72076500Y-62906714D01*
X72112214Y-62978142D01*
X72112214Y-63085285D01*
X72076500Y-63156714D01*
X72040785Y-63192428D01*
X71969357Y-63228142D01*
X71683642Y-63228142D01*
X72862214Y-63513857D02*
X72826500Y-63549571D01*
X72719357Y-63585285D01*
X72647928Y-63585285D01*
X72540785Y-63549571D01*
X72469357Y-63478142D01*
X72433642Y-63406714D01*
X72397928Y-63263857D01*
X72397928Y-63156714D01*
X72433642Y-63013857D01*
X72469357Y-62942428D01*
X72540785Y-62871000D01*
X72647928Y-62835285D01*
X72719357Y-62835285D01*
X72826500Y-62871000D01*
X72862214Y-62906714D01*
X73540785Y-62835285D02*
X73183642Y-62835285D01*
X73147928Y-63192428D01*
X73183642Y-63156714D01*
X73255071Y-63121000D01*
X73433642Y-63121000D01*
X73505071Y-63156714D01*
X73540785Y-63192428D01*
X73576500Y-63263857D01*
X73576500Y-63442428D01*
X73540785Y-63513857D01*
X73505071Y-63549571D01*
X73433642Y-63585285D01*
X73255071Y-63585285D01*
X73183642Y-63549571D01*
X73147928Y-63513857D01*
X71326500Y-64232285D02*
X71326500Y-64768000D01*
X71290785Y-64875142D01*
X71219357Y-64946571D01*
X71112214Y-64982285D01*
X71040785Y-64982285D01*
X71683642Y-64982285D02*
X71683642Y-64232285D01*
X71969357Y-64232285D01*
X72040785Y-64268000D01*
X72076500Y-64303714D01*
X72112214Y-64375142D01*
X72112214Y-64482285D01*
X72076500Y-64553714D01*
X72040785Y-64589428D01*
X71969357Y-64625142D01*
X71683642Y-64625142D01*
X72862214Y-64910857D02*
X72826500Y-64946571D01*
X72719357Y-64982285D01*
X72647928Y-64982285D01*
X72540785Y-64946571D01*
X72469357Y-64875142D01*
X72433642Y-64803714D01*
X72397928Y-64660857D01*
X72397928Y-64553714D01*
X72433642Y-64410857D01*
X72469357Y-64339428D01*
X72540785Y-64268000D01*
X72647928Y-64232285D01*
X72719357Y-64232285D01*
X72826500Y-64268000D01*
X72862214Y-64303714D01*
X73505071Y-64482285D02*
X73505071Y-64982285D01*
X73326500Y-64196571D02*
X73147928Y-64732285D01*
X73612214Y-64732285D01*
X61307428Y-59469785D02*
X61307428Y-60076928D01*
X61343142Y-60148357D01*
X61378857Y-60184071D01*
X61450285Y-60219785D01*
X61593142Y-60219785D01*
X61664571Y-60184071D01*
X61700285Y-60148357D01*
X61736000Y-60076928D01*
X61736000Y-59469785D01*
X62057428Y-60184071D02*
X62164571Y-60219785D01*
X62343142Y-60219785D01*
X62414571Y-60184071D01*
X62450285Y-60148357D01*
X62486000Y-60076928D01*
X62486000Y-60005500D01*
X62450285Y-59934071D01*
X62414571Y-59898357D01*
X62343142Y-59862642D01*
X62200285Y-59826928D01*
X62128857Y-59791214D01*
X62093142Y-59755500D01*
X62057428Y-59684071D01*
X62057428Y-59612642D01*
X62093142Y-59541214D01*
X62128857Y-59505500D01*
X62200285Y-59469785D01*
X62378857Y-59469785D01*
X62486000Y-59505500D01*
X63057428Y-59826928D02*
X63164571Y-59862642D01*
X63200285Y-59898357D01*
X63236000Y-59969785D01*
X63236000Y-60076928D01*
X63200285Y-60148357D01*
X63164571Y-60184071D01*
X63093142Y-60219785D01*
X62807428Y-60219785D01*
X62807428Y-59469785D01*
X63057428Y-59469785D01*
X63128857Y-59505500D01*
X63164571Y-59541214D01*
X63200285Y-59612642D01*
X63200285Y-59684071D01*
X63164571Y-59755500D01*
X63128857Y-59791214D01*
X63057428Y-59826928D01*
X62807428Y-59826928D01*
X63950285Y-60219785D02*
X63521714Y-60219785D01*
X63736000Y-60219785D02*
X63736000Y-59469785D01*
X63664571Y-59576928D01*
X63593142Y-59648357D01*
X63521714Y-59684071D01*
X97857500Y-74836785D02*
X97857500Y-75372500D01*
X97821785Y-75479642D01*
X97750357Y-75551071D01*
X97643214Y-75586785D01*
X97571785Y-75586785D01*
X98607500Y-75586785D02*
X98178928Y-75586785D01*
X98393214Y-75586785D02*
X98393214Y-74836785D01*
X98321785Y-74943928D01*
X98250357Y-75015357D01*
X98178928Y-75051071D01*
X104588500Y-66010285D02*
X104588500Y-66546000D01*
X104552785Y-66653142D01*
X104481357Y-66724571D01*
X104374214Y-66760285D01*
X104302785Y-66760285D01*
X104909928Y-66081714D02*
X104945642Y-66046000D01*
X105017071Y-66010285D01*
X105195642Y-66010285D01*
X105267071Y-66046000D01*
X105302785Y-66081714D01*
X105338500Y-66153142D01*
X105338500Y-66224571D01*
X105302785Y-66331714D01*
X104874214Y-66760285D01*
X105338500Y-66760285D01*
X61343000Y-70371857D02*
X61307285Y-70407571D01*
X61200142Y-70443285D01*
X61128714Y-70443285D01*
X61021571Y-70407571D01*
X60950142Y-70336142D01*
X60914428Y-70264714D01*
X60878714Y-70121857D01*
X60878714Y-70014714D01*
X60914428Y-69871857D01*
X60950142Y-69800428D01*
X61021571Y-69729000D01*
X61128714Y-69693285D01*
X61200142Y-69693285D01*
X61307285Y-69729000D01*
X61343000Y-69764714D01*
X61593000Y-69693285D02*
X62057285Y-69693285D01*
X61807285Y-69979000D01*
X61914428Y-69979000D01*
X61985857Y-70014714D01*
X62021571Y-70050428D01*
X62057285Y-70121857D01*
X62057285Y-70300428D01*
X62021571Y-70371857D01*
X61985857Y-70407571D01*
X61914428Y-70443285D01*
X61700142Y-70443285D01*
X61628714Y-70407571D01*
X61593000Y-70371857D01*
X66053857Y-78525000D02*
X66089571Y-78560714D01*
X66125285Y-78667857D01*
X66125285Y-78739285D01*
X66089571Y-78846428D01*
X66018142Y-78917857D01*
X65946714Y-78953571D01*
X65803857Y-78989285D01*
X65696714Y-78989285D01*
X65553857Y-78953571D01*
X65482428Y-78917857D01*
X65411000Y-78846428D01*
X65375285Y-78739285D01*
X65375285Y-78667857D01*
X65411000Y-78560714D01*
X65446714Y-78525000D01*
X65625285Y-77882142D02*
X66125285Y-77882142D01*
X65339571Y-78060714D02*
X65875285Y-78239285D01*
X65875285Y-77775000D01*
X64579571Y-71090285D02*
X64579571Y-71697428D01*
X64615285Y-71768857D01*
X64651000Y-71804571D01*
X64722428Y-71840285D01*
X64865285Y-71840285D01*
X64936714Y-71804571D01*
X64972428Y-71768857D01*
X65008142Y-71697428D01*
X65008142Y-71090285D01*
X65758142Y-71840285D02*
X65329571Y-71840285D01*
X65543857Y-71840285D02*
X65543857Y-71090285D01*
X65472428Y-71197428D01*
X65401000Y-71268857D01*
X65329571Y-71304571D01*
X66984571Y-80103214D02*
X66913142Y-80067500D01*
X66841714Y-79996071D01*
X66734571Y-79888928D01*
X66663142Y-79853214D01*
X66591714Y-79853214D01*
X66627428Y-80031785D02*
X66556000Y-79996071D01*
X66484571Y-79924642D01*
X66448857Y-79781785D01*
X66448857Y-79531785D01*
X66484571Y-79388928D01*
X66556000Y-79317500D01*
X66627428Y-79281785D01*
X66770285Y-79281785D01*
X66841714Y-79317500D01*
X66913142Y-79388928D01*
X66948857Y-79531785D01*
X66948857Y-79781785D01*
X66913142Y-79924642D01*
X66841714Y-79996071D01*
X66770285Y-80031785D01*
X66627428Y-80031785D01*
X67663142Y-80031785D02*
X67234571Y-80031785D01*
X67448857Y-80031785D02*
X67448857Y-79281785D01*
X67377428Y-79388928D01*
X67306000Y-79460357D01*
X67234571Y-79496071D01*
X66475785Y-64859071D02*
X65725785Y-64859071D01*
X65725785Y-64680500D01*
X65761500Y-64573357D01*
X65832928Y-64501928D01*
X65904357Y-64466214D01*
X66047214Y-64430500D01*
X66154357Y-64430500D01*
X66297214Y-64466214D01*
X66368642Y-64501928D01*
X66440071Y-64573357D01*
X66475785Y-64680500D01*
X66475785Y-64859071D01*
X66475785Y-63716214D02*
X66475785Y-64144785D01*
X66475785Y-63930500D02*
X65725785Y-63930500D01*
X65832928Y-64001928D01*
X65904357Y-64073357D01*
X65940071Y-64144785D01*
X72546857Y-74570785D02*
X72546857Y-73820785D01*
X73332571Y-74499357D02*
X73296857Y-74535071D01*
X73189714Y-74570785D01*
X73118285Y-74570785D01*
X73011142Y-74535071D01*
X72939714Y-74463642D01*
X72904000Y-74392214D01*
X72868285Y-74249357D01*
X72868285Y-74142214D01*
X72904000Y-73999357D01*
X72939714Y-73927928D01*
X73011142Y-73856500D01*
X73118285Y-73820785D01*
X73189714Y-73820785D01*
X73296857Y-73856500D01*
X73332571Y-73892214D01*
X74046857Y-74570785D02*
X73618285Y-74570785D01*
X73832571Y-74570785D02*
X73832571Y-73820785D01*
X73761142Y-73927928D01*
X73689714Y-73999357D01*
X73618285Y-74035071D01*
X63472000Y-83685785D02*
X63472000Y-84221500D01*
X63436285Y-84328642D01*
X63364857Y-84400071D01*
X63257714Y-84435785D01*
X63186285Y-84435785D01*
X64150571Y-83935785D02*
X64150571Y-84435785D01*
X63972000Y-83650071D02*
X63793428Y-84185785D01*
X64257714Y-84185785D01*
X83885500Y-75578857D02*
X83849785Y-75614571D01*
X83742642Y-75650285D01*
X83671214Y-75650285D01*
X83564071Y-75614571D01*
X83492642Y-75543142D01*
X83456928Y-75471714D01*
X83421214Y-75328857D01*
X83421214Y-75221714D01*
X83456928Y-75078857D01*
X83492642Y-75007428D01*
X83564071Y-74936000D01*
X83671214Y-74900285D01*
X83742642Y-74900285D01*
X83849785Y-74936000D01*
X83885500Y-74971714D01*
X84599785Y-75650285D02*
X84171214Y-75650285D01*
X84385500Y-75650285D02*
X84385500Y-74900285D01*
X84314071Y-75007428D01*
X84242642Y-75078857D01*
X84171214Y-75114571D01*
X72074500Y-83198857D02*
X72038785Y-83234571D01*
X71931642Y-83270285D01*
X71860214Y-83270285D01*
X71753071Y-83234571D01*
X71681642Y-83163142D01*
X71645928Y-83091714D01*
X71610214Y-82948857D01*
X71610214Y-82841714D01*
X71645928Y-82698857D01*
X71681642Y-82627428D01*
X71753071Y-82556000D01*
X71860214Y-82520285D01*
X71931642Y-82520285D01*
X72038785Y-82556000D01*
X72074500Y-82591714D01*
X72360214Y-82591714D02*
X72395928Y-82556000D01*
X72467357Y-82520285D01*
X72645928Y-82520285D01*
X72717357Y-82556000D01*
X72753071Y-82591714D01*
X72788785Y-82663142D01*
X72788785Y-82734571D01*
X72753071Y-82841714D01*
X72324500Y-83270285D01*
X72788785Y-83270285D01*
X66677000Y-67514357D02*
X66641285Y-67550071D01*
X66534142Y-67585785D01*
X66462714Y-67585785D01*
X66355571Y-67550071D01*
X66284142Y-67478642D01*
X66248428Y-67407214D01*
X66212714Y-67264357D01*
X66212714Y-67157214D01*
X66248428Y-67014357D01*
X66284142Y-66942928D01*
X66355571Y-66871500D01*
X66462714Y-66835785D01*
X66534142Y-66835785D01*
X66641285Y-66871500D01*
X66677000Y-66907214D01*
X67355571Y-66835785D02*
X66998428Y-66835785D01*
X66962714Y-67192928D01*
X66998428Y-67157214D01*
X67069857Y-67121500D01*
X67248428Y-67121500D01*
X67319857Y-67157214D01*
X67355571Y-67192928D01*
X67391285Y-67264357D01*
X67391285Y-67442928D01*
X67355571Y-67514357D01*
X67319857Y-67550071D01*
X67248428Y-67585785D01*
X67069857Y-67585785D01*
X66998428Y-67550071D01*
X66962714Y-67514357D01*
X83885500Y-73229357D02*
X83849785Y-73265071D01*
X83742642Y-73300785D01*
X83671214Y-73300785D01*
X83564071Y-73265071D01*
X83492642Y-73193642D01*
X83456928Y-73122214D01*
X83421214Y-72979357D01*
X83421214Y-72872214D01*
X83456928Y-72729357D01*
X83492642Y-72657928D01*
X83564071Y-72586500D01*
X83671214Y-72550785D01*
X83742642Y-72550785D01*
X83849785Y-72586500D01*
X83885500Y-72622214D01*
X84528357Y-72550785D02*
X84385500Y-72550785D01*
X84314071Y-72586500D01*
X84278357Y-72622214D01*
X84206928Y-72729357D01*
X84171214Y-72872214D01*
X84171214Y-73157928D01*
X84206928Y-73229357D01*
X84242642Y-73265071D01*
X84314071Y-73300785D01*
X84456928Y-73300785D01*
X84528357Y-73265071D01*
X84564071Y-73229357D01*
X84599785Y-73157928D01*
X84599785Y-72979357D01*
X84564071Y-72907928D01*
X84528357Y-72872214D01*
X84456928Y-72836500D01*
X84314071Y-72836500D01*
X84242642Y-72872214D01*
X84206928Y-72907928D01*
X84171214Y-72979357D01*
X79758000Y-67006357D02*
X79722285Y-67042071D01*
X79615142Y-67077785D01*
X79543714Y-67077785D01*
X79436571Y-67042071D01*
X79365142Y-66970642D01*
X79329428Y-66899214D01*
X79293714Y-66756357D01*
X79293714Y-66649214D01*
X79329428Y-66506357D01*
X79365142Y-66434928D01*
X79436571Y-66363500D01*
X79543714Y-66327785D01*
X79615142Y-66327785D01*
X79722285Y-66363500D01*
X79758000Y-66399214D01*
X80008000Y-66327785D02*
X80508000Y-66327785D01*
X80186571Y-67077785D01*
X75440000Y-83770357D02*
X75404285Y-83806071D01*
X75297142Y-83841785D01*
X75225714Y-83841785D01*
X75118571Y-83806071D01*
X75047142Y-83734642D01*
X75011428Y-83663214D01*
X74975714Y-83520357D01*
X74975714Y-83413214D01*
X75011428Y-83270357D01*
X75047142Y-83198928D01*
X75118571Y-83127500D01*
X75225714Y-83091785D01*
X75297142Y-83091785D01*
X75404285Y-83127500D01*
X75440000Y-83163214D01*
X75868571Y-83413214D02*
X75797142Y-83377500D01*
X75761428Y-83341785D01*
X75725714Y-83270357D01*
X75725714Y-83234642D01*
X75761428Y-83163214D01*
X75797142Y-83127500D01*
X75868571Y-83091785D01*
X76011428Y-83091785D01*
X76082857Y-83127500D01*
X76118571Y-83163214D01*
X76154285Y-83234642D01*
X76154285Y-83270357D01*
X76118571Y-83341785D01*
X76082857Y-83377500D01*
X76011428Y-83413214D01*
X75868571Y-83413214D01*
X75797142Y-83448928D01*
X75761428Y-83484642D01*
X75725714Y-83556071D01*
X75725714Y-83698928D01*
X75761428Y-83770357D01*
X75797142Y-83806071D01*
X75868571Y-83841785D01*
X76011428Y-83841785D01*
X76082857Y-83806071D01*
X76118571Y-83770357D01*
X76154285Y-83698928D01*
X76154285Y-83556071D01*
X76118571Y-83484642D01*
X76082857Y-83448928D01*
X76011428Y-83413214D01*
X79377000Y-79769857D02*
X79341285Y-79805571D01*
X79234142Y-79841285D01*
X79162714Y-79841285D01*
X79055571Y-79805571D01*
X78984142Y-79734142D01*
X78948428Y-79662714D01*
X78912714Y-79519857D01*
X78912714Y-79412714D01*
X78948428Y-79269857D01*
X78984142Y-79198428D01*
X79055571Y-79127000D01*
X79162714Y-79091285D01*
X79234142Y-79091285D01*
X79341285Y-79127000D01*
X79377000Y-79162714D01*
X79734142Y-79841285D02*
X79877000Y-79841285D01*
X79948428Y-79805571D01*
X79984142Y-79769857D01*
X80055571Y-79662714D01*
X80091285Y-79519857D01*
X80091285Y-79234142D01*
X80055571Y-79162714D01*
X80019857Y-79127000D01*
X79948428Y-79091285D01*
X79805571Y-79091285D01*
X79734142Y-79127000D01*
X79698428Y-79162714D01*
X79662714Y-79234142D01*
X79662714Y-79412714D01*
X79698428Y-79484142D01*
X79734142Y-79519857D01*
X79805571Y-79555571D01*
X79948428Y-79555571D01*
X80019857Y-79519857D01*
X80055571Y-79484142D01*
X80091285Y-79412714D01*
X84139500Y-84603785D02*
X83889500Y-84246642D01*
X83710928Y-84603785D02*
X83710928Y-83853785D01*
X83996642Y-83853785D01*
X84068071Y-83889500D01*
X84103785Y-83925214D01*
X84139500Y-83996642D01*
X84139500Y-84103785D01*
X84103785Y-84175214D01*
X84068071Y-84210928D01*
X83996642Y-84246642D01*
X83710928Y-84246642D01*
X84818071Y-83853785D02*
X84460928Y-83853785D01*
X84425214Y-84210928D01*
X84460928Y-84175214D01*
X84532357Y-84139500D01*
X84710928Y-84139500D01*
X84782357Y-84175214D01*
X84818071Y-84210928D01*
X84853785Y-84282357D01*
X84853785Y-84460928D01*
X84818071Y-84532357D01*
X84782357Y-84568071D01*
X84710928Y-84603785D01*
X84532357Y-84603785D01*
X84460928Y-84568071D01*
X84425214Y-84532357D01*
X85981000Y-84603785D02*
X85731000Y-84246642D01*
X85552428Y-84603785D02*
X85552428Y-83853785D01*
X85838142Y-83853785D01*
X85909571Y-83889500D01*
X85945285Y-83925214D01*
X85981000Y-83996642D01*
X85981000Y-84103785D01*
X85945285Y-84175214D01*
X85909571Y-84210928D01*
X85838142Y-84246642D01*
X85552428Y-84246642D01*
X86623857Y-83853785D02*
X86481000Y-83853785D01*
X86409571Y-83889500D01*
X86373857Y-83925214D01*
X86302428Y-84032357D01*
X86266714Y-84175214D01*
X86266714Y-84460928D01*
X86302428Y-84532357D01*
X86338142Y-84568071D01*
X86409571Y-84603785D01*
X86552428Y-84603785D01*
X86623857Y-84568071D01*
X86659571Y-84532357D01*
X86695285Y-84460928D01*
X86695285Y-84282357D01*
X86659571Y-84210928D01*
X86623857Y-84175214D01*
X86552428Y-84139500D01*
X86409571Y-84139500D01*
X86338142Y-84175214D01*
X86302428Y-84210928D01*
X86266714Y-84282357D01*
X82298000Y-84603785D02*
X82048000Y-84246642D01*
X81869428Y-84603785D02*
X81869428Y-83853785D01*
X82155142Y-83853785D01*
X82226571Y-83889500D01*
X82262285Y-83925214D01*
X82298000Y-83996642D01*
X82298000Y-84103785D01*
X82262285Y-84175214D01*
X82226571Y-84210928D01*
X82155142Y-84246642D01*
X81869428Y-84246642D01*
X82548000Y-83853785D02*
X83048000Y-83853785D01*
X82726571Y-84603785D01*
X68391500Y-84349785D02*
X68141500Y-83992642D01*
X67962928Y-84349785D02*
X67962928Y-83599785D01*
X68248642Y-83599785D01*
X68320071Y-83635500D01*
X68355785Y-83671214D01*
X68391500Y-83742642D01*
X68391500Y-83849785D01*
X68355785Y-83921214D01*
X68320071Y-83956928D01*
X68248642Y-83992642D01*
X67962928Y-83992642D01*
X68820071Y-83921214D02*
X68748642Y-83885500D01*
X68712928Y-83849785D01*
X68677214Y-83778357D01*
X68677214Y-83742642D01*
X68712928Y-83671214D01*
X68748642Y-83635500D01*
X68820071Y-83599785D01*
X68962928Y-83599785D01*
X69034357Y-83635500D01*
X69070071Y-83671214D01*
X69105785Y-83742642D01*
X69105785Y-83778357D01*
X69070071Y-83849785D01*
X69034357Y-83885500D01*
X68962928Y-83921214D01*
X68820071Y-83921214D01*
X68748642Y-83956928D01*
X68712928Y-83992642D01*
X68677214Y-84064071D01*
X68677214Y-84206928D01*
X68712928Y-84278357D01*
X68748642Y-84314071D01*
X68820071Y-84349785D01*
X68962928Y-84349785D01*
X69034357Y-84314071D01*
X69070071Y-84278357D01*
X69105785Y-84206928D01*
X69105785Y-84064071D01*
X69070071Y-83992642D01*
X69034357Y-83956928D01*
X68962928Y-83921214D01*
M02*
