G04 #@! TF.GenerationSoftware,KiCad,Pcbnew,5.1.5*
G04 #@! TF.CreationDate,2020-05-09T12:03:03+02:00*
G04 #@! TF.ProjectId,nucular-keyboard,6e756375-6c61-4722-9d6b-6579626f6172,rev?*
G04 #@! TF.SameCoordinates,Original*
G04 #@! TF.FileFunction,Soldermask,Top*
G04 #@! TF.FilePolarity,Negative*
%FSLAX46Y46*%
G04 Gerber Fmt 4.6, Leading zero omitted, Abs format (unit mm)*
G04 Created by KiCad (PCBNEW 5.1.5) date 2020-05-09 12:03:03*
%MOMM*%
%LPD*%
G04 APERTURE LIST*
%ADD10C,0.900000*%
%ADD11R,1.800000X1.800000*%
%ADD12O,1.800000X1.800000*%
%ADD13C,0.100000*%
%ADD14R,2.000000X1.300000*%
%ADD15O,2.000000X1.300000*%
%ADD16R,2.000000X1.600000*%
%ADD17C,1.550000*%
%ADD18R,1.450000X0.500000*%
%ADD19R,0.400000X1.100000*%
%ADD20R,1.300000X1.100000*%
%ADD21R,0.600000X2.500000*%
%ADD22R,2.600000X2.800000*%
%ADD23C,1.000000*%
%ADD24R,1.100000X1.600000*%
%ADD25R,1.100000X1.900000*%
%ADD26R,2.300000X1.940000*%
%ADD27R,1.000000X0.900000*%
%ADD28R,1.300000X1.500000*%
%ADD29R,1.100000X1.500000*%
G04 APERTURE END LIST*
D10*
X75300000Y-67310000D03*
X75300000Y-65913000D03*
X73300000Y-67310000D03*
X73300000Y-65913000D03*
D11*
X67750000Y-60706000D03*
D12*
X70290000Y-60706000D03*
X72830000Y-60706000D03*
X75370000Y-60706000D03*
X77910000Y-60706000D03*
X80450000Y-60706000D03*
X82990000Y-60706000D03*
X85530000Y-60706000D03*
X88070000Y-60706000D03*
X90610000Y-60706000D03*
X93150000Y-60706000D03*
X95690000Y-60706000D03*
X98230000Y-60706000D03*
X100770000Y-60706000D03*
X103310000Y-60706000D03*
X105850000Y-60706000D03*
D13*
G36*
X97524142Y-62497174D02*
G01*
X97547803Y-62500684D01*
X97571007Y-62506496D01*
X97593529Y-62514554D01*
X97615153Y-62524782D01*
X97635670Y-62537079D01*
X97654883Y-62551329D01*
X97672607Y-62567393D01*
X97688671Y-62585117D01*
X97702921Y-62604330D01*
X97715218Y-62624847D01*
X97725446Y-62646471D01*
X97733504Y-62668993D01*
X97739316Y-62692197D01*
X97742826Y-62715858D01*
X97744000Y-62739750D01*
X97744000Y-63302250D01*
X97742826Y-63326142D01*
X97739316Y-63349803D01*
X97733504Y-63373007D01*
X97725446Y-63395529D01*
X97715218Y-63417153D01*
X97702921Y-63437670D01*
X97688671Y-63456883D01*
X97672607Y-63474607D01*
X97654883Y-63490671D01*
X97635670Y-63504921D01*
X97615153Y-63517218D01*
X97593529Y-63527446D01*
X97571007Y-63535504D01*
X97547803Y-63541316D01*
X97524142Y-63544826D01*
X97500250Y-63546000D01*
X97012750Y-63546000D01*
X96988858Y-63544826D01*
X96965197Y-63541316D01*
X96941993Y-63535504D01*
X96919471Y-63527446D01*
X96897847Y-63517218D01*
X96877330Y-63504921D01*
X96858117Y-63490671D01*
X96840393Y-63474607D01*
X96824329Y-63456883D01*
X96810079Y-63437670D01*
X96797782Y-63417153D01*
X96787554Y-63395529D01*
X96779496Y-63373007D01*
X96773684Y-63349803D01*
X96770174Y-63326142D01*
X96769000Y-63302250D01*
X96769000Y-62739750D01*
X96770174Y-62715858D01*
X96773684Y-62692197D01*
X96779496Y-62668993D01*
X96787554Y-62646471D01*
X96797782Y-62624847D01*
X96810079Y-62604330D01*
X96824329Y-62585117D01*
X96840393Y-62567393D01*
X96858117Y-62551329D01*
X96877330Y-62537079D01*
X96897847Y-62524782D01*
X96919471Y-62514554D01*
X96941993Y-62506496D01*
X96965197Y-62500684D01*
X96988858Y-62497174D01*
X97012750Y-62496000D01*
X97500250Y-62496000D01*
X97524142Y-62497174D01*
G37*
G36*
X99099142Y-62497174D02*
G01*
X99122803Y-62500684D01*
X99146007Y-62506496D01*
X99168529Y-62514554D01*
X99190153Y-62524782D01*
X99210670Y-62537079D01*
X99229883Y-62551329D01*
X99247607Y-62567393D01*
X99263671Y-62585117D01*
X99277921Y-62604330D01*
X99290218Y-62624847D01*
X99300446Y-62646471D01*
X99308504Y-62668993D01*
X99314316Y-62692197D01*
X99317826Y-62715858D01*
X99319000Y-62739750D01*
X99319000Y-63302250D01*
X99317826Y-63326142D01*
X99314316Y-63349803D01*
X99308504Y-63373007D01*
X99300446Y-63395529D01*
X99290218Y-63417153D01*
X99277921Y-63437670D01*
X99263671Y-63456883D01*
X99247607Y-63474607D01*
X99229883Y-63490671D01*
X99210670Y-63504921D01*
X99190153Y-63517218D01*
X99168529Y-63527446D01*
X99146007Y-63535504D01*
X99122803Y-63541316D01*
X99099142Y-63544826D01*
X99075250Y-63546000D01*
X98587750Y-63546000D01*
X98563858Y-63544826D01*
X98540197Y-63541316D01*
X98516993Y-63535504D01*
X98494471Y-63527446D01*
X98472847Y-63517218D01*
X98452330Y-63504921D01*
X98433117Y-63490671D01*
X98415393Y-63474607D01*
X98399329Y-63456883D01*
X98385079Y-63437670D01*
X98372782Y-63417153D01*
X98362554Y-63395529D01*
X98354496Y-63373007D01*
X98348684Y-63349803D01*
X98345174Y-63326142D01*
X98344000Y-63302250D01*
X98344000Y-62739750D01*
X98345174Y-62715858D01*
X98348684Y-62692197D01*
X98354496Y-62668993D01*
X98362554Y-62646471D01*
X98372782Y-62624847D01*
X98385079Y-62604330D01*
X98399329Y-62585117D01*
X98415393Y-62567393D01*
X98433117Y-62551329D01*
X98452330Y-62537079D01*
X98472847Y-62524782D01*
X98494471Y-62514554D01*
X98516993Y-62506496D01*
X98540197Y-62500684D01*
X98563858Y-62497174D01*
X98587750Y-62496000D01*
X99075250Y-62496000D01*
X99099142Y-62497174D01*
G37*
G36*
X102121642Y-62497174D02*
G01*
X102145303Y-62500684D01*
X102168507Y-62506496D01*
X102191029Y-62514554D01*
X102212653Y-62524782D01*
X102233170Y-62537079D01*
X102252383Y-62551329D01*
X102270107Y-62567393D01*
X102286171Y-62585117D01*
X102300421Y-62604330D01*
X102312718Y-62624847D01*
X102322946Y-62646471D01*
X102331004Y-62668993D01*
X102336816Y-62692197D01*
X102340326Y-62715858D01*
X102341500Y-62739750D01*
X102341500Y-63302250D01*
X102340326Y-63326142D01*
X102336816Y-63349803D01*
X102331004Y-63373007D01*
X102322946Y-63395529D01*
X102312718Y-63417153D01*
X102300421Y-63437670D01*
X102286171Y-63456883D01*
X102270107Y-63474607D01*
X102252383Y-63490671D01*
X102233170Y-63504921D01*
X102212653Y-63517218D01*
X102191029Y-63527446D01*
X102168507Y-63535504D01*
X102145303Y-63541316D01*
X102121642Y-63544826D01*
X102097750Y-63546000D01*
X101610250Y-63546000D01*
X101586358Y-63544826D01*
X101562697Y-63541316D01*
X101539493Y-63535504D01*
X101516971Y-63527446D01*
X101495347Y-63517218D01*
X101474830Y-63504921D01*
X101455617Y-63490671D01*
X101437893Y-63474607D01*
X101421829Y-63456883D01*
X101407579Y-63437670D01*
X101395282Y-63417153D01*
X101385054Y-63395529D01*
X101376996Y-63373007D01*
X101371184Y-63349803D01*
X101367674Y-63326142D01*
X101366500Y-63302250D01*
X101366500Y-62739750D01*
X101367674Y-62715858D01*
X101371184Y-62692197D01*
X101376996Y-62668993D01*
X101385054Y-62646471D01*
X101395282Y-62624847D01*
X101407579Y-62604330D01*
X101421829Y-62585117D01*
X101437893Y-62567393D01*
X101455617Y-62551329D01*
X101474830Y-62537079D01*
X101495347Y-62524782D01*
X101516971Y-62514554D01*
X101539493Y-62506496D01*
X101562697Y-62500684D01*
X101586358Y-62497174D01*
X101610250Y-62496000D01*
X102097750Y-62496000D01*
X102121642Y-62497174D01*
G37*
G36*
X100546642Y-62497174D02*
G01*
X100570303Y-62500684D01*
X100593507Y-62506496D01*
X100616029Y-62514554D01*
X100637653Y-62524782D01*
X100658170Y-62537079D01*
X100677383Y-62551329D01*
X100695107Y-62567393D01*
X100711171Y-62585117D01*
X100725421Y-62604330D01*
X100737718Y-62624847D01*
X100747946Y-62646471D01*
X100756004Y-62668993D01*
X100761816Y-62692197D01*
X100765326Y-62715858D01*
X100766500Y-62739750D01*
X100766500Y-63302250D01*
X100765326Y-63326142D01*
X100761816Y-63349803D01*
X100756004Y-63373007D01*
X100747946Y-63395529D01*
X100737718Y-63417153D01*
X100725421Y-63437670D01*
X100711171Y-63456883D01*
X100695107Y-63474607D01*
X100677383Y-63490671D01*
X100658170Y-63504921D01*
X100637653Y-63517218D01*
X100616029Y-63527446D01*
X100593507Y-63535504D01*
X100570303Y-63541316D01*
X100546642Y-63544826D01*
X100522750Y-63546000D01*
X100035250Y-63546000D01*
X100011358Y-63544826D01*
X99987697Y-63541316D01*
X99964493Y-63535504D01*
X99941971Y-63527446D01*
X99920347Y-63517218D01*
X99899830Y-63504921D01*
X99880617Y-63490671D01*
X99862893Y-63474607D01*
X99846829Y-63456883D01*
X99832579Y-63437670D01*
X99820282Y-63417153D01*
X99810054Y-63395529D01*
X99801996Y-63373007D01*
X99796184Y-63349803D01*
X99792674Y-63326142D01*
X99791500Y-63302250D01*
X99791500Y-62739750D01*
X99792674Y-62715858D01*
X99796184Y-62692197D01*
X99801996Y-62668993D01*
X99810054Y-62646471D01*
X99820282Y-62624847D01*
X99832579Y-62604330D01*
X99846829Y-62585117D01*
X99862893Y-62567393D01*
X99880617Y-62551329D01*
X99899830Y-62537079D01*
X99920347Y-62524782D01*
X99941971Y-62514554D01*
X99964493Y-62506496D01*
X99987697Y-62500684D01*
X100011358Y-62497174D01*
X100035250Y-62496000D01*
X100522750Y-62496000D01*
X100546642Y-62497174D01*
G37*
G36*
X96051142Y-62497174D02*
G01*
X96074803Y-62500684D01*
X96098007Y-62506496D01*
X96120529Y-62514554D01*
X96142153Y-62524782D01*
X96162670Y-62537079D01*
X96181883Y-62551329D01*
X96199607Y-62567393D01*
X96215671Y-62585117D01*
X96229921Y-62604330D01*
X96242218Y-62624847D01*
X96252446Y-62646471D01*
X96260504Y-62668993D01*
X96266316Y-62692197D01*
X96269826Y-62715858D01*
X96271000Y-62739750D01*
X96271000Y-63302250D01*
X96269826Y-63326142D01*
X96266316Y-63349803D01*
X96260504Y-63373007D01*
X96252446Y-63395529D01*
X96242218Y-63417153D01*
X96229921Y-63437670D01*
X96215671Y-63456883D01*
X96199607Y-63474607D01*
X96181883Y-63490671D01*
X96162670Y-63504921D01*
X96142153Y-63517218D01*
X96120529Y-63527446D01*
X96098007Y-63535504D01*
X96074803Y-63541316D01*
X96051142Y-63544826D01*
X96027250Y-63546000D01*
X95539750Y-63546000D01*
X95515858Y-63544826D01*
X95492197Y-63541316D01*
X95468993Y-63535504D01*
X95446471Y-63527446D01*
X95424847Y-63517218D01*
X95404330Y-63504921D01*
X95385117Y-63490671D01*
X95367393Y-63474607D01*
X95351329Y-63456883D01*
X95337079Y-63437670D01*
X95324782Y-63417153D01*
X95314554Y-63395529D01*
X95306496Y-63373007D01*
X95300684Y-63349803D01*
X95297174Y-63326142D01*
X95296000Y-63302250D01*
X95296000Y-62739750D01*
X95297174Y-62715858D01*
X95300684Y-62692197D01*
X95306496Y-62668993D01*
X95314554Y-62646471D01*
X95324782Y-62624847D01*
X95337079Y-62604330D01*
X95351329Y-62585117D01*
X95367393Y-62567393D01*
X95385117Y-62551329D01*
X95404330Y-62537079D01*
X95424847Y-62524782D01*
X95446471Y-62514554D01*
X95468993Y-62506496D01*
X95492197Y-62500684D01*
X95515858Y-62497174D01*
X95539750Y-62496000D01*
X96027250Y-62496000D01*
X96051142Y-62497174D01*
G37*
G36*
X94476142Y-62497174D02*
G01*
X94499803Y-62500684D01*
X94523007Y-62506496D01*
X94545529Y-62514554D01*
X94567153Y-62524782D01*
X94587670Y-62537079D01*
X94606883Y-62551329D01*
X94624607Y-62567393D01*
X94640671Y-62585117D01*
X94654921Y-62604330D01*
X94667218Y-62624847D01*
X94677446Y-62646471D01*
X94685504Y-62668993D01*
X94691316Y-62692197D01*
X94694826Y-62715858D01*
X94696000Y-62739750D01*
X94696000Y-63302250D01*
X94694826Y-63326142D01*
X94691316Y-63349803D01*
X94685504Y-63373007D01*
X94677446Y-63395529D01*
X94667218Y-63417153D01*
X94654921Y-63437670D01*
X94640671Y-63456883D01*
X94624607Y-63474607D01*
X94606883Y-63490671D01*
X94587670Y-63504921D01*
X94567153Y-63517218D01*
X94545529Y-63527446D01*
X94523007Y-63535504D01*
X94499803Y-63541316D01*
X94476142Y-63544826D01*
X94452250Y-63546000D01*
X93964750Y-63546000D01*
X93940858Y-63544826D01*
X93917197Y-63541316D01*
X93893993Y-63535504D01*
X93871471Y-63527446D01*
X93849847Y-63517218D01*
X93829330Y-63504921D01*
X93810117Y-63490671D01*
X93792393Y-63474607D01*
X93776329Y-63456883D01*
X93762079Y-63437670D01*
X93749782Y-63417153D01*
X93739554Y-63395529D01*
X93731496Y-63373007D01*
X93725684Y-63349803D01*
X93722174Y-63326142D01*
X93721000Y-63302250D01*
X93721000Y-62739750D01*
X93722174Y-62715858D01*
X93725684Y-62692197D01*
X93731496Y-62668993D01*
X93739554Y-62646471D01*
X93749782Y-62624847D01*
X93762079Y-62604330D01*
X93776329Y-62585117D01*
X93792393Y-62567393D01*
X93810117Y-62551329D01*
X93829330Y-62537079D01*
X93849847Y-62524782D01*
X93871471Y-62514554D01*
X93893993Y-62506496D01*
X93917197Y-62500684D01*
X93940858Y-62497174D01*
X93964750Y-62496000D01*
X94452250Y-62496000D01*
X94476142Y-62497174D01*
G37*
G36*
X103556642Y-62497174D02*
G01*
X103580303Y-62500684D01*
X103603507Y-62506496D01*
X103626029Y-62514554D01*
X103647653Y-62524782D01*
X103668170Y-62537079D01*
X103687383Y-62551329D01*
X103705107Y-62567393D01*
X103721171Y-62585117D01*
X103735421Y-62604330D01*
X103747718Y-62624847D01*
X103757946Y-62646471D01*
X103766004Y-62668993D01*
X103771816Y-62692197D01*
X103775326Y-62715858D01*
X103776500Y-62739750D01*
X103776500Y-63302250D01*
X103775326Y-63326142D01*
X103771816Y-63349803D01*
X103766004Y-63373007D01*
X103757946Y-63395529D01*
X103747718Y-63417153D01*
X103735421Y-63437670D01*
X103721171Y-63456883D01*
X103705107Y-63474607D01*
X103687383Y-63490671D01*
X103668170Y-63504921D01*
X103647653Y-63517218D01*
X103626029Y-63527446D01*
X103603507Y-63535504D01*
X103580303Y-63541316D01*
X103556642Y-63544826D01*
X103532750Y-63546000D01*
X103045250Y-63546000D01*
X103021358Y-63544826D01*
X102997697Y-63541316D01*
X102974493Y-63535504D01*
X102951971Y-63527446D01*
X102930347Y-63517218D01*
X102909830Y-63504921D01*
X102890617Y-63490671D01*
X102872893Y-63474607D01*
X102856829Y-63456883D01*
X102842579Y-63437670D01*
X102830282Y-63417153D01*
X102820054Y-63395529D01*
X102811996Y-63373007D01*
X102806184Y-63349803D01*
X102802674Y-63326142D01*
X102801500Y-63302250D01*
X102801500Y-62739750D01*
X102802674Y-62715858D01*
X102806184Y-62692197D01*
X102811996Y-62668993D01*
X102820054Y-62646471D01*
X102830282Y-62624847D01*
X102842579Y-62604330D01*
X102856829Y-62585117D01*
X102872893Y-62567393D01*
X102890617Y-62551329D01*
X102909830Y-62537079D01*
X102930347Y-62524782D01*
X102951971Y-62514554D01*
X102974493Y-62506496D01*
X102997697Y-62500684D01*
X103021358Y-62497174D01*
X103045250Y-62496000D01*
X103532750Y-62496000D01*
X103556642Y-62497174D01*
G37*
G36*
X105131642Y-62497174D02*
G01*
X105155303Y-62500684D01*
X105178507Y-62506496D01*
X105201029Y-62514554D01*
X105222653Y-62524782D01*
X105243170Y-62537079D01*
X105262383Y-62551329D01*
X105280107Y-62567393D01*
X105296171Y-62585117D01*
X105310421Y-62604330D01*
X105322718Y-62624847D01*
X105332946Y-62646471D01*
X105341004Y-62668993D01*
X105346816Y-62692197D01*
X105350326Y-62715858D01*
X105351500Y-62739750D01*
X105351500Y-63302250D01*
X105350326Y-63326142D01*
X105346816Y-63349803D01*
X105341004Y-63373007D01*
X105332946Y-63395529D01*
X105322718Y-63417153D01*
X105310421Y-63437670D01*
X105296171Y-63456883D01*
X105280107Y-63474607D01*
X105262383Y-63490671D01*
X105243170Y-63504921D01*
X105222653Y-63517218D01*
X105201029Y-63527446D01*
X105178507Y-63535504D01*
X105155303Y-63541316D01*
X105131642Y-63544826D01*
X105107750Y-63546000D01*
X104620250Y-63546000D01*
X104596358Y-63544826D01*
X104572697Y-63541316D01*
X104549493Y-63535504D01*
X104526971Y-63527446D01*
X104505347Y-63517218D01*
X104484830Y-63504921D01*
X104465617Y-63490671D01*
X104447893Y-63474607D01*
X104431829Y-63456883D01*
X104417579Y-63437670D01*
X104405282Y-63417153D01*
X104395054Y-63395529D01*
X104386996Y-63373007D01*
X104381184Y-63349803D01*
X104377674Y-63326142D01*
X104376500Y-63302250D01*
X104376500Y-62739750D01*
X104377674Y-62715858D01*
X104381184Y-62692197D01*
X104386996Y-62668993D01*
X104395054Y-62646471D01*
X104405282Y-62624847D01*
X104417579Y-62604330D01*
X104431829Y-62585117D01*
X104447893Y-62567393D01*
X104465617Y-62551329D01*
X104484830Y-62537079D01*
X104505347Y-62524782D01*
X104526971Y-62514554D01*
X104549493Y-62506496D01*
X104572697Y-62500684D01*
X104596358Y-62497174D01*
X104620250Y-62496000D01*
X105107750Y-62496000D01*
X105131642Y-62497174D01*
G37*
G36*
X85395642Y-62497174D02*
G01*
X85419303Y-62500684D01*
X85442507Y-62506496D01*
X85465029Y-62514554D01*
X85486653Y-62524782D01*
X85507170Y-62537079D01*
X85526383Y-62551329D01*
X85544107Y-62567393D01*
X85560171Y-62585117D01*
X85574421Y-62604330D01*
X85586718Y-62624847D01*
X85596946Y-62646471D01*
X85605004Y-62668993D01*
X85610816Y-62692197D01*
X85614326Y-62715858D01*
X85615500Y-62739750D01*
X85615500Y-63302250D01*
X85614326Y-63326142D01*
X85610816Y-63349803D01*
X85605004Y-63373007D01*
X85596946Y-63395529D01*
X85586718Y-63417153D01*
X85574421Y-63437670D01*
X85560171Y-63456883D01*
X85544107Y-63474607D01*
X85526383Y-63490671D01*
X85507170Y-63504921D01*
X85486653Y-63517218D01*
X85465029Y-63527446D01*
X85442507Y-63535504D01*
X85419303Y-63541316D01*
X85395642Y-63544826D01*
X85371750Y-63546000D01*
X84884250Y-63546000D01*
X84860358Y-63544826D01*
X84836697Y-63541316D01*
X84813493Y-63535504D01*
X84790971Y-63527446D01*
X84769347Y-63517218D01*
X84748830Y-63504921D01*
X84729617Y-63490671D01*
X84711893Y-63474607D01*
X84695829Y-63456883D01*
X84681579Y-63437670D01*
X84669282Y-63417153D01*
X84659054Y-63395529D01*
X84650996Y-63373007D01*
X84645184Y-63349803D01*
X84641674Y-63326142D01*
X84640500Y-63302250D01*
X84640500Y-62739750D01*
X84641674Y-62715858D01*
X84645184Y-62692197D01*
X84650996Y-62668993D01*
X84659054Y-62646471D01*
X84669282Y-62624847D01*
X84681579Y-62604330D01*
X84695829Y-62585117D01*
X84711893Y-62567393D01*
X84729617Y-62551329D01*
X84748830Y-62537079D01*
X84769347Y-62524782D01*
X84790971Y-62514554D01*
X84813493Y-62506496D01*
X84836697Y-62500684D01*
X84860358Y-62497174D01*
X84884250Y-62496000D01*
X85371750Y-62496000D01*
X85395642Y-62497174D01*
G37*
G36*
X86970642Y-62497174D02*
G01*
X86994303Y-62500684D01*
X87017507Y-62506496D01*
X87040029Y-62514554D01*
X87061653Y-62524782D01*
X87082170Y-62537079D01*
X87101383Y-62551329D01*
X87119107Y-62567393D01*
X87135171Y-62585117D01*
X87149421Y-62604330D01*
X87161718Y-62624847D01*
X87171946Y-62646471D01*
X87180004Y-62668993D01*
X87185816Y-62692197D01*
X87189326Y-62715858D01*
X87190500Y-62739750D01*
X87190500Y-63302250D01*
X87189326Y-63326142D01*
X87185816Y-63349803D01*
X87180004Y-63373007D01*
X87171946Y-63395529D01*
X87161718Y-63417153D01*
X87149421Y-63437670D01*
X87135171Y-63456883D01*
X87119107Y-63474607D01*
X87101383Y-63490671D01*
X87082170Y-63504921D01*
X87061653Y-63517218D01*
X87040029Y-63527446D01*
X87017507Y-63535504D01*
X86994303Y-63541316D01*
X86970642Y-63544826D01*
X86946750Y-63546000D01*
X86459250Y-63546000D01*
X86435358Y-63544826D01*
X86411697Y-63541316D01*
X86388493Y-63535504D01*
X86365971Y-63527446D01*
X86344347Y-63517218D01*
X86323830Y-63504921D01*
X86304617Y-63490671D01*
X86286893Y-63474607D01*
X86270829Y-63456883D01*
X86256579Y-63437670D01*
X86244282Y-63417153D01*
X86234054Y-63395529D01*
X86225996Y-63373007D01*
X86220184Y-63349803D01*
X86216674Y-63326142D01*
X86215500Y-63302250D01*
X86215500Y-62739750D01*
X86216674Y-62715858D01*
X86220184Y-62692197D01*
X86225996Y-62668993D01*
X86234054Y-62646471D01*
X86244282Y-62624847D01*
X86256579Y-62604330D01*
X86270829Y-62585117D01*
X86286893Y-62567393D01*
X86304617Y-62551329D01*
X86323830Y-62537079D01*
X86344347Y-62524782D01*
X86365971Y-62514554D01*
X86388493Y-62506496D01*
X86411697Y-62500684D01*
X86435358Y-62497174D01*
X86459250Y-62496000D01*
X86946750Y-62496000D01*
X86970642Y-62497174D01*
G37*
G36*
X89955142Y-62497174D02*
G01*
X89978803Y-62500684D01*
X90002007Y-62506496D01*
X90024529Y-62514554D01*
X90046153Y-62524782D01*
X90066670Y-62537079D01*
X90085883Y-62551329D01*
X90103607Y-62567393D01*
X90119671Y-62585117D01*
X90133921Y-62604330D01*
X90146218Y-62624847D01*
X90156446Y-62646471D01*
X90164504Y-62668993D01*
X90170316Y-62692197D01*
X90173826Y-62715858D01*
X90175000Y-62739750D01*
X90175000Y-63302250D01*
X90173826Y-63326142D01*
X90170316Y-63349803D01*
X90164504Y-63373007D01*
X90156446Y-63395529D01*
X90146218Y-63417153D01*
X90133921Y-63437670D01*
X90119671Y-63456883D01*
X90103607Y-63474607D01*
X90085883Y-63490671D01*
X90066670Y-63504921D01*
X90046153Y-63517218D01*
X90024529Y-63527446D01*
X90002007Y-63535504D01*
X89978803Y-63541316D01*
X89955142Y-63544826D01*
X89931250Y-63546000D01*
X89443750Y-63546000D01*
X89419858Y-63544826D01*
X89396197Y-63541316D01*
X89372993Y-63535504D01*
X89350471Y-63527446D01*
X89328847Y-63517218D01*
X89308330Y-63504921D01*
X89289117Y-63490671D01*
X89271393Y-63474607D01*
X89255329Y-63456883D01*
X89241079Y-63437670D01*
X89228782Y-63417153D01*
X89218554Y-63395529D01*
X89210496Y-63373007D01*
X89204684Y-63349803D01*
X89201174Y-63326142D01*
X89200000Y-63302250D01*
X89200000Y-62739750D01*
X89201174Y-62715858D01*
X89204684Y-62692197D01*
X89210496Y-62668993D01*
X89218554Y-62646471D01*
X89228782Y-62624847D01*
X89241079Y-62604330D01*
X89255329Y-62585117D01*
X89271393Y-62567393D01*
X89289117Y-62551329D01*
X89308330Y-62537079D01*
X89328847Y-62524782D01*
X89350471Y-62514554D01*
X89372993Y-62506496D01*
X89396197Y-62500684D01*
X89419858Y-62497174D01*
X89443750Y-62496000D01*
X89931250Y-62496000D01*
X89955142Y-62497174D01*
G37*
G36*
X88380142Y-62497174D02*
G01*
X88403803Y-62500684D01*
X88427007Y-62506496D01*
X88449529Y-62514554D01*
X88471153Y-62524782D01*
X88491670Y-62537079D01*
X88510883Y-62551329D01*
X88528607Y-62567393D01*
X88544671Y-62585117D01*
X88558921Y-62604330D01*
X88571218Y-62624847D01*
X88581446Y-62646471D01*
X88589504Y-62668993D01*
X88595316Y-62692197D01*
X88598826Y-62715858D01*
X88600000Y-62739750D01*
X88600000Y-63302250D01*
X88598826Y-63326142D01*
X88595316Y-63349803D01*
X88589504Y-63373007D01*
X88581446Y-63395529D01*
X88571218Y-63417153D01*
X88558921Y-63437670D01*
X88544671Y-63456883D01*
X88528607Y-63474607D01*
X88510883Y-63490671D01*
X88491670Y-63504921D01*
X88471153Y-63517218D01*
X88449529Y-63527446D01*
X88427007Y-63535504D01*
X88403803Y-63541316D01*
X88380142Y-63544826D01*
X88356250Y-63546000D01*
X87868750Y-63546000D01*
X87844858Y-63544826D01*
X87821197Y-63541316D01*
X87797993Y-63535504D01*
X87775471Y-63527446D01*
X87753847Y-63517218D01*
X87733330Y-63504921D01*
X87714117Y-63490671D01*
X87696393Y-63474607D01*
X87680329Y-63456883D01*
X87666079Y-63437670D01*
X87653782Y-63417153D01*
X87643554Y-63395529D01*
X87635496Y-63373007D01*
X87629684Y-63349803D01*
X87626174Y-63326142D01*
X87625000Y-63302250D01*
X87625000Y-62739750D01*
X87626174Y-62715858D01*
X87629684Y-62692197D01*
X87635496Y-62668993D01*
X87643554Y-62646471D01*
X87653782Y-62624847D01*
X87666079Y-62604330D01*
X87680329Y-62585117D01*
X87696393Y-62567393D01*
X87714117Y-62551329D01*
X87733330Y-62537079D01*
X87753847Y-62524782D01*
X87775471Y-62514554D01*
X87797993Y-62506496D01*
X87821197Y-62500684D01*
X87844858Y-62497174D01*
X87868750Y-62496000D01*
X88356250Y-62496000D01*
X88380142Y-62497174D01*
G37*
G36*
X91428142Y-62497174D02*
G01*
X91451803Y-62500684D01*
X91475007Y-62506496D01*
X91497529Y-62514554D01*
X91519153Y-62524782D01*
X91539670Y-62537079D01*
X91558883Y-62551329D01*
X91576607Y-62567393D01*
X91592671Y-62585117D01*
X91606921Y-62604330D01*
X91619218Y-62624847D01*
X91629446Y-62646471D01*
X91637504Y-62668993D01*
X91643316Y-62692197D01*
X91646826Y-62715858D01*
X91648000Y-62739750D01*
X91648000Y-63302250D01*
X91646826Y-63326142D01*
X91643316Y-63349803D01*
X91637504Y-63373007D01*
X91629446Y-63395529D01*
X91619218Y-63417153D01*
X91606921Y-63437670D01*
X91592671Y-63456883D01*
X91576607Y-63474607D01*
X91558883Y-63490671D01*
X91539670Y-63504921D01*
X91519153Y-63517218D01*
X91497529Y-63527446D01*
X91475007Y-63535504D01*
X91451803Y-63541316D01*
X91428142Y-63544826D01*
X91404250Y-63546000D01*
X90916750Y-63546000D01*
X90892858Y-63544826D01*
X90869197Y-63541316D01*
X90845993Y-63535504D01*
X90823471Y-63527446D01*
X90801847Y-63517218D01*
X90781330Y-63504921D01*
X90762117Y-63490671D01*
X90744393Y-63474607D01*
X90728329Y-63456883D01*
X90714079Y-63437670D01*
X90701782Y-63417153D01*
X90691554Y-63395529D01*
X90683496Y-63373007D01*
X90677684Y-63349803D01*
X90674174Y-63326142D01*
X90673000Y-63302250D01*
X90673000Y-62739750D01*
X90674174Y-62715858D01*
X90677684Y-62692197D01*
X90683496Y-62668993D01*
X90691554Y-62646471D01*
X90701782Y-62624847D01*
X90714079Y-62604330D01*
X90728329Y-62585117D01*
X90744393Y-62567393D01*
X90762117Y-62551329D01*
X90781330Y-62537079D01*
X90801847Y-62524782D01*
X90823471Y-62514554D01*
X90845993Y-62506496D01*
X90869197Y-62500684D01*
X90892858Y-62497174D01*
X90916750Y-62496000D01*
X91404250Y-62496000D01*
X91428142Y-62497174D01*
G37*
G36*
X93003142Y-62497174D02*
G01*
X93026803Y-62500684D01*
X93050007Y-62506496D01*
X93072529Y-62514554D01*
X93094153Y-62524782D01*
X93114670Y-62537079D01*
X93133883Y-62551329D01*
X93151607Y-62567393D01*
X93167671Y-62585117D01*
X93181921Y-62604330D01*
X93194218Y-62624847D01*
X93204446Y-62646471D01*
X93212504Y-62668993D01*
X93218316Y-62692197D01*
X93221826Y-62715858D01*
X93223000Y-62739750D01*
X93223000Y-63302250D01*
X93221826Y-63326142D01*
X93218316Y-63349803D01*
X93212504Y-63373007D01*
X93204446Y-63395529D01*
X93194218Y-63417153D01*
X93181921Y-63437670D01*
X93167671Y-63456883D01*
X93151607Y-63474607D01*
X93133883Y-63490671D01*
X93114670Y-63504921D01*
X93094153Y-63517218D01*
X93072529Y-63527446D01*
X93050007Y-63535504D01*
X93026803Y-63541316D01*
X93003142Y-63544826D01*
X92979250Y-63546000D01*
X92491750Y-63546000D01*
X92467858Y-63544826D01*
X92444197Y-63541316D01*
X92420993Y-63535504D01*
X92398471Y-63527446D01*
X92376847Y-63517218D01*
X92356330Y-63504921D01*
X92337117Y-63490671D01*
X92319393Y-63474607D01*
X92303329Y-63456883D01*
X92289079Y-63437670D01*
X92276782Y-63417153D01*
X92266554Y-63395529D01*
X92258496Y-63373007D01*
X92252684Y-63349803D01*
X92249174Y-63326142D01*
X92248000Y-63302250D01*
X92248000Y-62739750D01*
X92249174Y-62715858D01*
X92252684Y-62692197D01*
X92258496Y-62668993D01*
X92266554Y-62646471D01*
X92276782Y-62624847D01*
X92289079Y-62604330D01*
X92303329Y-62585117D01*
X92319393Y-62567393D01*
X92337117Y-62551329D01*
X92356330Y-62537079D01*
X92376847Y-62524782D01*
X92398471Y-62514554D01*
X92420993Y-62506496D01*
X92444197Y-62500684D01*
X92467858Y-62497174D01*
X92491750Y-62496000D01*
X92979250Y-62496000D01*
X93003142Y-62497174D01*
G37*
D14*
X61450000Y-61743000D03*
X61450000Y-67543000D03*
D15*
X61450000Y-68143000D03*
X61450000Y-61143000D03*
D16*
X61450000Y-63643000D03*
D17*
X64150000Y-67143000D03*
D18*
X64150000Y-64643000D03*
X64150000Y-65293000D03*
X64150000Y-65943000D03*
X64150000Y-63343000D03*
X64150000Y-63993000D03*
D17*
X64150000Y-62143000D03*
D16*
X61450000Y-65643000D03*
D19*
X95500000Y-81800000D03*
X95500000Y-77200000D03*
X95000000Y-81800000D03*
X95000000Y-77200000D03*
X94500000Y-81800000D03*
X94500000Y-77200000D03*
X94000000Y-81800000D03*
X94000000Y-77200000D03*
X93500000Y-81800000D03*
X93500000Y-77200000D03*
X93000000Y-81800000D03*
X93000000Y-77200000D03*
X92500000Y-81800000D03*
X92500000Y-77200000D03*
X92000000Y-81800000D03*
X92000000Y-77200000D03*
X91500000Y-81800000D03*
X91500000Y-77200000D03*
X91000000Y-81800000D03*
X91000000Y-77200000D03*
X90500000Y-81800000D03*
X90500000Y-77200000D03*
X90000000Y-81800000D03*
X90000000Y-77200000D03*
X89500000Y-81800000D03*
X89500000Y-77200000D03*
X89000000Y-81800000D03*
X89000000Y-77200000D03*
X88500000Y-81800000D03*
X88500000Y-77200000D03*
X88000000Y-81800000D03*
X88000000Y-77200000D03*
X87500000Y-81800000D03*
X87500000Y-77200000D03*
X87000000Y-81800000D03*
X87000000Y-77200000D03*
X86500000Y-81800000D03*
X86500000Y-77200000D03*
X86000000Y-81800000D03*
X86000000Y-77200000D03*
D20*
X97000000Y-81800000D03*
X97000000Y-77200000D03*
X84500000Y-77200000D03*
X84500000Y-81800000D03*
D21*
X101400000Y-72250000D03*
X101400000Y-67150000D03*
X100600000Y-72250000D03*
X100600000Y-67150000D03*
X99800000Y-72250000D03*
X99800000Y-67150000D03*
X99000000Y-72250000D03*
X99000000Y-67150000D03*
X98200000Y-72250000D03*
X98200000Y-67150000D03*
X97400000Y-72250000D03*
X97400000Y-67150000D03*
X96600000Y-72250000D03*
X96600000Y-67150000D03*
X95800000Y-72250000D03*
X95800000Y-67150000D03*
X95000000Y-72250000D03*
X95000000Y-67150000D03*
X94200000Y-72250000D03*
X94200000Y-67150000D03*
X93400000Y-72250000D03*
X93400000Y-67150000D03*
X92600000Y-72250000D03*
X92600000Y-67150000D03*
X91800000Y-72250000D03*
X91800000Y-67150000D03*
X91000000Y-72250000D03*
X91000000Y-67150000D03*
X90200000Y-72250000D03*
X90200000Y-67150000D03*
X89400000Y-72250000D03*
X89400000Y-67150000D03*
X88600000Y-72250000D03*
X88600000Y-67150000D03*
X87800000Y-72250000D03*
X87800000Y-67150000D03*
X87000000Y-72250000D03*
X87000000Y-67150000D03*
X86200000Y-72250000D03*
X86200000Y-67150000D03*
D22*
X105900000Y-69700000D03*
X81700000Y-69700000D03*
D23*
X85450000Y-69700000D03*
X102150000Y-69700000D03*
D13*
G36*
X63280142Y-69516674D02*
G01*
X63303803Y-69520184D01*
X63327007Y-69525996D01*
X63349529Y-69534054D01*
X63371153Y-69544282D01*
X63391670Y-69556579D01*
X63410883Y-69570829D01*
X63428607Y-69586893D01*
X63444671Y-69604617D01*
X63458921Y-69623830D01*
X63471218Y-69644347D01*
X63481446Y-69665971D01*
X63489504Y-69688493D01*
X63495316Y-69711697D01*
X63498826Y-69735358D01*
X63500000Y-69759250D01*
X63500000Y-70321750D01*
X63498826Y-70345642D01*
X63495316Y-70369303D01*
X63489504Y-70392507D01*
X63481446Y-70415029D01*
X63471218Y-70436653D01*
X63458921Y-70457170D01*
X63444671Y-70476383D01*
X63428607Y-70494107D01*
X63410883Y-70510171D01*
X63391670Y-70524421D01*
X63371153Y-70536718D01*
X63349529Y-70546946D01*
X63327007Y-70555004D01*
X63303803Y-70560816D01*
X63280142Y-70564326D01*
X63256250Y-70565500D01*
X62768750Y-70565500D01*
X62744858Y-70564326D01*
X62721197Y-70560816D01*
X62697993Y-70555004D01*
X62675471Y-70546946D01*
X62653847Y-70536718D01*
X62633330Y-70524421D01*
X62614117Y-70510171D01*
X62596393Y-70494107D01*
X62580329Y-70476383D01*
X62566079Y-70457170D01*
X62553782Y-70436653D01*
X62543554Y-70415029D01*
X62535496Y-70392507D01*
X62529684Y-70369303D01*
X62526174Y-70345642D01*
X62525000Y-70321750D01*
X62525000Y-69759250D01*
X62526174Y-69735358D01*
X62529684Y-69711697D01*
X62535496Y-69688493D01*
X62543554Y-69665971D01*
X62553782Y-69644347D01*
X62566079Y-69623830D01*
X62580329Y-69604617D01*
X62596393Y-69586893D01*
X62614117Y-69570829D01*
X62633330Y-69556579D01*
X62653847Y-69544282D01*
X62675471Y-69534054D01*
X62697993Y-69525996D01*
X62721197Y-69520184D01*
X62744858Y-69516674D01*
X62768750Y-69515500D01*
X63256250Y-69515500D01*
X63280142Y-69516674D01*
G37*
G36*
X64855142Y-69516674D02*
G01*
X64878803Y-69520184D01*
X64902007Y-69525996D01*
X64924529Y-69534054D01*
X64946153Y-69544282D01*
X64966670Y-69556579D01*
X64985883Y-69570829D01*
X65003607Y-69586893D01*
X65019671Y-69604617D01*
X65033921Y-69623830D01*
X65046218Y-69644347D01*
X65056446Y-69665971D01*
X65064504Y-69688493D01*
X65070316Y-69711697D01*
X65073826Y-69735358D01*
X65075000Y-69759250D01*
X65075000Y-70321750D01*
X65073826Y-70345642D01*
X65070316Y-70369303D01*
X65064504Y-70392507D01*
X65056446Y-70415029D01*
X65046218Y-70436653D01*
X65033921Y-70457170D01*
X65019671Y-70476383D01*
X65003607Y-70494107D01*
X64985883Y-70510171D01*
X64966670Y-70524421D01*
X64946153Y-70536718D01*
X64924529Y-70546946D01*
X64902007Y-70555004D01*
X64878803Y-70560816D01*
X64855142Y-70564326D01*
X64831250Y-70565500D01*
X64343750Y-70565500D01*
X64319858Y-70564326D01*
X64296197Y-70560816D01*
X64272993Y-70555004D01*
X64250471Y-70546946D01*
X64228847Y-70536718D01*
X64208330Y-70524421D01*
X64189117Y-70510171D01*
X64171393Y-70494107D01*
X64155329Y-70476383D01*
X64141079Y-70457170D01*
X64128782Y-70436653D01*
X64118554Y-70415029D01*
X64110496Y-70392507D01*
X64104684Y-70369303D01*
X64101174Y-70345642D01*
X64100000Y-70321750D01*
X64100000Y-69759250D01*
X64101174Y-69735358D01*
X64104684Y-69711697D01*
X64110496Y-69688493D01*
X64118554Y-69665971D01*
X64128782Y-69644347D01*
X64141079Y-69623830D01*
X64155329Y-69604617D01*
X64171393Y-69586893D01*
X64189117Y-69570829D01*
X64208330Y-69556579D01*
X64228847Y-69544282D01*
X64250471Y-69534054D01*
X64272993Y-69525996D01*
X64296197Y-69520184D01*
X64319858Y-69516674D01*
X64343750Y-69515500D01*
X64831250Y-69515500D01*
X64855142Y-69516674D01*
G37*
G36*
X64905142Y-78701174D02*
G01*
X64928803Y-78704684D01*
X64952007Y-78710496D01*
X64974529Y-78718554D01*
X64996153Y-78728782D01*
X65016670Y-78741079D01*
X65035883Y-78755329D01*
X65053607Y-78771393D01*
X65069671Y-78789117D01*
X65083921Y-78808330D01*
X65096218Y-78828847D01*
X65106446Y-78850471D01*
X65114504Y-78872993D01*
X65120316Y-78896197D01*
X65123826Y-78919858D01*
X65125000Y-78943750D01*
X65125000Y-79431250D01*
X65123826Y-79455142D01*
X65120316Y-79478803D01*
X65114504Y-79502007D01*
X65106446Y-79524529D01*
X65096218Y-79546153D01*
X65083921Y-79566670D01*
X65069671Y-79585883D01*
X65053607Y-79603607D01*
X65035883Y-79619671D01*
X65016670Y-79633921D01*
X64996153Y-79646218D01*
X64974529Y-79656446D01*
X64952007Y-79664504D01*
X64928803Y-79670316D01*
X64905142Y-79673826D01*
X64881250Y-79675000D01*
X64318750Y-79675000D01*
X64294858Y-79673826D01*
X64271197Y-79670316D01*
X64247993Y-79664504D01*
X64225471Y-79656446D01*
X64203847Y-79646218D01*
X64183330Y-79633921D01*
X64164117Y-79619671D01*
X64146393Y-79603607D01*
X64130329Y-79585883D01*
X64116079Y-79566670D01*
X64103782Y-79546153D01*
X64093554Y-79524529D01*
X64085496Y-79502007D01*
X64079684Y-79478803D01*
X64076174Y-79455142D01*
X64075000Y-79431250D01*
X64075000Y-78943750D01*
X64076174Y-78919858D01*
X64079684Y-78896197D01*
X64085496Y-78872993D01*
X64093554Y-78850471D01*
X64103782Y-78828847D01*
X64116079Y-78808330D01*
X64130329Y-78789117D01*
X64146393Y-78771393D01*
X64164117Y-78755329D01*
X64183330Y-78741079D01*
X64203847Y-78728782D01*
X64225471Y-78718554D01*
X64247993Y-78710496D01*
X64271197Y-78704684D01*
X64294858Y-78701174D01*
X64318750Y-78700000D01*
X64881250Y-78700000D01*
X64905142Y-78701174D01*
G37*
G36*
X64905142Y-77126174D02*
G01*
X64928803Y-77129684D01*
X64952007Y-77135496D01*
X64974529Y-77143554D01*
X64996153Y-77153782D01*
X65016670Y-77166079D01*
X65035883Y-77180329D01*
X65053607Y-77196393D01*
X65069671Y-77214117D01*
X65083921Y-77233330D01*
X65096218Y-77253847D01*
X65106446Y-77275471D01*
X65114504Y-77297993D01*
X65120316Y-77321197D01*
X65123826Y-77344858D01*
X65125000Y-77368750D01*
X65125000Y-77856250D01*
X65123826Y-77880142D01*
X65120316Y-77903803D01*
X65114504Y-77927007D01*
X65106446Y-77949529D01*
X65096218Y-77971153D01*
X65083921Y-77991670D01*
X65069671Y-78010883D01*
X65053607Y-78028607D01*
X65035883Y-78044671D01*
X65016670Y-78058921D01*
X64996153Y-78071218D01*
X64974529Y-78081446D01*
X64952007Y-78089504D01*
X64928803Y-78095316D01*
X64905142Y-78098826D01*
X64881250Y-78100000D01*
X64318750Y-78100000D01*
X64294858Y-78098826D01*
X64271197Y-78095316D01*
X64247993Y-78089504D01*
X64225471Y-78081446D01*
X64203847Y-78071218D01*
X64183330Y-78058921D01*
X64164117Y-78044671D01*
X64146393Y-78028607D01*
X64130329Y-78010883D01*
X64116079Y-77991670D01*
X64103782Y-77971153D01*
X64093554Y-77949529D01*
X64085496Y-77927007D01*
X64079684Y-77903803D01*
X64076174Y-77880142D01*
X64075000Y-77856250D01*
X64075000Y-77368750D01*
X64076174Y-77344858D01*
X64079684Y-77321197D01*
X64085496Y-77297993D01*
X64093554Y-77275471D01*
X64103782Y-77253847D01*
X64116079Y-77233330D01*
X64130329Y-77214117D01*
X64146393Y-77196393D01*
X64164117Y-77180329D01*
X64183330Y-77166079D01*
X64203847Y-77153782D01*
X64225471Y-77143554D01*
X64247993Y-77135496D01*
X64271197Y-77129684D01*
X64294858Y-77126174D01*
X64318750Y-77125000D01*
X64881250Y-77125000D01*
X64905142Y-77126174D01*
G37*
G36*
X61903504Y-71848000D02*
G01*
X62574092Y-70898000D01*
X63625908Y-70898000D01*
X64296496Y-71848000D01*
X61903504Y-71848000D01*
G37*
D24*
X61600000Y-75520000D03*
D25*
X63100000Y-75373500D03*
D24*
X64600000Y-75520000D03*
D26*
X63100000Y-72706500D03*
D13*
G36*
X64296033Y-73566200D02*
G01*
X63526033Y-74666200D01*
X62673967Y-74666200D01*
X61903967Y-73566200D01*
X64296033Y-73566200D01*
G37*
D27*
X66880000Y-82880000D03*
X66880000Y-80980000D03*
X64880000Y-81930000D03*
D28*
X67746500Y-65425500D03*
D29*
X69466500Y-65425500D03*
X69466500Y-63225500D03*
X67566500Y-63225500D03*
D13*
G36*
X77259802Y-79550482D02*
G01*
X77269509Y-79551921D01*
X77279028Y-79554306D01*
X77288268Y-79557612D01*
X77297140Y-79561808D01*
X77305557Y-79566853D01*
X77313439Y-79572699D01*
X77320711Y-79579289D01*
X77327301Y-79586561D01*
X77333147Y-79594443D01*
X77338192Y-79602860D01*
X77342388Y-79611732D01*
X77345694Y-79620972D01*
X77348079Y-79630491D01*
X77349518Y-79640198D01*
X77350000Y-79650000D01*
X77350000Y-81100000D01*
X77349518Y-81109802D01*
X77348079Y-81119509D01*
X77345694Y-81129028D01*
X77342388Y-81138268D01*
X77338192Y-81147140D01*
X77333147Y-81155557D01*
X77327301Y-81163439D01*
X77320711Y-81170711D01*
X77313439Y-81177301D01*
X77305557Y-81183147D01*
X77297140Y-81188192D01*
X77288268Y-81192388D01*
X77279028Y-81195694D01*
X77269509Y-81198079D01*
X77259802Y-81199518D01*
X77250000Y-81200000D01*
X77050000Y-81200000D01*
X77040198Y-81199518D01*
X77030491Y-81198079D01*
X77020972Y-81195694D01*
X77011732Y-81192388D01*
X77002860Y-81188192D01*
X76994443Y-81183147D01*
X76986561Y-81177301D01*
X76979289Y-81170711D01*
X76972699Y-81163439D01*
X76966853Y-81155557D01*
X76961808Y-81147140D01*
X76957612Y-81138268D01*
X76954306Y-81129028D01*
X76951921Y-81119509D01*
X76950482Y-81109802D01*
X76950000Y-81100000D01*
X76950000Y-79650000D01*
X76950482Y-79640198D01*
X76951921Y-79630491D01*
X76954306Y-79620972D01*
X76957612Y-79611732D01*
X76961808Y-79602860D01*
X76966853Y-79594443D01*
X76972699Y-79586561D01*
X76979289Y-79579289D01*
X76986561Y-79572699D01*
X76994443Y-79566853D01*
X77002860Y-79561808D01*
X77011732Y-79557612D01*
X77020972Y-79554306D01*
X77030491Y-79551921D01*
X77040198Y-79550482D01*
X77050000Y-79550000D01*
X77250000Y-79550000D01*
X77259802Y-79550482D01*
G37*
G36*
X76759802Y-79550482D02*
G01*
X76769509Y-79551921D01*
X76779028Y-79554306D01*
X76788268Y-79557612D01*
X76797140Y-79561808D01*
X76805557Y-79566853D01*
X76813439Y-79572699D01*
X76820711Y-79579289D01*
X76827301Y-79586561D01*
X76833147Y-79594443D01*
X76838192Y-79602860D01*
X76842388Y-79611732D01*
X76845694Y-79620972D01*
X76848079Y-79630491D01*
X76849518Y-79640198D01*
X76850000Y-79650000D01*
X76850000Y-81100000D01*
X76849518Y-81109802D01*
X76848079Y-81119509D01*
X76845694Y-81129028D01*
X76842388Y-81138268D01*
X76838192Y-81147140D01*
X76833147Y-81155557D01*
X76827301Y-81163439D01*
X76820711Y-81170711D01*
X76813439Y-81177301D01*
X76805557Y-81183147D01*
X76797140Y-81188192D01*
X76788268Y-81192388D01*
X76779028Y-81195694D01*
X76769509Y-81198079D01*
X76759802Y-81199518D01*
X76750000Y-81200000D01*
X76550000Y-81200000D01*
X76540198Y-81199518D01*
X76530491Y-81198079D01*
X76520972Y-81195694D01*
X76511732Y-81192388D01*
X76502860Y-81188192D01*
X76494443Y-81183147D01*
X76486561Y-81177301D01*
X76479289Y-81170711D01*
X76472699Y-81163439D01*
X76466853Y-81155557D01*
X76461808Y-81147140D01*
X76457612Y-81138268D01*
X76454306Y-81129028D01*
X76451921Y-81119509D01*
X76450482Y-81109802D01*
X76450000Y-81100000D01*
X76450000Y-79650000D01*
X76450482Y-79640198D01*
X76451921Y-79630491D01*
X76454306Y-79620972D01*
X76457612Y-79611732D01*
X76461808Y-79602860D01*
X76466853Y-79594443D01*
X76472699Y-79586561D01*
X76479289Y-79579289D01*
X76486561Y-79572699D01*
X76494443Y-79566853D01*
X76502860Y-79561808D01*
X76511732Y-79557612D01*
X76520972Y-79554306D01*
X76530491Y-79551921D01*
X76540198Y-79550482D01*
X76550000Y-79550000D01*
X76750000Y-79550000D01*
X76759802Y-79550482D01*
G37*
G36*
X76259802Y-79550482D02*
G01*
X76269509Y-79551921D01*
X76279028Y-79554306D01*
X76288268Y-79557612D01*
X76297140Y-79561808D01*
X76305557Y-79566853D01*
X76313439Y-79572699D01*
X76320711Y-79579289D01*
X76327301Y-79586561D01*
X76333147Y-79594443D01*
X76338192Y-79602860D01*
X76342388Y-79611732D01*
X76345694Y-79620972D01*
X76348079Y-79630491D01*
X76349518Y-79640198D01*
X76350000Y-79650000D01*
X76350000Y-81100000D01*
X76349518Y-81109802D01*
X76348079Y-81119509D01*
X76345694Y-81129028D01*
X76342388Y-81138268D01*
X76338192Y-81147140D01*
X76333147Y-81155557D01*
X76327301Y-81163439D01*
X76320711Y-81170711D01*
X76313439Y-81177301D01*
X76305557Y-81183147D01*
X76297140Y-81188192D01*
X76288268Y-81192388D01*
X76279028Y-81195694D01*
X76269509Y-81198079D01*
X76259802Y-81199518D01*
X76250000Y-81200000D01*
X76050000Y-81200000D01*
X76040198Y-81199518D01*
X76030491Y-81198079D01*
X76020972Y-81195694D01*
X76011732Y-81192388D01*
X76002860Y-81188192D01*
X75994443Y-81183147D01*
X75986561Y-81177301D01*
X75979289Y-81170711D01*
X75972699Y-81163439D01*
X75966853Y-81155557D01*
X75961808Y-81147140D01*
X75957612Y-81138268D01*
X75954306Y-81129028D01*
X75951921Y-81119509D01*
X75950482Y-81109802D01*
X75950000Y-81100000D01*
X75950000Y-79650000D01*
X75950482Y-79640198D01*
X75951921Y-79630491D01*
X75954306Y-79620972D01*
X75957612Y-79611732D01*
X75961808Y-79602860D01*
X75966853Y-79594443D01*
X75972699Y-79586561D01*
X75979289Y-79579289D01*
X75986561Y-79572699D01*
X75994443Y-79566853D01*
X76002860Y-79561808D01*
X76011732Y-79557612D01*
X76020972Y-79554306D01*
X76030491Y-79551921D01*
X76040198Y-79550482D01*
X76050000Y-79550000D01*
X76250000Y-79550000D01*
X76259802Y-79550482D01*
G37*
G36*
X75759802Y-79550482D02*
G01*
X75769509Y-79551921D01*
X75779028Y-79554306D01*
X75788268Y-79557612D01*
X75797140Y-79561808D01*
X75805557Y-79566853D01*
X75813439Y-79572699D01*
X75820711Y-79579289D01*
X75827301Y-79586561D01*
X75833147Y-79594443D01*
X75838192Y-79602860D01*
X75842388Y-79611732D01*
X75845694Y-79620972D01*
X75848079Y-79630491D01*
X75849518Y-79640198D01*
X75850000Y-79650000D01*
X75850000Y-81100000D01*
X75849518Y-81109802D01*
X75848079Y-81119509D01*
X75845694Y-81129028D01*
X75842388Y-81138268D01*
X75838192Y-81147140D01*
X75833147Y-81155557D01*
X75827301Y-81163439D01*
X75820711Y-81170711D01*
X75813439Y-81177301D01*
X75805557Y-81183147D01*
X75797140Y-81188192D01*
X75788268Y-81192388D01*
X75779028Y-81195694D01*
X75769509Y-81198079D01*
X75759802Y-81199518D01*
X75750000Y-81200000D01*
X75550000Y-81200000D01*
X75540198Y-81199518D01*
X75530491Y-81198079D01*
X75520972Y-81195694D01*
X75511732Y-81192388D01*
X75502860Y-81188192D01*
X75494443Y-81183147D01*
X75486561Y-81177301D01*
X75479289Y-81170711D01*
X75472699Y-81163439D01*
X75466853Y-81155557D01*
X75461808Y-81147140D01*
X75457612Y-81138268D01*
X75454306Y-81129028D01*
X75451921Y-81119509D01*
X75450482Y-81109802D01*
X75450000Y-81100000D01*
X75450000Y-79650000D01*
X75450482Y-79640198D01*
X75451921Y-79630491D01*
X75454306Y-79620972D01*
X75457612Y-79611732D01*
X75461808Y-79602860D01*
X75466853Y-79594443D01*
X75472699Y-79586561D01*
X75479289Y-79579289D01*
X75486561Y-79572699D01*
X75494443Y-79566853D01*
X75502860Y-79561808D01*
X75511732Y-79557612D01*
X75520972Y-79554306D01*
X75530491Y-79551921D01*
X75540198Y-79550482D01*
X75550000Y-79550000D01*
X75750000Y-79550000D01*
X75759802Y-79550482D01*
G37*
G36*
X75259802Y-79550482D02*
G01*
X75269509Y-79551921D01*
X75279028Y-79554306D01*
X75288268Y-79557612D01*
X75297140Y-79561808D01*
X75305557Y-79566853D01*
X75313439Y-79572699D01*
X75320711Y-79579289D01*
X75327301Y-79586561D01*
X75333147Y-79594443D01*
X75338192Y-79602860D01*
X75342388Y-79611732D01*
X75345694Y-79620972D01*
X75348079Y-79630491D01*
X75349518Y-79640198D01*
X75350000Y-79650000D01*
X75350000Y-81100000D01*
X75349518Y-81109802D01*
X75348079Y-81119509D01*
X75345694Y-81129028D01*
X75342388Y-81138268D01*
X75338192Y-81147140D01*
X75333147Y-81155557D01*
X75327301Y-81163439D01*
X75320711Y-81170711D01*
X75313439Y-81177301D01*
X75305557Y-81183147D01*
X75297140Y-81188192D01*
X75288268Y-81192388D01*
X75279028Y-81195694D01*
X75269509Y-81198079D01*
X75259802Y-81199518D01*
X75250000Y-81200000D01*
X75050000Y-81200000D01*
X75040198Y-81199518D01*
X75030491Y-81198079D01*
X75020972Y-81195694D01*
X75011732Y-81192388D01*
X75002860Y-81188192D01*
X74994443Y-81183147D01*
X74986561Y-81177301D01*
X74979289Y-81170711D01*
X74972699Y-81163439D01*
X74966853Y-81155557D01*
X74961808Y-81147140D01*
X74957612Y-81138268D01*
X74954306Y-81129028D01*
X74951921Y-81119509D01*
X74950482Y-81109802D01*
X74950000Y-81100000D01*
X74950000Y-79650000D01*
X74950482Y-79640198D01*
X74951921Y-79630491D01*
X74954306Y-79620972D01*
X74957612Y-79611732D01*
X74961808Y-79602860D01*
X74966853Y-79594443D01*
X74972699Y-79586561D01*
X74979289Y-79579289D01*
X74986561Y-79572699D01*
X74994443Y-79566853D01*
X75002860Y-79561808D01*
X75011732Y-79557612D01*
X75020972Y-79554306D01*
X75030491Y-79551921D01*
X75040198Y-79550482D01*
X75050000Y-79550000D01*
X75250000Y-79550000D01*
X75259802Y-79550482D01*
G37*
G36*
X74759802Y-79550482D02*
G01*
X74769509Y-79551921D01*
X74779028Y-79554306D01*
X74788268Y-79557612D01*
X74797140Y-79561808D01*
X74805557Y-79566853D01*
X74813439Y-79572699D01*
X74820711Y-79579289D01*
X74827301Y-79586561D01*
X74833147Y-79594443D01*
X74838192Y-79602860D01*
X74842388Y-79611732D01*
X74845694Y-79620972D01*
X74848079Y-79630491D01*
X74849518Y-79640198D01*
X74850000Y-79650000D01*
X74850000Y-81100000D01*
X74849518Y-81109802D01*
X74848079Y-81119509D01*
X74845694Y-81129028D01*
X74842388Y-81138268D01*
X74838192Y-81147140D01*
X74833147Y-81155557D01*
X74827301Y-81163439D01*
X74820711Y-81170711D01*
X74813439Y-81177301D01*
X74805557Y-81183147D01*
X74797140Y-81188192D01*
X74788268Y-81192388D01*
X74779028Y-81195694D01*
X74769509Y-81198079D01*
X74759802Y-81199518D01*
X74750000Y-81200000D01*
X74550000Y-81200000D01*
X74540198Y-81199518D01*
X74530491Y-81198079D01*
X74520972Y-81195694D01*
X74511732Y-81192388D01*
X74502860Y-81188192D01*
X74494443Y-81183147D01*
X74486561Y-81177301D01*
X74479289Y-81170711D01*
X74472699Y-81163439D01*
X74466853Y-81155557D01*
X74461808Y-81147140D01*
X74457612Y-81138268D01*
X74454306Y-81129028D01*
X74451921Y-81119509D01*
X74450482Y-81109802D01*
X74450000Y-81100000D01*
X74450000Y-79650000D01*
X74450482Y-79640198D01*
X74451921Y-79630491D01*
X74454306Y-79620972D01*
X74457612Y-79611732D01*
X74461808Y-79602860D01*
X74466853Y-79594443D01*
X74472699Y-79586561D01*
X74479289Y-79579289D01*
X74486561Y-79572699D01*
X74494443Y-79566853D01*
X74502860Y-79561808D01*
X74511732Y-79557612D01*
X74520972Y-79554306D01*
X74530491Y-79551921D01*
X74540198Y-79550482D01*
X74550000Y-79550000D01*
X74750000Y-79550000D01*
X74759802Y-79550482D01*
G37*
G36*
X74259802Y-79550482D02*
G01*
X74269509Y-79551921D01*
X74279028Y-79554306D01*
X74288268Y-79557612D01*
X74297140Y-79561808D01*
X74305557Y-79566853D01*
X74313439Y-79572699D01*
X74320711Y-79579289D01*
X74327301Y-79586561D01*
X74333147Y-79594443D01*
X74338192Y-79602860D01*
X74342388Y-79611732D01*
X74345694Y-79620972D01*
X74348079Y-79630491D01*
X74349518Y-79640198D01*
X74350000Y-79650000D01*
X74350000Y-81100000D01*
X74349518Y-81109802D01*
X74348079Y-81119509D01*
X74345694Y-81129028D01*
X74342388Y-81138268D01*
X74338192Y-81147140D01*
X74333147Y-81155557D01*
X74327301Y-81163439D01*
X74320711Y-81170711D01*
X74313439Y-81177301D01*
X74305557Y-81183147D01*
X74297140Y-81188192D01*
X74288268Y-81192388D01*
X74279028Y-81195694D01*
X74269509Y-81198079D01*
X74259802Y-81199518D01*
X74250000Y-81200000D01*
X74050000Y-81200000D01*
X74040198Y-81199518D01*
X74030491Y-81198079D01*
X74020972Y-81195694D01*
X74011732Y-81192388D01*
X74002860Y-81188192D01*
X73994443Y-81183147D01*
X73986561Y-81177301D01*
X73979289Y-81170711D01*
X73972699Y-81163439D01*
X73966853Y-81155557D01*
X73961808Y-81147140D01*
X73957612Y-81138268D01*
X73954306Y-81129028D01*
X73951921Y-81119509D01*
X73950482Y-81109802D01*
X73950000Y-81100000D01*
X73950000Y-79650000D01*
X73950482Y-79640198D01*
X73951921Y-79630491D01*
X73954306Y-79620972D01*
X73957612Y-79611732D01*
X73961808Y-79602860D01*
X73966853Y-79594443D01*
X73972699Y-79586561D01*
X73979289Y-79579289D01*
X73986561Y-79572699D01*
X73994443Y-79566853D01*
X74002860Y-79561808D01*
X74011732Y-79557612D01*
X74020972Y-79554306D01*
X74030491Y-79551921D01*
X74040198Y-79550482D01*
X74050000Y-79550000D01*
X74250000Y-79550000D01*
X74259802Y-79550482D01*
G37*
G36*
X73759802Y-79550482D02*
G01*
X73769509Y-79551921D01*
X73779028Y-79554306D01*
X73788268Y-79557612D01*
X73797140Y-79561808D01*
X73805557Y-79566853D01*
X73813439Y-79572699D01*
X73820711Y-79579289D01*
X73827301Y-79586561D01*
X73833147Y-79594443D01*
X73838192Y-79602860D01*
X73842388Y-79611732D01*
X73845694Y-79620972D01*
X73848079Y-79630491D01*
X73849518Y-79640198D01*
X73850000Y-79650000D01*
X73850000Y-81100000D01*
X73849518Y-81109802D01*
X73848079Y-81119509D01*
X73845694Y-81129028D01*
X73842388Y-81138268D01*
X73838192Y-81147140D01*
X73833147Y-81155557D01*
X73827301Y-81163439D01*
X73820711Y-81170711D01*
X73813439Y-81177301D01*
X73805557Y-81183147D01*
X73797140Y-81188192D01*
X73788268Y-81192388D01*
X73779028Y-81195694D01*
X73769509Y-81198079D01*
X73759802Y-81199518D01*
X73750000Y-81200000D01*
X73550000Y-81200000D01*
X73540198Y-81199518D01*
X73530491Y-81198079D01*
X73520972Y-81195694D01*
X73511732Y-81192388D01*
X73502860Y-81188192D01*
X73494443Y-81183147D01*
X73486561Y-81177301D01*
X73479289Y-81170711D01*
X73472699Y-81163439D01*
X73466853Y-81155557D01*
X73461808Y-81147140D01*
X73457612Y-81138268D01*
X73454306Y-81129028D01*
X73451921Y-81119509D01*
X73450482Y-81109802D01*
X73450000Y-81100000D01*
X73450000Y-79650000D01*
X73450482Y-79640198D01*
X73451921Y-79630491D01*
X73454306Y-79620972D01*
X73457612Y-79611732D01*
X73461808Y-79602860D01*
X73466853Y-79594443D01*
X73472699Y-79586561D01*
X73479289Y-79579289D01*
X73486561Y-79572699D01*
X73494443Y-79566853D01*
X73502860Y-79561808D01*
X73511732Y-79557612D01*
X73520972Y-79554306D01*
X73530491Y-79551921D01*
X73540198Y-79550482D01*
X73550000Y-79550000D01*
X73750000Y-79550000D01*
X73759802Y-79550482D01*
G37*
G36*
X73259802Y-79550482D02*
G01*
X73269509Y-79551921D01*
X73279028Y-79554306D01*
X73288268Y-79557612D01*
X73297140Y-79561808D01*
X73305557Y-79566853D01*
X73313439Y-79572699D01*
X73320711Y-79579289D01*
X73327301Y-79586561D01*
X73333147Y-79594443D01*
X73338192Y-79602860D01*
X73342388Y-79611732D01*
X73345694Y-79620972D01*
X73348079Y-79630491D01*
X73349518Y-79640198D01*
X73350000Y-79650000D01*
X73350000Y-81100000D01*
X73349518Y-81109802D01*
X73348079Y-81119509D01*
X73345694Y-81129028D01*
X73342388Y-81138268D01*
X73338192Y-81147140D01*
X73333147Y-81155557D01*
X73327301Y-81163439D01*
X73320711Y-81170711D01*
X73313439Y-81177301D01*
X73305557Y-81183147D01*
X73297140Y-81188192D01*
X73288268Y-81192388D01*
X73279028Y-81195694D01*
X73269509Y-81198079D01*
X73259802Y-81199518D01*
X73250000Y-81200000D01*
X73050000Y-81200000D01*
X73040198Y-81199518D01*
X73030491Y-81198079D01*
X73020972Y-81195694D01*
X73011732Y-81192388D01*
X73002860Y-81188192D01*
X72994443Y-81183147D01*
X72986561Y-81177301D01*
X72979289Y-81170711D01*
X72972699Y-81163439D01*
X72966853Y-81155557D01*
X72961808Y-81147140D01*
X72957612Y-81138268D01*
X72954306Y-81129028D01*
X72951921Y-81119509D01*
X72950482Y-81109802D01*
X72950000Y-81100000D01*
X72950000Y-79650000D01*
X72950482Y-79640198D01*
X72951921Y-79630491D01*
X72954306Y-79620972D01*
X72957612Y-79611732D01*
X72961808Y-79602860D01*
X72966853Y-79594443D01*
X72972699Y-79586561D01*
X72979289Y-79579289D01*
X72986561Y-79572699D01*
X72994443Y-79566853D01*
X73002860Y-79561808D01*
X73011732Y-79557612D01*
X73020972Y-79554306D01*
X73030491Y-79551921D01*
X73040198Y-79550482D01*
X73050000Y-79550000D01*
X73250000Y-79550000D01*
X73259802Y-79550482D01*
G37*
G36*
X72759802Y-79550482D02*
G01*
X72769509Y-79551921D01*
X72779028Y-79554306D01*
X72788268Y-79557612D01*
X72797140Y-79561808D01*
X72805557Y-79566853D01*
X72813439Y-79572699D01*
X72820711Y-79579289D01*
X72827301Y-79586561D01*
X72833147Y-79594443D01*
X72838192Y-79602860D01*
X72842388Y-79611732D01*
X72845694Y-79620972D01*
X72848079Y-79630491D01*
X72849518Y-79640198D01*
X72850000Y-79650000D01*
X72850000Y-81100000D01*
X72849518Y-81109802D01*
X72848079Y-81119509D01*
X72845694Y-81129028D01*
X72842388Y-81138268D01*
X72838192Y-81147140D01*
X72833147Y-81155557D01*
X72827301Y-81163439D01*
X72820711Y-81170711D01*
X72813439Y-81177301D01*
X72805557Y-81183147D01*
X72797140Y-81188192D01*
X72788268Y-81192388D01*
X72779028Y-81195694D01*
X72769509Y-81198079D01*
X72759802Y-81199518D01*
X72750000Y-81200000D01*
X72550000Y-81200000D01*
X72540198Y-81199518D01*
X72530491Y-81198079D01*
X72520972Y-81195694D01*
X72511732Y-81192388D01*
X72502860Y-81188192D01*
X72494443Y-81183147D01*
X72486561Y-81177301D01*
X72479289Y-81170711D01*
X72472699Y-81163439D01*
X72466853Y-81155557D01*
X72461808Y-81147140D01*
X72457612Y-81138268D01*
X72454306Y-81129028D01*
X72451921Y-81119509D01*
X72450482Y-81109802D01*
X72450000Y-81100000D01*
X72450000Y-79650000D01*
X72450482Y-79640198D01*
X72451921Y-79630491D01*
X72454306Y-79620972D01*
X72457612Y-79611732D01*
X72461808Y-79602860D01*
X72466853Y-79594443D01*
X72472699Y-79586561D01*
X72479289Y-79579289D01*
X72486561Y-79572699D01*
X72494443Y-79566853D01*
X72502860Y-79561808D01*
X72511732Y-79557612D01*
X72520972Y-79554306D01*
X72530491Y-79551921D01*
X72540198Y-79550482D01*
X72550000Y-79550000D01*
X72750000Y-79550000D01*
X72759802Y-79550482D01*
G37*
G36*
X72259802Y-79550482D02*
G01*
X72269509Y-79551921D01*
X72279028Y-79554306D01*
X72288268Y-79557612D01*
X72297140Y-79561808D01*
X72305557Y-79566853D01*
X72313439Y-79572699D01*
X72320711Y-79579289D01*
X72327301Y-79586561D01*
X72333147Y-79594443D01*
X72338192Y-79602860D01*
X72342388Y-79611732D01*
X72345694Y-79620972D01*
X72348079Y-79630491D01*
X72349518Y-79640198D01*
X72350000Y-79650000D01*
X72350000Y-81100000D01*
X72349518Y-81109802D01*
X72348079Y-81119509D01*
X72345694Y-81129028D01*
X72342388Y-81138268D01*
X72338192Y-81147140D01*
X72333147Y-81155557D01*
X72327301Y-81163439D01*
X72320711Y-81170711D01*
X72313439Y-81177301D01*
X72305557Y-81183147D01*
X72297140Y-81188192D01*
X72288268Y-81192388D01*
X72279028Y-81195694D01*
X72269509Y-81198079D01*
X72259802Y-81199518D01*
X72250000Y-81200000D01*
X72050000Y-81200000D01*
X72040198Y-81199518D01*
X72030491Y-81198079D01*
X72020972Y-81195694D01*
X72011732Y-81192388D01*
X72002860Y-81188192D01*
X71994443Y-81183147D01*
X71986561Y-81177301D01*
X71979289Y-81170711D01*
X71972699Y-81163439D01*
X71966853Y-81155557D01*
X71961808Y-81147140D01*
X71957612Y-81138268D01*
X71954306Y-81129028D01*
X71951921Y-81119509D01*
X71950482Y-81109802D01*
X71950000Y-81100000D01*
X71950000Y-79650000D01*
X71950482Y-79640198D01*
X71951921Y-79630491D01*
X71954306Y-79620972D01*
X71957612Y-79611732D01*
X71961808Y-79602860D01*
X71966853Y-79594443D01*
X71972699Y-79586561D01*
X71979289Y-79579289D01*
X71986561Y-79572699D01*
X71994443Y-79566853D01*
X72002860Y-79561808D01*
X72011732Y-79557612D01*
X72020972Y-79554306D01*
X72030491Y-79551921D01*
X72040198Y-79550482D01*
X72050000Y-79550000D01*
X72250000Y-79550000D01*
X72259802Y-79550482D01*
G37*
G36*
X71759802Y-79550482D02*
G01*
X71769509Y-79551921D01*
X71779028Y-79554306D01*
X71788268Y-79557612D01*
X71797140Y-79561808D01*
X71805557Y-79566853D01*
X71813439Y-79572699D01*
X71820711Y-79579289D01*
X71827301Y-79586561D01*
X71833147Y-79594443D01*
X71838192Y-79602860D01*
X71842388Y-79611732D01*
X71845694Y-79620972D01*
X71848079Y-79630491D01*
X71849518Y-79640198D01*
X71850000Y-79650000D01*
X71850000Y-81100000D01*
X71849518Y-81109802D01*
X71848079Y-81119509D01*
X71845694Y-81129028D01*
X71842388Y-81138268D01*
X71838192Y-81147140D01*
X71833147Y-81155557D01*
X71827301Y-81163439D01*
X71820711Y-81170711D01*
X71813439Y-81177301D01*
X71805557Y-81183147D01*
X71797140Y-81188192D01*
X71788268Y-81192388D01*
X71779028Y-81195694D01*
X71769509Y-81198079D01*
X71759802Y-81199518D01*
X71750000Y-81200000D01*
X71550000Y-81200000D01*
X71540198Y-81199518D01*
X71530491Y-81198079D01*
X71520972Y-81195694D01*
X71511732Y-81192388D01*
X71502860Y-81188192D01*
X71494443Y-81183147D01*
X71486561Y-81177301D01*
X71479289Y-81170711D01*
X71472699Y-81163439D01*
X71466853Y-81155557D01*
X71461808Y-81147140D01*
X71457612Y-81138268D01*
X71454306Y-81129028D01*
X71451921Y-81119509D01*
X71450482Y-81109802D01*
X71450000Y-81100000D01*
X71450000Y-79650000D01*
X71450482Y-79640198D01*
X71451921Y-79630491D01*
X71454306Y-79620972D01*
X71457612Y-79611732D01*
X71461808Y-79602860D01*
X71466853Y-79594443D01*
X71472699Y-79586561D01*
X71479289Y-79579289D01*
X71486561Y-79572699D01*
X71494443Y-79566853D01*
X71502860Y-79561808D01*
X71511732Y-79557612D01*
X71520972Y-79554306D01*
X71530491Y-79551921D01*
X71540198Y-79550482D01*
X71550000Y-79550000D01*
X71750000Y-79550000D01*
X71759802Y-79550482D01*
G37*
G36*
X71259802Y-79550482D02*
G01*
X71269509Y-79551921D01*
X71279028Y-79554306D01*
X71288268Y-79557612D01*
X71297140Y-79561808D01*
X71305557Y-79566853D01*
X71313439Y-79572699D01*
X71320711Y-79579289D01*
X71327301Y-79586561D01*
X71333147Y-79594443D01*
X71338192Y-79602860D01*
X71342388Y-79611732D01*
X71345694Y-79620972D01*
X71348079Y-79630491D01*
X71349518Y-79640198D01*
X71350000Y-79650000D01*
X71350000Y-81100000D01*
X71349518Y-81109802D01*
X71348079Y-81119509D01*
X71345694Y-81129028D01*
X71342388Y-81138268D01*
X71338192Y-81147140D01*
X71333147Y-81155557D01*
X71327301Y-81163439D01*
X71320711Y-81170711D01*
X71313439Y-81177301D01*
X71305557Y-81183147D01*
X71297140Y-81188192D01*
X71288268Y-81192388D01*
X71279028Y-81195694D01*
X71269509Y-81198079D01*
X71259802Y-81199518D01*
X71250000Y-81200000D01*
X71050000Y-81200000D01*
X71040198Y-81199518D01*
X71030491Y-81198079D01*
X71020972Y-81195694D01*
X71011732Y-81192388D01*
X71002860Y-81188192D01*
X70994443Y-81183147D01*
X70986561Y-81177301D01*
X70979289Y-81170711D01*
X70972699Y-81163439D01*
X70966853Y-81155557D01*
X70961808Y-81147140D01*
X70957612Y-81138268D01*
X70954306Y-81129028D01*
X70951921Y-81119509D01*
X70950482Y-81109802D01*
X70950000Y-81100000D01*
X70950000Y-79650000D01*
X70950482Y-79640198D01*
X70951921Y-79630491D01*
X70954306Y-79620972D01*
X70957612Y-79611732D01*
X70961808Y-79602860D01*
X70966853Y-79594443D01*
X70972699Y-79586561D01*
X70979289Y-79579289D01*
X70986561Y-79572699D01*
X70994443Y-79566853D01*
X71002860Y-79561808D01*
X71011732Y-79557612D01*
X71020972Y-79554306D01*
X71030491Y-79551921D01*
X71040198Y-79550482D01*
X71050000Y-79550000D01*
X71250000Y-79550000D01*
X71259802Y-79550482D01*
G37*
G36*
X70759802Y-79550482D02*
G01*
X70769509Y-79551921D01*
X70779028Y-79554306D01*
X70788268Y-79557612D01*
X70797140Y-79561808D01*
X70805557Y-79566853D01*
X70813439Y-79572699D01*
X70820711Y-79579289D01*
X70827301Y-79586561D01*
X70833147Y-79594443D01*
X70838192Y-79602860D01*
X70842388Y-79611732D01*
X70845694Y-79620972D01*
X70848079Y-79630491D01*
X70849518Y-79640198D01*
X70850000Y-79650000D01*
X70850000Y-81100000D01*
X70849518Y-81109802D01*
X70848079Y-81119509D01*
X70845694Y-81129028D01*
X70842388Y-81138268D01*
X70838192Y-81147140D01*
X70833147Y-81155557D01*
X70827301Y-81163439D01*
X70820711Y-81170711D01*
X70813439Y-81177301D01*
X70805557Y-81183147D01*
X70797140Y-81188192D01*
X70788268Y-81192388D01*
X70779028Y-81195694D01*
X70769509Y-81198079D01*
X70759802Y-81199518D01*
X70750000Y-81200000D01*
X70550000Y-81200000D01*
X70540198Y-81199518D01*
X70530491Y-81198079D01*
X70520972Y-81195694D01*
X70511732Y-81192388D01*
X70502860Y-81188192D01*
X70494443Y-81183147D01*
X70486561Y-81177301D01*
X70479289Y-81170711D01*
X70472699Y-81163439D01*
X70466853Y-81155557D01*
X70461808Y-81147140D01*
X70457612Y-81138268D01*
X70454306Y-81129028D01*
X70451921Y-81119509D01*
X70450482Y-81109802D01*
X70450000Y-81100000D01*
X70450000Y-79650000D01*
X70450482Y-79640198D01*
X70451921Y-79630491D01*
X70454306Y-79620972D01*
X70457612Y-79611732D01*
X70461808Y-79602860D01*
X70466853Y-79594443D01*
X70472699Y-79586561D01*
X70479289Y-79579289D01*
X70486561Y-79572699D01*
X70494443Y-79566853D01*
X70502860Y-79561808D01*
X70511732Y-79557612D01*
X70520972Y-79554306D01*
X70530491Y-79551921D01*
X70540198Y-79550482D01*
X70550000Y-79550000D01*
X70750000Y-79550000D01*
X70759802Y-79550482D01*
G37*
G36*
X70259802Y-79550482D02*
G01*
X70269509Y-79551921D01*
X70279028Y-79554306D01*
X70288268Y-79557612D01*
X70297140Y-79561808D01*
X70305557Y-79566853D01*
X70313439Y-79572699D01*
X70320711Y-79579289D01*
X70327301Y-79586561D01*
X70333147Y-79594443D01*
X70338192Y-79602860D01*
X70342388Y-79611732D01*
X70345694Y-79620972D01*
X70348079Y-79630491D01*
X70349518Y-79640198D01*
X70350000Y-79650000D01*
X70350000Y-81100000D01*
X70349518Y-81109802D01*
X70348079Y-81119509D01*
X70345694Y-81129028D01*
X70342388Y-81138268D01*
X70338192Y-81147140D01*
X70333147Y-81155557D01*
X70327301Y-81163439D01*
X70320711Y-81170711D01*
X70313439Y-81177301D01*
X70305557Y-81183147D01*
X70297140Y-81188192D01*
X70288268Y-81192388D01*
X70279028Y-81195694D01*
X70269509Y-81198079D01*
X70259802Y-81199518D01*
X70250000Y-81200000D01*
X70050000Y-81200000D01*
X70040198Y-81199518D01*
X70030491Y-81198079D01*
X70020972Y-81195694D01*
X70011732Y-81192388D01*
X70002860Y-81188192D01*
X69994443Y-81183147D01*
X69986561Y-81177301D01*
X69979289Y-81170711D01*
X69972699Y-81163439D01*
X69966853Y-81155557D01*
X69961808Y-81147140D01*
X69957612Y-81138268D01*
X69954306Y-81129028D01*
X69951921Y-81119509D01*
X69950482Y-81109802D01*
X69950000Y-81100000D01*
X69950000Y-79650000D01*
X69950482Y-79640198D01*
X69951921Y-79630491D01*
X69954306Y-79620972D01*
X69957612Y-79611732D01*
X69961808Y-79602860D01*
X69966853Y-79594443D01*
X69972699Y-79586561D01*
X69979289Y-79579289D01*
X69986561Y-79572699D01*
X69994443Y-79566853D01*
X70002860Y-79561808D01*
X70011732Y-79557612D01*
X70020972Y-79554306D01*
X70030491Y-79551921D01*
X70040198Y-79550482D01*
X70050000Y-79550000D01*
X70250000Y-79550000D01*
X70259802Y-79550482D01*
G37*
G36*
X69759802Y-79550482D02*
G01*
X69769509Y-79551921D01*
X69779028Y-79554306D01*
X69788268Y-79557612D01*
X69797140Y-79561808D01*
X69805557Y-79566853D01*
X69813439Y-79572699D01*
X69820711Y-79579289D01*
X69827301Y-79586561D01*
X69833147Y-79594443D01*
X69838192Y-79602860D01*
X69842388Y-79611732D01*
X69845694Y-79620972D01*
X69848079Y-79630491D01*
X69849518Y-79640198D01*
X69850000Y-79650000D01*
X69850000Y-81100000D01*
X69849518Y-81109802D01*
X69848079Y-81119509D01*
X69845694Y-81129028D01*
X69842388Y-81138268D01*
X69838192Y-81147140D01*
X69833147Y-81155557D01*
X69827301Y-81163439D01*
X69820711Y-81170711D01*
X69813439Y-81177301D01*
X69805557Y-81183147D01*
X69797140Y-81188192D01*
X69788268Y-81192388D01*
X69779028Y-81195694D01*
X69769509Y-81198079D01*
X69759802Y-81199518D01*
X69750000Y-81200000D01*
X69550000Y-81200000D01*
X69540198Y-81199518D01*
X69530491Y-81198079D01*
X69520972Y-81195694D01*
X69511732Y-81192388D01*
X69502860Y-81188192D01*
X69494443Y-81183147D01*
X69486561Y-81177301D01*
X69479289Y-81170711D01*
X69472699Y-81163439D01*
X69466853Y-81155557D01*
X69461808Y-81147140D01*
X69457612Y-81138268D01*
X69454306Y-81129028D01*
X69451921Y-81119509D01*
X69450482Y-81109802D01*
X69450000Y-81100000D01*
X69450000Y-79650000D01*
X69450482Y-79640198D01*
X69451921Y-79630491D01*
X69454306Y-79620972D01*
X69457612Y-79611732D01*
X69461808Y-79602860D01*
X69466853Y-79594443D01*
X69472699Y-79586561D01*
X69479289Y-79579289D01*
X69486561Y-79572699D01*
X69494443Y-79566853D01*
X69502860Y-79561808D01*
X69511732Y-79557612D01*
X69520972Y-79554306D01*
X69530491Y-79551921D01*
X69540198Y-79550482D01*
X69550000Y-79550000D01*
X69750000Y-79550000D01*
X69759802Y-79550482D01*
G37*
G36*
X68459802Y-78250482D02*
G01*
X68469509Y-78251921D01*
X68479028Y-78254306D01*
X68488268Y-78257612D01*
X68497140Y-78261808D01*
X68505557Y-78266853D01*
X68513439Y-78272699D01*
X68520711Y-78279289D01*
X68527301Y-78286561D01*
X68533147Y-78294443D01*
X68538192Y-78302860D01*
X68542388Y-78311732D01*
X68545694Y-78320972D01*
X68548079Y-78330491D01*
X68549518Y-78340198D01*
X68550000Y-78350000D01*
X68550000Y-78550000D01*
X68549518Y-78559802D01*
X68548079Y-78569509D01*
X68545694Y-78579028D01*
X68542388Y-78588268D01*
X68538192Y-78597140D01*
X68533147Y-78605557D01*
X68527301Y-78613439D01*
X68520711Y-78620711D01*
X68513439Y-78627301D01*
X68505557Y-78633147D01*
X68497140Y-78638192D01*
X68488268Y-78642388D01*
X68479028Y-78645694D01*
X68469509Y-78648079D01*
X68459802Y-78649518D01*
X68450000Y-78650000D01*
X67000000Y-78650000D01*
X66990198Y-78649518D01*
X66980491Y-78648079D01*
X66970972Y-78645694D01*
X66961732Y-78642388D01*
X66952860Y-78638192D01*
X66944443Y-78633147D01*
X66936561Y-78627301D01*
X66929289Y-78620711D01*
X66922699Y-78613439D01*
X66916853Y-78605557D01*
X66911808Y-78597140D01*
X66907612Y-78588268D01*
X66904306Y-78579028D01*
X66901921Y-78569509D01*
X66900482Y-78559802D01*
X66900000Y-78550000D01*
X66900000Y-78350000D01*
X66900482Y-78340198D01*
X66901921Y-78330491D01*
X66904306Y-78320972D01*
X66907612Y-78311732D01*
X66911808Y-78302860D01*
X66916853Y-78294443D01*
X66922699Y-78286561D01*
X66929289Y-78279289D01*
X66936561Y-78272699D01*
X66944443Y-78266853D01*
X66952860Y-78261808D01*
X66961732Y-78257612D01*
X66970972Y-78254306D01*
X66980491Y-78251921D01*
X66990198Y-78250482D01*
X67000000Y-78250000D01*
X68450000Y-78250000D01*
X68459802Y-78250482D01*
G37*
G36*
X68459802Y-77750482D02*
G01*
X68469509Y-77751921D01*
X68479028Y-77754306D01*
X68488268Y-77757612D01*
X68497140Y-77761808D01*
X68505557Y-77766853D01*
X68513439Y-77772699D01*
X68520711Y-77779289D01*
X68527301Y-77786561D01*
X68533147Y-77794443D01*
X68538192Y-77802860D01*
X68542388Y-77811732D01*
X68545694Y-77820972D01*
X68548079Y-77830491D01*
X68549518Y-77840198D01*
X68550000Y-77850000D01*
X68550000Y-78050000D01*
X68549518Y-78059802D01*
X68548079Y-78069509D01*
X68545694Y-78079028D01*
X68542388Y-78088268D01*
X68538192Y-78097140D01*
X68533147Y-78105557D01*
X68527301Y-78113439D01*
X68520711Y-78120711D01*
X68513439Y-78127301D01*
X68505557Y-78133147D01*
X68497140Y-78138192D01*
X68488268Y-78142388D01*
X68479028Y-78145694D01*
X68469509Y-78148079D01*
X68459802Y-78149518D01*
X68450000Y-78150000D01*
X67000000Y-78150000D01*
X66990198Y-78149518D01*
X66980491Y-78148079D01*
X66970972Y-78145694D01*
X66961732Y-78142388D01*
X66952860Y-78138192D01*
X66944443Y-78133147D01*
X66936561Y-78127301D01*
X66929289Y-78120711D01*
X66922699Y-78113439D01*
X66916853Y-78105557D01*
X66911808Y-78097140D01*
X66907612Y-78088268D01*
X66904306Y-78079028D01*
X66901921Y-78069509D01*
X66900482Y-78059802D01*
X66900000Y-78050000D01*
X66900000Y-77850000D01*
X66900482Y-77840198D01*
X66901921Y-77830491D01*
X66904306Y-77820972D01*
X66907612Y-77811732D01*
X66911808Y-77802860D01*
X66916853Y-77794443D01*
X66922699Y-77786561D01*
X66929289Y-77779289D01*
X66936561Y-77772699D01*
X66944443Y-77766853D01*
X66952860Y-77761808D01*
X66961732Y-77757612D01*
X66970972Y-77754306D01*
X66980491Y-77751921D01*
X66990198Y-77750482D01*
X67000000Y-77750000D01*
X68450000Y-77750000D01*
X68459802Y-77750482D01*
G37*
G36*
X68459802Y-77250482D02*
G01*
X68469509Y-77251921D01*
X68479028Y-77254306D01*
X68488268Y-77257612D01*
X68497140Y-77261808D01*
X68505557Y-77266853D01*
X68513439Y-77272699D01*
X68520711Y-77279289D01*
X68527301Y-77286561D01*
X68533147Y-77294443D01*
X68538192Y-77302860D01*
X68542388Y-77311732D01*
X68545694Y-77320972D01*
X68548079Y-77330491D01*
X68549518Y-77340198D01*
X68550000Y-77350000D01*
X68550000Y-77550000D01*
X68549518Y-77559802D01*
X68548079Y-77569509D01*
X68545694Y-77579028D01*
X68542388Y-77588268D01*
X68538192Y-77597140D01*
X68533147Y-77605557D01*
X68527301Y-77613439D01*
X68520711Y-77620711D01*
X68513439Y-77627301D01*
X68505557Y-77633147D01*
X68497140Y-77638192D01*
X68488268Y-77642388D01*
X68479028Y-77645694D01*
X68469509Y-77648079D01*
X68459802Y-77649518D01*
X68450000Y-77650000D01*
X67000000Y-77650000D01*
X66990198Y-77649518D01*
X66980491Y-77648079D01*
X66970972Y-77645694D01*
X66961732Y-77642388D01*
X66952860Y-77638192D01*
X66944443Y-77633147D01*
X66936561Y-77627301D01*
X66929289Y-77620711D01*
X66922699Y-77613439D01*
X66916853Y-77605557D01*
X66911808Y-77597140D01*
X66907612Y-77588268D01*
X66904306Y-77579028D01*
X66901921Y-77569509D01*
X66900482Y-77559802D01*
X66900000Y-77550000D01*
X66900000Y-77350000D01*
X66900482Y-77340198D01*
X66901921Y-77330491D01*
X66904306Y-77320972D01*
X66907612Y-77311732D01*
X66911808Y-77302860D01*
X66916853Y-77294443D01*
X66922699Y-77286561D01*
X66929289Y-77279289D01*
X66936561Y-77272699D01*
X66944443Y-77266853D01*
X66952860Y-77261808D01*
X66961732Y-77257612D01*
X66970972Y-77254306D01*
X66980491Y-77251921D01*
X66990198Y-77250482D01*
X67000000Y-77250000D01*
X68450000Y-77250000D01*
X68459802Y-77250482D01*
G37*
G36*
X68459802Y-76750482D02*
G01*
X68469509Y-76751921D01*
X68479028Y-76754306D01*
X68488268Y-76757612D01*
X68497140Y-76761808D01*
X68505557Y-76766853D01*
X68513439Y-76772699D01*
X68520711Y-76779289D01*
X68527301Y-76786561D01*
X68533147Y-76794443D01*
X68538192Y-76802860D01*
X68542388Y-76811732D01*
X68545694Y-76820972D01*
X68548079Y-76830491D01*
X68549518Y-76840198D01*
X68550000Y-76850000D01*
X68550000Y-77050000D01*
X68549518Y-77059802D01*
X68548079Y-77069509D01*
X68545694Y-77079028D01*
X68542388Y-77088268D01*
X68538192Y-77097140D01*
X68533147Y-77105557D01*
X68527301Y-77113439D01*
X68520711Y-77120711D01*
X68513439Y-77127301D01*
X68505557Y-77133147D01*
X68497140Y-77138192D01*
X68488268Y-77142388D01*
X68479028Y-77145694D01*
X68469509Y-77148079D01*
X68459802Y-77149518D01*
X68450000Y-77150000D01*
X67000000Y-77150000D01*
X66990198Y-77149518D01*
X66980491Y-77148079D01*
X66970972Y-77145694D01*
X66961732Y-77142388D01*
X66952860Y-77138192D01*
X66944443Y-77133147D01*
X66936561Y-77127301D01*
X66929289Y-77120711D01*
X66922699Y-77113439D01*
X66916853Y-77105557D01*
X66911808Y-77097140D01*
X66907612Y-77088268D01*
X66904306Y-77079028D01*
X66901921Y-77069509D01*
X66900482Y-77059802D01*
X66900000Y-77050000D01*
X66900000Y-76850000D01*
X66900482Y-76840198D01*
X66901921Y-76830491D01*
X66904306Y-76820972D01*
X66907612Y-76811732D01*
X66911808Y-76802860D01*
X66916853Y-76794443D01*
X66922699Y-76786561D01*
X66929289Y-76779289D01*
X66936561Y-76772699D01*
X66944443Y-76766853D01*
X66952860Y-76761808D01*
X66961732Y-76757612D01*
X66970972Y-76754306D01*
X66980491Y-76751921D01*
X66990198Y-76750482D01*
X67000000Y-76750000D01*
X68450000Y-76750000D01*
X68459802Y-76750482D01*
G37*
G36*
X68459802Y-76250482D02*
G01*
X68469509Y-76251921D01*
X68479028Y-76254306D01*
X68488268Y-76257612D01*
X68497140Y-76261808D01*
X68505557Y-76266853D01*
X68513439Y-76272699D01*
X68520711Y-76279289D01*
X68527301Y-76286561D01*
X68533147Y-76294443D01*
X68538192Y-76302860D01*
X68542388Y-76311732D01*
X68545694Y-76320972D01*
X68548079Y-76330491D01*
X68549518Y-76340198D01*
X68550000Y-76350000D01*
X68550000Y-76550000D01*
X68549518Y-76559802D01*
X68548079Y-76569509D01*
X68545694Y-76579028D01*
X68542388Y-76588268D01*
X68538192Y-76597140D01*
X68533147Y-76605557D01*
X68527301Y-76613439D01*
X68520711Y-76620711D01*
X68513439Y-76627301D01*
X68505557Y-76633147D01*
X68497140Y-76638192D01*
X68488268Y-76642388D01*
X68479028Y-76645694D01*
X68469509Y-76648079D01*
X68459802Y-76649518D01*
X68450000Y-76650000D01*
X67000000Y-76650000D01*
X66990198Y-76649518D01*
X66980491Y-76648079D01*
X66970972Y-76645694D01*
X66961732Y-76642388D01*
X66952860Y-76638192D01*
X66944443Y-76633147D01*
X66936561Y-76627301D01*
X66929289Y-76620711D01*
X66922699Y-76613439D01*
X66916853Y-76605557D01*
X66911808Y-76597140D01*
X66907612Y-76588268D01*
X66904306Y-76579028D01*
X66901921Y-76569509D01*
X66900482Y-76559802D01*
X66900000Y-76550000D01*
X66900000Y-76350000D01*
X66900482Y-76340198D01*
X66901921Y-76330491D01*
X66904306Y-76320972D01*
X66907612Y-76311732D01*
X66911808Y-76302860D01*
X66916853Y-76294443D01*
X66922699Y-76286561D01*
X66929289Y-76279289D01*
X66936561Y-76272699D01*
X66944443Y-76266853D01*
X66952860Y-76261808D01*
X66961732Y-76257612D01*
X66970972Y-76254306D01*
X66980491Y-76251921D01*
X66990198Y-76250482D01*
X67000000Y-76250000D01*
X68450000Y-76250000D01*
X68459802Y-76250482D01*
G37*
G36*
X68459802Y-75750482D02*
G01*
X68469509Y-75751921D01*
X68479028Y-75754306D01*
X68488268Y-75757612D01*
X68497140Y-75761808D01*
X68505557Y-75766853D01*
X68513439Y-75772699D01*
X68520711Y-75779289D01*
X68527301Y-75786561D01*
X68533147Y-75794443D01*
X68538192Y-75802860D01*
X68542388Y-75811732D01*
X68545694Y-75820972D01*
X68548079Y-75830491D01*
X68549518Y-75840198D01*
X68550000Y-75850000D01*
X68550000Y-76050000D01*
X68549518Y-76059802D01*
X68548079Y-76069509D01*
X68545694Y-76079028D01*
X68542388Y-76088268D01*
X68538192Y-76097140D01*
X68533147Y-76105557D01*
X68527301Y-76113439D01*
X68520711Y-76120711D01*
X68513439Y-76127301D01*
X68505557Y-76133147D01*
X68497140Y-76138192D01*
X68488268Y-76142388D01*
X68479028Y-76145694D01*
X68469509Y-76148079D01*
X68459802Y-76149518D01*
X68450000Y-76150000D01*
X67000000Y-76150000D01*
X66990198Y-76149518D01*
X66980491Y-76148079D01*
X66970972Y-76145694D01*
X66961732Y-76142388D01*
X66952860Y-76138192D01*
X66944443Y-76133147D01*
X66936561Y-76127301D01*
X66929289Y-76120711D01*
X66922699Y-76113439D01*
X66916853Y-76105557D01*
X66911808Y-76097140D01*
X66907612Y-76088268D01*
X66904306Y-76079028D01*
X66901921Y-76069509D01*
X66900482Y-76059802D01*
X66900000Y-76050000D01*
X66900000Y-75850000D01*
X66900482Y-75840198D01*
X66901921Y-75830491D01*
X66904306Y-75820972D01*
X66907612Y-75811732D01*
X66911808Y-75802860D01*
X66916853Y-75794443D01*
X66922699Y-75786561D01*
X66929289Y-75779289D01*
X66936561Y-75772699D01*
X66944443Y-75766853D01*
X66952860Y-75761808D01*
X66961732Y-75757612D01*
X66970972Y-75754306D01*
X66980491Y-75751921D01*
X66990198Y-75750482D01*
X67000000Y-75750000D01*
X68450000Y-75750000D01*
X68459802Y-75750482D01*
G37*
G36*
X68459802Y-75250482D02*
G01*
X68469509Y-75251921D01*
X68479028Y-75254306D01*
X68488268Y-75257612D01*
X68497140Y-75261808D01*
X68505557Y-75266853D01*
X68513439Y-75272699D01*
X68520711Y-75279289D01*
X68527301Y-75286561D01*
X68533147Y-75294443D01*
X68538192Y-75302860D01*
X68542388Y-75311732D01*
X68545694Y-75320972D01*
X68548079Y-75330491D01*
X68549518Y-75340198D01*
X68550000Y-75350000D01*
X68550000Y-75550000D01*
X68549518Y-75559802D01*
X68548079Y-75569509D01*
X68545694Y-75579028D01*
X68542388Y-75588268D01*
X68538192Y-75597140D01*
X68533147Y-75605557D01*
X68527301Y-75613439D01*
X68520711Y-75620711D01*
X68513439Y-75627301D01*
X68505557Y-75633147D01*
X68497140Y-75638192D01*
X68488268Y-75642388D01*
X68479028Y-75645694D01*
X68469509Y-75648079D01*
X68459802Y-75649518D01*
X68450000Y-75650000D01*
X67000000Y-75650000D01*
X66990198Y-75649518D01*
X66980491Y-75648079D01*
X66970972Y-75645694D01*
X66961732Y-75642388D01*
X66952860Y-75638192D01*
X66944443Y-75633147D01*
X66936561Y-75627301D01*
X66929289Y-75620711D01*
X66922699Y-75613439D01*
X66916853Y-75605557D01*
X66911808Y-75597140D01*
X66907612Y-75588268D01*
X66904306Y-75579028D01*
X66901921Y-75569509D01*
X66900482Y-75559802D01*
X66900000Y-75550000D01*
X66900000Y-75350000D01*
X66900482Y-75340198D01*
X66901921Y-75330491D01*
X66904306Y-75320972D01*
X66907612Y-75311732D01*
X66911808Y-75302860D01*
X66916853Y-75294443D01*
X66922699Y-75286561D01*
X66929289Y-75279289D01*
X66936561Y-75272699D01*
X66944443Y-75266853D01*
X66952860Y-75261808D01*
X66961732Y-75257612D01*
X66970972Y-75254306D01*
X66980491Y-75251921D01*
X66990198Y-75250482D01*
X67000000Y-75250000D01*
X68450000Y-75250000D01*
X68459802Y-75250482D01*
G37*
G36*
X68459802Y-74750482D02*
G01*
X68469509Y-74751921D01*
X68479028Y-74754306D01*
X68488268Y-74757612D01*
X68497140Y-74761808D01*
X68505557Y-74766853D01*
X68513439Y-74772699D01*
X68520711Y-74779289D01*
X68527301Y-74786561D01*
X68533147Y-74794443D01*
X68538192Y-74802860D01*
X68542388Y-74811732D01*
X68545694Y-74820972D01*
X68548079Y-74830491D01*
X68549518Y-74840198D01*
X68550000Y-74850000D01*
X68550000Y-75050000D01*
X68549518Y-75059802D01*
X68548079Y-75069509D01*
X68545694Y-75079028D01*
X68542388Y-75088268D01*
X68538192Y-75097140D01*
X68533147Y-75105557D01*
X68527301Y-75113439D01*
X68520711Y-75120711D01*
X68513439Y-75127301D01*
X68505557Y-75133147D01*
X68497140Y-75138192D01*
X68488268Y-75142388D01*
X68479028Y-75145694D01*
X68469509Y-75148079D01*
X68459802Y-75149518D01*
X68450000Y-75150000D01*
X67000000Y-75150000D01*
X66990198Y-75149518D01*
X66980491Y-75148079D01*
X66970972Y-75145694D01*
X66961732Y-75142388D01*
X66952860Y-75138192D01*
X66944443Y-75133147D01*
X66936561Y-75127301D01*
X66929289Y-75120711D01*
X66922699Y-75113439D01*
X66916853Y-75105557D01*
X66911808Y-75097140D01*
X66907612Y-75088268D01*
X66904306Y-75079028D01*
X66901921Y-75069509D01*
X66900482Y-75059802D01*
X66900000Y-75050000D01*
X66900000Y-74850000D01*
X66900482Y-74840198D01*
X66901921Y-74830491D01*
X66904306Y-74820972D01*
X66907612Y-74811732D01*
X66911808Y-74802860D01*
X66916853Y-74794443D01*
X66922699Y-74786561D01*
X66929289Y-74779289D01*
X66936561Y-74772699D01*
X66944443Y-74766853D01*
X66952860Y-74761808D01*
X66961732Y-74757612D01*
X66970972Y-74754306D01*
X66980491Y-74751921D01*
X66990198Y-74750482D01*
X67000000Y-74750000D01*
X68450000Y-74750000D01*
X68459802Y-74750482D01*
G37*
G36*
X68459802Y-74250482D02*
G01*
X68469509Y-74251921D01*
X68479028Y-74254306D01*
X68488268Y-74257612D01*
X68497140Y-74261808D01*
X68505557Y-74266853D01*
X68513439Y-74272699D01*
X68520711Y-74279289D01*
X68527301Y-74286561D01*
X68533147Y-74294443D01*
X68538192Y-74302860D01*
X68542388Y-74311732D01*
X68545694Y-74320972D01*
X68548079Y-74330491D01*
X68549518Y-74340198D01*
X68550000Y-74350000D01*
X68550000Y-74550000D01*
X68549518Y-74559802D01*
X68548079Y-74569509D01*
X68545694Y-74579028D01*
X68542388Y-74588268D01*
X68538192Y-74597140D01*
X68533147Y-74605557D01*
X68527301Y-74613439D01*
X68520711Y-74620711D01*
X68513439Y-74627301D01*
X68505557Y-74633147D01*
X68497140Y-74638192D01*
X68488268Y-74642388D01*
X68479028Y-74645694D01*
X68469509Y-74648079D01*
X68459802Y-74649518D01*
X68450000Y-74650000D01*
X67000000Y-74650000D01*
X66990198Y-74649518D01*
X66980491Y-74648079D01*
X66970972Y-74645694D01*
X66961732Y-74642388D01*
X66952860Y-74638192D01*
X66944443Y-74633147D01*
X66936561Y-74627301D01*
X66929289Y-74620711D01*
X66922699Y-74613439D01*
X66916853Y-74605557D01*
X66911808Y-74597140D01*
X66907612Y-74588268D01*
X66904306Y-74579028D01*
X66901921Y-74569509D01*
X66900482Y-74559802D01*
X66900000Y-74550000D01*
X66900000Y-74350000D01*
X66900482Y-74340198D01*
X66901921Y-74330491D01*
X66904306Y-74320972D01*
X66907612Y-74311732D01*
X66911808Y-74302860D01*
X66916853Y-74294443D01*
X66922699Y-74286561D01*
X66929289Y-74279289D01*
X66936561Y-74272699D01*
X66944443Y-74266853D01*
X66952860Y-74261808D01*
X66961732Y-74257612D01*
X66970972Y-74254306D01*
X66980491Y-74251921D01*
X66990198Y-74250482D01*
X67000000Y-74250000D01*
X68450000Y-74250000D01*
X68459802Y-74250482D01*
G37*
G36*
X68459802Y-73750482D02*
G01*
X68469509Y-73751921D01*
X68479028Y-73754306D01*
X68488268Y-73757612D01*
X68497140Y-73761808D01*
X68505557Y-73766853D01*
X68513439Y-73772699D01*
X68520711Y-73779289D01*
X68527301Y-73786561D01*
X68533147Y-73794443D01*
X68538192Y-73802860D01*
X68542388Y-73811732D01*
X68545694Y-73820972D01*
X68548079Y-73830491D01*
X68549518Y-73840198D01*
X68550000Y-73850000D01*
X68550000Y-74050000D01*
X68549518Y-74059802D01*
X68548079Y-74069509D01*
X68545694Y-74079028D01*
X68542388Y-74088268D01*
X68538192Y-74097140D01*
X68533147Y-74105557D01*
X68527301Y-74113439D01*
X68520711Y-74120711D01*
X68513439Y-74127301D01*
X68505557Y-74133147D01*
X68497140Y-74138192D01*
X68488268Y-74142388D01*
X68479028Y-74145694D01*
X68469509Y-74148079D01*
X68459802Y-74149518D01*
X68450000Y-74150000D01*
X67000000Y-74150000D01*
X66990198Y-74149518D01*
X66980491Y-74148079D01*
X66970972Y-74145694D01*
X66961732Y-74142388D01*
X66952860Y-74138192D01*
X66944443Y-74133147D01*
X66936561Y-74127301D01*
X66929289Y-74120711D01*
X66922699Y-74113439D01*
X66916853Y-74105557D01*
X66911808Y-74097140D01*
X66907612Y-74088268D01*
X66904306Y-74079028D01*
X66901921Y-74069509D01*
X66900482Y-74059802D01*
X66900000Y-74050000D01*
X66900000Y-73850000D01*
X66900482Y-73840198D01*
X66901921Y-73830491D01*
X66904306Y-73820972D01*
X66907612Y-73811732D01*
X66911808Y-73802860D01*
X66916853Y-73794443D01*
X66922699Y-73786561D01*
X66929289Y-73779289D01*
X66936561Y-73772699D01*
X66944443Y-73766853D01*
X66952860Y-73761808D01*
X66961732Y-73757612D01*
X66970972Y-73754306D01*
X66980491Y-73751921D01*
X66990198Y-73750482D01*
X67000000Y-73750000D01*
X68450000Y-73750000D01*
X68459802Y-73750482D01*
G37*
G36*
X68459802Y-73250482D02*
G01*
X68469509Y-73251921D01*
X68479028Y-73254306D01*
X68488268Y-73257612D01*
X68497140Y-73261808D01*
X68505557Y-73266853D01*
X68513439Y-73272699D01*
X68520711Y-73279289D01*
X68527301Y-73286561D01*
X68533147Y-73294443D01*
X68538192Y-73302860D01*
X68542388Y-73311732D01*
X68545694Y-73320972D01*
X68548079Y-73330491D01*
X68549518Y-73340198D01*
X68550000Y-73350000D01*
X68550000Y-73550000D01*
X68549518Y-73559802D01*
X68548079Y-73569509D01*
X68545694Y-73579028D01*
X68542388Y-73588268D01*
X68538192Y-73597140D01*
X68533147Y-73605557D01*
X68527301Y-73613439D01*
X68520711Y-73620711D01*
X68513439Y-73627301D01*
X68505557Y-73633147D01*
X68497140Y-73638192D01*
X68488268Y-73642388D01*
X68479028Y-73645694D01*
X68469509Y-73648079D01*
X68459802Y-73649518D01*
X68450000Y-73650000D01*
X67000000Y-73650000D01*
X66990198Y-73649518D01*
X66980491Y-73648079D01*
X66970972Y-73645694D01*
X66961732Y-73642388D01*
X66952860Y-73638192D01*
X66944443Y-73633147D01*
X66936561Y-73627301D01*
X66929289Y-73620711D01*
X66922699Y-73613439D01*
X66916853Y-73605557D01*
X66911808Y-73597140D01*
X66907612Y-73588268D01*
X66904306Y-73579028D01*
X66901921Y-73569509D01*
X66900482Y-73559802D01*
X66900000Y-73550000D01*
X66900000Y-73350000D01*
X66900482Y-73340198D01*
X66901921Y-73330491D01*
X66904306Y-73320972D01*
X66907612Y-73311732D01*
X66911808Y-73302860D01*
X66916853Y-73294443D01*
X66922699Y-73286561D01*
X66929289Y-73279289D01*
X66936561Y-73272699D01*
X66944443Y-73266853D01*
X66952860Y-73261808D01*
X66961732Y-73257612D01*
X66970972Y-73254306D01*
X66980491Y-73251921D01*
X66990198Y-73250482D01*
X67000000Y-73250000D01*
X68450000Y-73250000D01*
X68459802Y-73250482D01*
G37*
G36*
X68459802Y-72750482D02*
G01*
X68469509Y-72751921D01*
X68479028Y-72754306D01*
X68488268Y-72757612D01*
X68497140Y-72761808D01*
X68505557Y-72766853D01*
X68513439Y-72772699D01*
X68520711Y-72779289D01*
X68527301Y-72786561D01*
X68533147Y-72794443D01*
X68538192Y-72802860D01*
X68542388Y-72811732D01*
X68545694Y-72820972D01*
X68548079Y-72830491D01*
X68549518Y-72840198D01*
X68550000Y-72850000D01*
X68550000Y-73050000D01*
X68549518Y-73059802D01*
X68548079Y-73069509D01*
X68545694Y-73079028D01*
X68542388Y-73088268D01*
X68538192Y-73097140D01*
X68533147Y-73105557D01*
X68527301Y-73113439D01*
X68520711Y-73120711D01*
X68513439Y-73127301D01*
X68505557Y-73133147D01*
X68497140Y-73138192D01*
X68488268Y-73142388D01*
X68479028Y-73145694D01*
X68469509Y-73148079D01*
X68459802Y-73149518D01*
X68450000Y-73150000D01*
X67000000Y-73150000D01*
X66990198Y-73149518D01*
X66980491Y-73148079D01*
X66970972Y-73145694D01*
X66961732Y-73142388D01*
X66952860Y-73138192D01*
X66944443Y-73133147D01*
X66936561Y-73127301D01*
X66929289Y-73120711D01*
X66922699Y-73113439D01*
X66916853Y-73105557D01*
X66911808Y-73097140D01*
X66907612Y-73088268D01*
X66904306Y-73079028D01*
X66901921Y-73069509D01*
X66900482Y-73059802D01*
X66900000Y-73050000D01*
X66900000Y-72850000D01*
X66900482Y-72840198D01*
X66901921Y-72830491D01*
X66904306Y-72820972D01*
X66907612Y-72811732D01*
X66911808Y-72802860D01*
X66916853Y-72794443D01*
X66922699Y-72786561D01*
X66929289Y-72779289D01*
X66936561Y-72772699D01*
X66944443Y-72766853D01*
X66952860Y-72761808D01*
X66961732Y-72757612D01*
X66970972Y-72754306D01*
X66980491Y-72751921D01*
X66990198Y-72750482D01*
X67000000Y-72750000D01*
X68450000Y-72750000D01*
X68459802Y-72750482D01*
G37*
G36*
X68459802Y-72250482D02*
G01*
X68469509Y-72251921D01*
X68479028Y-72254306D01*
X68488268Y-72257612D01*
X68497140Y-72261808D01*
X68505557Y-72266853D01*
X68513439Y-72272699D01*
X68520711Y-72279289D01*
X68527301Y-72286561D01*
X68533147Y-72294443D01*
X68538192Y-72302860D01*
X68542388Y-72311732D01*
X68545694Y-72320972D01*
X68548079Y-72330491D01*
X68549518Y-72340198D01*
X68550000Y-72350000D01*
X68550000Y-72550000D01*
X68549518Y-72559802D01*
X68548079Y-72569509D01*
X68545694Y-72579028D01*
X68542388Y-72588268D01*
X68538192Y-72597140D01*
X68533147Y-72605557D01*
X68527301Y-72613439D01*
X68520711Y-72620711D01*
X68513439Y-72627301D01*
X68505557Y-72633147D01*
X68497140Y-72638192D01*
X68488268Y-72642388D01*
X68479028Y-72645694D01*
X68469509Y-72648079D01*
X68459802Y-72649518D01*
X68450000Y-72650000D01*
X67000000Y-72650000D01*
X66990198Y-72649518D01*
X66980491Y-72648079D01*
X66970972Y-72645694D01*
X66961732Y-72642388D01*
X66952860Y-72638192D01*
X66944443Y-72633147D01*
X66936561Y-72627301D01*
X66929289Y-72620711D01*
X66922699Y-72613439D01*
X66916853Y-72605557D01*
X66911808Y-72597140D01*
X66907612Y-72588268D01*
X66904306Y-72579028D01*
X66901921Y-72569509D01*
X66900482Y-72559802D01*
X66900000Y-72550000D01*
X66900000Y-72350000D01*
X66900482Y-72340198D01*
X66901921Y-72330491D01*
X66904306Y-72320972D01*
X66907612Y-72311732D01*
X66911808Y-72302860D01*
X66916853Y-72294443D01*
X66922699Y-72286561D01*
X66929289Y-72279289D01*
X66936561Y-72272699D01*
X66944443Y-72266853D01*
X66952860Y-72261808D01*
X66961732Y-72257612D01*
X66970972Y-72254306D01*
X66980491Y-72251921D01*
X66990198Y-72250482D01*
X67000000Y-72250000D01*
X68450000Y-72250000D01*
X68459802Y-72250482D01*
G37*
G36*
X68459802Y-71750482D02*
G01*
X68469509Y-71751921D01*
X68479028Y-71754306D01*
X68488268Y-71757612D01*
X68497140Y-71761808D01*
X68505557Y-71766853D01*
X68513439Y-71772699D01*
X68520711Y-71779289D01*
X68527301Y-71786561D01*
X68533147Y-71794443D01*
X68538192Y-71802860D01*
X68542388Y-71811732D01*
X68545694Y-71820972D01*
X68548079Y-71830491D01*
X68549518Y-71840198D01*
X68550000Y-71850000D01*
X68550000Y-72050000D01*
X68549518Y-72059802D01*
X68548079Y-72069509D01*
X68545694Y-72079028D01*
X68542388Y-72088268D01*
X68538192Y-72097140D01*
X68533147Y-72105557D01*
X68527301Y-72113439D01*
X68520711Y-72120711D01*
X68513439Y-72127301D01*
X68505557Y-72133147D01*
X68497140Y-72138192D01*
X68488268Y-72142388D01*
X68479028Y-72145694D01*
X68469509Y-72148079D01*
X68459802Y-72149518D01*
X68450000Y-72150000D01*
X67000000Y-72150000D01*
X66990198Y-72149518D01*
X66980491Y-72148079D01*
X66970972Y-72145694D01*
X66961732Y-72142388D01*
X66952860Y-72138192D01*
X66944443Y-72133147D01*
X66936561Y-72127301D01*
X66929289Y-72120711D01*
X66922699Y-72113439D01*
X66916853Y-72105557D01*
X66911808Y-72097140D01*
X66907612Y-72088268D01*
X66904306Y-72079028D01*
X66901921Y-72069509D01*
X66900482Y-72059802D01*
X66900000Y-72050000D01*
X66900000Y-71850000D01*
X66900482Y-71840198D01*
X66901921Y-71830491D01*
X66904306Y-71820972D01*
X66907612Y-71811732D01*
X66911808Y-71802860D01*
X66916853Y-71794443D01*
X66922699Y-71786561D01*
X66929289Y-71779289D01*
X66936561Y-71772699D01*
X66944443Y-71766853D01*
X66952860Y-71761808D01*
X66961732Y-71757612D01*
X66970972Y-71754306D01*
X66980491Y-71751921D01*
X66990198Y-71750482D01*
X67000000Y-71750000D01*
X68450000Y-71750000D01*
X68459802Y-71750482D01*
G37*
G36*
X68459802Y-71250482D02*
G01*
X68469509Y-71251921D01*
X68479028Y-71254306D01*
X68488268Y-71257612D01*
X68497140Y-71261808D01*
X68505557Y-71266853D01*
X68513439Y-71272699D01*
X68520711Y-71279289D01*
X68527301Y-71286561D01*
X68533147Y-71294443D01*
X68538192Y-71302860D01*
X68542388Y-71311732D01*
X68545694Y-71320972D01*
X68548079Y-71330491D01*
X68549518Y-71340198D01*
X68550000Y-71350000D01*
X68550000Y-71550000D01*
X68549518Y-71559802D01*
X68548079Y-71569509D01*
X68545694Y-71579028D01*
X68542388Y-71588268D01*
X68538192Y-71597140D01*
X68533147Y-71605557D01*
X68527301Y-71613439D01*
X68520711Y-71620711D01*
X68513439Y-71627301D01*
X68505557Y-71633147D01*
X68497140Y-71638192D01*
X68488268Y-71642388D01*
X68479028Y-71645694D01*
X68469509Y-71648079D01*
X68459802Y-71649518D01*
X68450000Y-71650000D01*
X67000000Y-71650000D01*
X66990198Y-71649518D01*
X66980491Y-71648079D01*
X66970972Y-71645694D01*
X66961732Y-71642388D01*
X66952860Y-71638192D01*
X66944443Y-71633147D01*
X66936561Y-71627301D01*
X66929289Y-71620711D01*
X66922699Y-71613439D01*
X66916853Y-71605557D01*
X66911808Y-71597140D01*
X66907612Y-71588268D01*
X66904306Y-71579028D01*
X66901921Y-71569509D01*
X66900482Y-71559802D01*
X66900000Y-71550000D01*
X66900000Y-71350000D01*
X66900482Y-71340198D01*
X66901921Y-71330491D01*
X66904306Y-71320972D01*
X66907612Y-71311732D01*
X66911808Y-71302860D01*
X66916853Y-71294443D01*
X66922699Y-71286561D01*
X66929289Y-71279289D01*
X66936561Y-71272699D01*
X66944443Y-71266853D01*
X66952860Y-71261808D01*
X66961732Y-71257612D01*
X66970972Y-71254306D01*
X66980491Y-71251921D01*
X66990198Y-71250482D01*
X67000000Y-71250000D01*
X68450000Y-71250000D01*
X68459802Y-71250482D01*
G37*
G36*
X68459802Y-70750482D02*
G01*
X68469509Y-70751921D01*
X68479028Y-70754306D01*
X68488268Y-70757612D01*
X68497140Y-70761808D01*
X68505557Y-70766853D01*
X68513439Y-70772699D01*
X68520711Y-70779289D01*
X68527301Y-70786561D01*
X68533147Y-70794443D01*
X68538192Y-70802860D01*
X68542388Y-70811732D01*
X68545694Y-70820972D01*
X68548079Y-70830491D01*
X68549518Y-70840198D01*
X68550000Y-70850000D01*
X68550000Y-71050000D01*
X68549518Y-71059802D01*
X68548079Y-71069509D01*
X68545694Y-71079028D01*
X68542388Y-71088268D01*
X68538192Y-71097140D01*
X68533147Y-71105557D01*
X68527301Y-71113439D01*
X68520711Y-71120711D01*
X68513439Y-71127301D01*
X68505557Y-71133147D01*
X68497140Y-71138192D01*
X68488268Y-71142388D01*
X68479028Y-71145694D01*
X68469509Y-71148079D01*
X68459802Y-71149518D01*
X68450000Y-71150000D01*
X67000000Y-71150000D01*
X66990198Y-71149518D01*
X66980491Y-71148079D01*
X66970972Y-71145694D01*
X66961732Y-71142388D01*
X66952860Y-71138192D01*
X66944443Y-71133147D01*
X66936561Y-71127301D01*
X66929289Y-71120711D01*
X66922699Y-71113439D01*
X66916853Y-71105557D01*
X66911808Y-71097140D01*
X66907612Y-71088268D01*
X66904306Y-71079028D01*
X66901921Y-71069509D01*
X66900482Y-71059802D01*
X66900000Y-71050000D01*
X66900000Y-70850000D01*
X66900482Y-70840198D01*
X66901921Y-70830491D01*
X66904306Y-70820972D01*
X66907612Y-70811732D01*
X66911808Y-70802860D01*
X66916853Y-70794443D01*
X66922699Y-70786561D01*
X66929289Y-70779289D01*
X66936561Y-70772699D01*
X66944443Y-70766853D01*
X66952860Y-70761808D01*
X66961732Y-70757612D01*
X66970972Y-70754306D01*
X66980491Y-70751921D01*
X66990198Y-70750482D01*
X67000000Y-70750000D01*
X68450000Y-70750000D01*
X68459802Y-70750482D01*
G37*
G36*
X69759802Y-68200482D02*
G01*
X69769509Y-68201921D01*
X69779028Y-68204306D01*
X69788268Y-68207612D01*
X69797140Y-68211808D01*
X69805557Y-68216853D01*
X69813439Y-68222699D01*
X69820711Y-68229289D01*
X69827301Y-68236561D01*
X69833147Y-68244443D01*
X69838192Y-68252860D01*
X69842388Y-68261732D01*
X69845694Y-68270972D01*
X69848079Y-68280491D01*
X69849518Y-68290198D01*
X69850000Y-68300000D01*
X69850000Y-69750000D01*
X69849518Y-69759802D01*
X69848079Y-69769509D01*
X69845694Y-69779028D01*
X69842388Y-69788268D01*
X69838192Y-69797140D01*
X69833147Y-69805557D01*
X69827301Y-69813439D01*
X69820711Y-69820711D01*
X69813439Y-69827301D01*
X69805557Y-69833147D01*
X69797140Y-69838192D01*
X69788268Y-69842388D01*
X69779028Y-69845694D01*
X69769509Y-69848079D01*
X69759802Y-69849518D01*
X69750000Y-69850000D01*
X69550000Y-69850000D01*
X69540198Y-69849518D01*
X69530491Y-69848079D01*
X69520972Y-69845694D01*
X69511732Y-69842388D01*
X69502860Y-69838192D01*
X69494443Y-69833147D01*
X69486561Y-69827301D01*
X69479289Y-69820711D01*
X69472699Y-69813439D01*
X69466853Y-69805557D01*
X69461808Y-69797140D01*
X69457612Y-69788268D01*
X69454306Y-69779028D01*
X69451921Y-69769509D01*
X69450482Y-69759802D01*
X69450000Y-69750000D01*
X69450000Y-68300000D01*
X69450482Y-68290198D01*
X69451921Y-68280491D01*
X69454306Y-68270972D01*
X69457612Y-68261732D01*
X69461808Y-68252860D01*
X69466853Y-68244443D01*
X69472699Y-68236561D01*
X69479289Y-68229289D01*
X69486561Y-68222699D01*
X69494443Y-68216853D01*
X69502860Y-68211808D01*
X69511732Y-68207612D01*
X69520972Y-68204306D01*
X69530491Y-68201921D01*
X69540198Y-68200482D01*
X69550000Y-68200000D01*
X69750000Y-68200000D01*
X69759802Y-68200482D01*
G37*
G36*
X70259802Y-68200482D02*
G01*
X70269509Y-68201921D01*
X70279028Y-68204306D01*
X70288268Y-68207612D01*
X70297140Y-68211808D01*
X70305557Y-68216853D01*
X70313439Y-68222699D01*
X70320711Y-68229289D01*
X70327301Y-68236561D01*
X70333147Y-68244443D01*
X70338192Y-68252860D01*
X70342388Y-68261732D01*
X70345694Y-68270972D01*
X70348079Y-68280491D01*
X70349518Y-68290198D01*
X70350000Y-68300000D01*
X70350000Y-69750000D01*
X70349518Y-69759802D01*
X70348079Y-69769509D01*
X70345694Y-69779028D01*
X70342388Y-69788268D01*
X70338192Y-69797140D01*
X70333147Y-69805557D01*
X70327301Y-69813439D01*
X70320711Y-69820711D01*
X70313439Y-69827301D01*
X70305557Y-69833147D01*
X70297140Y-69838192D01*
X70288268Y-69842388D01*
X70279028Y-69845694D01*
X70269509Y-69848079D01*
X70259802Y-69849518D01*
X70250000Y-69850000D01*
X70050000Y-69850000D01*
X70040198Y-69849518D01*
X70030491Y-69848079D01*
X70020972Y-69845694D01*
X70011732Y-69842388D01*
X70002860Y-69838192D01*
X69994443Y-69833147D01*
X69986561Y-69827301D01*
X69979289Y-69820711D01*
X69972699Y-69813439D01*
X69966853Y-69805557D01*
X69961808Y-69797140D01*
X69957612Y-69788268D01*
X69954306Y-69779028D01*
X69951921Y-69769509D01*
X69950482Y-69759802D01*
X69950000Y-69750000D01*
X69950000Y-68300000D01*
X69950482Y-68290198D01*
X69951921Y-68280491D01*
X69954306Y-68270972D01*
X69957612Y-68261732D01*
X69961808Y-68252860D01*
X69966853Y-68244443D01*
X69972699Y-68236561D01*
X69979289Y-68229289D01*
X69986561Y-68222699D01*
X69994443Y-68216853D01*
X70002860Y-68211808D01*
X70011732Y-68207612D01*
X70020972Y-68204306D01*
X70030491Y-68201921D01*
X70040198Y-68200482D01*
X70050000Y-68200000D01*
X70250000Y-68200000D01*
X70259802Y-68200482D01*
G37*
G36*
X70759802Y-68200482D02*
G01*
X70769509Y-68201921D01*
X70779028Y-68204306D01*
X70788268Y-68207612D01*
X70797140Y-68211808D01*
X70805557Y-68216853D01*
X70813439Y-68222699D01*
X70820711Y-68229289D01*
X70827301Y-68236561D01*
X70833147Y-68244443D01*
X70838192Y-68252860D01*
X70842388Y-68261732D01*
X70845694Y-68270972D01*
X70848079Y-68280491D01*
X70849518Y-68290198D01*
X70850000Y-68300000D01*
X70850000Y-69750000D01*
X70849518Y-69759802D01*
X70848079Y-69769509D01*
X70845694Y-69779028D01*
X70842388Y-69788268D01*
X70838192Y-69797140D01*
X70833147Y-69805557D01*
X70827301Y-69813439D01*
X70820711Y-69820711D01*
X70813439Y-69827301D01*
X70805557Y-69833147D01*
X70797140Y-69838192D01*
X70788268Y-69842388D01*
X70779028Y-69845694D01*
X70769509Y-69848079D01*
X70759802Y-69849518D01*
X70750000Y-69850000D01*
X70550000Y-69850000D01*
X70540198Y-69849518D01*
X70530491Y-69848079D01*
X70520972Y-69845694D01*
X70511732Y-69842388D01*
X70502860Y-69838192D01*
X70494443Y-69833147D01*
X70486561Y-69827301D01*
X70479289Y-69820711D01*
X70472699Y-69813439D01*
X70466853Y-69805557D01*
X70461808Y-69797140D01*
X70457612Y-69788268D01*
X70454306Y-69779028D01*
X70451921Y-69769509D01*
X70450482Y-69759802D01*
X70450000Y-69750000D01*
X70450000Y-68300000D01*
X70450482Y-68290198D01*
X70451921Y-68280491D01*
X70454306Y-68270972D01*
X70457612Y-68261732D01*
X70461808Y-68252860D01*
X70466853Y-68244443D01*
X70472699Y-68236561D01*
X70479289Y-68229289D01*
X70486561Y-68222699D01*
X70494443Y-68216853D01*
X70502860Y-68211808D01*
X70511732Y-68207612D01*
X70520972Y-68204306D01*
X70530491Y-68201921D01*
X70540198Y-68200482D01*
X70550000Y-68200000D01*
X70750000Y-68200000D01*
X70759802Y-68200482D01*
G37*
G36*
X71259802Y-68200482D02*
G01*
X71269509Y-68201921D01*
X71279028Y-68204306D01*
X71288268Y-68207612D01*
X71297140Y-68211808D01*
X71305557Y-68216853D01*
X71313439Y-68222699D01*
X71320711Y-68229289D01*
X71327301Y-68236561D01*
X71333147Y-68244443D01*
X71338192Y-68252860D01*
X71342388Y-68261732D01*
X71345694Y-68270972D01*
X71348079Y-68280491D01*
X71349518Y-68290198D01*
X71350000Y-68300000D01*
X71350000Y-69750000D01*
X71349518Y-69759802D01*
X71348079Y-69769509D01*
X71345694Y-69779028D01*
X71342388Y-69788268D01*
X71338192Y-69797140D01*
X71333147Y-69805557D01*
X71327301Y-69813439D01*
X71320711Y-69820711D01*
X71313439Y-69827301D01*
X71305557Y-69833147D01*
X71297140Y-69838192D01*
X71288268Y-69842388D01*
X71279028Y-69845694D01*
X71269509Y-69848079D01*
X71259802Y-69849518D01*
X71250000Y-69850000D01*
X71050000Y-69850000D01*
X71040198Y-69849518D01*
X71030491Y-69848079D01*
X71020972Y-69845694D01*
X71011732Y-69842388D01*
X71002860Y-69838192D01*
X70994443Y-69833147D01*
X70986561Y-69827301D01*
X70979289Y-69820711D01*
X70972699Y-69813439D01*
X70966853Y-69805557D01*
X70961808Y-69797140D01*
X70957612Y-69788268D01*
X70954306Y-69779028D01*
X70951921Y-69769509D01*
X70950482Y-69759802D01*
X70950000Y-69750000D01*
X70950000Y-68300000D01*
X70950482Y-68290198D01*
X70951921Y-68280491D01*
X70954306Y-68270972D01*
X70957612Y-68261732D01*
X70961808Y-68252860D01*
X70966853Y-68244443D01*
X70972699Y-68236561D01*
X70979289Y-68229289D01*
X70986561Y-68222699D01*
X70994443Y-68216853D01*
X71002860Y-68211808D01*
X71011732Y-68207612D01*
X71020972Y-68204306D01*
X71030491Y-68201921D01*
X71040198Y-68200482D01*
X71050000Y-68200000D01*
X71250000Y-68200000D01*
X71259802Y-68200482D01*
G37*
G36*
X71759802Y-68200482D02*
G01*
X71769509Y-68201921D01*
X71779028Y-68204306D01*
X71788268Y-68207612D01*
X71797140Y-68211808D01*
X71805557Y-68216853D01*
X71813439Y-68222699D01*
X71820711Y-68229289D01*
X71827301Y-68236561D01*
X71833147Y-68244443D01*
X71838192Y-68252860D01*
X71842388Y-68261732D01*
X71845694Y-68270972D01*
X71848079Y-68280491D01*
X71849518Y-68290198D01*
X71850000Y-68300000D01*
X71850000Y-69750000D01*
X71849518Y-69759802D01*
X71848079Y-69769509D01*
X71845694Y-69779028D01*
X71842388Y-69788268D01*
X71838192Y-69797140D01*
X71833147Y-69805557D01*
X71827301Y-69813439D01*
X71820711Y-69820711D01*
X71813439Y-69827301D01*
X71805557Y-69833147D01*
X71797140Y-69838192D01*
X71788268Y-69842388D01*
X71779028Y-69845694D01*
X71769509Y-69848079D01*
X71759802Y-69849518D01*
X71750000Y-69850000D01*
X71550000Y-69850000D01*
X71540198Y-69849518D01*
X71530491Y-69848079D01*
X71520972Y-69845694D01*
X71511732Y-69842388D01*
X71502860Y-69838192D01*
X71494443Y-69833147D01*
X71486561Y-69827301D01*
X71479289Y-69820711D01*
X71472699Y-69813439D01*
X71466853Y-69805557D01*
X71461808Y-69797140D01*
X71457612Y-69788268D01*
X71454306Y-69779028D01*
X71451921Y-69769509D01*
X71450482Y-69759802D01*
X71450000Y-69750000D01*
X71450000Y-68300000D01*
X71450482Y-68290198D01*
X71451921Y-68280491D01*
X71454306Y-68270972D01*
X71457612Y-68261732D01*
X71461808Y-68252860D01*
X71466853Y-68244443D01*
X71472699Y-68236561D01*
X71479289Y-68229289D01*
X71486561Y-68222699D01*
X71494443Y-68216853D01*
X71502860Y-68211808D01*
X71511732Y-68207612D01*
X71520972Y-68204306D01*
X71530491Y-68201921D01*
X71540198Y-68200482D01*
X71550000Y-68200000D01*
X71750000Y-68200000D01*
X71759802Y-68200482D01*
G37*
G36*
X72259802Y-68200482D02*
G01*
X72269509Y-68201921D01*
X72279028Y-68204306D01*
X72288268Y-68207612D01*
X72297140Y-68211808D01*
X72305557Y-68216853D01*
X72313439Y-68222699D01*
X72320711Y-68229289D01*
X72327301Y-68236561D01*
X72333147Y-68244443D01*
X72338192Y-68252860D01*
X72342388Y-68261732D01*
X72345694Y-68270972D01*
X72348079Y-68280491D01*
X72349518Y-68290198D01*
X72350000Y-68300000D01*
X72350000Y-69750000D01*
X72349518Y-69759802D01*
X72348079Y-69769509D01*
X72345694Y-69779028D01*
X72342388Y-69788268D01*
X72338192Y-69797140D01*
X72333147Y-69805557D01*
X72327301Y-69813439D01*
X72320711Y-69820711D01*
X72313439Y-69827301D01*
X72305557Y-69833147D01*
X72297140Y-69838192D01*
X72288268Y-69842388D01*
X72279028Y-69845694D01*
X72269509Y-69848079D01*
X72259802Y-69849518D01*
X72250000Y-69850000D01*
X72050000Y-69850000D01*
X72040198Y-69849518D01*
X72030491Y-69848079D01*
X72020972Y-69845694D01*
X72011732Y-69842388D01*
X72002860Y-69838192D01*
X71994443Y-69833147D01*
X71986561Y-69827301D01*
X71979289Y-69820711D01*
X71972699Y-69813439D01*
X71966853Y-69805557D01*
X71961808Y-69797140D01*
X71957612Y-69788268D01*
X71954306Y-69779028D01*
X71951921Y-69769509D01*
X71950482Y-69759802D01*
X71950000Y-69750000D01*
X71950000Y-68300000D01*
X71950482Y-68290198D01*
X71951921Y-68280491D01*
X71954306Y-68270972D01*
X71957612Y-68261732D01*
X71961808Y-68252860D01*
X71966853Y-68244443D01*
X71972699Y-68236561D01*
X71979289Y-68229289D01*
X71986561Y-68222699D01*
X71994443Y-68216853D01*
X72002860Y-68211808D01*
X72011732Y-68207612D01*
X72020972Y-68204306D01*
X72030491Y-68201921D01*
X72040198Y-68200482D01*
X72050000Y-68200000D01*
X72250000Y-68200000D01*
X72259802Y-68200482D01*
G37*
G36*
X72759802Y-68200482D02*
G01*
X72769509Y-68201921D01*
X72779028Y-68204306D01*
X72788268Y-68207612D01*
X72797140Y-68211808D01*
X72805557Y-68216853D01*
X72813439Y-68222699D01*
X72820711Y-68229289D01*
X72827301Y-68236561D01*
X72833147Y-68244443D01*
X72838192Y-68252860D01*
X72842388Y-68261732D01*
X72845694Y-68270972D01*
X72848079Y-68280491D01*
X72849518Y-68290198D01*
X72850000Y-68300000D01*
X72850000Y-69750000D01*
X72849518Y-69759802D01*
X72848079Y-69769509D01*
X72845694Y-69779028D01*
X72842388Y-69788268D01*
X72838192Y-69797140D01*
X72833147Y-69805557D01*
X72827301Y-69813439D01*
X72820711Y-69820711D01*
X72813439Y-69827301D01*
X72805557Y-69833147D01*
X72797140Y-69838192D01*
X72788268Y-69842388D01*
X72779028Y-69845694D01*
X72769509Y-69848079D01*
X72759802Y-69849518D01*
X72750000Y-69850000D01*
X72550000Y-69850000D01*
X72540198Y-69849518D01*
X72530491Y-69848079D01*
X72520972Y-69845694D01*
X72511732Y-69842388D01*
X72502860Y-69838192D01*
X72494443Y-69833147D01*
X72486561Y-69827301D01*
X72479289Y-69820711D01*
X72472699Y-69813439D01*
X72466853Y-69805557D01*
X72461808Y-69797140D01*
X72457612Y-69788268D01*
X72454306Y-69779028D01*
X72451921Y-69769509D01*
X72450482Y-69759802D01*
X72450000Y-69750000D01*
X72450000Y-68300000D01*
X72450482Y-68290198D01*
X72451921Y-68280491D01*
X72454306Y-68270972D01*
X72457612Y-68261732D01*
X72461808Y-68252860D01*
X72466853Y-68244443D01*
X72472699Y-68236561D01*
X72479289Y-68229289D01*
X72486561Y-68222699D01*
X72494443Y-68216853D01*
X72502860Y-68211808D01*
X72511732Y-68207612D01*
X72520972Y-68204306D01*
X72530491Y-68201921D01*
X72540198Y-68200482D01*
X72550000Y-68200000D01*
X72750000Y-68200000D01*
X72759802Y-68200482D01*
G37*
G36*
X73259802Y-68200482D02*
G01*
X73269509Y-68201921D01*
X73279028Y-68204306D01*
X73288268Y-68207612D01*
X73297140Y-68211808D01*
X73305557Y-68216853D01*
X73313439Y-68222699D01*
X73320711Y-68229289D01*
X73327301Y-68236561D01*
X73333147Y-68244443D01*
X73338192Y-68252860D01*
X73342388Y-68261732D01*
X73345694Y-68270972D01*
X73348079Y-68280491D01*
X73349518Y-68290198D01*
X73350000Y-68300000D01*
X73350000Y-69750000D01*
X73349518Y-69759802D01*
X73348079Y-69769509D01*
X73345694Y-69779028D01*
X73342388Y-69788268D01*
X73338192Y-69797140D01*
X73333147Y-69805557D01*
X73327301Y-69813439D01*
X73320711Y-69820711D01*
X73313439Y-69827301D01*
X73305557Y-69833147D01*
X73297140Y-69838192D01*
X73288268Y-69842388D01*
X73279028Y-69845694D01*
X73269509Y-69848079D01*
X73259802Y-69849518D01*
X73250000Y-69850000D01*
X73050000Y-69850000D01*
X73040198Y-69849518D01*
X73030491Y-69848079D01*
X73020972Y-69845694D01*
X73011732Y-69842388D01*
X73002860Y-69838192D01*
X72994443Y-69833147D01*
X72986561Y-69827301D01*
X72979289Y-69820711D01*
X72972699Y-69813439D01*
X72966853Y-69805557D01*
X72961808Y-69797140D01*
X72957612Y-69788268D01*
X72954306Y-69779028D01*
X72951921Y-69769509D01*
X72950482Y-69759802D01*
X72950000Y-69750000D01*
X72950000Y-68300000D01*
X72950482Y-68290198D01*
X72951921Y-68280491D01*
X72954306Y-68270972D01*
X72957612Y-68261732D01*
X72961808Y-68252860D01*
X72966853Y-68244443D01*
X72972699Y-68236561D01*
X72979289Y-68229289D01*
X72986561Y-68222699D01*
X72994443Y-68216853D01*
X73002860Y-68211808D01*
X73011732Y-68207612D01*
X73020972Y-68204306D01*
X73030491Y-68201921D01*
X73040198Y-68200482D01*
X73050000Y-68200000D01*
X73250000Y-68200000D01*
X73259802Y-68200482D01*
G37*
G36*
X73759802Y-68200482D02*
G01*
X73769509Y-68201921D01*
X73779028Y-68204306D01*
X73788268Y-68207612D01*
X73797140Y-68211808D01*
X73805557Y-68216853D01*
X73813439Y-68222699D01*
X73820711Y-68229289D01*
X73827301Y-68236561D01*
X73833147Y-68244443D01*
X73838192Y-68252860D01*
X73842388Y-68261732D01*
X73845694Y-68270972D01*
X73848079Y-68280491D01*
X73849518Y-68290198D01*
X73850000Y-68300000D01*
X73850000Y-69750000D01*
X73849518Y-69759802D01*
X73848079Y-69769509D01*
X73845694Y-69779028D01*
X73842388Y-69788268D01*
X73838192Y-69797140D01*
X73833147Y-69805557D01*
X73827301Y-69813439D01*
X73820711Y-69820711D01*
X73813439Y-69827301D01*
X73805557Y-69833147D01*
X73797140Y-69838192D01*
X73788268Y-69842388D01*
X73779028Y-69845694D01*
X73769509Y-69848079D01*
X73759802Y-69849518D01*
X73750000Y-69850000D01*
X73550000Y-69850000D01*
X73540198Y-69849518D01*
X73530491Y-69848079D01*
X73520972Y-69845694D01*
X73511732Y-69842388D01*
X73502860Y-69838192D01*
X73494443Y-69833147D01*
X73486561Y-69827301D01*
X73479289Y-69820711D01*
X73472699Y-69813439D01*
X73466853Y-69805557D01*
X73461808Y-69797140D01*
X73457612Y-69788268D01*
X73454306Y-69779028D01*
X73451921Y-69769509D01*
X73450482Y-69759802D01*
X73450000Y-69750000D01*
X73450000Y-68300000D01*
X73450482Y-68290198D01*
X73451921Y-68280491D01*
X73454306Y-68270972D01*
X73457612Y-68261732D01*
X73461808Y-68252860D01*
X73466853Y-68244443D01*
X73472699Y-68236561D01*
X73479289Y-68229289D01*
X73486561Y-68222699D01*
X73494443Y-68216853D01*
X73502860Y-68211808D01*
X73511732Y-68207612D01*
X73520972Y-68204306D01*
X73530491Y-68201921D01*
X73540198Y-68200482D01*
X73550000Y-68200000D01*
X73750000Y-68200000D01*
X73759802Y-68200482D01*
G37*
G36*
X74259802Y-68200482D02*
G01*
X74269509Y-68201921D01*
X74279028Y-68204306D01*
X74288268Y-68207612D01*
X74297140Y-68211808D01*
X74305557Y-68216853D01*
X74313439Y-68222699D01*
X74320711Y-68229289D01*
X74327301Y-68236561D01*
X74333147Y-68244443D01*
X74338192Y-68252860D01*
X74342388Y-68261732D01*
X74345694Y-68270972D01*
X74348079Y-68280491D01*
X74349518Y-68290198D01*
X74350000Y-68300000D01*
X74350000Y-69750000D01*
X74349518Y-69759802D01*
X74348079Y-69769509D01*
X74345694Y-69779028D01*
X74342388Y-69788268D01*
X74338192Y-69797140D01*
X74333147Y-69805557D01*
X74327301Y-69813439D01*
X74320711Y-69820711D01*
X74313439Y-69827301D01*
X74305557Y-69833147D01*
X74297140Y-69838192D01*
X74288268Y-69842388D01*
X74279028Y-69845694D01*
X74269509Y-69848079D01*
X74259802Y-69849518D01*
X74250000Y-69850000D01*
X74050000Y-69850000D01*
X74040198Y-69849518D01*
X74030491Y-69848079D01*
X74020972Y-69845694D01*
X74011732Y-69842388D01*
X74002860Y-69838192D01*
X73994443Y-69833147D01*
X73986561Y-69827301D01*
X73979289Y-69820711D01*
X73972699Y-69813439D01*
X73966853Y-69805557D01*
X73961808Y-69797140D01*
X73957612Y-69788268D01*
X73954306Y-69779028D01*
X73951921Y-69769509D01*
X73950482Y-69759802D01*
X73950000Y-69750000D01*
X73950000Y-68300000D01*
X73950482Y-68290198D01*
X73951921Y-68280491D01*
X73954306Y-68270972D01*
X73957612Y-68261732D01*
X73961808Y-68252860D01*
X73966853Y-68244443D01*
X73972699Y-68236561D01*
X73979289Y-68229289D01*
X73986561Y-68222699D01*
X73994443Y-68216853D01*
X74002860Y-68211808D01*
X74011732Y-68207612D01*
X74020972Y-68204306D01*
X74030491Y-68201921D01*
X74040198Y-68200482D01*
X74050000Y-68200000D01*
X74250000Y-68200000D01*
X74259802Y-68200482D01*
G37*
G36*
X74759802Y-68200482D02*
G01*
X74769509Y-68201921D01*
X74779028Y-68204306D01*
X74788268Y-68207612D01*
X74797140Y-68211808D01*
X74805557Y-68216853D01*
X74813439Y-68222699D01*
X74820711Y-68229289D01*
X74827301Y-68236561D01*
X74833147Y-68244443D01*
X74838192Y-68252860D01*
X74842388Y-68261732D01*
X74845694Y-68270972D01*
X74848079Y-68280491D01*
X74849518Y-68290198D01*
X74850000Y-68300000D01*
X74850000Y-69750000D01*
X74849518Y-69759802D01*
X74848079Y-69769509D01*
X74845694Y-69779028D01*
X74842388Y-69788268D01*
X74838192Y-69797140D01*
X74833147Y-69805557D01*
X74827301Y-69813439D01*
X74820711Y-69820711D01*
X74813439Y-69827301D01*
X74805557Y-69833147D01*
X74797140Y-69838192D01*
X74788268Y-69842388D01*
X74779028Y-69845694D01*
X74769509Y-69848079D01*
X74759802Y-69849518D01*
X74750000Y-69850000D01*
X74550000Y-69850000D01*
X74540198Y-69849518D01*
X74530491Y-69848079D01*
X74520972Y-69845694D01*
X74511732Y-69842388D01*
X74502860Y-69838192D01*
X74494443Y-69833147D01*
X74486561Y-69827301D01*
X74479289Y-69820711D01*
X74472699Y-69813439D01*
X74466853Y-69805557D01*
X74461808Y-69797140D01*
X74457612Y-69788268D01*
X74454306Y-69779028D01*
X74451921Y-69769509D01*
X74450482Y-69759802D01*
X74450000Y-69750000D01*
X74450000Y-68300000D01*
X74450482Y-68290198D01*
X74451921Y-68280491D01*
X74454306Y-68270972D01*
X74457612Y-68261732D01*
X74461808Y-68252860D01*
X74466853Y-68244443D01*
X74472699Y-68236561D01*
X74479289Y-68229289D01*
X74486561Y-68222699D01*
X74494443Y-68216853D01*
X74502860Y-68211808D01*
X74511732Y-68207612D01*
X74520972Y-68204306D01*
X74530491Y-68201921D01*
X74540198Y-68200482D01*
X74550000Y-68200000D01*
X74750000Y-68200000D01*
X74759802Y-68200482D01*
G37*
G36*
X75259802Y-68200482D02*
G01*
X75269509Y-68201921D01*
X75279028Y-68204306D01*
X75288268Y-68207612D01*
X75297140Y-68211808D01*
X75305557Y-68216853D01*
X75313439Y-68222699D01*
X75320711Y-68229289D01*
X75327301Y-68236561D01*
X75333147Y-68244443D01*
X75338192Y-68252860D01*
X75342388Y-68261732D01*
X75345694Y-68270972D01*
X75348079Y-68280491D01*
X75349518Y-68290198D01*
X75350000Y-68300000D01*
X75350000Y-69750000D01*
X75349518Y-69759802D01*
X75348079Y-69769509D01*
X75345694Y-69779028D01*
X75342388Y-69788268D01*
X75338192Y-69797140D01*
X75333147Y-69805557D01*
X75327301Y-69813439D01*
X75320711Y-69820711D01*
X75313439Y-69827301D01*
X75305557Y-69833147D01*
X75297140Y-69838192D01*
X75288268Y-69842388D01*
X75279028Y-69845694D01*
X75269509Y-69848079D01*
X75259802Y-69849518D01*
X75250000Y-69850000D01*
X75050000Y-69850000D01*
X75040198Y-69849518D01*
X75030491Y-69848079D01*
X75020972Y-69845694D01*
X75011732Y-69842388D01*
X75002860Y-69838192D01*
X74994443Y-69833147D01*
X74986561Y-69827301D01*
X74979289Y-69820711D01*
X74972699Y-69813439D01*
X74966853Y-69805557D01*
X74961808Y-69797140D01*
X74957612Y-69788268D01*
X74954306Y-69779028D01*
X74951921Y-69769509D01*
X74950482Y-69759802D01*
X74950000Y-69750000D01*
X74950000Y-68300000D01*
X74950482Y-68290198D01*
X74951921Y-68280491D01*
X74954306Y-68270972D01*
X74957612Y-68261732D01*
X74961808Y-68252860D01*
X74966853Y-68244443D01*
X74972699Y-68236561D01*
X74979289Y-68229289D01*
X74986561Y-68222699D01*
X74994443Y-68216853D01*
X75002860Y-68211808D01*
X75011732Y-68207612D01*
X75020972Y-68204306D01*
X75030491Y-68201921D01*
X75040198Y-68200482D01*
X75050000Y-68200000D01*
X75250000Y-68200000D01*
X75259802Y-68200482D01*
G37*
G36*
X75759802Y-68200482D02*
G01*
X75769509Y-68201921D01*
X75779028Y-68204306D01*
X75788268Y-68207612D01*
X75797140Y-68211808D01*
X75805557Y-68216853D01*
X75813439Y-68222699D01*
X75820711Y-68229289D01*
X75827301Y-68236561D01*
X75833147Y-68244443D01*
X75838192Y-68252860D01*
X75842388Y-68261732D01*
X75845694Y-68270972D01*
X75848079Y-68280491D01*
X75849518Y-68290198D01*
X75850000Y-68300000D01*
X75850000Y-69750000D01*
X75849518Y-69759802D01*
X75848079Y-69769509D01*
X75845694Y-69779028D01*
X75842388Y-69788268D01*
X75838192Y-69797140D01*
X75833147Y-69805557D01*
X75827301Y-69813439D01*
X75820711Y-69820711D01*
X75813439Y-69827301D01*
X75805557Y-69833147D01*
X75797140Y-69838192D01*
X75788268Y-69842388D01*
X75779028Y-69845694D01*
X75769509Y-69848079D01*
X75759802Y-69849518D01*
X75750000Y-69850000D01*
X75550000Y-69850000D01*
X75540198Y-69849518D01*
X75530491Y-69848079D01*
X75520972Y-69845694D01*
X75511732Y-69842388D01*
X75502860Y-69838192D01*
X75494443Y-69833147D01*
X75486561Y-69827301D01*
X75479289Y-69820711D01*
X75472699Y-69813439D01*
X75466853Y-69805557D01*
X75461808Y-69797140D01*
X75457612Y-69788268D01*
X75454306Y-69779028D01*
X75451921Y-69769509D01*
X75450482Y-69759802D01*
X75450000Y-69750000D01*
X75450000Y-68300000D01*
X75450482Y-68290198D01*
X75451921Y-68280491D01*
X75454306Y-68270972D01*
X75457612Y-68261732D01*
X75461808Y-68252860D01*
X75466853Y-68244443D01*
X75472699Y-68236561D01*
X75479289Y-68229289D01*
X75486561Y-68222699D01*
X75494443Y-68216853D01*
X75502860Y-68211808D01*
X75511732Y-68207612D01*
X75520972Y-68204306D01*
X75530491Y-68201921D01*
X75540198Y-68200482D01*
X75550000Y-68200000D01*
X75750000Y-68200000D01*
X75759802Y-68200482D01*
G37*
G36*
X76259802Y-68200482D02*
G01*
X76269509Y-68201921D01*
X76279028Y-68204306D01*
X76288268Y-68207612D01*
X76297140Y-68211808D01*
X76305557Y-68216853D01*
X76313439Y-68222699D01*
X76320711Y-68229289D01*
X76327301Y-68236561D01*
X76333147Y-68244443D01*
X76338192Y-68252860D01*
X76342388Y-68261732D01*
X76345694Y-68270972D01*
X76348079Y-68280491D01*
X76349518Y-68290198D01*
X76350000Y-68300000D01*
X76350000Y-69750000D01*
X76349518Y-69759802D01*
X76348079Y-69769509D01*
X76345694Y-69779028D01*
X76342388Y-69788268D01*
X76338192Y-69797140D01*
X76333147Y-69805557D01*
X76327301Y-69813439D01*
X76320711Y-69820711D01*
X76313439Y-69827301D01*
X76305557Y-69833147D01*
X76297140Y-69838192D01*
X76288268Y-69842388D01*
X76279028Y-69845694D01*
X76269509Y-69848079D01*
X76259802Y-69849518D01*
X76250000Y-69850000D01*
X76050000Y-69850000D01*
X76040198Y-69849518D01*
X76030491Y-69848079D01*
X76020972Y-69845694D01*
X76011732Y-69842388D01*
X76002860Y-69838192D01*
X75994443Y-69833147D01*
X75986561Y-69827301D01*
X75979289Y-69820711D01*
X75972699Y-69813439D01*
X75966853Y-69805557D01*
X75961808Y-69797140D01*
X75957612Y-69788268D01*
X75954306Y-69779028D01*
X75951921Y-69769509D01*
X75950482Y-69759802D01*
X75950000Y-69750000D01*
X75950000Y-68300000D01*
X75950482Y-68290198D01*
X75951921Y-68280491D01*
X75954306Y-68270972D01*
X75957612Y-68261732D01*
X75961808Y-68252860D01*
X75966853Y-68244443D01*
X75972699Y-68236561D01*
X75979289Y-68229289D01*
X75986561Y-68222699D01*
X75994443Y-68216853D01*
X76002860Y-68211808D01*
X76011732Y-68207612D01*
X76020972Y-68204306D01*
X76030491Y-68201921D01*
X76040198Y-68200482D01*
X76050000Y-68200000D01*
X76250000Y-68200000D01*
X76259802Y-68200482D01*
G37*
G36*
X76759802Y-68200482D02*
G01*
X76769509Y-68201921D01*
X76779028Y-68204306D01*
X76788268Y-68207612D01*
X76797140Y-68211808D01*
X76805557Y-68216853D01*
X76813439Y-68222699D01*
X76820711Y-68229289D01*
X76827301Y-68236561D01*
X76833147Y-68244443D01*
X76838192Y-68252860D01*
X76842388Y-68261732D01*
X76845694Y-68270972D01*
X76848079Y-68280491D01*
X76849518Y-68290198D01*
X76850000Y-68300000D01*
X76850000Y-69750000D01*
X76849518Y-69759802D01*
X76848079Y-69769509D01*
X76845694Y-69779028D01*
X76842388Y-69788268D01*
X76838192Y-69797140D01*
X76833147Y-69805557D01*
X76827301Y-69813439D01*
X76820711Y-69820711D01*
X76813439Y-69827301D01*
X76805557Y-69833147D01*
X76797140Y-69838192D01*
X76788268Y-69842388D01*
X76779028Y-69845694D01*
X76769509Y-69848079D01*
X76759802Y-69849518D01*
X76750000Y-69850000D01*
X76550000Y-69850000D01*
X76540198Y-69849518D01*
X76530491Y-69848079D01*
X76520972Y-69845694D01*
X76511732Y-69842388D01*
X76502860Y-69838192D01*
X76494443Y-69833147D01*
X76486561Y-69827301D01*
X76479289Y-69820711D01*
X76472699Y-69813439D01*
X76466853Y-69805557D01*
X76461808Y-69797140D01*
X76457612Y-69788268D01*
X76454306Y-69779028D01*
X76451921Y-69769509D01*
X76450482Y-69759802D01*
X76450000Y-69750000D01*
X76450000Y-68300000D01*
X76450482Y-68290198D01*
X76451921Y-68280491D01*
X76454306Y-68270972D01*
X76457612Y-68261732D01*
X76461808Y-68252860D01*
X76466853Y-68244443D01*
X76472699Y-68236561D01*
X76479289Y-68229289D01*
X76486561Y-68222699D01*
X76494443Y-68216853D01*
X76502860Y-68211808D01*
X76511732Y-68207612D01*
X76520972Y-68204306D01*
X76530491Y-68201921D01*
X76540198Y-68200482D01*
X76550000Y-68200000D01*
X76750000Y-68200000D01*
X76759802Y-68200482D01*
G37*
G36*
X77259802Y-68200482D02*
G01*
X77269509Y-68201921D01*
X77279028Y-68204306D01*
X77288268Y-68207612D01*
X77297140Y-68211808D01*
X77305557Y-68216853D01*
X77313439Y-68222699D01*
X77320711Y-68229289D01*
X77327301Y-68236561D01*
X77333147Y-68244443D01*
X77338192Y-68252860D01*
X77342388Y-68261732D01*
X77345694Y-68270972D01*
X77348079Y-68280491D01*
X77349518Y-68290198D01*
X77350000Y-68300000D01*
X77350000Y-69750000D01*
X77349518Y-69759802D01*
X77348079Y-69769509D01*
X77345694Y-69779028D01*
X77342388Y-69788268D01*
X77338192Y-69797140D01*
X77333147Y-69805557D01*
X77327301Y-69813439D01*
X77320711Y-69820711D01*
X77313439Y-69827301D01*
X77305557Y-69833147D01*
X77297140Y-69838192D01*
X77288268Y-69842388D01*
X77279028Y-69845694D01*
X77269509Y-69848079D01*
X77259802Y-69849518D01*
X77250000Y-69850000D01*
X77050000Y-69850000D01*
X77040198Y-69849518D01*
X77030491Y-69848079D01*
X77020972Y-69845694D01*
X77011732Y-69842388D01*
X77002860Y-69838192D01*
X76994443Y-69833147D01*
X76986561Y-69827301D01*
X76979289Y-69820711D01*
X76972699Y-69813439D01*
X76966853Y-69805557D01*
X76961808Y-69797140D01*
X76957612Y-69788268D01*
X76954306Y-69779028D01*
X76951921Y-69769509D01*
X76950482Y-69759802D01*
X76950000Y-69750000D01*
X76950000Y-68300000D01*
X76950482Y-68290198D01*
X76951921Y-68280491D01*
X76954306Y-68270972D01*
X76957612Y-68261732D01*
X76961808Y-68252860D01*
X76966853Y-68244443D01*
X76972699Y-68236561D01*
X76979289Y-68229289D01*
X76986561Y-68222699D01*
X76994443Y-68216853D01*
X77002860Y-68211808D01*
X77011732Y-68207612D01*
X77020972Y-68204306D01*
X77030491Y-68201921D01*
X77040198Y-68200482D01*
X77050000Y-68200000D01*
X77250000Y-68200000D01*
X77259802Y-68200482D01*
G37*
G36*
X79809802Y-70750482D02*
G01*
X79819509Y-70751921D01*
X79829028Y-70754306D01*
X79838268Y-70757612D01*
X79847140Y-70761808D01*
X79855557Y-70766853D01*
X79863439Y-70772699D01*
X79870711Y-70779289D01*
X79877301Y-70786561D01*
X79883147Y-70794443D01*
X79888192Y-70802860D01*
X79892388Y-70811732D01*
X79895694Y-70820972D01*
X79898079Y-70830491D01*
X79899518Y-70840198D01*
X79900000Y-70850000D01*
X79900000Y-71050000D01*
X79899518Y-71059802D01*
X79898079Y-71069509D01*
X79895694Y-71079028D01*
X79892388Y-71088268D01*
X79888192Y-71097140D01*
X79883147Y-71105557D01*
X79877301Y-71113439D01*
X79870711Y-71120711D01*
X79863439Y-71127301D01*
X79855557Y-71133147D01*
X79847140Y-71138192D01*
X79838268Y-71142388D01*
X79829028Y-71145694D01*
X79819509Y-71148079D01*
X79809802Y-71149518D01*
X79800000Y-71150000D01*
X78350000Y-71150000D01*
X78340198Y-71149518D01*
X78330491Y-71148079D01*
X78320972Y-71145694D01*
X78311732Y-71142388D01*
X78302860Y-71138192D01*
X78294443Y-71133147D01*
X78286561Y-71127301D01*
X78279289Y-71120711D01*
X78272699Y-71113439D01*
X78266853Y-71105557D01*
X78261808Y-71097140D01*
X78257612Y-71088268D01*
X78254306Y-71079028D01*
X78251921Y-71069509D01*
X78250482Y-71059802D01*
X78250000Y-71050000D01*
X78250000Y-70850000D01*
X78250482Y-70840198D01*
X78251921Y-70830491D01*
X78254306Y-70820972D01*
X78257612Y-70811732D01*
X78261808Y-70802860D01*
X78266853Y-70794443D01*
X78272699Y-70786561D01*
X78279289Y-70779289D01*
X78286561Y-70772699D01*
X78294443Y-70766853D01*
X78302860Y-70761808D01*
X78311732Y-70757612D01*
X78320972Y-70754306D01*
X78330491Y-70751921D01*
X78340198Y-70750482D01*
X78350000Y-70750000D01*
X79800000Y-70750000D01*
X79809802Y-70750482D01*
G37*
G36*
X79809802Y-71250482D02*
G01*
X79819509Y-71251921D01*
X79829028Y-71254306D01*
X79838268Y-71257612D01*
X79847140Y-71261808D01*
X79855557Y-71266853D01*
X79863439Y-71272699D01*
X79870711Y-71279289D01*
X79877301Y-71286561D01*
X79883147Y-71294443D01*
X79888192Y-71302860D01*
X79892388Y-71311732D01*
X79895694Y-71320972D01*
X79898079Y-71330491D01*
X79899518Y-71340198D01*
X79900000Y-71350000D01*
X79900000Y-71550000D01*
X79899518Y-71559802D01*
X79898079Y-71569509D01*
X79895694Y-71579028D01*
X79892388Y-71588268D01*
X79888192Y-71597140D01*
X79883147Y-71605557D01*
X79877301Y-71613439D01*
X79870711Y-71620711D01*
X79863439Y-71627301D01*
X79855557Y-71633147D01*
X79847140Y-71638192D01*
X79838268Y-71642388D01*
X79829028Y-71645694D01*
X79819509Y-71648079D01*
X79809802Y-71649518D01*
X79800000Y-71650000D01*
X78350000Y-71650000D01*
X78340198Y-71649518D01*
X78330491Y-71648079D01*
X78320972Y-71645694D01*
X78311732Y-71642388D01*
X78302860Y-71638192D01*
X78294443Y-71633147D01*
X78286561Y-71627301D01*
X78279289Y-71620711D01*
X78272699Y-71613439D01*
X78266853Y-71605557D01*
X78261808Y-71597140D01*
X78257612Y-71588268D01*
X78254306Y-71579028D01*
X78251921Y-71569509D01*
X78250482Y-71559802D01*
X78250000Y-71550000D01*
X78250000Y-71350000D01*
X78250482Y-71340198D01*
X78251921Y-71330491D01*
X78254306Y-71320972D01*
X78257612Y-71311732D01*
X78261808Y-71302860D01*
X78266853Y-71294443D01*
X78272699Y-71286561D01*
X78279289Y-71279289D01*
X78286561Y-71272699D01*
X78294443Y-71266853D01*
X78302860Y-71261808D01*
X78311732Y-71257612D01*
X78320972Y-71254306D01*
X78330491Y-71251921D01*
X78340198Y-71250482D01*
X78350000Y-71250000D01*
X79800000Y-71250000D01*
X79809802Y-71250482D01*
G37*
G36*
X79809802Y-71750482D02*
G01*
X79819509Y-71751921D01*
X79829028Y-71754306D01*
X79838268Y-71757612D01*
X79847140Y-71761808D01*
X79855557Y-71766853D01*
X79863439Y-71772699D01*
X79870711Y-71779289D01*
X79877301Y-71786561D01*
X79883147Y-71794443D01*
X79888192Y-71802860D01*
X79892388Y-71811732D01*
X79895694Y-71820972D01*
X79898079Y-71830491D01*
X79899518Y-71840198D01*
X79900000Y-71850000D01*
X79900000Y-72050000D01*
X79899518Y-72059802D01*
X79898079Y-72069509D01*
X79895694Y-72079028D01*
X79892388Y-72088268D01*
X79888192Y-72097140D01*
X79883147Y-72105557D01*
X79877301Y-72113439D01*
X79870711Y-72120711D01*
X79863439Y-72127301D01*
X79855557Y-72133147D01*
X79847140Y-72138192D01*
X79838268Y-72142388D01*
X79829028Y-72145694D01*
X79819509Y-72148079D01*
X79809802Y-72149518D01*
X79800000Y-72150000D01*
X78350000Y-72150000D01*
X78340198Y-72149518D01*
X78330491Y-72148079D01*
X78320972Y-72145694D01*
X78311732Y-72142388D01*
X78302860Y-72138192D01*
X78294443Y-72133147D01*
X78286561Y-72127301D01*
X78279289Y-72120711D01*
X78272699Y-72113439D01*
X78266853Y-72105557D01*
X78261808Y-72097140D01*
X78257612Y-72088268D01*
X78254306Y-72079028D01*
X78251921Y-72069509D01*
X78250482Y-72059802D01*
X78250000Y-72050000D01*
X78250000Y-71850000D01*
X78250482Y-71840198D01*
X78251921Y-71830491D01*
X78254306Y-71820972D01*
X78257612Y-71811732D01*
X78261808Y-71802860D01*
X78266853Y-71794443D01*
X78272699Y-71786561D01*
X78279289Y-71779289D01*
X78286561Y-71772699D01*
X78294443Y-71766853D01*
X78302860Y-71761808D01*
X78311732Y-71757612D01*
X78320972Y-71754306D01*
X78330491Y-71751921D01*
X78340198Y-71750482D01*
X78350000Y-71750000D01*
X79800000Y-71750000D01*
X79809802Y-71750482D01*
G37*
G36*
X79809802Y-72250482D02*
G01*
X79819509Y-72251921D01*
X79829028Y-72254306D01*
X79838268Y-72257612D01*
X79847140Y-72261808D01*
X79855557Y-72266853D01*
X79863439Y-72272699D01*
X79870711Y-72279289D01*
X79877301Y-72286561D01*
X79883147Y-72294443D01*
X79888192Y-72302860D01*
X79892388Y-72311732D01*
X79895694Y-72320972D01*
X79898079Y-72330491D01*
X79899518Y-72340198D01*
X79900000Y-72350000D01*
X79900000Y-72550000D01*
X79899518Y-72559802D01*
X79898079Y-72569509D01*
X79895694Y-72579028D01*
X79892388Y-72588268D01*
X79888192Y-72597140D01*
X79883147Y-72605557D01*
X79877301Y-72613439D01*
X79870711Y-72620711D01*
X79863439Y-72627301D01*
X79855557Y-72633147D01*
X79847140Y-72638192D01*
X79838268Y-72642388D01*
X79829028Y-72645694D01*
X79819509Y-72648079D01*
X79809802Y-72649518D01*
X79800000Y-72650000D01*
X78350000Y-72650000D01*
X78340198Y-72649518D01*
X78330491Y-72648079D01*
X78320972Y-72645694D01*
X78311732Y-72642388D01*
X78302860Y-72638192D01*
X78294443Y-72633147D01*
X78286561Y-72627301D01*
X78279289Y-72620711D01*
X78272699Y-72613439D01*
X78266853Y-72605557D01*
X78261808Y-72597140D01*
X78257612Y-72588268D01*
X78254306Y-72579028D01*
X78251921Y-72569509D01*
X78250482Y-72559802D01*
X78250000Y-72550000D01*
X78250000Y-72350000D01*
X78250482Y-72340198D01*
X78251921Y-72330491D01*
X78254306Y-72320972D01*
X78257612Y-72311732D01*
X78261808Y-72302860D01*
X78266853Y-72294443D01*
X78272699Y-72286561D01*
X78279289Y-72279289D01*
X78286561Y-72272699D01*
X78294443Y-72266853D01*
X78302860Y-72261808D01*
X78311732Y-72257612D01*
X78320972Y-72254306D01*
X78330491Y-72251921D01*
X78340198Y-72250482D01*
X78350000Y-72250000D01*
X79800000Y-72250000D01*
X79809802Y-72250482D01*
G37*
G36*
X79809802Y-72750482D02*
G01*
X79819509Y-72751921D01*
X79829028Y-72754306D01*
X79838268Y-72757612D01*
X79847140Y-72761808D01*
X79855557Y-72766853D01*
X79863439Y-72772699D01*
X79870711Y-72779289D01*
X79877301Y-72786561D01*
X79883147Y-72794443D01*
X79888192Y-72802860D01*
X79892388Y-72811732D01*
X79895694Y-72820972D01*
X79898079Y-72830491D01*
X79899518Y-72840198D01*
X79900000Y-72850000D01*
X79900000Y-73050000D01*
X79899518Y-73059802D01*
X79898079Y-73069509D01*
X79895694Y-73079028D01*
X79892388Y-73088268D01*
X79888192Y-73097140D01*
X79883147Y-73105557D01*
X79877301Y-73113439D01*
X79870711Y-73120711D01*
X79863439Y-73127301D01*
X79855557Y-73133147D01*
X79847140Y-73138192D01*
X79838268Y-73142388D01*
X79829028Y-73145694D01*
X79819509Y-73148079D01*
X79809802Y-73149518D01*
X79800000Y-73150000D01*
X78350000Y-73150000D01*
X78340198Y-73149518D01*
X78330491Y-73148079D01*
X78320972Y-73145694D01*
X78311732Y-73142388D01*
X78302860Y-73138192D01*
X78294443Y-73133147D01*
X78286561Y-73127301D01*
X78279289Y-73120711D01*
X78272699Y-73113439D01*
X78266853Y-73105557D01*
X78261808Y-73097140D01*
X78257612Y-73088268D01*
X78254306Y-73079028D01*
X78251921Y-73069509D01*
X78250482Y-73059802D01*
X78250000Y-73050000D01*
X78250000Y-72850000D01*
X78250482Y-72840198D01*
X78251921Y-72830491D01*
X78254306Y-72820972D01*
X78257612Y-72811732D01*
X78261808Y-72802860D01*
X78266853Y-72794443D01*
X78272699Y-72786561D01*
X78279289Y-72779289D01*
X78286561Y-72772699D01*
X78294443Y-72766853D01*
X78302860Y-72761808D01*
X78311732Y-72757612D01*
X78320972Y-72754306D01*
X78330491Y-72751921D01*
X78340198Y-72750482D01*
X78350000Y-72750000D01*
X79800000Y-72750000D01*
X79809802Y-72750482D01*
G37*
G36*
X79809802Y-73250482D02*
G01*
X79819509Y-73251921D01*
X79829028Y-73254306D01*
X79838268Y-73257612D01*
X79847140Y-73261808D01*
X79855557Y-73266853D01*
X79863439Y-73272699D01*
X79870711Y-73279289D01*
X79877301Y-73286561D01*
X79883147Y-73294443D01*
X79888192Y-73302860D01*
X79892388Y-73311732D01*
X79895694Y-73320972D01*
X79898079Y-73330491D01*
X79899518Y-73340198D01*
X79900000Y-73350000D01*
X79900000Y-73550000D01*
X79899518Y-73559802D01*
X79898079Y-73569509D01*
X79895694Y-73579028D01*
X79892388Y-73588268D01*
X79888192Y-73597140D01*
X79883147Y-73605557D01*
X79877301Y-73613439D01*
X79870711Y-73620711D01*
X79863439Y-73627301D01*
X79855557Y-73633147D01*
X79847140Y-73638192D01*
X79838268Y-73642388D01*
X79829028Y-73645694D01*
X79819509Y-73648079D01*
X79809802Y-73649518D01*
X79800000Y-73650000D01*
X78350000Y-73650000D01*
X78340198Y-73649518D01*
X78330491Y-73648079D01*
X78320972Y-73645694D01*
X78311732Y-73642388D01*
X78302860Y-73638192D01*
X78294443Y-73633147D01*
X78286561Y-73627301D01*
X78279289Y-73620711D01*
X78272699Y-73613439D01*
X78266853Y-73605557D01*
X78261808Y-73597140D01*
X78257612Y-73588268D01*
X78254306Y-73579028D01*
X78251921Y-73569509D01*
X78250482Y-73559802D01*
X78250000Y-73550000D01*
X78250000Y-73350000D01*
X78250482Y-73340198D01*
X78251921Y-73330491D01*
X78254306Y-73320972D01*
X78257612Y-73311732D01*
X78261808Y-73302860D01*
X78266853Y-73294443D01*
X78272699Y-73286561D01*
X78279289Y-73279289D01*
X78286561Y-73272699D01*
X78294443Y-73266853D01*
X78302860Y-73261808D01*
X78311732Y-73257612D01*
X78320972Y-73254306D01*
X78330491Y-73251921D01*
X78340198Y-73250482D01*
X78350000Y-73250000D01*
X79800000Y-73250000D01*
X79809802Y-73250482D01*
G37*
G36*
X79809802Y-73750482D02*
G01*
X79819509Y-73751921D01*
X79829028Y-73754306D01*
X79838268Y-73757612D01*
X79847140Y-73761808D01*
X79855557Y-73766853D01*
X79863439Y-73772699D01*
X79870711Y-73779289D01*
X79877301Y-73786561D01*
X79883147Y-73794443D01*
X79888192Y-73802860D01*
X79892388Y-73811732D01*
X79895694Y-73820972D01*
X79898079Y-73830491D01*
X79899518Y-73840198D01*
X79900000Y-73850000D01*
X79900000Y-74050000D01*
X79899518Y-74059802D01*
X79898079Y-74069509D01*
X79895694Y-74079028D01*
X79892388Y-74088268D01*
X79888192Y-74097140D01*
X79883147Y-74105557D01*
X79877301Y-74113439D01*
X79870711Y-74120711D01*
X79863439Y-74127301D01*
X79855557Y-74133147D01*
X79847140Y-74138192D01*
X79838268Y-74142388D01*
X79829028Y-74145694D01*
X79819509Y-74148079D01*
X79809802Y-74149518D01*
X79800000Y-74150000D01*
X78350000Y-74150000D01*
X78340198Y-74149518D01*
X78330491Y-74148079D01*
X78320972Y-74145694D01*
X78311732Y-74142388D01*
X78302860Y-74138192D01*
X78294443Y-74133147D01*
X78286561Y-74127301D01*
X78279289Y-74120711D01*
X78272699Y-74113439D01*
X78266853Y-74105557D01*
X78261808Y-74097140D01*
X78257612Y-74088268D01*
X78254306Y-74079028D01*
X78251921Y-74069509D01*
X78250482Y-74059802D01*
X78250000Y-74050000D01*
X78250000Y-73850000D01*
X78250482Y-73840198D01*
X78251921Y-73830491D01*
X78254306Y-73820972D01*
X78257612Y-73811732D01*
X78261808Y-73802860D01*
X78266853Y-73794443D01*
X78272699Y-73786561D01*
X78279289Y-73779289D01*
X78286561Y-73772699D01*
X78294443Y-73766853D01*
X78302860Y-73761808D01*
X78311732Y-73757612D01*
X78320972Y-73754306D01*
X78330491Y-73751921D01*
X78340198Y-73750482D01*
X78350000Y-73750000D01*
X79800000Y-73750000D01*
X79809802Y-73750482D01*
G37*
G36*
X79809802Y-74250482D02*
G01*
X79819509Y-74251921D01*
X79829028Y-74254306D01*
X79838268Y-74257612D01*
X79847140Y-74261808D01*
X79855557Y-74266853D01*
X79863439Y-74272699D01*
X79870711Y-74279289D01*
X79877301Y-74286561D01*
X79883147Y-74294443D01*
X79888192Y-74302860D01*
X79892388Y-74311732D01*
X79895694Y-74320972D01*
X79898079Y-74330491D01*
X79899518Y-74340198D01*
X79900000Y-74350000D01*
X79900000Y-74550000D01*
X79899518Y-74559802D01*
X79898079Y-74569509D01*
X79895694Y-74579028D01*
X79892388Y-74588268D01*
X79888192Y-74597140D01*
X79883147Y-74605557D01*
X79877301Y-74613439D01*
X79870711Y-74620711D01*
X79863439Y-74627301D01*
X79855557Y-74633147D01*
X79847140Y-74638192D01*
X79838268Y-74642388D01*
X79829028Y-74645694D01*
X79819509Y-74648079D01*
X79809802Y-74649518D01*
X79800000Y-74650000D01*
X78350000Y-74650000D01*
X78340198Y-74649518D01*
X78330491Y-74648079D01*
X78320972Y-74645694D01*
X78311732Y-74642388D01*
X78302860Y-74638192D01*
X78294443Y-74633147D01*
X78286561Y-74627301D01*
X78279289Y-74620711D01*
X78272699Y-74613439D01*
X78266853Y-74605557D01*
X78261808Y-74597140D01*
X78257612Y-74588268D01*
X78254306Y-74579028D01*
X78251921Y-74569509D01*
X78250482Y-74559802D01*
X78250000Y-74550000D01*
X78250000Y-74350000D01*
X78250482Y-74340198D01*
X78251921Y-74330491D01*
X78254306Y-74320972D01*
X78257612Y-74311732D01*
X78261808Y-74302860D01*
X78266853Y-74294443D01*
X78272699Y-74286561D01*
X78279289Y-74279289D01*
X78286561Y-74272699D01*
X78294443Y-74266853D01*
X78302860Y-74261808D01*
X78311732Y-74257612D01*
X78320972Y-74254306D01*
X78330491Y-74251921D01*
X78340198Y-74250482D01*
X78350000Y-74250000D01*
X79800000Y-74250000D01*
X79809802Y-74250482D01*
G37*
G36*
X79809802Y-74750482D02*
G01*
X79819509Y-74751921D01*
X79829028Y-74754306D01*
X79838268Y-74757612D01*
X79847140Y-74761808D01*
X79855557Y-74766853D01*
X79863439Y-74772699D01*
X79870711Y-74779289D01*
X79877301Y-74786561D01*
X79883147Y-74794443D01*
X79888192Y-74802860D01*
X79892388Y-74811732D01*
X79895694Y-74820972D01*
X79898079Y-74830491D01*
X79899518Y-74840198D01*
X79900000Y-74850000D01*
X79900000Y-75050000D01*
X79899518Y-75059802D01*
X79898079Y-75069509D01*
X79895694Y-75079028D01*
X79892388Y-75088268D01*
X79888192Y-75097140D01*
X79883147Y-75105557D01*
X79877301Y-75113439D01*
X79870711Y-75120711D01*
X79863439Y-75127301D01*
X79855557Y-75133147D01*
X79847140Y-75138192D01*
X79838268Y-75142388D01*
X79829028Y-75145694D01*
X79819509Y-75148079D01*
X79809802Y-75149518D01*
X79800000Y-75150000D01*
X78350000Y-75150000D01*
X78340198Y-75149518D01*
X78330491Y-75148079D01*
X78320972Y-75145694D01*
X78311732Y-75142388D01*
X78302860Y-75138192D01*
X78294443Y-75133147D01*
X78286561Y-75127301D01*
X78279289Y-75120711D01*
X78272699Y-75113439D01*
X78266853Y-75105557D01*
X78261808Y-75097140D01*
X78257612Y-75088268D01*
X78254306Y-75079028D01*
X78251921Y-75069509D01*
X78250482Y-75059802D01*
X78250000Y-75050000D01*
X78250000Y-74850000D01*
X78250482Y-74840198D01*
X78251921Y-74830491D01*
X78254306Y-74820972D01*
X78257612Y-74811732D01*
X78261808Y-74802860D01*
X78266853Y-74794443D01*
X78272699Y-74786561D01*
X78279289Y-74779289D01*
X78286561Y-74772699D01*
X78294443Y-74766853D01*
X78302860Y-74761808D01*
X78311732Y-74757612D01*
X78320972Y-74754306D01*
X78330491Y-74751921D01*
X78340198Y-74750482D01*
X78350000Y-74750000D01*
X79800000Y-74750000D01*
X79809802Y-74750482D01*
G37*
G36*
X79809802Y-75250482D02*
G01*
X79819509Y-75251921D01*
X79829028Y-75254306D01*
X79838268Y-75257612D01*
X79847140Y-75261808D01*
X79855557Y-75266853D01*
X79863439Y-75272699D01*
X79870711Y-75279289D01*
X79877301Y-75286561D01*
X79883147Y-75294443D01*
X79888192Y-75302860D01*
X79892388Y-75311732D01*
X79895694Y-75320972D01*
X79898079Y-75330491D01*
X79899518Y-75340198D01*
X79900000Y-75350000D01*
X79900000Y-75550000D01*
X79899518Y-75559802D01*
X79898079Y-75569509D01*
X79895694Y-75579028D01*
X79892388Y-75588268D01*
X79888192Y-75597140D01*
X79883147Y-75605557D01*
X79877301Y-75613439D01*
X79870711Y-75620711D01*
X79863439Y-75627301D01*
X79855557Y-75633147D01*
X79847140Y-75638192D01*
X79838268Y-75642388D01*
X79829028Y-75645694D01*
X79819509Y-75648079D01*
X79809802Y-75649518D01*
X79800000Y-75650000D01*
X78350000Y-75650000D01*
X78340198Y-75649518D01*
X78330491Y-75648079D01*
X78320972Y-75645694D01*
X78311732Y-75642388D01*
X78302860Y-75638192D01*
X78294443Y-75633147D01*
X78286561Y-75627301D01*
X78279289Y-75620711D01*
X78272699Y-75613439D01*
X78266853Y-75605557D01*
X78261808Y-75597140D01*
X78257612Y-75588268D01*
X78254306Y-75579028D01*
X78251921Y-75569509D01*
X78250482Y-75559802D01*
X78250000Y-75550000D01*
X78250000Y-75350000D01*
X78250482Y-75340198D01*
X78251921Y-75330491D01*
X78254306Y-75320972D01*
X78257612Y-75311732D01*
X78261808Y-75302860D01*
X78266853Y-75294443D01*
X78272699Y-75286561D01*
X78279289Y-75279289D01*
X78286561Y-75272699D01*
X78294443Y-75266853D01*
X78302860Y-75261808D01*
X78311732Y-75257612D01*
X78320972Y-75254306D01*
X78330491Y-75251921D01*
X78340198Y-75250482D01*
X78350000Y-75250000D01*
X79800000Y-75250000D01*
X79809802Y-75250482D01*
G37*
G36*
X79809802Y-75750482D02*
G01*
X79819509Y-75751921D01*
X79829028Y-75754306D01*
X79838268Y-75757612D01*
X79847140Y-75761808D01*
X79855557Y-75766853D01*
X79863439Y-75772699D01*
X79870711Y-75779289D01*
X79877301Y-75786561D01*
X79883147Y-75794443D01*
X79888192Y-75802860D01*
X79892388Y-75811732D01*
X79895694Y-75820972D01*
X79898079Y-75830491D01*
X79899518Y-75840198D01*
X79900000Y-75850000D01*
X79900000Y-76050000D01*
X79899518Y-76059802D01*
X79898079Y-76069509D01*
X79895694Y-76079028D01*
X79892388Y-76088268D01*
X79888192Y-76097140D01*
X79883147Y-76105557D01*
X79877301Y-76113439D01*
X79870711Y-76120711D01*
X79863439Y-76127301D01*
X79855557Y-76133147D01*
X79847140Y-76138192D01*
X79838268Y-76142388D01*
X79829028Y-76145694D01*
X79819509Y-76148079D01*
X79809802Y-76149518D01*
X79800000Y-76150000D01*
X78350000Y-76150000D01*
X78340198Y-76149518D01*
X78330491Y-76148079D01*
X78320972Y-76145694D01*
X78311732Y-76142388D01*
X78302860Y-76138192D01*
X78294443Y-76133147D01*
X78286561Y-76127301D01*
X78279289Y-76120711D01*
X78272699Y-76113439D01*
X78266853Y-76105557D01*
X78261808Y-76097140D01*
X78257612Y-76088268D01*
X78254306Y-76079028D01*
X78251921Y-76069509D01*
X78250482Y-76059802D01*
X78250000Y-76050000D01*
X78250000Y-75850000D01*
X78250482Y-75840198D01*
X78251921Y-75830491D01*
X78254306Y-75820972D01*
X78257612Y-75811732D01*
X78261808Y-75802860D01*
X78266853Y-75794443D01*
X78272699Y-75786561D01*
X78279289Y-75779289D01*
X78286561Y-75772699D01*
X78294443Y-75766853D01*
X78302860Y-75761808D01*
X78311732Y-75757612D01*
X78320972Y-75754306D01*
X78330491Y-75751921D01*
X78340198Y-75750482D01*
X78350000Y-75750000D01*
X79800000Y-75750000D01*
X79809802Y-75750482D01*
G37*
G36*
X79809802Y-76250482D02*
G01*
X79819509Y-76251921D01*
X79829028Y-76254306D01*
X79838268Y-76257612D01*
X79847140Y-76261808D01*
X79855557Y-76266853D01*
X79863439Y-76272699D01*
X79870711Y-76279289D01*
X79877301Y-76286561D01*
X79883147Y-76294443D01*
X79888192Y-76302860D01*
X79892388Y-76311732D01*
X79895694Y-76320972D01*
X79898079Y-76330491D01*
X79899518Y-76340198D01*
X79900000Y-76350000D01*
X79900000Y-76550000D01*
X79899518Y-76559802D01*
X79898079Y-76569509D01*
X79895694Y-76579028D01*
X79892388Y-76588268D01*
X79888192Y-76597140D01*
X79883147Y-76605557D01*
X79877301Y-76613439D01*
X79870711Y-76620711D01*
X79863439Y-76627301D01*
X79855557Y-76633147D01*
X79847140Y-76638192D01*
X79838268Y-76642388D01*
X79829028Y-76645694D01*
X79819509Y-76648079D01*
X79809802Y-76649518D01*
X79800000Y-76650000D01*
X78350000Y-76650000D01*
X78340198Y-76649518D01*
X78330491Y-76648079D01*
X78320972Y-76645694D01*
X78311732Y-76642388D01*
X78302860Y-76638192D01*
X78294443Y-76633147D01*
X78286561Y-76627301D01*
X78279289Y-76620711D01*
X78272699Y-76613439D01*
X78266853Y-76605557D01*
X78261808Y-76597140D01*
X78257612Y-76588268D01*
X78254306Y-76579028D01*
X78251921Y-76569509D01*
X78250482Y-76559802D01*
X78250000Y-76550000D01*
X78250000Y-76350000D01*
X78250482Y-76340198D01*
X78251921Y-76330491D01*
X78254306Y-76320972D01*
X78257612Y-76311732D01*
X78261808Y-76302860D01*
X78266853Y-76294443D01*
X78272699Y-76286561D01*
X78279289Y-76279289D01*
X78286561Y-76272699D01*
X78294443Y-76266853D01*
X78302860Y-76261808D01*
X78311732Y-76257612D01*
X78320972Y-76254306D01*
X78330491Y-76251921D01*
X78340198Y-76250482D01*
X78350000Y-76250000D01*
X79800000Y-76250000D01*
X79809802Y-76250482D01*
G37*
G36*
X79809802Y-76750482D02*
G01*
X79819509Y-76751921D01*
X79829028Y-76754306D01*
X79838268Y-76757612D01*
X79847140Y-76761808D01*
X79855557Y-76766853D01*
X79863439Y-76772699D01*
X79870711Y-76779289D01*
X79877301Y-76786561D01*
X79883147Y-76794443D01*
X79888192Y-76802860D01*
X79892388Y-76811732D01*
X79895694Y-76820972D01*
X79898079Y-76830491D01*
X79899518Y-76840198D01*
X79900000Y-76850000D01*
X79900000Y-77050000D01*
X79899518Y-77059802D01*
X79898079Y-77069509D01*
X79895694Y-77079028D01*
X79892388Y-77088268D01*
X79888192Y-77097140D01*
X79883147Y-77105557D01*
X79877301Y-77113439D01*
X79870711Y-77120711D01*
X79863439Y-77127301D01*
X79855557Y-77133147D01*
X79847140Y-77138192D01*
X79838268Y-77142388D01*
X79829028Y-77145694D01*
X79819509Y-77148079D01*
X79809802Y-77149518D01*
X79800000Y-77150000D01*
X78350000Y-77150000D01*
X78340198Y-77149518D01*
X78330491Y-77148079D01*
X78320972Y-77145694D01*
X78311732Y-77142388D01*
X78302860Y-77138192D01*
X78294443Y-77133147D01*
X78286561Y-77127301D01*
X78279289Y-77120711D01*
X78272699Y-77113439D01*
X78266853Y-77105557D01*
X78261808Y-77097140D01*
X78257612Y-77088268D01*
X78254306Y-77079028D01*
X78251921Y-77069509D01*
X78250482Y-77059802D01*
X78250000Y-77050000D01*
X78250000Y-76850000D01*
X78250482Y-76840198D01*
X78251921Y-76830491D01*
X78254306Y-76820972D01*
X78257612Y-76811732D01*
X78261808Y-76802860D01*
X78266853Y-76794443D01*
X78272699Y-76786561D01*
X78279289Y-76779289D01*
X78286561Y-76772699D01*
X78294443Y-76766853D01*
X78302860Y-76761808D01*
X78311732Y-76757612D01*
X78320972Y-76754306D01*
X78330491Y-76751921D01*
X78340198Y-76750482D01*
X78350000Y-76750000D01*
X79800000Y-76750000D01*
X79809802Y-76750482D01*
G37*
G36*
X79809802Y-77250482D02*
G01*
X79819509Y-77251921D01*
X79829028Y-77254306D01*
X79838268Y-77257612D01*
X79847140Y-77261808D01*
X79855557Y-77266853D01*
X79863439Y-77272699D01*
X79870711Y-77279289D01*
X79877301Y-77286561D01*
X79883147Y-77294443D01*
X79888192Y-77302860D01*
X79892388Y-77311732D01*
X79895694Y-77320972D01*
X79898079Y-77330491D01*
X79899518Y-77340198D01*
X79900000Y-77350000D01*
X79900000Y-77550000D01*
X79899518Y-77559802D01*
X79898079Y-77569509D01*
X79895694Y-77579028D01*
X79892388Y-77588268D01*
X79888192Y-77597140D01*
X79883147Y-77605557D01*
X79877301Y-77613439D01*
X79870711Y-77620711D01*
X79863439Y-77627301D01*
X79855557Y-77633147D01*
X79847140Y-77638192D01*
X79838268Y-77642388D01*
X79829028Y-77645694D01*
X79819509Y-77648079D01*
X79809802Y-77649518D01*
X79800000Y-77650000D01*
X78350000Y-77650000D01*
X78340198Y-77649518D01*
X78330491Y-77648079D01*
X78320972Y-77645694D01*
X78311732Y-77642388D01*
X78302860Y-77638192D01*
X78294443Y-77633147D01*
X78286561Y-77627301D01*
X78279289Y-77620711D01*
X78272699Y-77613439D01*
X78266853Y-77605557D01*
X78261808Y-77597140D01*
X78257612Y-77588268D01*
X78254306Y-77579028D01*
X78251921Y-77569509D01*
X78250482Y-77559802D01*
X78250000Y-77550000D01*
X78250000Y-77350000D01*
X78250482Y-77340198D01*
X78251921Y-77330491D01*
X78254306Y-77320972D01*
X78257612Y-77311732D01*
X78261808Y-77302860D01*
X78266853Y-77294443D01*
X78272699Y-77286561D01*
X78279289Y-77279289D01*
X78286561Y-77272699D01*
X78294443Y-77266853D01*
X78302860Y-77261808D01*
X78311732Y-77257612D01*
X78320972Y-77254306D01*
X78330491Y-77251921D01*
X78340198Y-77250482D01*
X78350000Y-77250000D01*
X79800000Y-77250000D01*
X79809802Y-77250482D01*
G37*
G36*
X79809802Y-77750482D02*
G01*
X79819509Y-77751921D01*
X79829028Y-77754306D01*
X79838268Y-77757612D01*
X79847140Y-77761808D01*
X79855557Y-77766853D01*
X79863439Y-77772699D01*
X79870711Y-77779289D01*
X79877301Y-77786561D01*
X79883147Y-77794443D01*
X79888192Y-77802860D01*
X79892388Y-77811732D01*
X79895694Y-77820972D01*
X79898079Y-77830491D01*
X79899518Y-77840198D01*
X79900000Y-77850000D01*
X79900000Y-78050000D01*
X79899518Y-78059802D01*
X79898079Y-78069509D01*
X79895694Y-78079028D01*
X79892388Y-78088268D01*
X79888192Y-78097140D01*
X79883147Y-78105557D01*
X79877301Y-78113439D01*
X79870711Y-78120711D01*
X79863439Y-78127301D01*
X79855557Y-78133147D01*
X79847140Y-78138192D01*
X79838268Y-78142388D01*
X79829028Y-78145694D01*
X79819509Y-78148079D01*
X79809802Y-78149518D01*
X79800000Y-78150000D01*
X78350000Y-78150000D01*
X78340198Y-78149518D01*
X78330491Y-78148079D01*
X78320972Y-78145694D01*
X78311732Y-78142388D01*
X78302860Y-78138192D01*
X78294443Y-78133147D01*
X78286561Y-78127301D01*
X78279289Y-78120711D01*
X78272699Y-78113439D01*
X78266853Y-78105557D01*
X78261808Y-78097140D01*
X78257612Y-78088268D01*
X78254306Y-78079028D01*
X78251921Y-78069509D01*
X78250482Y-78059802D01*
X78250000Y-78050000D01*
X78250000Y-77850000D01*
X78250482Y-77840198D01*
X78251921Y-77830491D01*
X78254306Y-77820972D01*
X78257612Y-77811732D01*
X78261808Y-77802860D01*
X78266853Y-77794443D01*
X78272699Y-77786561D01*
X78279289Y-77779289D01*
X78286561Y-77772699D01*
X78294443Y-77766853D01*
X78302860Y-77761808D01*
X78311732Y-77757612D01*
X78320972Y-77754306D01*
X78330491Y-77751921D01*
X78340198Y-77750482D01*
X78350000Y-77750000D01*
X79800000Y-77750000D01*
X79809802Y-77750482D01*
G37*
G36*
X79809802Y-78250482D02*
G01*
X79819509Y-78251921D01*
X79829028Y-78254306D01*
X79838268Y-78257612D01*
X79847140Y-78261808D01*
X79855557Y-78266853D01*
X79863439Y-78272699D01*
X79870711Y-78279289D01*
X79877301Y-78286561D01*
X79883147Y-78294443D01*
X79888192Y-78302860D01*
X79892388Y-78311732D01*
X79895694Y-78320972D01*
X79898079Y-78330491D01*
X79899518Y-78340198D01*
X79900000Y-78350000D01*
X79900000Y-78550000D01*
X79899518Y-78559802D01*
X79898079Y-78569509D01*
X79895694Y-78579028D01*
X79892388Y-78588268D01*
X79888192Y-78597140D01*
X79883147Y-78605557D01*
X79877301Y-78613439D01*
X79870711Y-78620711D01*
X79863439Y-78627301D01*
X79855557Y-78633147D01*
X79847140Y-78638192D01*
X79838268Y-78642388D01*
X79829028Y-78645694D01*
X79819509Y-78648079D01*
X79809802Y-78649518D01*
X79800000Y-78650000D01*
X78350000Y-78650000D01*
X78340198Y-78649518D01*
X78330491Y-78648079D01*
X78320972Y-78645694D01*
X78311732Y-78642388D01*
X78302860Y-78638192D01*
X78294443Y-78633147D01*
X78286561Y-78627301D01*
X78279289Y-78620711D01*
X78272699Y-78613439D01*
X78266853Y-78605557D01*
X78261808Y-78597140D01*
X78257612Y-78588268D01*
X78254306Y-78579028D01*
X78251921Y-78569509D01*
X78250482Y-78559802D01*
X78250000Y-78550000D01*
X78250000Y-78350000D01*
X78250482Y-78340198D01*
X78251921Y-78330491D01*
X78254306Y-78320972D01*
X78257612Y-78311732D01*
X78261808Y-78302860D01*
X78266853Y-78294443D01*
X78272699Y-78286561D01*
X78279289Y-78279289D01*
X78286561Y-78272699D01*
X78294443Y-78266853D01*
X78302860Y-78261808D01*
X78311732Y-78257612D01*
X78320972Y-78254306D01*
X78330491Y-78251921D01*
X78340198Y-78250482D01*
X78350000Y-78250000D01*
X79800000Y-78250000D01*
X79809802Y-78250482D01*
G37*
D11*
X61595000Y-78232000D03*
D12*
X61595000Y-80772000D03*
X61595000Y-83312000D03*
D13*
G36*
X81141142Y-74787174D02*
G01*
X81164803Y-74790684D01*
X81188007Y-74796496D01*
X81210529Y-74804554D01*
X81232153Y-74814782D01*
X81252670Y-74827079D01*
X81271883Y-74841329D01*
X81289607Y-74857393D01*
X81305671Y-74875117D01*
X81319921Y-74894330D01*
X81332218Y-74914847D01*
X81342446Y-74936471D01*
X81350504Y-74958993D01*
X81356316Y-74982197D01*
X81359826Y-75005858D01*
X81361000Y-75029750D01*
X81361000Y-75592250D01*
X81359826Y-75616142D01*
X81356316Y-75639803D01*
X81350504Y-75663007D01*
X81342446Y-75685529D01*
X81332218Y-75707153D01*
X81319921Y-75727670D01*
X81305671Y-75746883D01*
X81289607Y-75764607D01*
X81271883Y-75780671D01*
X81252670Y-75794921D01*
X81232153Y-75807218D01*
X81210529Y-75817446D01*
X81188007Y-75825504D01*
X81164803Y-75831316D01*
X81141142Y-75834826D01*
X81117250Y-75836000D01*
X80629750Y-75836000D01*
X80605858Y-75834826D01*
X80582197Y-75831316D01*
X80558993Y-75825504D01*
X80536471Y-75817446D01*
X80514847Y-75807218D01*
X80494330Y-75794921D01*
X80475117Y-75780671D01*
X80457393Y-75764607D01*
X80441329Y-75746883D01*
X80427079Y-75727670D01*
X80414782Y-75707153D01*
X80404554Y-75685529D01*
X80396496Y-75663007D01*
X80390684Y-75639803D01*
X80387174Y-75616142D01*
X80386000Y-75592250D01*
X80386000Y-75029750D01*
X80387174Y-75005858D01*
X80390684Y-74982197D01*
X80396496Y-74958993D01*
X80404554Y-74936471D01*
X80414782Y-74914847D01*
X80427079Y-74894330D01*
X80441329Y-74875117D01*
X80457393Y-74857393D01*
X80475117Y-74841329D01*
X80494330Y-74827079D01*
X80514847Y-74814782D01*
X80536471Y-74804554D01*
X80558993Y-74796496D01*
X80582197Y-74790684D01*
X80605858Y-74787174D01*
X80629750Y-74786000D01*
X81117250Y-74786000D01*
X81141142Y-74787174D01*
G37*
G36*
X82716142Y-74787174D02*
G01*
X82739803Y-74790684D01*
X82763007Y-74796496D01*
X82785529Y-74804554D01*
X82807153Y-74814782D01*
X82827670Y-74827079D01*
X82846883Y-74841329D01*
X82864607Y-74857393D01*
X82880671Y-74875117D01*
X82894921Y-74894330D01*
X82907218Y-74914847D01*
X82917446Y-74936471D01*
X82925504Y-74958993D01*
X82931316Y-74982197D01*
X82934826Y-75005858D01*
X82936000Y-75029750D01*
X82936000Y-75592250D01*
X82934826Y-75616142D01*
X82931316Y-75639803D01*
X82925504Y-75663007D01*
X82917446Y-75685529D01*
X82907218Y-75707153D01*
X82894921Y-75727670D01*
X82880671Y-75746883D01*
X82864607Y-75764607D01*
X82846883Y-75780671D01*
X82827670Y-75794921D01*
X82807153Y-75807218D01*
X82785529Y-75817446D01*
X82763007Y-75825504D01*
X82739803Y-75831316D01*
X82716142Y-75834826D01*
X82692250Y-75836000D01*
X82204750Y-75836000D01*
X82180858Y-75834826D01*
X82157197Y-75831316D01*
X82133993Y-75825504D01*
X82111471Y-75817446D01*
X82089847Y-75807218D01*
X82069330Y-75794921D01*
X82050117Y-75780671D01*
X82032393Y-75764607D01*
X82016329Y-75746883D01*
X82002079Y-75727670D01*
X81989782Y-75707153D01*
X81979554Y-75685529D01*
X81971496Y-75663007D01*
X81965684Y-75639803D01*
X81962174Y-75616142D01*
X81961000Y-75592250D01*
X81961000Y-75029750D01*
X81962174Y-75005858D01*
X81965684Y-74982197D01*
X81971496Y-74958993D01*
X81979554Y-74936471D01*
X81989782Y-74914847D01*
X82002079Y-74894330D01*
X82016329Y-74875117D01*
X82032393Y-74857393D01*
X82050117Y-74841329D01*
X82069330Y-74827079D01*
X82089847Y-74814782D01*
X82111471Y-74804554D01*
X82133993Y-74796496D01*
X82157197Y-74790684D01*
X82180858Y-74787174D01*
X82204750Y-74786000D01*
X82692250Y-74786000D01*
X82716142Y-74787174D01*
G37*
G36*
X71044142Y-81657174D02*
G01*
X71067803Y-81660684D01*
X71091007Y-81666496D01*
X71113529Y-81674554D01*
X71135153Y-81684782D01*
X71155670Y-81697079D01*
X71174883Y-81711329D01*
X71192607Y-81727393D01*
X71208671Y-81745117D01*
X71222921Y-81764330D01*
X71235218Y-81784847D01*
X71245446Y-81806471D01*
X71253504Y-81828993D01*
X71259316Y-81852197D01*
X71262826Y-81875858D01*
X71264000Y-81899750D01*
X71264000Y-82387250D01*
X71262826Y-82411142D01*
X71259316Y-82434803D01*
X71253504Y-82458007D01*
X71245446Y-82480529D01*
X71235218Y-82502153D01*
X71222921Y-82522670D01*
X71208671Y-82541883D01*
X71192607Y-82559607D01*
X71174883Y-82575671D01*
X71155670Y-82589921D01*
X71135153Y-82602218D01*
X71113529Y-82612446D01*
X71091007Y-82620504D01*
X71067803Y-82626316D01*
X71044142Y-82629826D01*
X71020250Y-82631000D01*
X70457750Y-82631000D01*
X70433858Y-82629826D01*
X70410197Y-82626316D01*
X70386993Y-82620504D01*
X70364471Y-82612446D01*
X70342847Y-82602218D01*
X70322330Y-82589921D01*
X70303117Y-82575671D01*
X70285393Y-82559607D01*
X70269329Y-82541883D01*
X70255079Y-82522670D01*
X70242782Y-82502153D01*
X70232554Y-82480529D01*
X70224496Y-82458007D01*
X70218684Y-82434803D01*
X70215174Y-82411142D01*
X70214000Y-82387250D01*
X70214000Y-81899750D01*
X70215174Y-81875858D01*
X70218684Y-81852197D01*
X70224496Y-81828993D01*
X70232554Y-81806471D01*
X70242782Y-81784847D01*
X70255079Y-81764330D01*
X70269329Y-81745117D01*
X70285393Y-81727393D01*
X70303117Y-81711329D01*
X70322330Y-81697079D01*
X70342847Y-81684782D01*
X70364471Y-81674554D01*
X70386993Y-81666496D01*
X70410197Y-81660684D01*
X70433858Y-81657174D01*
X70457750Y-81656000D01*
X71020250Y-81656000D01*
X71044142Y-81657174D01*
G37*
G36*
X71044142Y-83232174D02*
G01*
X71067803Y-83235684D01*
X71091007Y-83241496D01*
X71113529Y-83249554D01*
X71135153Y-83259782D01*
X71155670Y-83272079D01*
X71174883Y-83286329D01*
X71192607Y-83302393D01*
X71208671Y-83320117D01*
X71222921Y-83339330D01*
X71235218Y-83359847D01*
X71245446Y-83381471D01*
X71253504Y-83403993D01*
X71259316Y-83427197D01*
X71262826Y-83450858D01*
X71264000Y-83474750D01*
X71264000Y-83962250D01*
X71262826Y-83986142D01*
X71259316Y-84009803D01*
X71253504Y-84033007D01*
X71245446Y-84055529D01*
X71235218Y-84077153D01*
X71222921Y-84097670D01*
X71208671Y-84116883D01*
X71192607Y-84134607D01*
X71174883Y-84150671D01*
X71155670Y-84164921D01*
X71135153Y-84177218D01*
X71113529Y-84187446D01*
X71091007Y-84195504D01*
X71067803Y-84201316D01*
X71044142Y-84204826D01*
X71020250Y-84206000D01*
X70457750Y-84206000D01*
X70433858Y-84204826D01*
X70410197Y-84201316D01*
X70386993Y-84195504D01*
X70364471Y-84187446D01*
X70342847Y-84177218D01*
X70322330Y-84164921D01*
X70303117Y-84150671D01*
X70285393Y-84134607D01*
X70269329Y-84116883D01*
X70255079Y-84097670D01*
X70242782Y-84077153D01*
X70232554Y-84055529D01*
X70224496Y-84033007D01*
X70218684Y-84009803D01*
X70215174Y-83986142D01*
X70214000Y-83962250D01*
X70214000Y-83474750D01*
X70215174Y-83450858D01*
X70218684Y-83427197D01*
X70224496Y-83403993D01*
X70232554Y-83381471D01*
X70242782Y-83359847D01*
X70255079Y-83339330D01*
X70269329Y-83320117D01*
X70285393Y-83302393D01*
X70303117Y-83286329D01*
X70322330Y-83272079D01*
X70342847Y-83259782D01*
X70364471Y-83249554D01*
X70386993Y-83241496D01*
X70410197Y-83235684D01*
X70433858Y-83232174D01*
X70457750Y-83231000D01*
X71020250Y-83231000D01*
X71044142Y-83232174D01*
G37*
G36*
X70205142Y-66722674D02*
G01*
X70228803Y-66726184D01*
X70252007Y-66731996D01*
X70274529Y-66740054D01*
X70296153Y-66750282D01*
X70316670Y-66762579D01*
X70335883Y-66776829D01*
X70353607Y-66792893D01*
X70369671Y-66810617D01*
X70383921Y-66829830D01*
X70396218Y-66850347D01*
X70406446Y-66871971D01*
X70414504Y-66894493D01*
X70420316Y-66917697D01*
X70423826Y-66941358D01*
X70425000Y-66965250D01*
X70425000Y-67527750D01*
X70423826Y-67551642D01*
X70420316Y-67575303D01*
X70414504Y-67598507D01*
X70406446Y-67621029D01*
X70396218Y-67642653D01*
X70383921Y-67663170D01*
X70369671Y-67682383D01*
X70353607Y-67700107D01*
X70335883Y-67716171D01*
X70316670Y-67730421D01*
X70296153Y-67742718D01*
X70274529Y-67752946D01*
X70252007Y-67761004D01*
X70228803Y-67766816D01*
X70205142Y-67770326D01*
X70181250Y-67771500D01*
X69693750Y-67771500D01*
X69669858Y-67770326D01*
X69646197Y-67766816D01*
X69622993Y-67761004D01*
X69600471Y-67752946D01*
X69578847Y-67742718D01*
X69558330Y-67730421D01*
X69539117Y-67716171D01*
X69521393Y-67700107D01*
X69505329Y-67682383D01*
X69491079Y-67663170D01*
X69478782Y-67642653D01*
X69468554Y-67621029D01*
X69460496Y-67598507D01*
X69454684Y-67575303D01*
X69451174Y-67551642D01*
X69450000Y-67527750D01*
X69450000Y-66965250D01*
X69451174Y-66941358D01*
X69454684Y-66917697D01*
X69460496Y-66894493D01*
X69468554Y-66871971D01*
X69478782Y-66850347D01*
X69491079Y-66829830D01*
X69505329Y-66810617D01*
X69521393Y-66792893D01*
X69539117Y-66776829D01*
X69558330Y-66762579D01*
X69578847Y-66750282D01*
X69600471Y-66740054D01*
X69622993Y-66731996D01*
X69646197Y-66726184D01*
X69669858Y-66722674D01*
X69693750Y-66721500D01*
X70181250Y-66721500D01*
X70205142Y-66722674D01*
G37*
G36*
X68630142Y-66722674D02*
G01*
X68653803Y-66726184D01*
X68677007Y-66731996D01*
X68699529Y-66740054D01*
X68721153Y-66750282D01*
X68741670Y-66762579D01*
X68760883Y-66776829D01*
X68778607Y-66792893D01*
X68794671Y-66810617D01*
X68808921Y-66829830D01*
X68821218Y-66850347D01*
X68831446Y-66871971D01*
X68839504Y-66894493D01*
X68845316Y-66917697D01*
X68848826Y-66941358D01*
X68850000Y-66965250D01*
X68850000Y-67527750D01*
X68848826Y-67551642D01*
X68845316Y-67575303D01*
X68839504Y-67598507D01*
X68831446Y-67621029D01*
X68821218Y-67642653D01*
X68808921Y-67663170D01*
X68794671Y-67682383D01*
X68778607Y-67700107D01*
X68760883Y-67716171D01*
X68741670Y-67730421D01*
X68721153Y-67742718D01*
X68699529Y-67752946D01*
X68677007Y-67761004D01*
X68653803Y-67766816D01*
X68630142Y-67770326D01*
X68606250Y-67771500D01*
X68118750Y-67771500D01*
X68094858Y-67770326D01*
X68071197Y-67766816D01*
X68047993Y-67761004D01*
X68025471Y-67752946D01*
X68003847Y-67742718D01*
X67983330Y-67730421D01*
X67964117Y-67716171D01*
X67946393Y-67700107D01*
X67930329Y-67682383D01*
X67916079Y-67663170D01*
X67903782Y-67642653D01*
X67893554Y-67621029D01*
X67885496Y-67598507D01*
X67879684Y-67575303D01*
X67876174Y-67551642D01*
X67875000Y-67527750D01*
X67875000Y-66965250D01*
X67876174Y-66941358D01*
X67879684Y-66917697D01*
X67885496Y-66894493D01*
X67893554Y-66871971D01*
X67903782Y-66850347D01*
X67916079Y-66829830D01*
X67930329Y-66810617D01*
X67946393Y-66792893D01*
X67964117Y-66776829D01*
X67983330Y-66762579D01*
X68003847Y-66750282D01*
X68025471Y-66740054D01*
X68047993Y-66731996D01*
X68071197Y-66726184D01*
X68094858Y-66722674D01*
X68118750Y-66721500D01*
X68606250Y-66721500D01*
X68630142Y-66722674D01*
G37*
G36*
X81141142Y-72437674D02*
G01*
X81164803Y-72441184D01*
X81188007Y-72446996D01*
X81210529Y-72455054D01*
X81232153Y-72465282D01*
X81252670Y-72477579D01*
X81271883Y-72491829D01*
X81289607Y-72507893D01*
X81305671Y-72525617D01*
X81319921Y-72544830D01*
X81332218Y-72565347D01*
X81342446Y-72586971D01*
X81350504Y-72609493D01*
X81356316Y-72632697D01*
X81359826Y-72656358D01*
X81361000Y-72680250D01*
X81361000Y-73242750D01*
X81359826Y-73266642D01*
X81356316Y-73290303D01*
X81350504Y-73313507D01*
X81342446Y-73336029D01*
X81332218Y-73357653D01*
X81319921Y-73378170D01*
X81305671Y-73397383D01*
X81289607Y-73415107D01*
X81271883Y-73431171D01*
X81252670Y-73445421D01*
X81232153Y-73457718D01*
X81210529Y-73467946D01*
X81188007Y-73476004D01*
X81164803Y-73481816D01*
X81141142Y-73485326D01*
X81117250Y-73486500D01*
X80629750Y-73486500D01*
X80605858Y-73485326D01*
X80582197Y-73481816D01*
X80558993Y-73476004D01*
X80536471Y-73467946D01*
X80514847Y-73457718D01*
X80494330Y-73445421D01*
X80475117Y-73431171D01*
X80457393Y-73415107D01*
X80441329Y-73397383D01*
X80427079Y-73378170D01*
X80414782Y-73357653D01*
X80404554Y-73336029D01*
X80396496Y-73313507D01*
X80390684Y-73290303D01*
X80387174Y-73266642D01*
X80386000Y-73242750D01*
X80386000Y-72680250D01*
X80387174Y-72656358D01*
X80390684Y-72632697D01*
X80396496Y-72609493D01*
X80404554Y-72586971D01*
X80414782Y-72565347D01*
X80427079Y-72544830D01*
X80441329Y-72525617D01*
X80457393Y-72507893D01*
X80475117Y-72491829D01*
X80494330Y-72477579D01*
X80514847Y-72465282D01*
X80536471Y-72455054D01*
X80558993Y-72446996D01*
X80582197Y-72441184D01*
X80605858Y-72437674D01*
X80629750Y-72436500D01*
X81117250Y-72436500D01*
X81141142Y-72437674D01*
G37*
G36*
X82716142Y-72437674D02*
G01*
X82739803Y-72441184D01*
X82763007Y-72446996D01*
X82785529Y-72455054D01*
X82807153Y-72465282D01*
X82827670Y-72477579D01*
X82846883Y-72491829D01*
X82864607Y-72507893D01*
X82880671Y-72525617D01*
X82894921Y-72544830D01*
X82907218Y-72565347D01*
X82917446Y-72586971D01*
X82925504Y-72609493D01*
X82931316Y-72632697D01*
X82934826Y-72656358D01*
X82936000Y-72680250D01*
X82936000Y-73242750D01*
X82934826Y-73266642D01*
X82931316Y-73290303D01*
X82925504Y-73313507D01*
X82917446Y-73336029D01*
X82907218Y-73357653D01*
X82894921Y-73378170D01*
X82880671Y-73397383D01*
X82864607Y-73415107D01*
X82846883Y-73431171D01*
X82827670Y-73445421D01*
X82807153Y-73457718D01*
X82785529Y-73467946D01*
X82763007Y-73476004D01*
X82739803Y-73481816D01*
X82716142Y-73485326D01*
X82692250Y-73486500D01*
X82204750Y-73486500D01*
X82180858Y-73485326D01*
X82157197Y-73481816D01*
X82133993Y-73476004D01*
X82111471Y-73467946D01*
X82089847Y-73457718D01*
X82069330Y-73445421D01*
X82050117Y-73431171D01*
X82032393Y-73415107D01*
X82016329Y-73397383D01*
X82002079Y-73378170D01*
X81989782Y-73357653D01*
X81979554Y-73336029D01*
X81971496Y-73313507D01*
X81965684Y-73290303D01*
X81962174Y-73266642D01*
X81961000Y-73242750D01*
X81961000Y-72680250D01*
X81962174Y-72656358D01*
X81965684Y-72632697D01*
X81971496Y-72609493D01*
X81979554Y-72586971D01*
X81989782Y-72565347D01*
X82002079Y-72544830D01*
X82016329Y-72525617D01*
X82032393Y-72507893D01*
X82050117Y-72491829D01*
X82069330Y-72477579D01*
X82089847Y-72465282D01*
X82111471Y-72455054D01*
X82133993Y-72446996D01*
X82157197Y-72441184D01*
X82180858Y-72437674D01*
X82204750Y-72436500D01*
X82692250Y-72436500D01*
X82716142Y-72437674D01*
G37*
G36*
X78588642Y-66278174D02*
G01*
X78612303Y-66281684D01*
X78635507Y-66287496D01*
X78658029Y-66295554D01*
X78679653Y-66305782D01*
X78700170Y-66318079D01*
X78719383Y-66332329D01*
X78737107Y-66348393D01*
X78753171Y-66366117D01*
X78767421Y-66385330D01*
X78779718Y-66405847D01*
X78789946Y-66427471D01*
X78798004Y-66449993D01*
X78803816Y-66473197D01*
X78807326Y-66496858D01*
X78808500Y-66520750D01*
X78808500Y-67083250D01*
X78807326Y-67107142D01*
X78803816Y-67130803D01*
X78798004Y-67154007D01*
X78789946Y-67176529D01*
X78779718Y-67198153D01*
X78767421Y-67218670D01*
X78753171Y-67237883D01*
X78737107Y-67255607D01*
X78719383Y-67271671D01*
X78700170Y-67285921D01*
X78679653Y-67298218D01*
X78658029Y-67308446D01*
X78635507Y-67316504D01*
X78612303Y-67322316D01*
X78588642Y-67325826D01*
X78564750Y-67327000D01*
X78077250Y-67327000D01*
X78053358Y-67325826D01*
X78029697Y-67322316D01*
X78006493Y-67316504D01*
X77983971Y-67308446D01*
X77962347Y-67298218D01*
X77941830Y-67285921D01*
X77922617Y-67271671D01*
X77904893Y-67255607D01*
X77888829Y-67237883D01*
X77874579Y-67218670D01*
X77862282Y-67198153D01*
X77852054Y-67176529D01*
X77843996Y-67154007D01*
X77838184Y-67130803D01*
X77834674Y-67107142D01*
X77833500Y-67083250D01*
X77833500Y-66520750D01*
X77834674Y-66496858D01*
X77838184Y-66473197D01*
X77843996Y-66449993D01*
X77852054Y-66427471D01*
X77862282Y-66405847D01*
X77874579Y-66385330D01*
X77888829Y-66366117D01*
X77904893Y-66348393D01*
X77922617Y-66332329D01*
X77941830Y-66318079D01*
X77962347Y-66305782D01*
X77983971Y-66295554D01*
X78006493Y-66287496D01*
X78029697Y-66281684D01*
X78053358Y-66278174D01*
X78077250Y-66277000D01*
X78564750Y-66277000D01*
X78588642Y-66278174D01*
G37*
G36*
X77013642Y-66278174D02*
G01*
X77037303Y-66281684D01*
X77060507Y-66287496D01*
X77083029Y-66295554D01*
X77104653Y-66305782D01*
X77125170Y-66318079D01*
X77144383Y-66332329D01*
X77162107Y-66348393D01*
X77178171Y-66366117D01*
X77192421Y-66385330D01*
X77204718Y-66405847D01*
X77214946Y-66427471D01*
X77223004Y-66449993D01*
X77228816Y-66473197D01*
X77232326Y-66496858D01*
X77233500Y-66520750D01*
X77233500Y-67083250D01*
X77232326Y-67107142D01*
X77228816Y-67130803D01*
X77223004Y-67154007D01*
X77214946Y-67176529D01*
X77204718Y-67198153D01*
X77192421Y-67218670D01*
X77178171Y-67237883D01*
X77162107Y-67255607D01*
X77144383Y-67271671D01*
X77125170Y-67285921D01*
X77104653Y-67298218D01*
X77083029Y-67308446D01*
X77060507Y-67316504D01*
X77037303Y-67322316D01*
X77013642Y-67325826D01*
X76989750Y-67327000D01*
X76502250Y-67327000D01*
X76478358Y-67325826D01*
X76454697Y-67322316D01*
X76431493Y-67316504D01*
X76408971Y-67308446D01*
X76387347Y-67298218D01*
X76366830Y-67285921D01*
X76347617Y-67271671D01*
X76329893Y-67255607D01*
X76313829Y-67237883D01*
X76299579Y-67218670D01*
X76287282Y-67198153D01*
X76277054Y-67176529D01*
X76268996Y-67154007D01*
X76263184Y-67130803D01*
X76259674Y-67107142D01*
X76258500Y-67083250D01*
X76258500Y-66520750D01*
X76259674Y-66496858D01*
X76263184Y-66473197D01*
X76268996Y-66449993D01*
X76277054Y-66427471D01*
X76287282Y-66405847D01*
X76299579Y-66385330D01*
X76313829Y-66366117D01*
X76329893Y-66348393D01*
X76347617Y-66332329D01*
X76366830Y-66318079D01*
X76387347Y-66305782D01*
X76408971Y-66295554D01*
X76431493Y-66287496D01*
X76454697Y-66281684D01*
X76478358Y-66278174D01*
X76502250Y-66277000D01*
X76989750Y-66277000D01*
X77013642Y-66278174D01*
G37*
G36*
X76620142Y-81645174D02*
G01*
X76643803Y-81648684D01*
X76667007Y-81654496D01*
X76689529Y-81662554D01*
X76711153Y-81672782D01*
X76731670Y-81685079D01*
X76750883Y-81699329D01*
X76768607Y-81715393D01*
X76784671Y-81733117D01*
X76798921Y-81752330D01*
X76811218Y-81772847D01*
X76821446Y-81794471D01*
X76829504Y-81816993D01*
X76835316Y-81840197D01*
X76838826Y-81863858D01*
X76840000Y-81887750D01*
X76840000Y-82450250D01*
X76838826Y-82474142D01*
X76835316Y-82497803D01*
X76829504Y-82521007D01*
X76821446Y-82543529D01*
X76811218Y-82565153D01*
X76798921Y-82585670D01*
X76784671Y-82604883D01*
X76768607Y-82622607D01*
X76750883Y-82638671D01*
X76731670Y-82652921D01*
X76711153Y-82665218D01*
X76689529Y-82675446D01*
X76667007Y-82683504D01*
X76643803Y-82689316D01*
X76620142Y-82692826D01*
X76596250Y-82694000D01*
X76108750Y-82694000D01*
X76084858Y-82692826D01*
X76061197Y-82689316D01*
X76037993Y-82683504D01*
X76015471Y-82675446D01*
X75993847Y-82665218D01*
X75973330Y-82652921D01*
X75954117Y-82638671D01*
X75936393Y-82622607D01*
X75920329Y-82604883D01*
X75906079Y-82585670D01*
X75893782Y-82565153D01*
X75883554Y-82543529D01*
X75875496Y-82521007D01*
X75869684Y-82497803D01*
X75866174Y-82474142D01*
X75865000Y-82450250D01*
X75865000Y-81887750D01*
X75866174Y-81863858D01*
X75869684Y-81840197D01*
X75875496Y-81816993D01*
X75883554Y-81794471D01*
X75893782Y-81772847D01*
X75906079Y-81752330D01*
X75920329Y-81733117D01*
X75936393Y-81715393D01*
X75954117Y-81699329D01*
X75973330Y-81685079D01*
X75993847Y-81672782D01*
X76015471Y-81662554D01*
X76037993Y-81654496D01*
X76061197Y-81648684D01*
X76084858Y-81645174D01*
X76108750Y-81644000D01*
X76596250Y-81644000D01*
X76620142Y-81645174D01*
G37*
G36*
X75045142Y-81645174D02*
G01*
X75068803Y-81648684D01*
X75092007Y-81654496D01*
X75114529Y-81662554D01*
X75136153Y-81672782D01*
X75156670Y-81685079D01*
X75175883Y-81699329D01*
X75193607Y-81715393D01*
X75209671Y-81733117D01*
X75223921Y-81752330D01*
X75236218Y-81772847D01*
X75246446Y-81794471D01*
X75254504Y-81816993D01*
X75260316Y-81840197D01*
X75263826Y-81863858D01*
X75265000Y-81887750D01*
X75265000Y-82450250D01*
X75263826Y-82474142D01*
X75260316Y-82497803D01*
X75254504Y-82521007D01*
X75246446Y-82543529D01*
X75236218Y-82565153D01*
X75223921Y-82585670D01*
X75209671Y-82604883D01*
X75193607Y-82622607D01*
X75175883Y-82638671D01*
X75156670Y-82652921D01*
X75136153Y-82665218D01*
X75114529Y-82675446D01*
X75092007Y-82683504D01*
X75068803Y-82689316D01*
X75045142Y-82692826D01*
X75021250Y-82694000D01*
X74533750Y-82694000D01*
X74509858Y-82692826D01*
X74486197Y-82689316D01*
X74462993Y-82683504D01*
X74440471Y-82675446D01*
X74418847Y-82665218D01*
X74398330Y-82652921D01*
X74379117Y-82638671D01*
X74361393Y-82622607D01*
X74345329Y-82604883D01*
X74331079Y-82585670D01*
X74318782Y-82565153D01*
X74308554Y-82543529D01*
X74300496Y-82521007D01*
X74294684Y-82497803D01*
X74291174Y-82474142D01*
X74290000Y-82450250D01*
X74290000Y-81887750D01*
X74291174Y-81863858D01*
X74294684Y-81840197D01*
X74300496Y-81816993D01*
X74308554Y-81794471D01*
X74318782Y-81772847D01*
X74331079Y-81752330D01*
X74345329Y-81733117D01*
X74361393Y-81715393D01*
X74379117Y-81699329D01*
X74398330Y-81685079D01*
X74418847Y-81672782D01*
X74440471Y-81662554D01*
X74462993Y-81654496D01*
X74486197Y-81648684D01*
X74509858Y-81645174D01*
X74533750Y-81644000D01*
X75021250Y-81644000D01*
X75045142Y-81645174D01*
G37*
G36*
X81204142Y-79777674D02*
G01*
X81227803Y-79781184D01*
X81251007Y-79786996D01*
X81273529Y-79795054D01*
X81295153Y-79805282D01*
X81315670Y-79817579D01*
X81334883Y-79831829D01*
X81352607Y-79847893D01*
X81368671Y-79865617D01*
X81382921Y-79884830D01*
X81395218Y-79905347D01*
X81405446Y-79926971D01*
X81413504Y-79949493D01*
X81419316Y-79972697D01*
X81422826Y-79996358D01*
X81424000Y-80020250D01*
X81424000Y-80507750D01*
X81422826Y-80531642D01*
X81419316Y-80555303D01*
X81413504Y-80578507D01*
X81405446Y-80601029D01*
X81395218Y-80622653D01*
X81382921Y-80643170D01*
X81368671Y-80662383D01*
X81352607Y-80680107D01*
X81334883Y-80696171D01*
X81315670Y-80710421D01*
X81295153Y-80722718D01*
X81273529Y-80732946D01*
X81251007Y-80741004D01*
X81227803Y-80746816D01*
X81204142Y-80750326D01*
X81180250Y-80751500D01*
X80617750Y-80751500D01*
X80593858Y-80750326D01*
X80570197Y-80746816D01*
X80546993Y-80741004D01*
X80524471Y-80732946D01*
X80502847Y-80722718D01*
X80482330Y-80710421D01*
X80463117Y-80696171D01*
X80445393Y-80680107D01*
X80429329Y-80662383D01*
X80415079Y-80643170D01*
X80402782Y-80622653D01*
X80392554Y-80601029D01*
X80384496Y-80578507D01*
X80378684Y-80555303D01*
X80375174Y-80531642D01*
X80374000Y-80507750D01*
X80374000Y-80020250D01*
X80375174Y-79996358D01*
X80378684Y-79972697D01*
X80384496Y-79949493D01*
X80392554Y-79926971D01*
X80402782Y-79905347D01*
X80415079Y-79884830D01*
X80429329Y-79865617D01*
X80445393Y-79847893D01*
X80463117Y-79831829D01*
X80482330Y-79817579D01*
X80502847Y-79805282D01*
X80524471Y-79795054D01*
X80546993Y-79786996D01*
X80570197Y-79781184D01*
X80593858Y-79777674D01*
X80617750Y-79776500D01*
X81180250Y-79776500D01*
X81204142Y-79777674D01*
G37*
G36*
X81204142Y-78202674D02*
G01*
X81227803Y-78206184D01*
X81251007Y-78211996D01*
X81273529Y-78220054D01*
X81295153Y-78230282D01*
X81315670Y-78242579D01*
X81334883Y-78256829D01*
X81352607Y-78272893D01*
X81368671Y-78290617D01*
X81382921Y-78309830D01*
X81395218Y-78330347D01*
X81405446Y-78351971D01*
X81413504Y-78374493D01*
X81419316Y-78397697D01*
X81422826Y-78421358D01*
X81424000Y-78445250D01*
X81424000Y-78932750D01*
X81422826Y-78956642D01*
X81419316Y-78980303D01*
X81413504Y-79003507D01*
X81405446Y-79026029D01*
X81395218Y-79047653D01*
X81382921Y-79068170D01*
X81368671Y-79087383D01*
X81352607Y-79105107D01*
X81334883Y-79121171D01*
X81315670Y-79135421D01*
X81295153Y-79147718D01*
X81273529Y-79157946D01*
X81251007Y-79166004D01*
X81227803Y-79171816D01*
X81204142Y-79175326D01*
X81180250Y-79176500D01*
X80617750Y-79176500D01*
X80593858Y-79175326D01*
X80570197Y-79171816D01*
X80546993Y-79166004D01*
X80524471Y-79157946D01*
X80502847Y-79147718D01*
X80482330Y-79135421D01*
X80463117Y-79121171D01*
X80445393Y-79105107D01*
X80429329Y-79087383D01*
X80415079Y-79068170D01*
X80402782Y-79047653D01*
X80392554Y-79026029D01*
X80384496Y-79003507D01*
X80378684Y-78980303D01*
X80375174Y-78956642D01*
X80374000Y-78932750D01*
X80374000Y-78445250D01*
X80375174Y-78421358D01*
X80378684Y-78397697D01*
X80384496Y-78374493D01*
X80392554Y-78351971D01*
X80402782Y-78330347D01*
X80415079Y-78309830D01*
X80429329Y-78290617D01*
X80445393Y-78272893D01*
X80463117Y-78256829D01*
X80482330Y-78242579D01*
X80502847Y-78230282D01*
X80524471Y-78220054D01*
X80546993Y-78211996D01*
X80570197Y-78206184D01*
X80593858Y-78202674D01*
X80617750Y-78201500D01*
X81180250Y-78201500D01*
X81204142Y-78202674D01*
G37*
G36*
X79680142Y-83232174D02*
G01*
X79703803Y-83235684D01*
X79727007Y-83241496D01*
X79749529Y-83249554D01*
X79771153Y-83259782D01*
X79791670Y-83272079D01*
X79810883Y-83286329D01*
X79828607Y-83302393D01*
X79844671Y-83320117D01*
X79858921Y-83339330D01*
X79871218Y-83359847D01*
X79881446Y-83381471D01*
X79889504Y-83403993D01*
X79895316Y-83427197D01*
X79898826Y-83450858D01*
X79900000Y-83474750D01*
X79900000Y-83962250D01*
X79898826Y-83986142D01*
X79895316Y-84009803D01*
X79889504Y-84033007D01*
X79881446Y-84055529D01*
X79871218Y-84077153D01*
X79858921Y-84097670D01*
X79844671Y-84116883D01*
X79828607Y-84134607D01*
X79810883Y-84150671D01*
X79791670Y-84164921D01*
X79771153Y-84177218D01*
X79749529Y-84187446D01*
X79727007Y-84195504D01*
X79703803Y-84201316D01*
X79680142Y-84204826D01*
X79656250Y-84206000D01*
X79093750Y-84206000D01*
X79069858Y-84204826D01*
X79046197Y-84201316D01*
X79022993Y-84195504D01*
X79000471Y-84187446D01*
X78978847Y-84177218D01*
X78958330Y-84164921D01*
X78939117Y-84150671D01*
X78921393Y-84134607D01*
X78905329Y-84116883D01*
X78891079Y-84097670D01*
X78878782Y-84077153D01*
X78868554Y-84055529D01*
X78860496Y-84033007D01*
X78854684Y-84009803D01*
X78851174Y-83986142D01*
X78850000Y-83962250D01*
X78850000Y-83474750D01*
X78851174Y-83450858D01*
X78854684Y-83427197D01*
X78860496Y-83403993D01*
X78868554Y-83381471D01*
X78878782Y-83359847D01*
X78891079Y-83339330D01*
X78905329Y-83320117D01*
X78921393Y-83302393D01*
X78939117Y-83286329D01*
X78958330Y-83272079D01*
X78978847Y-83259782D01*
X79000471Y-83249554D01*
X79022993Y-83241496D01*
X79046197Y-83235684D01*
X79069858Y-83232174D01*
X79093750Y-83231000D01*
X79656250Y-83231000D01*
X79680142Y-83232174D01*
G37*
G36*
X79680142Y-81657174D02*
G01*
X79703803Y-81660684D01*
X79727007Y-81666496D01*
X79749529Y-81674554D01*
X79771153Y-81684782D01*
X79791670Y-81697079D01*
X79810883Y-81711329D01*
X79828607Y-81727393D01*
X79844671Y-81745117D01*
X79858921Y-81764330D01*
X79871218Y-81784847D01*
X79881446Y-81806471D01*
X79889504Y-81828993D01*
X79895316Y-81852197D01*
X79898826Y-81875858D01*
X79900000Y-81899750D01*
X79900000Y-82387250D01*
X79898826Y-82411142D01*
X79895316Y-82434803D01*
X79889504Y-82458007D01*
X79881446Y-82480529D01*
X79871218Y-82502153D01*
X79858921Y-82522670D01*
X79844671Y-82541883D01*
X79828607Y-82559607D01*
X79810883Y-82575671D01*
X79791670Y-82589921D01*
X79771153Y-82602218D01*
X79749529Y-82612446D01*
X79727007Y-82620504D01*
X79703803Y-82626316D01*
X79680142Y-82629826D01*
X79656250Y-82631000D01*
X79093750Y-82631000D01*
X79069858Y-82629826D01*
X79046197Y-82626316D01*
X79022993Y-82620504D01*
X79000471Y-82612446D01*
X78978847Y-82602218D01*
X78958330Y-82589921D01*
X78939117Y-82575671D01*
X78921393Y-82559607D01*
X78905329Y-82541883D01*
X78891079Y-82522670D01*
X78878782Y-82502153D01*
X78868554Y-82480529D01*
X78860496Y-82458007D01*
X78854684Y-82434803D01*
X78851174Y-82411142D01*
X78850000Y-82387250D01*
X78850000Y-81899750D01*
X78851174Y-81875858D01*
X78854684Y-81852197D01*
X78860496Y-81828993D01*
X78868554Y-81806471D01*
X78878782Y-81784847D01*
X78891079Y-81764330D01*
X78905329Y-81745117D01*
X78921393Y-81727393D01*
X78939117Y-81711329D01*
X78958330Y-81697079D01*
X78978847Y-81684782D01*
X79000471Y-81674554D01*
X79022993Y-81666496D01*
X79046197Y-81660684D01*
X79069858Y-81657174D01*
X79093750Y-81656000D01*
X79656250Y-81656000D01*
X79680142Y-81657174D01*
G37*
G36*
X81204142Y-81657174D02*
G01*
X81227803Y-81660684D01*
X81251007Y-81666496D01*
X81273529Y-81674554D01*
X81295153Y-81684782D01*
X81315670Y-81697079D01*
X81334883Y-81711329D01*
X81352607Y-81727393D01*
X81368671Y-81745117D01*
X81382921Y-81764330D01*
X81395218Y-81784847D01*
X81405446Y-81806471D01*
X81413504Y-81828993D01*
X81419316Y-81852197D01*
X81422826Y-81875858D01*
X81424000Y-81899750D01*
X81424000Y-82387250D01*
X81422826Y-82411142D01*
X81419316Y-82434803D01*
X81413504Y-82458007D01*
X81405446Y-82480529D01*
X81395218Y-82502153D01*
X81382921Y-82522670D01*
X81368671Y-82541883D01*
X81352607Y-82559607D01*
X81334883Y-82575671D01*
X81315670Y-82589921D01*
X81295153Y-82602218D01*
X81273529Y-82612446D01*
X81251007Y-82620504D01*
X81227803Y-82626316D01*
X81204142Y-82629826D01*
X81180250Y-82631000D01*
X80617750Y-82631000D01*
X80593858Y-82629826D01*
X80570197Y-82626316D01*
X80546993Y-82620504D01*
X80524471Y-82612446D01*
X80502847Y-82602218D01*
X80482330Y-82589921D01*
X80463117Y-82575671D01*
X80445393Y-82559607D01*
X80429329Y-82541883D01*
X80415079Y-82522670D01*
X80402782Y-82502153D01*
X80392554Y-82480529D01*
X80384496Y-82458007D01*
X80378684Y-82434803D01*
X80375174Y-82411142D01*
X80374000Y-82387250D01*
X80374000Y-81899750D01*
X80375174Y-81875858D01*
X80378684Y-81852197D01*
X80384496Y-81828993D01*
X80392554Y-81806471D01*
X80402782Y-81784847D01*
X80415079Y-81764330D01*
X80429329Y-81745117D01*
X80445393Y-81727393D01*
X80463117Y-81711329D01*
X80482330Y-81697079D01*
X80502847Y-81684782D01*
X80524471Y-81674554D01*
X80546993Y-81666496D01*
X80570197Y-81660684D01*
X80593858Y-81657174D01*
X80617750Y-81656000D01*
X81180250Y-81656000D01*
X81204142Y-81657174D01*
G37*
G36*
X81204142Y-83232174D02*
G01*
X81227803Y-83235684D01*
X81251007Y-83241496D01*
X81273529Y-83249554D01*
X81295153Y-83259782D01*
X81315670Y-83272079D01*
X81334883Y-83286329D01*
X81352607Y-83302393D01*
X81368671Y-83320117D01*
X81382921Y-83339330D01*
X81395218Y-83359847D01*
X81405446Y-83381471D01*
X81413504Y-83403993D01*
X81419316Y-83427197D01*
X81422826Y-83450858D01*
X81424000Y-83474750D01*
X81424000Y-83962250D01*
X81422826Y-83986142D01*
X81419316Y-84009803D01*
X81413504Y-84033007D01*
X81405446Y-84055529D01*
X81395218Y-84077153D01*
X81382921Y-84097670D01*
X81368671Y-84116883D01*
X81352607Y-84134607D01*
X81334883Y-84150671D01*
X81315670Y-84164921D01*
X81295153Y-84177218D01*
X81273529Y-84187446D01*
X81251007Y-84195504D01*
X81227803Y-84201316D01*
X81204142Y-84204826D01*
X81180250Y-84206000D01*
X80617750Y-84206000D01*
X80593858Y-84204826D01*
X80570197Y-84201316D01*
X80546993Y-84195504D01*
X80524471Y-84187446D01*
X80502847Y-84177218D01*
X80482330Y-84164921D01*
X80463117Y-84150671D01*
X80445393Y-84134607D01*
X80429329Y-84116883D01*
X80415079Y-84097670D01*
X80402782Y-84077153D01*
X80392554Y-84055529D01*
X80384496Y-84033007D01*
X80378684Y-84009803D01*
X80375174Y-83986142D01*
X80374000Y-83962250D01*
X80374000Y-83474750D01*
X80375174Y-83450858D01*
X80378684Y-83427197D01*
X80384496Y-83403993D01*
X80392554Y-83381471D01*
X80402782Y-83359847D01*
X80415079Y-83339330D01*
X80429329Y-83320117D01*
X80445393Y-83302393D01*
X80463117Y-83286329D01*
X80482330Y-83272079D01*
X80502847Y-83259782D01*
X80524471Y-83249554D01*
X80546993Y-83241496D01*
X80570197Y-83235684D01*
X80593858Y-83232174D01*
X80617750Y-83231000D01*
X81180250Y-83231000D01*
X81204142Y-83232174D01*
G37*
G36*
X78156142Y-83232174D02*
G01*
X78179803Y-83235684D01*
X78203007Y-83241496D01*
X78225529Y-83249554D01*
X78247153Y-83259782D01*
X78267670Y-83272079D01*
X78286883Y-83286329D01*
X78304607Y-83302393D01*
X78320671Y-83320117D01*
X78334921Y-83339330D01*
X78347218Y-83359847D01*
X78357446Y-83381471D01*
X78365504Y-83403993D01*
X78371316Y-83427197D01*
X78374826Y-83450858D01*
X78376000Y-83474750D01*
X78376000Y-83962250D01*
X78374826Y-83986142D01*
X78371316Y-84009803D01*
X78365504Y-84033007D01*
X78357446Y-84055529D01*
X78347218Y-84077153D01*
X78334921Y-84097670D01*
X78320671Y-84116883D01*
X78304607Y-84134607D01*
X78286883Y-84150671D01*
X78267670Y-84164921D01*
X78247153Y-84177218D01*
X78225529Y-84187446D01*
X78203007Y-84195504D01*
X78179803Y-84201316D01*
X78156142Y-84204826D01*
X78132250Y-84206000D01*
X77569750Y-84206000D01*
X77545858Y-84204826D01*
X77522197Y-84201316D01*
X77498993Y-84195504D01*
X77476471Y-84187446D01*
X77454847Y-84177218D01*
X77434330Y-84164921D01*
X77415117Y-84150671D01*
X77397393Y-84134607D01*
X77381329Y-84116883D01*
X77367079Y-84097670D01*
X77354782Y-84077153D01*
X77344554Y-84055529D01*
X77336496Y-84033007D01*
X77330684Y-84009803D01*
X77327174Y-83986142D01*
X77326000Y-83962250D01*
X77326000Y-83474750D01*
X77327174Y-83450858D01*
X77330684Y-83427197D01*
X77336496Y-83403993D01*
X77344554Y-83381471D01*
X77354782Y-83359847D01*
X77367079Y-83339330D01*
X77381329Y-83320117D01*
X77397393Y-83302393D01*
X77415117Y-83286329D01*
X77434330Y-83272079D01*
X77454847Y-83259782D01*
X77476471Y-83249554D01*
X77498993Y-83241496D01*
X77522197Y-83235684D01*
X77545858Y-83232174D01*
X77569750Y-83231000D01*
X78132250Y-83231000D01*
X78156142Y-83232174D01*
G37*
G36*
X78156142Y-81657174D02*
G01*
X78179803Y-81660684D01*
X78203007Y-81666496D01*
X78225529Y-81674554D01*
X78247153Y-81684782D01*
X78267670Y-81697079D01*
X78286883Y-81711329D01*
X78304607Y-81727393D01*
X78320671Y-81745117D01*
X78334921Y-81764330D01*
X78347218Y-81784847D01*
X78357446Y-81806471D01*
X78365504Y-81828993D01*
X78371316Y-81852197D01*
X78374826Y-81875858D01*
X78376000Y-81899750D01*
X78376000Y-82387250D01*
X78374826Y-82411142D01*
X78371316Y-82434803D01*
X78365504Y-82458007D01*
X78357446Y-82480529D01*
X78347218Y-82502153D01*
X78334921Y-82522670D01*
X78320671Y-82541883D01*
X78304607Y-82559607D01*
X78286883Y-82575671D01*
X78267670Y-82589921D01*
X78247153Y-82602218D01*
X78225529Y-82612446D01*
X78203007Y-82620504D01*
X78179803Y-82626316D01*
X78156142Y-82629826D01*
X78132250Y-82631000D01*
X77569750Y-82631000D01*
X77545858Y-82629826D01*
X77522197Y-82626316D01*
X77498993Y-82620504D01*
X77476471Y-82612446D01*
X77454847Y-82602218D01*
X77434330Y-82589921D01*
X77415117Y-82575671D01*
X77397393Y-82559607D01*
X77381329Y-82541883D01*
X77367079Y-82522670D01*
X77354782Y-82502153D01*
X77344554Y-82480529D01*
X77336496Y-82458007D01*
X77330684Y-82434803D01*
X77327174Y-82411142D01*
X77326000Y-82387250D01*
X77326000Y-81899750D01*
X77327174Y-81875858D01*
X77330684Y-81852197D01*
X77336496Y-81828993D01*
X77344554Y-81806471D01*
X77354782Y-81784847D01*
X77367079Y-81764330D01*
X77381329Y-81745117D01*
X77397393Y-81727393D01*
X77415117Y-81711329D01*
X77434330Y-81697079D01*
X77454847Y-81684782D01*
X77476471Y-81674554D01*
X77498993Y-81666496D01*
X77522197Y-81660684D01*
X77545858Y-81657174D01*
X77569750Y-81656000D01*
X78132250Y-81656000D01*
X78156142Y-81657174D01*
G37*
G36*
X68725142Y-82231174D02*
G01*
X68748803Y-82234684D01*
X68772007Y-82240496D01*
X68794529Y-82248554D01*
X68816153Y-82258782D01*
X68836670Y-82271079D01*
X68855883Y-82285329D01*
X68873607Y-82301393D01*
X68889671Y-82319117D01*
X68903921Y-82338330D01*
X68916218Y-82358847D01*
X68926446Y-82380471D01*
X68934504Y-82402993D01*
X68940316Y-82426197D01*
X68943826Y-82449858D01*
X68945000Y-82473750D01*
X68945000Y-82961250D01*
X68943826Y-82985142D01*
X68940316Y-83008803D01*
X68934504Y-83032007D01*
X68926446Y-83054529D01*
X68916218Y-83076153D01*
X68903921Y-83096670D01*
X68889671Y-83115883D01*
X68873607Y-83133607D01*
X68855883Y-83149671D01*
X68836670Y-83163921D01*
X68816153Y-83176218D01*
X68794529Y-83186446D01*
X68772007Y-83194504D01*
X68748803Y-83200316D01*
X68725142Y-83203826D01*
X68701250Y-83205000D01*
X68138750Y-83205000D01*
X68114858Y-83203826D01*
X68091197Y-83200316D01*
X68067993Y-83194504D01*
X68045471Y-83186446D01*
X68023847Y-83176218D01*
X68003330Y-83163921D01*
X67984117Y-83149671D01*
X67966393Y-83133607D01*
X67950329Y-83115883D01*
X67936079Y-83096670D01*
X67923782Y-83076153D01*
X67913554Y-83054529D01*
X67905496Y-83032007D01*
X67899684Y-83008803D01*
X67896174Y-82985142D01*
X67895000Y-82961250D01*
X67895000Y-82473750D01*
X67896174Y-82449858D01*
X67899684Y-82426197D01*
X67905496Y-82402993D01*
X67913554Y-82380471D01*
X67923782Y-82358847D01*
X67936079Y-82338330D01*
X67950329Y-82319117D01*
X67966393Y-82301393D01*
X67984117Y-82285329D01*
X68003330Y-82271079D01*
X68023847Y-82258782D01*
X68045471Y-82248554D01*
X68067993Y-82240496D01*
X68091197Y-82234684D01*
X68114858Y-82231174D01*
X68138750Y-82230000D01*
X68701250Y-82230000D01*
X68725142Y-82231174D01*
G37*
G36*
X68725142Y-80656174D02*
G01*
X68748803Y-80659684D01*
X68772007Y-80665496D01*
X68794529Y-80673554D01*
X68816153Y-80683782D01*
X68836670Y-80696079D01*
X68855883Y-80710329D01*
X68873607Y-80726393D01*
X68889671Y-80744117D01*
X68903921Y-80763330D01*
X68916218Y-80783847D01*
X68926446Y-80805471D01*
X68934504Y-80827993D01*
X68940316Y-80851197D01*
X68943826Y-80874858D01*
X68945000Y-80898750D01*
X68945000Y-81386250D01*
X68943826Y-81410142D01*
X68940316Y-81433803D01*
X68934504Y-81457007D01*
X68926446Y-81479529D01*
X68916218Y-81501153D01*
X68903921Y-81521670D01*
X68889671Y-81540883D01*
X68873607Y-81558607D01*
X68855883Y-81574671D01*
X68836670Y-81588921D01*
X68816153Y-81601218D01*
X68794529Y-81611446D01*
X68772007Y-81619504D01*
X68748803Y-81625316D01*
X68725142Y-81628826D01*
X68701250Y-81630000D01*
X68138750Y-81630000D01*
X68114858Y-81628826D01*
X68091197Y-81625316D01*
X68067993Y-81619504D01*
X68045471Y-81611446D01*
X68023847Y-81601218D01*
X68003330Y-81588921D01*
X67984117Y-81574671D01*
X67966393Y-81558607D01*
X67950329Y-81540883D01*
X67936079Y-81521670D01*
X67923782Y-81501153D01*
X67913554Y-81479529D01*
X67905496Y-81457007D01*
X67899684Y-81433803D01*
X67896174Y-81410142D01*
X67895000Y-81386250D01*
X67895000Y-80898750D01*
X67896174Y-80874858D01*
X67899684Y-80851197D01*
X67905496Y-80827993D01*
X67913554Y-80805471D01*
X67923782Y-80783847D01*
X67936079Y-80763330D01*
X67950329Y-80744117D01*
X67966393Y-80726393D01*
X67984117Y-80710329D01*
X68003330Y-80696079D01*
X68023847Y-80683782D01*
X68045471Y-80673554D01*
X68067993Y-80665496D01*
X68091197Y-80659684D01*
X68114858Y-80656174D01*
X68138750Y-80655000D01*
X68701250Y-80655000D01*
X68725142Y-80656174D01*
G37*
G36*
X83922642Y-62468174D02*
G01*
X83946303Y-62471684D01*
X83969507Y-62477496D01*
X83992029Y-62485554D01*
X84013653Y-62495782D01*
X84034170Y-62508079D01*
X84053383Y-62522329D01*
X84071107Y-62538393D01*
X84087171Y-62556117D01*
X84101421Y-62575330D01*
X84113718Y-62595847D01*
X84123946Y-62617471D01*
X84132004Y-62639993D01*
X84137816Y-62663197D01*
X84141326Y-62686858D01*
X84142500Y-62710750D01*
X84142500Y-63273250D01*
X84141326Y-63297142D01*
X84137816Y-63320803D01*
X84132004Y-63344007D01*
X84123946Y-63366529D01*
X84113718Y-63388153D01*
X84101421Y-63408670D01*
X84087171Y-63427883D01*
X84071107Y-63445607D01*
X84053383Y-63461671D01*
X84034170Y-63475921D01*
X84013653Y-63488218D01*
X83992029Y-63498446D01*
X83969507Y-63506504D01*
X83946303Y-63512316D01*
X83922642Y-63515826D01*
X83898750Y-63517000D01*
X83411250Y-63517000D01*
X83387358Y-63515826D01*
X83363697Y-63512316D01*
X83340493Y-63506504D01*
X83317971Y-63498446D01*
X83296347Y-63488218D01*
X83275830Y-63475921D01*
X83256617Y-63461671D01*
X83238893Y-63445607D01*
X83222829Y-63427883D01*
X83208579Y-63408670D01*
X83196282Y-63388153D01*
X83186054Y-63366529D01*
X83177996Y-63344007D01*
X83172184Y-63320803D01*
X83168674Y-63297142D01*
X83167500Y-63273250D01*
X83167500Y-62710750D01*
X83168674Y-62686858D01*
X83172184Y-62663197D01*
X83177996Y-62639993D01*
X83186054Y-62617471D01*
X83196282Y-62595847D01*
X83208579Y-62575330D01*
X83222829Y-62556117D01*
X83238893Y-62538393D01*
X83256617Y-62522329D01*
X83275830Y-62508079D01*
X83296347Y-62495782D01*
X83317971Y-62485554D01*
X83340493Y-62477496D01*
X83363697Y-62471684D01*
X83387358Y-62468174D01*
X83411250Y-62467000D01*
X83898750Y-62467000D01*
X83922642Y-62468174D01*
G37*
G36*
X82347642Y-62468174D02*
G01*
X82371303Y-62471684D01*
X82394507Y-62477496D01*
X82417029Y-62485554D01*
X82438653Y-62495782D01*
X82459170Y-62508079D01*
X82478383Y-62522329D01*
X82496107Y-62538393D01*
X82512171Y-62556117D01*
X82526421Y-62575330D01*
X82538718Y-62595847D01*
X82548946Y-62617471D01*
X82557004Y-62639993D01*
X82562816Y-62663197D01*
X82566326Y-62686858D01*
X82567500Y-62710750D01*
X82567500Y-63273250D01*
X82566326Y-63297142D01*
X82562816Y-63320803D01*
X82557004Y-63344007D01*
X82548946Y-63366529D01*
X82538718Y-63388153D01*
X82526421Y-63408670D01*
X82512171Y-63427883D01*
X82496107Y-63445607D01*
X82478383Y-63461671D01*
X82459170Y-63475921D01*
X82438653Y-63488218D01*
X82417029Y-63498446D01*
X82394507Y-63506504D01*
X82371303Y-63512316D01*
X82347642Y-63515826D01*
X82323750Y-63517000D01*
X81836250Y-63517000D01*
X81812358Y-63515826D01*
X81788697Y-63512316D01*
X81765493Y-63506504D01*
X81742971Y-63498446D01*
X81721347Y-63488218D01*
X81700830Y-63475921D01*
X81681617Y-63461671D01*
X81663893Y-63445607D01*
X81647829Y-63427883D01*
X81633579Y-63408670D01*
X81621282Y-63388153D01*
X81611054Y-63366529D01*
X81602996Y-63344007D01*
X81597184Y-63320803D01*
X81593674Y-63297142D01*
X81592500Y-63273250D01*
X81592500Y-62710750D01*
X81593674Y-62686858D01*
X81597184Y-62663197D01*
X81602996Y-62639993D01*
X81611054Y-62617471D01*
X81621282Y-62595847D01*
X81633579Y-62575330D01*
X81647829Y-62556117D01*
X81663893Y-62538393D01*
X81681617Y-62522329D01*
X81700830Y-62508079D01*
X81721347Y-62495782D01*
X81742971Y-62485554D01*
X81765493Y-62477496D01*
X81788697Y-62471684D01*
X81812358Y-62468174D01*
X81836250Y-62467000D01*
X82323750Y-62467000D01*
X82347642Y-62468174D01*
G37*
M02*
