M48
; DRILL file {KiCad 5.1.5} date Sa 09 Mai 2020 11:52:44 CEST
; FORMAT={-:-/ absolute / inch / decimal}
; #@! TF.CreationDate,2020-05-09T11:52:44+02:00
; #@! TF.GenerationSoftware,Kicad,Pcbnew,5.1.5
; #@! TF.FileFunction,Plated,1,2,PTH
FMAT,2
INCH
T1C0.0118
T2C0.0197
T3C0.0236
T4C0.0335
T5C0.0394
%
G90
G05
T1
X2.4252Y-3.0236
X2.575Y-2.7575
X2.5758Y-3.1161
X2.5825Y-2.5625
X2.5825Y-2.5625
X2.585Y-2.63
X2.605Y-3.05
X2.6145Y-2.63
X2.615Y-2.51
X2.72Y-3.06
X2.72Y-3.115
X2.7224Y-2.7874
X2.7224Y-2.8335
X2.7237Y-3.0154
X2.7244Y-2.9252
X2.7264Y-2.876
X2.7269Y-2.9677
X2.7425Y-3.2126
X2.7461Y-2.8128
X2.7462Y-2.9923
X2.7462Y-2.8541
X2.7489Y-2.948
X2.7502Y-2.9037
X2.76Y-3.1125
X2.7819Y-3.0902
X2.8026Y-3.1125
X2.8099Y-2.997
X2.8175Y-2.77
X2.8275Y-3.2175
X2.8292Y-3.0944
X2.8441Y-2.7909
X2.855Y-3.1125
X2.8599Y-3.2243
X2.86Y-2.8337
X2.8622Y-3.0264
X2.8661Y-2.7675
X2.889Y-3.2198
X2.89Y-3.115
X2.9075Y-2.7675
X2.9156Y-2.8337
X2.9165Y-3.0264
X2.94Y-2.7675
X2.9439Y-2.9931
X2.9575Y-3.1125
X2.9975Y-3.11
X3.0075Y-2.48
X3.0075Y-2.6
X3.0275Y-3.1125
X3.0575Y-2.5775
X3.06Y-3.0472
X3.07Y-3.1925
X3.2225Y-3.2175
X3.2289Y-3.177
X3.23Y-3.1
X3.24Y-2.965
X3.2717Y-3.0315
X3.2854Y-2.7913
X3.3Y-3.295
X3.305Y-2.8775
X3.3268Y-3.0
X3.3268Y-3.2598
X3.335Y-2.86
X3.3366Y-2.7982
X3.3652Y-3.0099
X3.4134Y-3.0768
X3.4225Y-3.26
X3.4252Y-2.7618
X3.4469Y-3.0768
X3.4514Y-2.9881
X3.4575Y-3.1775
X3.4665Y-2.7362
X3.4803Y-3.0775
X3.4927Y-2.9991
X3.495Y-3.1725
X3.4961Y-2.7087
X3.5256Y-3.2665
X3.5256Y-2.7087
X3.5332Y-2.9834
X3.5463Y-3.18
X3.5472Y-2.7776
X3.56Y-3.0775
X3.5679Y-2.7085
X3.5864Y-3.002
X3.5886Y-2.7776
X3.5984Y-3.0768
X3.6093Y-2.7087
X3.6122Y-3.1693
X3.628Y-3.0
X3.6299Y-2.7776
X3.6336Y-3.0766
X3.6388Y-3.1486
X3.6516Y-2.7087
X3.6654Y-3.0768
X3.6693Y-2.999
X3.6811Y-2.7087
X3.6988Y-3.0768
X3.7106Y-2.9945
X3.7106Y-2.7087
X3.7283Y-3.0768
X3.7402Y-2.7087
X3.752Y-3.0011
X3.7579Y-3.0768
X3.7697Y-2.7087
X3.7992Y-2.7087
X3.8149Y-2.954
X3.8209Y-2.9094
X3.8288Y-2.7087
X3.8352Y-2.9754
X3.8546Y-2.9094
X3.8563Y-3.0807
X3.8583Y-2.7084
X3.8622Y-3.0394
X3.8622Y-3.2205
X3.8661Y-2.9769
X3.8841Y-2.9091
X3.8878Y-2.7087
X3.9047Y-3.0094
X3.9173Y-2.7086
X3.939Y-3.1693
X3.9469Y-2.7092
X3.967Y-3.1245
X3.9724Y-3.2205
X3.9764Y-2.7087
X3.9886Y-3.0079
X4.003Y-3.055
X4.0525Y-3.161
X4.0591Y-2.8189
X4.0827Y-3.1417
X4.1142Y-3.1614
X4.1457Y-3.1417
X4.1693Y-2.8189
T2
X2.8858Y-2.6575
X2.8858Y-2.6024
X2.9646Y-2.6575
X2.9646Y-2.6024
T4
X2.5256Y-2.4466
X2.5256Y-2.6434
T5
X2.6673Y-2.39
X2.7673Y-2.39
X2.8673Y-2.39
X2.9673Y-2.39
X3.0673Y-2.39
X3.1673Y-2.39
X3.2673Y-2.39
X3.3673Y-2.39
X3.4673Y-2.39
X3.5673Y-2.39
X3.6673Y-2.39
X3.7673Y-2.39
X3.8673Y-2.39
X3.9673Y-2.39
X4.0673Y-2.39
X4.1673Y-2.39
X2.425Y-3.08
X2.425Y-3.18
X2.425Y-3.28
T3
G00X2.4055Y-2.4072
M15
G01X2.4331Y-2.4072
M16
G05
G00X2.4331Y-2.6828
M15
G01X2.4055Y-2.6828
M16
G05
T0
M30
