G04 #@! TF.GenerationSoftware,KiCad,Pcbnew,5.1.5*
G04 #@! TF.CreationDate,2020-05-09T12:03:03+02:00*
G04 #@! TF.ProjectId,nucular-keyboard,6e756375-6c61-4722-9d6b-6579626f6172,rev?*
G04 #@! TF.SameCoordinates,Original*
G04 #@! TF.FileFunction,Copper,L2,Bot*
G04 #@! TF.FilePolarity,Positive*
%FSLAX46Y46*%
G04 Gerber Fmt 4.6, Leading zero omitted, Abs format (unit mm)*
G04 Created by KiCad (PCBNEW 5.1.5) date 2020-05-09 12:03:03*
%MOMM*%
%LPD*%
G04 APERTURE LIST*
%ADD10C,0.800000*%
%ADD11R,1.700000X1.700000*%
%ADD12O,1.700000X1.700000*%
%ADD13O,1.900000X1.200000*%
%ADD14C,1.450000*%
%ADD15C,0.600000*%
%ADD16C,0.300000*%
%ADD17C,0.150000*%
G04 APERTURE END LIST*
D10*
X75300000Y-67310000D03*
X75300000Y-65913000D03*
X73300000Y-67310000D03*
X73300000Y-65913000D03*
D11*
X67750000Y-60706000D03*
D12*
X70290000Y-60706000D03*
X72830000Y-60706000D03*
X75370000Y-60706000D03*
X77910000Y-60706000D03*
X80450000Y-60706000D03*
X82990000Y-60706000D03*
X85530000Y-60706000D03*
X88070000Y-60706000D03*
X90610000Y-60706000D03*
X93150000Y-60706000D03*
X95690000Y-60706000D03*
X98230000Y-60706000D03*
X100770000Y-60706000D03*
X103310000Y-60706000D03*
X105850000Y-60706000D03*
D13*
X61450000Y-68143000D03*
X61450000Y-61143000D03*
D14*
X64150000Y-67143000D03*
X64150000Y-62143000D03*
D11*
X61595000Y-78232000D03*
D12*
X61595000Y-80772000D03*
X61595000Y-83312000D03*
D15*
X74775000Y-76024999D03*
X71372464Y-76122622D03*
X76390500Y-66040002D03*
X76390500Y-62992000D03*
X87550000Y-78150000D03*
X84500000Y-76200000D03*
X88050000Y-69500000D03*
X82296000Y-75311000D03*
X83450000Y-70900000D03*
X100899994Y-81800000D03*
X65425006Y-79150000D03*
X65405000Y-70040500D03*
X103100000Y-71600000D03*
X76898500Y-79057500D03*
X105900000Y-71600000D03*
X61600000Y-76800000D03*
X84500000Y-82800000D03*
X98099994Y-77200000D03*
X98100000Y-81800000D03*
X69088000Y-77724000D03*
X69088000Y-79121000D03*
X73406000Y-79121000D03*
X74079651Y-76870944D03*
X72700000Y-76870944D03*
X75120500Y-79057500D03*
X87820500Y-80708500D03*
X77723996Y-77400000D03*
X77660500Y-65468500D03*
X74055418Y-71974877D03*
X72644000Y-71974877D03*
X66409003Y-66802000D03*
X66421000Y-63753998D03*
X65595500Y-65087500D03*
X65595500Y-65087500D03*
X65659000Y-66802000D03*
X83947008Y-73088500D03*
X82014631Y-80695319D03*
X72640236Y-81897470D03*
X86700000Y-78150000D03*
X105300004Y-79800000D03*
X86931500Y-82804000D03*
X102932374Y-80290222D03*
X84708996Y-72644000D03*
X81851500Y-81724516D03*
X71818500Y-81724500D03*
X83100000Y-77000000D03*
X84750000Y-71075000D03*
X77978000Y-81089500D03*
X73381320Y-81782093D03*
X103699998Y-79800000D03*
X104500000Y-80300000D03*
X74676000Y-70294488D03*
X73850500Y-70294500D03*
X69659496Y-81600000D03*
X66167000Y-77470008D03*
X89743949Y-75778380D03*
X91674990Y-68800000D03*
X69181341Y-76591766D03*
X92200000Y-70550004D03*
X69753761Y-76003761D03*
X90075012Y-80772000D03*
X92750044Y-68800000D03*
X69263187Y-75378710D03*
X90424000Y-78168500D03*
X91093971Y-76249988D03*
X93500057Y-68800000D03*
X69822950Y-74879528D03*
X94250070Y-68800000D03*
X69200244Y-74299767D03*
X91400011Y-78150007D03*
X92150000Y-76200000D03*
X95000083Y-68800000D03*
X69855659Y-73753746D03*
X92294181Y-78146539D03*
X95750285Y-68800036D03*
X69250000Y-73050000D03*
X93200011Y-76175651D03*
X96500296Y-68799907D03*
X69754512Y-72495036D03*
X93100011Y-78150000D03*
X97250307Y-68800926D03*
X69150000Y-71970026D03*
X94250022Y-76060518D03*
X98000281Y-68793421D03*
X69750000Y-71445016D03*
X93950011Y-78150008D03*
X98750262Y-68800149D03*
X69150000Y-70800000D03*
X95300033Y-76226890D03*
X99500270Y-68797891D03*
X71564490Y-70358000D03*
X94700022Y-78150000D03*
X100250114Y-68813750D03*
X72240662Y-70888338D03*
X95450035Y-78150000D03*
X101000000Y-68800000D03*
X72800000Y-70294500D03*
X96897449Y-75031987D03*
X97050000Y-73900000D03*
X97415115Y-75574981D03*
X97905999Y-73897889D03*
X98655970Y-73890079D03*
X98200000Y-75612968D03*
X99180000Y-76440000D03*
X101310000Y-76399998D03*
X97950000Y-78250000D03*
X101675010Y-77596020D03*
X92425000Y-79975000D03*
X100762317Y-79362317D03*
X100050000Y-80500000D03*
X91750004Y-80500000D03*
X76136500Y-78994000D03*
X82041990Y-78740000D03*
X88800000Y-68800000D03*
X72517018Y-79057500D03*
X88400011Y-78168500D03*
X87664785Y-75896898D03*
X89550011Y-68800013D03*
X71861477Y-78597037D03*
X90099977Y-70550000D03*
X71185299Y-79057500D03*
X88773000Y-80581500D03*
X88714796Y-76176899D03*
X90624978Y-68796593D03*
X70660289Y-78491061D03*
X91149988Y-70550000D03*
X70104000Y-79057524D03*
X89550000Y-82970000D03*
X85474994Y-76451239D03*
X87000002Y-70150000D03*
X83820000Y-83693000D03*
D16*
X71470087Y-76024999D02*
X71372464Y-76122622D01*
X74775000Y-76024999D02*
X71470087Y-76024999D01*
X76390500Y-66040002D02*
X76390500Y-62992000D01*
X98100000Y-81800000D02*
X100899994Y-81800000D01*
X69088000Y-77724000D02*
X69088000Y-79121000D01*
X74079651Y-76870944D02*
X72700000Y-76870944D01*
X75057000Y-79121000D02*
X75120500Y-79057500D01*
X73406000Y-79121000D02*
X75057000Y-79121000D01*
X87550000Y-80438000D02*
X87820500Y-80708500D01*
X87550000Y-78150000D02*
X87550000Y-80438000D01*
X76835000Y-77400000D02*
X77723996Y-77400000D01*
X75120500Y-79057500D02*
X76778000Y-77400000D01*
X76778000Y-77400000D02*
X76835000Y-77400000D01*
X74055418Y-71974877D02*
X72644000Y-71974877D01*
D17*
X66409003Y-63765995D02*
X66421000Y-63753998D01*
X66409003Y-66802000D02*
X66409003Y-63765995D01*
X65595500Y-66738500D02*
X65659000Y-66802000D01*
X65595500Y-65087500D02*
X65595500Y-66738500D01*
X83647009Y-73388499D02*
X83647009Y-79062941D01*
X82314630Y-80395320D02*
X82014631Y-80695319D01*
X83647009Y-79062941D02*
X82314630Y-80395320D01*
X83947008Y-73088500D02*
X83647009Y-73388499D01*
X73055772Y-82313006D02*
X72940235Y-82197469D01*
X72940235Y-82197469D02*
X72640236Y-81897470D01*
X80396944Y-82313006D02*
X73055772Y-82313006D01*
X82014631Y-80695319D02*
X80396944Y-82313006D01*
X105300004Y-79800000D02*
X104800010Y-79300006D01*
X104800010Y-79300006D02*
X104800010Y-64950010D01*
X104800010Y-64950010D02*
X103310000Y-63460000D01*
X86700000Y-82572500D02*
X86931500Y-82804000D01*
X86700000Y-78150000D02*
X86700000Y-82572500D01*
X103310000Y-63460000D02*
X103310000Y-60706000D01*
X102932374Y-80290222D02*
X102932374Y-79790622D01*
X102932374Y-79790622D02*
X103899980Y-78823016D01*
X103899980Y-78823016D02*
X103899980Y-65378536D01*
X95690000Y-60706000D02*
X98940028Y-63956028D01*
X102477472Y-63956028D02*
X103899980Y-65378536D01*
X98940028Y-63956028D02*
X102477472Y-63956028D01*
X82151499Y-81424517D02*
X81851500Y-81724516D01*
X83975000Y-73964504D02*
X83975000Y-79601016D01*
X84708996Y-73230508D02*
X83975000Y-73964504D01*
X84708996Y-72644000D02*
X84708996Y-73230508D01*
X83975000Y-79601016D02*
X82151499Y-81424517D01*
X81851500Y-81724516D02*
X80963003Y-82613013D01*
X80963003Y-82613013D02*
X72282749Y-82613013D01*
X72282749Y-82613013D02*
X71818500Y-82148764D01*
X71818500Y-82148764D02*
X71818500Y-81724500D01*
X78250000Y-81600000D02*
X79150000Y-81600000D01*
X77200000Y-81600000D02*
X77375000Y-81600000D01*
X79150000Y-81600000D02*
X79074260Y-81600000D01*
X74229000Y-81600000D02*
X74228998Y-81600002D01*
X77599500Y-81600000D02*
X74229000Y-81600000D01*
X77200000Y-81600000D02*
X77599500Y-81600000D01*
X83089762Y-72675738D02*
X84690500Y-71075000D01*
X84690500Y-71075000D02*
X84750000Y-71075000D01*
X83100000Y-77000000D02*
X83100000Y-72675738D01*
X83100000Y-72675738D02*
X83089762Y-72675738D01*
X77978000Y-81089500D02*
X77978000Y-81597500D01*
X77599500Y-81600000D02*
X77978000Y-81597500D01*
X77978000Y-81597500D02*
X78250000Y-81600000D01*
X83100000Y-77424264D02*
X83100000Y-77000000D01*
X79150000Y-81600000D02*
X80332946Y-81600000D01*
X83100000Y-78832946D02*
X83100000Y-77424264D01*
X80332946Y-81600000D02*
X83100000Y-78832946D01*
X74046907Y-81782093D02*
X73805584Y-81782093D01*
X73805584Y-81782093D02*
X73381320Y-81782093D01*
X74229000Y-81600000D02*
X74046907Y-81782093D01*
X103699998Y-79800000D02*
X103700000Y-79800000D01*
X103700000Y-79800000D02*
X104199991Y-79300009D01*
X104199991Y-79300009D02*
X104199991Y-65254269D01*
X99305001Y-61781001D02*
X99079999Y-61555999D01*
X99079999Y-61555999D02*
X98230000Y-60706000D01*
X100726723Y-61781001D02*
X99305001Y-61781001D01*
X104199991Y-65254269D02*
X100726723Y-61781001D01*
X104500000Y-65130000D02*
X104500000Y-80300000D01*
X103009990Y-62945990D02*
X103009990Y-63639990D01*
X100770000Y-60706000D02*
X103009990Y-62945990D01*
X103009990Y-63639990D02*
X104500000Y-65130000D01*
X74975999Y-69994489D02*
X74676000Y-70294488D01*
X80450000Y-64875000D02*
X75330511Y-69994489D01*
X75330511Y-69994489D02*
X74975999Y-69994489D01*
X80450000Y-61400000D02*
X80450000Y-64875000D01*
X78759999Y-65385001D02*
X74150499Y-69994501D01*
X77910000Y-61400000D02*
X78759999Y-62249999D01*
X74150499Y-69994501D02*
X73850500Y-70294500D01*
X78759999Y-62249999D02*
X78759999Y-65385001D01*
X67947496Y-83312000D02*
X69659496Y-81600000D01*
X61595000Y-83312000D02*
X67947496Y-83312000D01*
X61500000Y-78400000D02*
X65237008Y-78400000D01*
X65237008Y-78400000D02*
X66167000Y-77470008D01*
X89743949Y-75354116D02*
X89743949Y-75778380D01*
X91674990Y-68800000D02*
X91674990Y-71326454D01*
X91674990Y-71326454D02*
X89743949Y-73257495D01*
X89743949Y-73257495D02*
X89743949Y-75354116D01*
X91674990Y-68603438D02*
X91674990Y-68800000D01*
X89996530Y-66924978D02*
X91674990Y-68603438D01*
X84353627Y-66924978D02*
X89996530Y-66924978D01*
X71246933Y-75499997D02*
X75778609Y-75499997D01*
X70155164Y-76591766D02*
X71246933Y-75499997D01*
X75778609Y-75499997D02*
X84353627Y-66924978D01*
X69181341Y-76591766D02*
X70155164Y-76591766D01*
X90268959Y-76208048D02*
X89850013Y-76626993D01*
X92200000Y-70550004D02*
X92200000Y-71225721D01*
X89850013Y-80122737D02*
X90075012Y-80347736D01*
X90268959Y-73156762D02*
X90268959Y-76208048D01*
X89850013Y-76626993D02*
X89850013Y-80122737D01*
X90075012Y-80347736D02*
X90075012Y-80772000D01*
X92200000Y-71225721D02*
X90268959Y-73156762D01*
X84229371Y-66624956D02*
X90301992Y-66624956D01*
X70318890Y-76003761D02*
X71122665Y-75199986D01*
X92200000Y-70125740D02*
X92200000Y-70550004D01*
X69753761Y-76003761D02*
X70318890Y-76003761D01*
X92200000Y-68522964D02*
X92200000Y-70125740D01*
X71122665Y-75199986D02*
X75654341Y-75199986D01*
X90301992Y-66624956D02*
X92200000Y-68522964D01*
X75654341Y-75199986D02*
X84229371Y-66624956D01*
X90568970Y-73281030D02*
X90568970Y-77599266D01*
X90568970Y-77599266D02*
X90424000Y-77744236D01*
X90424000Y-77744236D02*
X90424000Y-78168500D01*
X92750044Y-71099956D02*
X90568970Y-73281030D01*
X92750044Y-68800000D02*
X92750044Y-71099956D01*
X70550025Y-74899975D02*
X70007790Y-75442210D01*
X92750044Y-68474265D02*
X90600724Y-66324945D01*
X90600724Y-66324945D02*
X84105103Y-66324945D01*
X69326687Y-75442210D02*
X69263187Y-75378710D01*
X70007790Y-75442210D02*
X69326687Y-75442210D01*
X75530073Y-74899975D02*
X70550025Y-74899975D01*
X84105103Y-66324945D02*
X75530073Y-74899975D01*
X92750044Y-68800000D02*
X92750044Y-68474265D01*
X91093971Y-75825724D02*
X91093971Y-76249988D01*
X91093971Y-73206029D02*
X91093971Y-75825724D01*
X93500057Y-70799943D02*
X91093971Y-73206029D01*
X93500057Y-68800000D02*
X93500057Y-70799943D01*
X70102514Y-74599964D02*
X69822950Y-74879528D01*
X75405805Y-74599964D02*
X70102514Y-74599964D01*
X83980835Y-66024934D02*
X75405805Y-74599964D01*
X93500057Y-68800000D02*
X90724992Y-66024934D01*
X90724992Y-66024934D02*
X83980835Y-66024934D01*
X94250070Y-68800000D02*
X94250070Y-70499930D01*
X94250070Y-70499930D02*
X91618981Y-73131019D01*
X91618981Y-73131019D02*
X91618981Y-77506773D01*
X91400011Y-77725743D02*
X91400011Y-78150007D01*
X91618981Y-77506773D02*
X91400011Y-77725743D01*
X83856567Y-65724923D02*
X75281537Y-74299953D01*
X91174993Y-65724923D02*
X83856567Y-65724923D01*
X69624508Y-74299767D02*
X69200244Y-74299767D01*
X94250070Y-68800000D02*
X91174993Y-65724923D01*
X69624694Y-74299953D02*
X69624508Y-74299767D01*
X75281537Y-74299953D02*
X69624694Y-74299953D01*
X95000083Y-70175639D02*
X92150000Y-73025722D01*
X95000083Y-68800000D02*
X95000083Y-70175639D01*
X92150000Y-73025722D02*
X92150000Y-75775736D01*
X92150000Y-75775736D02*
X92150000Y-76200000D01*
X70279923Y-73753746D02*
X70526119Y-73999942D01*
X70526119Y-73999942D02*
X75157269Y-73999942D01*
X75157269Y-73999942D02*
X83732299Y-65424912D01*
X91624995Y-65424912D02*
X94700084Y-68500001D01*
X69855659Y-73753746D02*
X70279923Y-73753746D01*
X83732299Y-65424912D02*
X91624995Y-65424912D01*
X94700084Y-68500001D02*
X95000083Y-68800000D01*
X92675001Y-72924999D02*
X92675001Y-77765719D01*
X95750285Y-69849715D02*
X92675001Y-72924999D01*
X92675001Y-77765719D02*
X92594180Y-77846540D01*
X95750285Y-68800036D02*
X95750285Y-69849715D01*
X92594180Y-77846540D02*
X92294181Y-78146539D01*
X71797311Y-73699931D02*
X75033001Y-73699931D01*
X92050326Y-65100077D02*
X95450286Y-68500037D01*
X83632854Y-65100077D02*
X92050326Y-65100077D01*
X69250000Y-73050000D02*
X71147380Y-73050000D01*
X71147380Y-73050000D02*
X71797311Y-73699931D01*
X95450286Y-68500037D02*
X95750285Y-68800036D01*
X75033001Y-73699931D02*
X83632854Y-65100077D01*
X93200011Y-72851433D02*
X93200011Y-75751387D01*
X96500296Y-68799907D02*
X96500296Y-69551148D01*
X96500296Y-69551148D02*
X93200011Y-72851433D01*
X93200011Y-75751387D02*
X93200011Y-76175651D01*
X96200297Y-68499908D02*
X96500296Y-68799907D01*
X69754512Y-72495036D02*
X71016695Y-72495036D01*
X71921579Y-73399920D02*
X74908733Y-73399920D01*
X74908733Y-73399920D02*
X83508586Y-64800066D01*
X83508586Y-64800066D02*
X92500455Y-64800066D01*
X92500455Y-64800066D02*
X96200297Y-68499908D01*
X71016695Y-72495036D02*
X71921579Y-73399920D01*
X93725012Y-77524999D02*
X93400010Y-77850001D01*
X93725012Y-72807158D02*
X93725012Y-77524999D01*
X97250307Y-68800926D02*
X97250307Y-69281863D01*
X97250307Y-69281863D02*
X93725012Y-72807158D01*
X93400010Y-77850001D02*
X93100011Y-78150000D01*
X69150000Y-71970026D02*
X70915964Y-71970026D01*
X70915964Y-71970026D02*
X72045847Y-73099909D01*
X74784465Y-73099909D02*
X83384318Y-64500055D01*
X83384318Y-64500055D02*
X92949436Y-64500055D01*
X92949436Y-64500055D02*
X96950308Y-68500927D01*
X72045847Y-73099909D02*
X74784465Y-73099909D01*
X96950308Y-68500927D02*
X97250307Y-68800926D01*
X94250022Y-75636254D02*
X94250022Y-76060518D01*
X94250022Y-72726980D02*
X94250022Y-75636254D01*
X97700282Y-69276720D02*
X94250022Y-72726980D01*
X97700282Y-69093420D02*
X97700282Y-69276720D01*
X98000281Y-68793421D02*
X97700282Y-69093420D01*
X69750000Y-71445016D02*
X70815233Y-71445016D01*
X97700282Y-68493422D02*
X98000281Y-68793421D01*
X93406904Y-64200044D02*
X97700282Y-68493422D01*
X72170115Y-72799898D02*
X74660197Y-72799898D01*
X70815233Y-71445016D02*
X72170115Y-72799898D01*
X83260050Y-64200044D02*
X93406904Y-64200044D01*
X74660197Y-72799898D02*
X83260050Y-64200044D01*
X94250010Y-77850009D02*
X93950011Y-78150008D01*
X94775023Y-77324996D02*
X94250010Y-77850009D01*
X94775023Y-75808517D02*
X94775023Y-77324996D01*
X94639967Y-75673461D02*
X94775023Y-75808517D01*
X94639967Y-72761313D02*
X94639967Y-75673461D01*
X97876279Y-69525002D02*
X94639967Y-72761313D01*
X98025409Y-69525002D02*
X97876279Y-69525002D01*
X98750262Y-68800149D02*
X98025409Y-69525002D01*
X83135782Y-63900033D02*
X93850146Y-63900033D01*
X74535929Y-72499887D02*
X83135782Y-63900033D01*
X98450263Y-68500150D02*
X98750262Y-68800149D01*
X93850146Y-63900033D02*
X98450263Y-68500150D01*
X72294383Y-72499887D02*
X74535929Y-72499887D01*
X70594496Y-70800000D02*
X72294383Y-72499887D01*
X69150000Y-70800000D02*
X70594496Y-70800000D01*
X98473139Y-69825022D02*
X98000538Y-69825022D01*
X94939978Y-75538536D02*
X95300033Y-75898591D01*
X99500270Y-68797891D02*
X98473139Y-69825022D01*
X98000538Y-69825022D02*
X94939978Y-72885581D01*
X94939978Y-72885581D02*
X94939978Y-75538536D01*
X95300033Y-75898591D02*
X95300033Y-76226890D01*
X74422000Y-71437500D02*
X74409625Y-71449875D01*
X83011515Y-63600022D02*
X75174037Y-71437500D01*
X72025197Y-71449875D02*
X71564490Y-70989168D01*
X94302401Y-63600022D02*
X83011515Y-63600022D01*
X75174037Y-71437500D02*
X74422000Y-71437500D01*
X71564490Y-70989168D02*
X71564490Y-70782264D01*
X99500270Y-68797891D02*
X94302401Y-63600022D01*
X74409625Y-71449875D02*
X72025197Y-71449875D01*
X71564490Y-70782264D02*
X71564490Y-70358000D01*
X98938831Y-70125033D02*
X98124806Y-70125033D01*
X95239989Y-75414268D02*
X95850000Y-76024278D01*
X95850000Y-77000022D02*
X95000021Y-77850001D01*
X95000021Y-77850001D02*
X94700022Y-78150000D01*
X100250114Y-68813750D02*
X98938831Y-70125033D01*
X98124806Y-70125033D02*
X95239989Y-73009849D01*
X95239989Y-73009849D02*
X95239989Y-75414268D01*
X95850000Y-76024278D02*
X95850000Y-77000022D01*
X100250114Y-68389486D02*
X95160639Y-63300011D01*
X72664926Y-70888338D02*
X72240662Y-70888338D01*
X95160639Y-63300011D02*
X82887247Y-63300011D01*
X75049769Y-71137489D02*
X72914077Y-71137489D01*
X72914077Y-71137489D02*
X72664926Y-70888338D01*
X100250114Y-68813750D02*
X100250114Y-68389486D01*
X82887247Y-63300011D02*
X75049769Y-71137489D01*
X101000000Y-68800000D02*
X101000000Y-69224264D01*
X96150010Y-75900010D02*
X96150010Y-77450025D01*
X95539999Y-73134118D02*
X95539999Y-75290000D01*
X101000000Y-69224264D02*
X99799220Y-70425044D01*
X99799220Y-70425044D02*
X98249074Y-70425044D01*
X98249074Y-70425044D02*
X95539999Y-73134118D01*
X95539999Y-75290000D02*
X96150010Y-75900010D01*
X96150010Y-77450025D02*
X95750034Y-77850001D01*
X95750034Y-77850001D02*
X95450035Y-78150000D01*
X73099999Y-70594499D02*
X72800000Y-70294500D01*
X95624264Y-63000000D02*
X82762979Y-63000000D01*
X73342978Y-70837478D02*
X73099999Y-70594499D01*
X101000000Y-68800000D02*
X101000000Y-68375736D01*
X101000000Y-68375736D02*
X95624264Y-63000000D01*
X74925501Y-70837478D02*
X73342978Y-70837478D01*
X82762979Y-63000000D02*
X74925501Y-70837478D01*
X97050000Y-73900000D02*
X97050000Y-74879436D01*
X97050000Y-74879436D02*
X96897449Y-75031987D01*
X97422451Y-75567645D02*
X97415115Y-75574981D01*
X97606000Y-75384096D02*
X97422451Y-75567645D01*
X97905999Y-73897889D02*
X97606000Y-74197888D01*
X97606000Y-74197888D02*
X97606000Y-75384096D01*
X98200000Y-75612968D02*
X98200000Y-74350000D01*
X98200000Y-74350000D02*
X98655970Y-73894030D01*
X98655970Y-73894030D02*
X98655970Y-73890079D01*
X99220002Y-76399998D02*
X99180000Y-76440000D01*
X101310000Y-76399998D02*
X99220002Y-76399998D01*
X101675010Y-77596020D02*
X99503980Y-77596020D01*
X99503980Y-77596020D02*
X98850000Y-78250000D01*
X98850000Y-78250000D02*
X97950000Y-78250000D01*
X92425000Y-79975000D02*
X92450000Y-79975000D01*
X92450000Y-79975000D02*
X92674990Y-80199990D01*
X92674990Y-80199990D02*
X99325010Y-80199990D01*
X99325010Y-80199990D02*
X100162683Y-79362317D01*
X100162683Y-79362317D02*
X100762317Y-79362317D01*
X100050000Y-80500000D02*
X91750004Y-80500000D01*
X76136500Y-78994000D02*
X76702999Y-78427501D01*
X76702999Y-78427501D02*
X81729491Y-78427501D01*
X81741991Y-78440001D02*
X82041990Y-78740000D01*
X81729491Y-78427501D02*
X81741991Y-78440001D01*
X88800000Y-68800000D02*
X88800000Y-71900000D01*
X88800000Y-71900000D02*
X87139784Y-73560216D01*
X88100012Y-77868501D02*
X88400011Y-78168500D01*
X87139784Y-73560216D02*
X87139784Y-76908273D01*
X87139784Y-76908273D02*
X88100012Y-77868501D01*
X72817017Y-78757501D02*
X72517018Y-79057500D01*
X84648026Y-68800000D02*
X74852028Y-78595998D01*
X88800000Y-68800000D02*
X84648026Y-68800000D01*
X74852028Y-78595998D02*
X72978520Y-78595998D01*
X72978520Y-78595998D02*
X72817017Y-78757501D01*
X87664785Y-75472634D02*
X87664785Y-75896898D01*
X89550011Y-68800013D02*
X89550011Y-71649989D01*
X89550011Y-71649989D02*
X87664785Y-73535215D01*
X87664785Y-73535215D02*
X87664785Y-75472634D01*
X84850699Y-68125022D02*
X74679734Y-78295987D01*
X72161476Y-78297038D02*
X71861477Y-78597037D01*
X74679734Y-78295987D02*
X72162527Y-78295987D01*
X72162527Y-78295987D02*
X72161476Y-78297038D01*
X88875020Y-68125022D02*
X84850699Y-68125022D01*
X89550011Y-68800013D02*
X88875020Y-68125022D01*
X88189795Y-73460205D02*
X88189795Y-76428900D01*
X90099977Y-70550000D02*
X90099977Y-71550023D01*
X90099977Y-71550023D02*
X88189795Y-73460205D01*
X88189795Y-76428900D02*
X89072999Y-77312104D01*
X89072999Y-77312104D02*
X89072999Y-80281501D01*
X89072999Y-80281501D02*
X88773000Y-80581500D01*
X89352013Y-67825011D02*
X84726431Y-67825011D01*
X71185299Y-78496211D02*
X71185299Y-78633236D01*
X90099977Y-68572975D02*
X89352013Y-67825011D01*
X84726431Y-67825011D02*
X74555466Y-77995976D01*
X90099977Y-70550000D02*
X90099977Y-68572975D01*
X71185299Y-78633236D02*
X71185299Y-79057500D01*
X74555466Y-77995976D02*
X71685534Y-77995976D01*
X71685534Y-77995976D02*
X71185299Y-78496211D01*
X88714796Y-73436648D02*
X88714796Y-75752635D01*
X90624978Y-68796593D02*
X90624978Y-71526466D01*
X90624978Y-71526466D02*
X88714796Y-73436648D01*
X88714796Y-75752635D02*
X88714796Y-76176899D01*
X90624978Y-68673697D02*
X89476281Y-67525000D01*
X89476281Y-67525000D02*
X84602163Y-67525000D01*
X84602163Y-67525000D02*
X74431198Y-77695965D01*
X90624978Y-68796593D02*
X90624978Y-68673697D01*
X74431198Y-77695965D02*
X71455385Y-77695965D01*
X70960288Y-78191062D02*
X70660289Y-78491061D01*
X71455385Y-77695965D02*
X70960288Y-78191062D01*
X89218948Y-73356774D02*
X91149988Y-71425734D01*
X89550000Y-76361433D02*
X89218948Y-76030381D01*
X91149988Y-71425734D02*
X91149988Y-70974264D01*
X89218948Y-76030381D02*
X89218948Y-73356774D01*
X89550000Y-82970000D02*
X89550000Y-76361433D01*
X91149988Y-70974264D02*
X91149988Y-70550000D01*
X89826979Y-67224989D02*
X84477895Y-67224989D01*
X91149988Y-70550000D02*
X91149988Y-68547998D01*
X84477895Y-67224989D02*
X74306930Y-77395954D01*
X70104000Y-78633260D02*
X70104000Y-79057524D01*
X91149988Y-68547998D02*
X89826979Y-67224989D01*
X71008947Y-77395954D02*
X70104000Y-78300901D01*
X70104000Y-78300901D02*
X70104000Y-78633260D01*
X74306930Y-77395954D02*
X71008947Y-77395954D01*
D16*
X87000002Y-70150000D02*
X87000002Y-71368002D01*
X85474994Y-72893010D02*
X85474994Y-76026975D01*
X87000002Y-71368002D02*
X85474994Y-72893010D01*
X85474994Y-76026975D02*
X85474994Y-76451239D01*
X85474994Y-76875503D02*
X85471000Y-76879497D01*
X85474994Y-76451239D02*
X85474994Y-76875503D01*
X85471000Y-76879497D02*
X85471000Y-82740500D01*
X85471000Y-82740500D02*
X84518500Y-83693000D01*
X84518500Y-83693000D02*
X83820000Y-83693000D01*
D17*
G36*
X107700001Y-84700000D02*
G01*
X60300000Y-84700000D01*
X60300000Y-83206122D01*
X60520000Y-83206122D01*
X60520000Y-83417878D01*
X60561312Y-83625566D01*
X60642348Y-83821203D01*
X60759993Y-83997272D01*
X60909728Y-84147007D01*
X61085797Y-84264652D01*
X61281434Y-84345688D01*
X61489122Y-84387000D01*
X61700878Y-84387000D01*
X61908566Y-84345688D01*
X62104203Y-84264652D01*
X62280272Y-84147007D01*
X62430007Y-83997272D01*
X62547652Y-83821203D01*
X62628688Y-83625566D01*
X62631386Y-83612000D01*
X67932773Y-83612000D01*
X67947496Y-83613450D01*
X67962219Y-83612000D01*
X67962229Y-83612000D01*
X68006306Y-83607659D01*
X68062856Y-83590504D01*
X68114973Y-83562647D01*
X68160654Y-83525158D01*
X68170049Y-83513710D01*
X69566894Y-82116866D01*
X69607788Y-82125000D01*
X69711204Y-82125000D01*
X69812633Y-82104824D01*
X69908177Y-82065249D01*
X69994164Y-82007794D01*
X70067290Y-81934668D01*
X70124745Y-81848681D01*
X70164320Y-81753137D01*
X70180302Y-81672792D01*
X71293500Y-81672792D01*
X71293500Y-81776208D01*
X71313676Y-81877637D01*
X71353251Y-81973181D01*
X71410706Y-82059168D01*
X71483832Y-82132294D01*
X71517654Y-82154893D01*
X71518500Y-82163487D01*
X71518500Y-82163496D01*
X71522841Y-82207573D01*
X71539996Y-82264123D01*
X71547580Y-82278312D01*
X71567853Y-82316241D01*
X71572459Y-82321853D01*
X71605342Y-82361922D01*
X71616790Y-82371317D01*
X72060200Y-82814728D01*
X72069591Y-82826171D01*
X72081034Y-82835562D01*
X72115271Y-82863660D01*
X72134525Y-82873951D01*
X72167389Y-82891517D01*
X72223939Y-82908672D01*
X72268016Y-82913013D01*
X72268025Y-82913013D01*
X72282748Y-82914463D01*
X72297471Y-82913013D01*
X80948280Y-82913013D01*
X80963003Y-82914463D01*
X80977726Y-82913013D01*
X80977736Y-82913013D01*
X81021813Y-82908672D01*
X81078363Y-82891517D01*
X81130480Y-82863660D01*
X81176161Y-82826171D01*
X81185556Y-82814723D01*
X81758898Y-82241381D01*
X81799792Y-82249516D01*
X81903208Y-82249516D01*
X82004637Y-82229340D01*
X82100181Y-82189765D01*
X82186168Y-82132310D01*
X82259294Y-82059184D01*
X82316749Y-81973197D01*
X82356324Y-81877653D01*
X82376500Y-81776224D01*
X82376500Y-81672808D01*
X82368366Y-81631914D01*
X82374049Y-81626231D01*
X82374054Y-81626225D01*
X84176715Y-79823565D01*
X84188158Y-79814174D01*
X84203749Y-79795176D01*
X84225647Y-79768494D01*
X84253504Y-79716377D01*
X84263131Y-79684640D01*
X84270659Y-79659826D01*
X84275000Y-79615749D01*
X84275000Y-79615746D01*
X84276451Y-79601016D01*
X84275000Y-79586286D01*
X84275000Y-74088767D01*
X84910711Y-73453057D01*
X84922154Y-73443666D01*
X84934536Y-73428578D01*
X84959643Y-73397986D01*
X84975810Y-73367738D01*
X84987500Y-73345868D01*
X85004655Y-73289318D01*
X85008996Y-73245241D01*
X85008996Y-73245232D01*
X85010446Y-73230509D01*
X85008996Y-73215786D01*
X85008996Y-73074959D01*
X85043664Y-73051794D01*
X85099994Y-72995464D01*
X85099995Y-76008547D01*
X85099994Y-76008557D01*
X85099994Y-76083777D01*
X85067200Y-76116571D01*
X85009745Y-76202558D01*
X84970170Y-76298102D01*
X84949994Y-76399531D01*
X84949994Y-76502947D01*
X84970170Y-76604376D01*
X85009745Y-76699920D01*
X85067200Y-76785907D01*
X85099994Y-76818701D01*
X85099994Y-76820525D01*
X85097144Y-76849463D01*
X85094186Y-76879497D01*
X85096000Y-76897913D01*
X85096001Y-82585169D01*
X84363171Y-83318000D01*
X84187462Y-83318000D01*
X84154668Y-83285206D01*
X84068681Y-83227751D01*
X83973137Y-83188176D01*
X83871708Y-83168000D01*
X83768292Y-83168000D01*
X83666863Y-83188176D01*
X83571319Y-83227751D01*
X83485332Y-83285206D01*
X83412206Y-83358332D01*
X83354751Y-83444319D01*
X83315176Y-83539863D01*
X83295000Y-83641292D01*
X83295000Y-83744708D01*
X83315176Y-83846137D01*
X83354751Y-83941681D01*
X83412206Y-84027668D01*
X83485332Y-84100794D01*
X83571319Y-84158249D01*
X83666863Y-84197824D01*
X83768292Y-84218000D01*
X83871708Y-84218000D01*
X83973137Y-84197824D01*
X84068681Y-84158249D01*
X84154668Y-84100794D01*
X84187462Y-84068000D01*
X84500084Y-84068000D01*
X84518500Y-84069814D01*
X84536916Y-84068000D01*
X84536919Y-84068000D01*
X84592013Y-84062574D01*
X84662700Y-84041131D01*
X84727847Y-84006309D01*
X84784948Y-83959448D01*
X84796695Y-83945134D01*
X85723139Y-83018691D01*
X85737448Y-83006948D01*
X85766558Y-82971477D01*
X85784309Y-82949848D01*
X85819130Y-82884702D01*
X85819131Y-82884700D01*
X85840574Y-82814013D01*
X85846000Y-82758919D01*
X85846000Y-82758917D01*
X85847814Y-82740501D01*
X85846000Y-82722085D01*
X85846000Y-78098292D01*
X86175000Y-78098292D01*
X86175000Y-78201708D01*
X86195176Y-78303137D01*
X86234751Y-78398681D01*
X86292206Y-78484668D01*
X86365332Y-78557794D01*
X86400000Y-78580959D01*
X86400001Y-82557767D01*
X86398550Y-82572500D01*
X86404342Y-82631310D01*
X86420180Y-82683519D01*
X86406500Y-82752292D01*
X86406500Y-82855708D01*
X86426676Y-82957137D01*
X86466251Y-83052681D01*
X86523706Y-83138668D01*
X86596832Y-83211794D01*
X86682819Y-83269249D01*
X86778363Y-83308824D01*
X86879792Y-83329000D01*
X86983208Y-83329000D01*
X87084637Y-83308824D01*
X87180181Y-83269249D01*
X87266168Y-83211794D01*
X87339294Y-83138668D01*
X87396749Y-83052681D01*
X87436324Y-82957137D01*
X87456500Y-82855708D01*
X87456500Y-82752292D01*
X87436324Y-82650863D01*
X87396749Y-82555319D01*
X87339294Y-82469332D01*
X87266168Y-82396206D01*
X87180181Y-82338751D01*
X87084637Y-82299176D01*
X87000000Y-82282340D01*
X87000000Y-78580959D01*
X87034668Y-78557794D01*
X87107794Y-78484668D01*
X87165249Y-78398681D01*
X87204824Y-78303137D01*
X87225000Y-78201708D01*
X87225000Y-78098292D01*
X87204824Y-77996863D01*
X87165249Y-77901319D01*
X87107794Y-77815332D01*
X87034668Y-77742206D01*
X86948681Y-77684751D01*
X86853137Y-77645176D01*
X86751708Y-77625000D01*
X86648292Y-77625000D01*
X86546863Y-77645176D01*
X86451319Y-77684751D01*
X86365332Y-77742206D01*
X86292206Y-77815332D01*
X86234751Y-77901319D01*
X86195176Y-77996863D01*
X86175000Y-78098292D01*
X85846000Y-78098292D01*
X85846000Y-76934476D01*
X85849994Y-76893922D01*
X85849994Y-76893920D01*
X85851808Y-76875504D01*
X85849994Y-76857088D01*
X85849994Y-76818701D01*
X85882788Y-76785907D01*
X85940243Y-76699920D01*
X85979818Y-76604376D01*
X85999994Y-76502947D01*
X85999994Y-76399531D01*
X85979818Y-76298102D01*
X85940243Y-76202558D01*
X85882788Y-76116571D01*
X85849994Y-76083777D01*
X85849994Y-73048339D01*
X87252141Y-71646193D01*
X87266450Y-71634450D01*
X87313311Y-71577349D01*
X87348133Y-71512202D01*
X87369576Y-71441515D01*
X87375002Y-71386421D01*
X87375002Y-71386418D01*
X87376816Y-71368002D01*
X87375002Y-71349586D01*
X87375002Y-70517462D01*
X87407796Y-70484668D01*
X87465251Y-70398681D01*
X87504826Y-70303137D01*
X87525002Y-70201708D01*
X87525002Y-70098292D01*
X87504826Y-69996863D01*
X87465251Y-69901319D01*
X87407796Y-69815332D01*
X87334670Y-69742206D01*
X87248683Y-69684751D01*
X87153139Y-69645176D01*
X87051710Y-69625000D01*
X86948294Y-69625000D01*
X86846865Y-69645176D01*
X86751321Y-69684751D01*
X86665334Y-69742206D01*
X86592208Y-69815332D01*
X86534753Y-69901319D01*
X86495178Y-69996863D01*
X86475002Y-70098292D01*
X86475002Y-70201708D01*
X86495178Y-70303137D01*
X86534753Y-70398681D01*
X86592208Y-70484668D01*
X86625002Y-70517462D01*
X86625003Y-71212671D01*
X85233996Y-72603679D01*
X85233996Y-72592292D01*
X85213820Y-72490863D01*
X85174245Y-72395319D01*
X85116790Y-72309332D01*
X85043664Y-72236206D01*
X84957677Y-72178751D01*
X84862133Y-72139176D01*
X84760704Y-72119000D01*
X84657288Y-72119000D01*
X84555859Y-72139176D01*
X84460315Y-72178751D01*
X84374328Y-72236206D01*
X84301202Y-72309332D01*
X84243747Y-72395319D01*
X84204172Y-72490863D01*
X84183996Y-72592292D01*
X84183996Y-72618408D01*
X84100145Y-72583676D01*
X83998716Y-72563500D01*
X83895300Y-72563500D01*
X83793871Y-72583676D01*
X83698327Y-72623251D01*
X83612340Y-72680706D01*
X83539214Y-72753832D01*
X83481759Y-72839819D01*
X83442184Y-72935363D01*
X83422008Y-73036792D01*
X83422008Y-73140208D01*
X83429944Y-73180102D01*
X83420758Y-73191296D01*
X83400000Y-73216589D01*
X83400000Y-72789763D01*
X84607770Y-71581994D01*
X84698292Y-71600000D01*
X84801708Y-71600000D01*
X84903137Y-71579824D01*
X84998681Y-71540249D01*
X85084668Y-71482794D01*
X85157794Y-71409668D01*
X85215249Y-71323681D01*
X85254824Y-71228137D01*
X85275000Y-71126708D01*
X85275000Y-71023292D01*
X85254824Y-70921863D01*
X85215249Y-70826319D01*
X85157794Y-70740332D01*
X85084668Y-70667206D01*
X84998681Y-70609751D01*
X84903137Y-70570176D01*
X84801708Y-70550000D01*
X84698292Y-70550000D01*
X84596863Y-70570176D01*
X84501319Y-70609751D01*
X84415332Y-70667206D01*
X84342206Y-70740332D01*
X84284751Y-70826319D01*
X84245176Y-70921863D01*
X84225000Y-71023292D01*
X84225000Y-71116236D01*
X82888052Y-72453185D01*
X82876604Y-72462580D01*
X82839115Y-72508261D01*
X82811258Y-72560378D01*
X82794103Y-72616928D01*
X82788311Y-72675738D01*
X82794103Y-72734548D01*
X82800001Y-72753990D01*
X82800000Y-76569041D01*
X82765332Y-76592206D01*
X82692206Y-76665332D01*
X82634751Y-76751319D01*
X82595176Y-76846863D01*
X82575000Y-76948292D01*
X82575000Y-77051708D01*
X82595176Y-77153137D01*
X82634751Y-77248681D01*
X82692206Y-77334668D01*
X82765332Y-77407794D01*
X82800000Y-77430959D01*
X82800000Y-77438996D01*
X82800001Y-77439006D01*
X82800000Y-78708682D01*
X82481540Y-79027142D01*
X82507239Y-78988681D01*
X82546814Y-78893137D01*
X82566990Y-78791708D01*
X82566990Y-78688292D01*
X82546814Y-78586863D01*
X82507239Y-78491319D01*
X82449784Y-78405332D01*
X82376658Y-78332206D01*
X82290671Y-78274751D01*
X82195127Y-78235176D01*
X82093698Y-78215000D01*
X81990282Y-78215000D01*
X81949797Y-78223053D01*
X81942649Y-78214343D01*
X81896968Y-78176854D01*
X81844851Y-78148997D01*
X81788301Y-78131842D01*
X81744224Y-78127501D01*
X81744214Y-78127501D01*
X81729491Y-78126051D01*
X81714768Y-78127501D01*
X76717729Y-78127501D01*
X76702999Y-78126050D01*
X76688269Y-78127501D01*
X76688266Y-78127501D01*
X76644189Y-78131842D01*
X76587639Y-78148997D01*
X76535521Y-78176854D01*
X76505237Y-78201708D01*
X76489841Y-78214343D01*
X76480450Y-78225786D01*
X76229102Y-78477135D01*
X76188208Y-78469000D01*
X76084792Y-78469000D01*
X75983363Y-78489176D01*
X75887819Y-78528751D01*
X75801832Y-78586206D01*
X75728706Y-78659332D01*
X75671251Y-78745319D01*
X75631676Y-78840863D01*
X75611500Y-78942292D01*
X75611500Y-79045708D01*
X75631676Y-79147137D01*
X75671251Y-79242681D01*
X75728706Y-79328668D01*
X75801832Y-79401794D01*
X75887819Y-79459249D01*
X75983363Y-79498824D01*
X76084792Y-79519000D01*
X76188208Y-79519000D01*
X76289637Y-79498824D01*
X76385181Y-79459249D01*
X76471168Y-79401794D01*
X76544294Y-79328668D01*
X76601749Y-79242681D01*
X76641324Y-79147137D01*
X76661500Y-79045708D01*
X76661500Y-78942292D01*
X76653365Y-78901398D01*
X76827263Y-78727501D01*
X81516990Y-78727501D01*
X81516990Y-78791708D01*
X81537166Y-78893137D01*
X81576741Y-78988681D01*
X81634196Y-79074668D01*
X81707322Y-79147794D01*
X81793309Y-79205249D01*
X81888853Y-79244824D01*
X81990282Y-79265000D01*
X82093698Y-79265000D01*
X82195127Y-79244824D01*
X82290671Y-79205249D01*
X82329133Y-79179550D01*
X80208683Y-81300000D01*
X78459064Y-81300000D01*
X78482824Y-81242637D01*
X78503000Y-81141208D01*
X78503000Y-81037792D01*
X78482824Y-80936363D01*
X78443249Y-80840819D01*
X78385794Y-80754832D01*
X78312668Y-80681706D01*
X78226681Y-80624251D01*
X78131137Y-80584676D01*
X78029708Y-80564500D01*
X77926292Y-80564500D01*
X77824863Y-80584676D01*
X77729319Y-80624251D01*
X77643332Y-80681706D01*
X77570206Y-80754832D01*
X77512751Y-80840819D01*
X77473176Y-80936363D01*
X77453000Y-81037792D01*
X77453000Y-81141208D01*
X77473176Y-81242637D01*
X77496936Y-81300000D01*
X74243730Y-81300000D01*
X74229000Y-81298549D01*
X74214270Y-81300000D01*
X74214267Y-81300000D01*
X74170190Y-81304341D01*
X74113640Y-81321496D01*
X74111633Y-81322569D01*
X74061522Y-81349353D01*
X74059127Y-81351319D01*
X74015842Y-81386842D01*
X74006449Y-81398288D01*
X73922644Y-81482093D01*
X73812279Y-81482093D01*
X73789114Y-81447425D01*
X73715988Y-81374299D01*
X73630001Y-81316844D01*
X73534457Y-81277269D01*
X73433028Y-81257093D01*
X73329612Y-81257093D01*
X73228183Y-81277269D01*
X73132639Y-81316844D01*
X73046652Y-81374299D01*
X72973526Y-81447425D01*
X72954434Y-81475998D01*
X72888917Y-81432221D01*
X72793373Y-81392646D01*
X72691944Y-81372470D01*
X72588528Y-81372470D01*
X72487099Y-81392646D01*
X72391555Y-81432221D01*
X72305568Y-81489676D01*
X72294198Y-81501046D01*
X72283749Y-81475819D01*
X72226294Y-81389832D01*
X72153168Y-81316706D01*
X72067181Y-81259251D01*
X71971637Y-81219676D01*
X71870208Y-81199500D01*
X71766792Y-81199500D01*
X71665363Y-81219676D01*
X71569819Y-81259251D01*
X71483832Y-81316706D01*
X71410706Y-81389832D01*
X71353251Y-81475819D01*
X71313676Y-81571363D01*
X71293500Y-81672792D01*
X70180302Y-81672792D01*
X70184496Y-81651708D01*
X70184496Y-81548292D01*
X70164320Y-81446863D01*
X70124745Y-81351319D01*
X70067290Y-81265332D01*
X69994164Y-81192206D01*
X69908177Y-81134751D01*
X69812633Y-81095176D01*
X69711204Y-81075000D01*
X69607788Y-81075000D01*
X69506359Y-81095176D01*
X69410815Y-81134751D01*
X69324828Y-81192206D01*
X69251702Y-81265332D01*
X69194247Y-81351319D01*
X69154672Y-81446863D01*
X69134496Y-81548292D01*
X69134496Y-81651708D01*
X69142630Y-81692602D01*
X67823233Y-83012000D01*
X62631386Y-83012000D01*
X62628688Y-82998434D01*
X62547652Y-82802797D01*
X62430007Y-82626728D01*
X62280272Y-82476993D01*
X62104203Y-82359348D01*
X61908566Y-82278312D01*
X61700878Y-82237000D01*
X61489122Y-82237000D01*
X61281434Y-82278312D01*
X61085797Y-82359348D01*
X60909728Y-82476993D01*
X60759993Y-82626728D01*
X60642348Y-82802797D01*
X60561312Y-82998434D01*
X60520000Y-83206122D01*
X60300000Y-83206122D01*
X60300000Y-80945104D01*
X60534029Y-80945104D01*
X60548546Y-81018089D01*
X60616663Y-81217514D01*
X60722377Y-81399818D01*
X60861625Y-81557995D01*
X61029057Y-81685967D01*
X61218237Y-81778815D01*
X61421896Y-81832972D01*
X61590000Y-81790739D01*
X61590000Y-80777000D01*
X61600000Y-80777000D01*
X61600000Y-81790739D01*
X61768104Y-81832972D01*
X61971763Y-81778815D01*
X62160943Y-81685967D01*
X62328375Y-81557995D01*
X62467623Y-81399818D01*
X62573337Y-81217514D01*
X62641454Y-81018089D01*
X62655971Y-80945104D01*
X62613738Y-80777000D01*
X61600000Y-80777000D01*
X61590000Y-80777000D01*
X60576262Y-80777000D01*
X60534029Y-80945104D01*
X60300000Y-80945104D01*
X60300000Y-80598896D01*
X60534029Y-80598896D01*
X60576262Y-80767000D01*
X61590000Y-80767000D01*
X61590000Y-79753261D01*
X61600000Y-79753261D01*
X61600000Y-80767000D01*
X62613738Y-80767000D01*
X62655971Y-80598896D01*
X62641454Y-80525911D01*
X62573337Y-80326486D01*
X62467623Y-80144182D01*
X62328375Y-79986005D01*
X62160943Y-79858033D01*
X61971763Y-79765185D01*
X61768104Y-79711028D01*
X61600000Y-79753261D01*
X61590000Y-79753261D01*
X61421896Y-79711028D01*
X61218237Y-79765185D01*
X61029057Y-79858033D01*
X60861625Y-79986005D01*
X60722377Y-80144182D01*
X60616663Y-80326486D01*
X60548546Y-80525911D01*
X60534029Y-80598896D01*
X60300000Y-80598896D01*
X60300000Y-77382000D01*
X60518912Y-77382000D01*
X60518912Y-79082000D01*
X60523256Y-79126108D01*
X60536122Y-79168520D01*
X60557015Y-79207608D01*
X60585132Y-79241868D01*
X60619392Y-79269985D01*
X60658480Y-79290878D01*
X60700892Y-79303744D01*
X60745000Y-79308088D01*
X62445000Y-79308088D01*
X62489108Y-79303744D01*
X62531520Y-79290878D01*
X62570608Y-79269985D01*
X62604868Y-79241868D01*
X62632985Y-79207608D01*
X62653878Y-79168520D01*
X62666744Y-79126108D01*
X62671088Y-79082000D01*
X62671088Y-78700000D01*
X65222285Y-78700000D01*
X65237008Y-78701450D01*
X65251731Y-78700000D01*
X65251741Y-78700000D01*
X65295818Y-78695659D01*
X65352368Y-78678504D01*
X65404485Y-78650647D01*
X65450166Y-78613158D01*
X65459561Y-78601710D01*
X66074398Y-77986874D01*
X66115292Y-77995008D01*
X66218708Y-77995008D01*
X66320137Y-77974832D01*
X66415681Y-77935257D01*
X66501668Y-77877802D01*
X66574794Y-77804676D01*
X66632249Y-77718689D01*
X66671824Y-77623145D01*
X66692000Y-77521716D01*
X66692000Y-77418300D01*
X66671824Y-77316871D01*
X66632249Y-77221327D01*
X66574794Y-77135340D01*
X66501668Y-77062214D01*
X66415681Y-77004759D01*
X66320137Y-76965184D01*
X66218708Y-76945008D01*
X66115292Y-76945008D01*
X66013863Y-76965184D01*
X65918319Y-77004759D01*
X65832332Y-77062214D01*
X65759206Y-77135340D01*
X65701751Y-77221327D01*
X65662176Y-77316871D01*
X65642000Y-77418300D01*
X65642000Y-77521716D01*
X65650134Y-77562610D01*
X65112745Y-78100000D01*
X62671088Y-78100000D01*
X62671088Y-77382000D01*
X62666744Y-77337892D01*
X62653878Y-77295480D01*
X62632985Y-77256392D01*
X62604868Y-77222132D01*
X62570608Y-77194015D01*
X62531520Y-77173122D01*
X62489108Y-77160256D01*
X62445000Y-77155912D01*
X60745000Y-77155912D01*
X60700892Y-77160256D01*
X60658480Y-77173122D01*
X60619392Y-77194015D01*
X60585132Y-77222132D01*
X60557015Y-77256392D01*
X60536122Y-77295480D01*
X60523256Y-77337892D01*
X60518912Y-77382000D01*
X60300000Y-77382000D01*
X60300000Y-70748292D01*
X68625000Y-70748292D01*
X68625000Y-70851708D01*
X68645176Y-70953137D01*
X68684751Y-71048681D01*
X68742206Y-71134668D01*
X68815332Y-71207794D01*
X68901319Y-71265249D01*
X68996863Y-71304824D01*
X69098292Y-71325000D01*
X69201708Y-71325000D01*
X69240107Y-71317362D01*
X69225000Y-71393308D01*
X69225000Y-71449659D01*
X69201708Y-71445026D01*
X69098292Y-71445026D01*
X68996863Y-71465202D01*
X68901319Y-71504777D01*
X68815332Y-71562232D01*
X68742206Y-71635358D01*
X68684751Y-71721345D01*
X68645176Y-71816889D01*
X68625000Y-71918318D01*
X68625000Y-72021734D01*
X68645176Y-72123163D01*
X68684751Y-72218707D01*
X68742206Y-72304694D01*
X68815332Y-72377820D01*
X68901319Y-72435275D01*
X68996863Y-72474850D01*
X69098292Y-72495026D01*
X69201708Y-72495026D01*
X69229512Y-72489495D01*
X69229512Y-72525000D01*
X69198292Y-72525000D01*
X69096863Y-72545176D01*
X69001319Y-72584751D01*
X68915332Y-72642206D01*
X68842206Y-72715332D01*
X68784751Y-72801319D01*
X68745176Y-72896863D01*
X68725000Y-72998292D01*
X68725000Y-73101708D01*
X68745176Y-73203137D01*
X68784751Y-73298681D01*
X68842206Y-73384668D01*
X68915332Y-73457794D01*
X69001319Y-73515249D01*
X69096863Y-73554824D01*
X69198292Y-73575000D01*
X69301708Y-73575000D01*
X69366806Y-73562051D01*
X69350835Y-73600609D01*
X69330659Y-73702038D01*
X69330659Y-73790423D01*
X69251952Y-73774767D01*
X69148536Y-73774767D01*
X69047107Y-73794943D01*
X68951563Y-73834518D01*
X68865576Y-73891973D01*
X68792450Y-73965099D01*
X68734995Y-74051086D01*
X68695420Y-74146630D01*
X68675244Y-74248059D01*
X68675244Y-74351475D01*
X68695420Y-74452904D01*
X68734995Y-74548448D01*
X68792450Y-74634435D01*
X68865576Y-74707561D01*
X68951563Y-74765016D01*
X69047107Y-74804591D01*
X69148536Y-74824767D01*
X69251952Y-74824767D01*
X69300477Y-74815114D01*
X69297950Y-74827820D01*
X69297950Y-74853710D01*
X69211479Y-74853710D01*
X69110050Y-74873886D01*
X69014506Y-74913461D01*
X68928519Y-74970916D01*
X68855393Y-75044042D01*
X68797938Y-75130029D01*
X68758363Y-75225573D01*
X68738187Y-75327002D01*
X68738187Y-75430418D01*
X68758363Y-75531847D01*
X68797938Y-75627391D01*
X68855393Y-75713378D01*
X68928519Y-75786504D01*
X69014506Y-75843959D01*
X69110050Y-75883534D01*
X69211479Y-75903710D01*
X69238377Y-75903710D01*
X69228761Y-75952053D01*
X69228761Y-76055469D01*
X69231008Y-76066766D01*
X69129633Y-76066766D01*
X69028204Y-76086942D01*
X68932660Y-76126517D01*
X68846673Y-76183972D01*
X68773547Y-76257098D01*
X68716092Y-76343085D01*
X68676517Y-76438629D01*
X68656341Y-76540058D01*
X68656341Y-76643474D01*
X68676517Y-76744903D01*
X68716092Y-76840447D01*
X68773547Y-76926434D01*
X68846673Y-76999560D01*
X68932660Y-77057015D01*
X69028204Y-77096590D01*
X69129633Y-77116766D01*
X69233049Y-77116766D01*
X69334478Y-77096590D01*
X69430022Y-77057015D01*
X69516009Y-76999560D01*
X69589135Y-76926434D01*
X69612300Y-76891766D01*
X70140441Y-76891766D01*
X70155164Y-76893216D01*
X70169887Y-76891766D01*
X70169897Y-76891766D01*
X70213974Y-76887425D01*
X70270524Y-76870270D01*
X70322641Y-76842413D01*
X70368322Y-76804924D01*
X70377717Y-76793476D01*
X70875781Y-76295413D01*
X70907215Y-76371303D01*
X70964670Y-76457290D01*
X71037796Y-76530416D01*
X71123783Y-76587871D01*
X71219327Y-76627446D01*
X71320756Y-76647622D01*
X71424172Y-76647622D01*
X71525601Y-76627446D01*
X71621145Y-76587871D01*
X71707132Y-76530416D01*
X71780258Y-76457290D01*
X71818539Y-76399999D01*
X74407538Y-76399999D01*
X74440332Y-76432793D01*
X74526319Y-76490248D01*
X74621863Y-76529823D01*
X74723292Y-76549999D01*
X74728622Y-76549999D01*
X74182667Y-77095954D01*
X71023669Y-77095954D01*
X71008946Y-77094504D01*
X70994223Y-77095954D01*
X70994214Y-77095954D01*
X70950137Y-77100295D01*
X70893587Y-77117450D01*
X70874515Y-77127644D01*
X70841469Y-77145307D01*
X70807577Y-77173122D01*
X70795789Y-77182796D01*
X70786398Y-77194239D01*
X69902290Y-78078348D01*
X69890842Y-78087743D01*
X69880245Y-78100656D01*
X69853353Y-78133424D01*
X69841076Y-78156393D01*
X69825496Y-78185542D01*
X69808341Y-78242092D01*
X69804000Y-78286169D01*
X69804000Y-78286178D01*
X69802550Y-78300901D01*
X69804000Y-78315624D01*
X69804000Y-78626565D01*
X69769332Y-78649730D01*
X69696206Y-78722856D01*
X69638751Y-78808843D01*
X69599176Y-78904387D01*
X69579000Y-79005816D01*
X69579000Y-79109232D01*
X69599176Y-79210661D01*
X69638751Y-79306205D01*
X69696206Y-79392192D01*
X69769332Y-79465318D01*
X69855319Y-79522773D01*
X69950863Y-79562348D01*
X70052292Y-79582524D01*
X70155708Y-79582524D01*
X70257137Y-79562348D01*
X70352681Y-79522773D01*
X70438668Y-79465318D01*
X70511794Y-79392192D01*
X70569249Y-79306205D01*
X70608824Y-79210661D01*
X70629000Y-79109232D01*
X70629000Y-79016061D01*
X70660299Y-79016061D01*
X70660299Y-79109208D01*
X70680475Y-79210637D01*
X70720050Y-79306181D01*
X70777505Y-79392168D01*
X70850631Y-79465294D01*
X70936618Y-79522749D01*
X71032162Y-79562324D01*
X71133591Y-79582500D01*
X71237007Y-79582500D01*
X71338436Y-79562324D01*
X71433980Y-79522749D01*
X71519967Y-79465294D01*
X71593093Y-79392168D01*
X71650548Y-79306181D01*
X71690123Y-79210637D01*
X71710299Y-79109208D01*
X71710299Y-79102251D01*
X71809769Y-79122037D01*
X71913185Y-79122037D01*
X71992018Y-79106356D01*
X71992018Y-79109208D01*
X72012194Y-79210637D01*
X72051769Y-79306181D01*
X72109224Y-79392168D01*
X72182350Y-79465294D01*
X72268337Y-79522749D01*
X72363881Y-79562324D01*
X72465310Y-79582500D01*
X72568726Y-79582500D01*
X72670155Y-79562324D01*
X72765699Y-79522749D01*
X72851686Y-79465294D01*
X72924812Y-79392168D01*
X72982267Y-79306181D01*
X73021842Y-79210637D01*
X73042018Y-79109208D01*
X73042018Y-79005792D01*
X73033884Y-78964898D01*
X73039567Y-78959215D01*
X73039571Y-78959210D01*
X73102783Y-78895998D01*
X74837305Y-78895998D01*
X74852028Y-78897448D01*
X74866751Y-78895998D01*
X74866761Y-78895998D01*
X74910838Y-78891657D01*
X74967388Y-78874502D01*
X75019505Y-78846645D01*
X75065186Y-78809156D01*
X75074581Y-78797708D01*
X84772290Y-69100000D01*
X85134669Y-69100000D01*
X85130268Y-69101823D01*
X85019713Y-69175693D01*
X84925693Y-69269713D01*
X84851823Y-69380268D01*
X84800940Y-69503110D01*
X84775000Y-69633518D01*
X84775000Y-69766482D01*
X84800940Y-69896890D01*
X84851823Y-70019732D01*
X84925693Y-70130287D01*
X85019713Y-70224307D01*
X85130268Y-70298177D01*
X85253110Y-70349060D01*
X85383518Y-70375000D01*
X85516482Y-70375000D01*
X85646890Y-70349060D01*
X85769732Y-70298177D01*
X85880287Y-70224307D01*
X85974307Y-70130287D01*
X86048177Y-70019732D01*
X86099060Y-69896890D01*
X86125000Y-69766482D01*
X86125000Y-69633518D01*
X86099060Y-69503110D01*
X86048177Y-69380268D01*
X85974307Y-69269713D01*
X85880287Y-69175693D01*
X85769732Y-69101823D01*
X85765331Y-69100000D01*
X88369041Y-69100000D01*
X88392206Y-69134668D01*
X88465332Y-69207794D01*
X88500000Y-69230959D01*
X88500001Y-71775735D01*
X86938074Y-73337663D01*
X86926626Y-73347058D01*
X86911837Y-73365079D01*
X86889137Y-73392739D01*
X86884510Y-73401396D01*
X86861280Y-73444857D01*
X86844125Y-73501407D01*
X86839784Y-73545484D01*
X86839784Y-73545493D01*
X86838334Y-73560216D01*
X86839784Y-73574939D01*
X86839785Y-76893540D01*
X86838334Y-76908273D01*
X86844126Y-76967083D01*
X86861281Y-77023633D01*
X86889137Y-77075750D01*
X86917235Y-77109987D01*
X86926627Y-77121431D01*
X86938069Y-77130821D01*
X87883145Y-78075898D01*
X87875011Y-78116792D01*
X87875011Y-78220208D01*
X87895187Y-78321637D01*
X87934762Y-78417181D01*
X87992217Y-78503168D01*
X88065343Y-78576294D01*
X88151330Y-78633749D01*
X88246874Y-78673324D01*
X88348303Y-78693500D01*
X88451719Y-78693500D01*
X88553148Y-78673324D01*
X88648692Y-78633749D01*
X88734679Y-78576294D01*
X88772999Y-78537974D01*
X88773000Y-80056500D01*
X88721292Y-80056500D01*
X88619863Y-80076676D01*
X88524319Y-80116251D01*
X88438332Y-80173706D01*
X88365206Y-80246832D01*
X88307751Y-80332819D01*
X88268176Y-80428363D01*
X88248000Y-80529792D01*
X88248000Y-80633208D01*
X88268176Y-80734637D01*
X88307751Y-80830181D01*
X88365206Y-80916168D01*
X88438332Y-80989294D01*
X88524319Y-81046749D01*
X88619863Y-81086324D01*
X88721292Y-81106500D01*
X88824708Y-81106500D01*
X88926137Y-81086324D01*
X89021681Y-81046749D01*
X89107668Y-80989294D01*
X89180794Y-80916168D01*
X89238249Y-80830181D01*
X89250000Y-80801810D01*
X89250000Y-82539041D01*
X89215332Y-82562206D01*
X89142206Y-82635332D01*
X89084751Y-82721319D01*
X89045176Y-82816863D01*
X89025000Y-82918292D01*
X89025000Y-83021708D01*
X89045176Y-83123137D01*
X89084751Y-83218681D01*
X89142206Y-83304668D01*
X89215332Y-83377794D01*
X89301319Y-83435249D01*
X89396863Y-83474824D01*
X89498292Y-83495000D01*
X89601708Y-83495000D01*
X89703137Y-83474824D01*
X89798681Y-83435249D01*
X89884668Y-83377794D01*
X89957794Y-83304668D01*
X90015249Y-83218681D01*
X90054824Y-83123137D01*
X90075000Y-83021708D01*
X90075000Y-82918292D01*
X90054824Y-82816863D01*
X90015249Y-82721319D01*
X89957794Y-82635332D01*
X89884668Y-82562206D01*
X89850000Y-82539041D01*
X89850000Y-81247053D01*
X89921875Y-81276824D01*
X90023304Y-81297000D01*
X90126720Y-81297000D01*
X90228149Y-81276824D01*
X90323693Y-81237249D01*
X90409680Y-81179794D01*
X90482806Y-81106668D01*
X90540261Y-81020681D01*
X90579836Y-80925137D01*
X90600012Y-80823708D01*
X90600012Y-80720292D01*
X90579836Y-80618863D01*
X90540261Y-80523319D01*
X90490130Y-80448292D01*
X91225004Y-80448292D01*
X91225004Y-80551708D01*
X91245180Y-80653137D01*
X91284755Y-80748681D01*
X91342210Y-80834668D01*
X91415336Y-80907794D01*
X91501323Y-80965249D01*
X91596867Y-81004824D01*
X91698296Y-81025000D01*
X91801712Y-81025000D01*
X91903141Y-81004824D01*
X91998685Y-80965249D01*
X92084672Y-80907794D01*
X92157798Y-80834668D01*
X92180963Y-80800000D01*
X99619041Y-80800000D01*
X99642206Y-80834668D01*
X99715332Y-80907794D01*
X99801319Y-80965249D01*
X99896863Y-81004824D01*
X99998292Y-81025000D01*
X100101708Y-81025000D01*
X100203137Y-81004824D01*
X100298681Y-80965249D01*
X100384668Y-80907794D01*
X100457794Y-80834668D01*
X100515249Y-80748681D01*
X100554824Y-80653137D01*
X100575000Y-80551708D01*
X100575000Y-80448292D01*
X100554824Y-80346863D01*
X100515249Y-80251319D01*
X100457794Y-80165332D01*
X100384668Y-80092206D01*
X100298681Y-80034751D01*
X100203137Y-79995176D01*
X100101708Y-79975000D01*
X99998292Y-79975000D01*
X99968297Y-79980967D01*
X100286947Y-79662317D01*
X100331358Y-79662317D01*
X100354523Y-79696985D01*
X100427649Y-79770111D01*
X100513636Y-79827566D01*
X100609180Y-79867141D01*
X100710609Y-79887317D01*
X100814025Y-79887317D01*
X100915454Y-79867141D01*
X101010998Y-79827566D01*
X101096985Y-79770111D01*
X101170111Y-79696985D01*
X101227566Y-79610998D01*
X101267141Y-79515454D01*
X101287317Y-79414025D01*
X101287317Y-79310609D01*
X101267141Y-79209180D01*
X101227566Y-79113636D01*
X101170111Y-79027649D01*
X101096985Y-78954523D01*
X101010998Y-78897068D01*
X100915454Y-78857493D01*
X100814025Y-78837317D01*
X100710609Y-78837317D01*
X100609180Y-78857493D01*
X100513636Y-78897068D01*
X100427649Y-78954523D01*
X100354523Y-79027649D01*
X100331358Y-79062317D01*
X100177413Y-79062317D01*
X100162683Y-79060866D01*
X100147953Y-79062317D01*
X100147950Y-79062317D01*
X100103873Y-79066658D01*
X100048048Y-79083593D01*
X100047323Y-79083813D01*
X99995205Y-79111670D01*
X99960969Y-79139767D01*
X99949525Y-79149159D01*
X99940134Y-79160602D01*
X99200747Y-79899990D01*
X92945365Y-79899990D01*
X92929824Y-79821863D01*
X92890249Y-79726319D01*
X92832794Y-79640332D01*
X92759668Y-79567206D01*
X92673681Y-79509751D01*
X92578137Y-79470176D01*
X92476708Y-79450000D01*
X92373292Y-79450000D01*
X92271863Y-79470176D01*
X92176319Y-79509751D01*
X92090332Y-79567206D01*
X92017206Y-79640332D01*
X91959751Y-79726319D01*
X91920176Y-79821863D01*
X91900000Y-79923292D01*
X91900000Y-79994551D01*
X91801712Y-79975000D01*
X91698296Y-79975000D01*
X91596867Y-79995176D01*
X91501323Y-80034751D01*
X91415336Y-80092206D01*
X91342210Y-80165332D01*
X91284755Y-80251319D01*
X91245180Y-80346863D01*
X91225004Y-80448292D01*
X90490130Y-80448292D01*
X90482806Y-80437332D01*
X90409680Y-80364206D01*
X90375859Y-80341608D01*
X90374994Y-80332819D01*
X90370671Y-80288926D01*
X90353516Y-80232376D01*
X90349919Y-80225647D01*
X90325659Y-80180258D01*
X90297562Y-80146022D01*
X90297561Y-80146021D01*
X90288170Y-80134578D01*
X90276728Y-80125188D01*
X90150013Y-79998474D01*
X90150013Y-78616840D01*
X90175319Y-78633749D01*
X90270863Y-78673324D01*
X90372292Y-78693500D01*
X90475708Y-78693500D01*
X90577137Y-78673324D01*
X90672681Y-78633749D01*
X90758668Y-78576294D01*
X90831794Y-78503168D01*
X90889249Y-78417181D01*
X90915835Y-78352995D01*
X90934762Y-78398688D01*
X90992217Y-78484675D01*
X91065343Y-78557801D01*
X91151330Y-78615256D01*
X91246874Y-78654831D01*
X91348303Y-78675007D01*
X91451719Y-78675007D01*
X91553148Y-78654831D01*
X91648692Y-78615256D01*
X91734679Y-78557801D01*
X91807805Y-78484675D01*
X91848255Y-78424138D01*
X91886387Y-78481207D01*
X91959513Y-78554333D01*
X92045500Y-78611788D01*
X92141044Y-78651363D01*
X92242473Y-78671539D01*
X92345889Y-78671539D01*
X92447318Y-78651363D01*
X92542862Y-78611788D01*
X92628849Y-78554333D01*
X92695366Y-78487817D01*
X92765343Y-78557794D01*
X92851330Y-78615249D01*
X92946874Y-78654824D01*
X93048303Y-78675000D01*
X93151719Y-78675000D01*
X93253148Y-78654824D01*
X93348692Y-78615249D01*
X93434679Y-78557794D01*
X93507805Y-78484668D01*
X93525008Y-78458922D01*
X93542217Y-78484676D01*
X93615343Y-78557802D01*
X93701330Y-78615257D01*
X93796874Y-78654832D01*
X93898303Y-78675008D01*
X94001719Y-78675008D01*
X94103148Y-78654832D01*
X94198692Y-78615257D01*
X94284679Y-78557802D01*
X94325021Y-78517461D01*
X94365354Y-78557794D01*
X94451341Y-78615249D01*
X94546885Y-78654824D01*
X94648314Y-78675000D01*
X94751730Y-78675000D01*
X94853159Y-78654824D01*
X94948703Y-78615249D01*
X95034690Y-78557794D01*
X95075029Y-78517456D01*
X95115367Y-78557794D01*
X95201354Y-78615249D01*
X95296898Y-78654824D01*
X95398327Y-78675000D01*
X95501743Y-78675000D01*
X95603172Y-78654824D01*
X95698716Y-78615249D01*
X95784703Y-78557794D01*
X95857829Y-78484668D01*
X95915284Y-78398681D01*
X95954859Y-78303137D01*
X95975035Y-78201708D01*
X95975035Y-78198292D01*
X97425000Y-78198292D01*
X97425000Y-78301708D01*
X97445176Y-78403137D01*
X97484751Y-78498681D01*
X97542206Y-78584668D01*
X97615332Y-78657794D01*
X97701319Y-78715249D01*
X97796863Y-78754824D01*
X97898292Y-78775000D01*
X98001708Y-78775000D01*
X98103137Y-78754824D01*
X98198681Y-78715249D01*
X98284668Y-78657794D01*
X98357794Y-78584668D01*
X98380959Y-78550000D01*
X98835277Y-78550000D01*
X98850000Y-78551450D01*
X98864723Y-78550000D01*
X98864733Y-78550000D01*
X98908810Y-78545659D01*
X98965360Y-78528504D01*
X99017477Y-78500647D01*
X99063158Y-78463158D01*
X99072553Y-78451710D01*
X99628244Y-77896020D01*
X101244051Y-77896020D01*
X101267216Y-77930688D01*
X101340342Y-78003814D01*
X101426329Y-78061269D01*
X101521873Y-78100844D01*
X101623302Y-78121020D01*
X101726718Y-78121020D01*
X101828147Y-78100844D01*
X101923691Y-78061269D01*
X102009678Y-78003814D01*
X102082804Y-77930688D01*
X102140259Y-77844701D01*
X102179834Y-77749157D01*
X102200010Y-77647728D01*
X102200010Y-77544312D01*
X102179834Y-77442883D01*
X102140259Y-77347339D01*
X102082804Y-77261352D01*
X102009678Y-77188226D01*
X101923691Y-77130771D01*
X101828147Y-77091196D01*
X101726718Y-77071020D01*
X101623302Y-77071020D01*
X101521873Y-77091196D01*
X101426329Y-77130771D01*
X101340342Y-77188226D01*
X101267216Y-77261352D01*
X101244051Y-77296020D01*
X99518702Y-77296020D01*
X99503979Y-77294570D01*
X99489256Y-77296020D01*
X99489247Y-77296020D01*
X99445170Y-77300361D01*
X99388620Y-77317516D01*
X99374626Y-77324996D01*
X99336502Y-77345373D01*
X99325201Y-77354648D01*
X99290822Y-77382862D01*
X99281431Y-77394305D01*
X98725737Y-77950000D01*
X98380959Y-77950000D01*
X98357794Y-77915332D01*
X98284668Y-77842206D01*
X98198681Y-77784751D01*
X98103137Y-77745176D01*
X98001708Y-77725000D01*
X97898292Y-77725000D01*
X97796863Y-77745176D01*
X97701319Y-77784751D01*
X97615332Y-77842206D01*
X97542206Y-77915332D01*
X97484751Y-78001319D01*
X97445176Y-78096863D01*
X97425000Y-78198292D01*
X95975035Y-78198292D01*
X95975035Y-78098292D01*
X95966901Y-78057398D01*
X95972584Y-78051715D01*
X95972588Y-78051710D01*
X96351725Y-77672574D01*
X96363168Y-77663183D01*
X96375393Y-77648287D01*
X96400657Y-77617503D01*
X96423031Y-77575643D01*
X96428514Y-77565385D01*
X96445669Y-77508835D01*
X96450010Y-77464758D01*
X96450010Y-77464746D01*
X96451460Y-77450026D01*
X96450010Y-77435306D01*
X96450010Y-76388292D01*
X98655000Y-76388292D01*
X98655000Y-76491708D01*
X98675176Y-76593137D01*
X98714751Y-76688681D01*
X98772206Y-76774668D01*
X98845332Y-76847794D01*
X98931319Y-76905249D01*
X99026863Y-76944824D01*
X99128292Y-76965000D01*
X99231708Y-76965000D01*
X99333137Y-76944824D01*
X99428681Y-76905249D01*
X99514668Y-76847794D01*
X99587794Y-76774668D01*
X99637687Y-76699998D01*
X100879041Y-76699998D01*
X100902206Y-76734666D01*
X100975332Y-76807792D01*
X101061319Y-76865247D01*
X101156863Y-76904822D01*
X101258292Y-76924998D01*
X101361708Y-76924998D01*
X101463137Y-76904822D01*
X101558681Y-76865247D01*
X101644668Y-76807792D01*
X101717794Y-76734666D01*
X101775249Y-76648679D01*
X101814824Y-76553135D01*
X101835000Y-76451706D01*
X101835000Y-76348290D01*
X101814824Y-76246861D01*
X101775249Y-76151317D01*
X101717794Y-76065330D01*
X101644668Y-75992204D01*
X101558681Y-75934749D01*
X101463137Y-75895174D01*
X101361708Y-75874998D01*
X101258292Y-75874998D01*
X101156863Y-75895174D01*
X101061319Y-75934749D01*
X100975332Y-75992204D01*
X100902206Y-76065330D01*
X100879041Y-76099998D01*
X99582460Y-76099998D01*
X99514668Y-76032206D01*
X99428681Y-75974751D01*
X99333137Y-75935176D01*
X99231708Y-75915000D01*
X99128292Y-75915000D01*
X99026863Y-75935176D01*
X98931319Y-75974751D01*
X98845332Y-76032206D01*
X98772206Y-76105332D01*
X98714751Y-76191319D01*
X98675176Y-76286863D01*
X98655000Y-76388292D01*
X96450010Y-76388292D01*
X96450010Y-75914732D01*
X96451460Y-75900009D01*
X96450010Y-75885286D01*
X96450010Y-75885277D01*
X96445669Y-75841200D01*
X96428514Y-75784650D01*
X96410602Y-75751138D01*
X96400657Y-75732532D01*
X96372559Y-75698295D01*
X96363168Y-75686852D01*
X96351726Y-75677462D01*
X95839999Y-75165736D01*
X95839999Y-74980279D01*
X96372449Y-74980279D01*
X96372449Y-75083695D01*
X96392625Y-75185124D01*
X96432200Y-75280668D01*
X96489655Y-75366655D01*
X96562781Y-75439781D01*
X96648768Y-75497236D01*
X96744312Y-75536811D01*
X96845741Y-75556987D01*
X96890115Y-75556987D01*
X96890115Y-75626689D01*
X96910291Y-75728118D01*
X96949866Y-75823662D01*
X97007321Y-75909649D01*
X97080447Y-75982775D01*
X97166434Y-76040230D01*
X97261978Y-76079805D01*
X97363407Y-76099981D01*
X97466823Y-76099981D01*
X97568252Y-76079805D01*
X97663796Y-76040230D01*
X97749783Y-75982775D01*
X97789288Y-75943270D01*
X97792206Y-75947636D01*
X97865332Y-76020762D01*
X97951319Y-76078217D01*
X98046863Y-76117792D01*
X98148292Y-76137968D01*
X98251708Y-76137968D01*
X98353137Y-76117792D01*
X98448681Y-76078217D01*
X98534668Y-76020762D01*
X98607794Y-75947636D01*
X98665249Y-75861649D01*
X98704824Y-75766105D01*
X98725000Y-75664676D01*
X98725000Y-75561260D01*
X98704824Y-75459831D01*
X98665249Y-75364287D01*
X98607794Y-75278300D01*
X98534668Y-75205174D01*
X98500000Y-75182009D01*
X98500000Y-74474263D01*
X98566663Y-74407600D01*
X98604262Y-74415079D01*
X98707678Y-74415079D01*
X98809107Y-74394903D01*
X98904651Y-74355328D01*
X98990638Y-74297873D01*
X99063764Y-74224747D01*
X99121219Y-74138760D01*
X99160794Y-74043216D01*
X99180970Y-73941787D01*
X99180970Y-73838371D01*
X99160794Y-73736942D01*
X99121219Y-73641398D01*
X99063764Y-73555411D01*
X98990638Y-73482285D01*
X98904651Y-73424830D01*
X98809107Y-73385255D01*
X98707678Y-73365079D01*
X98604262Y-73365079D01*
X98502833Y-73385255D01*
X98407289Y-73424830D01*
X98321302Y-73482285D01*
X98277080Y-73526508D01*
X98240667Y-73490095D01*
X98154680Y-73432640D01*
X98059136Y-73393065D01*
X97957707Y-73372889D01*
X97854291Y-73372889D01*
X97752862Y-73393065D01*
X97657318Y-73432640D01*
X97571331Y-73490095D01*
X97498205Y-73563221D01*
X97477294Y-73594516D01*
X97457794Y-73565332D01*
X97384668Y-73492206D01*
X97298681Y-73434751D01*
X97203137Y-73395176D01*
X97101708Y-73375000D01*
X96998292Y-73375000D01*
X96896863Y-73395176D01*
X96801319Y-73434751D01*
X96715332Y-73492206D01*
X96642206Y-73565332D01*
X96584751Y-73651319D01*
X96545176Y-73746863D01*
X96525000Y-73848292D01*
X96525000Y-73951708D01*
X96545176Y-74053137D01*
X96584751Y-74148681D01*
X96642206Y-74234668D01*
X96715332Y-74307794D01*
X96750000Y-74330959D01*
X96750001Y-74526031D01*
X96744312Y-74527163D01*
X96648768Y-74566738D01*
X96562781Y-74624193D01*
X96489655Y-74697319D01*
X96432200Y-74783306D01*
X96392625Y-74878850D01*
X96372449Y-74980279D01*
X95839999Y-74980279D01*
X95839999Y-73258381D01*
X98373338Y-70725044D01*
X99784497Y-70725044D01*
X99799220Y-70726494D01*
X99813943Y-70725044D01*
X99813953Y-70725044D01*
X99858030Y-70720703D01*
X99914580Y-70703548D01*
X99966697Y-70675691D01*
X100012378Y-70638202D01*
X100021773Y-70626754D01*
X101015009Y-69633518D01*
X101475000Y-69633518D01*
X101475000Y-69766482D01*
X101500940Y-69896890D01*
X101551823Y-70019732D01*
X101625693Y-70130287D01*
X101719713Y-70224307D01*
X101830268Y-70298177D01*
X101953110Y-70349060D01*
X102083518Y-70375000D01*
X102216482Y-70375000D01*
X102346890Y-70349060D01*
X102469732Y-70298177D01*
X102580287Y-70224307D01*
X102674307Y-70130287D01*
X102748177Y-70019732D01*
X102799060Y-69896890D01*
X102825000Y-69766482D01*
X102825000Y-69633518D01*
X102799060Y-69503110D01*
X102748177Y-69380268D01*
X102674307Y-69269713D01*
X102580287Y-69175693D01*
X102469732Y-69101823D01*
X102346890Y-69050940D01*
X102216482Y-69025000D01*
X102083518Y-69025000D01*
X101953110Y-69050940D01*
X101830268Y-69101823D01*
X101719713Y-69175693D01*
X101625693Y-69269713D01*
X101551823Y-69380268D01*
X101500940Y-69503110D01*
X101475000Y-69633518D01*
X101015009Y-69633518D01*
X101201715Y-69446813D01*
X101213158Y-69437422D01*
X101222549Y-69425979D01*
X101250647Y-69391742D01*
X101276129Y-69344067D01*
X101278504Y-69339624D01*
X101295659Y-69283074D01*
X101300000Y-69238997D01*
X101300000Y-69238988D01*
X101300846Y-69230393D01*
X101334668Y-69207794D01*
X101407794Y-69134668D01*
X101465249Y-69048681D01*
X101504824Y-68953137D01*
X101525000Y-68851708D01*
X101525000Y-68748292D01*
X101504824Y-68646863D01*
X101465249Y-68551319D01*
X101407794Y-68465332D01*
X101334668Y-68392206D01*
X101300847Y-68369608D01*
X101299793Y-68358904D01*
X101295659Y-68316926D01*
X101278504Y-68260376D01*
X101278504Y-68260375D01*
X101250647Y-68208258D01*
X101222550Y-68174021D01*
X101222544Y-68174015D01*
X101213158Y-68162578D01*
X101201721Y-68153192D01*
X95846817Y-62798290D01*
X95837422Y-62786842D01*
X95791741Y-62749353D01*
X95739624Y-62721496D01*
X95683074Y-62704341D01*
X95638997Y-62700000D01*
X95638987Y-62700000D01*
X95624264Y-62698550D01*
X95609541Y-62700000D01*
X82777709Y-62700000D01*
X82762979Y-62698549D01*
X82748249Y-62700000D01*
X82748246Y-62700000D01*
X82704169Y-62704341D01*
X82660780Y-62717503D01*
X82647618Y-62721496D01*
X82595501Y-62749353D01*
X82561264Y-62777450D01*
X82561258Y-62777456D01*
X82549821Y-62786842D01*
X82540435Y-62798279D01*
X80750000Y-64588714D01*
X80750000Y-61742386D01*
X80763566Y-61739688D01*
X80959203Y-61658652D01*
X81135272Y-61541007D01*
X81285007Y-61391272D01*
X81402652Y-61215203D01*
X81483688Y-61019566D01*
X81525000Y-60811878D01*
X81525000Y-60600122D01*
X81915000Y-60600122D01*
X81915000Y-60811878D01*
X81956312Y-61019566D01*
X82037348Y-61215203D01*
X82154993Y-61391272D01*
X82304728Y-61541007D01*
X82480797Y-61658652D01*
X82676434Y-61739688D01*
X82884122Y-61781000D01*
X83095878Y-61781000D01*
X83303566Y-61739688D01*
X83499203Y-61658652D01*
X83675272Y-61541007D01*
X83825007Y-61391272D01*
X83942652Y-61215203D01*
X84023688Y-61019566D01*
X84065000Y-60811878D01*
X84065000Y-60600122D01*
X84455000Y-60600122D01*
X84455000Y-60811878D01*
X84496312Y-61019566D01*
X84577348Y-61215203D01*
X84694993Y-61391272D01*
X84844728Y-61541007D01*
X85020797Y-61658652D01*
X85216434Y-61739688D01*
X85424122Y-61781000D01*
X85635878Y-61781000D01*
X85843566Y-61739688D01*
X86039203Y-61658652D01*
X86215272Y-61541007D01*
X86365007Y-61391272D01*
X86482652Y-61215203D01*
X86563688Y-61019566D01*
X86605000Y-60811878D01*
X86605000Y-60600122D01*
X86995000Y-60600122D01*
X86995000Y-60811878D01*
X87036312Y-61019566D01*
X87117348Y-61215203D01*
X87234993Y-61391272D01*
X87384728Y-61541007D01*
X87560797Y-61658652D01*
X87756434Y-61739688D01*
X87964122Y-61781000D01*
X88175878Y-61781000D01*
X88383566Y-61739688D01*
X88579203Y-61658652D01*
X88755272Y-61541007D01*
X88905007Y-61391272D01*
X89022652Y-61215203D01*
X89103688Y-61019566D01*
X89145000Y-60811878D01*
X89145000Y-60600122D01*
X89535000Y-60600122D01*
X89535000Y-60811878D01*
X89576312Y-61019566D01*
X89657348Y-61215203D01*
X89774993Y-61391272D01*
X89924728Y-61541007D01*
X90100797Y-61658652D01*
X90296434Y-61739688D01*
X90504122Y-61781000D01*
X90715878Y-61781000D01*
X90923566Y-61739688D01*
X91119203Y-61658652D01*
X91295272Y-61541007D01*
X91445007Y-61391272D01*
X91562652Y-61215203D01*
X91643688Y-61019566D01*
X91685000Y-60811878D01*
X91685000Y-60600122D01*
X92075000Y-60600122D01*
X92075000Y-60811878D01*
X92116312Y-61019566D01*
X92197348Y-61215203D01*
X92314993Y-61391272D01*
X92464728Y-61541007D01*
X92640797Y-61658652D01*
X92836434Y-61739688D01*
X93044122Y-61781000D01*
X93255878Y-61781000D01*
X93463566Y-61739688D01*
X93659203Y-61658652D01*
X93835272Y-61541007D01*
X93985007Y-61391272D01*
X94102652Y-61215203D01*
X94183688Y-61019566D01*
X94225000Y-60811878D01*
X94225000Y-60600122D01*
X94615000Y-60600122D01*
X94615000Y-60811878D01*
X94656312Y-61019566D01*
X94737348Y-61215203D01*
X94854993Y-61391272D01*
X95004728Y-61541007D01*
X95180797Y-61658652D01*
X95376434Y-61739688D01*
X95584122Y-61781000D01*
X95795878Y-61781000D01*
X96003566Y-61739688D01*
X96199203Y-61658652D01*
X96210704Y-61650967D01*
X98717484Y-64157749D01*
X98726870Y-64169186D01*
X98738307Y-64178572D01*
X98738313Y-64178578D01*
X98772550Y-64206675D01*
X98800382Y-64221551D01*
X98824668Y-64234532D01*
X98881218Y-64251687D01*
X98925295Y-64256028D01*
X98925298Y-64256028D01*
X98940028Y-64257479D01*
X98954758Y-64256028D01*
X102353209Y-64256028D01*
X103599981Y-65502801D01*
X103599980Y-78698752D01*
X102730659Y-79568074D01*
X102719217Y-79577464D01*
X102709826Y-79588907D01*
X102709825Y-79588908D01*
X102681727Y-79623145D01*
X102653871Y-79675262D01*
X102636716Y-79731812D01*
X102630924Y-79790622D01*
X102632375Y-79805354D01*
X102632375Y-79859263D01*
X102597706Y-79882428D01*
X102524580Y-79955554D01*
X102467125Y-80041541D01*
X102427550Y-80137085D01*
X102407374Y-80238514D01*
X102407374Y-80341930D01*
X102427550Y-80443359D01*
X102467125Y-80538903D01*
X102524580Y-80624890D01*
X102597706Y-80698016D01*
X102683693Y-80755471D01*
X102779237Y-80795046D01*
X102880666Y-80815222D01*
X102984082Y-80815222D01*
X103085511Y-80795046D01*
X103181055Y-80755471D01*
X103267042Y-80698016D01*
X103340168Y-80624890D01*
X103397623Y-80538903D01*
X103437198Y-80443359D01*
X103457374Y-80341930D01*
X103457374Y-80267758D01*
X103546861Y-80304824D01*
X103648290Y-80325000D01*
X103751706Y-80325000D01*
X103853135Y-80304824D01*
X103948679Y-80265249D01*
X103975145Y-80247565D01*
X103975000Y-80248292D01*
X103975000Y-80351708D01*
X103995176Y-80453137D01*
X104034751Y-80548681D01*
X104092206Y-80634668D01*
X104165332Y-80707794D01*
X104251319Y-80765249D01*
X104346863Y-80804824D01*
X104448292Y-80825000D01*
X104551708Y-80825000D01*
X104653137Y-80804824D01*
X104748681Y-80765249D01*
X104834668Y-80707794D01*
X104907794Y-80634668D01*
X104965249Y-80548681D01*
X105004824Y-80453137D01*
X105025000Y-80351708D01*
X105025000Y-80248292D01*
X105024855Y-80247564D01*
X105051323Y-80265249D01*
X105146867Y-80304824D01*
X105248296Y-80325000D01*
X105351712Y-80325000D01*
X105453141Y-80304824D01*
X105548685Y-80265249D01*
X105634672Y-80207794D01*
X105707798Y-80134668D01*
X105765253Y-80048681D01*
X105804828Y-79953137D01*
X105825004Y-79851708D01*
X105825004Y-79748292D01*
X105804828Y-79646863D01*
X105765253Y-79551319D01*
X105707798Y-79465332D01*
X105634672Y-79392206D01*
X105548685Y-79334751D01*
X105453141Y-79295176D01*
X105351712Y-79275000D01*
X105248296Y-79275000D01*
X105207402Y-79283135D01*
X105100010Y-79175743D01*
X105100010Y-64964732D01*
X105101460Y-64950009D01*
X105100010Y-64935286D01*
X105100010Y-64935277D01*
X105095669Y-64891200D01*
X105078514Y-64834650D01*
X105062355Y-64804418D01*
X105050657Y-64782532D01*
X105022559Y-64748295D01*
X105013168Y-64736852D01*
X105001725Y-64727461D01*
X103610000Y-63335737D01*
X103610000Y-61742386D01*
X103623566Y-61739688D01*
X103819203Y-61658652D01*
X103995272Y-61541007D01*
X104145007Y-61391272D01*
X104262652Y-61215203D01*
X104343688Y-61019566D01*
X104371627Y-60879104D01*
X104789028Y-60879104D01*
X104843185Y-61082763D01*
X104936033Y-61271943D01*
X105064005Y-61439375D01*
X105222182Y-61578623D01*
X105404486Y-61684337D01*
X105603911Y-61752454D01*
X105676896Y-61766971D01*
X105845000Y-61724738D01*
X105845000Y-60711000D01*
X105855000Y-60711000D01*
X105855000Y-61724738D01*
X106023104Y-61766971D01*
X106096089Y-61752454D01*
X106295514Y-61684337D01*
X106477818Y-61578623D01*
X106635995Y-61439375D01*
X106763967Y-61271943D01*
X106856815Y-61082763D01*
X106910972Y-60879104D01*
X106868739Y-60711000D01*
X105855000Y-60711000D01*
X105845000Y-60711000D01*
X104831261Y-60711000D01*
X104789028Y-60879104D01*
X104371627Y-60879104D01*
X104385000Y-60811878D01*
X104385000Y-60600122D01*
X104371628Y-60532896D01*
X104789028Y-60532896D01*
X104831261Y-60701000D01*
X105845000Y-60701000D01*
X105845000Y-59687262D01*
X105855000Y-59687262D01*
X105855000Y-60701000D01*
X106868739Y-60701000D01*
X106910972Y-60532896D01*
X106856815Y-60329237D01*
X106763967Y-60140057D01*
X106635995Y-59972625D01*
X106477818Y-59833377D01*
X106295514Y-59727663D01*
X106096089Y-59659546D01*
X106023104Y-59645029D01*
X105855000Y-59687262D01*
X105845000Y-59687262D01*
X105676896Y-59645029D01*
X105603911Y-59659546D01*
X105404486Y-59727663D01*
X105222182Y-59833377D01*
X105064005Y-59972625D01*
X104936033Y-60140057D01*
X104843185Y-60329237D01*
X104789028Y-60532896D01*
X104371628Y-60532896D01*
X104343688Y-60392434D01*
X104262652Y-60196797D01*
X104145007Y-60020728D01*
X103995272Y-59870993D01*
X103819203Y-59753348D01*
X103623566Y-59672312D01*
X103415878Y-59631000D01*
X103204122Y-59631000D01*
X102996434Y-59672312D01*
X102800797Y-59753348D01*
X102624728Y-59870993D01*
X102474993Y-60020728D01*
X102357348Y-60196797D01*
X102276312Y-60392434D01*
X102235000Y-60600122D01*
X102235000Y-60811878D01*
X102276312Y-61019566D01*
X102357348Y-61215203D01*
X102474993Y-61391272D01*
X102624728Y-61541007D01*
X102800797Y-61658652D01*
X102996434Y-61739688D01*
X103010001Y-61742387D01*
X103010000Y-62521736D01*
X101714967Y-61226704D01*
X101722652Y-61215203D01*
X101803688Y-61019566D01*
X101845000Y-60811878D01*
X101845000Y-60600122D01*
X101803688Y-60392434D01*
X101722652Y-60196797D01*
X101605007Y-60020728D01*
X101455272Y-59870993D01*
X101279203Y-59753348D01*
X101083566Y-59672312D01*
X100875878Y-59631000D01*
X100664122Y-59631000D01*
X100456434Y-59672312D01*
X100260797Y-59753348D01*
X100084728Y-59870993D01*
X99934993Y-60020728D01*
X99817348Y-60196797D01*
X99736312Y-60392434D01*
X99695000Y-60600122D01*
X99695000Y-60811878D01*
X99736312Y-61019566D01*
X99817348Y-61215203D01*
X99934993Y-61391272D01*
X100024722Y-61481001D01*
X99429265Y-61481001D01*
X99302552Y-61354289D01*
X99302548Y-61354284D01*
X99174968Y-61226704D01*
X99182652Y-61215203D01*
X99263688Y-61019566D01*
X99305000Y-60811878D01*
X99305000Y-60600122D01*
X99263688Y-60392434D01*
X99182652Y-60196797D01*
X99065007Y-60020728D01*
X98915272Y-59870993D01*
X98739203Y-59753348D01*
X98543566Y-59672312D01*
X98335878Y-59631000D01*
X98124122Y-59631000D01*
X97916434Y-59672312D01*
X97720797Y-59753348D01*
X97544728Y-59870993D01*
X97394993Y-60020728D01*
X97277348Y-60196797D01*
X97196312Y-60392434D01*
X97155000Y-60600122D01*
X97155000Y-60811878D01*
X97196312Y-61019566D01*
X97277348Y-61215203D01*
X97394993Y-61391272D01*
X97544728Y-61541007D01*
X97720797Y-61658652D01*
X97916434Y-61739688D01*
X98124122Y-61781000D01*
X98335878Y-61781000D01*
X98543566Y-61739688D01*
X98739203Y-61658652D01*
X98750704Y-61650968D01*
X98878284Y-61778548D01*
X98878289Y-61778552D01*
X99082451Y-61982715D01*
X99091843Y-61994159D01*
X99103286Y-62003550D01*
X99137523Y-62031648D01*
X99147239Y-62036841D01*
X99189641Y-62059505D01*
X99246191Y-62076660D01*
X99290268Y-62081001D01*
X99290271Y-62081001D01*
X99305001Y-62082452D01*
X99319731Y-62081001D01*
X100602460Y-62081001D01*
X102177486Y-63656028D01*
X99064293Y-63656028D01*
X96634967Y-61226704D01*
X96642652Y-61215203D01*
X96723688Y-61019566D01*
X96765000Y-60811878D01*
X96765000Y-60600122D01*
X96723688Y-60392434D01*
X96642652Y-60196797D01*
X96525007Y-60020728D01*
X96375272Y-59870993D01*
X96199203Y-59753348D01*
X96003566Y-59672312D01*
X95795878Y-59631000D01*
X95584122Y-59631000D01*
X95376434Y-59672312D01*
X95180797Y-59753348D01*
X95004728Y-59870993D01*
X94854993Y-60020728D01*
X94737348Y-60196797D01*
X94656312Y-60392434D01*
X94615000Y-60600122D01*
X94225000Y-60600122D01*
X94183688Y-60392434D01*
X94102652Y-60196797D01*
X93985007Y-60020728D01*
X93835272Y-59870993D01*
X93659203Y-59753348D01*
X93463566Y-59672312D01*
X93255878Y-59631000D01*
X93044122Y-59631000D01*
X92836434Y-59672312D01*
X92640797Y-59753348D01*
X92464728Y-59870993D01*
X92314993Y-60020728D01*
X92197348Y-60196797D01*
X92116312Y-60392434D01*
X92075000Y-60600122D01*
X91685000Y-60600122D01*
X91643688Y-60392434D01*
X91562652Y-60196797D01*
X91445007Y-60020728D01*
X91295272Y-59870993D01*
X91119203Y-59753348D01*
X90923566Y-59672312D01*
X90715878Y-59631000D01*
X90504122Y-59631000D01*
X90296434Y-59672312D01*
X90100797Y-59753348D01*
X89924728Y-59870993D01*
X89774993Y-60020728D01*
X89657348Y-60196797D01*
X89576312Y-60392434D01*
X89535000Y-60600122D01*
X89145000Y-60600122D01*
X89103688Y-60392434D01*
X89022652Y-60196797D01*
X88905007Y-60020728D01*
X88755272Y-59870993D01*
X88579203Y-59753348D01*
X88383566Y-59672312D01*
X88175878Y-59631000D01*
X87964122Y-59631000D01*
X87756434Y-59672312D01*
X87560797Y-59753348D01*
X87384728Y-59870993D01*
X87234993Y-60020728D01*
X87117348Y-60196797D01*
X87036312Y-60392434D01*
X86995000Y-60600122D01*
X86605000Y-60600122D01*
X86563688Y-60392434D01*
X86482652Y-60196797D01*
X86365007Y-60020728D01*
X86215272Y-59870993D01*
X86039203Y-59753348D01*
X85843566Y-59672312D01*
X85635878Y-59631000D01*
X85424122Y-59631000D01*
X85216434Y-59672312D01*
X85020797Y-59753348D01*
X84844728Y-59870993D01*
X84694993Y-60020728D01*
X84577348Y-60196797D01*
X84496312Y-60392434D01*
X84455000Y-60600122D01*
X84065000Y-60600122D01*
X84023688Y-60392434D01*
X83942652Y-60196797D01*
X83825007Y-60020728D01*
X83675272Y-59870993D01*
X83499203Y-59753348D01*
X83303566Y-59672312D01*
X83095878Y-59631000D01*
X82884122Y-59631000D01*
X82676434Y-59672312D01*
X82480797Y-59753348D01*
X82304728Y-59870993D01*
X82154993Y-60020728D01*
X82037348Y-60196797D01*
X81956312Y-60392434D01*
X81915000Y-60600122D01*
X81525000Y-60600122D01*
X81483688Y-60392434D01*
X81402652Y-60196797D01*
X81285007Y-60020728D01*
X81135272Y-59870993D01*
X80959203Y-59753348D01*
X80763566Y-59672312D01*
X80555878Y-59631000D01*
X80344122Y-59631000D01*
X80136434Y-59672312D01*
X79940797Y-59753348D01*
X79764728Y-59870993D01*
X79614993Y-60020728D01*
X79497348Y-60196797D01*
X79416312Y-60392434D01*
X79375000Y-60600122D01*
X79375000Y-60811878D01*
X79416312Y-61019566D01*
X79497348Y-61215203D01*
X79614993Y-61391272D01*
X79764728Y-61541007D01*
X79940797Y-61658652D01*
X80136434Y-61739688D01*
X80150000Y-61742386D01*
X80150001Y-64750735D01*
X75206248Y-69694489D01*
X74990729Y-69694489D01*
X74975999Y-69693038D01*
X74961269Y-69694489D01*
X74961266Y-69694489D01*
X74917189Y-69698830D01*
X74860639Y-69715985D01*
X74844826Y-69724437D01*
X78961714Y-65607550D01*
X78973157Y-65598159D01*
X78992366Y-65574753D01*
X79010646Y-65552479D01*
X79030677Y-65515002D01*
X79038503Y-65500361D01*
X79055658Y-65443811D01*
X79059999Y-65399734D01*
X79059999Y-65399725D01*
X79061449Y-65385002D01*
X79059999Y-65370279D01*
X79059999Y-62264721D01*
X79061449Y-62249998D01*
X79059999Y-62235275D01*
X79059999Y-62235266D01*
X79055658Y-62191189D01*
X79038503Y-62134639D01*
X79010647Y-62082523D01*
X79010646Y-62082521D01*
X78982548Y-62048284D01*
X78973157Y-62036841D01*
X78961715Y-62027451D01*
X78523336Y-61589073D01*
X78595272Y-61541007D01*
X78745007Y-61391272D01*
X78862652Y-61215203D01*
X78943688Y-61019566D01*
X78985000Y-60811878D01*
X78985000Y-60600122D01*
X78943688Y-60392434D01*
X78862652Y-60196797D01*
X78745007Y-60020728D01*
X78595272Y-59870993D01*
X78419203Y-59753348D01*
X78223566Y-59672312D01*
X78015878Y-59631000D01*
X77804122Y-59631000D01*
X77596434Y-59672312D01*
X77400797Y-59753348D01*
X77224728Y-59870993D01*
X77074993Y-60020728D01*
X76957348Y-60196797D01*
X76876312Y-60392434D01*
X76835000Y-60600122D01*
X76835000Y-60811878D01*
X76876312Y-61019566D01*
X76957348Y-61215203D01*
X77074993Y-61391272D01*
X77224728Y-61541007D01*
X77400797Y-61658652D01*
X77596434Y-61739688D01*
X77804122Y-61781000D01*
X77866737Y-61781000D01*
X78459999Y-62374263D01*
X78460000Y-65260736D01*
X73948791Y-69771946D01*
X73948785Y-69771951D01*
X73943102Y-69777634D01*
X73902208Y-69769500D01*
X73798792Y-69769500D01*
X73697363Y-69789676D01*
X73601819Y-69829251D01*
X73515832Y-69886706D01*
X73442706Y-69959832D01*
X73385251Y-70045819D01*
X73345676Y-70141363D01*
X73325500Y-70242792D01*
X73325500Y-70346208D01*
X73337799Y-70408035D01*
X73322553Y-70392790D01*
X73322549Y-70392785D01*
X73316866Y-70387102D01*
X73325000Y-70346208D01*
X73325000Y-70242792D01*
X73304824Y-70141363D01*
X73265249Y-70045819D01*
X73207794Y-69959832D01*
X73134668Y-69886706D01*
X73048681Y-69829251D01*
X72953137Y-69789676D01*
X72851708Y-69769500D01*
X72748292Y-69769500D01*
X72646863Y-69789676D01*
X72551319Y-69829251D01*
X72465332Y-69886706D01*
X72392206Y-69959832D01*
X72334751Y-70045819D01*
X72295176Y-70141363D01*
X72275000Y-70242792D01*
X72275000Y-70346208D01*
X72278407Y-70363338D01*
X72188954Y-70363338D01*
X72089490Y-70383123D01*
X72089490Y-70306292D01*
X72069314Y-70204863D01*
X72029739Y-70109319D01*
X71972284Y-70023332D01*
X71899158Y-69950206D01*
X71813171Y-69892751D01*
X71717627Y-69853176D01*
X71616198Y-69833000D01*
X71512782Y-69833000D01*
X71411353Y-69853176D01*
X71315809Y-69892751D01*
X71229822Y-69950206D01*
X71156696Y-70023332D01*
X71099241Y-70109319D01*
X71059666Y-70204863D01*
X71039490Y-70306292D01*
X71039490Y-70409708D01*
X71059666Y-70511137D01*
X71099241Y-70606681D01*
X71156696Y-70692668D01*
X71229822Y-70765794D01*
X71264490Y-70788959D01*
X71264490Y-70974445D01*
X71263040Y-70989168D01*
X71264490Y-71003891D01*
X71264490Y-71003900D01*
X71268831Y-71047977D01*
X71269743Y-71050984D01*
X70817049Y-70598290D01*
X70807654Y-70586842D01*
X70761973Y-70549353D01*
X70709856Y-70521496D01*
X70653306Y-70504341D01*
X70609229Y-70500000D01*
X70609219Y-70500000D01*
X70594496Y-70498550D01*
X70579773Y-70500000D01*
X69580959Y-70500000D01*
X69557794Y-70465332D01*
X69484668Y-70392206D01*
X69398681Y-70334751D01*
X69303137Y-70295176D01*
X69201708Y-70275000D01*
X69098292Y-70275000D01*
X68996863Y-70295176D01*
X68901319Y-70334751D01*
X68815332Y-70392206D01*
X68742206Y-70465332D01*
X68684751Y-70551319D01*
X68645176Y-70646863D01*
X68625000Y-70748292D01*
X60300000Y-70748292D01*
X60300000Y-68333162D01*
X60335885Y-68454093D01*
X60411259Y-68597187D01*
X60513101Y-68722827D01*
X60637497Y-68826184D01*
X60779667Y-68903287D01*
X60934147Y-68951172D01*
X61095000Y-68968000D01*
X61445000Y-68968000D01*
X61445000Y-68148000D01*
X61455000Y-68148000D01*
X61455000Y-68968000D01*
X61805000Y-68968000D01*
X61965853Y-68951172D01*
X62120333Y-68903287D01*
X62262503Y-68826184D01*
X62386899Y-68722827D01*
X62488741Y-68597187D01*
X62564115Y-68454093D01*
X62610124Y-68299044D01*
X62614046Y-68276995D01*
X62568734Y-68148000D01*
X61455000Y-68148000D01*
X61445000Y-68148000D01*
X61425000Y-68148000D01*
X61425000Y-68138000D01*
X61445000Y-68138000D01*
X61445000Y-67318000D01*
X61455000Y-67318000D01*
X61455000Y-68138000D01*
X62568734Y-68138000D01*
X62614046Y-68009005D01*
X62610124Y-67986956D01*
X62564115Y-67831907D01*
X62537697Y-67781753D01*
X63518318Y-67781753D01*
X63592955Y-67918213D01*
X63754894Y-68011992D01*
X63932018Y-68072375D01*
X64117518Y-68097044D01*
X64304267Y-68085049D01*
X64485088Y-68036852D01*
X64653032Y-67954305D01*
X64707045Y-67918213D01*
X64781682Y-67781753D01*
X64150000Y-67150071D01*
X63518318Y-67781753D01*
X62537697Y-67781753D01*
X62488741Y-67688813D01*
X62386899Y-67563173D01*
X62262503Y-67459816D01*
X62120333Y-67382713D01*
X61965853Y-67334828D01*
X61805000Y-67318000D01*
X61455000Y-67318000D01*
X61445000Y-67318000D01*
X61095000Y-67318000D01*
X60934147Y-67334828D01*
X60779667Y-67382713D01*
X60637497Y-67459816D01*
X60513101Y-67563173D01*
X60411259Y-67688813D01*
X60335885Y-67831907D01*
X60300000Y-67952838D01*
X60300000Y-67110518D01*
X63195956Y-67110518D01*
X63207951Y-67297267D01*
X63256148Y-67478088D01*
X63338695Y-67646032D01*
X63374787Y-67700045D01*
X63511247Y-67774682D01*
X64142929Y-67143000D01*
X64157071Y-67143000D01*
X64788753Y-67774682D01*
X64925213Y-67700045D01*
X65018992Y-67538106D01*
X65079375Y-67360982D01*
X65104044Y-67175482D01*
X65092049Y-66988733D01*
X65043852Y-66807912D01*
X64961305Y-66639968D01*
X64925213Y-66585955D01*
X64788753Y-66511318D01*
X64157071Y-67143000D01*
X64142929Y-67143000D01*
X63511247Y-66511318D01*
X63374787Y-66585955D01*
X63281008Y-66747894D01*
X63220625Y-66925018D01*
X63195956Y-67110518D01*
X60300000Y-67110518D01*
X60300000Y-66504247D01*
X63518318Y-66504247D01*
X64150000Y-67135929D01*
X64781682Y-66504247D01*
X64707045Y-66367787D01*
X64545106Y-66274008D01*
X64367982Y-66213625D01*
X64182482Y-66188956D01*
X63995733Y-66200951D01*
X63814912Y-66249148D01*
X63646968Y-66331695D01*
X63592955Y-66367787D01*
X63518318Y-66504247D01*
X60300000Y-66504247D01*
X60300000Y-65035792D01*
X65070500Y-65035792D01*
X65070500Y-65139208D01*
X65090676Y-65240637D01*
X65130251Y-65336181D01*
X65187706Y-65422168D01*
X65260832Y-65495294D01*
X65295500Y-65518459D01*
X65295501Y-66423037D01*
X65251206Y-66467332D01*
X65193751Y-66553319D01*
X65154176Y-66648863D01*
X65134000Y-66750292D01*
X65134000Y-66853708D01*
X65154176Y-66955137D01*
X65193751Y-67050681D01*
X65251206Y-67136668D01*
X65324332Y-67209794D01*
X65410319Y-67267249D01*
X65505863Y-67306824D01*
X65607292Y-67327000D01*
X65710708Y-67327000D01*
X65812137Y-67306824D01*
X65907681Y-67267249D01*
X65993668Y-67209794D01*
X66034002Y-67169461D01*
X66074335Y-67209794D01*
X66160322Y-67267249D01*
X66255866Y-67306824D01*
X66357295Y-67327000D01*
X66460711Y-67327000D01*
X66562140Y-67306824D01*
X66657684Y-67267249D01*
X66685829Y-67248443D01*
X72675000Y-67248443D01*
X72675000Y-67371557D01*
X72699019Y-67492306D01*
X72746132Y-67606048D01*
X72814531Y-67708414D01*
X72901586Y-67795469D01*
X73003952Y-67863868D01*
X73117694Y-67910981D01*
X73238443Y-67935000D01*
X73361557Y-67935000D01*
X73482306Y-67910981D01*
X73596048Y-67863868D01*
X73698414Y-67795469D01*
X73785469Y-67708414D01*
X73853868Y-67606048D01*
X73900981Y-67492306D01*
X73925000Y-67371557D01*
X73925000Y-67248443D01*
X74675000Y-67248443D01*
X74675000Y-67371557D01*
X74699019Y-67492306D01*
X74746132Y-67606048D01*
X74814531Y-67708414D01*
X74901586Y-67795469D01*
X75003952Y-67863868D01*
X75117694Y-67910981D01*
X75238443Y-67935000D01*
X75361557Y-67935000D01*
X75482306Y-67910981D01*
X75596048Y-67863868D01*
X75698414Y-67795469D01*
X75785469Y-67708414D01*
X75853868Y-67606048D01*
X75900981Y-67492306D01*
X75925000Y-67371557D01*
X75925000Y-67248443D01*
X75900981Y-67127694D01*
X75853868Y-67013952D01*
X75785469Y-66911586D01*
X75698414Y-66824531D01*
X75596048Y-66756132D01*
X75482306Y-66709019D01*
X75361557Y-66685000D01*
X75238443Y-66685000D01*
X75117694Y-66709019D01*
X75003952Y-66756132D01*
X74901586Y-66824531D01*
X74814531Y-66911586D01*
X74746132Y-67013952D01*
X74699019Y-67127694D01*
X74675000Y-67248443D01*
X73925000Y-67248443D01*
X73900981Y-67127694D01*
X73853868Y-67013952D01*
X73785469Y-66911586D01*
X73698414Y-66824531D01*
X73596048Y-66756132D01*
X73482306Y-66709019D01*
X73361557Y-66685000D01*
X73238443Y-66685000D01*
X73117694Y-66709019D01*
X73003952Y-66756132D01*
X72901586Y-66824531D01*
X72814531Y-66911586D01*
X72746132Y-67013952D01*
X72699019Y-67127694D01*
X72675000Y-67248443D01*
X66685829Y-67248443D01*
X66743671Y-67209794D01*
X66816797Y-67136668D01*
X66874252Y-67050681D01*
X66913827Y-66955137D01*
X66934003Y-66853708D01*
X66934003Y-66750292D01*
X66913827Y-66648863D01*
X66874252Y-66553319D01*
X66816797Y-66467332D01*
X66743671Y-66394206D01*
X66709003Y-66371041D01*
X66709003Y-65851443D01*
X72675000Y-65851443D01*
X72675000Y-65974557D01*
X72699019Y-66095306D01*
X72746132Y-66209048D01*
X72814531Y-66311414D01*
X72901586Y-66398469D01*
X73003952Y-66466868D01*
X73117694Y-66513981D01*
X73238443Y-66538000D01*
X73361557Y-66538000D01*
X73482306Y-66513981D01*
X73596048Y-66466868D01*
X73698414Y-66398469D01*
X73785469Y-66311414D01*
X73853868Y-66209048D01*
X73900981Y-66095306D01*
X73925000Y-65974557D01*
X73925000Y-65851443D01*
X74675000Y-65851443D01*
X74675000Y-65974557D01*
X74699019Y-66095306D01*
X74746132Y-66209048D01*
X74814531Y-66311414D01*
X74901586Y-66398469D01*
X75003952Y-66466868D01*
X75117694Y-66513981D01*
X75238443Y-66538000D01*
X75361557Y-66538000D01*
X75482306Y-66513981D01*
X75596048Y-66466868D01*
X75698414Y-66398469D01*
X75785469Y-66311414D01*
X75853868Y-66209048D01*
X75877494Y-66152008D01*
X75885676Y-66193139D01*
X75925251Y-66288683D01*
X75982706Y-66374670D01*
X76055832Y-66447796D01*
X76141819Y-66505251D01*
X76237363Y-66544826D01*
X76338792Y-66565002D01*
X76442208Y-66565002D01*
X76543637Y-66544826D01*
X76639181Y-66505251D01*
X76725168Y-66447796D01*
X76798294Y-66374670D01*
X76855749Y-66288683D01*
X76895324Y-66193139D01*
X76915500Y-66091710D01*
X76915500Y-65988294D01*
X76895324Y-65886865D01*
X76855749Y-65791321D01*
X76798294Y-65705334D01*
X76765500Y-65672540D01*
X76765500Y-63359462D01*
X76798294Y-63326668D01*
X76855749Y-63240681D01*
X76895324Y-63145137D01*
X76915500Y-63043708D01*
X76915500Y-62940292D01*
X76895324Y-62838863D01*
X76855749Y-62743319D01*
X76798294Y-62657332D01*
X76725168Y-62584206D01*
X76639181Y-62526751D01*
X76543637Y-62487176D01*
X76442208Y-62467000D01*
X76338792Y-62467000D01*
X76237363Y-62487176D01*
X76141819Y-62526751D01*
X76055832Y-62584206D01*
X75982706Y-62657332D01*
X75925251Y-62743319D01*
X75885676Y-62838863D01*
X75865500Y-62940292D01*
X75865500Y-63043708D01*
X75885676Y-63145137D01*
X75925251Y-63240681D01*
X75982706Y-63326668D01*
X76015501Y-63359463D01*
X76015500Y-65672540D01*
X75982706Y-65705334D01*
X75925251Y-65791321D01*
X75917002Y-65811236D01*
X75900981Y-65730694D01*
X75853868Y-65616952D01*
X75785469Y-65514586D01*
X75698414Y-65427531D01*
X75596048Y-65359132D01*
X75482306Y-65312019D01*
X75361557Y-65288000D01*
X75238443Y-65288000D01*
X75117694Y-65312019D01*
X75003952Y-65359132D01*
X74901586Y-65427531D01*
X74814531Y-65514586D01*
X74746132Y-65616952D01*
X74699019Y-65730694D01*
X74675000Y-65851443D01*
X73925000Y-65851443D01*
X73900981Y-65730694D01*
X73853868Y-65616952D01*
X73785469Y-65514586D01*
X73698414Y-65427531D01*
X73596048Y-65359132D01*
X73482306Y-65312019D01*
X73361557Y-65288000D01*
X73238443Y-65288000D01*
X73117694Y-65312019D01*
X73003952Y-65359132D01*
X72901586Y-65427531D01*
X72814531Y-65514586D01*
X72746132Y-65616952D01*
X72699019Y-65730694D01*
X72675000Y-65851443D01*
X66709003Y-65851443D01*
X66709003Y-64192973D01*
X66755668Y-64161792D01*
X66828794Y-64088666D01*
X66886249Y-64002679D01*
X66925824Y-63907135D01*
X66946000Y-63805706D01*
X66946000Y-63702290D01*
X66925824Y-63600861D01*
X66886249Y-63505317D01*
X66828794Y-63419330D01*
X66755668Y-63346204D01*
X66669681Y-63288749D01*
X66574137Y-63249174D01*
X66472708Y-63228998D01*
X66369292Y-63228998D01*
X66267863Y-63249174D01*
X66172319Y-63288749D01*
X66086332Y-63346204D01*
X66013206Y-63419330D01*
X65955751Y-63505317D01*
X65916176Y-63600861D01*
X65896000Y-63702290D01*
X65896000Y-63805706D01*
X65916176Y-63907135D01*
X65955751Y-64002679D01*
X66013206Y-64088666D01*
X66086332Y-64161792D01*
X66109004Y-64176941D01*
X66109004Y-64977997D01*
X66100324Y-64934363D01*
X66060749Y-64838819D01*
X66003294Y-64752832D01*
X65930168Y-64679706D01*
X65844181Y-64622251D01*
X65748637Y-64582676D01*
X65647208Y-64562500D01*
X65543792Y-64562500D01*
X65442363Y-64582676D01*
X65346819Y-64622251D01*
X65260832Y-64679706D01*
X65187706Y-64752832D01*
X65130251Y-64838819D01*
X65090676Y-64934363D01*
X65070500Y-65035792D01*
X60300000Y-65035792D01*
X60300000Y-62781753D01*
X63518318Y-62781753D01*
X63592955Y-62918213D01*
X63754894Y-63011992D01*
X63932018Y-63072375D01*
X64117518Y-63097044D01*
X64304267Y-63085049D01*
X64485088Y-63036852D01*
X64653032Y-62954305D01*
X64707045Y-62918213D01*
X64781682Y-62781753D01*
X64150000Y-62150071D01*
X63518318Y-62781753D01*
X60300000Y-62781753D01*
X60300000Y-62110518D01*
X63195956Y-62110518D01*
X63207951Y-62297267D01*
X63256148Y-62478088D01*
X63338695Y-62646032D01*
X63374787Y-62700045D01*
X63511247Y-62774682D01*
X64142929Y-62143000D01*
X64157071Y-62143000D01*
X64788753Y-62774682D01*
X64925213Y-62700045D01*
X65018992Y-62538106D01*
X65079375Y-62360982D01*
X65104044Y-62175482D01*
X65092049Y-61988733D01*
X65043852Y-61807912D01*
X64961305Y-61639968D01*
X64925213Y-61585955D01*
X64788753Y-61511318D01*
X64157071Y-62143000D01*
X64142929Y-62143000D01*
X63511247Y-61511318D01*
X63374787Y-61585955D01*
X63281008Y-61747894D01*
X63220625Y-61925018D01*
X63195956Y-62110518D01*
X60300000Y-62110518D01*
X60300000Y-61347788D01*
X60334112Y-61460241D01*
X60410719Y-61603563D01*
X60513815Y-61729185D01*
X60639437Y-61832281D01*
X60782759Y-61908888D01*
X60938272Y-61956062D01*
X61059479Y-61968000D01*
X61840521Y-61968000D01*
X61961728Y-61956062D01*
X62117241Y-61908888D01*
X62260563Y-61832281D01*
X62386185Y-61729185D01*
X62489281Y-61603563D01*
X62542366Y-61504247D01*
X63518318Y-61504247D01*
X64150000Y-62135929D01*
X64781682Y-61504247D01*
X64707045Y-61367787D01*
X64545106Y-61274008D01*
X64367982Y-61213625D01*
X64182482Y-61188956D01*
X63995733Y-61200951D01*
X63814912Y-61249148D01*
X63646968Y-61331695D01*
X63592955Y-61367787D01*
X63518318Y-61504247D01*
X62542366Y-61504247D01*
X62565888Y-61460241D01*
X62613062Y-61304728D01*
X62628991Y-61143000D01*
X62613062Y-60981272D01*
X62565888Y-60825759D01*
X62489281Y-60682437D01*
X62386185Y-60556815D01*
X62260563Y-60453719D01*
X62117241Y-60377112D01*
X61961728Y-60329938D01*
X61840521Y-60318000D01*
X61059479Y-60318000D01*
X60938272Y-60329938D01*
X60782759Y-60377112D01*
X60639437Y-60453719D01*
X60513815Y-60556815D01*
X60410719Y-60682437D01*
X60334112Y-60825759D01*
X60300000Y-60938212D01*
X60300000Y-59856000D01*
X66673912Y-59856000D01*
X66673912Y-61556000D01*
X66678256Y-61600108D01*
X66691122Y-61642520D01*
X66712015Y-61681608D01*
X66740132Y-61715868D01*
X66774392Y-61743985D01*
X66813480Y-61764878D01*
X66855892Y-61777744D01*
X66900000Y-61782088D01*
X68600000Y-61782088D01*
X68644108Y-61777744D01*
X68686520Y-61764878D01*
X68725608Y-61743985D01*
X68759868Y-61715868D01*
X68787985Y-61681608D01*
X68808878Y-61642520D01*
X68821744Y-61600108D01*
X68826088Y-61556000D01*
X68826088Y-60600122D01*
X69215000Y-60600122D01*
X69215000Y-60811878D01*
X69256312Y-61019566D01*
X69337348Y-61215203D01*
X69454993Y-61391272D01*
X69604728Y-61541007D01*
X69780797Y-61658652D01*
X69976434Y-61739688D01*
X70184122Y-61781000D01*
X70395878Y-61781000D01*
X70603566Y-61739688D01*
X70799203Y-61658652D01*
X70975272Y-61541007D01*
X71125007Y-61391272D01*
X71242652Y-61215203D01*
X71323688Y-61019566D01*
X71365000Y-60811878D01*
X71365000Y-60600122D01*
X71755000Y-60600122D01*
X71755000Y-60811878D01*
X71796312Y-61019566D01*
X71877348Y-61215203D01*
X71994993Y-61391272D01*
X72144728Y-61541007D01*
X72320797Y-61658652D01*
X72516434Y-61739688D01*
X72724122Y-61781000D01*
X72935878Y-61781000D01*
X73143566Y-61739688D01*
X73339203Y-61658652D01*
X73515272Y-61541007D01*
X73665007Y-61391272D01*
X73782652Y-61215203D01*
X73863688Y-61019566D01*
X73891627Y-60879104D01*
X74309028Y-60879104D01*
X74363185Y-61082763D01*
X74456033Y-61271943D01*
X74584005Y-61439375D01*
X74742182Y-61578623D01*
X74924486Y-61684337D01*
X75123911Y-61752454D01*
X75196896Y-61766971D01*
X75365000Y-61724738D01*
X75365000Y-60711000D01*
X75375000Y-60711000D01*
X75375000Y-61724738D01*
X75543104Y-61766971D01*
X75616089Y-61752454D01*
X75815514Y-61684337D01*
X75997818Y-61578623D01*
X76155995Y-61439375D01*
X76283967Y-61271943D01*
X76376815Y-61082763D01*
X76430972Y-60879104D01*
X76388739Y-60711000D01*
X75375000Y-60711000D01*
X75365000Y-60711000D01*
X74351261Y-60711000D01*
X74309028Y-60879104D01*
X73891627Y-60879104D01*
X73905000Y-60811878D01*
X73905000Y-60600122D01*
X73891628Y-60532896D01*
X74309028Y-60532896D01*
X74351261Y-60701000D01*
X75365000Y-60701000D01*
X75365000Y-59687262D01*
X75375000Y-59687262D01*
X75375000Y-60701000D01*
X76388739Y-60701000D01*
X76430972Y-60532896D01*
X76376815Y-60329237D01*
X76283967Y-60140057D01*
X76155995Y-59972625D01*
X75997818Y-59833377D01*
X75815514Y-59727663D01*
X75616089Y-59659546D01*
X75543104Y-59645029D01*
X75375000Y-59687262D01*
X75365000Y-59687262D01*
X75196896Y-59645029D01*
X75123911Y-59659546D01*
X74924486Y-59727663D01*
X74742182Y-59833377D01*
X74584005Y-59972625D01*
X74456033Y-60140057D01*
X74363185Y-60329237D01*
X74309028Y-60532896D01*
X73891628Y-60532896D01*
X73863688Y-60392434D01*
X73782652Y-60196797D01*
X73665007Y-60020728D01*
X73515272Y-59870993D01*
X73339203Y-59753348D01*
X73143566Y-59672312D01*
X72935878Y-59631000D01*
X72724122Y-59631000D01*
X72516434Y-59672312D01*
X72320797Y-59753348D01*
X72144728Y-59870993D01*
X71994993Y-60020728D01*
X71877348Y-60196797D01*
X71796312Y-60392434D01*
X71755000Y-60600122D01*
X71365000Y-60600122D01*
X71323688Y-60392434D01*
X71242652Y-60196797D01*
X71125007Y-60020728D01*
X70975272Y-59870993D01*
X70799203Y-59753348D01*
X70603566Y-59672312D01*
X70395878Y-59631000D01*
X70184122Y-59631000D01*
X69976434Y-59672312D01*
X69780797Y-59753348D01*
X69604728Y-59870993D01*
X69454993Y-60020728D01*
X69337348Y-60196797D01*
X69256312Y-60392434D01*
X69215000Y-60600122D01*
X68826088Y-60600122D01*
X68826088Y-59856000D01*
X68821744Y-59811892D01*
X68808878Y-59769480D01*
X68787985Y-59730392D01*
X68759868Y-59696132D01*
X68725608Y-59668015D01*
X68686520Y-59647122D01*
X68644108Y-59634256D01*
X68600000Y-59629912D01*
X66900000Y-59629912D01*
X66855892Y-59634256D01*
X66813480Y-59647122D01*
X66774392Y-59668015D01*
X66740132Y-59696132D01*
X66712015Y-59730392D01*
X66691122Y-59769480D01*
X66678256Y-59811892D01*
X66673912Y-59856000D01*
X60300000Y-59856000D01*
X60300000Y-59300000D01*
X107700000Y-59300000D01*
X107700001Y-84700000D01*
G37*
X107700001Y-84700000D02*
X60300000Y-84700000D01*
X60300000Y-83206122D01*
X60520000Y-83206122D01*
X60520000Y-83417878D01*
X60561312Y-83625566D01*
X60642348Y-83821203D01*
X60759993Y-83997272D01*
X60909728Y-84147007D01*
X61085797Y-84264652D01*
X61281434Y-84345688D01*
X61489122Y-84387000D01*
X61700878Y-84387000D01*
X61908566Y-84345688D01*
X62104203Y-84264652D01*
X62280272Y-84147007D01*
X62430007Y-83997272D01*
X62547652Y-83821203D01*
X62628688Y-83625566D01*
X62631386Y-83612000D01*
X67932773Y-83612000D01*
X67947496Y-83613450D01*
X67962219Y-83612000D01*
X67962229Y-83612000D01*
X68006306Y-83607659D01*
X68062856Y-83590504D01*
X68114973Y-83562647D01*
X68160654Y-83525158D01*
X68170049Y-83513710D01*
X69566894Y-82116866D01*
X69607788Y-82125000D01*
X69711204Y-82125000D01*
X69812633Y-82104824D01*
X69908177Y-82065249D01*
X69994164Y-82007794D01*
X70067290Y-81934668D01*
X70124745Y-81848681D01*
X70164320Y-81753137D01*
X70180302Y-81672792D01*
X71293500Y-81672792D01*
X71293500Y-81776208D01*
X71313676Y-81877637D01*
X71353251Y-81973181D01*
X71410706Y-82059168D01*
X71483832Y-82132294D01*
X71517654Y-82154893D01*
X71518500Y-82163487D01*
X71518500Y-82163496D01*
X71522841Y-82207573D01*
X71539996Y-82264123D01*
X71547580Y-82278312D01*
X71567853Y-82316241D01*
X71572459Y-82321853D01*
X71605342Y-82361922D01*
X71616790Y-82371317D01*
X72060200Y-82814728D01*
X72069591Y-82826171D01*
X72081034Y-82835562D01*
X72115271Y-82863660D01*
X72134525Y-82873951D01*
X72167389Y-82891517D01*
X72223939Y-82908672D01*
X72268016Y-82913013D01*
X72268025Y-82913013D01*
X72282748Y-82914463D01*
X72297471Y-82913013D01*
X80948280Y-82913013D01*
X80963003Y-82914463D01*
X80977726Y-82913013D01*
X80977736Y-82913013D01*
X81021813Y-82908672D01*
X81078363Y-82891517D01*
X81130480Y-82863660D01*
X81176161Y-82826171D01*
X81185556Y-82814723D01*
X81758898Y-82241381D01*
X81799792Y-82249516D01*
X81903208Y-82249516D01*
X82004637Y-82229340D01*
X82100181Y-82189765D01*
X82186168Y-82132310D01*
X82259294Y-82059184D01*
X82316749Y-81973197D01*
X82356324Y-81877653D01*
X82376500Y-81776224D01*
X82376500Y-81672808D01*
X82368366Y-81631914D01*
X82374049Y-81626231D01*
X82374054Y-81626225D01*
X84176715Y-79823565D01*
X84188158Y-79814174D01*
X84203749Y-79795176D01*
X84225647Y-79768494D01*
X84253504Y-79716377D01*
X84263131Y-79684640D01*
X84270659Y-79659826D01*
X84275000Y-79615749D01*
X84275000Y-79615746D01*
X84276451Y-79601016D01*
X84275000Y-79586286D01*
X84275000Y-74088767D01*
X84910711Y-73453057D01*
X84922154Y-73443666D01*
X84934536Y-73428578D01*
X84959643Y-73397986D01*
X84975810Y-73367738D01*
X84987500Y-73345868D01*
X85004655Y-73289318D01*
X85008996Y-73245241D01*
X85008996Y-73245232D01*
X85010446Y-73230509D01*
X85008996Y-73215786D01*
X85008996Y-73074959D01*
X85043664Y-73051794D01*
X85099994Y-72995464D01*
X85099995Y-76008547D01*
X85099994Y-76008557D01*
X85099994Y-76083777D01*
X85067200Y-76116571D01*
X85009745Y-76202558D01*
X84970170Y-76298102D01*
X84949994Y-76399531D01*
X84949994Y-76502947D01*
X84970170Y-76604376D01*
X85009745Y-76699920D01*
X85067200Y-76785907D01*
X85099994Y-76818701D01*
X85099994Y-76820525D01*
X85097144Y-76849463D01*
X85094186Y-76879497D01*
X85096000Y-76897913D01*
X85096001Y-82585169D01*
X84363171Y-83318000D01*
X84187462Y-83318000D01*
X84154668Y-83285206D01*
X84068681Y-83227751D01*
X83973137Y-83188176D01*
X83871708Y-83168000D01*
X83768292Y-83168000D01*
X83666863Y-83188176D01*
X83571319Y-83227751D01*
X83485332Y-83285206D01*
X83412206Y-83358332D01*
X83354751Y-83444319D01*
X83315176Y-83539863D01*
X83295000Y-83641292D01*
X83295000Y-83744708D01*
X83315176Y-83846137D01*
X83354751Y-83941681D01*
X83412206Y-84027668D01*
X83485332Y-84100794D01*
X83571319Y-84158249D01*
X83666863Y-84197824D01*
X83768292Y-84218000D01*
X83871708Y-84218000D01*
X83973137Y-84197824D01*
X84068681Y-84158249D01*
X84154668Y-84100794D01*
X84187462Y-84068000D01*
X84500084Y-84068000D01*
X84518500Y-84069814D01*
X84536916Y-84068000D01*
X84536919Y-84068000D01*
X84592013Y-84062574D01*
X84662700Y-84041131D01*
X84727847Y-84006309D01*
X84784948Y-83959448D01*
X84796695Y-83945134D01*
X85723139Y-83018691D01*
X85737448Y-83006948D01*
X85766558Y-82971477D01*
X85784309Y-82949848D01*
X85819130Y-82884702D01*
X85819131Y-82884700D01*
X85840574Y-82814013D01*
X85846000Y-82758919D01*
X85846000Y-82758917D01*
X85847814Y-82740501D01*
X85846000Y-82722085D01*
X85846000Y-78098292D01*
X86175000Y-78098292D01*
X86175000Y-78201708D01*
X86195176Y-78303137D01*
X86234751Y-78398681D01*
X86292206Y-78484668D01*
X86365332Y-78557794D01*
X86400000Y-78580959D01*
X86400001Y-82557767D01*
X86398550Y-82572500D01*
X86404342Y-82631310D01*
X86420180Y-82683519D01*
X86406500Y-82752292D01*
X86406500Y-82855708D01*
X86426676Y-82957137D01*
X86466251Y-83052681D01*
X86523706Y-83138668D01*
X86596832Y-83211794D01*
X86682819Y-83269249D01*
X86778363Y-83308824D01*
X86879792Y-83329000D01*
X86983208Y-83329000D01*
X87084637Y-83308824D01*
X87180181Y-83269249D01*
X87266168Y-83211794D01*
X87339294Y-83138668D01*
X87396749Y-83052681D01*
X87436324Y-82957137D01*
X87456500Y-82855708D01*
X87456500Y-82752292D01*
X87436324Y-82650863D01*
X87396749Y-82555319D01*
X87339294Y-82469332D01*
X87266168Y-82396206D01*
X87180181Y-82338751D01*
X87084637Y-82299176D01*
X87000000Y-82282340D01*
X87000000Y-78580959D01*
X87034668Y-78557794D01*
X87107794Y-78484668D01*
X87165249Y-78398681D01*
X87204824Y-78303137D01*
X87225000Y-78201708D01*
X87225000Y-78098292D01*
X87204824Y-77996863D01*
X87165249Y-77901319D01*
X87107794Y-77815332D01*
X87034668Y-77742206D01*
X86948681Y-77684751D01*
X86853137Y-77645176D01*
X86751708Y-77625000D01*
X86648292Y-77625000D01*
X86546863Y-77645176D01*
X86451319Y-77684751D01*
X86365332Y-77742206D01*
X86292206Y-77815332D01*
X86234751Y-77901319D01*
X86195176Y-77996863D01*
X86175000Y-78098292D01*
X85846000Y-78098292D01*
X85846000Y-76934476D01*
X85849994Y-76893922D01*
X85849994Y-76893920D01*
X85851808Y-76875504D01*
X85849994Y-76857088D01*
X85849994Y-76818701D01*
X85882788Y-76785907D01*
X85940243Y-76699920D01*
X85979818Y-76604376D01*
X85999994Y-76502947D01*
X85999994Y-76399531D01*
X85979818Y-76298102D01*
X85940243Y-76202558D01*
X85882788Y-76116571D01*
X85849994Y-76083777D01*
X85849994Y-73048339D01*
X87252141Y-71646193D01*
X87266450Y-71634450D01*
X87313311Y-71577349D01*
X87348133Y-71512202D01*
X87369576Y-71441515D01*
X87375002Y-71386421D01*
X87375002Y-71386418D01*
X87376816Y-71368002D01*
X87375002Y-71349586D01*
X87375002Y-70517462D01*
X87407796Y-70484668D01*
X87465251Y-70398681D01*
X87504826Y-70303137D01*
X87525002Y-70201708D01*
X87525002Y-70098292D01*
X87504826Y-69996863D01*
X87465251Y-69901319D01*
X87407796Y-69815332D01*
X87334670Y-69742206D01*
X87248683Y-69684751D01*
X87153139Y-69645176D01*
X87051710Y-69625000D01*
X86948294Y-69625000D01*
X86846865Y-69645176D01*
X86751321Y-69684751D01*
X86665334Y-69742206D01*
X86592208Y-69815332D01*
X86534753Y-69901319D01*
X86495178Y-69996863D01*
X86475002Y-70098292D01*
X86475002Y-70201708D01*
X86495178Y-70303137D01*
X86534753Y-70398681D01*
X86592208Y-70484668D01*
X86625002Y-70517462D01*
X86625003Y-71212671D01*
X85233996Y-72603679D01*
X85233996Y-72592292D01*
X85213820Y-72490863D01*
X85174245Y-72395319D01*
X85116790Y-72309332D01*
X85043664Y-72236206D01*
X84957677Y-72178751D01*
X84862133Y-72139176D01*
X84760704Y-72119000D01*
X84657288Y-72119000D01*
X84555859Y-72139176D01*
X84460315Y-72178751D01*
X84374328Y-72236206D01*
X84301202Y-72309332D01*
X84243747Y-72395319D01*
X84204172Y-72490863D01*
X84183996Y-72592292D01*
X84183996Y-72618408D01*
X84100145Y-72583676D01*
X83998716Y-72563500D01*
X83895300Y-72563500D01*
X83793871Y-72583676D01*
X83698327Y-72623251D01*
X83612340Y-72680706D01*
X83539214Y-72753832D01*
X83481759Y-72839819D01*
X83442184Y-72935363D01*
X83422008Y-73036792D01*
X83422008Y-73140208D01*
X83429944Y-73180102D01*
X83420758Y-73191296D01*
X83400000Y-73216589D01*
X83400000Y-72789763D01*
X84607770Y-71581994D01*
X84698292Y-71600000D01*
X84801708Y-71600000D01*
X84903137Y-71579824D01*
X84998681Y-71540249D01*
X85084668Y-71482794D01*
X85157794Y-71409668D01*
X85215249Y-71323681D01*
X85254824Y-71228137D01*
X85275000Y-71126708D01*
X85275000Y-71023292D01*
X85254824Y-70921863D01*
X85215249Y-70826319D01*
X85157794Y-70740332D01*
X85084668Y-70667206D01*
X84998681Y-70609751D01*
X84903137Y-70570176D01*
X84801708Y-70550000D01*
X84698292Y-70550000D01*
X84596863Y-70570176D01*
X84501319Y-70609751D01*
X84415332Y-70667206D01*
X84342206Y-70740332D01*
X84284751Y-70826319D01*
X84245176Y-70921863D01*
X84225000Y-71023292D01*
X84225000Y-71116236D01*
X82888052Y-72453185D01*
X82876604Y-72462580D01*
X82839115Y-72508261D01*
X82811258Y-72560378D01*
X82794103Y-72616928D01*
X82788311Y-72675738D01*
X82794103Y-72734548D01*
X82800001Y-72753990D01*
X82800000Y-76569041D01*
X82765332Y-76592206D01*
X82692206Y-76665332D01*
X82634751Y-76751319D01*
X82595176Y-76846863D01*
X82575000Y-76948292D01*
X82575000Y-77051708D01*
X82595176Y-77153137D01*
X82634751Y-77248681D01*
X82692206Y-77334668D01*
X82765332Y-77407794D01*
X82800000Y-77430959D01*
X82800000Y-77438996D01*
X82800001Y-77439006D01*
X82800000Y-78708682D01*
X82481540Y-79027142D01*
X82507239Y-78988681D01*
X82546814Y-78893137D01*
X82566990Y-78791708D01*
X82566990Y-78688292D01*
X82546814Y-78586863D01*
X82507239Y-78491319D01*
X82449784Y-78405332D01*
X82376658Y-78332206D01*
X82290671Y-78274751D01*
X82195127Y-78235176D01*
X82093698Y-78215000D01*
X81990282Y-78215000D01*
X81949797Y-78223053D01*
X81942649Y-78214343D01*
X81896968Y-78176854D01*
X81844851Y-78148997D01*
X81788301Y-78131842D01*
X81744224Y-78127501D01*
X81744214Y-78127501D01*
X81729491Y-78126051D01*
X81714768Y-78127501D01*
X76717729Y-78127501D01*
X76702999Y-78126050D01*
X76688269Y-78127501D01*
X76688266Y-78127501D01*
X76644189Y-78131842D01*
X76587639Y-78148997D01*
X76535521Y-78176854D01*
X76505237Y-78201708D01*
X76489841Y-78214343D01*
X76480450Y-78225786D01*
X76229102Y-78477135D01*
X76188208Y-78469000D01*
X76084792Y-78469000D01*
X75983363Y-78489176D01*
X75887819Y-78528751D01*
X75801832Y-78586206D01*
X75728706Y-78659332D01*
X75671251Y-78745319D01*
X75631676Y-78840863D01*
X75611500Y-78942292D01*
X75611500Y-79045708D01*
X75631676Y-79147137D01*
X75671251Y-79242681D01*
X75728706Y-79328668D01*
X75801832Y-79401794D01*
X75887819Y-79459249D01*
X75983363Y-79498824D01*
X76084792Y-79519000D01*
X76188208Y-79519000D01*
X76289637Y-79498824D01*
X76385181Y-79459249D01*
X76471168Y-79401794D01*
X76544294Y-79328668D01*
X76601749Y-79242681D01*
X76641324Y-79147137D01*
X76661500Y-79045708D01*
X76661500Y-78942292D01*
X76653365Y-78901398D01*
X76827263Y-78727501D01*
X81516990Y-78727501D01*
X81516990Y-78791708D01*
X81537166Y-78893137D01*
X81576741Y-78988681D01*
X81634196Y-79074668D01*
X81707322Y-79147794D01*
X81793309Y-79205249D01*
X81888853Y-79244824D01*
X81990282Y-79265000D01*
X82093698Y-79265000D01*
X82195127Y-79244824D01*
X82290671Y-79205249D01*
X82329133Y-79179550D01*
X80208683Y-81300000D01*
X78459064Y-81300000D01*
X78482824Y-81242637D01*
X78503000Y-81141208D01*
X78503000Y-81037792D01*
X78482824Y-80936363D01*
X78443249Y-80840819D01*
X78385794Y-80754832D01*
X78312668Y-80681706D01*
X78226681Y-80624251D01*
X78131137Y-80584676D01*
X78029708Y-80564500D01*
X77926292Y-80564500D01*
X77824863Y-80584676D01*
X77729319Y-80624251D01*
X77643332Y-80681706D01*
X77570206Y-80754832D01*
X77512751Y-80840819D01*
X77473176Y-80936363D01*
X77453000Y-81037792D01*
X77453000Y-81141208D01*
X77473176Y-81242637D01*
X77496936Y-81300000D01*
X74243730Y-81300000D01*
X74229000Y-81298549D01*
X74214270Y-81300000D01*
X74214267Y-81300000D01*
X74170190Y-81304341D01*
X74113640Y-81321496D01*
X74111633Y-81322569D01*
X74061522Y-81349353D01*
X74059127Y-81351319D01*
X74015842Y-81386842D01*
X74006449Y-81398288D01*
X73922644Y-81482093D01*
X73812279Y-81482093D01*
X73789114Y-81447425D01*
X73715988Y-81374299D01*
X73630001Y-81316844D01*
X73534457Y-81277269D01*
X73433028Y-81257093D01*
X73329612Y-81257093D01*
X73228183Y-81277269D01*
X73132639Y-81316844D01*
X73046652Y-81374299D01*
X72973526Y-81447425D01*
X72954434Y-81475998D01*
X72888917Y-81432221D01*
X72793373Y-81392646D01*
X72691944Y-81372470D01*
X72588528Y-81372470D01*
X72487099Y-81392646D01*
X72391555Y-81432221D01*
X72305568Y-81489676D01*
X72294198Y-81501046D01*
X72283749Y-81475819D01*
X72226294Y-81389832D01*
X72153168Y-81316706D01*
X72067181Y-81259251D01*
X71971637Y-81219676D01*
X71870208Y-81199500D01*
X71766792Y-81199500D01*
X71665363Y-81219676D01*
X71569819Y-81259251D01*
X71483832Y-81316706D01*
X71410706Y-81389832D01*
X71353251Y-81475819D01*
X71313676Y-81571363D01*
X71293500Y-81672792D01*
X70180302Y-81672792D01*
X70184496Y-81651708D01*
X70184496Y-81548292D01*
X70164320Y-81446863D01*
X70124745Y-81351319D01*
X70067290Y-81265332D01*
X69994164Y-81192206D01*
X69908177Y-81134751D01*
X69812633Y-81095176D01*
X69711204Y-81075000D01*
X69607788Y-81075000D01*
X69506359Y-81095176D01*
X69410815Y-81134751D01*
X69324828Y-81192206D01*
X69251702Y-81265332D01*
X69194247Y-81351319D01*
X69154672Y-81446863D01*
X69134496Y-81548292D01*
X69134496Y-81651708D01*
X69142630Y-81692602D01*
X67823233Y-83012000D01*
X62631386Y-83012000D01*
X62628688Y-82998434D01*
X62547652Y-82802797D01*
X62430007Y-82626728D01*
X62280272Y-82476993D01*
X62104203Y-82359348D01*
X61908566Y-82278312D01*
X61700878Y-82237000D01*
X61489122Y-82237000D01*
X61281434Y-82278312D01*
X61085797Y-82359348D01*
X60909728Y-82476993D01*
X60759993Y-82626728D01*
X60642348Y-82802797D01*
X60561312Y-82998434D01*
X60520000Y-83206122D01*
X60300000Y-83206122D01*
X60300000Y-80945104D01*
X60534029Y-80945104D01*
X60548546Y-81018089D01*
X60616663Y-81217514D01*
X60722377Y-81399818D01*
X60861625Y-81557995D01*
X61029057Y-81685967D01*
X61218237Y-81778815D01*
X61421896Y-81832972D01*
X61590000Y-81790739D01*
X61590000Y-80777000D01*
X61600000Y-80777000D01*
X61600000Y-81790739D01*
X61768104Y-81832972D01*
X61971763Y-81778815D01*
X62160943Y-81685967D01*
X62328375Y-81557995D01*
X62467623Y-81399818D01*
X62573337Y-81217514D01*
X62641454Y-81018089D01*
X62655971Y-80945104D01*
X62613738Y-80777000D01*
X61600000Y-80777000D01*
X61590000Y-80777000D01*
X60576262Y-80777000D01*
X60534029Y-80945104D01*
X60300000Y-80945104D01*
X60300000Y-80598896D01*
X60534029Y-80598896D01*
X60576262Y-80767000D01*
X61590000Y-80767000D01*
X61590000Y-79753261D01*
X61600000Y-79753261D01*
X61600000Y-80767000D01*
X62613738Y-80767000D01*
X62655971Y-80598896D01*
X62641454Y-80525911D01*
X62573337Y-80326486D01*
X62467623Y-80144182D01*
X62328375Y-79986005D01*
X62160943Y-79858033D01*
X61971763Y-79765185D01*
X61768104Y-79711028D01*
X61600000Y-79753261D01*
X61590000Y-79753261D01*
X61421896Y-79711028D01*
X61218237Y-79765185D01*
X61029057Y-79858033D01*
X60861625Y-79986005D01*
X60722377Y-80144182D01*
X60616663Y-80326486D01*
X60548546Y-80525911D01*
X60534029Y-80598896D01*
X60300000Y-80598896D01*
X60300000Y-77382000D01*
X60518912Y-77382000D01*
X60518912Y-79082000D01*
X60523256Y-79126108D01*
X60536122Y-79168520D01*
X60557015Y-79207608D01*
X60585132Y-79241868D01*
X60619392Y-79269985D01*
X60658480Y-79290878D01*
X60700892Y-79303744D01*
X60745000Y-79308088D01*
X62445000Y-79308088D01*
X62489108Y-79303744D01*
X62531520Y-79290878D01*
X62570608Y-79269985D01*
X62604868Y-79241868D01*
X62632985Y-79207608D01*
X62653878Y-79168520D01*
X62666744Y-79126108D01*
X62671088Y-79082000D01*
X62671088Y-78700000D01*
X65222285Y-78700000D01*
X65237008Y-78701450D01*
X65251731Y-78700000D01*
X65251741Y-78700000D01*
X65295818Y-78695659D01*
X65352368Y-78678504D01*
X65404485Y-78650647D01*
X65450166Y-78613158D01*
X65459561Y-78601710D01*
X66074398Y-77986874D01*
X66115292Y-77995008D01*
X66218708Y-77995008D01*
X66320137Y-77974832D01*
X66415681Y-77935257D01*
X66501668Y-77877802D01*
X66574794Y-77804676D01*
X66632249Y-77718689D01*
X66671824Y-77623145D01*
X66692000Y-77521716D01*
X66692000Y-77418300D01*
X66671824Y-77316871D01*
X66632249Y-77221327D01*
X66574794Y-77135340D01*
X66501668Y-77062214D01*
X66415681Y-77004759D01*
X66320137Y-76965184D01*
X66218708Y-76945008D01*
X66115292Y-76945008D01*
X66013863Y-76965184D01*
X65918319Y-77004759D01*
X65832332Y-77062214D01*
X65759206Y-77135340D01*
X65701751Y-77221327D01*
X65662176Y-77316871D01*
X65642000Y-77418300D01*
X65642000Y-77521716D01*
X65650134Y-77562610D01*
X65112745Y-78100000D01*
X62671088Y-78100000D01*
X62671088Y-77382000D01*
X62666744Y-77337892D01*
X62653878Y-77295480D01*
X62632985Y-77256392D01*
X62604868Y-77222132D01*
X62570608Y-77194015D01*
X62531520Y-77173122D01*
X62489108Y-77160256D01*
X62445000Y-77155912D01*
X60745000Y-77155912D01*
X60700892Y-77160256D01*
X60658480Y-77173122D01*
X60619392Y-77194015D01*
X60585132Y-77222132D01*
X60557015Y-77256392D01*
X60536122Y-77295480D01*
X60523256Y-77337892D01*
X60518912Y-77382000D01*
X60300000Y-77382000D01*
X60300000Y-70748292D01*
X68625000Y-70748292D01*
X68625000Y-70851708D01*
X68645176Y-70953137D01*
X68684751Y-71048681D01*
X68742206Y-71134668D01*
X68815332Y-71207794D01*
X68901319Y-71265249D01*
X68996863Y-71304824D01*
X69098292Y-71325000D01*
X69201708Y-71325000D01*
X69240107Y-71317362D01*
X69225000Y-71393308D01*
X69225000Y-71449659D01*
X69201708Y-71445026D01*
X69098292Y-71445026D01*
X68996863Y-71465202D01*
X68901319Y-71504777D01*
X68815332Y-71562232D01*
X68742206Y-71635358D01*
X68684751Y-71721345D01*
X68645176Y-71816889D01*
X68625000Y-71918318D01*
X68625000Y-72021734D01*
X68645176Y-72123163D01*
X68684751Y-72218707D01*
X68742206Y-72304694D01*
X68815332Y-72377820D01*
X68901319Y-72435275D01*
X68996863Y-72474850D01*
X69098292Y-72495026D01*
X69201708Y-72495026D01*
X69229512Y-72489495D01*
X69229512Y-72525000D01*
X69198292Y-72525000D01*
X69096863Y-72545176D01*
X69001319Y-72584751D01*
X68915332Y-72642206D01*
X68842206Y-72715332D01*
X68784751Y-72801319D01*
X68745176Y-72896863D01*
X68725000Y-72998292D01*
X68725000Y-73101708D01*
X68745176Y-73203137D01*
X68784751Y-73298681D01*
X68842206Y-73384668D01*
X68915332Y-73457794D01*
X69001319Y-73515249D01*
X69096863Y-73554824D01*
X69198292Y-73575000D01*
X69301708Y-73575000D01*
X69366806Y-73562051D01*
X69350835Y-73600609D01*
X69330659Y-73702038D01*
X69330659Y-73790423D01*
X69251952Y-73774767D01*
X69148536Y-73774767D01*
X69047107Y-73794943D01*
X68951563Y-73834518D01*
X68865576Y-73891973D01*
X68792450Y-73965099D01*
X68734995Y-74051086D01*
X68695420Y-74146630D01*
X68675244Y-74248059D01*
X68675244Y-74351475D01*
X68695420Y-74452904D01*
X68734995Y-74548448D01*
X68792450Y-74634435D01*
X68865576Y-74707561D01*
X68951563Y-74765016D01*
X69047107Y-74804591D01*
X69148536Y-74824767D01*
X69251952Y-74824767D01*
X69300477Y-74815114D01*
X69297950Y-74827820D01*
X69297950Y-74853710D01*
X69211479Y-74853710D01*
X69110050Y-74873886D01*
X69014506Y-74913461D01*
X68928519Y-74970916D01*
X68855393Y-75044042D01*
X68797938Y-75130029D01*
X68758363Y-75225573D01*
X68738187Y-75327002D01*
X68738187Y-75430418D01*
X68758363Y-75531847D01*
X68797938Y-75627391D01*
X68855393Y-75713378D01*
X68928519Y-75786504D01*
X69014506Y-75843959D01*
X69110050Y-75883534D01*
X69211479Y-75903710D01*
X69238377Y-75903710D01*
X69228761Y-75952053D01*
X69228761Y-76055469D01*
X69231008Y-76066766D01*
X69129633Y-76066766D01*
X69028204Y-76086942D01*
X68932660Y-76126517D01*
X68846673Y-76183972D01*
X68773547Y-76257098D01*
X68716092Y-76343085D01*
X68676517Y-76438629D01*
X68656341Y-76540058D01*
X68656341Y-76643474D01*
X68676517Y-76744903D01*
X68716092Y-76840447D01*
X68773547Y-76926434D01*
X68846673Y-76999560D01*
X68932660Y-77057015D01*
X69028204Y-77096590D01*
X69129633Y-77116766D01*
X69233049Y-77116766D01*
X69334478Y-77096590D01*
X69430022Y-77057015D01*
X69516009Y-76999560D01*
X69589135Y-76926434D01*
X69612300Y-76891766D01*
X70140441Y-76891766D01*
X70155164Y-76893216D01*
X70169887Y-76891766D01*
X70169897Y-76891766D01*
X70213974Y-76887425D01*
X70270524Y-76870270D01*
X70322641Y-76842413D01*
X70368322Y-76804924D01*
X70377717Y-76793476D01*
X70875781Y-76295413D01*
X70907215Y-76371303D01*
X70964670Y-76457290D01*
X71037796Y-76530416D01*
X71123783Y-76587871D01*
X71219327Y-76627446D01*
X71320756Y-76647622D01*
X71424172Y-76647622D01*
X71525601Y-76627446D01*
X71621145Y-76587871D01*
X71707132Y-76530416D01*
X71780258Y-76457290D01*
X71818539Y-76399999D01*
X74407538Y-76399999D01*
X74440332Y-76432793D01*
X74526319Y-76490248D01*
X74621863Y-76529823D01*
X74723292Y-76549999D01*
X74728622Y-76549999D01*
X74182667Y-77095954D01*
X71023669Y-77095954D01*
X71008946Y-77094504D01*
X70994223Y-77095954D01*
X70994214Y-77095954D01*
X70950137Y-77100295D01*
X70893587Y-77117450D01*
X70874515Y-77127644D01*
X70841469Y-77145307D01*
X70807577Y-77173122D01*
X70795789Y-77182796D01*
X70786398Y-77194239D01*
X69902290Y-78078348D01*
X69890842Y-78087743D01*
X69880245Y-78100656D01*
X69853353Y-78133424D01*
X69841076Y-78156393D01*
X69825496Y-78185542D01*
X69808341Y-78242092D01*
X69804000Y-78286169D01*
X69804000Y-78286178D01*
X69802550Y-78300901D01*
X69804000Y-78315624D01*
X69804000Y-78626565D01*
X69769332Y-78649730D01*
X69696206Y-78722856D01*
X69638751Y-78808843D01*
X69599176Y-78904387D01*
X69579000Y-79005816D01*
X69579000Y-79109232D01*
X69599176Y-79210661D01*
X69638751Y-79306205D01*
X69696206Y-79392192D01*
X69769332Y-79465318D01*
X69855319Y-79522773D01*
X69950863Y-79562348D01*
X70052292Y-79582524D01*
X70155708Y-79582524D01*
X70257137Y-79562348D01*
X70352681Y-79522773D01*
X70438668Y-79465318D01*
X70511794Y-79392192D01*
X70569249Y-79306205D01*
X70608824Y-79210661D01*
X70629000Y-79109232D01*
X70629000Y-79016061D01*
X70660299Y-79016061D01*
X70660299Y-79109208D01*
X70680475Y-79210637D01*
X70720050Y-79306181D01*
X70777505Y-79392168D01*
X70850631Y-79465294D01*
X70936618Y-79522749D01*
X71032162Y-79562324D01*
X71133591Y-79582500D01*
X71237007Y-79582500D01*
X71338436Y-79562324D01*
X71433980Y-79522749D01*
X71519967Y-79465294D01*
X71593093Y-79392168D01*
X71650548Y-79306181D01*
X71690123Y-79210637D01*
X71710299Y-79109208D01*
X71710299Y-79102251D01*
X71809769Y-79122037D01*
X71913185Y-79122037D01*
X71992018Y-79106356D01*
X71992018Y-79109208D01*
X72012194Y-79210637D01*
X72051769Y-79306181D01*
X72109224Y-79392168D01*
X72182350Y-79465294D01*
X72268337Y-79522749D01*
X72363881Y-79562324D01*
X72465310Y-79582500D01*
X72568726Y-79582500D01*
X72670155Y-79562324D01*
X72765699Y-79522749D01*
X72851686Y-79465294D01*
X72924812Y-79392168D01*
X72982267Y-79306181D01*
X73021842Y-79210637D01*
X73042018Y-79109208D01*
X73042018Y-79005792D01*
X73033884Y-78964898D01*
X73039567Y-78959215D01*
X73039571Y-78959210D01*
X73102783Y-78895998D01*
X74837305Y-78895998D01*
X74852028Y-78897448D01*
X74866751Y-78895998D01*
X74866761Y-78895998D01*
X74910838Y-78891657D01*
X74967388Y-78874502D01*
X75019505Y-78846645D01*
X75065186Y-78809156D01*
X75074581Y-78797708D01*
X84772290Y-69100000D01*
X85134669Y-69100000D01*
X85130268Y-69101823D01*
X85019713Y-69175693D01*
X84925693Y-69269713D01*
X84851823Y-69380268D01*
X84800940Y-69503110D01*
X84775000Y-69633518D01*
X84775000Y-69766482D01*
X84800940Y-69896890D01*
X84851823Y-70019732D01*
X84925693Y-70130287D01*
X85019713Y-70224307D01*
X85130268Y-70298177D01*
X85253110Y-70349060D01*
X85383518Y-70375000D01*
X85516482Y-70375000D01*
X85646890Y-70349060D01*
X85769732Y-70298177D01*
X85880287Y-70224307D01*
X85974307Y-70130287D01*
X86048177Y-70019732D01*
X86099060Y-69896890D01*
X86125000Y-69766482D01*
X86125000Y-69633518D01*
X86099060Y-69503110D01*
X86048177Y-69380268D01*
X85974307Y-69269713D01*
X85880287Y-69175693D01*
X85769732Y-69101823D01*
X85765331Y-69100000D01*
X88369041Y-69100000D01*
X88392206Y-69134668D01*
X88465332Y-69207794D01*
X88500000Y-69230959D01*
X88500001Y-71775735D01*
X86938074Y-73337663D01*
X86926626Y-73347058D01*
X86911837Y-73365079D01*
X86889137Y-73392739D01*
X86884510Y-73401396D01*
X86861280Y-73444857D01*
X86844125Y-73501407D01*
X86839784Y-73545484D01*
X86839784Y-73545493D01*
X86838334Y-73560216D01*
X86839784Y-73574939D01*
X86839785Y-76893540D01*
X86838334Y-76908273D01*
X86844126Y-76967083D01*
X86861281Y-77023633D01*
X86889137Y-77075750D01*
X86917235Y-77109987D01*
X86926627Y-77121431D01*
X86938069Y-77130821D01*
X87883145Y-78075898D01*
X87875011Y-78116792D01*
X87875011Y-78220208D01*
X87895187Y-78321637D01*
X87934762Y-78417181D01*
X87992217Y-78503168D01*
X88065343Y-78576294D01*
X88151330Y-78633749D01*
X88246874Y-78673324D01*
X88348303Y-78693500D01*
X88451719Y-78693500D01*
X88553148Y-78673324D01*
X88648692Y-78633749D01*
X88734679Y-78576294D01*
X88772999Y-78537974D01*
X88773000Y-80056500D01*
X88721292Y-80056500D01*
X88619863Y-80076676D01*
X88524319Y-80116251D01*
X88438332Y-80173706D01*
X88365206Y-80246832D01*
X88307751Y-80332819D01*
X88268176Y-80428363D01*
X88248000Y-80529792D01*
X88248000Y-80633208D01*
X88268176Y-80734637D01*
X88307751Y-80830181D01*
X88365206Y-80916168D01*
X88438332Y-80989294D01*
X88524319Y-81046749D01*
X88619863Y-81086324D01*
X88721292Y-81106500D01*
X88824708Y-81106500D01*
X88926137Y-81086324D01*
X89021681Y-81046749D01*
X89107668Y-80989294D01*
X89180794Y-80916168D01*
X89238249Y-80830181D01*
X89250000Y-80801810D01*
X89250000Y-82539041D01*
X89215332Y-82562206D01*
X89142206Y-82635332D01*
X89084751Y-82721319D01*
X89045176Y-82816863D01*
X89025000Y-82918292D01*
X89025000Y-83021708D01*
X89045176Y-83123137D01*
X89084751Y-83218681D01*
X89142206Y-83304668D01*
X89215332Y-83377794D01*
X89301319Y-83435249D01*
X89396863Y-83474824D01*
X89498292Y-83495000D01*
X89601708Y-83495000D01*
X89703137Y-83474824D01*
X89798681Y-83435249D01*
X89884668Y-83377794D01*
X89957794Y-83304668D01*
X90015249Y-83218681D01*
X90054824Y-83123137D01*
X90075000Y-83021708D01*
X90075000Y-82918292D01*
X90054824Y-82816863D01*
X90015249Y-82721319D01*
X89957794Y-82635332D01*
X89884668Y-82562206D01*
X89850000Y-82539041D01*
X89850000Y-81247053D01*
X89921875Y-81276824D01*
X90023304Y-81297000D01*
X90126720Y-81297000D01*
X90228149Y-81276824D01*
X90323693Y-81237249D01*
X90409680Y-81179794D01*
X90482806Y-81106668D01*
X90540261Y-81020681D01*
X90579836Y-80925137D01*
X90600012Y-80823708D01*
X90600012Y-80720292D01*
X90579836Y-80618863D01*
X90540261Y-80523319D01*
X90490130Y-80448292D01*
X91225004Y-80448292D01*
X91225004Y-80551708D01*
X91245180Y-80653137D01*
X91284755Y-80748681D01*
X91342210Y-80834668D01*
X91415336Y-80907794D01*
X91501323Y-80965249D01*
X91596867Y-81004824D01*
X91698296Y-81025000D01*
X91801712Y-81025000D01*
X91903141Y-81004824D01*
X91998685Y-80965249D01*
X92084672Y-80907794D01*
X92157798Y-80834668D01*
X92180963Y-80800000D01*
X99619041Y-80800000D01*
X99642206Y-80834668D01*
X99715332Y-80907794D01*
X99801319Y-80965249D01*
X99896863Y-81004824D01*
X99998292Y-81025000D01*
X100101708Y-81025000D01*
X100203137Y-81004824D01*
X100298681Y-80965249D01*
X100384668Y-80907794D01*
X100457794Y-80834668D01*
X100515249Y-80748681D01*
X100554824Y-80653137D01*
X100575000Y-80551708D01*
X100575000Y-80448292D01*
X100554824Y-80346863D01*
X100515249Y-80251319D01*
X100457794Y-80165332D01*
X100384668Y-80092206D01*
X100298681Y-80034751D01*
X100203137Y-79995176D01*
X100101708Y-79975000D01*
X99998292Y-79975000D01*
X99968297Y-79980967D01*
X100286947Y-79662317D01*
X100331358Y-79662317D01*
X100354523Y-79696985D01*
X100427649Y-79770111D01*
X100513636Y-79827566D01*
X100609180Y-79867141D01*
X100710609Y-79887317D01*
X100814025Y-79887317D01*
X100915454Y-79867141D01*
X101010998Y-79827566D01*
X101096985Y-79770111D01*
X101170111Y-79696985D01*
X101227566Y-79610998D01*
X101267141Y-79515454D01*
X101287317Y-79414025D01*
X101287317Y-79310609D01*
X101267141Y-79209180D01*
X101227566Y-79113636D01*
X101170111Y-79027649D01*
X101096985Y-78954523D01*
X101010998Y-78897068D01*
X100915454Y-78857493D01*
X100814025Y-78837317D01*
X100710609Y-78837317D01*
X100609180Y-78857493D01*
X100513636Y-78897068D01*
X100427649Y-78954523D01*
X100354523Y-79027649D01*
X100331358Y-79062317D01*
X100177413Y-79062317D01*
X100162683Y-79060866D01*
X100147953Y-79062317D01*
X100147950Y-79062317D01*
X100103873Y-79066658D01*
X100048048Y-79083593D01*
X100047323Y-79083813D01*
X99995205Y-79111670D01*
X99960969Y-79139767D01*
X99949525Y-79149159D01*
X99940134Y-79160602D01*
X99200747Y-79899990D01*
X92945365Y-79899990D01*
X92929824Y-79821863D01*
X92890249Y-79726319D01*
X92832794Y-79640332D01*
X92759668Y-79567206D01*
X92673681Y-79509751D01*
X92578137Y-79470176D01*
X92476708Y-79450000D01*
X92373292Y-79450000D01*
X92271863Y-79470176D01*
X92176319Y-79509751D01*
X92090332Y-79567206D01*
X92017206Y-79640332D01*
X91959751Y-79726319D01*
X91920176Y-79821863D01*
X91900000Y-79923292D01*
X91900000Y-79994551D01*
X91801712Y-79975000D01*
X91698296Y-79975000D01*
X91596867Y-79995176D01*
X91501323Y-80034751D01*
X91415336Y-80092206D01*
X91342210Y-80165332D01*
X91284755Y-80251319D01*
X91245180Y-80346863D01*
X91225004Y-80448292D01*
X90490130Y-80448292D01*
X90482806Y-80437332D01*
X90409680Y-80364206D01*
X90375859Y-80341608D01*
X90374994Y-80332819D01*
X90370671Y-80288926D01*
X90353516Y-80232376D01*
X90349919Y-80225647D01*
X90325659Y-80180258D01*
X90297562Y-80146022D01*
X90297561Y-80146021D01*
X90288170Y-80134578D01*
X90276728Y-80125188D01*
X90150013Y-79998474D01*
X90150013Y-78616840D01*
X90175319Y-78633749D01*
X90270863Y-78673324D01*
X90372292Y-78693500D01*
X90475708Y-78693500D01*
X90577137Y-78673324D01*
X90672681Y-78633749D01*
X90758668Y-78576294D01*
X90831794Y-78503168D01*
X90889249Y-78417181D01*
X90915835Y-78352995D01*
X90934762Y-78398688D01*
X90992217Y-78484675D01*
X91065343Y-78557801D01*
X91151330Y-78615256D01*
X91246874Y-78654831D01*
X91348303Y-78675007D01*
X91451719Y-78675007D01*
X91553148Y-78654831D01*
X91648692Y-78615256D01*
X91734679Y-78557801D01*
X91807805Y-78484675D01*
X91848255Y-78424138D01*
X91886387Y-78481207D01*
X91959513Y-78554333D01*
X92045500Y-78611788D01*
X92141044Y-78651363D01*
X92242473Y-78671539D01*
X92345889Y-78671539D01*
X92447318Y-78651363D01*
X92542862Y-78611788D01*
X92628849Y-78554333D01*
X92695366Y-78487817D01*
X92765343Y-78557794D01*
X92851330Y-78615249D01*
X92946874Y-78654824D01*
X93048303Y-78675000D01*
X93151719Y-78675000D01*
X93253148Y-78654824D01*
X93348692Y-78615249D01*
X93434679Y-78557794D01*
X93507805Y-78484668D01*
X93525008Y-78458922D01*
X93542217Y-78484676D01*
X93615343Y-78557802D01*
X93701330Y-78615257D01*
X93796874Y-78654832D01*
X93898303Y-78675008D01*
X94001719Y-78675008D01*
X94103148Y-78654832D01*
X94198692Y-78615257D01*
X94284679Y-78557802D01*
X94325021Y-78517461D01*
X94365354Y-78557794D01*
X94451341Y-78615249D01*
X94546885Y-78654824D01*
X94648314Y-78675000D01*
X94751730Y-78675000D01*
X94853159Y-78654824D01*
X94948703Y-78615249D01*
X95034690Y-78557794D01*
X95075029Y-78517456D01*
X95115367Y-78557794D01*
X95201354Y-78615249D01*
X95296898Y-78654824D01*
X95398327Y-78675000D01*
X95501743Y-78675000D01*
X95603172Y-78654824D01*
X95698716Y-78615249D01*
X95784703Y-78557794D01*
X95857829Y-78484668D01*
X95915284Y-78398681D01*
X95954859Y-78303137D01*
X95975035Y-78201708D01*
X95975035Y-78198292D01*
X97425000Y-78198292D01*
X97425000Y-78301708D01*
X97445176Y-78403137D01*
X97484751Y-78498681D01*
X97542206Y-78584668D01*
X97615332Y-78657794D01*
X97701319Y-78715249D01*
X97796863Y-78754824D01*
X97898292Y-78775000D01*
X98001708Y-78775000D01*
X98103137Y-78754824D01*
X98198681Y-78715249D01*
X98284668Y-78657794D01*
X98357794Y-78584668D01*
X98380959Y-78550000D01*
X98835277Y-78550000D01*
X98850000Y-78551450D01*
X98864723Y-78550000D01*
X98864733Y-78550000D01*
X98908810Y-78545659D01*
X98965360Y-78528504D01*
X99017477Y-78500647D01*
X99063158Y-78463158D01*
X99072553Y-78451710D01*
X99628244Y-77896020D01*
X101244051Y-77896020D01*
X101267216Y-77930688D01*
X101340342Y-78003814D01*
X101426329Y-78061269D01*
X101521873Y-78100844D01*
X101623302Y-78121020D01*
X101726718Y-78121020D01*
X101828147Y-78100844D01*
X101923691Y-78061269D01*
X102009678Y-78003814D01*
X102082804Y-77930688D01*
X102140259Y-77844701D01*
X102179834Y-77749157D01*
X102200010Y-77647728D01*
X102200010Y-77544312D01*
X102179834Y-77442883D01*
X102140259Y-77347339D01*
X102082804Y-77261352D01*
X102009678Y-77188226D01*
X101923691Y-77130771D01*
X101828147Y-77091196D01*
X101726718Y-77071020D01*
X101623302Y-77071020D01*
X101521873Y-77091196D01*
X101426329Y-77130771D01*
X101340342Y-77188226D01*
X101267216Y-77261352D01*
X101244051Y-77296020D01*
X99518702Y-77296020D01*
X99503979Y-77294570D01*
X99489256Y-77296020D01*
X99489247Y-77296020D01*
X99445170Y-77300361D01*
X99388620Y-77317516D01*
X99374626Y-77324996D01*
X99336502Y-77345373D01*
X99325201Y-77354648D01*
X99290822Y-77382862D01*
X99281431Y-77394305D01*
X98725737Y-77950000D01*
X98380959Y-77950000D01*
X98357794Y-77915332D01*
X98284668Y-77842206D01*
X98198681Y-77784751D01*
X98103137Y-77745176D01*
X98001708Y-77725000D01*
X97898292Y-77725000D01*
X97796863Y-77745176D01*
X97701319Y-77784751D01*
X97615332Y-77842206D01*
X97542206Y-77915332D01*
X97484751Y-78001319D01*
X97445176Y-78096863D01*
X97425000Y-78198292D01*
X95975035Y-78198292D01*
X95975035Y-78098292D01*
X95966901Y-78057398D01*
X95972584Y-78051715D01*
X95972588Y-78051710D01*
X96351725Y-77672574D01*
X96363168Y-77663183D01*
X96375393Y-77648287D01*
X96400657Y-77617503D01*
X96423031Y-77575643D01*
X96428514Y-77565385D01*
X96445669Y-77508835D01*
X96450010Y-77464758D01*
X96450010Y-77464746D01*
X96451460Y-77450026D01*
X96450010Y-77435306D01*
X96450010Y-76388292D01*
X98655000Y-76388292D01*
X98655000Y-76491708D01*
X98675176Y-76593137D01*
X98714751Y-76688681D01*
X98772206Y-76774668D01*
X98845332Y-76847794D01*
X98931319Y-76905249D01*
X99026863Y-76944824D01*
X99128292Y-76965000D01*
X99231708Y-76965000D01*
X99333137Y-76944824D01*
X99428681Y-76905249D01*
X99514668Y-76847794D01*
X99587794Y-76774668D01*
X99637687Y-76699998D01*
X100879041Y-76699998D01*
X100902206Y-76734666D01*
X100975332Y-76807792D01*
X101061319Y-76865247D01*
X101156863Y-76904822D01*
X101258292Y-76924998D01*
X101361708Y-76924998D01*
X101463137Y-76904822D01*
X101558681Y-76865247D01*
X101644668Y-76807792D01*
X101717794Y-76734666D01*
X101775249Y-76648679D01*
X101814824Y-76553135D01*
X101835000Y-76451706D01*
X101835000Y-76348290D01*
X101814824Y-76246861D01*
X101775249Y-76151317D01*
X101717794Y-76065330D01*
X101644668Y-75992204D01*
X101558681Y-75934749D01*
X101463137Y-75895174D01*
X101361708Y-75874998D01*
X101258292Y-75874998D01*
X101156863Y-75895174D01*
X101061319Y-75934749D01*
X100975332Y-75992204D01*
X100902206Y-76065330D01*
X100879041Y-76099998D01*
X99582460Y-76099998D01*
X99514668Y-76032206D01*
X99428681Y-75974751D01*
X99333137Y-75935176D01*
X99231708Y-75915000D01*
X99128292Y-75915000D01*
X99026863Y-75935176D01*
X98931319Y-75974751D01*
X98845332Y-76032206D01*
X98772206Y-76105332D01*
X98714751Y-76191319D01*
X98675176Y-76286863D01*
X98655000Y-76388292D01*
X96450010Y-76388292D01*
X96450010Y-75914732D01*
X96451460Y-75900009D01*
X96450010Y-75885286D01*
X96450010Y-75885277D01*
X96445669Y-75841200D01*
X96428514Y-75784650D01*
X96410602Y-75751138D01*
X96400657Y-75732532D01*
X96372559Y-75698295D01*
X96363168Y-75686852D01*
X96351726Y-75677462D01*
X95839999Y-75165736D01*
X95839999Y-74980279D01*
X96372449Y-74980279D01*
X96372449Y-75083695D01*
X96392625Y-75185124D01*
X96432200Y-75280668D01*
X96489655Y-75366655D01*
X96562781Y-75439781D01*
X96648768Y-75497236D01*
X96744312Y-75536811D01*
X96845741Y-75556987D01*
X96890115Y-75556987D01*
X96890115Y-75626689D01*
X96910291Y-75728118D01*
X96949866Y-75823662D01*
X97007321Y-75909649D01*
X97080447Y-75982775D01*
X97166434Y-76040230D01*
X97261978Y-76079805D01*
X97363407Y-76099981D01*
X97466823Y-76099981D01*
X97568252Y-76079805D01*
X97663796Y-76040230D01*
X97749783Y-75982775D01*
X97789288Y-75943270D01*
X97792206Y-75947636D01*
X97865332Y-76020762D01*
X97951319Y-76078217D01*
X98046863Y-76117792D01*
X98148292Y-76137968D01*
X98251708Y-76137968D01*
X98353137Y-76117792D01*
X98448681Y-76078217D01*
X98534668Y-76020762D01*
X98607794Y-75947636D01*
X98665249Y-75861649D01*
X98704824Y-75766105D01*
X98725000Y-75664676D01*
X98725000Y-75561260D01*
X98704824Y-75459831D01*
X98665249Y-75364287D01*
X98607794Y-75278300D01*
X98534668Y-75205174D01*
X98500000Y-75182009D01*
X98500000Y-74474263D01*
X98566663Y-74407600D01*
X98604262Y-74415079D01*
X98707678Y-74415079D01*
X98809107Y-74394903D01*
X98904651Y-74355328D01*
X98990638Y-74297873D01*
X99063764Y-74224747D01*
X99121219Y-74138760D01*
X99160794Y-74043216D01*
X99180970Y-73941787D01*
X99180970Y-73838371D01*
X99160794Y-73736942D01*
X99121219Y-73641398D01*
X99063764Y-73555411D01*
X98990638Y-73482285D01*
X98904651Y-73424830D01*
X98809107Y-73385255D01*
X98707678Y-73365079D01*
X98604262Y-73365079D01*
X98502833Y-73385255D01*
X98407289Y-73424830D01*
X98321302Y-73482285D01*
X98277080Y-73526508D01*
X98240667Y-73490095D01*
X98154680Y-73432640D01*
X98059136Y-73393065D01*
X97957707Y-73372889D01*
X97854291Y-73372889D01*
X97752862Y-73393065D01*
X97657318Y-73432640D01*
X97571331Y-73490095D01*
X97498205Y-73563221D01*
X97477294Y-73594516D01*
X97457794Y-73565332D01*
X97384668Y-73492206D01*
X97298681Y-73434751D01*
X97203137Y-73395176D01*
X97101708Y-73375000D01*
X96998292Y-73375000D01*
X96896863Y-73395176D01*
X96801319Y-73434751D01*
X96715332Y-73492206D01*
X96642206Y-73565332D01*
X96584751Y-73651319D01*
X96545176Y-73746863D01*
X96525000Y-73848292D01*
X96525000Y-73951708D01*
X96545176Y-74053137D01*
X96584751Y-74148681D01*
X96642206Y-74234668D01*
X96715332Y-74307794D01*
X96750000Y-74330959D01*
X96750001Y-74526031D01*
X96744312Y-74527163D01*
X96648768Y-74566738D01*
X96562781Y-74624193D01*
X96489655Y-74697319D01*
X96432200Y-74783306D01*
X96392625Y-74878850D01*
X96372449Y-74980279D01*
X95839999Y-74980279D01*
X95839999Y-73258381D01*
X98373338Y-70725044D01*
X99784497Y-70725044D01*
X99799220Y-70726494D01*
X99813943Y-70725044D01*
X99813953Y-70725044D01*
X99858030Y-70720703D01*
X99914580Y-70703548D01*
X99966697Y-70675691D01*
X100012378Y-70638202D01*
X100021773Y-70626754D01*
X101015009Y-69633518D01*
X101475000Y-69633518D01*
X101475000Y-69766482D01*
X101500940Y-69896890D01*
X101551823Y-70019732D01*
X101625693Y-70130287D01*
X101719713Y-70224307D01*
X101830268Y-70298177D01*
X101953110Y-70349060D01*
X102083518Y-70375000D01*
X102216482Y-70375000D01*
X102346890Y-70349060D01*
X102469732Y-70298177D01*
X102580287Y-70224307D01*
X102674307Y-70130287D01*
X102748177Y-70019732D01*
X102799060Y-69896890D01*
X102825000Y-69766482D01*
X102825000Y-69633518D01*
X102799060Y-69503110D01*
X102748177Y-69380268D01*
X102674307Y-69269713D01*
X102580287Y-69175693D01*
X102469732Y-69101823D01*
X102346890Y-69050940D01*
X102216482Y-69025000D01*
X102083518Y-69025000D01*
X101953110Y-69050940D01*
X101830268Y-69101823D01*
X101719713Y-69175693D01*
X101625693Y-69269713D01*
X101551823Y-69380268D01*
X101500940Y-69503110D01*
X101475000Y-69633518D01*
X101015009Y-69633518D01*
X101201715Y-69446813D01*
X101213158Y-69437422D01*
X101222549Y-69425979D01*
X101250647Y-69391742D01*
X101276129Y-69344067D01*
X101278504Y-69339624D01*
X101295659Y-69283074D01*
X101300000Y-69238997D01*
X101300000Y-69238988D01*
X101300846Y-69230393D01*
X101334668Y-69207794D01*
X101407794Y-69134668D01*
X101465249Y-69048681D01*
X101504824Y-68953137D01*
X101525000Y-68851708D01*
X101525000Y-68748292D01*
X101504824Y-68646863D01*
X101465249Y-68551319D01*
X101407794Y-68465332D01*
X101334668Y-68392206D01*
X101300847Y-68369608D01*
X101299793Y-68358904D01*
X101295659Y-68316926D01*
X101278504Y-68260376D01*
X101278504Y-68260375D01*
X101250647Y-68208258D01*
X101222550Y-68174021D01*
X101222544Y-68174015D01*
X101213158Y-68162578D01*
X101201721Y-68153192D01*
X95846817Y-62798290D01*
X95837422Y-62786842D01*
X95791741Y-62749353D01*
X95739624Y-62721496D01*
X95683074Y-62704341D01*
X95638997Y-62700000D01*
X95638987Y-62700000D01*
X95624264Y-62698550D01*
X95609541Y-62700000D01*
X82777709Y-62700000D01*
X82762979Y-62698549D01*
X82748249Y-62700000D01*
X82748246Y-62700000D01*
X82704169Y-62704341D01*
X82660780Y-62717503D01*
X82647618Y-62721496D01*
X82595501Y-62749353D01*
X82561264Y-62777450D01*
X82561258Y-62777456D01*
X82549821Y-62786842D01*
X82540435Y-62798279D01*
X80750000Y-64588714D01*
X80750000Y-61742386D01*
X80763566Y-61739688D01*
X80959203Y-61658652D01*
X81135272Y-61541007D01*
X81285007Y-61391272D01*
X81402652Y-61215203D01*
X81483688Y-61019566D01*
X81525000Y-60811878D01*
X81525000Y-60600122D01*
X81915000Y-60600122D01*
X81915000Y-60811878D01*
X81956312Y-61019566D01*
X82037348Y-61215203D01*
X82154993Y-61391272D01*
X82304728Y-61541007D01*
X82480797Y-61658652D01*
X82676434Y-61739688D01*
X82884122Y-61781000D01*
X83095878Y-61781000D01*
X83303566Y-61739688D01*
X83499203Y-61658652D01*
X83675272Y-61541007D01*
X83825007Y-61391272D01*
X83942652Y-61215203D01*
X84023688Y-61019566D01*
X84065000Y-60811878D01*
X84065000Y-60600122D01*
X84455000Y-60600122D01*
X84455000Y-60811878D01*
X84496312Y-61019566D01*
X84577348Y-61215203D01*
X84694993Y-61391272D01*
X84844728Y-61541007D01*
X85020797Y-61658652D01*
X85216434Y-61739688D01*
X85424122Y-61781000D01*
X85635878Y-61781000D01*
X85843566Y-61739688D01*
X86039203Y-61658652D01*
X86215272Y-61541007D01*
X86365007Y-61391272D01*
X86482652Y-61215203D01*
X86563688Y-61019566D01*
X86605000Y-60811878D01*
X86605000Y-60600122D01*
X86995000Y-60600122D01*
X86995000Y-60811878D01*
X87036312Y-61019566D01*
X87117348Y-61215203D01*
X87234993Y-61391272D01*
X87384728Y-61541007D01*
X87560797Y-61658652D01*
X87756434Y-61739688D01*
X87964122Y-61781000D01*
X88175878Y-61781000D01*
X88383566Y-61739688D01*
X88579203Y-61658652D01*
X88755272Y-61541007D01*
X88905007Y-61391272D01*
X89022652Y-61215203D01*
X89103688Y-61019566D01*
X89145000Y-60811878D01*
X89145000Y-60600122D01*
X89535000Y-60600122D01*
X89535000Y-60811878D01*
X89576312Y-61019566D01*
X89657348Y-61215203D01*
X89774993Y-61391272D01*
X89924728Y-61541007D01*
X90100797Y-61658652D01*
X90296434Y-61739688D01*
X90504122Y-61781000D01*
X90715878Y-61781000D01*
X90923566Y-61739688D01*
X91119203Y-61658652D01*
X91295272Y-61541007D01*
X91445007Y-61391272D01*
X91562652Y-61215203D01*
X91643688Y-61019566D01*
X91685000Y-60811878D01*
X91685000Y-60600122D01*
X92075000Y-60600122D01*
X92075000Y-60811878D01*
X92116312Y-61019566D01*
X92197348Y-61215203D01*
X92314993Y-61391272D01*
X92464728Y-61541007D01*
X92640797Y-61658652D01*
X92836434Y-61739688D01*
X93044122Y-61781000D01*
X93255878Y-61781000D01*
X93463566Y-61739688D01*
X93659203Y-61658652D01*
X93835272Y-61541007D01*
X93985007Y-61391272D01*
X94102652Y-61215203D01*
X94183688Y-61019566D01*
X94225000Y-60811878D01*
X94225000Y-60600122D01*
X94615000Y-60600122D01*
X94615000Y-60811878D01*
X94656312Y-61019566D01*
X94737348Y-61215203D01*
X94854993Y-61391272D01*
X95004728Y-61541007D01*
X95180797Y-61658652D01*
X95376434Y-61739688D01*
X95584122Y-61781000D01*
X95795878Y-61781000D01*
X96003566Y-61739688D01*
X96199203Y-61658652D01*
X96210704Y-61650967D01*
X98717484Y-64157749D01*
X98726870Y-64169186D01*
X98738307Y-64178572D01*
X98738313Y-64178578D01*
X98772550Y-64206675D01*
X98800382Y-64221551D01*
X98824668Y-64234532D01*
X98881218Y-64251687D01*
X98925295Y-64256028D01*
X98925298Y-64256028D01*
X98940028Y-64257479D01*
X98954758Y-64256028D01*
X102353209Y-64256028D01*
X103599981Y-65502801D01*
X103599980Y-78698752D01*
X102730659Y-79568074D01*
X102719217Y-79577464D01*
X102709826Y-79588907D01*
X102709825Y-79588908D01*
X102681727Y-79623145D01*
X102653871Y-79675262D01*
X102636716Y-79731812D01*
X102630924Y-79790622D01*
X102632375Y-79805354D01*
X102632375Y-79859263D01*
X102597706Y-79882428D01*
X102524580Y-79955554D01*
X102467125Y-80041541D01*
X102427550Y-80137085D01*
X102407374Y-80238514D01*
X102407374Y-80341930D01*
X102427550Y-80443359D01*
X102467125Y-80538903D01*
X102524580Y-80624890D01*
X102597706Y-80698016D01*
X102683693Y-80755471D01*
X102779237Y-80795046D01*
X102880666Y-80815222D01*
X102984082Y-80815222D01*
X103085511Y-80795046D01*
X103181055Y-80755471D01*
X103267042Y-80698016D01*
X103340168Y-80624890D01*
X103397623Y-80538903D01*
X103437198Y-80443359D01*
X103457374Y-80341930D01*
X103457374Y-80267758D01*
X103546861Y-80304824D01*
X103648290Y-80325000D01*
X103751706Y-80325000D01*
X103853135Y-80304824D01*
X103948679Y-80265249D01*
X103975145Y-80247565D01*
X103975000Y-80248292D01*
X103975000Y-80351708D01*
X103995176Y-80453137D01*
X104034751Y-80548681D01*
X104092206Y-80634668D01*
X104165332Y-80707794D01*
X104251319Y-80765249D01*
X104346863Y-80804824D01*
X104448292Y-80825000D01*
X104551708Y-80825000D01*
X104653137Y-80804824D01*
X104748681Y-80765249D01*
X104834668Y-80707794D01*
X104907794Y-80634668D01*
X104965249Y-80548681D01*
X105004824Y-80453137D01*
X105025000Y-80351708D01*
X105025000Y-80248292D01*
X105024855Y-80247564D01*
X105051323Y-80265249D01*
X105146867Y-80304824D01*
X105248296Y-80325000D01*
X105351712Y-80325000D01*
X105453141Y-80304824D01*
X105548685Y-80265249D01*
X105634672Y-80207794D01*
X105707798Y-80134668D01*
X105765253Y-80048681D01*
X105804828Y-79953137D01*
X105825004Y-79851708D01*
X105825004Y-79748292D01*
X105804828Y-79646863D01*
X105765253Y-79551319D01*
X105707798Y-79465332D01*
X105634672Y-79392206D01*
X105548685Y-79334751D01*
X105453141Y-79295176D01*
X105351712Y-79275000D01*
X105248296Y-79275000D01*
X105207402Y-79283135D01*
X105100010Y-79175743D01*
X105100010Y-64964732D01*
X105101460Y-64950009D01*
X105100010Y-64935286D01*
X105100010Y-64935277D01*
X105095669Y-64891200D01*
X105078514Y-64834650D01*
X105062355Y-64804418D01*
X105050657Y-64782532D01*
X105022559Y-64748295D01*
X105013168Y-64736852D01*
X105001725Y-64727461D01*
X103610000Y-63335737D01*
X103610000Y-61742386D01*
X103623566Y-61739688D01*
X103819203Y-61658652D01*
X103995272Y-61541007D01*
X104145007Y-61391272D01*
X104262652Y-61215203D01*
X104343688Y-61019566D01*
X104371627Y-60879104D01*
X104789028Y-60879104D01*
X104843185Y-61082763D01*
X104936033Y-61271943D01*
X105064005Y-61439375D01*
X105222182Y-61578623D01*
X105404486Y-61684337D01*
X105603911Y-61752454D01*
X105676896Y-61766971D01*
X105845000Y-61724738D01*
X105845000Y-60711000D01*
X105855000Y-60711000D01*
X105855000Y-61724738D01*
X106023104Y-61766971D01*
X106096089Y-61752454D01*
X106295514Y-61684337D01*
X106477818Y-61578623D01*
X106635995Y-61439375D01*
X106763967Y-61271943D01*
X106856815Y-61082763D01*
X106910972Y-60879104D01*
X106868739Y-60711000D01*
X105855000Y-60711000D01*
X105845000Y-60711000D01*
X104831261Y-60711000D01*
X104789028Y-60879104D01*
X104371627Y-60879104D01*
X104385000Y-60811878D01*
X104385000Y-60600122D01*
X104371628Y-60532896D01*
X104789028Y-60532896D01*
X104831261Y-60701000D01*
X105845000Y-60701000D01*
X105845000Y-59687262D01*
X105855000Y-59687262D01*
X105855000Y-60701000D01*
X106868739Y-60701000D01*
X106910972Y-60532896D01*
X106856815Y-60329237D01*
X106763967Y-60140057D01*
X106635995Y-59972625D01*
X106477818Y-59833377D01*
X106295514Y-59727663D01*
X106096089Y-59659546D01*
X106023104Y-59645029D01*
X105855000Y-59687262D01*
X105845000Y-59687262D01*
X105676896Y-59645029D01*
X105603911Y-59659546D01*
X105404486Y-59727663D01*
X105222182Y-59833377D01*
X105064005Y-59972625D01*
X104936033Y-60140057D01*
X104843185Y-60329237D01*
X104789028Y-60532896D01*
X104371628Y-60532896D01*
X104343688Y-60392434D01*
X104262652Y-60196797D01*
X104145007Y-60020728D01*
X103995272Y-59870993D01*
X103819203Y-59753348D01*
X103623566Y-59672312D01*
X103415878Y-59631000D01*
X103204122Y-59631000D01*
X102996434Y-59672312D01*
X102800797Y-59753348D01*
X102624728Y-59870993D01*
X102474993Y-60020728D01*
X102357348Y-60196797D01*
X102276312Y-60392434D01*
X102235000Y-60600122D01*
X102235000Y-60811878D01*
X102276312Y-61019566D01*
X102357348Y-61215203D01*
X102474993Y-61391272D01*
X102624728Y-61541007D01*
X102800797Y-61658652D01*
X102996434Y-61739688D01*
X103010001Y-61742387D01*
X103010000Y-62521736D01*
X101714967Y-61226704D01*
X101722652Y-61215203D01*
X101803688Y-61019566D01*
X101845000Y-60811878D01*
X101845000Y-60600122D01*
X101803688Y-60392434D01*
X101722652Y-60196797D01*
X101605007Y-60020728D01*
X101455272Y-59870993D01*
X101279203Y-59753348D01*
X101083566Y-59672312D01*
X100875878Y-59631000D01*
X100664122Y-59631000D01*
X100456434Y-59672312D01*
X100260797Y-59753348D01*
X100084728Y-59870993D01*
X99934993Y-60020728D01*
X99817348Y-60196797D01*
X99736312Y-60392434D01*
X99695000Y-60600122D01*
X99695000Y-60811878D01*
X99736312Y-61019566D01*
X99817348Y-61215203D01*
X99934993Y-61391272D01*
X100024722Y-61481001D01*
X99429265Y-61481001D01*
X99302552Y-61354289D01*
X99302548Y-61354284D01*
X99174968Y-61226704D01*
X99182652Y-61215203D01*
X99263688Y-61019566D01*
X99305000Y-60811878D01*
X99305000Y-60600122D01*
X99263688Y-60392434D01*
X99182652Y-60196797D01*
X99065007Y-60020728D01*
X98915272Y-59870993D01*
X98739203Y-59753348D01*
X98543566Y-59672312D01*
X98335878Y-59631000D01*
X98124122Y-59631000D01*
X97916434Y-59672312D01*
X97720797Y-59753348D01*
X97544728Y-59870993D01*
X97394993Y-60020728D01*
X97277348Y-60196797D01*
X97196312Y-60392434D01*
X97155000Y-60600122D01*
X97155000Y-60811878D01*
X97196312Y-61019566D01*
X97277348Y-61215203D01*
X97394993Y-61391272D01*
X97544728Y-61541007D01*
X97720797Y-61658652D01*
X97916434Y-61739688D01*
X98124122Y-61781000D01*
X98335878Y-61781000D01*
X98543566Y-61739688D01*
X98739203Y-61658652D01*
X98750704Y-61650968D01*
X98878284Y-61778548D01*
X98878289Y-61778552D01*
X99082451Y-61982715D01*
X99091843Y-61994159D01*
X99103286Y-62003550D01*
X99137523Y-62031648D01*
X99147239Y-62036841D01*
X99189641Y-62059505D01*
X99246191Y-62076660D01*
X99290268Y-62081001D01*
X99290271Y-62081001D01*
X99305001Y-62082452D01*
X99319731Y-62081001D01*
X100602460Y-62081001D01*
X102177486Y-63656028D01*
X99064293Y-63656028D01*
X96634967Y-61226704D01*
X96642652Y-61215203D01*
X96723688Y-61019566D01*
X96765000Y-60811878D01*
X96765000Y-60600122D01*
X96723688Y-60392434D01*
X96642652Y-60196797D01*
X96525007Y-60020728D01*
X96375272Y-59870993D01*
X96199203Y-59753348D01*
X96003566Y-59672312D01*
X95795878Y-59631000D01*
X95584122Y-59631000D01*
X95376434Y-59672312D01*
X95180797Y-59753348D01*
X95004728Y-59870993D01*
X94854993Y-60020728D01*
X94737348Y-60196797D01*
X94656312Y-60392434D01*
X94615000Y-60600122D01*
X94225000Y-60600122D01*
X94183688Y-60392434D01*
X94102652Y-60196797D01*
X93985007Y-60020728D01*
X93835272Y-59870993D01*
X93659203Y-59753348D01*
X93463566Y-59672312D01*
X93255878Y-59631000D01*
X93044122Y-59631000D01*
X92836434Y-59672312D01*
X92640797Y-59753348D01*
X92464728Y-59870993D01*
X92314993Y-60020728D01*
X92197348Y-60196797D01*
X92116312Y-60392434D01*
X92075000Y-60600122D01*
X91685000Y-60600122D01*
X91643688Y-60392434D01*
X91562652Y-60196797D01*
X91445007Y-60020728D01*
X91295272Y-59870993D01*
X91119203Y-59753348D01*
X90923566Y-59672312D01*
X90715878Y-59631000D01*
X90504122Y-59631000D01*
X90296434Y-59672312D01*
X90100797Y-59753348D01*
X89924728Y-59870993D01*
X89774993Y-60020728D01*
X89657348Y-60196797D01*
X89576312Y-60392434D01*
X89535000Y-60600122D01*
X89145000Y-60600122D01*
X89103688Y-60392434D01*
X89022652Y-60196797D01*
X88905007Y-60020728D01*
X88755272Y-59870993D01*
X88579203Y-59753348D01*
X88383566Y-59672312D01*
X88175878Y-59631000D01*
X87964122Y-59631000D01*
X87756434Y-59672312D01*
X87560797Y-59753348D01*
X87384728Y-59870993D01*
X87234993Y-60020728D01*
X87117348Y-60196797D01*
X87036312Y-60392434D01*
X86995000Y-60600122D01*
X86605000Y-60600122D01*
X86563688Y-60392434D01*
X86482652Y-60196797D01*
X86365007Y-60020728D01*
X86215272Y-59870993D01*
X86039203Y-59753348D01*
X85843566Y-59672312D01*
X85635878Y-59631000D01*
X85424122Y-59631000D01*
X85216434Y-59672312D01*
X85020797Y-59753348D01*
X84844728Y-59870993D01*
X84694993Y-60020728D01*
X84577348Y-60196797D01*
X84496312Y-60392434D01*
X84455000Y-60600122D01*
X84065000Y-60600122D01*
X84023688Y-60392434D01*
X83942652Y-60196797D01*
X83825007Y-60020728D01*
X83675272Y-59870993D01*
X83499203Y-59753348D01*
X83303566Y-59672312D01*
X83095878Y-59631000D01*
X82884122Y-59631000D01*
X82676434Y-59672312D01*
X82480797Y-59753348D01*
X82304728Y-59870993D01*
X82154993Y-60020728D01*
X82037348Y-60196797D01*
X81956312Y-60392434D01*
X81915000Y-60600122D01*
X81525000Y-60600122D01*
X81483688Y-60392434D01*
X81402652Y-60196797D01*
X81285007Y-60020728D01*
X81135272Y-59870993D01*
X80959203Y-59753348D01*
X80763566Y-59672312D01*
X80555878Y-59631000D01*
X80344122Y-59631000D01*
X80136434Y-59672312D01*
X79940797Y-59753348D01*
X79764728Y-59870993D01*
X79614993Y-60020728D01*
X79497348Y-60196797D01*
X79416312Y-60392434D01*
X79375000Y-60600122D01*
X79375000Y-60811878D01*
X79416312Y-61019566D01*
X79497348Y-61215203D01*
X79614993Y-61391272D01*
X79764728Y-61541007D01*
X79940797Y-61658652D01*
X80136434Y-61739688D01*
X80150000Y-61742386D01*
X80150001Y-64750735D01*
X75206248Y-69694489D01*
X74990729Y-69694489D01*
X74975999Y-69693038D01*
X74961269Y-69694489D01*
X74961266Y-69694489D01*
X74917189Y-69698830D01*
X74860639Y-69715985D01*
X74844826Y-69724437D01*
X78961714Y-65607550D01*
X78973157Y-65598159D01*
X78992366Y-65574753D01*
X79010646Y-65552479D01*
X79030677Y-65515002D01*
X79038503Y-65500361D01*
X79055658Y-65443811D01*
X79059999Y-65399734D01*
X79059999Y-65399725D01*
X79061449Y-65385002D01*
X79059999Y-65370279D01*
X79059999Y-62264721D01*
X79061449Y-62249998D01*
X79059999Y-62235275D01*
X79059999Y-62235266D01*
X79055658Y-62191189D01*
X79038503Y-62134639D01*
X79010647Y-62082523D01*
X79010646Y-62082521D01*
X78982548Y-62048284D01*
X78973157Y-62036841D01*
X78961715Y-62027451D01*
X78523336Y-61589073D01*
X78595272Y-61541007D01*
X78745007Y-61391272D01*
X78862652Y-61215203D01*
X78943688Y-61019566D01*
X78985000Y-60811878D01*
X78985000Y-60600122D01*
X78943688Y-60392434D01*
X78862652Y-60196797D01*
X78745007Y-60020728D01*
X78595272Y-59870993D01*
X78419203Y-59753348D01*
X78223566Y-59672312D01*
X78015878Y-59631000D01*
X77804122Y-59631000D01*
X77596434Y-59672312D01*
X77400797Y-59753348D01*
X77224728Y-59870993D01*
X77074993Y-60020728D01*
X76957348Y-60196797D01*
X76876312Y-60392434D01*
X76835000Y-60600122D01*
X76835000Y-60811878D01*
X76876312Y-61019566D01*
X76957348Y-61215203D01*
X77074993Y-61391272D01*
X77224728Y-61541007D01*
X77400797Y-61658652D01*
X77596434Y-61739688D01*
X77804122Y-61781000D01*
X77866737Y-61781000D01*
X78459999Y-62374263D01*
X78460000Y-65260736D01*
X73948791Y-69771946D01*
X73948785Y-69771951D01*
X73943102Y-69777634D01*
X73902208Y-69769500D01*
X73798792Y-69769500D01*
X73697363Y-69789676D01*
X73601819Y-69829251D01*
X73515832Y-69886706D01*
X73442706Y-69959832D01*
X73385251Y-70045819D01*
X73345676Y-70141363D01*
X73325500Y-70242792D01*
X73325500Y-70346208D01*
X73337799Y-70408035D01*
X73322553Y-70392790D01*
X73322549Y-70392785D01*
X73316866Y-70387102D01*
X73325000Y-70346208D01*
X73325000Y-70242792D01*
X73304824Y-70141363D01*
X73265249Y-70045819D01*
X73207794Y-69959832D01*
X73134668Y-69886706D01*
X73048681Y-69829251D01*
X72953137Y-69789676D01*
X72851708Y-69769500D01*
X72748292Y-69769500D01*
X72646863Y-69789676D01*
X72551319Y-69829251D01*
X72465332Y-69886706D01*
X72392206Y-69959832D01*
X72334751Y-70045819D01*
X72295176Y-70141363D01*
X72275000Y-70242792D01*
X72275000Y-70346208D01*
X72278407Y-70363338D01*
X72188954Y-70363338D01*
X72089490Y-70383123D01*
X72089490Y-70306292D01*
X72069314Y-70204863D01*
X72029739Y-70109319D01*
X71972284Y-70023332D01*
X71899158Y-69950206D01*
X71813171Y-69892751D01*
X71717627Y-69853176D01*
X71616198Y-69833000D01*
X71512782Y-69833000D01*
X71411353Y-69853176D01*
X71315809Y-69892751D01*
X71229822Y-69950206D01*
X71156696Y-70023332D01*
X71099241Y-70109319D01*
X71059666Y-70204863D01*
X71039490Y-70306292D01*
X71039490Y-70409708D01*
X71059666Y-70511137D01*
X71099241Y-70606681D01*
X71156696Y-70692668D01*
X71229822Y-70765794D01*
X71264490Y-70788959D01*
X71264490Y-70974445D01*
X71263040Y-70989168D01*
X71264490Y-71003891D01*
X71264490Y-71003900D01*
X71268831Y-71047977D01*
X71269743Y-71050984D01*
X70817049Y-70598290D01*
X70807654Y-70586842D01*
X70761973Y-70549353D01*
X70709856Y-70521496D01*
X70653306Y-70504341D01*
X70609229Y-70500000D01*
X70609219Y-70500000D01*
X70594496Y-70498550D01*
X70579773Y-70500000D01*
X69580959Y-70500000D01*
X69557794Y-70465332D01*
X69484668Y-70392206D01*
X69398681Y-70334751D01*
X69303137Y-70295176D01*
X69201708Y-70275000D01*
X69098292Y-70275000D01*
X68996863Y-70295176D01*
X68901319Y-70334751D01*
X68815332Y-70392206D01*
X68742206Y-70465332D01*
X68684751Y-70551319D01*
X68645176Y-70646863D01*
X68625000Y-70748292D01*
X60300000Y-70748292D01*
X60300000Y-68333162D01*
X60335885Y-68454093D01*
X60411259Y-68597187D01*
X60513101Y-68722827D01*
X60637497Y-68826184D01*
X60779667Y-68903287D01*
X60934147Y-68951172D01*
X61095000Y-68968000D01*
X61445000Y-68968000D01*
X61445000Y-68148000D01*
X61455000Y-68148000D01*
X61455000Y-68968000D01*
X61805000Y-68968000D01*
X61965853Y-68951172D01*
X62120333Y-68903287D01*
X62262503Y-68826184D01*
X62386899Y-68722827D01*
X62488741Y-68597187D01*
X62564115Y-68454093D01*
X62610124Y-68299044D01*
X62614046Y-68276995D01*
X62568734Y-68148000D01*
X61455000Y-68148000D01*
X61445000Y-68148000D01*
X61425000Y-68148000D01*
X61425000Y-68138000D01*
X61445000Y-68138000D01*
X61445000Y-67318000D01*
X61455000Y-67318000D01*
X61455000Y-68138000D01*
X62568734Y-68138000D01*
X62614046Y-68009005D01*
X62610124Y-67986956D01*
X62564115Y-67831907D01*
X62537697Y-67781753D01*
X63518318Y-67781753D01*
X63592955Y-67918213D01*
X63754894Y-68011992D01*
X63932018Y-68072375D01*
X64117518Y-68097044D01*
X64304267Y-68085049D01*
X64485088Y-68036852D01*
X64653032Y-67954305D01*
X64707045Y-67918213D01*
X64781682Y-67781753D01*
X64150000Y-67150071D01*
X63518318Y-67781753D01*
X62537697Y-67781753D01*
X62488741Y-67688813D01*
X62386899Y-67563173D01*
X62262503Y-67459816D01*
X62120333Y-67382713D01*
X61965853Y-67334828D01*
X61805000Y-67318000D01*
X61455000Y-67318000D01*
X61445000Y-67318000D01*
X61095000Y-67318000D01*
X60934147Y-67334828D01*
X60779667Y-67382713D01*
X60637497Y-67459816D01*
X60513101Y-67563173D01*
X60411259Y-67688813D01*
X60335885Y-67831907D01*
X60300000Y-67952838D01*
X60300000Y-67110518D01*
X63195956Y-67110518D01*
X63207951Y-67297267D01*
X63256148Y-67478088D01*
X63338695Y-67646032D01*
X63374787Y-67700045D01*
X63511247Y-67774682D01*
X64142929Y-67143000D01*
X64157071Y-67143000D01*
X64788753Y-67774682D01*
X64925213Y-67700045D01*
X65018992Y-67538106D01*
X65079375Y-67360982D01*
X65104044Y-67175482D01*
X65092049Y-66988733D01*
X65043852Y-66807912D01*
X64961305Y-66639968D01*
X64925213Y-66585955D01*
X64788753Y-66511318D01*
X64157071Y-67143000D01*
X64142929Y-67143000D01*
X63511247Y-66511318D01*
X63374787Y-66585955D01*
X63281008Y-66747894D01*
X63220625Y-66925018D01*
X63195956Y-67110518D01*
X60300000Y-67110518D01*
X60300000Y-66504247D01*
X63518318Y-66504247D01*
X64150000Y-67135929D01*
X64781682Y-66504247D01*
X64707045Y-66367787D01*
X64545106Y-66274008D01*
X64367982Y-66213625D01*
X64182482Y-66188956D01*
X63995733Y-66200951D01*
X63814912Y-66249148D01*
X63646968Y-66331695D01*
X63592955Y-66367787D01*
X63518318Y-66504247D01*
X60300000Y-66504247D01*
X60300000Y-65035792D01*
X65070500Y-65035792D01*
X65070500Y-65139208D01*
X65090676Y-65240637D01*
X65130251Y-65336181D01*
X65187706Y-65422168D01*
X65260832Y-65495294D01*
X65295500Y-65518459D01*
X65295501Y-66423037D01*
X65251206Y-66467332D01*
X65193751Y-66553319D01*
X65154176Y-66648863D01*
X65134000Y-66750292D01*
X65134000Y-66853708D01*
X65154176Y-66955137D01*
X65193751Y-67050681D01*
X65251206Y-67136668D01*
X65324332Y-67209794D01*
X65410319Y-67267249D01*
X65505863Y-67306824D01*
X65607292Y-67327000D01*
X65710708Y-67327000D01*
X65812137Y-67306824D01*
X65907681Y-67267249D01*
X65993668Y-67209794D01*
X66034002Y-67169461D01*
X66074335Y-67209794D01*
X66160322Y-67267249D01*
X66255866Y-67306824D01*
X66357295Y-67327000D01*
X66460711Y-67327000D01*
X66562140Y-67306824D01*
X66657684Y-67267249D01*
X66685829Y-67248443D01*
X72675000Y-67248443D01*
X72675000Y-67371557D01*
X72699019Y-67492306D01*
X72746132Y-67606048D01*
X72814531Y-67708414D01*
X72901586Y-67795469D01*
X73003952Y-67863868D01*
X73117694Y-67910981D01*
X73238443Y-67935000D01*
X73361557Y-67935000D01*
X73482306Y-67910981D01*
X73596048Y-67863868D01*
X73698414Y-67795469D01*
X73785469Y-67708414D01*
X73853868Y-67606048D01*
X73900981Y-67492306D01*
X73925000Y-67371557D01*
X73925000Y-67248443D01*
X74675000Y-67248443D01*
X74675000Y-67371557D01*
X74699019Y-67492306D01*
X74746132Y-67606048D01*
X74814531Y-67708414D01*
X74901586Y-67795469D01*
X75003952Y-67863868D01*
X75117694Y-67910981D01*
X75238443Y-67935000D01*
X75361557Y-67935000D01*
X75482306Y-67910981D01*
X75596048Y-67863868D01*
X75698414Y-67795469D01*
X75785469Y-67708414D01*
X75853868Y-67606048D01*
X75900981Y-67492306D01*
X75925000Y-67371557D01*
X75925000Y-67248443D01*
X75900981Y-67127694D01*
X75853868Y-67013952D01*
X75785469Y-66911586D01*
X75698414Y-66824531D01*
X75596048Y-66756132D01*
X75482306Y-66709019D01*
X75361557Y-66685000D01*
X75238443Y-66685000D01*
X75117694Y-66709019D01*
X75003952Y-66756132D01*
X74901586Y-66824531D01*
X74814531Y-66911586D01*
X74746132Y-67013952D01*
X74699019Y-67127694D01*
X74675000Y-67248443D01*
X73925000Y-67248443D01*
X73900981Y-67127694D01*
X73853868Y-67013952D01*
X73785469Y-66911586D01*
X73698414Y-66824531D01*
X73596048Y-66756132D01*
X73482306Y-66709019D01*
X73361557Y-66685000D01*
X73238443Y-66685000D01*
X73117694Y-66709019D01*
X73003952Y-66756132D01*
X72901586Y-66824531D01*
X72814531Y-66911586D01*
X72746132Y-67013952D01*
X72699019Y-67127694D01*
X72675000Y-67248443D01*
X66685829Y-67248443D01*
X66743671Y-67209794D01*
X66816797Y-67136668D01*
X66874252Y-67050681D01*
X66913827Y-66955137D01*
X66934003Y-66853708D01*
X66934003Y-66750292D01*
X66913827Y-66648863D01*
X66874252Y-66553319D01*
X66816797Y-66467332D01*
X66743671Y-66394206D01*
X66709003Y-66371041D01*
X66709003Y-65851443D01*
X72675000Y-65851443D01*
X72675000Y-65974557D01*
X72699019Y-66095306D01*
X72746132Y-66209048D01*
X72814531Y-66311414D01*
X72901586Y-66398469D01*
X73003952Y-66466868D01*
X73117694Y-66513981D01*
X73238443Y-66538000D01*
X73361557Y-66538000D01*
X73482306Y-66513981D01*
X73596048Y-66466868D01*
X73698414Y-66398469D01*
X73785469Y-66311414D01*
X73853868Y-66209048D01*
X73900981Y-66095306D01*
X73925000Y-65974557D01*
X73925000Y-65851443D01*
X74675000Y-65851443D01*
X74675000Y-65974557D01*
X74699019Y-66095306D01*
X74746132Y-66209048D01*
X74814531Y-66311414D01*
X74901586Y-66398469D01*
X75003952Y-66466868D01*
X75117694Y-66513981D01*
X75238443Y-66538000D01*
X75361557Y-66538000D01*
X75482306Y-66513981D01*
X75596048Y-66466868D01*
X75698414Y-66398469D01*
X75785469Y-66311414D01*
X75853868Y-66209048D01*
X75877494Y-66152008D01*
X75885676Y-66193139D01*
X75925251Y-66288683D01*
X75982706Y-66374670D01*
X76055832Y-66447796D01*
X76141819Y-66505251D01*
X76237363Y-66544826D01*
X76338792Y-66565002D01*
X76442208Y-66565002D01*
X76543637Y-66544826D01*
X76639181Y-66505251D01*
X76725168Y-66447796D01*
X76798294Y-66374670D01*
X76855749Y-66288683D01*
X76895324Y-66193139D01*
X76915500Y-66091710D01*
X76915500Y-65988294D01*
X76895324Y-65886865D01*
X76855749Y-65791321D01*
X76798294Y-65705334D01*
X76765500Y-65672540D01*
X76765500Y-63359462D01*
X76798294Y-63326668D01*
X76855749Y-63240681D01*
X76895324Y-63145137D01*
X76915500Y-63043708D01*
X76915500Y-62940292D01*
X76895324Y-62838863D01*
X76855749Y-62743319D01*
X76798294Y-62657332D01*
X76725168Y-62584206D01*
X76639181Y-62526751D01*
X76543637Y-62487176D01*
X76442208Y-62467000D01*
X76338792Y-62467000D01*
X76237363Y-62487176D01*
X76141819Y-62526751D01*
X76055832Y-62584206D01*
X75982706Y-62657332D01*
X75925251Y-62743319D01*
X75885676Y-62838863D01*
X75865500Y-62940292D01*
X75865500Y-63043708D01*
X75885676Y-63145137D01*
X75925251Y-63240681D01*
X75982706Y-63326668D01*
X76015501Y-63359463D01*
X76015500Y-65672540D01*
X75982706Y-65705334D01*
X75925251Y-65791321D01*
X75917002Y-65811236D01*
X75900981Y-65730694D01*
X75853868Y-65616952D01*
X75785469Y-65514586D01*
X75698414Y-65427531D01*
X75596048Y-65359132D01*
X75482306Y-65312019D01*
X75361557Y-65288000D01*
X75238443Y-65288000D01*
X75117694Y-65312019D01*
X75003952Y-65359132D01*
X74901586Y-65427531D01*
X74814531Y-65514586D01*
X74746132Y-65616952D01*
X74699019Y-65730694D01*
X74675000Y-65851443D01*
X73925000Y-65851443D01*
X73900981Y-65730694D01*
X73853868Y-65616952D01*
X73785469Y-65514586D01*
X73698414Y-65427531D01*
X73596048Y-65359132D01*
X73482306Y-65312019D01*
X73361557Y-65288000D01*
X73238443Y-65288000D01*
X73117694Y-65312019D01*
X73003952Y-65359132D01*
X72901586Y-65427531D01*
X72814531Y-65514586D01*
X72746132Y-65616952D01*
X72699019Y-65730694D01*
X72675000Y-65851443D01*
X66709003Y-65851443D01*
X66709003Y-64192973D01*
X66755668Y-64161792D01*
X66828794Y-64088666D01*
X66886249Y-64002679D01*
X66925824Y-63907135D01*
X66946000Y-63805706D01*
X66946000Y-63702290D01*
X66925824Y-63600861D01*
X66886249Y-63505317D01*
X66828794Y-63419330D01*
X66755668Y-63346204D01*
X66669681Y-63288749D01*
X66574137Y-63249174D01*
X66472708Y-63228998D01*
X66369292Y-63228998D01*
X66267863Y-63249174D01*
X66172319Y-63288749D01*
X66086332Y-63346204D01*
X66013206Y-63419330D01*
X65955751Y-63505317D01*
X65916176Y-63600861D01*
X65896000Y-63702290D01*
X65896000Y-63805706D01*
X65916176Y-63907135D01*
X65955751Y-64002679D01*
X66013206Y-64088666D01*
X66086332Y-64161792D01*
X66109004Y-64176941D01*
X66109004Y-64977997D01*
X66100324Y-64934363D01*
X66060749Y-64838819D01*
X66003294Y-64752832D01*
X65930168Y-64679706D01*
X65844181Y-64622251D01*
X65748637Y-64582676D01*
X65647208Y-64562500D01*
X65543792Y-64562500D01*
X65442363Y-64582676D01*
X65346819Y-64622251D01*
X65260832Y-64679706D01*
X65187706Y-64752832D01*
X65130251Y-64838819D01*
X65090676Y-64934363D01*
X65070500Y-65035792D01*
X60300000Y-65035792D01*
X60300000Y-62781753D01*
X63518318Y-62781753D01*
X63592955Y-62918213D01*
X63754894Y-63011992D01*
X63932018Y-63072375D01*
X64117518Y-63097044D01*
X64304267Y-63085049D01*
X64485088Y-63036852D01*
X64653032Y-62954305D01*
X64707045Y-62918213D01*
X64781682Y-62781753D01*
X64150000Y-62150071D01*
X63518318Y-62781753D01*
X60300000Y-62781753D01*
X60300000Y-62110518D01*
X63195956Y-62110518D01*
X63207951Y-62297267D01*
X63256148Y-62478088D01*
X63338695Y-62646032D01*
X63374787Y-62700045D01*
X63511247Y-62774682D01*
X64142929Y-62143000D01*
X64157071Y-62143000D01*
X64788753Y-62774682D01*
X64925213Y-62700045D01*
X65018992Y-62538106D01*
X65079375Y-62360982D01*
X65104044Y-62175482D01*
X65092049Y-61988733D01*
X65043852Y-61807912D01*
X64961305Y-61639968D01*
X64925213Y-61585955D01*
X64788753Y-61511318D01*
X64157071Y-62143000D01*
X64142929Y-62143000D01*
X63511247Y-61511318D01*
X63374787Y-61585955D01*
X63281008Y-61747894D01*
X63220625Y-61925018D01*
X63195956Y-62110518D01*
X60300000Y-62110518D01*
X60300000Y-61347788D01*
X60334112Y-61460241D01*
X60410719Y-61603563D01*
X60513815Y-61729185D01*
X60639437Y-61832281D01*
X60782759Y-61908888D01*
X60938272Y-61956062D01*
X61059479Y-61968000D01*
X61840521Y-61968000D01*
X61961728Y-61956062D01*
X62117241Y-61908888D01*
X62260563Y-61832281D01*
X62386185Y-61729185D01*
X62489281Y-61603563D01*
X62542366Y-61504247D01*
X63518318Y-61504247D01*
X64150000Y-62135929D01*
X64781682Y-61504247D01*
X64707045Y-61367787D01*
X64545106Y-61274008D01*
X64367982Y-61213625D01*
X64182482Y-61188956D01*
X63995733Y-61200951D01*
X63814912Y-61249148D01*
X63646968Y-61331695D01*
X63592955Y-61367787D01*
X63518318Y-61504247D01*
X62542366Y-61504247D01*
X62565888Y-61460241D01*
X62613062Y-61304728D01*
X62628991Y-61143000D01*
X62613062Y-60981272D01*
X62565888Y-60825759D01*
X62489281Y-60682437D01*
X62386185Y-60556815D01*
X62260563Y-60453719D01*
X62117241Y-60377112D01*
X61961728Y-60329938D01*
X61840521Y-60318000D01*
X61059479Y-60318000D01*
X60938272Y-60329938D01*
X60782759Y-60377112D01*
X60639437Y-60453719D01*
X60513815Y-60556815D01*
X60410719Y-60682437D01*
X60334112Y-60825759D01*
X60300000Y-60938212D01*
X60300000Y-59856000D01*
X66673912Y-59856000D01*
X66673912Y-61556000D01*
X66678256Y-61600108D01*
X66691122Y-61642520D01*
X66712015Y-61681608D01*
X66740132Y-61715868D01*
X66774392Y-61743985D01*
X66813480Y-61764878D01*
X66855892Y-61777744D01*
X66900000Y-61782088D01*
X68600000Y-61782088D01*
X68644108Y-61777744D01*
X68686520Y-61764878D01*
X68725608Y-61743985D01*
X68759868Y-61715868D01*
X68787985Y-61681608D01*
X68808878Y-61642520D01*
X68821744Y-61600108D01*
X68826088Y-61556000D01*
X68826088Y-60600122D01*
X69215000Y-60600122D01*
X69215000Y-60811878D01*
X69256312Y-61019566D01*
X69337348Y-61215203D01*
X69454993Y-61391272D01*
X69604728Y-61541007D01*
X69780797Y-61658652D01*
X69976434Y-61739688D01*
X70184122Y-61781000D01*
X70395878Y-61781000D01*
X70603566Y-61739688D01*
X70799203Y-61658652D01*
X70975272Y-61541007D01*
X71125007Y-61391272D01*
X71242652Y-61215203D01*
X71323688Y-61019566D01*
X71365000Y-60811878D01*
X71365000Y-60600122D01*
X71755000Y-60600122D01*
X71755000Y-60811878D01*
X71796312Y-61019566D01*
X71877348Y-61215203D01*
X71994993Y-61391272D01*
X72144728Y-61541007D01*
X72320797Y-61658652D01*
X72516434Y-61739688D01*
X72724122Y-61781000D01*
X72935878Y-61781000D01*
X73143566Y-61739688D01*
X73339203Y-61658652D01*
X73515272Y-61541007D01*
X73665007Y-61391272D01*
X73782652Y-61215203D01*
X73863688Y-61019566D01*
X73891627Y-60879104D01*
X74309028Y-60879104D01*
X74363185Y-61082763D01*
X74456033Y-61271943D01*
X74584005Y-61439375D01*
X74742182Y-61578623D01*
X74924486Y-61684337D01*
X75123911Y-61752454D01*
X75196896Y-61766971D01*
X75365000Y-61724738D01*
X75365000Y-60711000D01*
X75375000Y-60711000D01*
X75375000Y-61724738D01*
X75543104Y-61766971D01*
X75616089Y-61752454D01*
X75815514Y-61684337D01*
X75997818Y-61578623D01*
X76155995Y-61439375D01*
X76283967Y-61271943D01*
X76376815Y-61082763D01*
X76430972Y-60879104D01*
X76388739Y-60711000D01*
X75375000Y-60711000D01*
X75365000Y-60711000D01*
X74351261Y-60711000D01*
X74309028Y-60879104D01*
X73891627Y-60879104D01*
X73905000Y-60811878D01*
X73905000Y-60600122D01*
X73891628Y-60532896D01*
X74309028Y-60532896D01*
X74351261Y-60701000D01*
X75365000Y-60701000D01*
X75365000Y-59687262D01*
X75375000Y-59687262D01*
X75375000Y-60701000D01*
X76388739Y-60701000D01*
X76430972Y-60532896D01*
X76376815Y-60329237D01*
X76283967Y-60140057D01*
X76155995Y-59972625D01*
X75997818Y-59833377D01*
X75815514Y-59727663D01*
X75616089Y-59659546D01*
X75543104Y-59645029D01*
X75375000Y-59687262D01*
X75365000Y-59687262D01*
X75196896Y-59645029D01*
X75123911Y-59659546D01*
X74924486Y-59727663D01*
X74742182Y-59833377D01*
X74584005Y-59972625D01*
X74456033Y-60140057D01*
X74363185Y-60329237D01*
X74309028Y-60532896D01*
X73891628Y-60532896D01*
X73863688Y-60392434D01*
X73782652Y-60196797D01*
X73665007Y-60020728D01*
X73515272Y-59870993D01*
X73339203Y-59753348D01*
X73143566Y-59672312D01*
X72935878Y-59631000D01*
X72724122Y-59631000D01*
X72516434Y-59672312D01*
X72320797Y-59753348D01*
X72144728Y-59870993D01*
X71994993Y-60020728D01*
X71877348Y-60196797D01*
X71796312Y-60392434D01*
X71755000Y-60600122D01*
X71365000Y-60600122D01*
X71323688Y-60392434D01*
X71242652Y-60196797D01*
X71125007Y-60020728D01*
X70975272Y-59870993D01*
X70799203Y-59753348D01*
X70603566Y-59672312D01*
X70395878Y-59631000D01*
X70184122Y-59631000D01*
X69976434Y-59672312D01*
X69780797Y-59753348D01*
X69604728Y-59870993D01*
X69454993Y-60020728D01*
X69337348Y-60196797D01*
X69256312Y-60392434D01*
X69215000Y-60600122D01*
X68826088Y-60600122D01*
X68826088Y-59856000D01*
X68821744Y-59811892D01*
X68808878Y-59769480D01*
X68787985Y-59730392D01*
X68759868Y-59696132D01*
X68725608Y-59668015D01*
X68686520Y-59647122D01*
X68644108Y-59634256D01*
X68600000Y-59629912D01*
X66900000Y-59629912D01*
X66855892Y-59634256D01*
X66813480Y-59647122D01*
X66774392Y-59668015D01*
X66740132Y-59696132D01*
X66712015Y-59730392D01*
X66691122Y-59769480D01*
X66678256Y-59811892D01*
X66673912Y-59856000D01*
X60300000Y-59856000D01*
X60300000Y-59300000D01*
X107700000Y-59300000D01*
X107700001Y-84700000D01*
G36*
X74411666Y-72199887D02*
G01*
X72418647Y-72199887D01*
X71963382Y-71744622D01*
X71966387Y-71745534D01*
X72010464Y-71749875D01*
X72010473Y-71749875D01*
X72025196Y-71751325D01*
X72039919Y-71749875D01*
X74394902Y-71749875D01*
X74409625Y-71751325D01*
X74424348Y-71749875D01*
X74424358Y-71749875D01*
X74468435Y-71745534D01*
X74494918Y-71737500D01*
X74874053Y-71737500D01*
X74411666Y-72199887D01*
G37*
X74411666Y-72199887D02*
X72418647Y-72199887D01*
X71963382Y-71744622D01*
X71966387Y-71745534D01*
X72010464Y-71749875D01*
X72010473Y-71749875D01*
X72025196Y-71751325D01*
X72039919Y-71749875D01*
X74394902Y-71749875D01*
X74409625Y-71751325D01*
X74424348Y-71749875D01*
X74424358Y-71749875D01*
X74468435Y-71745534D01*
X74494918Y-71737500D01*
X74874053Y-71737500D01*
X74411666Y-72199887D01*
M02*
