G04 #@! TF.GenerationSoftware,KiCad,Pcbnew,5.1.5*
G04 #@! TF.CreationDate,2020-05-10T02:28:13+02:00*
G04 #@! TF.ProjectId,nucular-keyboard,6e756375-6c61-4722-9d6b-6579626f6172,rev?*
G04 #@! TF.SameCoordinates,Original*
G04 #@! TF.FileFunction,Legend,Bot*
G04 #@! TF.FilePolarity,Positive*
%FSLAX46Y46*%
G04 Gerber Fmt 4.6, Leading zero omitted, Abs format (unit mm)*
G04 Created by KiCad (PCBNEW 5.1.5) date 2020-05-10 02:28:13*
%MOMM*%
%LPD*%
G04 APERTURE LIST*
%ADD10C,0.150000*%
G04 APERTURE END LIST*
D10*
X67539904Y-83615571D02*
X67397047Y-83651285D01*
X67158952Y-83651285D01*
X67063714Y-83615571D01*
X67016095Y-83579857D01*
X66968476Y-83508428D01*
X66968476Y-83437000D01*
X67016095Y-83365571D01*
X67063714Y-83329857D01*
X67158952Y-83294142D01*
X67349428Y-83258428D01*
X67444666Y-83222714D01*
X67492285Y-83187000D01*
X67539904Y-83115571D01*
X67539904Y-83044142D01*
X67492285Y-82972714D01*
X67444666Y-82937000D01*
X67349428Y-82901285D01*
X67111333Y-82901285D01*
X66968476Y-82937000D01*
X66635142Y-82901285D02*
X66397047Y-83651285D01*
X66206571Y-83115571D01*
X66016095Y-83651285D01*
X65778000Y-82901285D01*
X64825619Y-83579857D02*
X64873238Y-83615571D01*
X65016095Y-83651285D01*
X65111333Y-83651285D01*
X65254190Y-83615571D01*
X65349428Y-83544142D01*
X65397047Y-83472714D01*
X65444666Y-83329857D01*
X65444666Y-83222714D01*
X65397047Y-83079857D01*
X65349428Y-83008428D01*
X65254190Y-82937000D01*
X65111333Y-82901285D01*
X65016095Y-82901285D01*
X64873238Y-82937000D01*
X64825619Y-82972714D01*
X63920857Y-83651285D02*
X64397047Y-83651285D01*
X64397047Y-82901285D01*
X63587523Y-83651285D02*
X63587523Y-82901285D01*
X63016095Y-83651285D02*
X63444666Y-83222714D01*
X63016095Y-82901285D02*
X63587523Y-83329857D01*
X67143047Y-78535571D02*
X67000190Y-78571285D01*
X66762095Y-78571285D01*
X66666857Y-78535571D01*
X66619238Y-78499857D01*
X66571619Y-78428428D01*
X66571619Y-78357000D01*
X66619238Y-78285571D01*
X66666857Y-78249857D01*
X66762095Y-78214142D01*
X66952571Y-78178428D01*
X67047809Y-78142714D01*
X67095428Y-78107000D01*
X67143047Y-78035571D01*
X67143047Y-77964142D01*
X67095428Y-77892714D01*
X67047809Y-77857000D01*
X66952571Y-77821285D01*
X66714476Y-77821285D01*
X66571619Y-77857000D01*
X66238285Y-77821285D02*
X66000190Y-78571285D01*
X65809714Y-78035571D01*
X65619238Y-78571285D01*
X65381142Y-77821285D01*
X65000190Y-78571285D02*
X65000190Y-77821285D01*
X64762095Y-77821285D01*
X64619238Y-77857000D01*
X64524000Y-77928428D01*
X64476380Y-77999857D01*
X64428761Y-78142714D01*
X64428761Y-78249857D01*
X64476380Y-78392714D01*
X64524000Y-78464142D01*
X64619238Y-78535571D01*
X64762095Y-78571285D01*
X65000190Y-78571285D01*
X64000190Y-78571285D02*
X64000190Y-77821285D01*
X63333523Y-77821285D02*
X63143047Y-77821285D01*
X63047809Y-77857000D01*
X62952571Y-77928428D01*
X62904952Y-78071285D01*
X62904952Y-78321285D01*
X62952571Y-78464142D01*
X63047809Y-78535571D01*
X63143047Y-78571285D01*
X63333523Y-78571285D01*
X63428761Y-78535571D01*
X63524000Y-78464142D01*
X63571619Y-78321285D01*
X63571619Y-78071285D01*
X63524000Y-77928428D01*
X63428761Y-77857000D01*
X63333523Y-77821285D01*
X65023904Y-80397000D02*
X65119142Y-80361285D01*
X65262000Y-80361285D01*
X65404857Y-80397000D01*
X65500095Y-80468428D01*
X65547714Y-80539857D01*
X65595333Y-80682714D01*
X65595333Y-80789857D01*
X65547714Y-80932714D01*
X65500095Y-81004142D01*
X65404857Y-81075571D01*
X65262000Y-81111285D01*
X65166761Y-81111285D01*
X65023904Y-81075571D01*
X64976285Y-81039857D01*
X64976285Y-80789857D01*
X65166761Y-80789857D01*
X64547714Y-81111285D02*
X64547714Y-80361285D01*
X63976285Y-81111285D01*
X63976285Y-80361285D01*
X63500095Y-81111285D02*
X63500095Y-80361285D01*
X63262000Y-80361285D01*
X63119142Y-80397000D01*
X63023904Y-80468428D01*
X62976285Y-80539857D01*
X62928666Y-80682714D01*
X62928666Y-80789857D01*
X62976285Y-80932714D01*
X63023904Y-81004142D01*
X63119142Y-81075571D01*
X63262000Y-81111285D01*
X63500095Y-81111285D01*
X67407285Y-62444380D02*
X68157285Y-62683964D01*
X67407285Y-63111047D01*
X67764428Y-63733071D02*
X67800142Y-63871464D01*
X67835857Y-63914619D01*
X67907285Y-63953309D01*
X68014428Y-63939916D01*
X68085857Y-63883369D01*
X68121571Y-63831285D01*
X68157285Y-63731583D01*
X68157285Y-63350630D01*
X67407285Y-63444380D01*
X67407285Y-63777714D01*
X67443000Y-63868488D01*
X67478714Y-63911642D01*
X67550142Y-63950333D01*
X67621571Y-63941404D01*
X67693000Y-63884857D01*
X67728714Y-63832773D01*
X67764428Y-63733071D01*
X67764428Y-63399738D01*
X67407285Y-64444380D02*
X68014428Y-64368488D01*
X68085857Y-64407178D01*
X68121571Y-64450333D01*
X68157285Y-64541107D01*
X68157285Y-64731583D01*
X68121571Y-64831285D01*
X68085857Y-64883369D01*
X68014428Y-64939916D01*
X67407285Y-65015809D01*
X68121571Y-65355095D02*
X68157285Y-65493488D01*
X68157285Y-65731583D01*
X68121571Y-65831285D01*
X68085857Y-65883369D01*
X68014428Y-65939916D01*
X67943000Y-65948845D01*
X67871571Y-65910154D01*
X67835857Y-65867000D01*
X67800142Y-65776226D01*
X67764428Y-65590214D01*
X67728714Y-65499440D01*
X67693000Y-65456285D01*
X67621571Y-65417595D01*
X67550142Y-65426523D01*
X67478714Y-65483071D01*
X67443000Y-65535154D01*
X67407285Y-65634857D01*
X67407285Y-65872952D01*
X67443000Y-66011345D01*
X72487285Y-62531809D02*
X73094428Y-62455916D01*
X73165857Y-62494607D01*
X73201571Y-62537761D01*
X73237285Y-62628535D01*
X73237285Y-62819011D01*
X73201571Y-62918714D01*
X73165857Y-62970797D01*
X73094428Y-63027345D01*
X72487285Y-63103238D01*
X73201571Y-63442523D02*
X73237285Y-63580916D01*
X73237285Y-63819011D01*
X73201571Y-63918714D01*
X73165857Y-63970797D01*
X73094428Y-64027345D01*
X73023000Y-64036273D01*
X72951571Y-63997583D01*
X72915857Y-63954428D01*
X72880142Y-63863654D01*
X72844428Y-63677642D01*
X72808714Y-63586869D01*
X72773000Y-63543714D01*
X72701571Y-63505023D01*
X72630142Y-63513952D01*
X72558714Y-63570500D01*
X72523000Y-63622583D01*
X72487285Y-63722285D01*
X72487285Y-63960380D01*
X72523000Y-64098773D01*
X72844428Y-64820500D02*
X72880142Y-64958892D01*
X72915857Y-65002047D01*
X72987285Y-65040738D01*
X73094428Y-65027345D01*
X73165857Y-64970797D01*
X73201571Y-64918714D01*
X73237285Y-64819011D01*
X73237285Y-64438059D01*
X72487285Y-64531809D01*
X72487285Y-64865142D01*
X72523000Y-64955916D01*
X72558714Y-64999071D01*
X72630142Y-65037761D01*
X72701571Y-65028833D01*
X72773000Y-64972285D01*
X72808714Y-64920202D01*
X72844428Y-64820500D01*
X72844428Y-64487166D01*
X73237285Y-66199964D02*
X72487285Y-66293714D01*
X72487285Y-66531809D01*
X72523000Y-66670202D01*
X72594428Y-66756511D01*
X72665857Y-66795202D01*
X72808714Y-66824964D01*
X72915857Y-66811571D01*
X73058714Y-66746095D01*
X73130142Y-66689547D01*
X73201571Y-66585380D01*
X73237285Y-66438059D01*
X73237285Y-66199964D01*
X72951571Y-67235678D02*
X72951571Y-67997583D01*
X73237285Y-67580916D02*
X72665857Y-67652345D01*
X69947285Y-62531809D02*
X70554428Y-62455916D01*
X70625857Y-62494607D01*
X70661571Y-62537761D01*
X70697285Y-62628535D01*
X70697285Y-62819011D01*
X70661571Y-62918714D01*
X70625857Y-62970797D01*
X70554428Y-63027345D01*
X69947285Y-63103238D01*
X70661571Y-63442523D02*
X70697285Y-63580916D01*
X70697285Y-63819011D01*
X70661571Y-63918714D01*
X70625857Y-63970797D01*
X70554428Y-64027345D01*
X70483000Y-64036273D01*
X70411571Y-63997583D01*
X70375857Y-63954428D01*
X70340142Y-63863654D01*
X70304428Y-63677642D01*
X70268714Y-63586869D01*
X70233000Y-63543714D01*
X70161571Y-63505023D01*
X70090142Y-63513952D01*
X70018714Y-63570500D01*
X69983000Y-63622583D01*
X69947285Y-63722285D01*
X69947285Y-63960380D01*
X69983000Y-64098773D01*
X70304428Y-64820500D02*
X70340142Y-64958892D01*
X70375857Y-65002047D01*
X70447285Y-65040738D01*
X70554428Y-65027345D01*
X70625857Y-64970797D01*
X70661571Y-64918714D01*
X70697285Y-64819011D01*
X70697285Y-64438059D01*
X69947285Y-64531809D01*
X69947285Y-64865142D01*
X69983000Y-64955916D01*
X70018714Y-64999071D01*
X70090142Y-65037761D01*
X70161571Y-65028833D01*
X70233000Y-64972285D01*
X70268714Y-64920202D01*
X70304428Y-64820500D01*
X70304428Y-64487166D01*
X70697285Y-66199964D02*
X69947285Y-66293714D01*
X69947285Y-66531809D01*
X69983000Y-66670202D01*
X70054428Y-66756511D01*
X70125857Y-66795202D01*
X70268714Y-66824964D01*
X70375857Y-66811571D01*
X70518714Y-66746095D01*
X70590142Y-66689547D01*
X70661571Y-66585380D01*
X70697285Y-66438059D01*
X70697285Y-66199964D01*
X70411571Y-67235678D02*
X70411571Y-67997583D01*
X75190000Y-63003345D02*
X75154285Y-62912571D01*
X75154285Y-62769714D01*
X75190000Y-62622392D01*
X75261428Y-62518226D01*
X75332857Y-62461678D01*
X75475714Y-62396202D01*
X75582857Y-62382809D01*
X75725714Y-62412571D01*
X75797142Y-62451261D01*
X75868571Y-62537571D01*
X75904285Y-62675964D01*
X75904285Y-62771202D01*
X75868571Y-62918523D01*
X75832857Y-62970607D01*
X75582857Y-63001857D01*
X75582857Y-62811380D01*
X75904285Y-63390250D02*
X75154285Y-63484000D01*
X75904285Y-63961678D01*
X75154285Y-64055428D01*
X75904285Y-64437869D02*
X75154285Y-64531619D01*
X75154285Y-64769714D01*
X75190000Y-64908107D01*
X75261428Y-64994416D01*
X75332857Y-65033107D01*
X75475714Y-65062869D01*
X75582857Y-65049476D01*
X75725714Y-64984000D01*
X75797142Y-64927452D01*
X75868571Y-64823285D01*
X75904285Y-64675964D01*
X75904285Y-64437869D01*
X77567285Y-62372857D02*
X77567285Y-62944285D01*
X78317285Y-62564821D02*
X77567285Y-62658571D01*
X77567285Y-63182380D02*
X78317285Y-63755297D01*
X77567285Y-63849047D02*
X78317285Y-63088630D01*
X77567285Y-64087142D02*
X77567285Y-64658571D01*
X78317285Y-64279107D02*
X77567285Y-64372857D01*
X80857285Y-63009297D02*
X80500142Y-62720607D01*
X80857285Y-62437869D02*
X80107285Y-62531619D01*
X80107285Y-62912571D01*
X80143000Y-63003345D01*
X80178714Y-63046500D01*
X80250142Y-63085190D01*
X80357285Y-63071797D01*
X80428714Y-63015250D01*
X80464428Y-62963166D01*
X80500142Y-62863464D01*
X80500142Y-62482511D01*
X80107285Y-63436380D02*
X80857285Y-64009297D01*
X80107285Y-64103047D02*
X80857285Y-63342630D01*
X80857285Y-64390250D02*
X80107285Y-64484000D01*
X80107285Y-64722095D01*
X80143000Y-64860488D01*
X80214428Y-64946797D01*
X80285857Y-64985488D01*
X80428714Y-65015250D01*
X80535857Y-65001857D01*
X80678714Y-64936380D01*
X80750142Y-64879833D01*
X80821571Y-64775666D01*
X80857285Y-64628345D01*
X80857285Y-64390250D01*
X82774285Y-62436380D02*
X83524285Y-62675964D01*
X82774285Y-63103047D01*
X83452857Y-63922988D02*
X83488571Y-63870904D01*
X83524285Y-63723583D01*
X83524285Y-63628345D01*
X83488571Y-63489952D01*
X83417142Y-63403642D01*
X83345714Y-63364952D01*
X83202857Y-63335190D01*
X83095714Y-63348583D01*
X82952857Y-63414059D01*
X82881428Y-63470607D01*
X82810000Y-63574773D01*
X82774285Y-63722095D01*
X82774285Y-63817333D01*
X82810000Y-63955726D01*
X82845714Y-63998880D01*
X83452857Y-64922988D02*
X83488571Y-64870904D01*
X83524285Y-64723583D01*
X83524285Y-64628345D01*
X83488571Y-64489952D01*
X83417142Y-64403642D01*
X83345714Y-64364952D01*
X83202857Y-64335190D01*
X83095714Y-64348583D01*
X82952857Y-64414059D01*
X82881428Y-64470607D01*
X82810000Y-64574773D01*
X82774285Y-64722095D01*
X82774285Y-64817333D01*
X82810000Y-64955726D01*
X82845714Y-64998880D01*
X103463285Y-62364392D02*
X102713285Y-62458142D01*
X103249000Y-62641178D01*
X102713285Y-62958142D01*
X103463285Y-62864392D01*
X103463285Y-63221535D02*
X102713285Y-63315285D01*
X103391857Y-64016178D02*
X103427571Y-63976000D01*
X103463285Y-63864392D01*
X103463285Y-63792964D01*
X103427571Y-63690285D01*
X103356142Y-63627785D01*
X103284714Y-63601000D01*
X103141857Y-63583142D01*
X103034714Y-63596535D01*
X102891857Y-63650107D01*
X102820428Y-63694750D01*
X102749000Y-63775107D01*
X102713285Y-63886714D01*
X102713285Y-63958142D01*
X102749000Y-64060821D01*
X102784714Y-64092071D01*
X85839285Y-62929964D02*
X85839285Y-62572821D01*
X85089285Y-62666571D01*
X85839285Y-63179964D02*
X85089285Y-63273714D01*
X85125000Y-64019250D02*
X85089285Y-63952285D01*
X85089285Y-63845142D01*
X85125000Y-63733535D01*
X85196428Y-63653178D01*
X85267857Y-63608535D01*
X85410714Y-63554964D01*
X85517857Y-63541571D01*
X85660714Y-63559428D01*
X85732142Y-63586214D01*
X85803571Y-63648714D01*
X85839285Y-63751392D01*
X85839285Y-63822821D01*
X85803571Y-63934428D01*
X85767857Y-63974607D01*
X85517857Y-64005857D01*
X85517857Y-63863000D01*
X85839285Y-64287107D02*
X85089285Y-64380857D01*
X85446428Y-64336214D02*
X85446428Y-64764785D01*
X85839285Y-64715678D02*
X85089285Y-64809428D01*
X85089285Y-65059428D02*
X85089285Y-65488000D01*
X85839285Y-65179964D02*
X85089285Y-65273714D01*
X88125000Y-62590178D02*
X88125000Y-62947321D01*
X88339285Y-62491964D02*
X87589285Y-62835714D01*
X88339285Y-62991964D01*
X87589285Y-63335714D02*
X88196428Y-63259821D01*
X88267857Y-63286607D01*
X88303571Y-63317857D01*
X88339285Y-63384821D01*
X88339285Y-63527678D01*
X88303571Y-63603571D01*
X88267857Y-63643750D01*
X88196428Y-63688392D01*
X87589285Y-63764285D01*
X87589285Y-64050000D02*
X88339285Y-64456250D01*
X87589285Y-64550000D02*
X88339285Y-63956250D01*
X90903571Y-62412571D02*
X90939285Y-62515250D01*
X90939285Y-62693821D01*
X90903571Y-62769714D01*
X90867857Y-62809892D01*
X90796428Y-62854535D01*
X90725000Y-62863464D01*
X90653571Y-62836678D01*
X90617857Y-62805428D01*
X90582142Y-62738464D01*
X90546428Y-62600071D01*
X90510714Y-62533107D01*
X90475000Y-62501857D01*
X90403571Y-62475071D01*
X90332142Y-62484000D01*
X90260714Y-62528642D01*
X90225000Y-62568821D01*
X90189285Y-62644714D01*
X90189285Y-62823285D01*
X90225000Y-62925964D01*
X90867857Y-63595607D02*
X90903571Y-63555428D01*
X90939285Y-63443821D01*
X90939285Y-63372392D01*
X90903571Y-63269714D01*
X90832142Y-63207214D01*
X90760714Y-63180428D01*
X90617857Y-63162571D01*
X90510714Y-63175964D01*
X90367857Y-63229535D01*
X90296428Y-63274178D01*
X90225000Y-63354535D01*
X90189285Y-63466142D01*
X90189285Y-63537571D01*
X90225000Y-63640250D01*
X90260714Y-63671500D01*
X90939285Y-64336678D02*
X90582142Y-64131321D01*
X90939285Y-63908107D02*
X90189285Y-64001857D01*
X90189285Y-64287571D01*
X90225000Y-64354535D01*
X90260714Y-64385785D01*
X90332142Y-64412571D01*
X90439285Y-64399178D01*
X90510714Y-64354535D01*
X90546428Y-64314357D01*
X90582142Y-64238464D01*
X90582142Y-63952750D01*
X90939285Y-65015250D02*
X90939285Y-64658107D01*
X90189285Y-64751857D01*
X93539285Y-62456250D02*
X92789285Y-62550000D01*
X93539285Y-62884821D01*
X92789285Y-62978571D01*
X92789285Y-63335714D02*
X93396428Y-63259821D01*
X93467857Y-63286607D01*
X93503571Y-63317857D01*
X93539285Y-63384821D01*
X93539285Y-63527678D01*
X93503571Y-63603571D01*
X93467857Y-63643750D01*
X93396428Y-63688392D01*
X92789285Y-63764285D01*
X93539285Y-64027678D02*
X92789285Y-64121428D01*
X93325000Y-64304464D01*
X92789285Y-64621428D01*
X93539285Y-64527678D01*
X95967857Y-62863464D02*
X96003571Y-62823285D01*
X96039285Y-62711678D01*
X96039285Y-62640250D01*
X96003571Y-62537571D01*
X95932142Y-62475071D01*
X95860714Y-62448285D01*
X95717857Y-62430428D01*
X95610714Y-62443821D01*
X95467857Y-62497392D01*
X95396428Y-62542035D01*
X95325000Y-62622392D01*
X95289285Y-62734000D01*
X95289285Y-62805428D01*
X95325000Y-62908107D01*
X95360714Y-62939357D01*
X95825000Y-63167035D02*
X95825000Y-63524178D01*
X96039285Y-63068821D02*
X95289285Y-63412571D01*
X96039285Y-63568821D01*
X96039285Y-63818821D02*
X95289285Y-63912571D01*
X95289285Y-64198285D01*
X95325000Y-64265250D01*
X95360714Y-64296500D01*
X95432142Y-64323285D01*
X95539285Y-64309892D01*
X95610714Y-64265250D01*
X95646428Y-64225071D01*
X95682142Y-64149178D01*
X95682142Y-63863464D01*
X96003571Y-64537571D02*
X96039285Y-64640250D01*
X96039285Y-64818821D01*
X96003571Y-64894714D01*
X95967857Y-64934892D01*
X95896428Y-64979535D01*
X95825000Y-64988464D01*
X95753571Y-64961678D01*
X95717857Y-64930428D01*
X95682142Y-64863464D01*
X95646428Y-64725071D01*
X95610714Y-64658107D01*
X95575000Y-64626857D01*
X95503571Y-64600071D01*
X95432142Y-64609000D01*
X95360714Y-64653642D01*
X95325000Y-64693821D01*
X95289285Y-64769714D01*
X95289285Y-64948285D01*
X95325000Y-65050964D01*
X98539285Y-62491964D02*
X97789285Y-62585714D01*
X97789285Y-62871428D01*
X97825000Y-62938392D01*
X97860714Y-62969642D01*
X97932142Y-62996428D01*
X98039285Y-62983035D01*
X98110714Y-62938392D01*
X98146428Y-62898214D01*
X98182142Y-62822321D01*
X98182142Y-62536607D01*
X97789285Y-63264285D02*
X98539285Y-63349107D01*
X98003571Y-63558928D01*
X98539285Y-63634821D01*
X97789285Y-63907142D01*
X98539285Y-64527678D02*
X98182142Y-64322321D01*
X98539285Y-64099107D02*
X97789285Y-64192857D01*
X97789285Y-64478571D01*
X97825000Y-64545535D01*
X97860714Y-64576785D01*
X97932142Y-64603571D01*
X98039285Y-64590178D01*
X98110714Y-64545535D01*
X98146428Y-64505357D01*
X98182142Y-64429464D01*
X98182142Y-64143750D01*
X100923285Y-62408107D02*
X100173285Y-62501857D01*
X100709000Y-62684892D01*
X100173285Y-63001857D01*
X100923285Y-62908107D01*
X100173285Y-63359000D02*
X100780428Y-63283107D01*
X100851857Y-63309892D01*
X100887571Y-63341142D01*
X100923285Y-63408107D01*
X100923285Y-63550964D01*
X100887571Y-63626857D01*
X100851857Y-63667035D01*
X100780428Y-63711678D01*
X100173285Y-63787571D01*
X100173285Y-64037571D02*
X100173285Y-64466142D01*
X100923285Y-64158107D02*
X100173285Y-64251857D01*
X100530428Y-64671500D02*
X100530428Y-64921500D01*
X100923285Y-64979535D02*
X100923285Y-64622392D01*
X100173285Y-64716142D01*
X100173285Y-65073285D01*
X105543000Y-63003345D02*
X105507285Y-62912571D01*
X105507285Y-62769714D01*
X105543000Y-62622392D01*
X105614428Y-62518226D01*
X105685857Y-62461678D01*
X105828714Y-62396202D01*
X105935857Y-62382809D01*
X106078714Y-62412571D01*
X106150142Y-62451261D01*
X106221571Y-62537571D01*
X106257285Y-62675964D01*
X106257285Y-62771202D01*
X106221571Y-62918523D01*
X106185857Y-62970607D01*
X105935857Y-63001857D01*
X105935857Y-62811380D01*
X106257285Y-63390250D02*
X105507285Y-63484000D01*
X106257285Y-63961678D01*
X105507285Y-64055428D01*
X106257285Y-64437869D02*
X105507285Y-64531619D01*
X105507285Y-64769714D01*
X105543000Y-64908107D01*
X105614428Y-64994416D01*
X105685857Y-65033107D01*
X105828714Y-65062869D01*
X105935857Y-65049476D01*
X106078714Y-64984000D01*
X106150142Y-64927452D01*
X106221571Y-64823285D01*
X106257285Y-64675964D01*
X106257285Y-64437869D01*
M02*
