G04 #@! TF.GenerationSoftware,KiCad,Pcbnew,5.1.5*
G04 #@! TF.CreationDate,2020-05-09T12:03:03+02:00*
G04 #@! TF.ProjectId,nucular-keyboard,6e756375-6c61-4722-9d6b-6579626f6172,rev?*
G04 #@! TF.SameCoordinates,Original*
G04 #@! TF.FileFunction,Paste,Top*
G04 #@! TF.FilePolarity,Positive*
%FSLAX46Y46*%
G04 Gerber Fmt 4.6, Leading zero omitted, Abs format (unit mm)*
G04 Created by KiCad (PCBNEW 5.1.5) date 2020-05-09 12:03:03*
%MOMM*%
%LPD*%
G04 APERTURE LIST*
%ADD10C,0.100000*%
%ADD11R,1.900000X1.500000*%
%ADD12R,1.350000X0.400000*%
%ADD13R,0.300000X1.000000*%
%ADD14R,1.200000X1.000000*%
%ADD15R,0.500000X2.400000*%
%ADD16R,2.500000X2.700000*%
%ADD17R,1.000000X1.500000*%
%ADD18R,1.000000X1.800000*%
%ADD19R,2.200000X1.840000*%
%ADD20R,0.900000X0.800000*%
%ADD21R,1.200000X1.400000*%
%ADD22R,1.000000X1.400000*%
G04 APERTURE END LIST*
D10*
G36*
X97496691Y-62547053D02*
G01*
X97517926Y-62550203D01*
X97538750Y-62555419D01*
X97558962Y-62562651D01*
X97578368Y-62571830D01*
X97596781Y-62582866D01*
X97614024Y-62595654D01*
X97629930Y-62610070D01*
X97644346Y-62625976D01*
X97657134Y-62643219D01*
X97668170Y-62661632D01*
X97677349Y-62681038D01*
X97684581Y-62701250D01*
X97689797Y-62722074D01*
X97692947Y-62743309D01*
X97694000Y-62764750D01*
X97694000Y-63277250D01*
X97692947Y-63298691D01*
X97689797Y-63319926D01*
X97684581Y-63340750D01*
X97677349Y-63360962D01*
X97668170Y-63380368D01*
X97657134Y-63398781D01*
X97644346Y-63416024D01*
X97629930Y-63431930D01*
X97614024Y-63446346D01*
X97596781Y-63459134D01*
X97578368Y-63470170D01*
X97558962Y-63479349D01*
X97538750Y-63486581D01*
X97517926Y-63491797D01*
X97496691Y-63494947D01*
X97475250Y-63496000D01*
X97037750Y-63496000D01*
X97016309Y-63494947D01*
X96995074Y-63491797D01*
X96974250Y-63486581D01*
X96954038Y-63479349D01*
X96934632Y-63470170D01*
X96916219Y-63459134D01*
X96898976Y-63446346D01*
X96883070Y-63431930D01*
X96868654Y-63416024D01*
X96855866Y-63398781D01*
X96844830Y-63380368D01*
X96835651Y-63360962D01*
X96828419Y-63340750D01*
X96823203Y-63319926D01*
X96820053Y-63298691D01*
X96819000Y-63277250D01*
X96819000Y-62764750D01*
X96820053Y-62743309D01*
X96823203Y-62722074D01*
X96828419Y-62701250D01*
X96835651Y-62681038D01*
X96844830Y-62661632D01*
X96855866Y-62643219D01*
X96868654Y-62625976D01*
X96883070Y-62610070D01*
X96898976Y-62595654D01*
X96916219Y-62582866D01*
X96934632Y-62571830D01*
X96954038Y-62562651D01*
X96974250Y-62555419D01*
X96995074Y-62550203D01*
X97016309Y-62547053D01*
X97037750Y-62546000D01*
X97475250Y-62546000D01*
X97496691Y-62547053D01*
G37*
G36*
X99071691Y-62547053D02*
G01*
X99092926Y-62550203D01*
X99113750Y-62555419D01*
X99133962Y-62562651D01*
X99153368Y-62571830D01*
X99171781Y-62582866D01*
X99189024Y-62595654D01*
X99204930Y-62610070D01*
X99219346Y-62625976D01*
X99232134Y-62643219D01*
X99243170Y-62661632D01*
X99252349Y-62681038D01*
X99259581Y-62701250D01*
X99264797Y-62722074D01*
X99267947Y-62743309D01*
X99269000Y-62764750D01*
X99269000Y-63277250D01*
X99267947Y-63298691D01*
X99264797Y-63319926D01*
X99259581Y-63340750D01*
X99252349Y-63360962D01*
X99243170Y-63380368D01*
X99232134Y-63398781D01*
X99219346Y-63416024D01*
X99204930Y-63431930D01*
X99189024Y-63446346D01*
X99171781Y-63459134D01*
X99153368Y-63470170D01*
X99133962Y-63479349D01*
X99113750Y-63486581D01*
X99092926Y-63491797D01*
X99071691Y-63494947D01*
X99050250Y-63496000D01*
X98612750Y-63496000D01*
X98591309Y-63494947D01*
X98570074Y-63491797D01*
X98549250Y-63486581D01*
X98529038Y-63479349D01*
X98509632Y-63470170D01*
X98491219Y-63459134D01*
X98473976Y-63446346D01*
X98458070Y-63431930D01*
X98443654Y-63416024D01*
X98430866Y-63398781D01*
X98419830Y-63380368D01*
X98410651Y-63360962D01*
X98403419Y-63340750D01*
X98398203Y-63319926D01*
X98395053Y-63298691D01*
X98394000Y-63277250D01*
X98394000Y-62764750D01*
X98395053Y-62743309D01*
X98398203Y-62722074D01*
X98403419Y-62701250D01*
X98410651Y-62681038D01*
X98419830Y-62661632D01*
X98430866Y-62643219D01*
X98443654Y-62625976D01*
X98458070Y-62610070D01*
X98473976Y-62595654D01*
X98491219Y-62582866D01*
X98509632Y-62571830D01*
X98529038Y-62562651D01*
X98549250Y-62555419D01*
X98570074Y-62550203D01*
X98591309Y-62547053D01*
X98612750Y-62546000D01*
X99050250Y-62546000D01*
X99071691Y-62547053D01*
G37*
G36*
X102094191Y-62547053D02*
G01*
X102115426Y-62550203D01*
X102136250Y-62555419D01*
X102156462Y-62562651D01*
X102175868Y-62571830D01*
X102194281Y-62582866D01*
X102211524Y-62595654D01*
X102227430Y-62610070D01*
X102241846Y-62625976D01*
X102254634Y-62643219D01*
X102265670Y-62661632D01*
X102274849Y-62681038D01*
X102282081Y-62701250D01*
X102287297Y-62722074D01*
X102290447Y-62743309D01*
X102291500Y-62764750D01*
X102291500Y-63277250D01*
X102290447Y-63298691D01*
X102287297Y-63319926D01*
X102282081Y-63340750D01*
X102274849Y-63360962D01*
X102265670Y-63380368D01*
X102254634Y-63398781D01*
X102241846Y-63416024D01*
X102227430Y-63431930D01*
X102211524Y-63446346D01*
X102194281Y-63459134D01*
X102175868Y-63470170D01*
X102156462Y-63479349D01*
X102136250Y-63486581D01*
X102115426Y-63491797D01*
X102094191Y-63494947D01*
X102072750Y-63496000D01*
X101635250Y-63496000D01*
X101613809Y-63494947D01*
X101592574Y-63491797D01*
X101571750Y-63486581D01*
X101551538Y-63479349D01*
X101532132Y-63470170D01*
X101513719Y-63459134D01*
X101496476Y-63446346D01*
X101480570Y-63431930D01*
X101466154Y-63416024D01*
X101453366Y-63398781D01*
X101442330Y-63380368D01*
X101433151Y-63360962D01*
X101425919Y-63340750D01*
X101420703Y-63319926D01*
X101417553Y-63298691D01*
X101416500Y-63277250D01*
X101416500Y-62764750D01*
X101417553Y-62743309D01*
X101420703Y-62722074D01*
X101425919Y-62701250D01*
X101433151Y-62681038D01*
X101442330Y-62661632D01*
X101453366Y-62643219D01*
X101466154Y-62625976D01*
X101480570Y-62610070D01*
X101496476Y-62595654D01*
X101513719Y-62582866D01*
X101532132Y-62571830D01*
X101551538Y-62562651D01*
X101571750Y-62555419D01*
X101592574Y-62550203D01*
X101613809Y-62547053D01*
X101635250Y-62546000D01*
X102072750Y-62546000D01*
X102094191Y-62547053D01*
G37*
G36*
X100519191Y-62547053D02*
G01*
X100540426Y-62550203D01*
X100561250Y-62555419D01*
X100581462Y-62562651D01*
X100600868Y-62571830D01*
X100619281Y-62582866D01*
X100636524Y-62595654D01*
X100652430Y-62610070D01*
X100666846Y-62625976D01*
X100679634Y-62643219D01*
X100690670Y-62661632D01*
X100699849Y-62681038D01*
X100707081Y-62701250D01*
X100712297Y-62722074D01*
X100715447Y-62743309D01*
X100716500Y-62764750D01*
X100716500Y-63277250D01*
X100715447Y-63298691D01*
X100712297Y-63319926D01*
X100707081Y-63340750D01*
X100699849Y-63360962D01*
X100690670Y-63380368D01*
X100679634Y-63398781D01*
X100666846Y-63416024D01*
X100652430Y-63431930D01*
X100636524Y-63446346D01*
X100619281Y-63459134D01*
X100600868Y-63470170D01*
X100581462Y-63479349D01*
X100561250Y-63486581D01*
X100540426Y-63491797D01*
X100519191Y-63494947D01*
X100497750Y-63496000D01*
X100060250Y-63496000D01*
X100038809Y-63494947D01*
X100017574Y-63491797D01*
X99996750Y-63486581D01*
X99976538Y-63479349D01*
X99957132Y-63470170D01*
X99938719Y-63459134D01*
X99921476Y-63446346D01*
X99905570Y-63431930D01*
X99891154Y-63416024D01*
X99878366Y-63398781D01*
X99867330Y-63380368D01*
X99858151Y-63360962D01*
X99850919Y-63340750D01*
X99845703Y-63319926D01*
X99842553Y-63298691D01*
X99841500Y-63277250D01*
X99841500Y-62764750D01*
X99842553Y-62743309D01*
X99845703Y-62722074D01*
X99850919Y-62701250D01*
X99858151Y-62681038D01*
X99867330Y-62661632D01*
X99878366Y-62643219D01*
X99891154Y-62625976D01*
X99905570Y-62610070D01*
X99921476Y-62595654D01*
X99938719Y-62582866D01*
X99957132Y-62571830D01*
X99976538Y-62562651D01*
X99996750Y-62555419D01*
X100017574Y-62550203D01*
X100038809Y-62547053D01*
X100060250Y-62546000D01*
X100497750Y-62546000D01*
X100519191Y-62547053D01*
G37*
G36*
X96023691Y-62547053D02*
G01*
X96044926Y-62550203D01*
X96065750Y-62555419D01*
X96085962Y-62562651D01*
X96105368Y-62571830D01*
X96123781Y-62582866D01*
X96141024Y-62595654D01*
X96156930Y-62610070D01*
X96171346Y-62625976D01*
X96184134Y-62643219D01*
X96195170Y-62661632D01*
X96204349Y-62681038D01*
X96211581Y-62701250D01*
X96216797Y-62722074D01*
X96219947Y-62743309D01*
X96221000Y-62764750D01*
X96221000Y-63277250D01*
X96219947Y-63298691D01*
X96216797Y-63319926D01*
X96211581Y-63340750D01*
X96204349Y-63360962D01*
X96195170Y-63380368D01*
X96184134Y-63398781D01*
X96171346Y-63416024D01*
X96156930Y-63431930D01*
X96141024Y-63446346D01*
X96123781Y-63459134D01*
X96105368Y-63470170D01*
X96085962Y-63479349D01*
X96065750Y-63486581D01*
X96044926Y-63491797D01*
X96023691Y-63494947D01*
X96002250Y-63496000D01*
X95564750Y-63496000D01*
X95543309Y-63494947D01*
X95522074Y-63491797D01*
X95501250Y-63486581D01*
X95481038Y-63479349D01*
X95461632Y-63470170D01*
X95443219Y-63459134D01*
X95425976Y-63446346D01*
X95410070Y-63431930D01*
X95395654Y-63416024D01*
X95382866Y-63398781D01*
X95371830Y-63380368D01*
X95362651Y-63360962D01*
X95355419Y-63340750D01*
X95350203Y-63319926D01*
X95347053Y-63298691D01*
X95346000Y-63277250D01*
X95346000Y-62764750D01*
X95347053Y-62743309D01*
X95350203Y-62722074D01*
X95355419Y-62701250D01*
X95362651Y-62681038D01*
X95371830Y-62661632D01*
X95382866Y-62643219D01*
X95395654Y-62625976D01*
X95410070Y-62610070D01*
X95425976Y-62595654D01*
X95443219Y-62582866D01*
X95461632Y-62571830D01*
X95481038Y-62562651D01*
X95501250Y-62555419D01*
X95522074Y-62550203D01*
X95543309Y-62547053D01*
X95564750Y-62546000D01*
X96002250Y-62546000D01*
X96023691Y-62547053D01*
G37*
G36*
X94448691Y-62547053D02*
G01*
X94469926Y-62550203D01*
X94490750Y-62555419D01*
X94510962Y-62562651D01*
X94530368Y-62571830D01*
X94548781Y-62582866D01*
X94566024Y-62595654D01*
X94581930Y-62610070D01*
X94596346Y-62625976D01*
X94609134Y-62643219D01*
X94620170Y-62661632D01*
X94629349Y-62681038D01*
X94636581Y-62701250D01*
X94641797Y-62722074D01*
X94644947Y-62743309D01*
X94646000Y-62764750D01*
X94646000Y-63277250D01*
X94644947Y-63298691D01*
X94641797Y-63319926D01*
X94636581Y-63340750D01*
X94629349Y-63360962D01*
X94620170Y-63380368D01*
X94609134Y-63398781D01*
X94596346Y-63416024D01*
X94581930Y-63431930D01*
X94566024Y-63446346D01*
X94548781Y-63459134D01*
X94530368Y-63470170D01*
X94510962Y-63479349D01*
X94490750Y-63486581D01*
X94469926Y-63491797D01*
X94448691Y-63494947D01*
X94427250Y-63496000D01*
X93989750Y-63496000D01*
X93968309Y-63494947D01*
X93947074Y-63491797D01*
X93926250Y-63486581D01*
X93906038Y-63479349D01*
X93886632Y-63470170D01*
X93868219Y-63459134D01*
X93850976Y-63446346D01*
X93835070Y-63431930D01*
X93820654Y-63416024D01*
X93807866Y-63398781D01*
X93796830Y-63380368D01*
X93787651Y-63360962D01*
X93780419Y-63340750D01*
X93775203Y-63319926D01*
X93772053Y-63298691D01*
X93771000Y-63277250D01*
X93771000Y-62764750D01*
X93772053Y-62743309D01*
X93775203Y-62722074D01*
X93780419Y-62701250D01*
X93787651Y-62681038D01*
X93796830Y-62661632D01*
X93807866Y-62643219D01*
X93820654Y-62625976D01*
X93835070Y-62610070D01*
X93850976Y-62595654D01*
X93868219Y-62582866D01*
X93886632Y-62571830D01*
X93906038Y-62562651D01*
X93926250Y-62555419D01*
X93947074Y-62550203D01*
X93968309Y-62547053D01*
X93989750Y-62546000D01*
X94427250Y-62546000D01*
X94448691Y-62547053D01*
G37*
G36*
X103529191Y-62547053D02*
G01*
X103550426Y-62550203D01*
X103571250Y-62555419D01*
X103591462Y-62562651D01*
X103610868Y-62571830D01*
X103629281Y-62582866D01*
X103646524Y-62595654D01*
X103662430Y-62610070D01*
X103676846Y-62625976D01*
X103689634Y-62643219D01*
X103700670Y-62661632D01*
X103709849Y-62681038D01*
X103717081Y-62701250D01*
X103722297Y-62722074D01*
X103725447Y-62743309D01*
X103726500Y-62764750D01*
X103726500Y-63277250D01*
X103725447Y-63298691D01*
X103722297Y-63319926D01*
X103717081Y-63340750D01*
X103709849Y-63360962D01*
X103700670Y-63380368D01*
X103689634Y-63398781D01*
X103676846Y-63416024D01*
X103662430Y-63431930D01*
X103646524Y-63446346D01*
X103629281Y-63459134D01*
X103610868Y-63470170D01*
X103591462Y-63479349D01*
X103571250Y-63486581D01*
X103550426Y-63491797D01*
X103529191Y-63494947D01*
X103507750Y-63496000D01*
X103070250Y-63496000D01*
X103048809Y-63494947D01*
X103027574Y-63491797D01*
X103006750Y-63486581D01*
X102986538Y-63479349D01*
X102967132Y-63470170D01*
X102948719Y-63459134D01*
X102931476Y-63446346D01*
X102915570Y-63431930D01*
X102901154Y-63416024D01*
X102888366Y-63398781D01*
X102877330Y-63380368D01*
X102868151Y-63360962D01*
X102860919Y-63340750D01*
X102855703Y-63319926D01*
X102852553Y-63298691D01*
X102851500Y-63277250D01*
X102851500Y-62764750D01*
X102852553Y-62743309D01*
X102855703Y-62722074D01*
X102860919Y-62701250D01*
X102868151Y-62681038D01*
X102877330Y-62661632D01*
X102888366Y-62643219D01*
X102901154Y-62625976D01*
X102915570Y-62610070D01*
X102931476Y-62595654D01*
X102948719Y-62582866D01*
X102967132Y-62571830D01*
X102986538Y-62562651D01*
X103006750Y-62555419D01*
X103027574Y-62550203D01*
X103048809Y-62547053D01*
X103070250Y-62546000D01*
X103507750Y-62546000D01*
X103529191Y-62547053D01*
G37*
G36*
X105104191Y-62547053D02*
G01*
X105125426Y-62550203D01*
X105146250Y-62555419D01*
X105166462Y-62562651D01*
X105185868Y-62571830D01*
X105204281Y-62582866D01*
X105221524Y-62595654D01*
X105237430Y-62610070D01*
X105251846Y-62625976D01*
X105264634Y-62643219D01*
X105275670Y-62661632D01*
X105284849Y-62681038D01*
X105292081Y-62701250D01*
X105297297Y-62722074D01*
X105300447Y-62743309D01*
X105301500Y-62764750D01*
X105301500Y-63277250D01*
X105300447Y-63298691D01*
X105297297Y-63319926D01*
X105292081Y-63340750D01*
X105284849Y-63360962D01*
X105275670Y-63380368D01*
X105264634Y-63398781D01*
X105251846Y-63416024D01*
X105237430Y-63431930D01*
X105221524Y-63446346D01*
X105204281Y-63459134D01*
X105185868Y-63470170D01*
X105166462Y-63479349D01*
X105146250Y-63486581D01*
X105125426Y-63491797D01*
X105104191Y-63494947D01*
X105082750Y-63496000D01*
X104645250Y-63496000D01*
X104623809Y-63494947D01*
X104602574Y-63491797D01*
X104581750Y-63486581D01*
X104561538Y-63479349D01*
X104542132Y-63470170D01*
X104523719Y-63459134D01*
X104506476Y-63446346D01*
X104490570Y-63431930D01*
X104476154Y-63416024D01*
X104463366Y-63398781D01*
X104452330Y-63380368D01*
X104443151Y-63360962D01*
X104435919Y-63340750D01*
X104430703Y-63319926D01*
X104427553Y-63298691D01*
X104426500Y-63277250D01*
X104426500Y-62764750D01*
X104427553Y-62743309D01*
X104430703Y-62722074D01*
X104435919Y-62701250D01*
X104443151Y-62681038D01*
X104452330Y-62661632D01*
X104463366Y-62643219D01*
X104476154Y-62625976D01*
X104490570Y-62610070D01*
X104506476Y-62595654D01*
X104523719Y-62582866D01*
X104542132Y-62571830D01*
X104561538Y-62562651D01*
X104581750Y-62555419D01*
X104602574Y-62550203D01*
X104623809Y-62547053D01*
X104645250Y-62546000D01*
X105082750Y-62546000D01*
X105104191Y-62547053D01*
G37*
G36*
X85368191Y-62547053D02*
G01*
X85389426Y-62550203D01*
X85410250Y-62555419D01*
X85430462Y-62562651D01*
X85449868Y-62571830D01*
X85468281Y-62582866D01*
X85485524Y-62595654D01*
X85501430Y-62610070D01*
X85515846Y-62625976D01*
X85528634Y-62643219D01*
X85539670Y-62661632D01*
X85548849Y-62681038D01*
X85556081Y-62701250D01*
X85561297Y-62722074D01*
X85564447Y-62743309D01*
X85565500Y-62764750D01*
X85565500Y-63277250D01*
X85564447Y-63298691D01*
X85561297Y-63319926D01*
X85556081Y-63340750D01*
X85548849Y-63360962D01*
X85539670Y-63380368D01*
X85528634Y-63398781D01*
X85515846Y-63416024D01*
X85501430Y-63431930D01*
X85485524Y-63446346D01*
X85468281Y-63459134D01*
X85449868Y-63470170D01*
X85430462Y-63479349D01*
X85410250Y-63486581D01*
X85389426Y-63491797D01*
X85368191Y-63494947D01*
X85346750Y-63496000D01*
X84909250Y-63496000D01*
X84887809Y-63494947D01*
X84866574Y-63491797D01*
X84845750Y-63486581D01*
X84825538Y-63479349D01*
X84806132Y-63470170D01*
X84787719Y-63459134D01*
X84770476Y-63446346D01*
X84754570Y-63431930D01*
X84740154Y-63416024D01*
X84727366Y-63398781D01*
X84716330Y-63380368D01*
X84707151Y-63360962D01*
X84699919Y-63340750D01*
X84694703Y-63319926D01*
X84691553Y-63298691D01*
X84690500Y-63277250D01*
X84690500Y-62764750D01*
X84691553Y-62743309D01*
X84694703Y-62722074D01*
X84699919Y-62701250D01*
X84707151Y-62681038D01*
X84716330Y-62661632D01*
X84727366Y-62643219D01*
X84740154Y-62625976D01*
X84754570Y-62610070D01*
X84770476Y-62595654D01*
X84787719Y-62582866D01*
X84806132Y-62571830D01*
X84825538Y-62562651D01*
X84845750Y-62555419D01*
X84866574Y-62550203D01*
X84887809Y-62547053D01*
X84909250Y-62546000D01*
X85346750Y-62546000D01*
X85368191Y-62547053D01*
G37*
G36*
X86943191Y-62547053D02*
G01*
X86964426Y-62550203D01*
X86985250Y-62555419D01*
X87005462Y-62562651D01*
X87024868Y-62571830D01*
X87043281Y-62582866D01*
X87060524Y-62595654D01*
X87076430Y-62610070D01*
X87090846Y-62625976D01*
X87103634Y-62643219D01*
X87114670Y-62661632D01*
X87123849Y-62681038D01*
X87131081Y-62701250D01*
X87136297Y-62722074D01*
X87139447Y-62743309D01*
X87140500Y-62764750D01*
X87140500Y-63277250D01*
X87139447Y-63298691D01*
X87136297Y-63319926D01*
X87131081Y-63340750D01*
X87123849Y-63360962D01*
X87114670Y-63380368D01*
X87103634Y-63398781D01*
X87090846Y-63416024D01*
X87076430Y-63431930D01*
X87060524Y-63446346D01*
X87043281Y-63459134D01*
X87024868Y-63470170D01*
X87005462Y-63479349D01*
X86985250Y-63486581D01*
X86964426Y-63491797D01*
X86943191Y-63494947D01*
X86921750Y-63496000D01*
X86484250Y-63496000D01*
X86462809Y-63494947D01*
X86441574Y-63491797D01*
X86420750Y-63486581D01*
X86400538Y-63479349D01*
X86381132Y-63470170D01*
X86362719Y-63459134D01*
X86345476Y-63446346D01*
X86329570Y-63431930D01*
X86315154Y-63416024D01*
X86302366Y-63398781D01*
X86291330Y-63380368D01*
X86282151Y-63360962D01*
X86274919Y-63340750D01*
X86269703Y-63319926D01*
X86266553Y-63298691D01*
X86265500Y-63277250D01*
X86265500Y-62764750D01*
X86266553Y-62743309D01*
X86269703Y-62722074D01*
X86274919Y-62701250D01*
X86282151Y-62681038D01*
X86291330Y-62661632D01*
X86302366Y-62643219D01*
X86315154Y-62625976D01*
X86329570Y-62610070D01*
X86345476Y-62595654D01*
X86362719Y-62582866D01*
X86381132Y-62571830D01*
X86400538Y-62562651D01*
X86420750Y-62555419D01*
X86441574Y-62550203D01*
X86462809Y-62547053D01*
X86484250Y-62546000D01*
X86921750Y-62546000D01*
X86943191Y-62547053D01*
G37*
G36*
X89927691Y-62547053D02*
G01*
X89948926Y-62550203D01*
X89969750Y-62555419D01*
X89989962Y-62562651D01*
X90009368Y-62571830D01*
X90027781Y-62582866D01*
X90045024Y-62595654D01*
X90060930Y-62610070D01*
X90075346Y-62625976D01*
X90088134Y-62643219D01*
X90099170Y-62661632D01*
X90108349Y-62681038D01*
X90115581Y-62701250D01*
X90120797Y-62722074D01*
X90123947Y-62743309D01*
X90125000Y-62764750D01*
X90125000Y-63277250D01*
X90123947Y-63298691D01*
X90120797Y-63319926D01*
X90115581Y-63340750D01*
X90108349Y-63360962D01*
X90099170Y-63380368D01*
X90088134Y-63398781D01*
X90075346Y-63416024D01*
X90060930Y-63431930D01*
X90045024Y-63446346D01*
X90027781Y-63459134D01*
X90009368Y-63470170D01*
X89989962Y-63479349D01*
X89969750Y-63486581D01*
X89948926Y-63491797D01*
X89927691Y-63494947D01*
X89906250Y-63496000D01*
X89468750Y-63496000D01*
X89447309Y-63494947D01*
X89426074Y-63491797D01*
X89405250Y-63486581D01*
X89385038Y-63479349D01*
X89365632Y-63470170D01*
X89347219Y-63459134D01*
X89329976Y-63446346D01*
X89314070Y-63431930D01*
X89299654Y-63416024D01*
X89286866Y-63398781D01*
X89275830Y-63380368D01*
X89266651Y-63360962D01*
X89259419Y-63340750D01*
X89254203Y-63319926D01*
X89251053Y-63298691D01*
X89250000Y-63277250D01*
X89250000Y-62764750D01*
X89251053Y-62743309D01*
X89254203Y-62722074D01*
X89259419Y-62701250D01*
X89266651Y-62681038D01*
X89275830Y-62661632D01*
X89286866Y-62643219D01*
X89299654Y-62625976D01*
X89314070Y-62610070D01*
X89329976Y-62595654D01*
X89347219Y-62582866D01*
X89365632Y-62571830D01*
X89385038Y-62562651D01*
X89405250Y-62555419D01*
X89426074Y-62550203D01*
X89447309Y-62547053D01*
X89468750Y-62546000D01*
X89906250Y-62546000D01*
X89927691Y-62547053D01*
G37*
G36*
X88352691Y-62547053D02*
G01*
X88373926Y-62550203D01*
X88394750Y-62555419D01*
X88414962Y-62562651D01*
X88434368Y-62571830D01*
X88452781Y-62582866D01*
X88470024Y-62595654D01*
X88485930Y-62610070D01*
X88500346Y-62625976D01*
X88513134Y-62643219D01*
X88524170Y-62661632D01*
X88533349Y-62681038D01*
X88540581Y-62701250D01*
X88545797Y-62722074D01*
X88548947Y-62743309D01*
X88550000Y-62764750D01*
X88550000Y-63277250D01*
X88548947Y-63298691D01*
X88545797Y-63319926D01*
X88540581Y-63340750D01*
X88533349Y-63360962D01*
X88524170Y-63380368D01*
X88513134Y-63398781D01*
X88500346Y-63416024D01*
X88485930Y-63431930D01*
X88470024Y-63446346D01*
X88452781Y-63459134D01*
X88434368Y-63470170D01*
X88414962Y-63479349D01*
X88394750Y-63486581D01*
X88373926Y-63491797D01*
X88352691Y-63494947D01*
X88331250Y-63496000D01*
X87893750Y-63496000D01*
X87872309Y-63494947D01*
X87851074Y-63491797D01*
X87830250Y-63486581D01*
X87810038Y-63479349D01*
X87790632Y-63470170D01*
X87772219Y-63459134D01*
X87754976Y-63446346D01*
X87739070Y-63431930D01*
X87724654Y-63416024D01*
X87711866Y-63398781D01*
X87700830Y-63380368D01*
X87691651Y-63360962D01*
X87684419Y-63340750D01*
X87679203Y-63319926D01*
X87676053Y-63298691D01*
X87675000Y-63277250D01*
X87675000Y-62764750D01*
X87676053Y-62743309D01*
X87679203Y-62722074D01*
X87684419Y-62701250D01*
X87691651Y-62681038D01*
X87700830Y-62661632D01*
X87711866Y-62643219D01*
X87724654Y-62625976D01*
X87739070Y-62610070D01*
X87754976Y-62595654D01*
X87772219Y-62582866D01*
X87790632Y-62571830D01*
X87810038Y-62562651D01*
X87830250Y-62555419D01*
X87851074Y-62550203D01*
X87872309Y-62547053D01*
X87893750Y-62546000D01*
X88331250Y-62546000D01*
X88352691Y-62547053D01*
G37*
G36*
X91400691Y-62547053D02*
G01*
X91421926Y-62550203D01*
X91442750Y-62555419D01*
X91462962Y-62562651D01*
X91482368Y-62571830D01*
X91500781Y-62582866D01*
X91518024Y-62595654D01*
X91533930Y-62610070D01*
X91548346Y-62625976D01*
X91561134Y-62643219D01*
X91572170Y-62661632D01*
X91581349Y-62681038D01*
X91588581Y-62701250D01*
X91593797Y-62722074D01*
X91596947Y-62743309D01*
X91598000Y-62764750D01*
X91598000Y-63277250D01*
X91596947Y-63298691D01*
X91593797Y-63319926D01*
X91588581Y-63340750D01*
X91581349Y-63360962D01*
X91572170Y-63380368D01*
X91561134Y-63398781D01*
X91548346Y-63416024D01*
X91533930Y-63431930D01*
X91518024Y-63446346D01*
X91500781Y-63459134D01*
X91482368Y-63470170D01*
X91462962Y-63479349D01*
X91442750Y-63486581D01*
X91421926Y-63491797D01*
X91400691Y-63494947D01*
X91379250Y-63496000D01*
X90941750Y-63496000D01*
X90920309Y-63494947D01*
X90899074Y-63491797D01*
X90878250Y-63486581D01*
X90858038Y-63479349D01*
X90838632Y-63470170D01*
X90820219Y-63459134D01*
X90802976Y-63446346D01*
X90787070Y-63431930D01*
X90772654Y-63416024D01*
X90759866Y-63398781D01*
X90748830Y-63380368D01*
X90739651Y-63360962D01*
X90732419Y-63340750D01*
X90727203Y-63319926D01*
X90724053Y-63298691D01*
X90723000Y-63277250D01*
X90723000Y-62764750D01*
X90724053Y-62743309D01*
X90727203Y-62722074D01*
X90732419Y-62701250D01*
X90739651Y-62681038D01*
X90748830Y-62661632D01*
X90759866Y-62643219D01*
X90772654Y-62625976D01*
X90787070Y-62610070D01*
X90802976Y-62595654D01*
X90820219Y-62582866D01*
X90838632Y-62571830D01*
X90858038Y-62562651D01*
X90878250Y-62555419D01*
X90899074Y-62550203D01*
X90920309Y-62547053D01*
X90941750Y-62546000D01*
X91379250Y-62546000D01*
X91400691Y-62547053D01*
G37*
G36*
X92975691Y-62547053D02*
G01*
X92996926Y-62550203D01*
X93017750Y-62555419D01*
X93037962Y-62562651D01*
X93057368Y-62571830D01*
X93075781Y-62582866D01*
X93093024Y-62595654D01*
X93108930Y-62610070D01*
X93123346Y-62625976D01*
X93136134Y-62643219D01*
X93147170Y-62661632D01*
X93156349Y-62681038D01*
X93163581Y-62701250D01*
X93168797Y-62722074D01*
X93171947Y-62743309D01*
X93173000Y-62764750D01*
X93173000Y-63277250D01*
X93171947Y-63298691D01*
X93168797Y-63319926D01*
X93163581Y-63340750D01*
X93156349Y-63360962D01*
X93147170Y-63380368D01*
X93136134Y-63398781D01*
X93123346Y-63416024D01*
X93108930Y-63431930D01*
X93093024Y-63446346D01*
X93075781Y-63459134D01*
X93057368Y-63470170D01*
X93037962Y-63479349D01*
X93017750Y-63486581D01*
X92996926Y-63491797D01*
X92975691Y-63494947D01*
X92954250Y-63496000D01*
X92516750Y-63496000D01*
X92495309Y-63494947D01*
X92474074Y-63491797D01*
X92453250Y-63486581D01*
X92433038Y-63479349D01*
X92413632Y-63470170D01*
X92395219Y-63459134D01*
X92377976Y-63446346D01*
X92362070Y-63431930D01*
X92347654Y-63416024D01*
X92334866Y-63398781D01*
X92323830Y-63380368D01*
X92314651Y-63360962D01*
X92307419Y-63340750D01*
X92302203Y-63319926D01*
X92299053Y-63298691D01*
X92298000Y-63277250D01*
X92298000Y-62764750D01*
X92299053Y-62743309D01*
X92302203Y-62722074D01*
X92307419Y-62701250D01*
X92314651Y-62681038D01*
X92323830Y-62661632D01*
X92334866Y-62643219D01*
X92347654Y-62625976D01*
X92362070Y-62610070D01*
X92377976Y-62595654D01*
X92395219Y-62582866D01*
X92413632Y-62571830D01*
X92433038Y-62562651D01*
X92453250Y-62555419D01*
X92474074Y-62550203D01*
X92495309Y-62547053D01*
X92516750Y-62546000D01*
X92954250Y-62546000D01*
X92975691Y-62547053D01*
G37*
D11*
X61450000Y-63643000D03*
D12*
X64150000Y-64643000D03*
X64150000Y-65293000D03*
X64150000Y-65943000D03*
X64150000Y-63343000D03*
X64150000Y-63993000D03*
D11*
X61450000Y-65643000D03*
D13*
X95500000Y-81800000D03*
X95500000Y-77200000D03*
X95000000Y-81800000D03*
X95000000Y-77200000D03*
X94500000Y-81800000D03*
X94500000Y-77200000D03*
X94000000Y-81800000D03*
X94000000Y-77200000D03*
X93500000Y-81800000D03*
X93500000Y-77200000D03*
X93000000Y-81800000D03*
X93000000Y-77200000D03*
X92500000Y-81800000D03*
X92500000Y-77200000D03*
X92000000Y-81800000D03*
X92000000Y-77200000D03*
X91500000Y-81800000D03*
X91500000Y-77200000D03*
X91000000Y-81800000D03*
X91000000Y-77200000D03*
X90500000Y-81800000D03*
X90500000Y-77200000D03*
X90000000Y-81800000D03*
X90000000Y-77200000D03*
X89500000Y-81800000D03*
X89500000Y-77200000D03*
X89000000Y-81800000D03*
X89000000Y-77200000D03*
X88500000Y-81800000D03*
X88500000Y-77200000D03*
X88000000Y-81800000D03*
X88000000Y-77200000D03*
X87500000Y-81800000D03*
X87500000Y-77200000D03*
X87000000Y-81800000D03*
X87000000Y-77200000D03*
X86500000Y-81800000D03*
X86500000Y-77200000D03*
X86000000Y-81800000D03*
X86000000Y-77200000D03*
D14*
X97000000Y-81800000D03*
X97000000Y-77200000D03*
X84500000Y-77200000D03*
X84500000Y-81800000D03*
D15*
X101400000Y-72250000D03*
X101400000Y-67150000D03*
X100600000Y-72250000D03*
X100600000Y-67150000D03*
X99800000Y-72250000D03*
X99800000Y-67150000D03*
X99000000Y-72250000D03*
X99000000Y-67150000D03*
X98200000Y-72250000D03*
X98200000Y-67150000D03*
X97400000Y-72250000D03*
X97400000Y-67150000D03*
X96600000Y-72250000D03*
X96600000Y-67150000D03*
X95800000Y-72250000D03*
X95800000Y-67150000D03*
X95000000Y-72250000D03*
X95000000Y-67150000D03*
X94200000Y-72250000D03*
X94200000Y-67150000D03*
X93400000Y-72250000D03*
X93400000Y-67150000D03*
X92600000Y-72250000D03*
X92600000Y-67150000D03*
X91800000Y-72250000D03*
X91800000Y-67150000D03*
X91000000Y-72250000D03*
X91000000Y-67150000D03*
X90200000Y-72250000D03*
X90200000Y-67150000D03*
X89400000Y-72250000D03*
X89400000Y-67150000D03*
X88600000Y-72250000D03*
X88600000Y-67150000D03*
X87800000Y-72250000D03*
X87800000Y-67150000D03*
X87000000Y-72250000D03*
X87000000Y-67150000D03*
X86200000Y-72250000D03*
X86200000Y-67150000D03*
D16*
X105900000Y-69700000D03*
X81700000Y-69700000D03*
D10*
G36*
X63252691Y-69566553D02*
G01*
X63273926Y-69569703D01*
X63294750Y-69574919D01*
X63314962Y-69582151D01*
X63334368Y-69591330D01*
X63352781Y-69602366D01*
X63370024Y-69615154D01*
X63385930Y-69629570D01*
X63400346Y-69645476D01*
X63413134Y-69662719D01*
X63424170Y-69681132D01*
X63433349Y-69700538D01*
X63440581Y-69720750D01*
X63445797Y-69741574D01*
X63448947Y-69762809D01*
X63450000Y-69784250D01*
X63450000Y-70296750D01*
X63448947Y-70318191D01*
X63445797Y-70339426D01*
X63440581Y-70360250D01*
X63433349Y-70380462D01*
X63424170Y-70399868D01*
X63413134Y-70418281D01*
X63400346Y-70435524D01*
X63385930Y-70451430D01*
X63370024Y-70465846D01*
X63352781Y-70478634D01*
X63334368Y-70489670D01*
X63314962Y-70498849D01*
X63294750Y-70506081D01*
X63273926Y-70511297D01*
X63252691Y-70514447D01*
X63231250Y-70515500D01*
X62793750Y-70515500D01*
X62772309Y-70514447D01*
X62751074Y-70511297D01*
X62730250Y-70506081D01*
X62710038Y-70498849D01*
X62690632Y-70489670D01*
X62672219Y-70478634D01*
X62654976Y-70465846D01*
X62639070Y-70451430D01*
X62624654Y-70435524D01*
X62611866Y-70418281D01*
X62600830Y-70399868D01*
X62591651Y-70380462D01*
X62584419Y-70360250D01*
X62579203Y-70339426D01*
X62576053Y-70318191D01*
X62575000Y-70296750D01*
X62575000Y-69784250D01*
X62576053Y-69762809D01*
X62579203Y-69741574D01*
X62584419Y-69720750D01*
X62591651Y-69700538D01*
X62600830Y-69681132D01*
X62611866Y-69662719D01*
X62624654Y-69645476D01*
X62639070Y-69629570D01*
X62654976Y-69615154D01*
X62672219Y-69602366D01*
X62690632Y-69591330D01*
X62710038Y-69582151D01*
X62730250Y-69574919D01*
X62751074Y-69569703D01*
X62772309Y-69566553D01*
X62793750Y-69565500D01*
X63231250Y-69565500D01*
X63252691Y-69566553D01*
G37*
G36*
X64827691Y-69566553D02*
G01*
X64848926Y-69569703D01*
X64869750Y-69574919D01*
X64889962Y-69582151D01*
X64909368Y-69591330D01*
X64927781Y-69602366D01*
X64945024Y-69615154D01*
X64960930Y-69629570D01*
X64975346Y-69645476D01*
X64988134Y-69662719D01*
X64999170Y-69681132D01*
X65008349Y-69700538D01*
X65015581Y-69720750D01*
X65020797Y-69741574D01*
X65023947Y-69762809D01*
X65025000Y-69784250D01*
X65025000Y-70296750D01*
X65023947Y-70318191D01*
X65020797Y-70339426D01*
X65015581Y-70360250D01*
X65008349Y-70380462D01*
X64999170Y-70399868D01*
X64988134Y-70418281D01*
X64975346Y-70435524D01*
X64960930Y-70451430D01*
X64945024Y-70465846D01*
X64927781Y-70478634D01*
X64909368Y-70489670D01*
X64889962Y-70498849D01*
X64869750Y-70506081D01*
X64848926Y-70511297D01*
X64827691Y-70514447D01*
X64806250Y-70515500D01*
X64368750Y-70515500D01*
X64347309Y-70514447D01*
X64326074Y-70511297D01*
X64305250Y-70506081D01*
X64285038Y-70498849D01*
X64265632Y-70489670D01*
X64247219Y-70478634D01*
X64229976Y-70465846D01*
X64214070Y-70451430D01*
X64199654Y-70435524D01*
X64186866Y-70418281D01*
X64175830Y-70399868D01*
X64166651Y-70380462D01*
X64159419Y-70360250D01*
X64154203Y-70339426D01*
X64151053Y-70318191D01*
X64150000Y-70296750D01*
X64150000Y-69784250D01*
X64151053Y-69762809D01*
X64154203Y-69741574D01*
X64159419Y-69720750D01*
X64166651Y-69700538D01*
X64175830Y-69681132D01*
X64186866Y-69662719D01*
X64199654Y-69645476D01*
X64214070Y-69629570D01*
X64229976Y-69615154D01*
X64247219Y-69602366D01*
X64265632Y-69591330D01*
X64285038Y-69582151D01*
X64305250Y-69574919D01*
X64326074Y-69569703D01*
X64347309Y-69566553D01*
X64368750Y-69565500D01*
X64806250Y-69565500D01*
X64827691Y-69566553D01*
G37*
G36*
X64877691Y-78751053D02*
G01*
X64898926Y-78754203D01*
X64919750Y-78759419D01*
X64939962Y-78766651D01*
X64959368Y-78775830D01*
X64977781Y-78786866D01*
X64995024Y-78799654D01*
X65010930Y-78814070D01*
X65025346Y-78829976D01*
X65038134Y-78847219D01*
X65049170Y-78865632D01*
X65058349Y-78885038D01*
X65065581Y-78905250D01*
X65070797Y-78926074D01*
X65073947Y-78947309D01*
X65075000Y-78968750D01*
X65075000Y-79406250D01*
X65073947Y-79427691D01*
X65070797Y-79448926D01*
X65065581Y-79469750D01*
X65058349Y-79489962D01*
X65049170Y-79509368D01*
X65038134Y-79527781D01*
X65025346Y-79545024D01*
X65010930Y-79560930D01*
X64995024Y-79575346D01*
X64977781Y-79588134D01*
X64959368Y-79599170D01*
X64939962Y-79608349D01*
X64919750Y-79615581D01*
X64898926Y-79620797D01*
X64877691Y-79623947D01*
X64856250Y-79625000D01*
X64343750Y-79625000D01*
X64322309Y-79623947D01*
X64301074Y-79620797D01*
X64280250Y-79615581D01*
X64260038Y-79608349D01*
X64240632Y-79599170D01*
X64222219Y-79588134D01*
X64204976Y-79575346D01*
X64189070Y-79560930D01*
X64174654Y-79545024D01*
X64161866Y-79527781D01*
X64150830Y-79509368D01*
X64141651Y-79489962D01*
X64134419Y-79469750D01*
X64129203Y-79448926D01*
X64126053Y-79427691D01*
X64125000Y-79406250D01*
X64125000Y-78968750D01*
X64126053Y-78947309D01*
X64129203Y-78926074D01*
X64134419Y-78905250D01*
X64141651Y-78885038D01*
X64150830Y-78865632D01*
X64161866Y-78847219D01*
X64174654Y-78829976D01*
X64189070Y-78814070D01*
X64204976Y-78799654D01*
X64222219Y-78786866D01*
X64240632Y-78775830D01*
X64260038Y-78766651D01*
X64280250Y-78759419D01*
X64301074Y-78754203D01*
X64322309Y-78751053D01*
X64343750Y-78750000D01*
X64856250Y-78750000D01*
X64877691Y-78751053D01*
G37*
G36*
X64877691Y-77176053D02*
G01*
X64898926Y-77179203D01*
X64919750Y-77184419D01*
X64939962Y-77191651D01*
X64959368Y-77200830D01*
X64977781Y-77211866D01*
X64995024Y-77224654D01*
X65010930Y-77239070D01*
X65025346Y-77254976D01*
X65038134Y-77272219D01*
X65049170Y-77290632D01*
X65058349Y-77310038D01*
X65065581Y-77330250D01*
X65070797Y-77351074D01*
X65073947Y-77372309D01*
X65075000Y-77393750D01*
X65075000Y-77831250D01*
X65073947Y-77852691D01*
X65070797Y-77873926D01*
X65065581Y-77894750D01*
X65058349Y-77914962D01*
X65049170Y-77934368D01*
X65038134Y-77952781D01*
X65025346Y-77970024D01*
X65010930Y-77985930D01*
X64995024Y-78000346D01*
X64977781Y-78013134D01*
X64959368Y-78024170D01*
X64939962Y-78033349D01*
X64919750Y-78040581D01*
X64898926Y-78045797D01*
X64877691Y-78048947D01*
X64856250Y-78050000D01*
X64343750Y-78050000D01*
X64322309Y-78048947D01*
X64301074Y-78045797D01*
X64280250Y-78040581D01*
X64260038Y-78033349D01*
X64240632Y-78024170D01*
X64222219Y-78013134D01*
X64204976Y-78000346D01*
X64189070Y-77985930D01*
X64174654Y-77970024D01*
X64161866Y-77952781D01*
X64150830Y-77934368D01*
X64141651Y-77914962D01*
X64134419Y-77894750D01*
X64129203Y-77873926D01*
X64126053Y-77852691D01*
X64125000Y-77831250D01*
X64125000Y-77393750D01*
X64126053Y-77372309D01*
X64129203Y-77351074D01*
X64134419Y-77330250D01*
X64141651Y-77310038D01*
X64150830Y-77290632D01*
X64161866Y-77272219D01*
X64174654Y-77254976D01*
X64189070Y-77239070D01*
X64204976Y-77224654D01*
X64222219Y-77211866D01*
X64240632Y-77200830D01*
X64260038Y-77191651D01*
X64280250Y-77184419D01*
X64301074Y-77179203D01*
X64322309Y-77176053D01*
X64343750Y-77175000D01*
X64856250Y-77175000D01*
X64877691Y-77176053D01*
G37*
G36*
X62000000Y-71798000D02*
G01*
X62600000Y-70948000D01*
X63600000Y-70948000D01*
X64200000Y-71798000D01*
X62000000Y-71798000D01*
G37*
D17*
X61600000Y-75520000D03*
D18*
X63100000Y-75373500D03*
D17*
X64600000Y-75520000D03*
D19*
X63100000Y-72706500D03*
D10*
G36*
X64200000Y-73616200D02*
G01*
X63500000Y-74616200D01*
X62700000Y-74616200D01*
X62000000Y-73616200D01*
X64200000Y-73616200D01*
G37*
D20*
X66880000Y-82880000D03*
X66880000Y-80980000D03*
X64880000Y-81930000D03*
D21*
X67746500Y-65425500D03*
D22*
X69466500Y-65425500D03*
X69466500Y-63225500D03*
X67566500Y-63225500D03*
D10*
G36*
X77232351Y-79600361D02*
G01*
X77239632Y-79601441D01*
X77246771Y-79603229D01*
X77253701Y-79605709D01*
X77260355Y-79608856D01*
X77266668Y-79612640D01*
X77272579Y-79617024D01*
X77278033Y-79621967D01*
X77282976Y-79627421D01*
X77287360Y-79633332D01*
X77291144Y-79639645D01*
X77294291Y-79646299D01*
X77296771Y-79653229D01*
X77298559Y-79660368D01*
X77299639Y-79667649D01*
X77300000Y-79675000D01*
X77300000Y-81075000D01*
X77299639Y-81082351D01*
X77298559Y-81089632D01*
X77296771Y-81096771D01*
X77294291Y-81103701D01*
X77291144Y-81110355D01*
X77287360Y-81116668D01*
X77282976Y-81122579D01*
X77278033Y-81128033D01*
X77272579Y-81132976D01*
X77266668Y-81137360D01*
X77260355Y-81141144D01*
X77253701Y-81144291D01*
X77246771Y-81146771D01*
X77239632Y-81148559D01*
X77232351Y-81149639D01*
X77225000Y-81150000D01*
X77075000Y-81150000D01*
X77067649Y-81149639D01*
X77060368Y-81148559D01*
X77053229Y-81146771D01*
X77046299Y-81144291D01*
X77039645Y-81141144D01*
X77033332Y-81137360D01*
X77027421Y-81132976D01*
X77021967Y-81128033D01*
X77017024Y-81122579D01*
X77012640Y-81116668D01*
X77008856Y-81110355D01*
X77005709Y-81103701D01*
X77003229Y-81096771D01*
X77001441Y-81089632D01*
X77000361Y-81082351D01*
X77000000Y-81075000D01*
X77000000Y-79675000D01*
X77000361Y-79667649D01*
X77001441Y-79660368D01*
X77003229Y-79653229D01*
X77005709Y-79646299D01*
X77008856Y-79639645D01*
X77012640Y-79633332D01*
X77017024Y-79627421D01*
X77021967Y-79621967D01*
X77027421Y-79617024D01*
X77033332Y-79612640D01*
X77039645Y-79608856D01*
X77046299Y-79605709D01*
X77053229Y-79603229D01*
X77060368Y-79601441D01*
X77067649Y-79600361D01*
X77075000Y-79600000D01*
X77225000Y-79600000D01*
X77232351Y-79600361D01*
G37*
G36*
X76732351Y-79600361D02*
G01*
X76739632Y-79601441D01*
X76746771Y-79603229D01*
X76753701Y-79605709D01*
X76760355Y-79608856D01*
X76766668Y-79612640D01*
X76772579Y-79617024D01*
X76778033Y-79621967D01*
X76782976Y-79627421D01*
X76787360Y-79633332D01*
X76791144Y-79639645D01*
X76794291Y-79646299D01*
X76796771Y-79653229D01*
X76798559Y-79660368D01*
X76799639Y-79667649D01*
X76800000Y-79675000D01*
X76800000Y-81075000D01*
X76799639Y-81082351D01*
X76798559Y-81089632D01*
X76796771Y-81096771D01*
X76794291Y-81103701D01*
X76791144Y-81110355D01*
X76787360Y-81116668D01*
X76782976Y-81122579D01*
X76778033Y-81128033D01*
X76772579Y-81132976D01*
X76766668Y-81137360D01*
X76760355Y-81141144D01*
X76753701Y-81144291D01*
X76746771Y-81146771D01*
X76739632Y-81148559D01*
X76732351Y-81149639D01*
X76725000Y-81150000D01*
X76575000Y-81150000D01*
X76567649Y-81149639D01*
X76560368Y-81148559D01*
X76553229Y-81146771D01*
X76546299Y-81144291D01*
X76539645Y-81141144D01*
X76533332Y-81137360D01*
X76527421Y-81132976D01*
X76521967Y-81128033D01*
X76517024Y-81122579D01*
X76512640Y-81116668D01*
X76508856Y-81110355D01*
X76505709Y-81103701D01*
X76503229Y-81096771D01*
X76501441Y-81089632D01*
X76500361Y-81082351D01*
X76500000Y-81075000D01*
X76500000Y-79675000D01*
X76500361Y-79667649D01*
X76501441Y-79660368D01*
X76503229Y-79653229D01*
X76505709Y-79646299D01*
X76508856Y-79639645D01*
X76512640Y-79633332D01*
X76517024Y-79627421D01*
X76521967Y-79621967D01*
X76527421Y-79617024D01*
X76533332Y-79612640D01*
X76539645Y-79608856D01*
X76546299Y-79605709D01*
X76553229Y-79603229D01*
X76560368Y-79601441D01*
X76567649Y-79600361D01*
X76575000Y-79600000D01*
X76725000Y-79600000D01*
X76732351Y-79600361D01*
G37*
G36*
X76232351Y-79600361D02*
G01*
X76239632Y-79601441D01*
X76246771Y-79603229D01*
X76253701Y-79605709D01*
X76260355Y-79608856D01*
X76266668Y-79612640D01*
X76272579Y-79617024D01*
X76278033Y-79621967D01*
X76282976Y-79627421D01*
X76287360Y-79633332D01*
X76291144Y-79639645D01*
X76294291Y-79646299D01*
X76296771Y-79653229D01*
X76298559Y-79660368D01*
X76299639Y-79667649D01*
X76300000Y-79675000D01*
X76300000Y-81075000D01*
X76299639Y-81082351D01*
X76298559Y-81089632D01*
X76296771Y-81096771D01*
X76294291Y-81103701D01*
X76291144Y-81110355D01*
X76287360Y-81116668D01*
X76282976Y-81122579D01*
X76278033Y-81128033D01*
X76272579Y-81132976D01*
X76266668Y-81137360D01*
X76260355Y-81141144D01*
X76253701Y-81144291D01*
X76246771Y-81146771D01*
X76239632Y-81148559D01*
X76232351Y-81149639D01*
X76225000Y-81150000D01*
X76075000Y-81150000D01*
X76067649Y-81149639D01*
X76060368Y-81148559D01*
X76053229Y-81146771D01*
X76046299Y-81144291D01*
X76039645Y-81141144D01*
X76033332Y-81137360D01*
X76027421Y-81132976D01*
X76021967Y-81128033D01*
X76017024Y-81122579D01*
X76012640Y-81116668D01*
X76008856Y-81110355D01*
X76005709Y-81103701D01*
X76003229Y-81096771D01*
X76001441Y-81089632D01*
X76000361Y-81082351D01*
X76000000Y-81075000D01*
X76000000Y-79675000D01*
X76000361Y-79667649D01*
X76001441Y-79660368D01*
X76003229Y-79653229D01*
X76005709Y-79646299D01*
X76008856Y-79639645D01*
X76012640Y-79633332D01*
X76017024Y-79627421D01*
X76021967Y-79621967D01*
X76027421Y-79617024D01*
X76033332Y-79612640D01*
X76039645Y-79608856D01*
X76046299Y-79605709D01*
X76053229Y-79603229D01*
X76060368Y-79601441D01*
X76067649Y-79600361D01*
X76075000Y-79600000D01*
X76225000Y-79600000D01*
X76232351Y-79600361D01*
G37*
G36*
X75732351Y-79600361D02*
G01*
X75739632Y-79601441D01*
X75746771Y-79603229D01*
X75753701Y-79605709D01*
X75760355Y-79608856D01*
X75766668Y-79612640D01*
X75772579Y-79617024D01*
X75778033Y-79621967D01*
X75782976Y-79627421D01*
X75787360Y-79633332D01*
X75791144Y-79639645D01*
X75794291Y-79646299D01*
X75796771Y-79653229D01*
X75798559Y-79660368D01*
X75799639Y-79667649D01*
X75800000Y-79675000D01*
X75800000Y-81075000D01*
X75799639Y-81082351D01*
X75798559Y-81089632D01*
X75796771Y-81096771D01*
X75794291Y-81103701D01*
X75791144Y-81110355D01*
X75787360Y-81116668D01*
X75782976Y-81122579D01*
X75778033Y-81128033D01*
X75772579Y-81132976D01*
X75766668Y-81137360D01*
X75760355Y-81141144D01*
X75753701Y-81144291D01*
X75746771Y-81146771D01*
X75739632Y-81148559D01*
X75732351Y-81149639D01*
X75725000Y-81150000D01*
X75575000Y-81150000D01*
X75567649Y-81149639D01*
X75560368Y-81148559D01*
X75553229Y-81146771D01*
X75546299Y-81144291D01*
X75539645Y-81141144D01*
X75533332Y-81137360D01*
X75527421Y-81132976D01*
X75521967Y-81128033D01*
X75517024Y-81122579D01*
X75512640Y-81116668D01*
X75508856Y-81110355D01*
X75505709Y-81103701D01*
X75503229Y-81096771D01*
X75501441Y-81089632D01*
X75500361Y-81082351D01*
X75500000Y-81075000D01*
X75500000Y-79675000D01*
X75500361Y-79667649D01*
X75501441Y-79660368D01*
X75503229Y-79653229D01*
X75505709Y-79646299D01*
X75508856Y-79639645D01*
X75512640Y-79633332D01*
X75517024Y-79627421D01*
X75521967Y-79621967D01*
X75527421Y-79617024D01*
X75533332Y-79612640D01*
X75539645Y-79608856D01*
X75546299Y-79605709D01*
X75553229Y-79603229D01*
X75560368Y-79601441D01*
X75567649Y-79600361D01*
X75575000Y-79600000D01*
X75725000Y-79600000D01*
X75732351Y-79600361D01*
G37*
G36*
X75232351Y-79600361D02*
G01*
X75239632Y-79601441D01*
X75246771Y-79603229D01*
X75253701Y-79605709D01*
X75260355Y-79608856D01*
X75266668Y-79612640D01*
X75272579Y-79617024D01*
X75278033Y-79621967D01*
X75282976Y-79627421D01*
X75287360Y-79633332D01*
X75291144Y-79639645D01*
X75294291Y-79646299D01*
X75296771Y-79653229D01*
X75298559Y-79660368D01*
X75299639Y-79667649D01*
X75300000Y-79675000D01*
X75300000Y-81075000D01*
X75299639Y-81082351D01*
X75298559Y-81089632D01*
X75296771Y-81096771D01*
X75294291Y-81103701D01*
X75291144Y-81110355D01*
X75287360Y-81116668D01*
X75282976Y-81122579D01*
X75278033Y-81128033D01*
X75272579Y-81132976D01*
X75266668Y-81137360D01*
X75260355Y-81141144D01*
X75253701Y-81144291D01*
X75246771Y-81146771D01*
X75239632Y-81148559D01*
X75232351Y-81149639D01*
X75225000Y-81150000D01*
X75075000Y-81150000D01*
X75067649Y-81149639D01*
X75060368Y-81148559D01*
X75053229Y-81146771D01*
X75046299Y-81144291D01*
X75039645Y-81141144D01*
X75033332Y-81137360D01*
X75027421Y-81132976D01*
X75021967Y-81128033D01*
X75017024Y-81122579D01*
X75012640Y-81116668D01*
X75008856Y-81110355D01*
X75005709Y-81103701D01*
X75003229Y-81096771D01*
X75001441Y-81089632D01*
X75000361Y-81082351D01*
X75000000Y-81075000D01*
X75000000Y-79675000D01*
X75000361Y-79667649D01*
X75001441Y-79660368D01*
X75003229Y-79653229D01*
X75005709Y-79646299D01*
X75008856Y-79639645D01*
X75012640Y-79633332D01*
X75017024Y-79627421D01*
X75021967Y-79621967D01*
X75027421Y-79617024D01*
X75033332Y-79612640D01*
X75039645Y-79608856D01*
X75046299Y-79605709D01*
X75053229Y-79603229D01*
X75060368Y-79601441D01*
X75067649Y-79600361D01*
X75075000Y-79600000D01*
X75225000Y-79600000D01*
X75232351Y-79600361D01*
G37*
G36*
X74732351Y-79600361D02*
G01*
X74739632Y-79601441D01*
X74746771Y-79603229D01*
X74753701Y-79605709D01*
X74760355Y-79608856D01*
X74766668Y-79612640D01*
X74772579Y-79617024D01*
X74778033Y-79621967D01*
X74782976Y-79627421D01*
X74787360Y-79633332D01*
X74791144Y-79639645D01*
X74794291Y-79646299D01*
X74796771Y-79653229D01*
X74798559Y-79660368D01*
X74799639Y-79667649D01*
X74800000Y-79675000D01*
X74800000Y-81075000D01*
X74799639Y-81082351D01*
X74798559Y-81089632D01*
X74796771Y-81096771D01*
X74794291Y-81103701D01*
X74791144Y-81110355D01*
X74787360Y-81116668D01*
X74782976Y-81122579D01*
X74778033Y-81128033D01*
X74772579Y-81132976D01*
X74766668Y-81137360D01*
X74760355Y-81141144D01*
X74753701Y-81144291D01*
X74746771Y-81146771D01*
X74739632Y-81148559D01*
X74732351Y-81149639D01*
X74725000Y-81150000D01*
X74575000Y-81150000D01*
X74567649Y-81149639D01*
X74560368Y-81148559D01*
X74553229Y-81146771D01*
X74546299Y-81144291D01*
X74539645Y-81141144D01*
X74533332Y-81137360D01*
X74527421Y-81132976D01*
X74521967Y-81128033D01*
X74517024Y-81122579D01*
X74512640Y-81116668D01*
X74508856Y-81110355D01*
X74505709Y-81103701D01*
X74503229Y-81096771D01*
X74501441Y-81089632D01*
X74500361Y-81082351D01*
X74500000Y-81075000D01*
X74500000Y-79675000D01*
X74500361Y-79667649D01*
X74501441Y-79660368D01*
X74503229Y-79653229D01*
X74505709Y-79646299D01*
X74508856Y-79639645D01*
X74512640Y-79633332D01*
X74517024Y-79627421D01*
X74521967Y-79621967D01*
X74527421Y-79617024D01*
X74533332Y-79612640D01*
X74539645Y-79608856D01*
X74546299Y-79605709D01*
X74553229Y-79603229D01*
X74560368Y-79601441D01*
X74567649Y-79600361D01*
X74575000Y-79600000D01*
X74725000Y-79600000D01*
X74732351Y-79600361D01*
G37*
G36*
X74232351Y-79600361D02*
G01*
X74239632Y-79601441D01*
X74246771Y-79603229D01*
X74253701Y-79605709D01*
X74260355Y-79608856D01*
X74266668Y-79612640D01*
X74272579Y-79617024D01*
X74278033Y-79621967D01*
X74282976Y-79627421D01*
X74287360Y-79633332D01*
X74291144Y-79639645D01*
X74294291Y-79646299D01*
X74296771Y-79653229D01*
X74298559Y-79660368D01*
X74299639Y-79667649D01*
X74300000Y-79675000D01*
X74300000Y-81075000D01*
X74299639Y-81082351D01*
X74298559Y-81089632D01*
X74296771Y-81096771D01*
X74294291Y-81103701D01*
X74291144Y-81110355D01*
X74287360Y-81116668D01*
X74282976Y-81122579D01*
X74278033Y-81128033D01*
X74272579Y-81132976D01*
X74266668Y-81137360D01*
X74260355Y-81141144D01*
X74253701Y-81144291D01*
X74246771Y-81146771D01*
X74239632Y-81148559D01*
X74232351Y-81149639D01*
X74225000Y-81150000D01*
X74075000Y-81150000D01*
X74067649Y-81149639D01*
X74060368Y-81148559D01*
X74053229Y-81146771D01*
X74046299Y-81144291D01*
X74039645Y-81141144D01*
X74033332Y-81137360D01*
X74027421Y-81132976D01*
X74021967Y-81128033D01*
X74017024Y-81122579D01*
X74012640Y-81116668D01*
X74008856Y-81110355D01*
X74005709Y-81103701D01*
X74003229Y-81096771D01*
X74001441Y-81089632D01*
X74000361Y-81082351D01*
X74000000Y-81075000D01*
X74000000Y-79675000D01*
X74000361Y-79667649D01*
X74001441Y-79660368D01*
X74003229Y-79653229D01*
X74005709Y-79646299D01*
X74008856Y-79639645D01*
X74012640Y-79633332D01*
X74017024Y-79627421D01*
X74021967Y-79621967D01*
X74027421Y-79617024D01*
X74033332Y-79612640D01*
X74039645Y-79608856D01*
X74046299Y-79605709D01*
X74053229Y-79603229D01*
X74060368Y-79601441D01*
X74067649Y-79600361D01*
X74075000Y-79600000D01*
X74225000Y-79600000D01*
X74232351Y-79600361D01*
G37*
G36*
X73732351Y-79600361D02*
G01*
X73739632Y-79601441D01*
X73746771Y-79603229D01*
X73753701Y-79605709D01*
X73760355Y-79608856D01*
X73766668Y-79612640D01*
X73772579Y-79617024D01*
X73778033Y-79621967D01*
X73782976Y-79627421D01*
X73787360Y-79633332D01*
X73791144Y-79639645D01*
X73794291Y-79646299D01*
X73796771Y-79653229D01*
X73798559Y-79660368D01*
X73799639Y-79667649D01*
X73800000Y-79675000D01*
X73800000Y-81075000D01*
X73799639Y-81082351D01*
X73798559Y-81089632D01*
X73796771Y-81096771D01*
X73794291Y-81103701D01*
X73791144Y-81110355D01*
X73787360Y-81116668D01*
X73782976Y-81122579D01*
X73778033Y-81128033D01*
X73772579Y-81132976D01*
X73766668Y-81137360D01*
X73760355Y-81141144D01*
X73753701Y-81144291D01*
X73746771Y-81146771D01*
X73739632Y-81148559D01*
X73732351Y-81149639D01*
X73725000Y-81150000D01*
X73575000Y-81150000D01*
X73567649Y-81149639D01*
X73560368Y-81148559D01*
X73553229Y-81146771D01*
X73546299Y-81144291D01*
X73539645Y-81141144D01*
X73533332Y-81137360D01*
X73527421Y-81132976D01*
X73521967Y-81128033D01*
X73517024Y-81122579D01*
X73512640Y-81116668D01*
X73508856Y-81110355D01*
X73505709Y-81103701D01*
X73503229Y-81096771D01*
X73501441Y-81089632D01*
X73500361Y-81082351D01*
X73500000Y-81075000D01*
X73500000Y-79675000D01*
X73500361Y-79667649D01*
X73501441Y-79660368D01*
X73503229Y-79653229D01*
X73505709Y-79646299D01*
X73508856Y-79639645D01*
X73512640Y-79633332D01*
X73517024Y-79627421D01*
X73521967Y-79621967D01*
X73527421Y-79617024D01*
X73533332Y-79612640D01*
X73539645Y-79608856D01*
X73546299Y-79605709D01*
X73553229Y-79603229D01*
X73560368Y-79601441D01*
X73567649Y-79600361D01*
X73575000Y-79600000D01*
X73725000Y-79600000D01*
X73732351Y-79600361D01*
G37*
G36*
X73232351Y-79600361D02*
G01*
X73239632Y-79601441D01*
X73246771Y-79603229D01*
X73253701Y-79605709D01*
X73260355Y-79608856D01*
X73266668Y-79612640D01*
X73272579Y-79617024D01*
X73278033Y-79621967D01*
X73282976Y-79627421D01*
X73287360Y-79633332D01*
X73291144Y-79639645D01*
X73294291Y-79646299D01*
X73296771Y-79653229D01*
X73298559Y-79660368D01*
X73299639Y-79667649D01*
X73300000Y-79675000D01*
X73300000Y-81075000D01*
X73299639Y-81082351D01*
X73298559Y-81089632D01*
X73296771Y-81096771D01*
X73294291Y-81103701D01*
X73291144Y-81110355D01*
X73287360Y-81116668D01*
X73282976Y-81122579D01*
X73278033Y-81128033D01*
X73272579Y-81132976D01*
X73266668Y-81137360D01*
X73260355Y-81141144D01*
X73253701Y-81144291D01*
X73246771Y-81146771D01*
X73239632Y-81148559D01*
X73232351Y-81149639D01*
X73225000Y-81150000D01*
X73075000Y-81150000D01*
X73067649Y-81149639D01*
X73060368Y-81148559D01*
X73053229Y-81146771D01*
X73046299Y-81144291D01*
X73039645Y-81141144D01*
X73033332Y-81137360D01*
X73027421Y-81132976D01*
X73021967Y-81128033D01*
X73017024Y-81122579D01*
X73012640Y-81116668D01*
X73008856Y-81110355D01*
X73005709Y-81103701D01*
X73003229Y-81096771D01*
X73001441Y-81089632D01*
X73000361Y-81082351D01*
X73000000Y-81075000D01*
X73000000Y-79675000D01*
X73000361Y-79667649D01*
X73001441Y-79660368D01*
X73003229Y-79653229D01*
X73005709Y-79646299D01*
X73008856Y-79639645D01*
X73012640Y-79633332D01*
X73017024Y-79627421D01*
X73021967Y-79621967D01*
X73027421Y-79617024D01*
X73033332Y-79612640D01*
X73039645Y-79608856D01*
X73046299Y-79605709D01*
X73053229Y-79603229D01*
X73060368Y-79601441D01*
X73067649Y-79600361D01*
X73075000Y-79600000D01*
X73225000Y-79600000D01*
X73232351Y-79600361D01*
G37*
G36*
X72732351Y-79600361D02*
G01*
X72739632Y-79601441D01*
X72746771Y-79603229D01*
X72753701Y-79605709D01*
X72760355Y-79608856D01*
X72766668Y-79612640D01*
X72772579Y-79617024D01*
X72778033Y-79621967D01*
X72782976Y-79627421D01*
X72787360Y-79633332D01*
X72791144Y-79639645D01*
X72794291Y-79646299D01*
X72796771Y-79653229D01*
X72798559Y-79660368D01*
X72799639Y-79667649D01*
X72800000Y-79675000D01*
X72800000Y-81075000D01*
X72799639Y-81082351D01*
X72798559Y-81089632D01*
X72796771Y-81096771D01*
X72794291Y-81103701D01*
X72791144Y-81110355D01*
X72787360Y-81116668D01*
X72782976Y-81122579D01*
X72778033Y-81128033D01*
X72772579Y-81132976D01*
X72766668Y-81137360D01*
X72760355Y-81141144D01*
X72753701Y-81144291D01*
X72746771Y-81146771D01*
X72739632Y-81148559D01*
X72732351Y-81149639D01*
X72725000Y-81150000D01*
X72575000Y-81150000D01*
X72567649Y-81149639D01*
X72560368Y-81148559D01*
X72553229Y-81146771D01*
X72546299Y-81144291D01*
X72539645Y-81141144D01*
X72533332Y-81137360D01*
X72527421Y-81132976D01*
X72521967Y-81128033D01*
X72517024Y-81122579D01*
X72512640Y-81116668D01*
X72508856Y-81110355D01*
X72505709Y-81103701D01*
X72503229Y-81096771D01*
X72501441Y-81089632D01*
X72500361Y-81082351D01*
X72500000Y-81075000D01*
X72500000Y-79675000D01*
X72500361Y-79667649D01*
X72501441Y-79660368D01*
X72503229Y-79653229D01*
X72505709Y-79646299D01*
X72508856Y-79639645D01*
X72512640Y-79633332D01*
X72517024Y-79627421D01*
X72521967Y-79621967D01*
X72527421Y-79617024D01*
X72533332Y-79612640D01*
X72539645Y-79608856D01*
X72546299Y-79605709D01*
X72553229Y-79603229D01*
X72560368Y-79601441D01*
X72567649Y-79600361D01*
X72575000Y-79600000D01*
X72725000Y-79600000D01*
X72732351Y-79600361D01*
G37*
G36*
X72232351Y-79600361D02*
G01*
X72239632Y-79601441D01*
X72246771Y-79603229D01*
X72253701Y-79605709D01*
X72260355Y-79608856D01*
X72266668Y-79612640D01*
X72272579Y-79617024D01*
X72278033Y-79621967D01*
X72282976Y-79627421D01*
X72287360Y-79633332D01*
X72291144Y-79639645D01*
X72294291Y-79646299D01*
X72296771Y-79653229D01*
X72298559Y-79660368D01*
X72299639Y-79667649D01*
X72300000Y-79675000D01*
X72300000Y-81075000D01*
X72299639Y-81082351D01*
X72298559Y-81089632D01*
X72296771Y-81096771D01*
X72294291Y-81103701D01*
X72291144Y-81110355D01*
X72287360Y-81116668D01*
X72282976Y-81122579D01*
X72278033Y-81128033D01*
X72272579Y-81132976D01*
X72266668Y-81137360D01*
X72260355Y-81141144D01*
X72253701Y-81144291D01*
X72246771Y-81146771D01*
X72239632Y-81148559D01*
X72232351Y-81149639D01*
X72225000Y-81150000D01*
X72075000Y-81150000D01*
X72067649Y-81149639D01*
X72060368Y-81148559D01*
X72053229Y-81146771D01*
X72046299Y-81144291D01*
X72039645Y-81141144D01*
X72033332Y-81137360D01*
X72027421Y-81132976D01*
X72021967Y-81128033D01*
X72017024Y-81122579D01*
X72012640Y-81116668D01*
X72008856Y-81110355D01*
X72005709Y-81103701D01*
X72003229Y-81096771D01*
X72001441Y-81089632D01*
X72000361Y-81082351D01*
X72000000Y-81075000D01*
X72000000Y-79675000D01*
X72000361Y-79667649D01*
X72001441Y-79660368D01*
X72003229Y-79653229D01*
X72005709Y-79646299D01*
X72008856Y-79639645D01*
X72012640Y-79633332D01*
X72017024Y-79627421D01*
X72021967Y-79621967D01*
X72027421Y-79617024D01*
X72033332Y-79612640D01*
X72039645Y-79608856D01*
X72046299Y-79605709D01*
X72053229Y-79603229D01*
X72060368Y-79601441D01*
X72067649Y-79600361D01*
X72075000Y-79600000D01*
X72225000Y-79600000D01*
X72232351Y-79600361D01*
G37*
G36*
X71732351Y-79600361D02*
G01*
X71739632Y-79601441D01*
X71746771Y-79603229D01*
X71753701Y-79605709D01*
X71760355Y-79608856D01*
X71766668Y-79612640D01*
X71772579Y-79617024D01*
X71778033Y-79621967D01*
X71782976Y-79627421D01*
X71787360Y-79633332D01*
X71791144Y-79639645D01*
X71794291Y-79646299D01*
X71796771Y-79653229D01*
X71798559Y-79660368D01*
X71799639Y-79667649D01*
X71800000Y-79675000D01*
X71800000Y-81075000D01*
X71799639Y-81082351D01*
X71798559Y-81089632D01*
X71796771Y-81096771D01*
X71794291Y-81103701D01*
X71791144Y-81110355D01*
X71787360Y-81116668D01*
X71782976Y-81122579D01*
X71778033Y-81128033D01*
X71772579Y-81132976D01*
X71766668Y-81137360D01*
X71760355Y-81141144D01*
X71753701Y-81144291D01*
X71746771Y-81146771D01*
X71739632Y-81148559D01*
X71732351Y-81149639D01*
X71725000Y-81150000D01*
X71575000Y-81150000D01*
X71567649Y-81149639D01*
X71560368Y-81148559D01*
X71553229Y-81146771D01*
X71546299Y-81144291D01*
X71539645Y-81141144D01*
X71533332Y-81137360D01*
X71527421Y-81132976D01*
X71521967Y-81128033D01*
X71517024Y-81122579D01*
X71512640Y-81116668D01*
X71508856Y-81110355D01*
X71505709Y-81103701D01*
X71503229Y-81096771D01*
X71501441Y-81089632D01*
X71500361Y-81082351D01*
X71500000Y-81075000D01*
X71500000Y-79675000D01*
X71500361Y-79667649D01*
X71501441Y-79660368D01*
X71503229Y-79653229D01*
X71505709Y-79646299D01*
X71508856Y-79639645D01*
X71512640Y-79633332D01*
X71517024Y-79627421D01*
X71521967Y-79621967D01*
X71527421Y-79617024D01*
X71533332Y-79612640D01*
X71539645Y-79608856D01*
X71546299Y-79605709D01*
X71553229Y-79603229D01*
X71560368Y-79601441D01*
X71567649Y-79600361D01*
X71575000Y-79600000D01*
X71725000Y-79600000D01*
X71732351Y-79600361D01*
G37*
G36*
X71232351Y-79600361D02*
G01*
X71239632Y-79601441D01*
X71246771Y-79603229D01*
X71253701Y-79605709D01*
X71260355Y-79608856D01*
X71266668Y-79612640D01*
X71272579Y-79617024D01*
X71278033Y-79621967D01*
X71282976Y-79627421D01*
X71287360Y-79633332D01*
X71291144Y-79639645D01*
X71294291Y-79646299D01*
X71296771Y-79653229D01*
X71298559Y-79660368D01*
X71299639Y-79667649D01*
X71300000Y-79675000D01*
X71300000Y-81075000D01*
X71299639Y-81082351D01*
X71298559Y-81089632D01*
X71296771Y-81096771D01*
X71294291Y-81103701D01*
X71291144Y-81110355D01*
X71287360Y-81116668D01*
X71282976Y-81122579D01*
X71278033Y-81128033D01*
X71272579Y-81132976D01*
X71266668Y-81137360D01*
X71260355Y-81141144D01*
X71253701Y-81144291D01*
X71246771Y-81146771D01*
X71239632Y-81148559D01*
X71232351Y-81149639D01*
X71225000Y-81150000D01*
X71075000Y-81150000D01*
X71067649Y-81149639D01*
X71060368Y-81148559D01*
X71053229Y-81146771D01*
X71046299Y-81144291D01*
X71039645Y-81141144D01*
X71033332Y-81137360D01*
X71027421Y-81132976D01*
X71021967Y-81128033D01*
X71017024Y-81122579D01*
X71012640Y-81116668D01*
X71008856Y-81110355D01*
X71005709Y-81103701D01*
X71003229Y-81096771D01*
X71001441Y-81089632D01*
X71000361Y-81082351D01*
X71000000Y-81075000D01*
X71000000Y-79675000D01*
X71000361Y-79667649D01*
X71001441Y-79660368D01*
X71003229Y-79653229D01*
X71005709Y-79646299D01*
X71008856Y-79639645D01*
X71012640Y-79633332D01*
X71017024Y-79627421D01*
X71021967Y-79621967D01*
X71027421Y-79617024D01*
X71033332Y-79612640D01*
X71039645Y-79608856D01*
X71046299Y-79605709D01*
X71053229Y-79603229D01*
X71060368Y-79601441D01*
X71067649Y-79600361D01*
X71075000Y-79600000D01*
X71225000Y-79600000D01*
X71232351Y-79600361D01*
G37*
G36*
X70732351Y-79600361D02*
G01*
X70739632Y-79601441D01*
X70746771Y-79603229D01*
X70753701Y-79605709D01*
X70760355Y-79608856D01*
X70766668Y-79612640D01*
X70772579Y-79617024D01*
X70778033Y-79621967D01*
X70782976Y-79627421D01*
X70787360Y-79633332D01*
X70791144Y-79639645D01*
X70794291Y-79646299D01*
X70796771Y-79653229D01*
X70798559Y-79660368D01*
X70799639Y-79667649D01*
X70800000Y-79675000D01*
X70800000Y-81075000D01*
X70799639Y-81082351D01*
X70798559Y-81089632D01*
X70796771Y-81096771D01*
X70794291Y-81103701D01*
X70791144Y-81110355D01*
X70787360Y-81116668D01*
X70782976Y-81122579D01*
X70778033Y-81128033D01*
X70772579Y-81132976D01*
X70766668Y-81137360D01*
X70760355Y-81141144D01*
X70753701Y-81144291D01*
X70746771Y-81146771D01*
X70739632Y-81148559D01*
X70732351Y-81149639D01*
X70725000Y-81150000D01*
X70575000Y-81150000D01*
X70567649Y-81149639D01*
X70560368Y-81148559D01*
X70553229Y-81146771D01*
X70546299Y-81144291D01*
X70539645Y-81141144D01*
X70533332Y-81137360D01*
X70527421Y-81132976D01*
X70521967Y-81128033D01*
X70517024Y-81122579D01*
X70512640Y-81116668D01*
X70508856Y-81110355D01*
X70505709Y-81103701D01*
X70503229Y-81096771D01*
X70501441Y-81089632D01*
X70500361Y-81082351D01*
X70500000Y-81075000D01*
X70500000Y-79675000D01*
X70500361Y-79667649D01*
X70501441Y-79660368D01*
X70503229Y-79653229D01*
X70505709Y-79646299D01*
X70508856Y-79639645D01*
X70512640Y-79633332D01*
X70517024Y-79627421D01*
X70521967Y-79621967D01*
X70527421Y-79617024D01*
X70533332Y-79612640D01*
X70539645Y-79608856D01*
X70546299Y-79605709D01*
X70553229Y-79603229D01*
X70560368Y-79601441D01*
X70567649Y-79600361D01*
X70575000Y-79600000D01*
X70725000Y-79600000D01*
X70732351Y-79600361D01*
G37*
G36*
X70232351Y-79600361D02*
G01*
X70239632Y-79601441D01*
X70246771Y-79603229D01*
X70253701Y-79605709D01*
X70260355Y-79608856D01*
X70266668Y-79612640D01*
X70272579Y-79617024D01*
X70278033Y-79621967D01*
X70282976Y-79627421D01*
X70287360Y-79633332D01*
X70291144Y-79639645D01*
X70294291Y-79646299D01*
X70296771Y-79653229D01*
X70298559Y-79660368D01*
X70299639Y-79667649D01*
X70300000Y-79675000D01*
X70300000Y-81075000D01*
X70299639Y-81082351D01*
X70298559Y-81089632D01*
X70296771Y-81096771D01*
X70294291Y-81103701D01*
X70291144Y-81110355D01*
X70287360Y-81116668D01*
X70282976Y-81122579D01*
X70278033Y-81128033D01*
X70272579Y-81132976D01*
X70266668Y-81137360D01*
X70260355Y-81141144D01*
X70253701Y-81144291D01*
X70246771Y-81146771D01*
X70239632Y-81148559D01*
X70232351Y-81149639D01*
X70225000Y-81150000D01*
X70075000Y-81150000D01*
X70067649Y-81149639D01*
X70060368Y-81148559D01*
X70053229Y-81146771D01*
X70046299Y-81144291D01*
X70039645Y-81141144D01*
X70033332Y-81137360D01*
X70027421Y-81132976D01*
X70021967Y-81128033D01*
X70017024Y-81122579D01*
X70012640Y-81116668D01*
X70008856Y-81110355D01*
X70005709Y-81103701D01*
X70003229Y-81096771D01*
X70001441Y-81089632D01*
X70000361Y-81082351D01*
X70000000Y-81075000D01*
X70000000Y-79675000D01*
X70000361Y-79667649D01*
X70001441Y-79660368D01*
X70003229Y-79653229D01*
X70005709Y-79646299D01*
X70008856Y-79639645D01*
X70012640Y-79633332D01*
X70017024Y-79627421D01*
X70021967Y-79621967D01*
X70027421Y-79617024D01*
X70033332Y-79612640D01*
X70039645Y-79608856D01*
X70046299Y-79605709D01*
X70053229Y-79603229D01*
X70060368Y-79601441D01*
X70067649Y-79600361D01*
X70075000Y-79600000D01*
X70225000Y-79600000D01*
X70232351Y-79600361D01*
G37*
G36*
X69732351Y-79600361D02*
G01*
X69739632Y-79601441D01*
X69746771Y-79603229D01*
X69753701Y-79605709D01*
X69760355Y-79608856D01*
X69766668Y-79612640D01*
X69772579Y-79617024D01*
X69778033Y-79621967D01*
X69782976Y-79627421D01*
X69787360Y-79633332D01*
X69791144Y-79639645D01*
X69794291Y-79646299D01*
X69796771Y-79653229D01*
X69798559Y-79660368D01*
X69799639Y-79667649D01*
X69800000Y-79675000D01*
X69800000Y-81075000D01*
X69799639Y-81082351D01*
X69798559Y-81089632D01*
X69796771Y-81096771D01*
X69794291Y-81103701D01*
X69791144Y-81110355D01*
X69787360Y-81116668D01*
X69782976Y-81122579D01*
X69778033Y-81128033D01*
X69772579Y-81132976D01*
X69766668Y-81137360D01*
X69760355Y-81141144D01*
X69753701Y-81144291D01*
X69746771Y-81146771D01*
X69739632Y-81148559D01*
X69732351Y-81149639D01*
X69725000Y-81150000D01*
X69575000Y-81150000D01*
X69567649Y-81149639D01*
X69560368Y-81148559D01*
X69553229Y-81146771D01*
X69546299Y-81144291D01*
X69539645Y-81141144D01*
X69533332Y-81137360D01*
X69527421Y-81132976D01*
X69521967Y-81128033D01*
X69517024Y-81122579D01*
X69512640Y-81116668D01*
X69508856Y-81110355D01*
X69505709Y-81103701D01*
X69503229Y-81096771D01*
X69501441Y-81089632D01*
X69500361Y-81082351D01*
X69500000Y-81075000D01*
X69500000Y-79675000D01*
X69500361Y-79667649D01*
X69501441Y-79660368D01*
X69503229Y-79653229D01*
X69505709Y-79646299D01*
X69508856Y-79639645D01*
X69512640Y-79633332D01*
X69517024Y-79627421D01*
X69521967Y-79621967D01*
X69527421Y-79617024D01*
X69533332Y-79612640D01*
X69539645Y-79608856D01*
X69546299Y-79605709D01*
X69553229Y-79603229D01*
X69560368Y-79601441D01*
X69567649Y-79600361D01*
X69575000Y-79600000D01*
X69725000Y-79600000D01*
X69732351Y-79600361D01*
G37*
G36*
X68432351Y-78300361D02*
G01*
X68439632Y-78301441D01*
X68446771Y-78303229D01*
X68453701Y-78305709D01*
X68460355Y-78308856D01*
X68466668Y-78312640D01*
X68472579Y-78317024D01*
X68478033Y-78321967D01*
X68482976Y-78327421D01*
X68487360Y-78333332D01*
X68491144Y-78339645D01*
X68494291Y-78346299D01*
X68496771Y-78353229D01*
X68498559Y-78360368D01*
X68499639Y-78367649D01*
X68500000Y-78375000D01*
X68500000Y-78525000D01*
X68499639Y-78532351D01*
X68498559Y-78539632D01*
X68496771Y-78546771D01*
X68494291Y-78553701D01*
X68491144Y-78560355D01*
X68487360Y-78566668D01*
X68482976Y-78572579D01*
X68478033Y-78578033D01*
X68472579Y-78582976D01*
X68466668Y-78587360D01*
X68460355Y-78591144D01*
X68453701Y-78594291D01*
X68446771Y-78596771D01*
X68439632Y-78598559D01*
X68432351Y-78599639D01*
X68425000Y-78600000D01*
X67025000Y-78600000D01*
X67017649Y-78599639D01*
X67010368Y-78598559D01*
X67003229Y-78596771D01*
X66996299Y-78594291D01*
X66989645Y-78591144D01*
X66983332Y-78587360D01*
X66977421Y-78582976D01*
X66971967Y-78578033D01*
X66967024Y-78572579D01*
X66962640Y-78566668D01*
X66958856Y-78560355D01*
X66955709Y-78553701D01*
X66953229Y-78546771D01*
X66951441Y-78539632D01*
X66950361Y-78532351D01*
X66950000Y-78525000D01*
X66950000Y-78375000D01*
X66950361Y-78367649D01*
X66951441Y-78360368D01*
X66953229Y-78353229D01*
X66955709Y-78346299D01*
X66958856Y-78339645D01*
X66962640Y-78333332D01*
X66967024Y-78327421D01*
X66971967Y-78321967D01*
X66977421Y-78317024D01*
X66983332Y-78312640D01*
X66989645Y-78308856D01*
X66996299Y-78305709D01*
X67003229Y-78303229D01*
X67010368Y-78301441D01*
X67017649Y-78300361D01*
X67025000Y-78300000D01*
X68425000Y-78300000D01*
X68432351Y-78300361D01*
G37*
G36*
X68432351Y-77800361D02*
G01*
X68439632Y-77801441D01*
X68446771Y-77803229D01*
X68453701Y-77805709D01*
X68460355Y-77808856D01*
X68466668Y-77812640D01*
X68472579Y-77817024D01*
X68478033Y-77821967D01*
X68482976Y-77827421D01*
X68487360Y-77833332D01*
X68491144Y-77839645D01*
X68494291Y-77846299D01*
X68496771Y-77853229D01*
X68498559Y-77860368D01*
X68499639Y-77867649D01*
X68500000Y-77875000D01*
X68500000Y-78025000D01*
X68499639Y-78032351D01*
X68498559Y-78039632D01*
X68496771Y-78046771D01*
X68494291Y-78053701D01*
X68491144Y-78060355D01*
X68487360Y-78066668D01*
X68482976Y-78072579D01*
X68478033Y-78078033D01*
X68472579Y-78082976D01*
X68466668Y-78087360D01*
X68460355Y-78091144D01*
X68453701Y-78094291D01*
X68446771Y-78096771D01*
X68439632Y-78098559D01*
X68432351Y-78099639D01*
X68425000Y-78100000D01*
X67025000Y-78100000D01*
X67017649Y-78099639D01*
X67010368Y-78098559D01*
X67003229Y-78096771D01*
X66996299Y-78094291D01*
X66989645Y-78091144D01*
X66983332Y-78087360D01*
X66977421Y-78082976D01*
X66971967Y-78078033D01*
X66967024Y-78072579D01*
X66962640Y-78066668D01*
X66958856Y-78060355D01*
X66955709Y-78053701D01*
X66953229Y-78046771D01*
X66951441Y-78039632D01*
X66950361Y-78032351D01*
X66950000Y-78025000D01*
X66950000Y-77875000D01*
X66950361Y-77867649D01*
X66951441Y-77860368D01*
X66953229Y-77853229D01*
X66955709Y-77846299D01*
X66958856Y-77839645D01*
X66962640Y-77833332D01*
X66967024Y-77827421D01*
X66971967Y-77821967D01*
X66977421Y-77817024D01*
X66983332Y-77812640D01*
X66989645Y-77808856D01*
X66996299Y-77805709D01*
X67003229Y-77803229D01*
X67010368Y-77801441D01*
X67017649Y-77800361D01*
X67025000Y-77800000D01*
X68425000Y-77800000D01*
X68432351Y-77800361D01*
G37*
G36*
X68432351Y-77300361D02*
G01*
X68439632Y-77301441D01*
X68446771Y-77303229D01*
X68453701Y-77305709D01*
X68460355Y-77308856D01*
X68466668Y-77312640D01*
X68472579Y-77317024D01*
X68478033Y-77321967D01*
X68482976Y-77327421D01*
X68487360Y-77333332D01*
X68491144Y-77339645D01*
X68494291Y-77346299D01*
X68496771Y-77353229D01*
X68498559Y-77360368D01*
X68499639Y-77367649D01*
X68500000Y-77375000D01*
X68500000Y-77525000D01*
X68499639Y-77532351D01*
X68498559Y-77539632D01*
X68496771Y-77546771D01*
X68494291Y-77553701D01*
X68491144Y-77560355D01*
X68487360Y-77566668D01*
X68482976Y-77572579D01*
X68478033Y-77578033D01*
X68472579Y-77582976D01*
X68466668Y-77587360D01*
X68460355Y-77591144D01*
X68453701Y-77594291D01*
X68446771Y-77596771D01*
X68439632Y-77598559D01*
X68432351Y-77599639D01*
X68425000Y-77600000D01*
X67025000Y-77600000D01*
X67017649Y-77599639D01*
X67010368Y-77598559D01*
X67003229Y-77596771D01*
X66996299Y-77594291D01*
X66989645Y-77591144D01*
X66983332Y-77587360D01*
X66977421Y-77582976D01*
X66971967Y-77578033D01*
X66967024Y-77572579D01*
X66962640Y-77566668D01*
X66958856Y-77560355D01*
X66955709Y-77553701D01*
X66953229Y-77546771D01*
X66951441Y-77539632D01*
X66950361Y-77532351D01*
X66950000Y-77525000D01*
X66950000Y-77375000D01*
X66950361Y-77367649D01*
X66951441Y-77360368D01*
X66953229Y-77353229D01*
X66955709Y-77346299D01*
X66958856Y-77339645D01*
X66962640Y-77333332D01*
X66967024Y-77327421D01*
X66971967Y-77321967D01*
X66977421Y-77317024D01*
X66983332Y-77312640D01*
X66989645Y-77308856D01*
X66996299Y-77305709D01*
X67003229Y-77303229D01*
X67010368Y-77301441D01*
X67017649Y-77300361D01*
X67025000Y-77300000D01*
X68425000Y-77300000D01*
X68432351Y-77300361D01*
G37*
G36*
X68432351Y-76800361D02*
G01*
X68439632Y-76801441D01*
X68446771Y-76803229D01*
X68453701Y-76805709D01*
X68460355Y-76808856D01*
X68466668Y-76812640D01*
X68472579Y-76817024D01*
X68478033Y-76821967D01*
X68482976Y-76827421D01*
X68487360Y-76833332D01*
X68491144Y-76839645D01*
X68494291Y-76846299D01*
X68496771Y-76853229D01*
X68498559Y-76860368D01*
X68499639Y-76867649D01*
X68500000Y-76875000D01*
X68500000Y-77025000D01*
X68499639Y-77032351D01*
X68498559Y-77039632D01*
X68496771Y-77046771D01*
X68494291Y-77053701D01*
X68491144Y-77060355D01*
X68487360Y-77066668D01*
X68482976Y-77072579D01*
X68478033Y-77078033D01*
X68472579Y-77082976D01*
X68466668Y-77087360D01*
X68460355Y-77091144D01*
X68453701Y-77094291D01*
X68446771Y-77096771D01*
X68439632Y-77098559D01*
X68432351Y-77099639D01*
X68425000Y-77100000D01*
X67025000Y-77100000D01*
X67017649Y-77099639D01*
X67010368Y-77098559D01*
X67003229Y-77096771D01*
X66996299Y-77094291D01*
X66989645Y-77091144D01*
X66983332Y-77087360D01*
X66977421Y-77082976D01*
X66971967Y-77078033D01*
X66967024Y-77072579D01*
X66962640Y-77066668D01*
X66958856Y-77060355D01*
X66955709Y-77053701D01*
X66953229Y-77046771D01*
X66951441Y-77039632D01*
X66950361Y-77032351D01*
X66950000Y-77025000D01*
X66950000Y-76875000D01*
X66950361Y-76867649D01*
X66951441Y-76860368D01*
X66953229Y-76853229D01*
X66955709Y-76846299D01*
X66958856Y-76839645D01*
X66962640Y-76833332D01*
X66967024Y-76827421D01*
X66971967Y-76821967D01*
X66977421Y-76817024D01*
X66983332Y-76812640D01*
X66989645Y-76808856D01*
X66996299Y-76805709D01*
X67003229Y-76803229D01*
X67010368Y-76801441D01*
X67017649Y-76800361D01*
X67025000Y-76800000D01*
X68425000Y-76800000D01*
X68432351Y-76800361D01*
G37*
G36*
X68432351Y-76300361D02*
G01*
X68439632Y-76301441D01*
X68446771Y-76303229D01*
X68453701Y-76305709D01*
X68460355Y-76308856D01*
X68466668Y-76312640D01*
X68472579Y-76317024D01*
X68478033Y-76321967D01*
X68482976Y-76327421D01*
X68487360Y-76333332D01*
X68491144Y-76339645D01*
X68494291Y-76346299D01*
X68496771Y-76353229D01*
X68498559Y-76360368D01*
X68499639Y-76367649D01*
X68500000Y-76375000D01*
X68500000Y-76525000D01*
X68499639Y-76532351D01*
X68498559Y-76539632D01*
X68496771Y-76546771D01*
X68494291Y-76553701D01*
X68491144Y-76560355D01*
X68487360Y-76566668D01*
X68482976Y-76572579D01*
X68478033Y-76578033D01*
X68472579Y-76582976D01*
X68466668Y-76587360D01*
X68460355Y-76591144D01*
X68453701Y-76594291D01*
X68446771Y-76596771D01*
X68439632Y-76598559D01*
X68432351Y-76599639D01*
X68425000Y-76600000D01*
X67025000Y-76600000D01*
X67017649Y-76599639D01*
X67010368Y-76598559D01*
X67003229Y-76596771D01*
X66996299Y-76594291D01*
X66989645Y-76591144D01*
X66983332Y-76587360D01*
X66977421Y-76582976D01*
X66971967Y-76578033D01*
X66967024Y-76572579D01*
X66962640Y-76566668D01*
X66958856Y-76560355D01*
X66955709Y-76553701D01*
X66953229Y-76546771D01*
X66951441Y-76539632D01*
X66950361Y-76532351D01*
X66950000Y-76525000D01*
X66950000Y-76375000D01*
X66950361Y-76367649D01*
X66951441Y-76360368D01*
X66953229Y-76353229D01*
X66955709Y-76346299D01*
X66958856Y-76339645D01*
X66962640Y-76333332D01*
X66967024Y-76327421D01*
X66971967Y-76321967D01*
X66977421Y-76317024D01*
X66983332Y-76312640D01*
X66989645Y-76308856D01*
X66996299Y-76305709D01*
X67003229Y-76303229D01*
X67010368Y-76301441D01*
X67017649Y-76300361D01*
X67025000Y-76300000D01*
X68425000Y-76300000D01*
X68432351Y-76300361D01*
G37*
G36*
X68432351Y-75800361D02*
G01*
X68439632Y-75801441D01*
X68446771Y-75803229D01*
X68453701Y-75805709D01*
X68460355Y-75808856D01*
X68466668Y-75812640D01*
X68472579Y-75817024D01*
X68478033Y-75821967D01*
X68482976Y-75827421D01*
X68487360Y-75833332D01*
X68491144Y-75839645D01*
X68494291Y-75846299D01*
X68496771Y-75853229D01*
X68498559Y-75860368D01*
X68499639Y-75867649D01*
X68500000Y-75875000D01*
X68500000Y-76025000D01*
X68499639Y-76032351D01*
X68498559Y-76039632D01*
X68496771Y-76046771D01*
X68494291Y-76053701D01*
X68491144Y-76060355D01*
X68487360Y-76066668D01*
X68482976Y-76072579D01*
X68478033Y-76078033D01*
X68472579Y-76082976D01*
X68466668Y-76087360D01*
X68460355Y-76091144D01*
X68453701Y-76094291D01*
X68446771Y-76096771D01*
X68439632Y-76098559D01*
X68432351Y-76099639D01*
X68425000Y-76100000D01*
X67025000Y-76100000D01*
X67017649Y-76099639D01*
X67010368Y-76098559D01*
X67003229Y-76096771D01*
X66996299Y-76094291D01*
X66989645Y-76091144D01*
X66983332Y-76087360D01*
X66977421Y-76082976D01*
X66971967Y-76078033D01*
X66967024Y-76072579D01*
X66962640Y-76066668D01*
X66958856Y-76060355D01*
X66955709Y-76053701D01*
X66953229Y-76046771D01*
X66951441Y-76039632D01*
X66950361Y-76032351D01*
X66950000Y-76025000D01*
X66950000Y-75875000D01*
X66950361Y-75867649D01*
X66951441Y-75860368D01*
X66953229Y-75853229D01*
X66955709Y-75846299D01*
X66958856Y-75839645D01*
X66962640Y-75833332D01*
X66967024Y-75827421D01*
X66971967Y-75821967D01*
X66977421Y-75817024D01*
X66983332Y-75812640D01*
X66989645Y-75808856D01*
X66996299Y-75805709D01*
X67003229Y-75803229D01*
X67010368Y-75801441D01*
X67017649Y-75800361D01*
X67025000Y-75800000D01*
X68425000Y-75800000D01*
X68432351Y-75800361D01*
G37*
G36*
X68432351Y-75300361D02*
G01*
X68439632Y-75301441D01*
X68446771Y-75303229D01*
X68453701Y-75305709D01*
X68460355Y-75308856D01*
X68466668Y-75312640D01*
X68472579Y-75317024D01*
X68478033Y-75321967D01*
X68482976Y-75327421D01*
X68487360Y-75333332D01*
X68491144Y-75339645D01*
X68494291Y-75346299D01*
X68496771Y-75353229D01*
X68498559Y-75360368D01*
X68499639Y-75367649D01*
X68500000Y-75375000D01*
X68500000Y-75525000D01*
X68499639Y-75532351D01*
X68498559Y-75539632D01*
X68496771Y-75546771D01*
X68494291Y-75553701D01*
X68491144Y-75560355D01*
X68487360Y-75566668D01*
X68482976Y-75572579D01*
X68478033Y-75578033D01*
X68472579Y-75582976D01*
X68466668Y-75587360D01*
X68460355Y-75591144D01*
X68453701Y-75594291D01*
X68446771Y-75596771D01*
X68439632Y-75598559D01*
X68432351Y-75599639D01*
X68425000Y-75600000D01*
X67025000Y-75600000D01*
X67017649Y-75599639D01*
X67010368Y-75598559D01*
X67003229Y-75596771D01*
X66996299Y-75594291D01*
X66989645Y-75591144D01*
X66983332Y-75587360D01*
X66977421Y-75582976D01*
X66971967Y-75578033D01*
X66967024Y-75572579D01*
X66962640Y-75566668D01*
X66958856Y-75560355D01*
X66955709Y-75553701D01*
X66953229Y-75546771D01*
X66951441Y-75539632D01*
X66950361Y-75532351D01*
X66950000Y-75525000D01*
X66950000Y-75375000D01*
X66950361Y-75367649D01*
X66951441Y-75360368D01*
X66953229Y-75353229D01*
X66955709Y-75346299D01*
X66958856Y-75339645D01*
X66962640Y-75333332D01*
X66967024Y-75327421D01*
X66971967Y-75321967D01*
X66977421Y-75317024D01*
X66983332Y-75312640D01*
X66989645Y-75308856D01*
X66996299Y-75305709D01*
X67003229Y-75303229D01*
X67010368Y-75301441D01*
X67017649Y-75300361D01*
X67025000Y-75300000D01*
X68425000Y-75300000D01*
X68432351Y-75300361D01*
G37*
G36*
X68432351Y-74800361D02*
G01*
X68439632Y-74801441D01*
X68446771Y-74803229D01*
X68453701Y-74805709D01*
X68460355Y-74808856D01*
X68466668Y-74812640D01*
X68472579Y-74817024D01*
X68478033Y-74821967D01*
X68482976Y-74827421D01*
X68487360Y-74833332D01*
X68491144Y-74839645D01*
X68494291Y-74846299D01*
X68496771Y-74853229D01*
X68498559Y-74860368D01*
X68499639Y-74867649D01*
X68500000Y-74875000D01*
X68500000Y-75025000D01*
X68499639Y-75032351D01*
X68498559Y-75039632D01*
X68496771Y-75046771D01*
X68494291Y-75053701D01*
X68491144Y-75060355D01*
X68487360Y-75066668D01*
X68482976Y-75072579D01*
X68478033Y-75078033D01*
X68472579Y-75082976D01*
X68466668Y-75087360D01*
X68460355Y-75091144D01*
X68453701Y-75094291D01*
X68446771Y-75096771D01*
X68439632Y-75098559D01*
X68432351Y-75099639D01*
X68425000Y-75100000D01*
X67025000Y-75100000D01*
X67017649Y-75099639D01*
X67010368Y-75098559D01*
X67003229Y-75096771D01*
X66996299Y-75094291D01*
X66989645Y-75091144D01*
X66983332Y-75087360D01*
X66977421Y-75082976D01*
X66971967Y-75078033D01*
X66967024Y-75072579D01*
X66962640Y-75066668D01*
X66958856Y-75060355D01*
X66955709Y-75053701D01*
X66953229Y-75046771D01*
X66951441Y-75039632D01*
X66950361Y-75032351D01*
X66950000Y-75025000D01*
X66950000Y-74875000D01*
X66950361Y-74867649D01*
X66951441Y-74860368D01*
X66953229Y-74853229D01*
X66955709Y-74846299D01*
X66958856Y-74839645D01*
X66962640Y-74833332D01*
X66967024Y-74827421D01*
X66971967Y-74821967D01*
X66977421Y-74817024D01*
X66983332Y-74812640D01*
X66989645Y-74808856D01*
X66996299Y-74805709D01*
X67003229Y-74803229D01*
X67010368Y-74801441D01*
X67017649Y-74800361D01*
X67025000Y-74800000D01*
X68425000Y-74800000D01*
X68432351Y-74800361D01*
G37*
G36*
X68432351Y-74300361D02*
G01*
X68439632Y-74301441D01*
X68446771Y-74303229D01*
X68453701Y-74305709D01*
X68460355Y-74308856D01*
X68466668Y-74312640D01*
X68472579Y-74317024D01*
X68478033Y-74321967D01*
X68482976Y-74327421D01*
X68487360Y-74333332D01*
X68491144Y-74339645D01*
X68494291Y-74346299D01*
X68496771Y-74353229D01*
X68498559Y-74360368D01*
X68499639Y-74367649D01*
X68500000Y-74375000D01*
X68500000Y-74525000D01*
X68499639Y-74532351D01*
X68498559Y-74539632D01*
X68496771Y-74546771D01*
X68494291Y-74553701D01*
X68491144Y-74560355D01*
X68487360Y-74566668D01*
X68482976Y-74572579D01*
X68478033Y-74578033D01*
X68472579Y-74582976D01*
X68466668Y-74587360D01*
X68460355Y-74591144D01*
X68453701Y-74594291D01*
X68446771Y-74596771D01*
X68439632Y-74598559D01*
X68432351Y-74599639D01*
X68425000Y-74600000D01*
X67025000Y-74600000D01*
X67017649Y-74599639D01*
X67010368Y-74598559D01*
X67003229Y-74596771D01*
X66996299Y-74594291D01*
X66989645Y-74591144D01*
X66983332Y-74587360D01*
X66977421Y-74582976D01*
X66971967Y-74578033D01*
X66967024Y-74572579D01*
X66962640Y-74566668D01*
X66958856Y-74560355D01*
X66955709Y-74553701D01*
X66953229Y-74546771D01*
X66951441Y-74539632D01*
X66950361Y-74532351D01*
X66950000Y-74525000D01*
X66950000Y-74375000D01*
X66950361Y-74367649D01*
X66951441Y-74360368D01*
X66953229Y-74353229D01*
X66955709Y-74346299D01*
X66958856Y-74339645D01*
X66962640Y-74333332D01*
X66967024Y-74327421D01*
X66971967Y-74321967D01*
X66977421Y-74317024D01*
X66983332Y-74312640D01*
X66989645Y-74308856D01*
X66996299Y-74305709D01*
X67003229Y-74303229D01*
X67010368Y-74301441D01*
X67017649Y-74300361D01*
X67025000Y-74300000D01*
X68425000Y-74300000D01*
X68432351Y-74300361D01*
G37*
G36*
X68432351Y-73800361D02*
G01*
X68439632Y-73801441D01*
X68446771Y-73803229D01*
X68453701Y-73805709D01*
X68460355Y-73808856D01*
X68466668Y-73812640D01*
X68472579Y-73817024D01*
X68478033Y-73821967D01*
X68482976Y-73827421D01*
X68487360Y-73833332D01*
X68491144Y-73839645D01*
X68494291Y-73846299D01*
X68496771Y-73853229D01*
X68498559Y-73860368D01*
X68499639Y-73867649D01*
X68500000Y-73875000D01*
X68500000Y-74025000D01*
X68499639Y-74032351D01*
X68498559Y-74039632D01*
X68496771Y-74046771D01*
X68494291Y-74053701D01*
X68491144Y-74060355D01*
X68487360Y-74066668D01*
X68482976Y-74072579D01*
X68478033Y-74078033D01*
X68472579Y-74082976D01*
X68466668Y-74087360D01*
X68460355Y-74091144D01*
X68453701Y-74094291D01*
X68446771Y-74096771D01*
X68439632Y-74098559D01*
X68432351Y-74099639D01*
X68425000Y-74100000D01*
X67025000Y-74100000D01*
X67017649Y-74099639D01*
X67010368Y-74098559D01*
X67003229Y-74096771D01*
X66996299Y-74094291D01*
X66989645Y-74091144D01*
X66983332Y-74087360D01*
X66977421Y-74082976D01*
X66971967Y-74078033D01*
X66967024Y-74072579D01*
X66962640Y-74066668D01*
X66958856Y-74060355D01*
X66955709Y-74053701D01*
X66953229Y-74046771D01*
X66951441Y-74039632D01*
X66950361Y-74032351D01*
X66950000Y-74025000D01*
X66950000Y-73875000D01*
X66950361Y-73867649D01*
X66951441Y-73860368D01*
X66953229Y-73853229D01*
X66955709Y-73846299D01*
X66958856Y-73839645D01*
X66962640Y-73833332D01*
X66967024Y-73827421D01*
X66971967Y-73821967D01*
X66977421Y-73817024D01*
X66983332Y-73812640D01*
X66989645Y-73808856D01*
X66996299Y-73805709D01*
X67003229Y-73803229D01*
X67010368Y-73801441D01*
X67017649Y-73800361D01*
X67025000Y-73800000D01*
X68425000Y-73800000D01*
X68432351Y-73800361D01*
G37*
G36*
X68432351Y-73300361D02*
G01*
X68439632Y-73301441D01*
X68446771Y-73303229D01*
X68453701Y-73305709D01*
X68460355Y-73308856D01*
X68466668Y-73312640D01*
X68472579Y-73317024D01*
X68478033Y-73321967D01*
X68482976Y-73327421D01*
X68487360Y-73333332D01*
X68491144Y-73339645D01*
X68494291Y-73346299D01*
X68496771Y-73353229D01*
X68498559Y-73360368D01*
X68499639Y-73367649D01*
X68500000Y-73375000D01*
X68500000Y-73525000D01*
X68499639Y-73532351D01*
X68498559Y-73539632D01*
X68496771Y-73546771D01*
X68494291Y-73553701D01*
X68491144Y-73560355D01*
X68487360Y-73566668D01*
X68482976Y-73572579D01*
X68478033Y-73578033D01*
X68472579Y-73582976D01*
X68466668Y-73587360D01*
X68460355Y-73591144D01*
X68453701Y-73594291D01*
X68446771Y-73596771D01*
X68439632Y-73598559D01*
X68432351Y-73599639D01*
X68425000Y-73600000D01*
X67025000Y-73600000D01*
X67017649Y-73599639D01*
X67010368Y-73598559D01*
X67003229Y-73596771D01*
X66996299Y-73594291D01*
X66989645Y-73591144D01*
X66983332Y-73587360D01*
X66977421Y-73582976D01*
X66971967Y-73578033D01*
X66967024Y-73572579D01*
X66962640Y-73566668D01*
X66958856Y-73560355D01*
X66955709Y-73553701D01*
X66953229Y-73546771D01*
X66951441Y-73539632D01*
X66950361Y-73532351D01*
X66950000Y-73525000D01*
X66950000Y-73375000D01*
X66950361Y-73367649D01*
X66951441Y-73360368D01*
X66953229Y-73353229D01*
X66955709Y-73346299D01*
X66958856Y-73339645D01*
X66962640Y-73333332D01*
X66967024Y-73327421D01*
X66971967Y-73321967D01*
X66977421Y-73317024D01*
X66983332Y-73312640D01*
X66989645Y-73308856D01*
X66996299Y-73305709D01*
X67003229Y-73303229D01*
X67010368Y-73301441D01*
X67017649Y-73300361D01*
X67025000Y-73300000D01*
X68425000Y-73300000D01*
X68432351Y-73300361D01*
G37*
G36*
X68432351Y-72800361D02*
G01*
X68439632Y-72801441D01*
X68446771Y-72803229D01*
X68453701Y-72805709D01*
X68460355Y-72808856D01*
X68466668Y-72812640D01*
X68472579Y-72817024D01*
X68478033Y-72821967D01*
X68482976Y-72827421D01*
X68487360Y-72833332D01*
X68491144Y-72839645D01*
X68494291Y-72846299D01*
X68496771Y-72853229D01*
X68498559Y-72860368D01*
X68499639Y-72867649D01*
X68500000Y-72875000D01*
X68500000Y-73025000D01*
X68499639Y-73032351D01*
X68498559Y-73039632D01*
X68496771Y-73046771D01*
X68494291Y-73053701D01*
X68491144Y-73060355D01*
X68487360Y-73066668D01*
X68482976Y-73072579D01*
X68478033Y-73078033D01*
X68472579Y-73082976D01*
X68466668Y-73087360D01*
X68460355Y-73091144D01*
X68453701Y-73094291D01*
X68446771Y-73096771D01*
X68439632Y-73098559D01*
X68432351Y-73099639D01*
X68425000Y-73100000D01*
X67025000Y-73100000D01*
X67017649Y-73099639D01*
X67010368Y-73098559D01*
X67003229Y-73096771D01*
X66996299Y-73094291D01*
X66989645Y-73091144D01*
X66983332Y-73087360D01*
X66977421Y-73082976D01*
X66971967Y-73078033D01*
X66967024Y-73072579D01*
X66962640Y-73066668D01*
X66958856Y-73060355D01*
X66955709Y-73053701D01*
X66953229Y-73046771D01*
X66951441Y-73039632D01*
X66950361Y-73032351D01*
X66950000Y-73025000D01*
X66950000Y-72875000D01*
X66950361Y-72867649D01*
X66951441Y-72860368D01*
X66953229Y-72853229D01*
X66955709Y-72846299D01*
X66958856Y-72839645D01*
X66962640Y-72833332D01*
X66967024Y-72827421D01*
X66971967Y-72821967D01*
X66977421Y-72817024D01*
X66983332Y-72812640D01*
X66989645Y-72808856D01*
X66996299Y-72805709D01*
X67003229Y-72803229D01*
X67010368Y-72801441D01*
X67017649Y-72800361D01*
X67025000Y-72800000D01*
X68425000Y-72800000D01*
X68432351Y-72800361D01*
G37*
G36*
X68432351Y-72300361D02*
G01*
X68439632Y-72301441D01*
X68446771Y-72303229D01*
X68453701Y-72305709D01*
X68460355Y-72308856D01*
X68466668Y-72312640D01*
X68472579Y-72317024D01*
X68478033Y-72321967D01*
X68482976Y-72327421D01*
X68487360Y-72333332D01*
X68491144Y-72339645D01*
X68494291Y-72346299D01*
X68496771Y-72353229D01*
X68498559Y-72360368D01*
X68499639Y-72367649D01*
X68500000Y-72375000D01*
X68500000Y-72525000D01*
X68499639Y-72532351D01*
X68498559Y-72539632D01*
X68496771Y-72546771D01*
X68494291Y-72553701D01*
X68491144Y-72560355D01*
X68487360Y-72566668D01*
X68482976Y-72572579D01*
X68478033Y-72578033D01*
X68472579Y-72582976D01*
X68466668Y-72587360D01*
X68460355Y-72591144D01*
X68453701Y-72594291D01*
X68446771Y-72596771D01*
X68439632Y-72598559D01*
X68432351Y-72599639D01*
X68425000Y-72600000D01*
X67025000Y-72600000D01*
X67017649Y-72599639D01*
X67010368Y-72598559D01*
X67003229Y-72596771D01*
X66996299Y-72594291D01*
X66989645Y-72591144D01*
X66983332Y-72587360D01*
X66977421Y-72582976D01*
X66971967Y-72578033D01*
X66967024Y-72572579D01*
X66962640Y-72566668D01*
X66958856Y-72560355D01*
X66955709Y-72553701D01*
X66953229Y-72546771D01*
X66951441Y-72539632D01*
X66950361Y-72532351D01*
X66950000Y-72525000D01*
X66950000Y-72375000D01*
X66950361Y-72367649D01*
X66951441Y-72360368D01*
X66953229Y-72353229D01*
X66955709Y-72346299D01*
X66958856Y-72339645D01*
X66962640Y-72333332D01*
X66967024Y-72327421D01*
X66971967Y-72321967D01*
X66977421Y-72317024D01*
X66983332Y-72312640D01*
X66989645Y-72308856D01*
X66996299Y-72305709D01*
X67003229Y-72303229D01*
X67010368Y-72301441D01*
X67017649Y-72300361D01*
X67025000Y-72300000D01*
X68425000Y-72300000D01*
X68432351Y-72300361D01*
G37*
G36*
X68432351Y-71800361D02*
G01*
X68439632Y-71801441D01*
X68446771Y-71803229D01*
X68453701Y-71805709D01*
X68460355Y-71808856D01*
X68466668Y-71812640D01*
X68472579Y-71817024D01*
X68478033Y-71821967D01*
X68482976Y-71827421D01*
X68487360Y-71833332D01*
X68491144Y-71839645D01*
X68494291Y-71846299D01*
X68496771Y-71853229D01*
X68498559Y-71860368D01*
X68499639Y-71867649D01*
X68500000Y-71875000D01*
X68500000Y-72025000D01*
X68499639Y-72032351D01*
X68498559Y-72039632D01*
X68496771Y-72046771D01*
X68494291Y-72053701D01*
X68491144Y-72060355D01*
X68487360Y-72066668D01*
X68482976Y-72072579D01*
X68478033Y-72078033D01*
X68472579Y-72082976D01*
X68466668Y-72087360D01*
X68460355Y-72091144D01*
X68453701Y-72094291D01*
X68446771Y-72096771D01*
X68439632Y-72098559D01*
X68432351Y-72099639D01*
X68425000Y-72100000D01*
X67025000Y-72100000D01*
X67017649Y-72099639D01*
X67010368Y-72098559D01*
X67003229Y-72096771D01*
X66996299Y-72094291D01*
X66989645Y-72091144D01*
X66983332Y-72087360D01*
X66977421Y-72082976D01*
X66971967Y-72078033D01*
X66967024Y-72072579D01*
X66962640Y-72066668D01*
X66958856Y-72060355D01*
X66955709Y-72053701D01*
X66953229Y-72046771D01*
X66951441Y-72039632D01*
X66950361Y-72032351D01*
X66950000Y-72025000D01*
X66950000Y-71875000D01*
X66950361Y-71867649D01*
X66951441Y-71860368D01*
X66953229Y-71853229D01*
X66955709Y-71846299D01*
X66958856Y-71839645D01*
X66962640Y-71833332D01*
X66967024Y-71827421D01*
X66971967Y-71821967D01*
X66977421Y-71817024D01*
X66983332Y-71812640D01*
X66989645Y-71808856D01*
X66996299Y-71805709D01*
X67003229Y-71803229D01*
X67010368Y-71801441D01*
X67017649Y-71800361D01*
X67025000Y-71800000D01*
X68425000Y-71800000D01*
X68432351Y-71800361D01*
G37*
G36*
X68432351Y-71300361D02*
G01*
X68439632Y-71301441D01*
X68446771Y-71303229D01*
X68453701Y-71305709D01*
X68460355Y-71308856D01*
X68466668Y-71312640D01*
X68472579Y-71317024D01*
X68478033Y-71321967D01*
X68482976Y-71327421D01*
X68487360Y-71333332D01*
X68491144Y-71339645D01*
X68494291Y-71346299D01*
X68496771Y-71353229D01*
X68498559Y-71360368D01*
X68499639Y-71367649D01*
X68500000Y-71375000D01*
X68500000Y-71525000D01*
X68499639Y-71532351D01*
X68498559Y-71539632D01*
X68496771Y-71546771D01*
X68494291Y-71553701D01*
X68491144Y-71560355D01*
X68487360Y-71566668D01*
X68482976Y-71572579D01*
X68478033Y-71578033D01*
X68472579Y-71582976D01*
X68466668Y-71587360D01*
X68460355Y-71591144D01*
X68453701Y-71594291D01*
X68446771Y-71596771D01*
X68439632Y-71598559D01*
X68432351Y-71599639D01*
X68425000Y-71600000D01*
X67025000Y-71600000D01*
X67017649Y-71599639D01*
X67010368Y-71598559D01*
X67003229Y-71596771D01*
X66996299Y-71594291D01*
X66989645Y-71591144D01*
X66983332Y-71587360D01*
X66977421Y-71582976D01*
X66971967Y-71578033D01*
X66967024Y-71572579D01*
X66962640Y-71566668D01*
X66958856Y-71560355D01*
X66955709Y-71553701D01*
X66953229Y-71546771D01*
X66951441Y-71539632D01*
X66950361Y-71532351D01*
X66950000Y-71525000D01*
X66950000Y-71375000D01*
X66950361Y-71367649D01*
X66951441Y-71360368D01*
X66953229Y-71353229D01*
X66955709Y-71346299D01*
X66958856Y-71339645D01*
X66962640Y-71333332D01*
X66967024Y-71327421D01*
X66971967Y-71321967D01*
X66977421Y-71317024D01*
X66983332Y-71312640D01*
X66989645Y-71308856D01*
X66996299Y-71305709D01*
X67003229Y-71303229D01*
X67010368Y-71301441D01*
X67017649Y-71300361D01*
X67025000Y-71300000D01*
X68425000Y-71300000D01*
X68432351Y-71300361D01*
G37*
G36*
X68432351Y-70800361D02*
G01*
X68439632Y-70801441D01*
X68446771Y-70803229D01*
X68453701Y-70805709D01*
X68460355Y-70808856D01*
X68466668Y-70812640D01*
X68472579Y-70817024D01*
X68478033Y-70821967D01*
X68482976Y-70827421D01*
X68487360Y-70833332D01*
X68491144Y-70839645D01*
X68494291Y-70846299D01*
X68496771Y-70853229D01*
X68498559Y-70860368D01*
X68499639Y-70867649D01*
X68500000Y-70875000D01*
X68500000Y-71025000D01*
X68499639Y-71032351D01*
X68498559Y-71039632D01*
X68496771Y-71046771D01*
X68494291Y-71053701D01*
X68491144Y-71060355D01*
X68487360Y-71066668D01*
X68482976Y-71072579D01*
X68478033Y-71078033D01*
X68472579Y-71082976D01*
X68466668Y-71087360D01*
X68460355Y-71091144D01*
X68453701Y-71094291D01*
X68446771Y-71096771D01*
X68439632Y-71098559D01*
X68432351Y-71099639D01*
X68425000Y-71100000D01*
X67025000Y-71100000D01*
X67017649Y-71099639D01*
X67010368Y-71098559D01*
X67003229Y-71096771D01*
X66996299Y-71094291D01*
X66989645Y-71091144D01*
X66983332Y-71087360D01*
X66977421Y-71082976D01*
X66971967Y-71078033D01*
X66967024Y-71072579D01*
X66962640Y-71066668D01*
X66958856Y-71060355D01*
X66955709Y-71053701D01*
X66953229Y-71046771D01*
X66951441Y-71039632D01*
X66950361Y-71032351D01*
X66950000Y-71025000D01*
X66950000Y-70875000D01*
X66950361Y-70867649D01*
X66951441Y-70860368D01*
X66953229Y-70853229D01*
X66955709Y-70846299D01*
X66958856Y-70839645D01*
X66962640Y-70833332D01*
X66967024Y-70827421D01*
X66971967Y-70821967D01*
X66977421Y-70817024D01*
X66983332Y-70812640D01*
X66989645Y-70808856D01*
X66996299Y-70805709D01*
X67003229Y-70803229D01*
X67010368Y-70801441D01*
X67017649Y-70800361D01*
X67025000Y-70800000D01*
X68425000Y-70800000D01*
X68432351Y-70800361D01*
G37*
G36*
X69732351Y-68250361D02*
G01*
X69739632Y-68251441D01*
X69746771Y-68253229D01*
X69753701Y-68255709D01*
X69760355Y-68258856D01*
X69766668Y-68262640D01*
X69772579Y-68267024D01*
X69778033Y-68271967D01*
X69782976Y-68277421D01*
X69787360Y-68283332D01*
X69791144Y-68289645D01*
X69794291Y-68296299D01*
X69796771Y-68303229D01*
X69798559Y-68310368D01*
X69799639Y-68317649D01*
X69800000Y-68325000D01*
X69800000Y-69725000D01*
X69799639Y-69732351D01*
X69798559Y-69739632D01*
X69796771Y-69746771D01*
X69794291Y-69753701D01*
X69791144Y-69760355D01*
X69787360Y-69766668D01*
X69782976Y-69772579D01*
X69778033Y-69778033D01*
X69772579Y-69782976D01*
X69766668Y-69787360D01*
X69760355Y-69791144D01*
X69753701Y-69794291D01*
X69746771Y-69796771D01*
X69739632Y-69798559D01*
X69732351Y-69799639D01*
X69725000Y-69800000D01*
X69575000Y-69800000D01*
X69567649Y-69799639D01*
X69560368Y-69798559D01*
X69553229Y-69796771D01*
X69546299Y-69794291D01*
X69539645Y-69791144D01*
X69533332Y-69787360D01*
X69527421Y-69782976D01*
X69521967Y-69778033D01*
X69517024Y-69772579D01*
X69512640Y-69766668D01*
X69508856Y-69760355D01*
X69505709Y-69753701D01*
X69503229Y-69746771D01*
X69501441Y-69739632D01*
X69500361Y-69732351D01*
X69500000Y-69725000D01*
X69500000Y-68325000D01*
X69500361Y-68317649D01*
X69501441Y-68310368D01*
X69503229Y-68303229D01*
X69505709Y-68296299D01*
X69508856Y-68289645D01*
X69512640Y-68283332D01*
X69517024Y-68277421D01*
X69521967Y-68271967D01*
X69527421Y-68267024D01*
X69533332Y-68262640D01*
X69539645Y-68258856D01*
X69546299Y-68255709D01*
X69553229Y-68253229D01*
X69560368Y-68251441D01*
X69567649Y-68250361D01*
X69575000Y-68250000D01*
X69725000Y-68250000D01*
X69732351Y-68250361D01*
G37*
G36*
X70232351Y-68250361D02*
G01*
X70239632Y-68251441D01*
X70246771Y-68253229D01*
X70253701Y-68255709D01*
X70260355Y-68258856D01*
X70266668Y-68262640D01*
X70272579Y-68267024D01*
X70278033Y-68271967D01*
X70282976Y-68277421D01*
X70287360Y-68283332D01*
X70291144Y-68289645D01*
X70294291Y-68296299D01*
X70296771Y-68303229D01*
X70298559Y-68310368D01*
X70299639Y-68317649D01*
X70300000Y-68325000D01*
X70300000Y-69725000D01*
X70299639Y-69732351D01*
X70298559Y-69739632D01*
X70296771Y-69746771D01*
X70294291Y-69753701D01*
X70291144Y-69760355D01*
X70287360Y-69766668D01*
X70282976Y-69772579D01*
X70278033Y-69778033D01*
X70272579Y-69782976D01*
X70266668Y-69787360D01*
X70260355Y-69791144D01*
X70253701Y-69794291D01*
X70246771Y-69796771D01*
X70239632Y-69798559D01*
X70232351Y-69799639D01*
X70225000Y-69800000D01*
X70075000Y-69800000D01*
X70067649Y-69799639D01*
X70060368Y-69798559D01*
X70053229Y-69796771D01*
X70046299Y-69794291D01*
X70039645Y-69791144D01*
X70033332Y-69787360D01*
X70027421Y-69782976D01*
X70021967Y-69778033D01*
X70017024Y-69772579D01*
X70012640Y-69766668D01*
X70008856Y-69760355D01*
X70005709Y-69753701D01*
X70003229Y-69746771D01*
X70001441Y-69739632D01*
X70000361Y-69732351D01*
X70000000Y-69725000D01*
X70000000Y-68325000D01*
X70000361Y-68317649D01*
X70001441Y-68310368D01*
X70003229Y-68303229D01*
X70005709Y-68296299D01*
X70008856Y-68289645D01*
X70012640Y-68283332D01*
X70017024Y-68277421D01*
X70021967Y-68271967D01*
X70027421Y-68267024D01*
X70033332Y-68262640D01*
X70039645Y-68258856D01*
X70046299Y-68255709D01*
X70053229Y-68253229D01*
X70060368Y-68251441D01*
X70067649Y-68250361D01*
X70075000Y-68250000D01*
X70225000Y-68250000D01*
X70232351Y-68250361D01*
G37*
G36*
X70732351Y-68250361D02*
G01*
X70739632Y-68251441D01*
X70746771Y-68253229D01*
X70753701Y-68255709D01*
X70760355Y-68258856D01*
X70766668Y-68262640D01*
X70772579Y-68267024D01*
X70778033Y-68271967D01*
X70782976Y-68277421D01*
X70787360Y-68283332D01*
X70791144Y-68289645D01*
X70794291Y-68296299D01*
X70796771Y-68303229D01*
X70798559Y-68310368D01*
X70799639Y-68317649D01*
X70800000Y-68325000D01*
X70800000Y-69725000D01*
X70799639Y-69732351D01*
X70798559Y-69739632D01*
X70796771Y-69746771D01*
X70794291Y-69753701D01*
X70791144Y-69760355D01*
X70787360Y-69766668D01*
X70782976Y-69772579D01*
X70778033Y-69778033D01*
X70772579Y-69782976D01*
X70766668Y-69787360D01*
X70760355Y-69791144D01*
X70753701Y-69794291D01*
X70746771Y-69796771D01*
X70739632Y-69798559D01*
X70732351Y-69799639D01*
X70725000Y-69800000D01*
X70575000Y-69800000D01*
X70567649Y-69799639D01*
X70560368Y-69798559D01*
X70553229Y-69796771D01*
X70546299Y-69794291D01*
X70539645Y-69791144D01*
X70533332Y-69787360D01*
X70527421Y-69782976D01*
X70521967Y-69778033D01*
X70517024Y-69772579D01*
X70512640Y-69766668D01*
X70508856Y-69760355D01*
X70505709Y-69753701D01*
X70503229Y-69746771D01*
X70501441Y-69739632D01*
X70500361Y-69732351D01*
X70500000Y-69725000D01*
X70500000Y-68325000D01*
X70500361Y-68317649D01*
X70501441Y-68310368D01*
X70503229Y-68303229D01*
X70505709Y-68296299D01*
X70508856Y-68289645D01*
X70512640Y-68283332D01*
X70517024Y-68277421D01*
X70521967Y-68271967D01*
X70527421Y-68267024D01*
X70533332Y-68262640D01*
X70539645Y-68258856D01*
X70546299Y-68255709D01*
X70553229Y-68253229D01*
X70560368Y-68251441D01*
X70567649Y-68250361D01*
X70575000Y-68250000D01*
X70725000Y-68250000D01*
X70732351Y-68250361D01*
G37*
G36*
X71232351Y-68250361D02*
G01*
X71239632Y-68251441D01*
X71246771Y-68253229D01*
X71253701Y-68255709D01*
X71260355Y-68258856D01*
X71266668Y-68262640D01*
X71272579Y-68267024D01*
X71278033Y-68271967D01*
X71282976Y-68277421D01*
X71287360Y-68283332D01*
X71291144Y-68289645D01*
X71294291Y-68296299D01*
X71296771Y-68303229D01*
X71298559Y-68310368D01*
X71299639Y-68317649D01*
X71300000Y-68325000D01*
X71300000Y-69725000D01*
X71299639Y-69732351D01*
X71298559Y-69739632D01*
X71296771Y-69746771D01*
X71294291Y-69753701D01*
X71291144Y-69760355D01*
X71287360Y-69766668D01*
X71282976Y-69772579D01*
X71278033Y-69778033D01*
X71272579Y-69782976D01*
X71266668Y-69787360D01*
X71260355Y-69791144D01*
X71253701Y-69794291D01*
X71246771Y-69796771D01*
X71239632Y-69798559D01*
X71232351Y-69799639D01*
X71225000Y-69800000D01*
X71075000Y-69800000D01*
X71067649Y-69799639D01*
X71060368Y-69798559D01*
X71053229Y-69796771D01*
X71046299Y-69794291D01*
X71039645Y-69791144D01*
X71033332Y-69787360D01*
X71027421Y-69782976D01*
X71021967Y-69778033D01*
X71017024Y-69772579D01*
X71012640Y-69766668D01*
X71008856Y-69760355D01*
X71005709Y-69753701D01*
X71003229Y-69746771D01*
X71001441Y-69739632D01*
X71000361Y-69732351D01*
X71000000Y-69725000D01*
X71000000Y-68325000D01*
X71000361Y-68317649D01*
X71001441Y-68310368D01*
X71003229Y-68303229D01*
X71005709Y-68296299D01*
X71008856Y-68289645D01*
X71012640Y-68283332D01*
X71017024Y-68277421D01*
X71021967Y-68271967D01*
X71027421Y-68267024D01*
X71033332Y-68262640D01*
X71039645Y-68258856D01*
X71046299Y-68255709D01*
X71053229Y-68253229D01*
X71060368Y-68251441D01*
X71067649Y-68250361D01*
X71075000Y-68250000D01*
X71225000Y-68250000D01*
X71232351Y-68250361D01*
G37*
G36*
X71732351Y-68250361D02*
G01*
X71739632Y-68251441D01*
X71746771Y-68253229D01*
X71753701Y-68255709D01*
X71760355Y-68258856D01*
X71766668Y-68262640D01*
X71772579Y-68267024D01*
X71778033Y-68271967D01*
X71782976Y-68277421D01*
X71787360Y-68283332D01*
X71791144Y-68289645D01*
X71794291Y-68296299D01*
X71796771Y-68303229D01*
X71798559Y-68310368D01*
X71799639Y-68317649D01*
X71800000Y-68325000D01*
X71800000Y-69725000D01*
X71799639Y-69732351D01*
X71798559Y-69739632D01*
X71796771Y-69746771D01*
X71794291Y-69753701D01*
X71791144Y-69760355D01*
X71787360Y-69766668D01*
X71782976Y-69772579D01*
X71778033Y-69778033D01*
X71772579Y-69782976D01*
X71766668Y-69787360D01*
X71760355Y-69791144D01*
X71753701Y-69794291D01*
X71746771Y-69796771D01*
X71739632Y-69798559D01*
X71732351Y-69799639D01*
X71725000Y-69800000D01*
X71575000Y-69800000D01*
X71567649Y-69799639D01*
X71560368Y-69798559D01*
X71553229Y-69796771D01*
X71546299Y-69794291D01*
X71539645Y-69791144D01*
X71533332Y-69787360D01*
X71527421Y-69782976D01*
X71521967Y-69778033D01*
X71517024Y-69772579D01*
X71512640Y-69766668D01*
X71508856Y-69760355D01*
X71505709Y-69753701D01*
X71503229Y-69746771D01*
X71501441Y-69739632D01*
X71500361Y-69732351D01*
X71500000Y-69725000D01*
X71500000Y-68325000D01*
X71500361Y-68317649D01*
X71501441Y-68310368D01*
X71503229Y-68303229D01*
X71505709Y-68296299D01*
X71508856Y-68289645D01*
X71512640Y-68283332D01*
X71517024Y-68277421D01*
X71521967Y-68271967D01*
X71527421Y-68267024D01*
X71533332Y-68262640D01*
X71539645Y-68258856D01*
X71546299Y-68255709D01*
X71553229Y-68253229D01*
X71560368Y-68251441D01*
X71567649Y-68250361D01*
X71575000Y-68250000D01*
X71725000Y-68250000D01*
X71732351Y-68250361D01*
G37*
G36*
X72232351Y-68250361D02*
G01*
X72239632Y-68251441D01*
X72246771Y-68253229D01*
X72253701Y-68255709D01*
X72260355Y-68258856D01*
X72266668Y-68262640D01*
X72272579Y-68267024D01*
X72278033Y-68271967D01*
X72282976Y-68277421D01*
X72287360Y-68283332D01*
X72291144Y-68289645D01*
X72294291Y-68296299D01*
X72296771Y-68303229D01*
X72298559Y-68310368D01*
X72299639Y-68317649D01*
X72300000Y-68325000D01*
X72300000Y-69725000D01*
X72299639Y-69732351D01*
X72298559Y-69739632D01*
X72296771Y-69746771D01*
X72294291Y-69753701D01*
X72291144Y-69760355D01*
X72287360Y-69766668D01*
X72282976Y-69772579D01*
X72278033Y-69778033D01*
X72272579Y-69782976D01*
X72266668Y-69787360D01*
X72260355Y-69791144D01*
X72253701Y-69794291D01*
X72246771Y-69796771D01*
X72239632Y-69798559D01*
X72232351Y-69799639D01*
X72225000Y-69800000D01*
X72075000Y-69800000D01*
X72067649Y-69799639D01*
X72060368Y-69798559D01*
X72053229Y-69796771D01*
X72046299Y-69794291D01*
X72039645Y-69791144D01*
X72033332Y-69787360D01*
X72027421Y-69782976D01*
X72021967Y-69778033D01*
X72017024Y-69772579D01*
X72012640Y-69766668D01*
X72008856Y-69760355D01*
X72005709Y-69753701D01*
X72003229Y-69746771D01*
X72001441Y-69739632D01*
X72000361Y-69732351D01*
X72000000Y-69725000D01*
X72000000Y-68325000D01*
X72000361Y-68317649D01*
X72001441Y-68310368D01*
X72003229Y-68303229D01*
X72005709Y-68296299D01*
X72008856Y-68289645D01*
X72012640Y-68283332D01*
X72017024Y-68277421D01*
X72021967Y-68271967D01*
X72027421Y-68267024D01*
X72033332Y-68262640D01*
X72039645Y-68258856D01*
X72046299Y-68255709D01*
X72053229Y-68253229D01*
X72060368Y-68251441D01*
X72067649Y-68250361D01*
X72075000Y-68250000D01*
X72225000Y-68250000D01*
X72232351Y-68250361D01*
G37*
G36*
X72732351Y-68250361D02*
G01*
X72739632Y-68251441D01*
X72746771Y-68253229D01*
X72753701Y-68255709D01*
X72760355Y-68258856D01*
X72766668Y-68262640D01*
X72772579Y-68267024D01*
X72778033Y-68271967D01*
X72782976Y-68277421D01*
X72787360Y-68283332D01*
X72791144Y-68289645D01*
X72794291Y-68296299D01*
X72796771Y-68303229D01*
X72798559Y-68310368D01*
X72799639Y-68317649D01*
X72800000Y-68325000D01*
X72800000Y-69725000D01*
X72799639Y-69732351D01*
X72798559Y-69739632D01*
X72796771Y-69746771D01*
X72794291Y-69753701D01*
X72791144Y-69760355D01*
X72787360Y-69766668D01*
X72782976Y-69772579D01*
X72778033Y-69778033D01*
X72772579Y-69782976D01*
X72766668Y-69787360D01*
X72760355Y-69791144D01*
X72753701Y-69794291D01*
X72746771Y-69796771D01*
X72739632Y-69798559D01*
X72732351Y-69799639D01*
X72725000Y-69800000D01*
X72575000Y-69800000D01*
X72567649Y-69799639D01*
X72560368Y-69798559D01*
X72553229Y-69796771D01*
X72546299Y-69794291D01*
X72539645Y-69791144D01*
X72533332Y-69787360D01*
X72527421Y-69782976D01*
X72521967Y-69778033D01*
X72517024Y-69772579D01*
X72512640Y-69766668D01*
X72508856Y-69760355D01*
X72505709Y-69753701D01*
X72503229Y-69746771D01*
X72501441Y-69739632D01*
X72500361Y-69732351D01*
X72500000Y-69725000D01*
X72500000Y-68325000D01*
X72500361Y-68317649D01*
X72501441Y-68310368D01*
X72503229Y-68303229D01*
X72505709Y-68296299D01*
X72508856Y-68289645D01*
X72512640Y-68283332D01*
X72517024Y-68277421D01*
X72521967Y-68271967D01*
X72527421Y-68267024D01*
X72533332Y-68262640D01*
X72539645Y-68258856D01*
X72546299Y-68255709D01*
X72553229Y-68253229D01*
X72560368Y-68251441D01*
X72567649Y-68250361D01*
X72575000Y-68250000D01*
X72725000Y-68250000D01*
X72732351Y-68250361D01*
G37*
G36*
X73232351Y-68250361D02*
G01*
X73239632Y-68251441D01*
X73246771Y-68253229D01*
X73253701Y-68255709D01*
X73260355Y-68258856D01*
X73266668Y-68262640D01*
X73272579Y-68267024D01*
X73278033Y-68271967D01*
X73282976Y-68277421D01*
X73287360Y-68283332D01*
X73291144Y-68289645D01*
X73294291Y-68296299D01*
X73296771Y-68303229D01*
X73298559Y-68310368D01*
X73299639Y-68317649D01*
X73300000Y-68325000D01*
X73300000Y-69725000D01*
X73299639Y-69732351D01*
X73298559Y-69739632D01*
X73296771Y-69746771D01*
X73294291Y-69753701D01*
X73291144Y-69760355D01*
X73287360Y-69766668D01*
X73282976Y-69772579D01*
X73278033Y-69778033D01*
X73272579Y-69782976D01*
X73266668Y-69787360D01*
X73260355Y-69791144D01*
X73253701Y-69794291D01*
X73246771Y-69796771D01*
X73239632Y-69798559D01*
X73232351Y-69799639D01*
X73225000Y-69800000D01*
X73075000Y-69800000D01*
X73067649Y-69799639D01*
X73060368Y-69798559D01*
X73053229Y-69796771D01*
X73046299Y-69794291D01*
X73039645Y-69791144D01*
X73033332Y-69787360D01*
X73027421Y-69782976D01*
X73021967Y-69778033D01*
X73017024Y-69772579D01*
X73012640Y-69766668D01*
X73008856Y-69760355D01*
X73005709Y-69753701D01*
X73003229Y-69746771D01*
X73001441Y-69739632D01*
X73000361Y-69732351D01*
X73000000Y-69725000D01*
X73000000Y-68325000D01*
X73000361Y-68317649D01*
X73001441Y-68310368D01*
X73003229Y-68303229D01*
X73005709Y-68296299D01*
X73008856Y-68289645D01*
X73012640Y-68283332D01*
X73017024Y-68277421D01*
X73021967Y-68271967D01*
X73027421Y-68267024D01*
X73033332Y-68262640D01*
X73039645Y-68258856D01*
X73046299Y-68255709D01*
X73053229Y-68253229D01*
X73060368Y-68251441D01*
X73067649Y-68250361D01*
X73075000Y-68250000D01*
X73225000Y-68250000D01*
X73232351Y-68250361D01*
G37*
G36*
X73732351Y-68250361D02*
G01*
X73739632Y-68251441D01*
X73746771Y-68253229D01*
X73753701Y-68255709D01*
X73760355Y-68258856D01*
X73766668Y-68262640D01*
X73772579Y-68267024D01*
X73778033Y-68271967D01*
X73782976Y-68277421D01*
X73787360Y-68283332D01*
X73791144Y-68289645D01*
X73794291Y-68296299D01*
X73796771Y-68303229D01*
X73798559Y-68310368D01*
X73799639Y-68317649D01*
X73800000Y-68325000D01*
X73800000Y-69725000D01*
X73799639Y-69732351D01*
X73798559Y-69739632D01*
X73796771Y-69746771D01*
X73794291Y-69753701D01*
X73791144Y-69760355D01*
X73787360Y-69766668D01*
X73782976Y-69772579D01*
X73778033Y-69778033D01*
X73772579Y-69782976D01*
X73766668Y-69787360D01*
X73760355Y-69791144D01*
X73753701Y-69794291D01*
X73746771Y-69796771D01*
X73739632Y-69798559D01*
X73732351Y-69799639D01*
X73725000Y-69800000D01*
X73575000Y-69800000D01*
X73567649Y-69799639D01*
X73560368Y-69798559D01*
X73553229Y-69796771D01*
X73546299Y-69794291D01*
X73539645Y-69791144D01*
X73533332Y-69787360D01*
X73527421Y-69782976D01*
X73521967Y-69778033D01*
X73517024Y-69772579D01*
X73512640Y-69766668D01*
X73508856Y-69760355D01*
X73505709Y-69753701D01*
X73503229Y-69746771D01*
X73501441Y-69739632D01*
X73500361Y-69732351D01*
X73500000Y-69725000D01*
X73500000Y-68325000D01*
X73500361Y-68317649D01*
X73501441Y-68310368D01*
X73503229Y-68303229D01*
X73505709Y-68296299D01*
X73508856Y-68289645D01*
X73512640Y-68283332D01*
X73517024Y-68277421D01*
X73521967Y-68271967D01*
X73527421Y-68267024D01*
X73533332Y-68262640D01*
X73539645Y-68258856D01*
X73546299Y-68255709D01*
X73553229Y-68253229D01*
X73560368Y-68251441D01*
X73567649Y-68250361D01*
X73575000Y-68250000D01*
X73725000Y-68250000D01*
X73732351Y-68250361D01*
G37*
G36*
X74232351Y-68250361D02*
G01*
X74239632Y-68251441D01*
X74246771Y-68253229D01*
X74253701Y-68255709D01*
X74260355Y-68258856D01*
X74266668Y-68262640D01*
X74272579Y-68267024D01*
X74278033Y-68271967D01*
X74282976Y-68277421D01*
X74287360Y-68283332D01*
X74291144Y-68289645D01*
X74294291Y-68296299D01*
X74296771Y-68303229D01*
X74298559Y-68310368D01*
X74299639Y-68317649D01*
X74300000Y-68325000D01*
X74300000Y-69725000D01*
X74299639Y-69732351D01*
X74298559Y-69739632D01*
X74296771Y-69746771D01*
X74294291Y-69753701D01*
X74291144Y-69760355D01*
X74287360Y-69766668D01*
X74282976Y-69772579D01*
X74278033Y-69778033D01*
X74272579Y-69782976D01*
X74266668Y-69787360D01*
X74260355Y-69791144D01*
X74253701Y-69794291D01*
X74246771Y-69796771D01*
X74239632Y-69798559D01*
X74232351Y-69799639D01*
X74225000Y-69800000D01*
X74075000Y-69800000D01*
X74067649Y-69799639D01*
X74060368Y-69798559D01*
X74053229Y-69796771D01*
X74046299Y-69794291D01*
X74039645Y-69791144D01*
X74033332Y-69787360D01*
X74027421Y-69782976D01*
X74021967Y-69778033D01*
X74017024Y-69772579D01*
X74012640Y-69766668D01*
X74008856Y-69760355D01*
X74005709Y-69753701D01*
X74003229Y-69746771D01*
X74001441Y-69739632D01*
X74000361Y-69732351D01*
X74000000Y-69725000D01*
X74000000Y-68325000D01*
X74000361Y-68317649D01*
X74001441Y-68310368D01*
X74003229Y-68303229D01*
X74005709Y-68296299D01*
X74008856Y-68289645D01*
X74012640Y-68283332D01*
X74017024Y-68277421D01*
X74021967Y-68271967D01*
X74027421Y-68267024D01*
X74033332Y-68262640D01*
X74039645Y-68258856D01*
X74046299Y-68255709D01*
X74053229Y-68253229D01*
X74060368Y-68251441D01*
X74067649Y-68250361D01*
X74075000Y-68250000D01*
X74225000Y-68250000D01*
X74232351Y-68250361D01*
G37*
G36*
X74732351Y-68250361D02*
G01*
X74739632Y-68251441D01*
X74746771Y-68253229D01*
X74753701Y-68255709D01*
X74760355Y-68258856D01*
X74766668Y-68262640D01*
X74772579Y-68267024D01*
X74778033Y-68271967D01*
X74782976Y-68277421D01*
X74787360Y-68283332D01*
X74791144Y-68289645D01*
X74794291Y-68296299D01*
X74796771Y-68303229D01*
X74798559Y-68310368D01*
X74799639Y-68317649D01*
X74800000Y-68325000D01*
X74800000Y-69725000D01*
X74799639Y-69732351D01*
X74798559Y-69739632D01*
X74796771Y-69746771D01*
X74794291Y-69753701D01*
X74791144Y-69760355D01*
X74787360Y-69766668D01*
X74782976Y-69772579D01*
X74778033Y-69778033D01*
X74772579Y-69782976D01*
X74766668Y-69787360D01*
X74760355Y-69791144D01*
X74753701Y-69794291D01*
X74746771Y-69796771D01*
X74739632Y-69798559D01*
X74732351Y-69799639D01*
X74725000Y-69800000D01*
X74575000Y-69800000D01*
X74567649Y-69799639D01*
X74560368Y-69798559D01*
X74553229Y-69796771D01*
X74546299Y-69794291D01*
X74539645Y-69791144D01*
X74533332Y-69787360D01*
X74527421Y-69782976D01*
X74521967Y-69778033D01*
X74517024Y-69772579D01*
X74512640Y-69766668D01*
X74508856Y-69760355D01*
X74505709Y-69753701D01*
X74503229Y-69746771D01*
X74501441Y-69739632D01*
X74500361Y-69732351D01*
X74500000Y-69725000D01*
X74500000Y-68325000D01*
X74500361Y-68317649D01*
X74501441Y-68310368D01*
X74503229Y-68303229D01*
X74505709Y-68296299D01*
X74508856Y-68289645D01*
X74512640Y-68283332D01*
X74517024Y-68277421D01*
X74521967Y-68271967D01*
X74527421Y-68267024D01*
X74533332Y-68262640D01*
X74539645Y-68258856D01*
X74546299Y-68255709D01*
X74553229Y-68253229D01*
X74560368Y-68251441D01*
X74567649Y-68250361D01*
X74575000Y-68250000D01*
X74725000Y-68250000D01*
X74732351Y-68250361D01*
G37*
G36*
X75232351Y-68250361D02*
G01*
X75239632Y-68251441D01*
X75246771Y-68253229D01*
X75253701Y-68255709D01*
X75260355Y-68258856D01*
X75266668Y-68262640D01*
X75272579Y-68267024D01*
X75278033Y-68271967D01*
X75282976Y-68277421D01*
X75287360Y-68283332D01*
X75291144Y-68289645D01*
X75294291Y-68296299D01*
X75296771Y-68303229D01*
X75298559Y-68310368D01*
X75299639Y-68317649D01*
X75300000Y-68325000D01*
X75300000Y-69725000D01*
X75299639Y-69732351D01*
X75298559Y-69739632D01*
X75296771Y-69746771D01*
X75294291Y-69753701D01*
X75291144Y-69760355D01*
X75287360Y-69766668D01*
X75282976Y-69772579D01*
X75278033Y-69778033D01*
X75272579Y-69782976D01*
X75266668Y-69787360D01*
X75260355Y-69791144D01*
X75253701Y-69794291D01*
X75246771Y-69796771D01*
X75239632Y-69798559D01*
X75232351Y-69799639D01*
X75225000Y-69800000D01*
X75075000Y-69800000D01*
X75067649Y-69799639D01*
X75060368Y-69798559D01*
X75053229Y-69796771D01*
X75046299Y-69794291D01*
X75039645Y-69791144D01*
X75033332Y-69787360D01*
X75027421Y-69782976D01*
X75021967Y-69778033D01*
X75017024Y-69772579D01*
X75012640Y-69766668D01*
X75008856Y-69760355D01*
X75005709Y-69753701D01*
X75003229Y-69746771D01*
X75001441Y-69739632D01*
X75000361Y-69732351D01*
X75000000Y-69725000D01*
X75000000Y-68325000D01*
X75000361Y-68317649D01*
X75001441Y-68310368D01*
X75003229Y-68303229D01*
X75005709Y-68296299D01*
X75008856Y-68289645D01*
X75012640Y-68283332D01*
X75017024Y-68277421D01*
X75021967Y-68271967D01*
X75027421Y-68267024D01*
X75033332Y-68262640D01*
X75039645Y-68258856D01*
X75046299Y-68255709D01*
X75053229Y-68253229D01*
X75060368Y-68251441D01*
X75067649Y-68250361D01*
X75075000Y-68250000D01*
X75225000Y-68250000D01*
X75232351Y-68250361D01*
G37*
G36*
X75732351Y-68250361D02*
G01*
X75739632Y-68251441D01*
X75746771Y-68253229D01*
X75753701Y-68255709D01*
X75760355Y-68258856D01*
X75766668Y-68262640D01*
X75772579Y-68267024D01*
X75778033Y-68271967D01*
X75782976Y-68277421D01*
X75787360Y-68283332D01*
X75791144Y-68289645D01*
X75794291Y-68296299D01*
X75796771Y-68303229D01*
X75798559Y-68310368D01*
X75799639Y-68317649D01*
X75800000Y-68325000D01*
X75800000Y-69725000D01*
X75799639Y-69732351D01*
X75798559Y-69739632D01*
X75796771Y-69746771D01*
X75794291Y-69753701D01*
X75791144Y-69760355D01*
X75787360Y-69766668D01*
X75782976Y-69772579D01*
X75778033Y-69778033D01*
X75772579Y-69782976D01*
X75766668Y-69787360D01*
X75760355Y-69791144D01*
X75753701Y-69794291D01*
X75746771Y-69796771D01*
X75739632Y-69798559D01*
X75732351Y-69799639D01*
X75725000Y-69800000D01*
X75575000Y-69800000D01*
X75567649Y-69799639D01*
X75560368Y-69798559D01*
X75553229Y-69796771D01*
X75546299Y-69794291D01*
X75539645Y-69791144D01*
X75533332Y-69787360D01*
X75527421Y-69782976D01*
X75521967Y-69778033D01*
X75517024Y-69772579D01*
X75512640Y-69766668D01*
X75508856Y-69760355D01*
X75505709Y-69753701D01*
X75503229Y-69746771D01*
X75501441Y-69739632D01*
X75500361Y-69732351D01*
X75500000Y-69725000D01*
X75500000Y-68325000D01*
X75500361Y-68317649D01*
X75501441Y-68310368D01*
X75503229Y-68303229D01*
X75505709Y-68296299D01*
X75508856Y-68289645D01*
X75512640Y-68283332D01*
X75517024Y-68277421D01*
X75521967Y-68271967D01*
X75527421Y-68267024D01*
X75533332Y-68262640D01*
X75539645Y-68258856D01*
X75546299Y-68255709D01*
X75553229Y-68253229D01*
X75560368Y-68251441D01*
X75567649Y-68250361D01*
X75575000Y-68250000D01*
X75725000Y-68250000D01*
X75732351Y-68250361D01*
G37*
G36*
X76232351Y-68250361D02*
G01*
X76239632Y-68251441D01*
X76246771Y-68253229D01*
X76253701Y-68255709D01*
X76260355Y-68258856D01*
X76266668Y-68262640D01*
X76272579Y-68267024D01*
X76278033Y-68271967D01*
X76282976Y-68277421D01*
X76287360Y-68283332D01*
X76291144Y-68289645D01*
X76294291Y-68296299D01*
X76296771Y-68303229D01*
X76298559Y-68310368D01*
X76299639Y-68317649D01*
X76300000Y-68325000D01*
X76300000Y-69725000D01*
X76299639Y-69732351D01*
X76298559Y-69739632D01*
X76296771Y-69746771D01*
X76294291Y-69753701D01*
X76291144Y-69760355D01*
X76287360Y-69766668D01*
X76282976Y-69772579D01*
X76278033Y-69778033D01*
X76272579Y-69782976D01*
X76266668Y-69787360D01*
X76260355Y-69791144D01*
X76253701Y-69794291D01*
X76246771Y-69796771D01*
X76239632Y-69798559D01*
X76232351Y-69799639D01*
X76225000Y-69800000D01*
X76075000Y-69800000D01*
X76067649Y-69799639D01*
X76060368Y-69798559D01*
X76053229Y-69796771D01*
X76046299Y-69794291D01*
X76039645Y-69791144D01*
X76033332Y-69787360D01*
X76027421Y-69782976D01*
X76021967Y-69778033D01*
X76017024Y-69772579D01*
X76012640Y-69766668D01*
X76008856Y-69760355D01*
X76005709Y-69753701D01*
X76003229Y-69746771D01*
X76001441Y-69739632D01*
X76000361Y-69732351D01*
X76000000Y-69725000D01*
X76000000Y-68325000D01*
X76000361Y-68317649D01*
X76001441Y-68310368D01*
X76003229Y-68303229D01*
X76005709Y-68296299D01*
X76008856Y-68289645D01*
X76012640Y-68283332D01*
X76017024Y-68277421D01*
X76021967Y-68271967D01*
X76027421Y-68267024D01*
X76033332Y-68262640D01*
X76039645Y-68258856D01*
X76046299Y-68255709D01*
X76053229Y-68253229D01*
X76060368Y-68251441D01*
X76067649Y-68250361D01*
X76075000Y-68250000D01*
X76225000Y-68250000D01*
X76232351Y-68250361D01*
G37*
G36*
X76732351Y-68250361D02*
G01*
X76739632Y-68251441D01*
X76746771Y-68253229D01*
X76753701Y-68255709D01*
X76760355Y-68258856D01*
X76766668Y-68262640D01*
X76772579Y-68267024D01*
X76778033Y-68271967D01*
X76782976Y-68277421D01*
X76787360Y-68283332D01*
X76791144Y-68289645D01*
X76794291Y-68296299D01*
X76796771Y-68303229D01*
X76798559Y-68310368D01*
X76799639Y-68317649D01*
X76800000Y-68325000D01*
X76800000Y-69725000D01*
X76799639Y-69732351D01*
X76798559Y-69739632D01*
X76796771Y-69746771D01*
X76794291Y-69753701D01*
X76791144Y-69760355D01*
X76787360Y-69766668D01*
X76782976Y-69772579D01*
X76778033Y-69778033D01*
X76772579Y-69782976D01*
X76766668Y-69787360D01*
X76760355Y-69791144D01*
X76753701Y-69794291D01*
X76746771Y-69796771D01*
X76739632Y-69798559D01*
X76732351Y-69799639D01*
X76725000Y-69800000D01*
X76575000Y-69800000D01*
X76567649Y-69799639D01*
X76560368Y-69798559D01*
X76553229Y-69796771D01*
X76546299Y-69794291D01*
X76539645Y-69791144D01*
X76533332Y-69787360D01*
X76527421Y-69782976D01*
X76521967Y-69778033D01*
X76517024Y-69772579D01*
X76512640Y-69766668D01*
X76508856Y-69760355D01*
X76505709Y-69753701D01*
X76503229Y-69746771D01*
X76501441Y-69739632D01*
X76500361Y-69732351D01*
X76500000Y-69725000D01*
X76500000Y-68325000D01*
X76500361Y-68317649D01*
X76501441Y-68310368D01*
X76503229Y-68303229D01*
X76505709Y-68296299D01*
X76508856Y-68289645D01*
X76512640Y-68283332D01*
X76517024Y-68277421D01*
X76521967Y-68271967D01*
X76527421Y-68267024D01*
X76533332Y-68262640D01*
X76539645Y-68258856D01*
X76546299Y-68255709D01*
X76553229Y-68253229D01*
X76560368Y-68251441D01*
X76567649Y-68250361D01*
X76575000Y-68250000D01*
X76725000Y-68250000D01*
X76732351Y-68250361D01*
G37*
G36*
X77232351Y-68250361D02*
G01*
X77239632Y-68251441D01*
X77246771Y-68253229D01*
X77253701Y-68255709D01*
X77260355Y-68258856D01*
X77266668Y-68262640D01*
X77272579Y-68267024D01*
X77278033Y-68271967D01*
X77282976Y-68277421D01*
X77287360Y-68283332D01*
X77291144Y-68289645D01*
X77294291Y-68296299D01*
X77296771Y-68303229D01*
X77298559Y-68310368D01*
X77299639Y-68317649D01*
X77300000Y-68325000D01*
X77300000Y-69725000D01*
X77299639Y-69732351D01*
X77298559Y-69739632D01*
X77296771Y-69746771D01*
X77294291Y-69753701D01*
X77291144Y-69760355D01*
X77287360Y-69766668D01*
X77282976Y-69772579D01*
X77278033Y-69778033D01*
X77272579Y-69782976D01*
X77266668Y-69787360D01*
X77260355Y-69791144D01*
X77253701Y-69794291D01*
X77246771Y-69796771D01*
X77239632Y-69798559D01*
X77232351Y-69799639D01*
X77225000Y-69800000D01*
X77075000Y-69800000D01*
X77067649Y-69799639D01*
X77060368Y-69798559D01*
X77053229Y-69796771D01*
X77046299Y-69794291D01*
X77039645Y-69791144D01*
X77033332Y-69787360D01*
X77027421Y-69782976D01*
X77021967Y-69778033D01*
X77017024Y-69772579D01*
X77012640Y-69766668D01*
X77008856Y-69760355D01*
X77005709Y-69753701D01*
X77003229Y-69746771D01*
X77001441Y-69739632D01*
X77000361Y-69732351D01*
X77000000Y-69725000D01*
X77000000Y-68325000D01*
X77000361Y-68317649D01*
X77001441Y-68310368D01*
X77003229Y-68303229D01*
X77005709Y-68296299D01*
X77008856Y-68289645D01*
X77012640Y-68283332D01*
X77017024Y-68277421D01*
X77021967Y-68271967D01*
X77027421Y-68267024D01*
X77033332Y-68262640D01*
X77039645Y-68258856D01*
X77046299Y-68255709D01*
X77053229Y-68253229D01*
X77060368Y-68251441D01*
X77067649Y-68250361D01*
X77075000Y-68250000D01*
X77225000Y-68250000D01*
X77232351Y-68250361D01*
G37*
G36*
X79782351Y-70800361D02*
G01*
X79789632Y-70801441D01*
X79796771Y-70803229D01*
X79803701Y-70805709D01*
X79810355Y-70808856D01*
X79816668Y-70812640D01*
X79822579Y-70817024D01*
X79828033Y-70821967D01*
X79832976Y-70827421D01*
X79837360Y-70833332D01*
X79841144Y-70839645D01*
X79844291Y-70846299D01*
X79846771Y-70853229D01*
X79848559Y-70860368D01*
X79849639Y-70867649D01*
X79850000Y-70875000D01*
X79850000Y-71025000D01*
X79849639Y-71032351D01*
X79848559Y-71039632D01*
X79846771Y-71046771D01*
X79844291Y-71053701D01*
X79841144Y-71060355D01*
X79837360Y-71066668D01*
X79832976Y-71072579D01*
X79828033Y-71078033D01*
X79822579Y-71082976D01*
X79816668Y-71087360D01*
X79810355Y-71091144D01*
X79803701Y-71094291D01*
X79796771Y-71096771D01*
X79789632Y-71098559D01*
X79782351Y-71099639D01*
X79775000Y-71100000D01*
X78375000Y-71100000D01*
X78367649Y-71099639D01*
X78360368Y-71098559D01*
X78353229Y-71096771D01*
X78346299Y-71094291D01*
X78339645Y-71091144D01*
X78333332Y-71087360D01*
X78327421Y-71082976D01*
X78321967Y-71078033D01*
X78317024Y-71072579D01*
X78312640Y-71066668D01*
X78308856Y-71060355D01*
X78305709Y-71053701D01*
X78303229Y-71046771D01*
X78301441Y-71039632D01*
X78300361Y-71032351D01*
X78300000Y-71025000D01*
X78300000Y-70875000D01*
X78300361Y-70867649D01*
X78301441Y-70860368D01*
X78303229Y-70853229D01*
X78305709Y-70846299D01*
X78308856Y-70839645D01*
X78312640Y-70833332D01*
X78317024Y-70827421D01*
X78321967Y-70821967D01*
X78327421Y-70817024D01*
X78333332Y-70812640D01*
X78339645Y-70808856D01*
X78346299Y-70805709D01*
X78353229Y-70803229D01*
X78360368Y-70801441D01*
X78367649Y-70800361D01*
X78375000Y-70800000D01*
X79775000Y-70800000D01*
X79782351Y-70800361D01*
G37*
G36*
X79782351Y-71300361D02*
G01*
X79789632Y-71301441D01*
X79796771Y-71303229D01*
X79803701Y-71305709D01*
X79810355Y-71308856D01*
X79816668Y-71312640D01*
X79822579Y-71317024D01*
X79828033Y-71321967D01*
X79832976Y-71327421D01*
X79837360Y-71333332D01*
X79841144Y-71339645D01*
X79844291Y-71346299D01*
X79846771Y-71353229D01*
X79848559Y-71360368D01*
X79849639Y-71367649D01*
X79850000Y-71375000D01*
X79850000Y-71525000D01*
X79849639Y-71532351D01*
X79848559Y-71539632D01*
X79846771Y-71546771D01*
X79844291Y-71553701D01*
X79841144Y-71560355D01*
X79837360Y-71566668D01*
X79832976Y-71572579D01*
X79828033Y-71578033D01*
X79822579Y-71582976D01*
X79816668Y-71587360D01*
X79810355Y-71591144D01*
X79803701Y-71594291D01*
X79796771Y-71596771D01*
X79789632Y-71598559D01*
X79782351Y-71599639D01*
X79775000Y-71600000D01*
X78375000Y-71600000D01*
X78367649Y-71599639D01*
X78360368Y-71598559D01*
X78353229Y-71596771D01*
X78346299Y-71594291D01*
X78339645Y-71591144D01*
X78333332Y-71587360D01*
X78327421Y-71582976D01*
X78321967Y-71578033D01*
X78317024Y-71572579D01*
X78312640Y-71566668D01*
X78308856Y-71560355D01*
X78305709Y-71553701D01*
X78303229Y-71546771D01*
X78301441Y-71539632D01*
X78300361Y-71532351D01*
X78300000Y-71525000D01*
X78300000Y-71375000D01*
X78300361Y-71367649D01*
X78301441Y-71360368D01*
X78303229Y-71353229D01*
X78305709Y-71346299D01*
X78308856Y-71339645D01*
X78312640Y-71333332D01*
X78317024Y-71327421D01*
X78321967Y-71321967D01*
X78327421Y-71317024D01*
X78333332Y-71312640D01*
X78339645Y-71308856D01*
X78346299Y-71305709D01*
X78353229Y-71303229D01*
X78360368Y-71301441D01*
X78367649Y-71300361D01*
X78375000Y-71300000D01*
X79775000Y-71300000D01*
X79782351Y-71300361D01*
G37*
G36*
X79782351Y-71800361D02*
G01*
X79789632Y-71801441D01*
X79796771Y-71803229D01*
X79803701Y-71805709D01*
X79810355Y-71808856D01*
X79816668Y-71812640D01*
X79822579Y-71817024D01*
X79828033Y-71821967D01*
X79832976Y-71827421D01*
X79837360Y-71833332D01*
X79841144Y-71839645D01*
X79844291Y-71846299D01*
X79846771Y-71853229D01*
X79848559Y-71860368D01*
X79849639Y-71867649D01*
X79850000Y-71875000D01*
X79850000Y-72025000D01*
X79849639Y-72032351D01*
X79848559Y-72039632D01*
X79846771Y-72046771D01*
X79844291Y-72053701D01*
X79841144Y-72060355D01*
X79837360Y-72066668D01*
X79832976Y-72072579D01*
X79828033Y-72078033D01*
X79822579Y-72082976D01*
X79816668Y-72087360D01*
X79810355Y-72091144D01*
X79803701Y-72094291D01*
X79796771Y-72096771D01*
X79789632Y-72098559D01*
X79782351Y-72099639D01*
X79775000Y-72100000D01*
X78375000Y-72100000D01*
X78367649Y-72099639D01*
X78360368Y-72098559D01*
X78353229Y-72096771D01*
X78346299Y-72094291D01*
X78339645Y-72091144D01*
X78333332Y-72087360D01*
X78327421Y-72082976D01*
X78321967Y-72078033D01*
X78317024Y-72072579D01*
X78312640Y-72066668D01*
X78308856Y-72060355D01*
X78305709Y-72053701D01*
X78303229Y-72046771D01*
X78301441Y-72039632D01*
X78300361Y-72032351D01*
X78300000Y-72025000D01*
X78300000Y-71875000D01*
X78300361Y-71867649D01*
X78301441Y-71860368D01*
X78303229Y-71853229D01*
X78305709Y-71846299D01*
X78308856Y-71839645D01*
X78312640Y-71833332D01*
X78317024Y-71827421D01*
X78321967Y-71821967D01*
X78327421Y-71817024D01*
X78333332Y-71812640D01*
X78339645Y-71808856D01*
X78346299Y-71805709D01*
X78353229Y-71803229D01*
X78360368Y-71801441D01*
X78367649Y-71800361D01*
X78375000Y-71800000D01*
X79775000Y-71800000D01*
X79782351Y-71800361D01*
G37*
G36*
X79782351Y-72300361D02*
G01*
X79789632Y-72301441D01*
X79796771Y-72303229D01*
X79803701Y-72305709D01*
X79810355Y-72308856D01*
X79816668Y-72312640D01*
X79822579Y-72317024D01*
X79828033Y-72321967D01*
X79832976Y-72327421D01*
X79837360Y-72333332D01*
X79841144Y-72339645D01*
X79844291Y-72346299D01*
X79846771Y-72353229D01*
X79848559Y-72360368D01*
X79849639Y-72367649D01*
X79850000Y-72375000D01*
X79850000Y-72525000D01*
X79849639Y-72532351D01*
X79848559Y-72539632D01*
X79846771Y-72546771D01*
X79844291Y-72553701D01*
X79841144Y-72560355D01*
X79837360Y-72566668D01*
X79832976Y-72572579D01*
X79828033Y-72578033D01*
X79822579Y-72582976D01*
X79816668Y-72587360D01*
X79810355Y-72591144D01*
X79803701Y-72594291D01*
X79796771Y-72596771D01*
X79789632Y-72598559D01*
X79782351Y-72599639D01*
X79775000Y-72600000D01*
X78375000Y-72600000D01*
X78367649Y-72599639D01*
X78360368Y-72598559D01*
X78353229Y-72596771D01*
X78346299Y-72594291D01*
X78339645Y-72591144D01*
X78333332Y-72587360D01*
X78327421Y-72582976D01*
X78321967Y-72578033D01*
X78317024Y-72572579D01*
X78312640Y-72566668D01*
X78308856Y-72560355D01*
X78305709Y-72553701D01*
X78303229Y-72546771D01*
X78301441Y-72539632D01*
X78300361Y-72532351D01*
X78300000Y-72525000D01*
X78300000Y-72375000D01*
X78300361Y-72367649D01*
X78301441Y-72360368D01*
X78303229Y-72353229D01*
X78305709Y-72346299D01*
X78308856Y-72339645D01*
X78312640Y-72333332D01*
X78317024Y-72327421D01*
X78321967Y-72321967D01*
X78327421Y-72317024D01*
X78333332Y-72312640D01*
X78339645Y-72308856D01*
X78346299Y-72305709D01*
X78353229Y-72303229D01*
X78360368Y-72301441D01*
X78367649Y-72300361D01*
X78375000Y-72300000D01*
X79775000Y-72300000D01*
X79782351Y-72300361D01*
G37*
G36*
X79782351Y-72800361D02*
G01*
X79789632Y-72801441D01*
X79796771Y-72803229D01*
X79803701Y-72805709D01*
X79810355Y-72808856D01*
X79816668Y-72812640D01*
X79822579Y-72817024D01*
X79828033Y-72821967D01*
X79832976Y-72827421D01*
X79837360Y-72833332D01*
X79841144Y-72839645D01*
X79844291Y-72846299D01*
X79846771Y-72853229D01*
X79848559Y-72860368D01*
X79849639Y-72867649D01*
X79850000Y-72875000D01*
X79850000Y-73025000D01*
X79849639Y-73032351D01*
X79848559Y-73039632D01*
X79846771Y-73046771D01*
X79844291Y-73053701D01*
X79841144Y-73060355D01*
X79837360Y-73066668D01*
X79832976Y-73072579D01*
X79828033Y-73078033D01*
X79822579Y-73082976D01*
X79816668Y-73087360D01*
X79810355Y-73091144D01*
X79803701Y-73094291D01*
X79796771Y-73096771D01*
X79789632Y-73098559D01*
X79782351Y-73099639D01*
X79775000Y-73100000D01*
X78375000Y-73100000D01*
X78367649Y-73099639D01*
X78360368Y-73098559D01*
X78353229Y-73096771D01*
X78346299Y-73094291D01*
X78339645Y-73091144D01*
X78333332Y-73087360D01*
X78327421Y-73082976D01*
X78321967Y-73078033D01*
X78317024Y-73072579D01*
X78312640Y-73066668D01*
X78308856Y-73060355D01*
X78305709Y-73053701D01*
X78303229Y-73046771D01*
X78301441Y-73039632D01*
X78300361Y-73032351D01*
X78300000Y-73025000D01*
X78300000Y-72875000D01*
X78300361Y-72867649D01*
X78301441Y-72860368D01*
X78303229Y-72853229D01*
X78305709Y-72846299D01*
X78308856Y-72839645D01*
X78312640Y-72833332D01*
X78317024Y-72827421D01*
X78321967Y-72821967D01*
X78327421Y-72817024D01*
X78333332Y-72812640D01*
X78339645Y-72808856D01*
X78346299Y-72805709D01*
X78353229Y-72803229D01*
X78360368Y-72801441D01*
X78367649Y-72800361D01*
X78375000Y-72800000D01*
X79775000Y-72800000D01*
X79782351Y-72800361D01*
G37*
G36*
X79782351Y-73300361D02*
G01*
X79789632Y-73301441D01*
X79796771Y-73303229D01*
X79803701Y-73305709D01*
X79810355Y-73308856D01*
X79816668Y-73312640D01*
X79822579Y-73317024D01*
X79828033Y-73321967D01*
X79832976Y-73327421D01*
X79837360Y-73333332D01*
X79841144Y-73339645D01*
X79844291Y-73346299D01*
X79846771Y-73353229D01*
X79848559Y-73360368D01*
X79849639Y-73367649D01*
X79850000Y-73375000D01*
X79850000Y-73525000D01*
X79849639Y-73532351D01*
X79848559Y-73539632D01*
X79846771Y-73546771D01*
X79844291Y-73553701D01*
X79841144Y-73560355D01*
X79837360Y-73566668D01*
X79832976Y-73572579D01*
X79828033Y-73578033D01*
X79822579Y-73582976D01*
X79816668Y-73587360D01*
X79810355Y-73591144D01*
X79803701Y-73594291D01*
X79796771Y-73596771D01*
X79789632Y-73598559D01*
X79782351Y-73599639D01*
X79775000Y-73600000D01*
X78375000Y-73600000D01*
X78367649Y-73599639D01*
X78360368Y-73598559D01*
X78353229Y-73596771D01*
X78346299Y-73594291D01*
X78339645Y-73591144D01*
X78333332Y-73587360D01*
X78327421Y-73582976D01*
X78321967Y-73578033D01*
X78317024Y-73572579D01*
X78312640Y-73566668D01*
X78308856Y-73560355D01*
X78305709Y-73553701D01*
X78303229Y-73546771D01*
X78301441Y-73539632D01*
X78300361Y-73532351D01*
X78300000Y-73525000D01*
X78300000Y-73375000D01*
X78300361Y-73367649D01*
X78301441Y-73360368D01*
X78303229Y-73353229D01*
X78305709Y-73346299D01*
X78308856Y-73339645D01*
X78312640Y-73333332D01*
X78317024Y-73327421D01*
X78321967Y-73321967D01*
X78327421Y-73317024D01*
X78333332Y-73312640D01*
X78339645Y-73308856D01*
X78346299Y-73305709D01*
X78353229Y-73303229D01*
X78360368Y-73301441D01*
X78367649Y-73300361D01*
X78375000Y-73300000D01*
X79775000Y-73300000D01*
X79782351Y-73300361D01*
G37*
G36*
X79782351Y-73800361D02*
G01*
X79789632Y-73801441D01*
X79796771Y-73803229D01*
X79803701Y-73805709D01*
X79810355Y-73808856D01*
X79816668Y-73812640D01*
X79822579Y-73817024D01*
X79828033Y-73821967D01*
X79832976Y-73827421D01*
X79837360Y-73833332D01*
X79841144Y-73839645D01*
X79844291Y-73846299D01*
X79846771Y-73853229D01*
X79848559Y-73860368D01*
X79849639Y-73867649D01*
X79850000Y-73875000D01*
X79850000Y-74025000D01*
X79849639Y-74032351D01*
X79848559Y-74039632D01*
X79846771Y-74046771D01*
X79844291Y-74053701D01*
X79841144Y-74060355D01*
X79837360Y-74066668D01*
X79832976Y-74072579D01*
X79828033Y-74078033D01*
X79822579Y-74082976D01*
X79816668Y-74087360D01*
X79810355Y-74091144D01*
X79803701Y-74094291D01*
X79796771Y-74096771D01*
X79789632Y-74098559D01*
X79782351Y-74099639D01*
X79775000Y-74100000D01*
X78375000Y-74100000D01*
X78367649Y-74099639D01*
X78360368Y-74098559D01*
X78353229Y-74096771D01*
X78346299Y-74094291D01*
X78339645Y-74091144D01*
X78333332Y-74087360D01*
X78327421Y-74082976D01*
X78321967Y-74078033D01*
X78317024Y-74072579D01*
X78312640Y-74066668D01*
X78308856Y-74060355D01*
X78305709Y-74053701D01*
X78303229Y-74046771D01*
X78301441Y-74039632D01*
X78300361Y-74032351D01*
X78300000Y-74025000D01*
X78300000Y-73875000D01*
X78300361Y-73867649D01*
X78301441Y-73860368D01*
X78303229Y-73853229D01*
X78305709Y-73846299D01*
X78308856Y-73839645D01*
X78312640Y-73833332D01*
X78317024Y-73827421D01*
X78321967Y-73821967D01*
X78327421Y-73817024D01*
X78333332Y-73812640D01*
X78339645Y-73808856D01*
X78346299Y-73805709D01*
X78353229Y-73803229D01*
X78360368Y-73801441D01*
X78367649Y-73800361D01*
X78375000Y-73800000D01*
X79775000Y-73800000D01*
X79782351Y-73800361D01*
G37*
G36*
X79782351Y-74300361D02*
G01*
X79789632Y-74301441D01*
X79796771Y-74303229D01*
X79803701Y-74305709D01*
X79810355Y-74308856D01*
X79816668Y-74312640D01*
X79822579Y-74317024D01*
X79828033Y-74321967D01*
X79832976Y-74327421D01*
X79837360Y-74333332D01*
X79841144Y-74339645D01*
X79844291Y-74346299D01*
X79846771Y-74353229D01*
X79848559Y-74360368D01*
X79849639Y-74367649D01*
X79850000Y-74375000D01*
X79850000Y-74525000D01*
X79849639Y-74532351D01*
X79848559Y-74539632D01*
X79846771Y-74546771D01*
X79844291Y-74553701D01*
X79841144Y-74560355D01*
X79837360Y-74566668D01*
X79832976Y-74572579D01*
X79828033Y-74578033D01*
X79822579Y-74582976D01*
X79816668Y-74587360D01*
X79810355Y-74591144D01*
X79803701Y-74594291D01*
X79796771Y-74596771D01*
X79789632Y-74598559D01*
X79782351Y-74599639D01*
X79775000Y-74600000D01*
X78375000Y-74600000D01*
X78367649Y-74599639D01*
X78360368Y-74598559D01*
X78353229Y-74596771D01*
X78346299Y-74594291D01*
X78339645Y-74591144D01*
X78333332Y-74587360D01*
X78327421Y-74582976D01*
X78321967Y-74578033D01*
X78317024Y-74572579D01*
X78312640Y-74566668D01*
X78308856Y-74560355D01*
X78305709Y-74553701D01*
X78303229Y-74546771D01*
X78301441Y-74539632D01*
X78300361Y-74532351D01*
X78300000Y-74525000D01*
X78300000Y-74375000D01*
X78300361Y-74367649D01*
X78301441Y-74360368D01*
X78303229Y-74353229D01*
X78305709Y-74346299D01*
X78308856Y-74339645D01*
X78312640Y-74333332D01*
X78317024Y-74327421D01*
X78321967Y-74321967D01*
X78327421Y-74317024D01*
X78333332Y-74312640D01*
X78339645Y-74308856D01*
X78346299Y-74305709D01*
X78353229Y-74303229D01*
X78360368Y-74301441D01*
X78367649Y-74300361D01*
X78375000Y-74300000D01*
X79775000Y-74300000D01*
X79782351Y-74300361D01*
G37*
G36*
X79782351Y-74800361D02*
G01*
X79789632Y-74801441D01*
X79796771Y-74803229D01*
X79803701Y-74805709D01*
X79810355Y-74808856D01*
X79816668Y-74812640D01*
X79822579Y-74817024D01*
X79828033Y-74821967D01*
X79832976Y-74827421D01*
X79837360Y-74833332D01*
X79841144Y-74839645D01*
X79844291Y-74846299D01*
X79846771Y-74853229D01*
X79848559Y-74860368D01*
X79849639Y-74867649D01*
X79850000Y-74875000D01*
X79850000Y-75025000D01*
X79849639Y-75032351D01*
X79848559Y-75039632D01*
X79846771Y-75046771D01*
X79844291Y-75053701D01*
X79841144Y-75060355D01*
X79837360Y-75066668D01*
X79832976Y-75072579D01*
X79828033Y-75078033D01*
X79822579Y-75082976D01*
X79816668Y-75087360D01*
X79810355Y-75091144D01*
X79803701Y-75094291D01*
X79796771Y-75096771D01*
X79789632Y-75098559D01*
X79782351Y-75099639D01*
X79775000Y-75100000D01*
X78375000Y-75100000D01*
X78367649Y-75099639D01*
X78360368Y-75098559D01*
X78353229Y-75096771D01*
X78346299Y-75094291D01*
X78339645Y-75091144D01*
X78333332Y-75087360D01*
X78327421Y-75082976D01*
X78321967Y-75078033D01*
X78317024Y-75072579D01*
X78312640Y-75066668D01*
X78308856Y-75060355D01*
X78305709Y-75053701D01*
X78303229Y-75046771D01*
X78301441Y-75039632D01*
X78300361Y-75032351D01*
X78300000Y-75025000D01*
X78300000Y-74875000D01*
X78300361Y-74867649D01*
X78301441Y-74860368D01*
X78303229Y-74853229D01*
X78305709Y-74846299D01*
X78308856Y-74839645D01*
X78312640Y-74833332D01*
X78317024Y-74827421D01*
X78321967Y-74821967D01*
X78327421Y-74817024D01*
X78333332Y-74812640D01*
X78339645Y-74808856D01*
X78346299Y-74805709D01*
X78353229Y-74803229D01*
X78360368Y-74801441D01*
X78367649Y-74800361D01*
X78375000Y-74800000D01*
X79775000Y-74800000D01*
X79782351Y-74800361D01*
G37*
G36*
X79782351Y-75300361D02*
G01*
X79789632Y-75301441D01*
X79796771Y-75303229D01*
X79803701Y-75305709D01*
X79810355Y-75308856D01*
X79816668Y-75312640D01*
X79822579Y-75317024D01*
X79828033Y-75321967D01*
X79832976Y-75327421D01*
X79837360Y-75333332D01*
X79841144Y-75339645D01*
X79844291Y-75346299D01*
X79846771Y-75353229D01*
X79848559Y-75360368D01*
X79849639Y-75367649D01*
X79850000Y-75375000D01*
X79850000Y-75525000D01*
X79849639Y-75532351D01*
X79848559Y-75539632D01*
X79846771Y-75546771D01*
X79844291Y-75553701D01*
X79841144Y-75560355D01*
X79837360Y-75566668D01*
X79832976Y-75572579D01*
X79828033Y-75578033D01*
X79822579Y-75582976D01*
X79816668Y-75587360D01*
X79810355Y-75591144D01*
X79803701Y-75594291D01*
X79796771Y-75596771D01*
X79789632Y-75598559D01*
X79782351Y-75599639D01*
X79775000Y-75600000D01*
X78375000Y-75600000D01*
X78367649Y-75599639D01*
X78360368Y-75598559D01*
X78353229Y-75596771D01*
X78346299Y-75594291D01*
X78339645Y-75591144D01*
X78333332Y-75587360D01*
X78327421Y-75582976D01*
X78321967Y-75578033D01*
X78317024Y-75572579D01*
X78312640Y-75566668D01*
X78308856Y-75560355D01*
X78305709Y-75553701D01*
X78303229Y-75546771D01*
X78301441Y-75539632D01*
X78300361Y-75532351D01*
X78300000Y-75525000D01*
X78300000Y-75375000D01*
X78300361Y-75367649D01*
X78301441Y-75360368D01*
X78303229Y-75353229D01*
X78305709Y-75346299D01*
X78308856Y-75339645D01*
X78312640Y-75333332D01*
X78317024Y-75327421D01*
X78321967Y-75321967D01*
X78327421Y-75317024D01*
X78333332Y-75312640D01*
X78339645Y-75308856D01*
X78346299Y-75305709D01*
X78353229Y-75303229D01*
X78360368Y-75301441D01*
X78367649Y-75300361D01*
X78375000Y-75300000D01*
X79775000Y-75300000D01*
X79782351Y-75300361D01*
G37*
G36*
X79782351Y-75800361D02*
G01*
X79789632Y-75801441D01*
X79796771Y-75803229D01*
X79803701Y-75805709D01*
X79810355Y-75808856D01*
X79816668Y-75812640D01*
X79822579Y-75817024D01*
X79828033Y-75821967D01*
X79832976Y-75827421D01*
X79837360Y-75833332D01*
X79841144Y-75839645D01*
X79844291Y-75846299D01*
X79846771Y-75853229D01*
X79848559Y-75860368D01*
X79849639Y-75867649D01*
X79850000Y-75875000D01*
X79850000Y-76025000D01*
X79849639Y-76032351D01*
X79848559Y-76039632D01*
X79846771Y-76046771D01*
X79844291Y-76053701D01*
X79841144Y-76060355D01*
X79837360Y-76066668D01*
X79832976Y-76072579D01*
X79828033Y-76078033D01*
X79822579Y-76082976D01*
X79816668Y-76087360D01*
X79810355Y-76091144D01*
X79803701Y-76094291D01*
X79796771Y-76096771D01*
X79789632Y-76098559D01*
X79782351Y-76099639D01*
X79775000Y-76100000D01*
X78375000Y-76100000D01*
X78367649Y-76099639D01*
X78360368Y-76098559D01*
X78353229Y-76096771D01*
X78346299Y-76094291D01*
X78339645Y-76091144D01*
X78333332Y-76087360D01*
X78327421Y-76082976D01*
X78321967Y-76078033D01*
X78317024Y-76072579D01*
X78312640Y-76066668D01*
X78308856Y-76060355D01*
X78305709Y-76053701D01*
X78303229Y-76046771D01*
X78301441Y-76039632D01*
X78300361Y-76032351D01*
X78300000Y-76025000D01*
X78300000Y-75875000D01*
X78300361Y-75867649D01*
X78301441Y-75860368D01*
X78303229Y-75853229D01*
X78305709Y-75846299D01*
X78308856Y-75839645D01*
X78312640Y-75833332D01*
X78317024Y-75827421D01*
X78321967Y-75821967D01*
X78327421Y-75817024D01*
X78333332Y-75812640D01*
X78339645Y-75808856D01*
X78346299Y-75805709D01*
X78353229Y-75803229D01*
X78360368Y-75801441D01*
X78367649Y-75800361D01*
X78375000Y-75800000D01*
X79775000Y-75800000D01*
X79782351Y-75800361D01*
G37*
G36*
X79782351Y-76300361D02*
G01*
X79789632Y-76301441D01*
X79796771Y-76303229D01*
X79803701Y-76305709D01*
X79810355Y-76308856D01*
X79816668Y-76312640D01*
X79822579Y-76317024D01*
X79828033Y-76321967D01*
X79832976Y-76327421D01*
X79837360Y-76333332D01*
X79841144Y-76339645D01*
X79844291Y-76346299D01*
X79846771Y-76353229D01*
X79848559Y-76360368D01*
X79849639Y-76367649D01*
X79850000Y-76375000D01*
X79850000Y-76525000D01*
X79849639Y-76532351D01*
X79848559Y-76539632D01*
X79846771Y-76546771D01*
X79844291Y-76553701D01*
X79841144Y-76560355D01*
X79837360Y-76566668D01*
X79832976Y-76572579D01*
X79828033Y-76578033D01*
X79822579Y-76582976D01*
X79816668Y-76587360D01*
X79810355Y-76591144D01*
X79803701Y-76594291D01*
X79796771Y-76596771D01*
X79789632Y-76598559D01*
X79782351Y-76599639D01*
X79775000Y-76600000D01*
X78375000Y-76600000D01*
X78367649Y-76599639D01*
X78360368Y-76598559D01*
X78353229Y-76596771D01*
X78346299Y-76594291D01*
X78339645Y-76591144D01*
X78333332Y-76587360D01*
X78327421Y-76582976D01*
X78321967Y-76578033D01*
X78317024Y-76572579D01*
X78312640Y-76566668D01*
X78308856Y-76560355D01*
X78305709Y-76553701D01*
X78303229Y-76546771D01*
X78301441Y-76539632D01*
X78300361Y-76532351D01*
X78300000Y-76525000D01*
X78300000Y-76375000D01*
X78300361Y-76367649D01*
X78301441Y-76360368D01*
X78303229Y-76353229D01*
X78305709Y-76346299D01*
X78308856Y-76339645D01*
X78312640Y-76333332D01*
X78317024Y-76327421D01*
X78321967Y-76321967D01*
X78327421Y-76317024D01*
X78333332Y-76312640D01*
X78339645Y-76308856D01*
X78346299Y-76305709D01*
X78353229Y-76303229D01*
X78360368Y-76301441D01*
X78367649Y-76300361D01*
X78375000Y-76300000D01*
X79775000Y-76300000D01*
X79782351Y-76300361D01*
G37*
G36*
X79782351Y-76800361D02*
G01*
X79789632Y-76801441D01*
X79796771Y-76803229D01*
X79803701Y-76805709D01*
X79810355Y-76808856D01*
X79816668Y-76812640D01*
X79822579Y-76817024D01*
X79828033Y-76821967D01*
X79832976Y-76827421D01*
X79837360Y-76833332D01*
X79841144Y-76839645D01*
X79844291Y-76846299D01*
X79846771Y-76853229D01*
X79848559Y-76860368D01*
X79849639Y-76867649D01*
X79850000Y-76875000D01*
X79850000Y-77025000D01*
X79849639Y-77032351D01*
X79848559Y-77039632D01*
X79846771Y-77046771D01*
X79844291Y-77053701D01*
X79841144Y-77060355D01*
X79837360Y-77066668D01*
X79832976Y-77072579D01*
X79828033Y-77078033D01*
X79822579Y-77082976D01*
X79816668Y-77087360D01*
X79810355Y-77091144D01*
X79803701Y-77094291D01*
X79796771Y-77096771D01*
X79789632Y-77098559D01*
X79782351Y-77099639D01*
X79775000Y-77100000D01*
X78375000Y-77100000D01*
X78367649Y-77099639D01*
X78360368Y-77098559D01*
X78353229Y-77096771D01*
X78346299Y-77094291D01*
X78339645Y-77091144D01*
X78333332Y-77087360D01*
X78327421Y-77082976D01*
X78321967Y-77078033D01*
X78317024Y-77072579D01*
X78312640Y-77066668D01*
X78308856Y-77060355D01*
X78305709Y-77053701D01*
X78303229Y-77046771D01*
X78301441Y-77039632D01*
X78300361Y-77032351D01*
X78300000Y-77025000D01*
X78300000Y-76875000D01*
X78300361Y-76867649D01*
X78301441Y-76860368D01*
X78303229Y-76853229D01*
X78305709Y-76846299D01*
X78308856Y-76839645D01*
X78312640Y-76833332D01*
X78317024Y-76827421D01*
X78321967Y-76821967D01*
X78327421Y-76817024D01*
X78333332Y-76812640D01*
X78339645Y-76808856D01*
X78346299Y-76805709D01*
X78353229Y-76803229D01*
X78360368Y-76801441D01*
X78367649Y-76800361D01*
X78375000Y-76800000D01*
X79775000Y-76800000D01*
X79782351Y-76800361D01*
G37*
G36*
X79782351Y-77300361D02*
G01*
X79789632Y-77301441D01*
X79796771Y-77303229D01*
X79803701Y-77305709D01*
X79810355Y-77308856D01*
X79816668Y-77312640D01*
X79822579Y-77317024D01*
X79828033Y-77321967D01*
X79832976Y-77327421D01*
X79837360Y-77333332D01*
X79841144Y-77339645D01*
X79844291Y-77346299D01*
X79846771Y-77353229D01*
X79848559Y-77360368D01*
X79849639Y-77367649D01*
X79850000Y-77375000D01*
X79850000Y-77525000D01*
X79849639Y-77532351D01*
X79848559Y-77539632D01*
X79846771Y-77546771D01*
X79844291Y-77553701D01*
X79841144Y-77560355D01*
X79837360Y-77566668D01*
X79832976Y-77572579D01*
X79828033Y-77578033D01*
X79822579Y-77582976D01*
X79816668Y-77587360D01*
X79810355Y-77591144D01*
X79803701Y-77594291D01*
X79796771Y-77596771D01*
X79789632Y-77598559D01*
X79782351Y-77599639D01*
X79775000Y-77600000D01*
X78375000Y-77600000D01*
X78367649Y-77599639D01*
X78360368Y-77598559D01*
X78353229Y-77596771D01*
X78346299Y-77594291D01*
X78339645Y-77591144D01*
X78333332Y-77587360D01*
X78327421Y-77582976D01*
X78321967Y-77578033D01*
X78317024Y-77572579D01*
X78312640Y-77566668D01*
X78308856Y-77560355D01*
X78305709Y-77553701D01*
X78303229Y-77546771D01*
X78301441Y-77539632D01*
X78300361Y-77532351D01*
X78300000Y-77525000D01*
X78300000Y-77375000D01*
X78300361Y-77367649D01*
X78301441Y-77360368D01*
X78303229Y-77353229D01*
X78305709Y-77346299D01*
X78308856Y-77339645D01*
X78312640Y-77333332D01*
X78317024Y-77327421D01*
X78321967Y-77321967D01*
X78327421Y-77317024D01*
X78333332Y-77312640D01*
X78339645Y-77308856D01*
X78346299Y-77305709D01*
X78353229Y-77303229D01*
X78360368Y-77301441D01*
X78367649Y-77300361D01*
X78375000Y-77300000D01*
X79775000Y-77300000D01*
X79782351Y-77300361D01*
G37*
G36*
X79782351Y-77800361D02*
G01*
X79789632Y-77801441D01*
X79796771Y-77803229D01*
X79803701Y-77805709D01*
X79810355Y-77808856D01*
X79816668Y-77812640D01*
X79822579Y-77817024D01*
X79828033Y-77821967D01*
X79832976Y-77827421D01*
X79837360Y-77833332D01*
X79841144Y-77839645D01*
X79844291Y-77846299D01*
X79846771Y-77853229D01*
X79848559Y-77860368D01*
X79849639Y-77867649D01*
X79850000Y-77875000D01*
X79850000Y-78025000D01*
X79849639Y-78032351D01*
X79848559Y-78039632D01*
X79846771Y-78046771D01*
X79844291Y-78053701D01*
X79841144Y-78060355D01*
X79837360Y-78066668D01*
X79832976Y-78072579D01*
X79828033Y-78078033D01*
X79822579Y-78082976D01*
X79816668Y-78087360D01*
X79810355Y-78091144D01*
X79803701Y-78094291D01*
X79796771Y-78096771D01*
X79789632Y-78098559D01*
X79782351Y-78099639D01*
X79775000Y-78100000D01*
X78375000Y-78100000D01*
X78367649Y-78099639D01*
X78360368Y-78098559D01*
X78353229Y-78096771D01*
X78346299Y-78094291D01*
X78339645Y-78091144D01*
X78333332Y-78087360D01*
X78327421Y-78082976D01*
X78321967Y-78078033D01*
X78317024Y-78072579D01*
X78312640Y-78066668D01*
X78308856Y-78060355D01*
X78305709Y-78053701D01*
X78303229Y-78046771D01*
X78301441Y-78039632D01*
X78300361Y-78032351D01*
X78300000Y-78025000D01*
X78300000Y-77875000D01*
X78300361Y-77867649D01*
X78301441Y-77860368D01*
X78303229Y-77853229D01*
X78305709Y-77846299D01*
X78308856Y-77839645D01*
X78312640Y-77833332D01*
X78317024Y-77827421D01*
X78321967Y-77821967D01*
X78327421Y-77817024D01*
X78333332Y-77812640D01*
X78339645Y-77808856D01*
X78346299Y-77805709D01*
X78353229Y-77803229D01*
X78360368Y-77801441D01*
X78367649Y-77800361D01*
X78375000Y-77800000D01*
X79775000Y-77800000D01*
X79782351Y-77800361D01*
G37*
G36*
X79782351Y-78300361D02*
G01*
X79789632Y-78301441D01*
X79796771Y-78303229D01*
X79803701Y-78305709D01*
X79810355Y-78308856D01*
X79816668Y-78312640D01*
X79822579Y-78317024D01*
X79828033Y-78321967D01*
X79832976Y-78327421D01*
X79837360Y-78333332D01*
X79841144Y-78339645D01*
X79844291Y-78346299D01*
X79846771Y-78353229D01*
X79848559Y-78360368D01*
X79849639Y-78367649D01*
X79850000Y-78375000D01*
X79850000Y-78525000D01*
X79849639Y-78532351D01*
X79848559Y-78539632D01*
X79846771Y-78546771D01*
X79844291Y-78553701D01*
X79841144Y-78560355D01*
X79837360Y-78566668D01*
X79832976Y-78572579D01*
X79828033Y-78578033D01*
X79822579Y-78582976D01*
X79816668Y-78587360D01*
X79810355Y-78591144D01*
X79803701Y-78594291D01*
X79796771Y-78596771D01*
X79789632Y-78598559D01*
X79782351Y-78599639D01*
X79775000Y-78600000D01*
X78375000Y-78600000D01*
X78367649Y-78599639D01*
X78360368Y-78598559D01*
X78353229Y-78596771D01*
X78346299Y-78594291D01*
X78339645Y-78591144D01*
X78333332Y-78587360D01*
X78327421Y-78582976D01*
X78321967Y-78578033D01*
X78317024Y-78572579D01*
X78312640Y-78566668D01*
X78308856Y-78560355D01*
X78305709Y-78553701D01*
X78303229Y-78546771D01*
X78301441Y-78539632D01*
X78300361Y-78532351D01*
X78300000Y-78525000D01*
X78300000Y-78375000D01*
X78300361Y-78367649D01*
X78301441Y-78360368D01*
X78303229Y-78353229D01*
X78305709Y-78346299D01*
X78308856Y-78339645D01*
X78312640Y-78333332D01*
X78317024Y-78327421D01*
X78321967Y-78321967D01*
X78327421Y-78317024D01*
X78333332Y-78312640D01*
X78339645Y-78308856D01*
X78346299Y-78305709D01*
X78353229Y-78303229D01*
X78360368Y-78301441D01*
X78367649Y-78300361D01*
X78375000Y-78300000D01*
X79775000Y-78300000D01*
X79782351Y-78300361D01*
G37*
G36*
X81113691Y-74837053D02*
G01*
X81134926Y-74840203D01*
X81155750Y-74845419D01*
X81175962Y-74852651D01*
X81195368Y-74861830D01*
X81213781Y-74872866D01*
X81231024Y-74885654D01*
X81246930Y-74900070D01*
X81261346Y-74915976D01*
X81274134Y-74933219D01*
X81285170Y-74951632D01*
X81294349Y-74971038D01*
X81301581Y-74991250D01*
X81306797Y-75012074D01*
X81309947Y-75033309D01*
X81311000Y-75054750D01*
X81311000Y-75567250D01*
X81309947Y-75588691D01*
X81306797Y-75609926D01*
X81301581Y-75630750D01*
X81294349Y-75650962D01*
X81285170Y-75670368D01*
X81274134Y-75688781D01*
X81261346Y-75706024D01*
X81246930Y-75721930D01*
X81231024Y-75736346D01*
X81213781Y-75749134D01*
X81195368Y-75760170D01*
X81175962Y-75769349D01*
X81155750Y-75776581D01*
X81134926Y-75781797D01*
X81113691Y-75784947D01*
X81092250Y-75786000D01*
X80654750Y-75786000D01*
X80633309Y-75784947D01*
X80612074Y-75781797D01*
X80591250Y-75776581D01*
X80571038Y-75769349D01*
X80551632Y-75760170D01*
X80533219Y-75749134D01*
X80515976Y-75736346D01*
X80500070Y-75721930D01*
X80485654Y-75706024D01*
X80472866Y-75688781D01*
X80461830Y-75670368D01*
X80452651Y-75650962D01*
X80445419Y-75630750D01*
X80440203Y-75609926D01*
X80437053Y-75588691D01*
X80436000Y-75567250D01*
X80436000Y-75054750D01*
X80437053Y-75033309D01*
X80440203Y-75012074D01*
X80445419Y-74991250D01*
X80452651Y-74971038D01*
X80461830Y-74951632D01*
X80472866Y-74933219D01*
X80485654Y-74915976D01*
X80500070Y-74900070D01*
X80515976Y-74885654D01*
X80533219Y-74872866D01*
X80551632Y-74861830D01*
X80571038Y-74852651D01*
X80591250Y-74845419D01*
X80612074Y-74840203D01*
X80633309Y-74837053D01*
X80654750Y-74836000D01*
X81092250Y-74836000D01*
X81113691Y-74837053D01*
G37*
G36*
X82688691Y-74837053D02*
G01*
X82709926Y-74840203D01*
X82730750Y-74845419D01*
X82750962Y-74852651D01*
X82770368Y-74861830D01*
X82788781Y-74872866D01*
X82806024Y-74885654D01*
X82821930Y-74900070D01*
X82836346Y-74915976D01*
X82849134Y-74933219D01*
X82860170Y-74951632D01*
X82869349Y-74971038D01*
X82876581Y-74991250D01*
X82881797Y-75012074D01*
X82884947Y-75033309D01*
X82886000Y-75054750D01*
X82886000Y-75567250D01*
X82884947Y-75588691D01*
X82881797Y-75609926D01*
X82876581Y-75630750D01*
X82869349Y-75650962D01*
X82860170Y-75670368D01*
X82849134Y-75688781D01*
X82836346Y-75706024D01*
X82821930Y-75721930D01*
X82806024Y-75736346D01*
X82788781Y-75749134D01*
X82770368Y-75760170D01*
X82750962Y-75769349D01*
X82730750Y-75776581D01*
X82709926Y-75781797D01*
X82688691Y-75784947D01*
X82667250Y-75786000D01*
X82229750Y-75786000D01*
X82208309Y-75784947D01*
X82187074Y-75781797D01*
X82166250Y-75776581D01*
X82146038Y-75769349D01*
X82126632Y-75760170D01*
X82108219Y-75749134D01*
X82090976Y-75736346D01*
X82075070Y-75721930D01*
X82060654Y-75706024D01*
X82047866Y-75688781D01*
X82036830Y-75670368D01*
X82027651Y-75650962D01*
X82020419Y-75630750D01*
X82015203Y-75609926D01*
X82012053Y-75588691D01*
X82011000Y-75567250D01*
X82011000Y-75054750D01*
X82012053Y-75033309D01*
X82015203Y-75012074D01*
X82020419Y-74991250D01*
X82027651Y-74971038D01*
X82036830Y-74951632D01*
X82047866Y-74933219D01*
X82060654Y-74915976D01*
X82075070Y-74900070D01*
X82090976Y-74885654D01*
X82108219Y-74872866D01*
X82126632Y-74861830D01*
X82146038Y-74852651D01*
X82166250Y-74845419D01*
X82187074Y-74840203D01*
X82208309Y-74837053D01*
X82229750Y-74836000D01*
X82667250Y-74836000D01*
X82688691Y-74837053D01*
G37*
G36*
X71016691Y-81707053D02*
G01*
X71037926Y-81710203D01*
X71058750Y-81715419D01*
X71078962Y-81722651D01*
X71098368Y-81731830D01*
X71116781Y-81742866D01*
X71134024Y-81755654D01*
X71149930Y-81770070D01*
X71164346Y-81785976D01*
X71177134Y-81803219D01*
X71188170Y-81821632D01*
X71197349Y-81841038D01*
X71204581Y-81861250D01*
X71209797Y-81882074D01*
X71212947Y-81903309D01*
X71214000Y-81924750D01*
X71214000Y-82362250D01*
X71212947Y-82383691D01*
X71209797Y-82404926D01*
X71204581Y-82425750D01*
X71197349Y-82445962D01*
X71188170Y-82465368D01*
X71177134Y-82483781D01*
X71164346Y-82501024D01*
X71149930Y-82516930D01*
X71134024Y-82531346D01*
X71116781Y-82544134D01*
X71098368Y-82555170D01*
X71078962Y-82564349D01*
X71058750Y-82571581D01*
X71037926Y-82576797D01*
X71016691Y-82579947D01*
X70995250Y-82581000D01*
X70482750Y-82581000D01*
X70461309Y-82579947D01*
X70440074Y-82576797D01*
X70419250Y-82571581D01*
X70399038Y-82564349D01*
X70379632Y-82555170D01*
X70361219Y-82544134D01*
X70343976Y-82531346D01*
X70328070Y-82516930D01*
X70313654Y-82501024D01*
X70300866Y-82483781D01*
X70289830Y-82465368D01*
X70280651Y-82445962D01*
X70273419Y-82425750D01*
X70268203Y-82404926D01*
X70265053Y-82383691D01*
X70264000Y-82362250D01*
X70264000Y-81924750D01*
X70265053Y-81903309D01*
X70268203Y-81882074D01*
X70273419Y-81861250D01*
X70280651Y-81841038D01*
X70289830Y-81821632D01*
X70300866Y-81803219D01*
X70313654Y-81785976D01*
X70328070Y-81770070D01*
X70343976Y-81755654D01*
X70361219Y-81742866D01*
X70379632Y-81731830D01*
X70399038Y-81722651D01*
X70419250Y-81715419D01*
X70440074Y-81710203D01*
X70461309Y-81707053D01*
X70482750Y-81706000D01*
X70995250Y-81706000D01*
X71016691Y-81707053D01*
G37*
G36*
X71016691Y-83282053D02*
G01*
X71037926Y-83285203D01*
X71058750Y-83290419D01*
X71078962Y-83297651D01*
X71098368Y-83306830D01*
X71116781Y-83317866D01*
X71134024Y-83330654D01*
X71149930Y-83345070D01*
X71164346Y-83360976D01*
X71177134Y-83378219D01*
X71188170Y-83396632D01*
X71197349Y-83416038D01*
X71204581Y-83436250D01*
X71209797Y-83457074D01*
X71212947Y-83478309D01*
X71214000Y-83499750D01*
X71214000Y-83937250D01*
X71212947Y-83958691D01*
X71209797Y-83979926D01*
X71204581Y-84000750D01*
X71197349Y-84020962D01*
X71188170Y-84040368D01*
X71177134Y-84058781D01*
X71164346Y-84076024D01*
X71149930Y-84091930D01*
X71134024Y-84106346D01*
X71116781Y-84119134D01*
X71098368Y-84130170D01*
X71078962Y-84139349D01*
X71058750Y-84146581D01*
X71037926Y-84151797D01*
X71016691Y-84154947D01*
X70995250Y-84156000D01*
X70482750Y-84156000D01*
X70461309Y-84154947D01*
X70440074Y-84151797D01*
X70419250Y-84146581D01*
X70399038Y-84139349D01*
X70379632Y-84130170D01*
X70361219Y-84119134D01*
X70343976Y-84106346D01*
X70328070Y-84091930D01*
X70313654Y-84076024D01*
X70300866Y-84058781D01*
X70289830Y-84040368D01*
X70280651Y-84020962D01*
X70273419Y-84000750D01*
X70268203Y-83979926D01*
X70265053Y-83958691D01*
X70264000Y-83937250D01*
X70264000Y-83499750D01*
X70265053Y-83478309D01*
X70268203Y-83457074D01*
X70273419Y-83436250D01*
X70280651Y-83416038D01*
X70289830Y-83396632D01*
X70300866Y-83378219D01*
X70313654Y-83360976D01*
X70328070Y-83345070D01*
X70343976Y-83330654D01*
X70361219Y-83317866D01*
X70379632Y-83306830D01*
X70399038Y-83297651D01*
X70419250Y-83290419D01*
X70440074Y-83285203D01*
X70461309Y-83282053D01*
X70482750Y-83281000D01*
X70995250Y-83281000D01*
X71016691Y-83282053D01*
G37*
G36*
X70177691Y-66772553D02*
G01*
X70198926Y-66775703D01*
X70219750Y-66780919D01*
X70239962Y-66788151D01*
X70259368Y-66797330D01*
X70277781Y-66808366D01*
X70295024Y-66821154D01*
X70310930Y-66835570D01*
X70325346Y-66851476D01*
X70338134Y-66868719D01*
X70349170Y-66887132D01*
X70358349Y-66906538D01*
X70365581Y-66926750D01*
X70370797Y-66947574D01*
X70373947Y-66968809D01*
X70375000Y-66990250D01*
X70375000Y-67502750D01*
X70373947Y-67524191D01*
X70370797Y-67545426D01*
X70365581Y-67566250D01*
X70358349Y-67586462D01*
X70349170Y-67605868D01*
X70338134Y-67624281D01*
X70325346Y-67641524D01*
X70310930Y-67657430D01*
X70295024Y-67671846D01*
X70277781Y-67684634D01*
X70259368Y-67695670D01*
X70239962Y-67704849D01*
X70219750Y-67712081D01*
X70198926Y-67717297D01*
X70177691Y-67720447D01*
X70156250Y-67721500D01*
X69718750Y-67721500D01*
X69697309Y-67720447D01*
X69676074Y-67717297D01*
X69655250Y-67712081D01*
X69635038Y-67704849D01*
X69615632Y-67695670D01*
X69597219Y-67684634D01*
X69579976Y-67671846D01*
X69564070Y-67657430D01*
X69549654Y-67641524D01*
X69536866Y-67624281D01*
X69525830Y-67605868D01*
X69516651Y-67586462D01*
X69509419Y-67566250D01*
X69504203Y-67545426D01*
X69501053Y-67524191D01*
X69500000Y-67502750D01*
X69500000Y-66990250D01*
X69501053Y-66968809D01*
X69504203Y-66947574D01*
X69509419Y-66926750D01*
X69516651Y-66906538D01*
X69525830Y-66887132D01*
X69536866Y-66868719D01*
X69549654Y-66851476D01*
X69564070Y-66835570D01*
X69579976Y-66821154D01*
X69597219Y-66808366D01*
X69615632Y-66797330D01*
X69635038Y-66788151D01*
X69655250Y-66780919D01*
X69676074Y-66775703D01*
X69697309Y-66772553D01*
X69718750Y-66771500D01*
X70156250Y-66771500D01*
X70177691Y-66772553D01*
G37*
G36*
X68602691Y-66772553D02*
G01*
X68623926Y-66775703D01*
X68644750Y-66780919D01*
X68664962Y-66788151D01*
X68684368Y-66797330D01*
X68702781Y-66808366D01*
X68720024Y-66821154D01*
X68735930Y-66835570D01*
X68750346Y-66851476D01*
X68763134Y-66868719D01*
X68774170Y-66887132D01*
X68783349Y-66906538D01*
X68790581Y-66926750D01*
X68795797Y-66947574D01*
X68798947Y-66968809D01*
X68800000Y-66990250D01*
X68800000Y-67502750D01*
X68798947Y-67524191D01*
X68795797Y-67545426D01*
X68790581Y-67566250D01*
X68783349Y-67586462D01*
X68774170Y-67605868D01*
X68763134Y-67624281D01*
X68750346Y-67641524D01*
X68735930Y-67657430D01*
X68720024Y-67671846D01*
X68702781Y-67684634D01*
X68684368Y-67695670D01*
X68664962Y-67704849D01*
X68644750Y-67712081D01*
X68623926Y-67717297D01*
X68602691Y-67720447D01*
X68581250Y-67721500D01*
X68143750Y-67721500D01*
X68122309Y-67720447D01*
X68101074Y-67717297D01*
X68080250Y-67712081D01*
X68060038Y-67704849D01*
X68040632Y-67695670D01*
X68022219Y-67684634D01*
X68004976Y-67671846D01*
X67989070Y-67657430D01*
X67974654Y-67641524D01*
X67961866Y-67624281D01*
X67950830Y-67605868D01*
X67941651Y-67586462D01*
X67934419Y-67566250D01*
X67929203Y-67545426D01*
X67926053Y-67524191D01*
X67925000Y-67502750D01*
X67925000Y-66990250D01*
X67926053Y-66968809D01*
X67929203Y-66947574D01*
X67934419Y-66926750D01*
X67941651Y-66906538D01*
X67950830Y-66887132D01*
X67961866Y-66868719D01*
X67974654Y-66851476D01*
X67989070Y-66835570D01*
X68004976Y-66821154D01*
X68022219Y-66808366D01*
X68040632Y-66797330D01*
X68060038Y-66788151D01*
X68080250Y-66780919D01*
X68101074Y-66775703D01*
X68122309Y-66772553D01*
X68143750Y-66771500D01*
X68581250Y-66771500D01*
X68602691Y-66772553D01*
G37*
G36*
X81113691Y-72487553D02*
G01*
X81134926Y-72490703D01*
X81155750Y-72495919D01*
X81175962Y-72503151D01*
X81195368Y-72512330D01*
X81213781Y-72523366D01*
X81231024Y-72536154D01*
X81246930Y-72550570D01*
X81261346Y-72566476D01*
X81274134Y-72583719D01*
X81285170Y-72602132D01*
X81294349Y-72621538D01*
X81301581Y-72641750D01*
X81306797Y-72662574D01*
X81309947Y-72683809D01*
X81311000Y-72705250D01*
X81311000Y-73217750D01*
X81309947Y-73239191D01*
X81306797Y-73260426D01*
X81301581Y-73281250D01*
X81294349Y-73301462D01*
X81285170Y-73320868D01*
X81274134Y-73339281D01*
X81261346Y-73356524D01*
X81246930Y-73372430D01*
X81231024Y-73386846D01*
X81213781Y-73399634D01*
X81195368Y-73410670D01*
X81175962Y-73419849D01*
X81155750Y-73427081D01*
X81134926Y-73432297D01*
X81113691Y-73435447D01*
X81092250Y-73436500D01*
X80654750Y-73436500D01*
X80633309Y-73435447D01*
X80612074Y-73432297D01*
X80591250Y-73427081D01*
X80571038Y-73419849D01*
X80551632Y-73410670D01*
X80533219Y-73399634D01*
X80515976Y-73386846D01*
X80500070Y-73372430D01*
X80485654Y-73356524D01*
X80472866Y-73339281D01*
X80461830Y-73320868D01*
X80452651Y-73301462D01*
X80445419Y-73281250D01*
X80440203Y-73260426D01*
X80437053Y-73239191D01*
X80436000Y-73217750D01*
X80436000Y-72705250D01*
X80437053Y-72683809D01*
X80440203Y-72662574D01*
X80445419Y-72641750D01*
X80452651Y-72621538D01*
X80461830Y-72602132D01*
X80472866Y-72583719D01*
X80485654Y-72566476D01*
X80500070Y-72550570D01*
X80515976Y-72536154D01*
X80533219Y-72523366D01*
X80551632Y-72512330D01*
X80571038Y-72503151D01*
X80591250Y-72495919D01*
X80612074Y-72490703D01*
X80633309Y-72487553D01*
X80654750Y-72486500D01*
X81092250Y-72486500D01*
X81113691Y-72487553D01*
G37*
G36*
X82688691Y-72487553D02*
G01*
X82709926Y-72490703D01*
X82730750Y-72495919D01*
X82750962Y-72503151D01*
X82770368Y-72512330D01*
X82788781Y-72523366D01*
X82806024Y-72536154D01*
X82821930Y-72550570D01*
X82836346Y-72566476D01*
X82849134Y-72583719D01*
X82860170Y-72602132D01*
X82869349Y-72621538D01*
X82876581Y-72641750D01*
X82881797Y-72662574D01*
X82884947Y-72683809D01*
X82886000Y-72705250D01*
X82886000Y-73217750D01*
X82884947Y-73239191D01*
X82881797Y-73260426D01*
X82876581Y-73281250D01*
X82869349Y-73301462D01*
X82860170Y-73320868D01*
X82849134Y-73339281D01*
X82836346Y-73356524D01*
X82821930Y-73372430D01*
X82806024Y-73386846D01*
X82788781Y-73399634D01*
X82770368Y-73410670D01*
X82750962Y-73419849D01*
X82730750Y-73427081D01*
X82709926Y-73432297D01*
X82688691Y-73435447D01*
X82667250Y-73436500D01*
X82229750Y-73436500D01*
X82208309Y-73435447D01*
X82187074Y-73432297D01*
X82166250Y-73427081D01*
X82146038Y-73419849D01*
X82126632Y-73410670D01*
X82108219Y-73399634D01*
X82090976Y-73386846D01*
X82075070Y-73372430D01*
X82060654Y-73356524D01*
X82047866Y-73339281D01*
X82036830Y-73320868D01*
X82027651Y-73301462D01*
X82020419Y-73281250D01*
X82015203Y-73260426D01*
X82012053Y-73239191D01*
X82011000Y-73217750D01*
X82011000Y-72705250D01*
X82012053Y-72683809D01*
X82015203Y-72662574D01*
X82020419Y-72641750D01*
X82027651Y-72621538D01*
X82036830Y-72602132D01*
X82047866Y-72583719D01*
X82060654Y-72566476D01*
X82075070Y-72550570D01*
X82090976Y-72536154D01*
X82108219Y-72523366D01*
X82126632Y-72512330D01*
X82146038Y-72503151D01*
X82166250Y-72495919D01*
X82187074Y-72490703D01*
X82208309Y-72487553D01*
X82229750Y-72486500D01*
X82667250Y-72486500D01*
X82688691Y-72487553D01*
G37*
G36*
X78561191Y-66328053D02*
G01*
X78582426Y-66331203D01*
X78603250Y-66336419D01*
X78623462Y-66343651D01*
X78642868Y-66352830D01*
X78661281Y-66363866D01*
X78678524Y-66376654D01*
X78694430Y-66391070D01*
X78708846Y-66406976D01*
X78721634Y-66424219D01*
X78732670Y-66442632D01*
X78741849Y-66462038D01*
X78749081Y-66482250D01*
X78754297Y-66503074D01*
X78757447Y-66524309D01*
X78758500Y-66545750D01*
X78758500Y-67058250D01*
X78757447Y-67079691D01*
X78754297Y-67100926D01*
X78749081Y-67121750D01*
X78741849Y-67141962D01*
X78732670Y-67161368D01*
X78721634Y-67179781D01*
X78708846Y-67197024D01*
X78694430Y-67212930D01*
X78678524Y-67227346D01*
X78661281Y-67240134D01*
X78642868Y-67251170D01*
X78623462Y-67260349D01*
X78603250Y-67267581D01*
X78582426Y-67272797D01*
X78561191Y-67275947D01*
X78539750Y-67277000D01*
X78102250Y-67277000D01*
X78080809Y-67275947D01*
X78059574Y-67272797D01*
X78038750Y-67267581D01*
X78018538Y-67260349D01*
X77999132Y-67251170D01*
X77980719Y-67240134D01*
X77963476Y-67227346D01*
X77947570Y-67212930D01*
X77933154Y-67197024D01*
X77920366Y-67179781D01*
X77909330Y-67161368D01*
X77900151Y-67141962D01*
X77892919Y-67121750D01*
X77887703Y-67100926D01*
X77884553Y-67079691D01*
X77883500Y-67058250D01*
X77883500Y-66545750D01*
X77884553Y-66524309D01*
X77887703Y-66503074D01*
X77892919Y-66482250D01*
X77900151Y-66462038D01*
X77909330Y-66442632D01*
X77920366Y-66424219D01*
X77933154Y-66406976D01*
X77947570Y-66391070D01*
X77963476Y-66376654D01*
X77980719Y-66363866D01*
X77999132Y-66352830D01*
X78018538Y-66343651D01*
X78038750Y-66336419D01*
X78059574Y-66331203D01*
X78080809Y-66328053D01*
X78102250Y-66327000D01*
X78539750Y-66327000D01*
X78561191Y-66328053D01*
G37*
G36*
X76986191Y-66328053D02*
G01*
X77007426Y-66331203D01*
X77028250Y-66336419D01*
X77048462Y-66343651D01*
X77067868Y-66352830D01*
X77086281Y-66363866D01*
X77103524Y-66376654D01*
X77119430Y-66391070D01*
X77133846Y-66406976D01*
X77146634Y-66424219D01*
X77157670Y-66442632D01*
X77166849Y-66462038D01*
X77174081Y-66482250D01*
X77179297Y-66503074D01*
X77182447Y-66524309D01*
X77183500Y-66545750D01*
X77183500Y-67058250D01*
X77182447Y-67079691D01*
X77179297Y-67100926D01*
X77174081Y-67121750D01*
X77166849Y-67141962D01*
X77157670Y-67161368D01*
X77146634Y-67179781D01*
X77133846Y-67197024D01*
X77119430Y-67212930D01*
X77103524Y-67227346D01*
X77086281Y-67240134D01*
X77067868Y-67251170D01*
X77048462Y-67260349D01*
X77028250Y-67267581D01*
X77007426Y-67272797D01*
X76986191Y-67275947D01*
X76964750Y-67277000D01*
X76527250Y-67277000D01*
X76505809Y-67275947D01*
X76484574Y-67272797D01*
X76463750Y-67267581D01*
X76443538Y-67260349D01*
X76424132Y-67251170D01*
X76405719Y-67240134D01*
X76388476Y-67227346D01*
X76372570Y-67212930D01*
X76358154Y-67197024D01*
X76345366Y-67179781D01*
X76334330Y-67161368D01*
X76325151Y-67141962D01*
X76317919Y-67121750D01*
X76312703Y-67100926D01*
X76309553Y-67079691D01*
X76308500Y-67058250D01*
X76308500Y-66545750D01*
X76309553Y-66524309D01*
X76312703Y-66503074D01*
X76317919Y-66482250D01*
X76325151Y-66462038D01*
X76334330Y-66442632D01*
X76345366Y-66424219D01*
X76358154Y-66406976D01*
X76372570Y-66391070D01*
X76388476Y-66376654D01*
X76405719Y-66363866D01*
X76424132Y-66352830D01*
X76443538Y-66343651D01*
X76463750Y-66336419D01*
X76484574Y-66331203D01*
X76505809Y-66328053D01*
X76527250Y-66327000D01*
X76964750Y-66327000D01*
X76986191Y-66328053D01*
G37*
G36*
X76592691Y-81695053D02*
G01*
X76613926Y-81698203D01*
X76634750Y-81703419D01*
X76654962Y-81710651D01*
X76674368Y-81719830D01*
X76692781Y-81730866D01*
X76710024Y-81743654D01*
X76725930Y-81758070D01*
X76740346Y-81773976D01*
X76753134Y-81791219D01*
X76764170Y-81809632D01*
X76773349Y-81829038D01*
X76780581Y-81849250D01*
X76785797Y-81870074D01*
X76788947Y-81891309D01*
X76790000Y-81912750D01*
X76790000Y-82425250D01*
X76788947Y-82446691D01*
X76785797Y-82467926D01*
X76780581Y-82488750D01*
X76773349Y-82508962D01*
X76764170Y-82528368D01*
X76753134Y-82546781D01*
X76740346Y-82564024D01*
X76725930Y-82579930D01*
X76710024Y-82594346D01*
X76692781Y-82607134D01*
X76674368Y-82618170D01*
X76654962Y-82627349D01*
X76634750Y-82634581D01*
X76613926Y-82639797D01*
X76592691Y-82642947D01*
X76571250Y-82644000D01*
X76133750Y-82644000D01*
X76112309Y-82642947D01*
X76091074Y-82639797D01*
X76070250Y-82634581D01*
X76050038Y-82627349D01*
X76030632Y-82618170D01*
X76012219Y-82607134D01*
X75994976Y-82594346D01*
X75979070Y-82579930D01*
X75964654Y-82564024D01*
X75951866Y-82546781D01*
X75940830Y-82528368D01*
X75931651Y-82508962D01*
X75924419Y-82488750D01*
X75919203Y-82467926D01*
X75916053Y-82446691D01*
X75915000Y-82425250D01*
X75915000Y-81912750D01*
X75916053Y-81891309D01*
X75919203Y-81870074D01*
X75924419Y-81849250D01*
X75931651Y-81829038D01*
X75940830Y-81809632D01*
X75951866Y-81791219D01*
X75964654Y-81773976D01*
X75979070Y-81758070D01*
X75994976Y-81743654D01*
X76012219Y-81730866D01*
X76030632Y-81719830D01*
X76050038Y-81710651D01*
X76070250Y-81703419D01*
X76091074Y-81698203D01*
X76112309Y-81695053D01*
X76133750Y-81694000D01*
X76571250Y-81694000D01*
X76592691Y-81695053D01*
G37*
G36*
X75017691Y-81695053D02*
G01*
X75038926Y-81698203D01*
X75059750Y-81703419D01*
X75079962Y-81710651D01*
X75099368Y-81719830D01*
X75117781Y-81730866D01*
X75135024Y-81743654D01*
X75150930Y-81758070D01*
X75165346Y-81773976D01*
X75178134Y-81791219D01*
X75189170Y-81809632D01*
X75198349Y-81829038D01*
X75205581Y-81849250D01*
X75210797Y-81870074D01*
X75213947Y-81891309D01*
X75215000Y-81912750D01*
X75215000Y-82425250D01*
X75213947Y-82446691D01*
X75210797Y-82467926D01*
X75205581Y-82488750D01*
X75198349Y-82508962D01*
X75189170Y-82528368D01*
X75178134Y-82546781D01*
X75165346Y-82564024D01*
X75150930Y-82579930D01*
X75135024Y-82594346D01*
X75117781Y-82607134D01*
X75099368Y-82618170D01*
X75079962Y-82627349D01*
X75059750Y-82634581D01*
X75038926Y-82639797D01*
X75017691Y-82642947D01*
X74996250Y-82644000D01*
X74558750Y-82644000D01*
X74537309Y-82642947D01*
X74516074Y-82639797D01*
X74495250Y-82634581D01*
X74475038Y-82627349D01*
X74455632Y-82618170D01*
X74437219Y-82607134D01*
X74419976Y-82594346D01*
X74404070Y-82579930D01*
X74389654Y-82564024D01*
X74376866Y-82546781D01*
X74365830Y-82528368D01*
X74356651Y-82508962D01*
X74349419Y-82488750D01*
X74344203Y-82467926D01*
X74341053Y-82446691D01*
X74340000Y-82425250D01*
X74340000Y-81912750D01*
X74341053Y-81891309D01*
X74344203Y-81870074D01*
X74349419Y-81849250D01*
X74356651Y-81829038D01*
X74365830Y-81809632D01*
X74376866Y-81791219D01*
X74389654Y-81773976D01*
X74404070Y-81758070D01*
X74419976Y-81743654D01*
X74437219Y-81730866D01*
X74455632Y-81719830D01*
X74475038Y-81710651D01*
X74495250Y-81703419D01*
X74516074Y-81698203D01*
X74537309Y-81695053D01*
X74558750Y-81694000D01*
X74996250Y-81694000D01*
X75017691Y-81695053D01*
G37*
G36*
X81176691Y-79827553D02*
G01*
X81197926Y-79830703D01*
X81218750Y-79835919D01*
X81238962Y-79843151D01*
X81258368Y-79852330D01*
X81276781Y-79863366D01*
X81294024Y-79876154D01*
X81309930Y-79890570D01*
X81324346Y-79906476D01*
X81337134Y-79923719D01*
X81348170Y-79942132D01*
X81357349Y-79961538D01*
X81364581Y-79981750D01*
X81369797Y-80002574D01*
X81372947Y-80023809D01*
X81374000Y-80045250D01*
X81374000Y-80482750D01*
X81372947Y-80504191D01*
X81369797Y-80525426D01*
X81364581Y-80546250D01*
X81357349Y-80566462D01*
X81348170Y-80585868D01*
X81337134Y-80604281D01*
X81324346Y-80621524D01*
X81309930Y-80637430D01*
X81294024Y-80651846D01*
X81276781Y-80664634D01*
X81258368Y-80675670D01*
X81238962Y-80684849D01*
X81218750Y-80692081D01*
X81197926Y-80697297D01*
X81176691Y-80700447D01*
X81155250Y-80701500D01*
X80642750Y-80701500D01*
X80621309Y-80700447D01*
X80600074Y-80697297D01*
X80579250Y-80692081D01*
X80559038Y-80684849D01*
X80539632Y-80675670D01*
X80521219Y-80664634D01*
X80503976Y-80651846D01*
X80488070Y-80637430D01*
X80473654Y-80621524D01*
X80460866Y-80604281D01*
X80449830Y-80585868D01*
X80440651Y-80566462D01*
X80433419Y-80546250D01*
X80428203Y-80525426D01*
X80425053Y-80504191D01*
X80424000Y-80482750D01*
X80424000Y-80045250D01*
X80425053Y-80023809D01*
X80428203Y-80002574D01*
X80433419Y-79981750D01*
X80440651Y-79961538D01*
X80449830Y-79942132D01*
X80460866Y-79923719D01*
X80473654Y-79906476D01*
X80488070Y-79890570D01*
X80503976Y-79876154D01*
X80521219Y-79863366D01*
X80539632Y-79852330D01*
X80559038Y-79843151D01*
X80579250Y-79835919D01*
X80600074Y-79830703D01*
X80621309Y-79827553D01*
X80642750Y-79826500D01*
X81155250Y-79826500D01*
X81176691Y-79827553D01*
G37*
G36*
X81176691Y-78252553D02*
G01*
X81197926Y-78255703D01*
X81218750Y-78260919D01*
X81238962Y-78268151D01*
X81258368Y-78277330D01*
X81276781Y-78288366D01*
X81294024Y-78301154D01*
X81309930Y-78315570D01*
X81324346Y-78331476D01*
X81337134Y-78348719D01*
X81348170Y-78367132D01*
X81357349Y-78386538D01*
X81364581Y-78406750D01*
X81369797Y-78427574D01*
X81372947Y-78448809D01*
X81374000Y-78470250D01*
X81374000Y-78907750D01*
X81372947Y-78929191D01*
X81369797Y-78950426D01*
X81364581Y-78971250D01*
X81357349Y-78991462D01*
X81348170Y-79010868D01*
X81337134Y-79029281D01*
X81324346Y-79046524D01*
X81309930Y-79062430D01*
X81294024Y-79076846D01*
X81276781Y-79089634D01*
X81258368Y-79100670D01*
X81238962Y-79109849D01*
X81218750Y-79117081D01*
X81197926Y-79122297D01*
X81176691Y-79125447D01*
X81155250Y-79126500D01*
X80642750Y-79126500D01*
X80621309Y-79125447D01*
X80600074Y-79122297D01*
X80579250Y-79117081D01*
X80559038Y-79109849D01*
X80539632Y-79100670D01*
X80521219Y-79089634D01*
X80503976Y-79076846D01*
X80488070Y-79062430D01*
X80473654Y-79046524D01*
X80460866Y-79029281D01*
X80449830Y-79010868D01*
X80440651Y-78991462D01*
X80433419Y-78971250D01*
X80428203Y-78950426D01*
X80425053Y-78929191D01*
X80424000Y-78907750D01*
X80424000Y-78470250D01*
X80425053Y-78448809D01*
X80428203Y-78427574D01*
X80433419Y-78406750D01*
X80440651Y-78386538D01*
X80449830Y-78367132D01*
X80460866Y-78348719D01*
X80473654Y-78331476D01*
X80488070Y-78315570D01*
X80503976Y-78301154D01*
X80521219Y-78288366D01*
X80539632Y-78277330D01*
X80559038Y-78268151D01*
X80579250Y-78260919D01*
X80600074Y-78255703D01*
X80621309Y-78252553D01*
X80642750Y-78251500D01*
X81155250Y-78251500D01*
X81176691Y-78252553D01*
G37*
G36*
X79652691Y-83282053D02*
G01*
X79673926Y-83285203D01*
X79694750Y-83290419D01*
X79714962Y-83297651D01*
X79734368Y-83306830D01*
X79752781Y-83317866D01*
X79770024Y-83330654D01*
X79785930Y-83345070D01*
X79800346Y-83360976D01*
X79813134Y-83378219D01*
X79824170Y-83396632D01*
X79833349Y-83416038D01*
X79840581Y-83436250D01*
X79845797Y-83457074D01*
X79848947Y-83478309D01*
X79850000Y-83499750D01*
X79850000Y-83937250D01*
X79848947Y-83958691D01*
X79845797Y-83979926D01*
X79840581Y-84000750D01*
X79833349Y-84020962D01*
X79824170Y-84040368D01*
X79813134Y-84058781D01*
X79800346Y-84076024D01*
X79785930Y-84091930D01*
X79770024Y-84106346D01*
X79752781Y-84119134D01*
X79734368Y-84130170D01*
X79714962Y-84139349D01*
X79694750Y-84146581D01*
X79673926Y-84151797D01*
X79652691Y-84154947D01*
X79631250Y-84156000D01*
X79118750Y-84156000D01*
X79097309Y-84154947D01*
X79076074Y-84151797D01*
X79055250Y-84146581D01*
X79035038Y-84139349D01*
X79015632Y-84130170D01*
X78997219Y-84119134D01*
X78979976Y-84106346D01*
X78964070Y-84091930D01*
X78949654Y-84076024D01*
X78936866Y-84058781D01*
X78925830Y-84040368D01*
X78916651Y-84020962D01*
X78909419Y-84000750D01*
X78904203Y-83979926D01*
X78901053Y-83958691D01*
X78900000Y-83937250D01*
X78900000Y-83499750D01*
X78901053Y-83478309D01*
X78904203Y-83457074D01*
X78909419Y-83436250D01*
X78916651Y-83416038D01*
X78925830Y-83396632D01*
X78936866Y-83378219D01*
X78949654Y-83360976D01*
X78964070Y-83345070D01*
X78979976Y-83330654D01*
X78997219Y-83317866D01*
X79015632Y-83306830D01*
X79035038Y-83297651D01*
X79055250Y-83290419D01*
X79076074Y-83285203D01*
X79097309Y-83282053D01*
X79118750Y-83281000D01*
X79631250Y-83281000D01*
X79652691Y-83282053D01*
G37*
G36*
X79652691Y-81707053D02*
G01*
X79673926Y-81710203D01*
X79694750Y-81715419D01*
X79714962Y-81722651D01*
X79734368Y-81731830D01*
X79752781Y-81742866D01*
X79770024Y-81755654D01*
X79785930Y-81770070D01*
X79800346Y-81785976D01*
X79813134Y-81803219D01*
X79824170Y-81821632D01*
X79833349Y-81841038D01*
X79840581Y-81861250D01*
X79845797Y-81882074D01*
X79848947Y-81903309D01*
X79850000Y-81924750D01*
X79850000Y-82362250D01*
X79848947Y-82383691D01*
X79845797Y-82404926D01*
X79840581Y-82425750D01*
X79833349Y-82445962D01*
X79824170Y-82465368D01*
X79813134Y-82483781D01*
X79800346Y-82501024D01*
X79785930Y-82516930D01*
X79770024Y-82531346D01*
X79752781Y-82544134D01*
X79734368Y-82555170D01*
X79714962Y-82564349D01*
X79694750Y-82571581D01*
X79673926Y-82576797D01*
X79652691Y-82579947D01*
X79631250Y-82581000D01*
X79118750Y-82581000D01*
X79097309Y-82579947D01*
X79076074Y-82576797D01*
X79055250Y-82571581D01*
X79035038Y-82564349D01*
X79015632Y-82555170D01*
X78997219Y-82544134D01*
X78979976Y-82531346D01*
X78964070Y-82516930D01*
X78949654Y-82501024D01*
X78936866Y-82483781D01*
X78925830Y-82465368D01*
X78916651Y-82445962D01*
X78909419Y-82425750D01*
X78904203Y-82404926D01*
X78901053Y-82383691D01*
X78900000Y-82362250D01*
X78900000Y-81924750D01*
X78901053Y-81903309D01*
X78904203Y-81882074D01*
X78909419Y-81861250D01*
X78916651Y-81841038D01*
X78925830Y-81821632D01*
X78936866Y-81803219D01*
X78949654Y-81785976D01*
X78964070Y-81770070D01*
X78979976Y-81755654D01*
X78997219Y-81742866D01*
X79015632Y-81731830D01*
X79035038Y-81722651D01*
X79055250Y-81715419D01*
X79076074Y-81710203D01*
X79097309Y-81707053D01*
X79118750Y-81706000D01*
X79631250Y-81706000D01*
X79652691Y-81707053D01*
G37*
G36*
X81176691Y-81707053D02*
G01*
X81197926Y-81710203D01*
X81218750Y-81715419D01*
X81238962Y-81722651D01*
X81258368Y-81731830D01*
X81276781Y-81742866D01*
X81294024Y-81755654D01*
X81309930Y-81770070D01*
X81324346Y-81785976D01*
X81337134Y-81803219D01*
X81348170Y-81821632D01*
X81357349Y-81841038D01*
X81364581Y-81861250D01*
X81369797Y-81882074D01*
X81372947Y-81903309D01*
X81374000Y-81924750D01*
X81374000Y-82362250D01*
X81372947Y-82383691D01*
X81369797Y-82404926D01*
X81364581Y-82425750D01*
X81357349Y-82445962D01*
X81348170Y-82465368D01*
X81337134Y-82483781D01*
X81324346Y-82501024D01*
X81309930Y-82516930D01*
X81294024Y-82531346D01*
X81276781Y-82544134D01*
X81258368Y-82555170D01*
X81238962Y-82564349D01*
X81218750Y-82571581D01*
X81197926Y-82576797D01*
X81176691Y-82579947D01*
X81155250Y-82581000D01*
X80642750Y-82581000D01*
X80621309Y-82579947D01*
X80600074Y-82576797D01*
X80579250Y-82571581D01*
X80559038Y-82564349D01*
X80539632Y-82555170D01*
X80521219Y-82544134D01*
X80503976Y-82531346D01*
X80488070Y-82516930D01*
X80473654Y-82501024D01*
X80460866Y-82483781D01*
X80449830Y-82465368D01*
X80440651Y-82445962D01*
X80433419Y-82425750D01*
X80428203Y-82404926D01*
X80425053Y-82383691D01*
X80424000Y-82362250D01*
X80424000Y-81924750D01*
X80425053Y-81903309D01*
X80428203Y-81882074D01*
X80433419Y-81861250D01*
X80440651Y-81841038D01*
X80449830Y-81821632D01*
X80460866Y-81803219D01*
X80473654Y-81785976D01*
X80488070Y-81770070D01*
X80503976Y-81755654D01*
X80521219Y-81742866D01*
X80539632Y-81731830D01*
X80559038Y-81722651D01*
X80579250Y-81715419D01*
X80600074Y-81710203D01*
X80621309Y-81707053D01*
X80642750Y-81706000D01*
X81155250Y-81706000D01*
X81176691Y-81707053D01*
G37*
G36*
X81176691Y-83282053D02*
G01*
X81197926Y-83285203D01*
X81218750Y-83290419D01*
X81238962Y-83297651D01*
X81258368Y-83306830D01*
X81276781Y-83317866D01*
X81294024Y-83330654D01*
X81309930Y-83345070D01*
X81324346Y-83360976D01*
X81337134Y-83378219D01*
X81348170Y-83396632D01*
X81357349Y-83416038D01*
X81364581Y-83436250D01*
X81369797Y-83457074D01*
X81372947Y-83478309D01*
X81374000Y-83499750D01*
X81374000Y-83937250D01*
X81372947Y-83958691D01*
X81369797Y-83979926D01*
X81364581Y-84000750D01*
X81357349Y-84020962D01*
X81348170Y-84040368D01*
X81337134Y-84058781D01*
X81324346Y-84076024D01*
X81309930Y-84091930D01*
X81294024Y-84106346D01*
X81276781Y-84119134D01*
X81258368Y-84130170D01*
X81238962Y-84139349D01*
X81218750Y-84146581D01*
X81197926Y-84151797D01*
X81176691Y-84154947D01*
X81155250Y-84156000D01*
X80642750Y-84156000D01*
X80621309Y-84154947D01*
X80600074Y-84151797D01*
X80579250Y-84146581D01*
X80559038Y-84139349D01*
X80539632Y-84130170D01*
X80521219Y-84119134D01*
X80503976Y-84106346D01*
X80488070Y-84091930D01*
X80473654Y-84076024D01*
X80460866Y-84058781D01*
X80449830Y-84040368D01*
X80440651Y-84020962D01*
X80433419Y-84000750D01*
X80428203Y-83979926D01*
X80425053Y-83958691D01*
X80424000Y-83937250D01*
X80424000Y-83499750D01*
X80425053Y-83478309D01*
X80428203Y-83457074D01*
X80433419Y-83436250D01*
X80440651Y-83416038D01*
X80449830Y-83396632D01*
X80460866Y-83378219D01*
X80473654Y-83360976D01*
X80488070Y-83345070D01*
X80503976Y-83330654D01*
X80521219Y-83317866D01*
X80539632Y-83306830D01*
X80559038Y-83297651D01*
X80579250Y-83290419D01*
X80600074Y-83285203D01*
X80621309Y-83282053D01*
X80642750Y-83281000D01*
X81155250Y-83281000D01*
X81176691Y-83282053D01*
G37*
G36*
X78128691Y-83282053D02*
G01*
X78149926Y-83285203D01*
X78170750Y-83290419D01*
X78190962Y-83297651D01*
X78210368Y-83306830D01*
X78228781Y-83317866D01*
X78246024Y-83330654D01*
X78261930Y-83345070D01*
X78276346Y-83360976D01*
X78289134Y-83378219D01*
X78300170Y-83396632D01*
X78309349Y-83416038D01*
X78316581Y-83436250D01*
X78321797Y-83457074D01*
X78324947Y-83478309D01*
X78326000Y-83499750D01*
X78326000Y-83937250D01*
X78324947Y-83958691D01*
X78321797Y-83979926D01*
X78316581Y-84000750D01*
X78309349Y-84020962D01*
X78300170Y-84040368D01*
X78289134Y-84058781D01*
X78276346Y-84076024D01*
X78261930Y-84091930D01*
X78246024Y-84106346D01*
X78228781Y-84119134D01*
X78210368Y-84130170D01*
X78190962Y-84139349D01*
X78170750Y-84146581D01*
X78149926Y-84151797D01*
X78128691Y-84154947D01*
X78107250Y-84156000D01*
X77594750Y-84156000D01*
X77573309Y-84154947D01*
X77552074Y-84151797D01*
X77531250Y-84146581D01*
X77511038Y-84139349D01*
X77491632Y-84130170D01*
X77473219Y-84119134D01*
X77455976Y-84106346D01*
X77440070Y-84091930D01*
X77425654Y-84076024D01*
X77412866Y-84058781D01*
X77401830Y-84040368D01*
X77392651Y-84020962D01*
X77385419Y-84000750D01*
X77380203Y-83979926D01*
X77377053Y-83958691D01*
X77376000Y-83937250D01*
X77376000Y-83499750D01*
X77377053Y-83478309D01*
X77380203Y-83457074D01*
X77385419Y-83436250D01*
X77392651Y-83416038D01*
X77401830Y-83396632D01*
X77412866Y-83378219D01*
X77425654Y-83360976D01*
X77440070Y-83345070D01*
X77455976Y-83330654D01*
X77473219Y-83317866D01*
X77491632Y-83306830D01*
X77511038Y-83297651D01*
X77531250Y-83290419D01*
X77552074Y-83285203D01*
X77573309Y-83282053D01*
X77594750Y-83281000D01*
X78107250Y-83281000D01*
X78128691Y-83282053D01*
G37*
G36*
X78128691Y-81707053D02*
G01*
X78149926Y-81710203D01*
X78170750Y-81715419D01*
X78190962Y-81722651D01*
X78210368Y-81731830D01*
X78228781Y-81742866D01*
X78246024Y-81755654D01*
X78261930Y-81770070D01*
X78276346Y-81785976D01*
X78289134Y-81803219D01*
X78300170Y-81821632D01*
X78309349Y-81841038D01*
X78316581Y-81861250D01*
X78321797Y-81882074D01*
X78324947Y-81903309D01*
X78326000Y-81924750D01*
X78326000Y-82362250D01*
X78324947Y-82383691D01*
X78321797Y-82404926D01*
X78316581Y-82425750D01*
X78309349Y-82445962D01*
X78300170Y-82465368D01*
X78289134Y-82483781D01*
X78276346Y-82501024D01*
X78261930Y-82516930D01*
X78246024Y-82531346D01*
X78228781Y-82544134D01*
X78210368Y-82555170D01*
X78190962Y-82564349D01*
X78170750Y-82571581D01*
X78149926Y-82576797D01*
X78128691Y-82579947D01*
X78107250Y-82581000D01*
X77594750Y-82581000D01*
X77573309Y-82579947D01*
X77552074Y-82576797D01*
X77531250Y-82571581D01*
X77511038Y-82564349D01*
X77491632Y-82555170D01*
X77473219Y-82544134D01*
X77455976Y-82531346D01*
X77440070Y-82516930D01*
X77425654Y-82501024D01*
X77412866Y-82483781D01*
X77401830Y-82465368D01*
X77392651Y-82445962D01*
X77385419Y-82425750D01*
X77380203Y-82404926D01*
X77377053Y-82383691D01*
X77376000Y-82362250D01*
X77376000Y-81924750D01*
X77377053Y-81903309D01*
X77380203Y-81882074D01*
X77385419Y-81861250D01*
X77392651Y-81841038D01*
X77401830Y-81821632D01*
X77412866Y-81803219D01*
X77425654Y-81785976D01*
X77440070Y-81770070D01*
X77455976Y-81755654D01*
X77473219Y-81742866D01*
X77491632Y-81731830D01*
X77511038Y-81722651D01*
X77531250Y-81715419D01*
X77552074Y-81710203D01*
X77573309Y-81707053D01*
X77594750Y-81706000D01*
X78107250Y-81706000D01*
X78128691Y-81707053D01*
G37*
G36*
X68697691Y-82281053D02*
G01*
X68718926Y-82284203D01*
X68739750Y-82289419D01*
X68759962Y-82296651D01*
X68779368Y-82305830D01*
X68797781Y-82316866D01*
X68815024Y-82329654D01*
X68830930Y-82344070D01*
X68845346Y-82359976D01*
X68858134Y-82377219D01*
X68869170Y-82395632D01*
X68878349Y-82415038D01*
X68885581Y-82435250D01*
X68890797Y-82456074D01*
X68893947Y-82477309D01*
X68895000Y-82498750D01*
X68895000Y-82936250D01*
X68893947Y-82957691D01*
X68890797Y-82978926D01*
X68885581Y-82999750D01*
X68878349Y-83019962D01*
X68869170Y-83039368D01*
X68858134Y-83057781D01*
X68845346Y-83075024D01*
X68830930Y-83090930D01*
X68815024Y-83105346D01*
X68797781Y-83118134D01*
X68779368Y-83129170D01*
X68759962Y-83138349D01*
X68739750Y-83145581D01*
X68718926Y-83150797D01*
X68697691Y-83153947D01*
X68676250Y-83155000D01*
X68163750Y-83155000D01*
X68142309Y-83153947D01*
X68121074Y-83150797D01*
X68100250Y-83145581D01*
X68080038Y-83138349D01*
X68060632Y-83129170D01*
X68042219Y-83118134D01*
X68024976Y-83105346D01*
X68009070Y-83090930D01*
X67994654Y-83075024D01*
X67981866Y-83057781D01*
X67970830Y-83039368D01*
X67961651Y-83019962D01*
X67954419Y-82999750D01*
X67949203Y-82978926D01*
X67946053Y-82957691D01*
X67945000Y-82936250D01*
X67945000Y-82498750D01*
X67946053Y-82477309D01*
X67949203Y-82456074D01*
X67954419Y-82435250D01*
X67961651Y-82415038D01*
X67970830Y-82395632D01*
X67981866Y-82377219D01*
X67994654Y-82359976D01*
X68009070Y-82344070D01*
X68024976Y-82329654D01*
X68042219Y-82316866D01*
X68060632Y-82305830D01*
X68080038Y-82296651D01*
X68100250Y-82289419D01*
X68121074Y-82284203D01*
X68142309Y-82281053D01*
X68163750Y-82280000D01*
X68676250Y-82280000D01*
X68697691Y-82281053D01*
G37*
G36*
X68697691Y-80706053D02*
G01*
X68718926Y-80709203D01*
X68739750Y-80714419D01*
X68759962Y-80721651D01*
X68779368Y-80730830D01*
X68797781Y-80741866D01*
X68815024Y-80754654D01*
X68830930Y-80769070D01*
X68845346Y-80784976D01*
X68858134Y-80802219D01*
X68869170Y-80820632D01*
X68878349Y-80840038D01*
X68885581Y-80860250D01*
X68890797Y-80881074D01*
X68893947Y-80902309D01*
X68895000Y-80923750D01*
X68895000Y-81361250D01*
X68893947Y-81382691D01*
X68890797Y-81403926D01*
X68885581Y-81424750D01*
X68878349Y-81444962D01*
X68869170Y-81464368D01*
X68858134Y-81482781D01*
X68845346Y-81500024D01*
X68830930Y-81515930D01*
X68815024Y-81530346D01*
X68797781Y-81543134D01*
X68779368Y-81554170D01*
X68759962Y-81563349D01*
X68739750Y-81570581D01*
X68718926Y-81575797D01*
X68697691Y-81578947D01*
X68676250Y-81580000D01*
X68163750Y-81580000D01*
X68142309Y-81578947D01*
X68121074Y-81575797D01*
X68100250Y-81570581D01*
X68080038Y-81563349D01*
X68060632Y-81554170D01*
X68042219Y-81543134D01*
X68024976Y-81530346D01*
X68009070Y-81515930D01*
X67994654Y-81500024D01*
X67981866Y-81482781D01*
X67970830Y-81464368D01*
X67961651Y-81444962D01*
X67954419Y-81424750D01*
X67949203Y-81403926D01*
X67946053Y-81382691D01*
X67945000Y-81361250D01*
X67945000Y-80923750D01*
X67946053Y-80902309D01*
X67949203Y-80881074D01*
X67954419Y-80860250D01*
X67961651Y-80840038D01*
X67970830Y-80820632D01*
X67981866Y-80802219D01*
X67994654Y-80784976D01*
X68009070Y-80769070D01*
X68024976Y-80754654D01*
X68042219Y-80741866D01*
X68060632Y-80730830D01*
X68080038Y-80721651D01*
X68100250Y-80714419D01*
X68121074Y-80709203D01*
X68142309Y-80706053D01*
X68163750Y-80705000D01*
X68676250Y-80705000D01*
X68697691Y-80706053D01*
G37*
G36*
X83895191Y-62518053D02*
G01*
X83916426Y-62521203D01*
X83937250Y-62526419D01*
X83957462Y-62533651D01*
X83976868Y-62542830D01*
X83995281Y-62553866D01*
X84012524Y-62566654D01*
X84028430Y-62581070D01*
X84042846Y-62596976D01*
X84055634Y-62614219D01*
X84066670Y-62632632D01*
X84075849Y-62652038D01*
X84083081Y-62672250D01*
X84088297Y-62693074D01*
X84091447Y-62714309D01*
X84092500Y-62735750D01*
X84092500Y-63248250D01*
X84091447Y-63269691D01*
X84088297Y-63290926D01*
X84083081Y-63311750D01*
X84075849Y-63331962D01*
X84066670Y-63351368D01*
X84055634Y-63369781D01*
X84042846Y-63387024D01*
X84028430Y-63402930D01*
X84012524Y-63417346D01*
X83995281Y-63430134D01*
X83976868Y-63441170D01*
X83957462Y-63450349D01*
X83937250Y-63457581D01*
X83916426Y-63462797D01*
X83895191Y-63465947D01*
X83873750Y-63467000D01*
X83436250Y-63467000D01*
X83414809Y-63465947D01*
X83393574Y-63462797D01*
X83372750Y-63457581D01*
X83352538Y-63450349D01*
X83333132Y-63441170D01*
X83314719Y-63430134D01*
X83297476Y-63417346D01*
X83281570Y-63402930D01*
X83267154Y-63387024D01*
X83254366Y-63369781D01*
X83243330Y-63351368D01*
X83234151Y-63331962D01*
X83226919Y-63311750D01*
X83221703Y-63290926D01*
X83218553Y-63269691D01*
X83217500Y-63248250D01*
X83217500Y-62735750D01*
X83218553Y-62714309D01*
X83221703Y-62693074D01*
X83226919Y-62672250D01*
X83234151Y-62652038D01*
X83243330Y-62632632D01*
X83254366Y-62614219D01*
X83267154Y-62596976D01*
X83281570Y-62581070D01*
X83297476Y-62566654D01*
X83314719Y-62553866D01*
X83333132Y-62542830D01*
X83352538Y-62533651D01*
X83372750Y-62526419D01*
X83393574Y-62521203D01*
X83414809Y-62518053D01*
X83436250Y-62517000D01*
X83873750Y-62517000D01*
X83895191Y-62518053D01*
G37*
G36*
X82320191Y-62518053D02*
G01*
X82341426Y-62521203D01*
X82362250Y-62526419D01*
X82382462Y-62533651D01*
X82401868Y-62542830D01*
X82420281Y-62553866D01*
X82437524Y-62566654D01*
X82453430Y-62581070D01*
X82467846Y-62596976D01*
X82480634Y-62614219D01*
X82491670Y-62632632D01*
X82500849Y-62652038D01*
X82508081Y-62672250D01*
X82513297Y-62693074D01*
X82516447Y-62714309D01*
X82517500Y-62735750D01*
X82517500Y-63248250D01*
X82516447Y-63269691D01*
X82513297Y-63290926D01*
X82508081Y-63311750D01*
X82500849Y-63331962D01*
X82491670Y-63351368D01*
X82480634Y-63369781D01*
X82467846Y-63387024D01*
X82453430Y-63402930D01*
X82437524Y-63417346D01*
X82420281Y-63430134D01*
X82401868Y-63441170D01*
X82382462Y-63450349D01*
X82362250Y-63457581D01*
X82341426Y-63462797D01*
X82320191Y-63465947D01*
X82298750Y-63467000D01*
X81861250Y-63467000D01*
X81839809Y-63465947D01*
X81818574Y-63462797D01*
X81797750Y-63457581D01*
X81777538Y-63450349D01*
X81758132Y-63441170D01*
X81739719Y-63430134D01*
X81722476Y-63417346D01*
X81706570Y-63402930D01*
X81692154Y-63387024D01*
X81679366Y-63369781D01*
X81668330Y-63351368D01*
X81659151Y-63331962D01*
X81651919Y-63311750D01*
X81646703Y-63290926D01*
X81643553Y-63269691D01*
X81642500Y-63248250D01*
X81642500Y-62735750D01*
X81643553Y-62714309D01*
X81646703Y-62693074D01*
X81651919Y-62672250D01*
X81659151Y-62652038D01*
X81668330Y-62632632D01*
X81679366Y-62614219D01*
X81692154Y-62596976D01*
X81706570Y-62581070D01*
X81722476Y-62566654D01*
X81739719Y-62553866D01*
X81758132Y-62542830D01*
X81777538Y-62533651D01*
X81797750Y-62526419D01*
X81818574Y-62521203D01*
X81839809Y-62518053D01*
X81861250Y-62517000D01*
X82298750Y-62517000D01*
X82320191Y-62518053D01*
G37*
M02*
